<?xml version="1.0" encoding="utf-8"?>
<!-- Generator: Adobe Illustrator 21.1.0, SVG Export Plug-In . SVG Version: 6.00 Build 0)  -->
<svg version="1.1" id="Layer_1" xmlns="http://www.w3.org/2000/svg" xmlns:xlink="http://www.w3.org/1999/xlink" x="0px" y="0px"
	 viewBox="0 0 90 135.75" style="enable-background:new 0 0 90 135.75;" xml:space="preserve">
<style type="text/css">
	.st0{fill:#E6E6E5;}
	.st1{fill:#020202;}
	.st2{opacity:0.8;fill:#F4EA17;enable-background:new    ;}
	.st3{fill:url(#SVGID_1_);}
	.st4{fill:#F4EA17;}
	.st5{fill:url(#SVGID_2_);}
	.st6{fill:#3D55A4;}
	.st7{opacity:0.25;fill:none;stroke:#020202;stroke-width:2;stroke-miterlimit:10;enable-background:new    ;}
	.st8{fill:url(#SVGID_3_);}
	.st9{fill:url(#SVGID_4_);}
	.st10{opacity:0.85;}
	.st11{opacity:0.25;fill:#020202;enable-background:new    ;}
	.st12{opacity:0.3;fill:#1E132C;enable-background:new    ;}
	.st13{fill:#D8D9D8;}
	.st14{opacity:0.3;enable-background:new    ;}
	.st15{fill:#1E132C;}
</style>
<g>
	<g>
		<polygon class="st0" points="21.372,82.233 14.523,90.479 8.541,73.225 17.208,70.219 		"/>
		<path class="st1" d="M16.706,70.396l0.674,0.327l-8.814,2.579l0.049-0.1l6.479,17.084l-1.036-0.189
			c2.353-2.558,4.783-5.166,7.237-7.875C19.755,78.197,18.207,74.265,16.706,70.396z M14.987,90.865L14.3,91.783l-0.35-1.106
			L8.466,73.251L8.444,73.18l0.072-0.029l8.52-3.431l0.511-0.205l0.163,0.534l3.741,12.201L14.987,90.865z"/>
	</g>
	<g>
		<polygon class="st0" points="68.373,83.227 75.022,91.364 81.572,74.772 73.04,71.403 		"/>
		<path class="st1" d="M72.549,71.208l0.186-0.526l0.501,0.228l8.367,3.79l0.071,0.033l-0.025,0.071l-6.063,16.785l-0.377,1.047
			l-0.653-0.887l-6.261-8.507L72.549,71.208z M75.49,90.982l-1.03,0.16l7.04-16.399l0.045,0.101l-8.699-2.95l0.688-0.298
			c-1.663,3.801-3.377,7.664-5.084,11.619C70.838,85.891,73.202,88.461,75.49,90.982z"/>
	</g>
	<path class="st0" d="M32.788,90.585c0.386,2.866,0.816,9.984,1.835,10.418c1.017,0.432,4.787,1.805,9.821,1.911
		c5.035,0.106,8.859-1.104,9.895-1.494c1.036-0.388,1.766-7.484,2.275-10.331"/>
	<path class="st2" d="M55.695,97.049c0,0-0.235,2.261-1.356,4.369c-10.582,3.002-20.335-1.009-20.335-1.009s-1.33-0.55-0.041-0.81
		c1.19-0.239,2.162-2.801,2.162-2.801s1.601,2.163,2.443,2.115c0.842-0.049,1.859-1.253,1.859-1.253s1.025,1.818,2.081,1.824
		c1.054,0.006,2.274-1.523,2.274-1.523s0.389,1.878,1.596,2.039c1.207,0.159,2.256-2.555,2.256-2.555s1.306,1.987,2.241,1.779
		c0.936-0.206,1.684-2.721,1.684-2.721s0.545,3.332,1.344,3.215C54.697,99.6,55.695,97.049,55.695,97.049z"/>
	<path class="st1" d="M56.521,91.072c-0.409,1.689-0.691,3.398-1.039,5.085c-0.164,0.845-0.339,1.688-0.544,2.515
		c-0.101,0.415-0.206,0.825-0.333,1.218c-0.063,0.197-0.13,0.391-0.205,0.572c-0.074,0.178-0.163,0.353-0.241,0.453
		c-0.018,0.02-0.036,0.041-0.041,0.041c-0.004,0.004-0.002,0.001,0.004-0.006c0.001,0.001,0.01-0.006,0.017-0.01
		c0.002-0.002,0.025-0.01,0.006-0.002c-0.098,0.033-0.194,0.065-0.294,0.096c-0.2,0.063-0.4,0.121-0.603,0.181
		c-0.405,0.117-0.816,0.218-1.226,0.315c-0.826,0.19-1.659,0.34-2.499,0.458c-0.839,0.123-1.682,0.207-2.528,0.262
		c-0.845,0.054-1.694,0.055-2.538,0.054c-0.846-0.022-1.693-0.064-2.535-0.154c-0.84-0.092-1.682-0.212-2.516-0.359
		c-0.835-0.151-1.664-0.335-2.479-0.563c-0.407-0.116-0.814-0.233-1.214-0.363c-0.2-0.064-0.399-0.131-0.594-0.205
		c-0.1-0.035-0.194-0.074-0.292-0.11c-0.022-0.008,0.001,0,0.002,0.001c0.007,0.004,0.012,0.011,0.013,0.01
		c0.006,0.004,0.006,0.007,0.001,0.002c-0.006-0.002-0.024-0.023-0.041-0.047c-0.076-0.106-0.157-0.287-0.223-0.469
		c-0.066-0.185-0.125-0.38-0.181-0.581c-0.105-0.4-0.2-0.815-0.283-1.232c-0.17-0.837-0.299-1.687-0.432-2.538
		c-0.269-1.702-0.48-3.42-0.805-5.128l-0.185,0.024c0.11,1.723,0.182,3.451,0.319,5.181c0.068,0.866,0.157,1.73,0.273,2.599
		c0.06,0.434,0.128,0.87,0.225,1.309c0.049,0.221,0.105,0.44,0.174,0.667c0.072,0.227,0.149,0.451,0.31,0.71
		c0.043,0.065,0.089,0.131,0.163,0.205c0.034,0.034,0.075,0.071,0.125,0.107c0.022,0.017,0.053,0.035,0.083,0.052
		c0.028,0.017,0.071,0.035,0.076,0.037c0.104,0.045,0.207,0.093,0.311,0.131c0.206,0.086,0.415,0.166,0.62,0.246
		c0.416,0.158,0.832,0.296,1.255,0.427c0.844,0.258,1.698,0.475,2.56,0.655c1.725,0.365,3.482,0.546,5.246,0.602
		c1.764,0.04,3.528-0.094,5.269-0.363c0.87-0.14,1.733-0.324,2.586-0.549c0.427-0.112,0.851-0.233,1.274-0.367
		c0.212-0.066,0.421-0.139,0.63-0.217c0.105-0.037,0.21-0.082,0.316-0.121c0.004-0.001,0.052-0.02,0.078-0.035
		c0.031-0.017,0.064-0.033,0.087-0.049c0.052-0.034,0.098-0.071,0.131-0.104c0.076-0.071,0.125-0.137,0.174-0.2
		c0.172-0.254,0.258-0.476,0.341-0.702c0.078-0.224,0.144-0.441,0.201-0.66c0.114-0.434,0.206-0.867,0.283-1.298
		c0.153-0.863,0.27-1.725,0.379-2.587c0.204-1.725,0.351-3.447,0.522-5.166L56.521,91.072z"/>
	
		<ellipse transform="matrix(0.0212 -0.9998 0.9998 0.0212 -53.5525 139.8738)" class="st1" cx="44.659" cy="97.287" rx="3.442" ry="0.772"/>
	
		<ellipse transform="matrix(0.098 -0.9952 0.9952 0.098 -48.8175 140.0026)" class="st1" cx="52.824" cy="96.932" rx="3.441" ry="0.772"/>
	
		<ellipse transform="matrix(0.0212 -0.9998 0.9998 0.0212 -49.6576 144.0224)" class="st1" cx="48.726" cy="97.372" rx="3.442" ry="0.772"/>
	
		<ellipse transform="matrix(0.9984 -0.0558 0.0558 0.9984 -5.341 2.173)" class="st1" cx="36.24" cy="96.725" rx="0.772" ry="3.441"/>
	
		<ellipse transform="matrix(0.0212 -0.9998 0.9998 0.0212 -57.4503 135.7224)" class="st1" cx="40.59" cy="97.202" rx="3.442" ry="0.772"/>
	
		<linearGradient id="SVGID_1_" gradientUnits="userSpaceOnUse" x1="-4321.1641" y1="-1743.9813" x2="-4279.418" y2="-1672.7787" gradientTransform="matrix(-0.3353 -0.942 -0.942 0.3353 -3001.7109 -3428.6724)">
		<stop  offset="0.0241" style="stop-color:#F26346"/>
		<stop  offset="0.4235" style="stop-color:#EF452E"/>
		<stop  offset="0.7648" style="stop-color:#EE332A"/>
		<stop  offset="1" style="stop-color:#EA2A29"/>
	</linearGradient>
	<path class="st3" d="M44.458,95.496c-6.173-0.13-12.342-2.105-14.829-3.289c-3.816-2.427-11.398-7.599-13.72-24.64
		c-3.7-27.154,19.622-66.499,30.545-66.265c10.919,0.23,32.557,40.527,27.71,67.501c-3.041,16.928-10.837,21.774-14.75,24.036
		C56.879,93.915,50.629,95.626,44.458,95.496z"/>
	<path class="st4" d="M26.752,22.374c11.352-1.294,15.994-1.565,19.431-1.493c3.437,0.072,3.853,0.289,19.349,2.314
		C58.159,6.842,50.034,1.322,46.598,1.25C43.161,1.178,35.15,6.599,26.752,22.374z"/>
	
		<linearGradient id="SVGID_2_" gradientUnits="userSpaceOnUse" x1="-4344.1162" y1="-1692.9816" x2="-4329.7622" y2="-1692.9816" gradientTransform="matrix(-0.3353 -0.942 -0.942 0.3353 -3001.7109 -3428.6724)">
		<stop  offset="0" style="stop-color:#F7F07F"/>
		<stop  offset="0.1901" style="stop-color:#F9F07C"/>
		<stop  offset="0.442" style="stop-color:#F4EE6D"/>
		<stop  offset="0.7272" style="stop-color:#F4EC4F"/>
		<stop  offset="1" style="stop-color:#F4EA17"/>
	</linearGradient>
	<path class="st5" d="M69.499,82.921c-12.036,2.645-21.238,2.211-24.676,2.136c-3.437-0.072-9.757,0.611-24.562-3.179
		c7.517,9.438,11.062,13.974,24.343,13.567C59.61,94.985,61.243,91.886,69.499,82.921z"/>
	<polygon class="st6" points="46.921,10.359 45.317,13.011 42.222,13.198 44.252,15.541 43.47,18.544 46.328,17.337 48.94,19.006 
		48.677,15.917 51.073,13.949 48.053,13.245 	"/>
	<path class="st6" d="M34.491,12.552l3.02,0.703l-2.396,1.969l0.264,3.088l-2.614-1.67l-2.857,1.206l0.47-1.805
		c1.09-1.642,2.285-3.232,3.617-4.76L34.491,12.552z"/>
	<path class="st7" d="M56.009,85.155c8.799-19.395,6.135-45.075,4.155-63.001"/>
	<path class="st7" d="M33.221,84.574c-7.798-19.818-3.825-45.331-0.932-63.132"/>
	<path class="st6" d="M59.667,12.334c1.007,1.337,1.673,2.91,2.575,4.343l-0.169,0.139l0.264,3.088l-2.613-1.67l-2.856,1.206
		l0.782-3l-2.03-2.345l3.095-0.184L59.667,12.334z"/>
	<path class="st1" d="M51.958,93.415c1.215-0.213,2.424-0.476,3.612-0.791c1.184-0.311,2.373-0.68,3.444-1.121l-0.152,0.076
		c0.944-0.539,1.828-1.093,2.685-1.698l0.633-0.462c0.207-0.158,0.405-0.327,0.609-0.491c0.415-0.319,0.786-0.684,1.173-1.032
		c1.519-1.429,2.833-3.085,3.944-4.884c0.298-0.438,0.541-0.909,0.799-1.373l0.385-0.698c0.133-0.23,0.23-0.48,0.351-0.719
		l0.68-1.448l0.599-1.491c0.096-0.25,0.206-0.494,0.293-0.75l0.256-0.764l0.512-1.534l0.428-1.565l0.213-0.782l0.106-0.391
		l0.086-0.397l0.344-1.589c0.116-0.531,0.236-1.061,0.319-1.589c0.193-1.057,0.321-2.129,0.438-3.202
		c0.206-2.15,0.269-4.322,0.216-6.496c-0.127-4.35-0.698-8.701-1.599-12.988c-0.899-4.29-2.113-8.519-3.599-12.657
		c-0.74-2.069-1.544-4.116-2.411-6.137c-0.874-2.018-1.817-4.005-2.821-5.962c-2.023-3.899-4.275-7.7-6.972-11.155
		c-1.353-1.719-2.798-3.371-4.431-4.791c-0.816-0.709-1.678-1.361-2.603-1.87l-0.347-0.187c-0.117-0.058-0.236-0.11-0.354-0.166
		c-0.235-0.118-0.48-0.194-0.721-0.289c-0.488-0.154-0.986-0.259-1.479-0.278c-0.493-0.001-0.995,0.083-1.49,0.216
		c-0.245,0.084-0.493,0.151-0.733,0.259C44.25,2.27,44.128,2.315,44.009,2.37l-0.354,0.174c-0.946,0.47-1.835,1.085-2.68,1.759
		c-1.693,1.35-3.206,2.942-4.63,4.601c-2.841,3.335-5.25,7.04-7.438,10.849c-1.085,1.912-2.112,3.858-3.071,5.835
		c-0.952,1.983-1.84,3.994-2.669,6.029c-1.658,4.069-3.051,8.245-4.132,12.493c-1.083,4.244-1.836,8.57-2.148,12.908
		c-0.147,2.169-0.175,4.343-0.06,6.498c0.071,1.077,0.154,2.153,0.3,3.217c0.06,0.533,0.158,1.066,0.25,1.601l0.276,1.602l0.069,0.4
		l0.089,0.397l0.181,0.791l0.362,1.581l0.445,1.552l0.224,0.775c0.077,0.257,0.175,0.506,0.262,0.761l0.534,1.515l0.62,1.475
		c0.107,0.243,0.195,0.497,0.319,0.732l0.354,0.713c0.238,0.474,0.461,0.956,0.74,1.406c1.032,1.845,2.275,3.554,3.733,5.047
		c0.372,0.365,0.729,0.745,1.128,1.081c0.195,0.171,0.387,0.35,0.588,0.517l0.611,0.488c0.83,0.64,1.689,1.232,2.61,1.811
		l-0.148-0.083c1.051,0.485,2.222,0.903,3.394,1.265c1.177,0.363,2.373,0.678,3.577,0.943c2.409,0.533,4.861,0.85,7.293,0.91
		C47.064,94.059,49.527,93.845,51.958,93.415z M36.731,95.861c-1.28-0.288-2.548-0.626-3.804-1.021
		c-1.257-0.398-2.492-0.837-3.752-1.425l-0.072-0.034l-0.077-0.049c-0.95-0.6-1.915-1.268-2.824-1.995l-0.678-0.556
		c-0.223-0.19-0.434-0.393-0.652-0.587c-0.443-0.383-0.84-0.814-1.25-1.231c-1.613-1.696-2.965-3.619-4.063-5.648
		c-0.298-0.497-0.534-1.021-0.786-1.54l-0.374-0.778c-0.129-0.257-0.222-0.528-0.334-0.793c-0.213-0.531-0.432-1.062-0.637-1.596
		l-0.535-1.625c-0.087-0.273-0.184-0.54-0.26-0.815l-0.217-0.823L15.977,73.7l-0.345-1.663l-0.17-0.832l-0.086-0.416l-0.064-0.42
		l-0.254-1.673c-0.084-0.557-0.174-1.113-0.227-1.682c-0.133-1.131-0.194-2.264-0.24-3.396c-0.064-2.265,0.022-4.522,0.228-6.765
		c0.432-4.48,1.319-8.888,2.528-13.19c2.435-8.6,6.02-16.825,10.506-24.514c2.263-3.835,4.774-7.532,7.675-10.935
		c1.464-1.689,3.02-3.313,4.798-4.718c0.888-0.699,1.83-1.349,2.868-1.859l0.391-0.189c0.133-0.058,0.269-0.11,0.404-0.166
		c0.266-0.119,0.555-0.194,0.832-0.288c0.573-0.152,1.171-0.251,1.786-0.246c0.615,0.02,1.207,0.144,1.773,0.322
		c0.275,0.105,0.558,0.194,0.819,0.323c0.131,0.063,0.268,0.119,0.397,0.183l0.383,0.205c1.014,0.556,1.93,1.243,2.789,1.978
		c1.717,1.479,3.201,3.167,4.592,4.918c2.754,3.524,5.108,7.324,7.206,11.25c4.157,7.873,7.392,16.241,9.458,24.936
		c1.028,4.349,1.726,8.79,1.969,13.284c0.112,2.247,0.104,4.509-0.058,6.768c-0.093,1.128-0.205,2.259-0.385,3.383
		c-0.077,0.567-0.189,1.116-0.298,1.67l-0.323,1.661l-0.082,0.416l-0.101,0.411l-0.205,0.825l-0.416,1.647l-0.505,1.626
		l-0.252,0.815c-0.087,0.27-0.198,0.534-0.294,0.803l-0.604,1.601c-0.228,0.526-0.469,1.047-0.703,1.567
		c-0.123,0.259-0.227,0.526-0.367,0.778l-0.406,0.761c-0.273,0.506-0.531,1.021-0.85,1.506c-1.185,1.98-2.617,3.843-4.299,5.469
		c-0.427,0.399-0.844,0.813-1.301,1.177c-0.225,0.186-0.445,0.379-0.676,0.559l-0.699,0.526c-0.938,0.69-1.93,1.313-2.904,1.874
		l-0.078,0.046l-0.072,0.03c-1.283,0.534-2.535,0.92-3.807,1.265c-1.271,0.342-2.551,0.626-3.845,0.86
		c-2.583,0.469-5.214,0.715-7.878,0.679C41.91,96.797,39.29,96.438,36.731,95.861z"/>
	<path class="st1" d="M20.233,81.969c3.912,1.425,7.979,2.437,12.094,3.137c2.056,0.363,4.133,0.611,6.21,0.819
		c2.081,0.193,4.168,0.303,6.256,0.359c2.088,0.03,4.179,0.01,6.267-0.096c2.086-0.119,4.17-0.28,6.24-0.556
		c4.14-0.526,8.248-1.364,12.217-2.621l-0.045-0.181c-4.089,0.727-8.185,1.274-12.295,1.602c-2.056,0.152-4.112,0.286-6.173,0.332
		c-2.06,0.063-4.119,0.077-6.178,0.022c-2.06-0.033-4.116-0.136-6.173-0.286c-2.056-0.133-4.105-0.353-6.153-0.593
		c-4.094-0.503-8.163-1.224-12.217-2.123L20.233,81.969z"/>
	<path class="st1" d="M65.552,23.106c-3.118-0.98-6.328-1.667-9.568-2.148c-3.238-0.488-6.512-0.751-9.789-0.825
		c-3.276-0.066-6.556,0.058-9.814,0.409c-3.255,0.342-6.492,0.892-9.649,1.74l0.034,0.183c3.247-0.312,6.475-0.574,9.705-0.721
		c3.232-0.14,6.463-0.185,9.692-0.114c3.23,0.068,6.456,0.25,9.678,0.526c3.224,0.286,6.438,0.685,9.667,1.131L65.552,23.106z"/>
	<g>
		
			<linearGradient id="SVGID_3_" gradientUnits="userSpaceOnUse" x1="-4385.9434" y1="-1715.5753" x2="-4322.4077" y2="-1715.5753" gradientTransform="matrix(-0.3353 -0.942 -0.942 0.3353 -3001.7109 -3428.6724)">
			<stop  offset="0" style="stop-color:#FAED26"/>
			<stop  offset="0.6376" style="stop-color:#3E56A4"/>
			<stop  offset="0.929" style="stop-color:#3E56A4"/>
		</linearGradient>
		<path class="st8" d="M80.398,61.847c-4.497,30.229-16.944,33.441-16.944,33.441s12.641,6.674,3.401,38.813
			C95.925,95.004,88.626,74.138,80.398,61.847z"/>
		<path class="st1" d="M80.659,61.808c0.119,0.101,0.233,0.224,0.323,0.347l0.376,0.539c0.235,0.341,0.464,0.686,0.686,1.036
			c0.445,0.698,0.879,1.406,1.288,2.128c0.409,0.722,0.803,1.454,1.172,2.2c0.363,0.749,0.703,1.508,1.024,2.276
			c0.638,1.54,1.165,3.126,1.597,4.739c0.212,0.808,0.404,1.622,0.555,2.443c0.086,0.409,0.146,0.821,0.218,1.233
			c0.058,0.415,0.128,0.826,0.175,1.239c0.212,1.657,0.311,3.329,0.31,4.997c0.001,1.669-0.094,3.337-0.278,4.994
			c-0.368,3.312-1.073,6.576-2.013,9.757c-0.955,3.179-2.128,6.284-3.481,9.304c-0.676,1.508-1.396,2.998-2.153,4.468
			c-0.372,0.738-0.767,1.462-1.156,2.192c-0.404,0.721-0.792,1.449-1.207,2.161c-0.813,1.437-1.672,2.846-2.537,4.25
			c-0.875,1.399-1.777,2.778-2.708,4.138c-1.854,2.725-3.785,5.394-5.804,7.993l-0.791,1.017l0.369-1.226l0,0
			c0.916-3.295,1.706-6.625,2.277-9.99c0.567-3.365,0.939-6.765,0.948-10.167c0.007-3.394-0.327-6.808-1.311-10.032
			c-0.496-1.607-1.153-3.161-2.031-4.575c-0.439-0.706-0.932-1.374-1.484-1.983c-0.277-0.304-0.568-0.592-0.874-0.858
			c-0.152-0.133-0.31-0.259-0.47-0.377c-0.078-0.058-0.16-0.116-0.24-0.17c-0.076-0.052-0.171-0.11-0.225-0.14l0,0L62.33,95.05
			l0.996-0.268c0.055-0.017,0.157-0.049,0.238-0.078l0.26-0.101c0.175-0.074,0.347-0.153,0.52-0.24
			c0.344-0.175,0.684-0.365,1.01-0.577c0.657-0.421,1.288-0.898,1.882-1.418c1.189-1.043,2.256-2.234,3.217-3.505
			c0.963-1.272,1.817-2.633,2.592-4.036c0.194-0.351,0.391-0.701,0.568-1.062c0.18-0.359,0.368-0.715,0.54-1.078
			c0.336-0.729,0.681-1.458,0.985-2.203c0.323-0.737,0.603-1.494,0.891-2.245c0.151-0.374,0.27-0.759,0.406-1.139l0.393-1.143
			c0.235-0.772,0.492-1.536,0.71-2.314l0.326-1.167l0.163-0.582l0.147-0.587c0.404-1.565,0.757-3.141,1.077-4.726l0.23-1.19
			l0.116-0.597l0.058-0.304l0.058-0.333c0.082-0.445,0.178-0.901,0.289-1.337l0.332-1.263
			C80.427,61.627,80.541,61.707,80.659,61.808z M80.407,63.279c-0.018,0.363-0.049,0.71-0.098,1.063l-0.04,0.266
			c-0.013,0.089-0.035,0.198-0.052,0.294l-0.11,0.6l-0.217,1.201c-0.304,1.599-0.643,3.191-1.031,4.773l-0.142,0.593l-0.158,0.59
			l-0.316,1.18c-0.212,0.787-0.463,1.565-0.691,2.346l-0.386,1.161c-0.131,0.386-0.251,0.776-0.399,1.159
			c-0.283,0.764-0.558,1.535-0.878,2.288c-0.298,0.761-0.641,1.505-0.975,2.252c-0.171,0.372-0.359,0.737-0.538,1.104
			c-0.175,0.369-0.37,0.731-0.567,1.092c-0.775,1.444-1.636,2.849-2.615,4.175c-0.98,1.324-2.075,2.575-3.312,3.687
			c-0.622,0.554-1.282,1.068-1.986,1.529c-0.351,0.233-0.717,0.444-1.093,0.643c-0.189,0.098-0.382,0.19-0.58,0.277
			c-0.1,0.042-0.201,0.083-0.304,0.123c-0.109,0.04-0.2,0.075-0.339,0.112l0.112-0.961l0,0c0.133,0.076,0.217,0.131,0.319,0.2
			c0.096,0.066,0.19,0.133,0.281,0.204c0.182,0.139,0.357,0.286,0.526,0.434c0.339,0.3,0.649,0.621,0.946,0.954
			c0.591,0.668,1.108,1.392,1.564,2.147c0.911,1.513,1.576,3.148,2.065,4.822c0.488,1.676,0.799,3.393,0.987,5.114
			c0.095,0.862,0.158,1.725,0.192,2.59c0.037,0.863,0.045,1.729,0.029,2.591c-0.055,3.455-0.48,6.884-1.097,10.267
			c-0.623,3.383-1.46,6.719-2.426,10.014l0,0l-0.421-0.21c3.807-5.348,7.394-10.852,10.54-16.593
			c0.399-0.715,0.772-1.442,1.157-2.164c0.369-0.729,0.75-1.453,1.104-2.191c0.723-1.465,1.404-2.951,2.048-4.45
			c1.303-2.991,2.427-6.061,3.33-9.187c0.907-3.125,1.582-6.314,1.924-9.538c0.17-1.611,0.266-3.23,0.273-4.847
			c0.012-1.618-0.093-3.232-0.265-4.841c-0.365-3.211-1.12-6.378-2.258-9.414c-0.569-1.518-1.227-3.004-1.957-4.46
			c-0.363-0.727-0.754-1.443-1.157-2.152c-0.201-0.354-0.41-0.706-0.615-1.06l-0.159-0.262l-0.078-0.131l-0.036-0.064
			c-0.007-0.012-0.013-0.024-0.019-0.036c-0.022-0.049-0.022-0.096-0.017-0.167c0.006-0.069,0.007-0.163-0.011-0.26
			C80.439,62.535,80.427,62.916,80.407,63.279z"/>
	</g>
	<g>
		
			<linearGradient id="SVGID_4_" gradientUnits="userSpaceOnUse" x1="-4369.5571" y1="-1659.7445" x2="-4297.4878" y2="-1659.7445" gradientTransform="matrix(-0.3353 -0.942 -0.942 0.3353 -3001.7109 -3428.6724)">
			<stop  offset="0" style="stop-color:#FAED26"/>
			<stop  offset="0.6376" style="stop-color:#3E56A4"/>
			<stop  offset="0.929" style="stop-color:#3E56A4"/>
		</linearGradient>
		<path class="st9" d="M10.261,60.363c3.213,30.391,15.512,34.129,15.512,34.129s-12.911,6.134-5.04,38.634
			C-6.655,92.833,1.523,72.295,10.261,60.363z"/>
		<g>
			<path class="st1" d="M10.162,60.912c0.002,0.071,0,0.117-0.022,0.165c-0.007,0.012-0.013,0.023-0.022,0.036l-0.041,0.063
				l-0.083,0.129l-0.169,0.257c-0.221,0.345-0.443,0.686-0.658,1.032c-0.433,0.691-0.852,1.39-1.247,2.101
				c-0.791,1.423-1.512,2.88-2.144,4.373C4.51,72.053,3.62,75.183,3.12,78.376c-0.24,1.597-0.412,3.206-0.47,4.824
				c-0.061,1.616-0.033,3.237,0.066,4.855c0.207,3.235,0.744,6.45,1.518,9.611c0.77,3.161,1.761,6.274,2.937,9.321
				c0.58,1.526,1.196,3.039,1.858,4.534c0.322,0.752,0.67,1.491,1.009,2.234c0.353,0.738,0.696,1.48,1.063,2.211
				c2.9,5.869,6.25,11.521,9.827,17.025l-0.43,0.19l0,0c-0.826-3.332-1.521-6.702-2-10.108c-0.475-3.405-0.752-6.85-0.662-10.305
				c0.022-0.863,0.065-1.726,0.139-2.588c0.071-0.862,0.17-1.723,0.3-2.579c0.26-1.712,0.643-3.414,1.203-5.067
				c0.562-1.652,1.294-3.256,2.268-4.73c0.487-0.734,1.034-1.436,1.653-2.077c0.31-0.321,0.637-0.629,0.986-0.913
				c0.174-0.142,0.354-0.281,0.544-0.411c0.094-0.064,0.19-0.129,0.289-0.192c0.105-0.064,0.19-0.117,0.327-0.186l0,0l0.072,0.963
				c-0.136-0.045-0.227-0.084-0.334-0.128c-0.1-0.045-0.201-0.089-0.299-0.137c-0.194-0.095-0.383-0.194-0.569-0.3
				c-0.368-0.213-0.726-0.441-1.066-0.687c-0.681-0.491-1.321-1.032-1.917-1.612c-1.19-1.164-2.23-2.459-3.154-3.823
				c-0.924-1.365-1.723-2.806-2.437-4.28c-0.181-0.368-0.359-0.737-0.518-1.115c-0.163-0.376-0.335-0.749-0.488-1.127
				c-0.303-0.759-0.614-1.517-0.88-2.29c-0.288-0.764-0.528-1.547-0.78-2.322c-0.131-0.387-0.233-0.782-0.35-1.173l-0.335-1.178
				c-0.195-0.791-0.415-1.578-0.592-2.374l-0.266-1.194l-0.131-0.598l-0.117-0.599c-0.321-1.597-0.592-3.202-0.828-4.813
				L10.39,64.03l-0.083-0.603c-0.013-0.099-0.03-0.206-0.04-0.298l-0.029-0.269c-0.034-0.357-0.049-0.703-0.053-1.068
				c-0.002-0.363,0.001-0.744-0.008-1.139C10.162,60.75,10.16,60.841,10.162,60.912z M10.617,61.35
				c0.093,0.441,0.171,0.901,0.234,1.35l0.043,0.335l0.045,0.307l0.089,0.6l0.18,1.2c0.252,1.597,0.54,3.188,0.875,4.767
				l0.121,0.593l0.139,0.591l0.277,1.178c0.185,0.786,0.409,1.56,0.611,2.341l0.344,1.159c0.119,0.386,0.224,0.775,0.357,1.154
				c0.256,0.763,0.504,1.53,0.795,2.28c0.27,0.759,0.584,1.497,0.89,2.242c0.157,0.369,0.33,0.733,0.494,1.1
				c0.162,0.369,0.341,0.727,0.522,1.085c0.715,1.436,1.511,2.83,2.42,4.144c0.91,1.312,1.924,2.546,3.068,3.639
				c0.573,0.545,1.182,1.049,1.822,1.496c0.319,0.225,0.649,0.43,0.985,0.621c0.169,0.093,0.339,0.182,0.509,0.262l0.256,0.112
				c0.082,0.033,0.18,0.071,0.235,0.088l0.984,0.311l-0.913,0.655l0,0c-0.055,0.028-0.153,0.082-0.23,0.129
				c-0.083,0.049-0.165,0.105-0.248,0.159c-0.164,0.112-0.327,0.23-0.485,0.358c-0.318,0.25-0.62,0.528-0.909,0.82
				c-0.577,0.584-1.1,1.232-1.567,1.917c-0.938,1.374-1.661,2.901-2.222,4.484c-1.118,3.179-1.596,6.576-1.736,9.967
				c-0.136,3.398,0.092,6.812,0.517,10.198c0.43,3.387,1.075,6.747,1.854,10.077l0,0l0.318,1.242l-0.749-1.051
				c-1.908-2.682-3.724-5.432-5.46-8.231c-0.872-1.399-1.713-2.816-2.528-4.25c-0.805-1.44-1.604-2.883-2.355-4.354
				c-0.386-0.731-0.744-1.473-1.116-2.21c-0.354-0.745-0.721-1.485-1.062-2.238c-0.694-1.497-1.353-3.018-1.964-4.554
				c-1.224-3.074-2.265-6.227-3.084-9.444c-0.807-3.219-1.372-6.509-1.6-9.834c-0.116-1.663-0.139-3.332-0.068-5
				c0.069-1.667,0.239-3.332,0.522-4.979c0.065-0.412,0.152-0.82,0.228-1.232c0.092-0.409,0.17-0.819,0.271-1.222
				c0.186-0.815,0.415-1.62,0.657-2.417c0.499-1.593,1.092-3.156,1.796-4.667c0.353-0.754,0.727-1.5,1.12-2.233
				c0.398-0.731,0.823-1.444,1.261-2.148c0.439-0.703,0.901-1.394,1.377-2.072c0.236-0.341,0.481-0.675,0.728-1.004l0.398-0.524
				c0.096-0.118,0.215-0.238,0.339-0.334c0.123-0.098,0.24-0.171,0.34-0.239L10.617,61.35z"/>
		</g>
	</g>
	<g class="st10">
		<path class="st6" d="M70.083,118.069c1.06-0.71,2.034-1.54,2.938-2.443c0.901-0.905,1.755-1.872,2.402-3.019
			c0.078-0.144,0.159-0.288,0.222-0.445l0.101-0.23c0.031-0.078,0.053-0.163,0.082-0.246c0.023-0.084,0.057-0.163,0.071-0.251
			l0.041-0.268c0.018-0.094,0.015-0.17,0.017-0.251l0.006-0.241l0.012-0.482l-0.01-0.481l-0.01-0.481l-0.03-0.48
			c-0.083-1.277-0.236-2.548-0.486-3.8c-0.052-0.316-0.129-0.625-0.195-0.937c-0.071-0.311-0.133-0.625-0.221-0.932l-0.245-0.925
			c-0.087-0.307-0.189-0.61-0.282-0.914l-0.144-0.456l-0.163-0.451l-0.324-0.901l-0.362-0.884c-0.119-0.294-0.239-0.591-0.377-0.878
			l-0.404-0.867c-0.131-0.291-0.291-0.568-0.433-0.851c-0.148-0.281-0.292-0.568-0.452-0.84l-0.488-0.82l-0.243-0.409l-0.262-0.399
			l-0.528-0.794c-0.17-0.269-0.374-0.514-0.562-0.772l-0.573-0.761l-0.154,0.119c0.353,0.523,0.721,1.036,1.062,1.565l0.498,0.803
			l0.247,0.402l0.227,0.415l0.455,0.826c0.151,0.276,0.278,0.565,0.422,0.845c0.137,0.283,0.288,0.559,0.411,0.849l0.379,0.863
			c0.131,0.286,0.243,0.58,0.357,0.873l0.34,0.88l0.301,0.892l0.151,0.447l0.131,0.451c0.372,1.201,0.657,2.426,0.893,3.657
			c0.239,1.232,0.38,2.482,0.452,3.73l0.025,0.469l0.007,0.469l0.007,0.469l-0.013,0.468l-0.007,0.233
			c-0.002,0.077-0.002,0.16-0.017,0.223l-0.029,0.201c-0.01,0.068-0.04,0.137-0.057,0.205c-0.022,0.068-0.04,0.139-0.065,0.205
			l-0.089,0.205c-0.053,0.139-0.125,0.271-0.198,0.404c-0.587,1.068-1.396,2.042-2.228,2.975c-0.851,0.921-1.754,1.798-2.722,2.604
			L70.083,118.069z"/>
	</g>
	<g class="st10">
		<path class="st6" d="M18.426,116.891c-0.936-0.844-1.804-1.755-2.617-2.71c-0.796-0.963-1.567-1.969-2.11-3.06
			c-0.068-0.137-0.135-0.273-0.182-0.415l-0.082-0.209c-0.023-0.071-0.037-0.139-0.057-0.21c-0.015-0.069-0.043-0.139-0.049-0.207
			l-0.022-0.201c-0.012-0.064-0.007-0.146-0.007-0.223l0.002-0.233l0.002-0.469l0.025-0.468l0.025-0.468l0.043-0.469
			c0.121-1.245,0.312-2.488,0.599-3.71c0.286-1.222,0.62-2.434,1.039-3.619l0.149-0.447l0.166-0.44l0.336-0.881l0.374-0.867
			c0.123-0.289,0.247-0.579,0.391-0.858l0.415-0.848c0.135-0.283,0.298-0.554,0.445-0.832c0.153-0.273,0.293-0.557,0.456-0.826
			l0.487-0.808l0.245-0.405l0.264-0.393l0.529-0.784c0.362-0.515,0.75-1.013,1.124-1.521l-0.151-0.123l-0.603,0.738
			c-0.197,0.248-0.411,0.486-0.591,0.749l-0.559,0.773l-0.28,0.387l-0.259,0.399l-0.52,0.802c-0.171,0.269-0.324,0.546-0.485,0.821
			c-0.154,0.278-0.326,0.549-0.469,0.832l-0.438,0.85c-0.151,0.28-0.281,0.572-0.415,0.861l-0.397,0.87l-0.359,0.885l-0.18,0.443
			l-0.162,0.45c-0.106,0.3-0.218,0.599-0.319,0.902l-0.28,0.914c-0.1,0.304-0.174,0.614-0.256,0.921
			c-0.078,0.309-0.17,0.615-0.234,0.928c-0.3,1.242-0.504,2.504-0.637,3.777l-0.047,0.479l-0.03,0.481l-0.029,0.48l-0.007,0.483
			l-0.002,0.24c-0.001,0.082-0.007,0.157,0.008,0.251l0.03,0.27c0.01,0.089,0.04,0.17,0.06,0.256
			c0.023,0.083,0.042,0.17,0.071,0.248l0.092,0.235c0.057,0.159,0.131,0.305,0.205,0.453c0.599,1.173,1.417,2.17,2.28,3.112
			c0.868,0.937,1.811,1.806,2.841,2.558L18.426,116.891z"/>
	</g>
	
		<ellipse transform="matrix(0.9421 -0.3353 0.3353 0.9421 -4.9893 21.2158)" class="st11" cx="58.947" cy="25.057" rx="0.473" ry="0.473"/>
	
		<ellipse transform="matrix(0.9421 -0.3353 0.3353 0.9421 -6.8499 21.6745)" class="st11" cx="59.345" cy="30.675" rx="0.473" ry="0.473"/>
	
		<ellipse transform="matrix(0.9421 -0.3353 0.3353 0.9421 -8.8314 22.1492)" class="st11" cx="59.729" cy="36.651" rx="0.473" ry="0.473"/>
	
		<ellipse transform="matrix(0.0388 -0.9992 0.9992 0.0388 -21.3292 130.2992)" class="st11" cx="57.064" cy="76.236" rx="0.473" ry="0.473"/>
	
		<ellipse transform="matrix(0.0388 -0.9992 0.9992 0.0388 -28.617 133.7844)" class="st11" cx="55.232" cy="81.767" rx="0.473" ry="0.473"/>
	
		<ellipse transform="matrix(0.3809 -0.9246 0.9246 0.3809 -1.6665 46.0486)" class="st11" cx="33.553" cy="24.269" rx="0.473" ry="0.473"/>
	
		<ellipse transform="matrix(0.3809 -0.9246 0.9246 0.3809 -7.2555 48.8854)" class="st11" cx="32.877" cy="29.861" rx="0.473" ry="0.473"/>
	
		<ellipse transform="matrix(0.3809 -0.9246 0.9246 0.3809 -13.1758 51.943)" class="st11" cx="32.2" cy="35.81" rx="0.473" ry="0.473"/>
	<ellipse transform="matrix(0.0099 -1 1 0.0099 -42.4128 107.7785)" class="st11" cx="33.219" cy="75.307" rx="0.473" ry="0.473"/>
	<ellipse transform="matrix(0.0099 -1 1 0.0099 -46.4823 114.8995)" class="st11" cx="34.78" cy="80.922" rx="0.473" ry="0.473"/>
	<path class="st12" d="M36.264,95.778l3.418-0.791c0,0,3.816,0.658,3.382-0.588c-0.148-0.425-3.3-3.543-6.099-15.929
		c-0.28-1.238-0.592-3.053-0.913-5.108c-0.058-0.377,1.173,0.664,1.115,0.273c-0.192-1.274-0.055-3.883-0.243-5.214
		c-0.036-0.264-1.754-1.133-1.792-1.397c-0.031-0.225,0,0-0.03-0.224c-1.836-0.782-5.348-5.715-5.214-11.633
		c0.163-7.381,3.429-9.757,5.325-11.884c0.017-0.205,0.013-0.194,0,0c-0.043,0.6,1.308-0.82,1.323-1.067
		c0.045-0.798,0.282-4.036,0.346-4.785c0.037-0.447-1.274,0.814-1.203,0.346c0.037-0.243,0,0,0.049-0.256
		c0.522-0.752,5.589-2.809,12.757-2.027c-4.337-1.754-9.3-2.203-12.179-1.89C39.68,14.257,46.561,9.812,54.413,5.942
		c-13.08-18.894-31.945,23.546-34.872,34.282c-2.78,10.195-5.435,22.3-3.921,30.546c0.496,2.701,1.376,5.405,2.539,7.981
		c3.493,7.724,9.048,13.226,15.023,14.89c0.516,5.342,0.254,4.115,0.254,4.115S34.088,96.658,36.264,95.778z"/>
	<polygon class="st12" points="15.045,81.512 12.161,71.937 17.208,70.219 18.159,78.751 	"/>
	<path class="st12" d="M13.369,76.807C6.15,81.131,5.992,91.03,6.713,107.342c-6.085-17.091-8.239-28.728,3.549-46.981
		C10.793,69.569,13.369,76.807,13.369,76.807z"/>
	<path class="st12" d="M71.201,81.343c0,0,1.869,1.717,2.679,2.857c2.153-4.575,4.139-10.892,4.139-10.892l-4.32-1.654
		L71.201,81.343z"/>
	<path class="st12" d="M76.033,79.626c2.368,3.176,7.611,16.412,6.348,28.449c6.612-18.991,6.328-25.807,4.266-32.376
		c-1.992-6.343-6.249-13.85-6.249-13.85L76.033,79.626z"/>
	<path class="st12" d="M55.417,98.543c-0.526-1.858-1.786-2.849-3.119-2.762c2.733-1.148,3.904-1.874,3.904-1.874L55.417,98.543z"/>
	<polygon class="st12" points="15.045,81.512 12.161,71.937 17.208,70.219 18.159,78.751 	"/>
	<path class="st12" d="M13.369,76.807C6.15,81.131,5.992,91.03,6.713,107.342c-6.085-17.091-8.016-29.118,3.549-46.981
		C10.793,69.569,13.369,76.807,13.369,76.807z"/>
	<path class="st12" d="M71.201,81.343c0,0,1.869,1.717,2.679,2.857c2.153-4.575,4.139-10.892,4.139-10.892l-4.32-1.654
		L71.201,81.343z"/>
	<path class="st12" d="M76.033,79.626c2.368,3.176,7.611,16.412,6.348,28.449c6.612-18.991,6.328-25.807,4.266-32.376
		c-1.992-6.343-6.249-13.85-6.249-13.85L76.033,79.626z"/>
	<path class="st12" d="M55.417,98.543c-0.526-1.858-1.786-2.849-3.119-2.762c2.733-1.148,3.904-1.874,3.904-1.874L55.417,98.543z"/>
	
		<ellipse transform="matrix(0.0212 -0.9998 0.9998 0.0212 -11.3999 99.4644)" class="st13" cx="45.098" cy="55.554" rx="20.24" ry="20.24"/>
	<g class="st14">
		<path class="st15" d="M28.851,55.532c0.233-10.995,9.336-19.719,20.33-19.487c0.613,0.013,1.215,0.063,1.813,0.13
			c-1.612-0.452-3.297-0.734-5.048-0.772c-11.175-0.237-20.426,8.63-20.663,19.805s8.63,20.426,19.805,20.663
			c0.758,0.017,1.503-0.018,2.241-0.083C36.818,75.038,28.625,66.187,28.851,55.532z"/>
	</g>
	<g>
		
			<ellipse transform="matrix(0.0212 -0.9998 0.9998 0.0212 -10.8465 99.5042)" class="st1" cx="45.395" cy="55.292" rx="15.572" ry="15.572"/>
		<g>
			<path class="st0" d="M55.484,48.21l-16.22,17.676c1.922,1.313,4.182,2.049,6.564,2.099c0.516,0.008,1.023-0.026,1.527-0.079
				L58.21,56.078C58.261,53.182,57.297,50.428,55.484,48.21z"/>
			<path class="st0" d="M49.636,44.268L34.839,60.395c0.406,1.006,0.947,1.955,1.618,2.828l16.137-17.586
				C51.67,45.048,50.68,44.585,49.636,44.268z"/>
		</g>
		<g>
			
				<ellipse transform="matrix(0.0212 -0.9998 0.9998 0.0212 7.0078 82.188)" class="st1" cx="45.479" cy="37.515" rx="0.96" ry="0.96"/>
			
				<ellipse transform="matrix(0.0212 -0.9998 0.9998 0.0212 -29.4823 116.4311)" class="st1" cx="44.722" cy="73.273" rx="0.96" ry="0.96"/>
			
				<ellipse transform="matrix(0.0212 -0.9998 0.9998 0.0212 5.8978 117.5602)" class="st1" cx="62.989" cy="55.768" rx="0.96" ry="0.96"/>
			
				<ellipse transform="matrix(0.0212 -0.9998 0.9998 0.0212 -28.3608 81.0704)" class="st1" cx="27.223" cy="55.019" rx="0.96" ry="0.96"/>
			
				<ellipse transform="matrix(0.7219 -0.692 0.692 0.7219 -13.6907 52.07)" class="st1" cx="57.937" cy="43.068" rx="0.96" ry="0.96"/>
			
				<ellipse transform="matrix(0.7219 -0.692 0.692 0.7219 -38.0075 41.0922)" class="st1" cx="32.121" cy="67.833" rx="0.96" ry="0.96"/>
			
				<ellipse transform="matrix(0.7219 -0.692 0.692 0.7219 -31.3457 58.7399)" class="st1" cx="57.408" cy="68.369" rx="0.96" ry="0.96"/>
			
				<ellipse transform="matrix(0.7219 -0.692 0.692 0.7219 -20.3561 34.4267)" class="st1" cx="32.654" cy="42.539" rx="0.96" ry="0.96"/>
		</g>
		<path class="st1" d="M26.11,47.323c1.113-2.463,2.715-4.698,4.675-6.54c3.906-3.711,9.283-5.803,14.663-5.677
			c2.686,0.041,5.369,0.611,7.84,1.682c2.474,1.066,4.742,2.617,6.63,4.552c1.889,1.933,3.412,4.234,4.427,6.755
			c1.021,2.517,1.533,5.246,1.512,7.974c-0.025,2.728-0.588,5.46-1.664,7.982c-1.074,2.523-2.649,4.842-4.621,6.765
			c-1.975,1.919-4.327,3.458-6.897,4.473c-2.569,1.016-5.343,1.513-8.108,1.465c-1.382-0.033-2.761-0.197-4.112-0.496
			c-1.351-0.3-2.667-0.745-3.928-1.308c-2.517-1.139-4.791-2.791-6.662-4.8c-3.741-4.029-5.781-9.531-5.575-14.96
			C24.378,52.477,24.994,49.785,26.11,47.323z M26.724,62.753c0.974,2.379,2.428,4.546,4.227,6.354
			c3.59,3.643,8.589,5.745,13.654,5.851c2.533,0.064,5.075-0.369,7.441-1.28c2.365-0.905,4.562-2.276,6.411-4.023
			c1.851-1.743,3.376-3.846,4.431-6.175c1.06-2.325,1.652-4.866,1.738-7.435c0.088-2.568-0.329-5.158-1.236-7.574
			c-0.906-2.416-2.293-4.662-4.069-6.554c-1.777-1.889-3.93-3.436-6.307-4.501c-2.375-1.065-4.967-1.648-7.577-1.72
			c-2.61-0.055-5.231,0.399-7.663,1.346c-2.429,0.955-4.66,2.406-6.531,4.22c-1.862,1.824-3.36,4.01-4.377,6.396
			c-1.021,2.386-1.555,4.97-1.583,7.553C25.266,57.795,25.756,60.374,26.724,62.753z"/>
	</g>
</g>
</svg>
