<?xml version="1.0" encoding="utf-8"?>
<!-- Generator: Adobe Illustrator 21.1.0, SVG Export Plug-In . SVG Version: 6.00 Build 0)  -->
<svg version="1.1" id="Capa_1" xmlns="http://www.w3.org/2000/svg" xmlns:xlink="http://www.w3.org/1999/xlink" x="0px" y="0px"
	 viewBox="0 0 50 50" style="enable-background:new 0 0 50 50;" xml:space="preserve">
<style type="text/css">
	.st0{fill:#C8DEFF;}
</style>
<path class="st0" d="M20,0C8.954,0,0,8.954,0,20s8.954,20,20,20s20-8.954,20-20S31.046,0,20,0z M28.064,29.645
	c-0.314,0.897-0.976,1.411-1.917,1.534c-0.723,0.094-1.362-0.138-1.875-0.647c-2.186-2.174-4.366-4.357-6.542-6.541
	c-0.438-0.439-0.67-0.979-0.67-1.604c-0.002-4.634-0.011-9.269,0.006-13.904c0.005-1.33,1.007-2.286,2.304-2.286
	c1.286,0.002,2.272,0.974,2.283,2.307c0.018,2.074,0.005,4.148,0.006,6.222c0.001,2.056-0.013,4.112,0.016,6.167
	c0.004,0.283,0.15,0.633,0.348,0.835c1.805,1.842,3.639,3.654,5.457,5.484C28.162,27.899,28.386,28.723,28.064,29.645z"/>
</svg>
