<?xml version="1.0" encoding="utf-8"?>
<!-- Generator: Adobe Illustrator 21.1.0, SVG Export Plug-In . SVG Version: 6.00 Build 0)  -->
<svg version="1.1" id="Capa_1" xmlns="http://www.w3.org/2000/svg" xmlns:xlink="http://www.w3.org/1999/xlink" x="0px" y="0px"
	 viewBox="0 0 50 50" style="enable-background:new 0 0 50 50;" xml:space="preserve">
<style type="text/css">
	.st0{fill:#6D8CBC;}
</style>
<g id="ce0RLe_1_">
	<g>
		<path class="st0" d="M12.488,0.292c0.188,0.081,0.379,0.154,0.562,0.244c1.059,0.521,1.651,1.362,1.68,2.551
			c0.024,1.003,0.008,2.006,0.004,3.01c-0.005,1.581-1.273,2.824-2.876,2.824c-1.603,0-2.87-1.243-2.876-2.824
			C8.98,5.154,8.982,4.21,8.982,3.267c0-1.415,0.715-2.41,2.062-2.874c0.065-0.023,0.123-0.067,0.185-0.101
			C11.649,0.292,12.068,0.292,12.488,0.292z"/>
		<path class="st0" d="M29.746,0.292c0.132,0.058,0.262,0.124,0.397,0.174c1.093,0.405,1.845,1.462,1.849,2.621
			c0.004,1.003,0.004,2.007,0,3.01c-0.005,1.58-1.274,2.824-2.876,2.824c-1.603,0-2.87-1.243-2.876-2.824
			c-0.003-0.928,0.002-1.857-0.001-2.785c-0.005-1.452,0.699-2.449,2.063-2.919c0.065-0.023,0.123-0.067,0.185-0.101
			C28.907,0.292,29.327,0.292,29.746,0.292z"/>
		<path class="st0" d="M0.382,6.063c2.403,0,4.767,0,7.156,0c0.071,1.347,0.577,2.476,1.625,3.326
			c0.862,0.699,1.859,1.009,2.965,0.954c2.191-0.11,3.841-1.837,4.052-4.264c2.861,0,5.726,0,8.617,0
			c0.07,1.333,0.577,2.461,1.626,3.311c0.849,0.688,1.83,1.008,2.92,0.952c1.965-0.101,3.948-1.615,4.095-4.264
			c2.37,0,4.743,0,7.15,0c0,11.464,0,22.943,0,34.452c-13.386,0-26.782,0-40.206,0C0.382,29.052,0.382,17.574,0.382,6.063z
			 M3.251,37.654c11.512,0,22.99,0,34.46,0c0-7.675,0-15.319,0-22.957c-11.503,0-22.971,0-34.46,0
			C3.251,22.353,3.251,29.986,3.251,37.654z"/>
		<path class="st0" d="M14.715,17.582c0,1.912,0,3.792,0,5.697c-1.9,0-3.78,0-5.697,0c0-1.882,0-3.774,0-5.697
			C10.897,17.582,12.788,17.582,14.715,17.582z"/>
		<path class="st0" d="M23.345,17.583c0,1.91,0,3.791,0,5.696c-1.899,0-3.78,0-5.697,0c0-1.881,0-3.772,0-5.696
			C19.525,17.583,21.416,17.583,23.345,17.583z"/>
		<path class="st0" d="M26.26,23.271c0-1.912,0-3.793,0-5.697c1.9,0,3.781,0,5.697,0c0,1.883,0,3.774,0,5.697
			C30.079,23.271,28.187,23.271,26.26,23.271z"/>
		<path class="st0" d="M9.014,26.199c1.913,0,3.793,0,5.697,0c0,1.9,0,3.781,0,5.697c-1.883,0-3.774,0-5.697,0
			C9.014,30.017,9.014,28.126,9.014,26.199z"/>
		<path class="st0" d="M17.631,31.899c0-1.91,0-3.791,0-5.696c1.899,0,3.78,0,5.697,0c0,1.881,0,3.772,0,5.696
			C21.451,31.899,19.56,31.899,17.631,31.899z"/>
		<path class="st0" d="M26.261,31.9c0-1.913,0-3.794,0-5.698c1.9,0,3.781,0,5.697,0c0,1.884,0,3.775,0,5.698
			C30.078,31.9,28.187,31.9,26.261,31.9z"/>
	</g>
</g>
</svg>
