<?xml version="1.0" encoding="utf-8"?>
<!-- Generator: Adobe Illustrator 21.1.0, SVG Export Plug-In . SVG Version: 6.00 Build 0)  -->
<svg version="1.1" id="Capa_1" xmlns="http://www.w3.org/2000/svg" xmlns:xlink="http://www.w3.org/1999/xlink" x="0px" y="0px"
	 viewBox="0 0 50 50" style="enable-background:new 0 0 50 50;" xml:space="preserve">
<style type="text/css">
	.st0{fill:#C8DEFF;}
</style>
<path class="st0" d="M20,0C8.954,0,0,8.954,0,20s8.954,20,20,20s20-8.954,20-20S31.046,0,20,0z M24.964,11.182
	c0.486-0.029,0.971-0.075,1.473-0.117c0,1.946,0,3.861,0,5.833c-0.295-0.301-0.559-0.569-0.86-0.875
	c-0.27,0.288-0.527,0.562-0.81,0.864c-0.005-0.1-0.01-0.158-0.01-0.216c-0.001-1.749,0.002-3.498-0.004-5.247
	C24.752,11.258,24.789,11.192,24.964,11.182z M20.637,12.682c0.868-0.485,1.808-0.755,2.777-0.942
	c0.23-0.045,0.462-0.081,0.721-0.125c0,2.384,0,4.749,0,7.13c0.491-0.491,0.962-0.962,1.434-1.434
	c0.499,0.501,0.97,0.974,1.442,1.446c0.017-0.008,0.034-0.016,0.05-0.023c0-2.436,0-4.871,0-7.328c0.211,0,0.397-0.004,0.582,0.001
	c0.368,0.01,0.736,0.018,1.102,0.038c0.235,0.014,0.368,0.165,0.377,0.402c0.002,0.042,0,0.085,0,0.126c0,4.162,0,8.325,0,12.487
	c0,0.405-0.124,0.523-0.528,0.529c-2.738,0.038-5.413,0.446-7.995,1.384c-0.045,0.016-0.09,0.03-0.162,0.055c0-0.09,0-0.155,0-0.222
	c0-4.392,0.002-8.783-0.005-13.175C20.43,12.853,20.49,12.763,20.637,12.682z M10.88,11.946c0-0.368,0.104-0.491,0.475-0.51
	c1.188-0.062,2.375-0.045,3.561,0.068c1.052,0.1,2.097,0.254,3.097,0.603c0.486,0.17,0.948,0.41,1.421,0.62
	c0.097,0.043,0.136,0.108,0.136,0.223c-0.003,4.446-0.003,8.891-0.003,13.337c0,0.041-0.005,0.081-0.008,0.129
	c-0.438-0.143-0.863-0.291-1.294-0.422c-1.557-0.472-3.15-0.763-4.769-0.896c-0.714-0.058-1.433-0.079-2.149-0.108
	c-0.316-0.013-0.465-0.15-0.465-0.466c-0.001-2.202,0-4.403,0-6.606C10.88,15.927,10.879,13.936,10.88,11.946z M30.861,26.437
	c-0.089,0.184-0.225,0.28-0.439,0.288c-0.741,0.029-1.483,0.05-2.222,0.111c-1.566,0.129-3.113,0.386-4.61,0.866
	c-1.15,0.37-2.274,0.818-3.41,1.233c-0.109,0-0.217,0-0.326,0c-1.068-0.39-2.126-0.81-3.206-1.163
	c-1.575-0.514-3.202-0.799-4.853-0.936c-0.738-0.062-1.481-0.079-2.222-0.113c-0.284-0.013-0.435-0.157-0.435-0.44
	c-0.001-4.223-0.001-8.446,0-12.669c0-0.278,0.12-0.414,0.393-0.442c0.15-0.015,0.3-0.018,0.477-0.027c0,0.088,0,0.164,0,0.24
	c0,3.951,0,7.902,0,11.854c0,0.416,0.121,0.534,0.538,0.538c2.839,0.03,5.6,0.498,8.27,1.474c0.317,0.116,0.632,0.237,0.953,0.339
	c0.1,0.032,0.226,0.039,0.326,0.008c1.046-0.326,2.081-0.69,3.135-0.987c1.635-0.462,3.313-0.696,5.008-0.792
	c0.427-0.024,0.856-0.032,1.284-0.041c0.316-0.006,0.467-0.15,0.467-0.465c0.001-1.382,0-2.763,0-4.144c0-2.594,0-5.188,0-7.782
	c0-0.071,0-0.143,0-0.237c0.324,0.03,0.673-0.083,0.87,0.29C30.861,17.773,30.861,22.105,30.861,26.437z"/>
</svg>
