<?xml version="1.0" encoding="utf-8"?>
<!-- Generator: Adobe Illustrator 21.1.0, SVG Export Plug-In . SVG Version: 6.00 Build 0)  -->
<svg version="1.1" id="Capa_1" xmlns="http://www.w3.org/2000/svg" xmlns:xlink="http://www.w3.org/1999/xlink" x="0px" y="0px"
	 viewBox="0 0 50 50" style="enable-background:new 0 0 50 50;" xml:space="preserve">
<style type="text/css">
	.st0{fill:#C8DEFF;}
</style>
<path class="st0" d="M20,0C8.954,0,0,8.954,0,20s8.954,20,20,20s20-8.954,20-20S31.046,0,20,0z M23.36,25.425
	c-0.545,0.318-1.152,0.446-1.76,0.553c-2.158,0.383-4.338,0.45-6.522,0.386c-1.329-0.039-2.658-0.122-3.981-0.257
	c-0.717-0.073-1.42-0.287-2.126-0.456c-0.184-0.044-0.356-0.148-0.525-0.239c-0.213-0.115-0.313-0.29-0.311-0.548
	c0.009-1.626,0.005-3.251,0.005-4.877c0-1.618,0.005-3.235-0.005-4.854c-0.002-0.268,0.102-0.441,0.322-0.567
	c0.546-0.314,1.153-0.444,1.761-0.552c2.158-0.383,4.339-0.45,6.522-0.386c1.329,0.039,2.658,0.122,3.981,0.257
	c0.725,0.074,1.436,0.289,2.147,0.464c0.205,0.05,0.394,0.176,0.58,0.285c0.164,0.096,0.234,0.251,0.234,0.449
	c-0.002,3.274-0.003,6.548,0.001,9.822C23.683,25.157,23.559,25.309,23.36,25.425z M31.859,25.335
	c-0.001,0.237-0.034,0.479-0.096,0.707c-0.072,0.268-0.3,0.377-0.564,0.29c-0.138-0.045-0.269-0.118-0.391-0.198
	c-1.901-1.219-3.798-2.444-5.701-3.662c-0.33-0.21-0.499-0.492-0.498-0.882c0.002-1.068,0.002-2.136,0-3.204
	c-0.001-0.39,0.168-0.672,0.498-0.882c1.923-1.227,3.843-2.461,5.764-3.692c0.065-0.042,0.13-0.086,0.199-0.118
	c0.346-0.162,0.623-0.05,0.718,0.318c0.053,0.207,0.072,0.427,0.073,0.642c0.006,1.78,0.003,3.56,0.003,5.341
	C31.863,21.776,31.867,23.555,31.859,25.335z"/>
</svg>
