<?xml version="1.0" encoding="utf-8"?>
<!-- Generator: Adobe Illustrator 21.1.0, SVG Export Plug-In . SVG Version: 6.00 Build 0)  -->
<svg version="1.1" id="Layer_1" xmlns="http://www.w3.org/2000/svg" xmlns:xlink="http://www.w3.org/1999/xlink" x="0px" y="0px"
	 viewBox="0 0 50 50" style="enable-background:new 0 0 50 50;" xml:space="preserve">
<style type="text/css">
	.st0{fill:#FFFFFF;}
</style>
<g>
	<g>
		<path class="st0" d="M21.806,33.169c-0.658,0-1.277-0.256-1.741-0.721l-5.719-5.719c-0.465-0.465-0.721-1.083-0.721-1.741
			s0.256-1.276,0.721-1.741c0.465-0.465,1.083-0.721,1.741-0.721l0,0c0.657,0.001,1.276,0.257,1.741,0.721l3.736,3.736L31.96,13.46
			c0.827-1.076,2.375-1.279,3.452-0.451c0.522,0.401,0.856,0.981,0.941,1.633s-0.089,1.298-0.49,1.82L23.759,32.208
			c-0.432,0.562-1.085,0.91-1.792,0.957C21.913,33.167,21.859,33.169,21.806,33.169z"/>
	</g>
</g>
</svg>
