<?xml version="1.0" encoding="utf-8"?>
<!-- Generator: Adobe Illustrator 22.0.1, SVG Export Plug-In . SVG Version: 6.00 Build 0)  -->
<svg version="1.1" id="Layer_1" xmlns="http://www.w3.org/2000/svg" xmlns:xlink="http://www.w3.org/1999/xlink" x="0px" y="0px"
	 viewBox="0 0 5 5" style="enable-background:new 0 0 5 5;" xml:space="preserve">
<style type="text/css">
	.st0{fill:#FFFFFF;}
</style>
<g>
	<path class="st0" d="M4.685,2.684c-0.087-0.215-0.25-0.352-0.463-0.436C4.209,2.243,4.207,2.239,4.211,2.227
		c0.049-0.158,0.052-0.317-0.01-0.473C4.146,1.613,4.053,1.503,3.92,1.426C3.873,1.398,3.822,1.378,3.771,1.361
		C3.657,1.322,3.54,1.304,3.42,1.319C3.258,1.341,3.127,1.42,3.021,1.543C2.969,1.602,2.926,1.668,2.89,1.739
		C2.883,1.752,2.878,1.753,2.867,1.742C2.841,1.719,2.812,1.7,2.782,1.683C2.678,1.624,2.57,1.598,2.452,1.618
		C2.341,1.638,2.246,1.692,2.163,1.769C2.093,1.833,2.047,1.912,2.03,2.007C2.016,2.08,2.022,2.153,2.038,2.225
		C2.042,2.243,2.039,2.25,2.02,2.257C1.879,2.311,1.759,2.393,1.665,2.513c-0.106,0.135-0.149,0.29-0.146,0.461
		c0.002,0.175,0.066,0.323,0.199,0.44c0.094,0.081,0.202,0.134,0.32,0.168c0.061,0.018,0.123,0.035,0.188,0.034
		c0.205-0.002,0.411-0.001,0.617-0.002c0.338-0.002,0.677,0,1.015,0c0-0.001,0-0.002,0-0.004c0.046,0,0.091,0,0.137,0
		c0.035,0,0.07,0.002,0.106-0.001C4.217,3.593,4.326,3.56,4.429,3.505c0.152-0.081,0.261-0.2,0.299-0.372
		C4.761,2.979,4.744,2.828,4.685,2.684z M3.817,2.937c-0.061,0.069-0.13,0.13-0.205,0.182c-0.128,0.09-0.266,0.154-0.419,0.183
		C3.042,3.329,2.894,3.324,2.751,3.263C2.649,3.219,2.573,3.147,2.529,3.042C2.525,3.034,2.519,3.03,2.511,3.027
		C2.467,3.01,2.428,2.984,2.403,2.944c-0.032-0.052-0.026-0.107-0.01-0.162c0.019-0.062,0.055-0.115,0.101-0.16
		c0.01-0.01,0.016-0.019,0.019-0.033c0.041-0.123,0.108-0.231,0.194-0.328C2.779,2.18,2.862,2.113,2.952,2.054
		C2.977,2.037,3.007,2.04,3.033,2.033c0.046-0.015,0.089,0.004,0.132,0.011c0.023,0.005,0.045,0.011,0.069,0.016
		C3.231,2.067,3.224,2.068,3.218,2.071C3.096,2.138,2.985,2.216,2.889,2.317C2.784,2.428,2.705,2.553,2.67,2.703
		C2.654,2.777,2.652,2.852,2.668,2.926C2.67,2.94,2.675,2.946,2.692,2.945c0.137-0.011,0.271-0.036,0.397-0.091
		c0.012-0.005,0.016-0.012,0.015-0.026C3.1,2.78,3.078,2.74,3.036,2.711C2.979,2.672,2.913,2.655,2.847,2.641
		c-0.004-0.001-0.009,0-0.012-0.004c0.068,0,0.136,0,0.203-0.017c0.111-0.026,0.199-0.087,0.277-0.168
		C3.349,2.418,3.381,2.38,3.409,2.339c0.01-0.013,0.019-0.019,0.035-0.018c0.012,0.001,0.024,0,0.038,0
		c0,0.01-0.007,0.016-0.011,0.023C3.422,2.42,3.378,2.499,3.359,2.589c-0.009,0.034-0.011,0.068,0,0.102
		C3.361,2.7,3.365,2.703,3.375,2.697C3.465,2.633,3.548,2.564,3.61,2.47c0.023-0.035,0.04-0.074,0.044-0.118
		c0.001-0.018-0.004-0.03-0.019-0.038c-0.03-0.017-0.066-0.021-0.1-0.018C3.523,2.297,3.516,2.295,3.511,2.283
		C3.505,2.268,3.491,2.255,3.493,2.242C3.494,2.229,3.51,2.219,3.519,2.208C3.54,2.184,3.561,2.161,3.58,2.138
		c0.005-0.004,0.009-0.007,0.015-0.005c0.062,0.015,0.12,0.038,0.168,0.081c0.06,0.055,0.062,0.123,0.043,0.194
		C3.782,2.492,3.732,2.56,3.676,2.623c-0.064,0.073-0.14,0.135-0.219,0.192C3.449,2.82,3.442,2.824,3.454,2.833
		c0.066,0.058,0.134,0.111,0.213,0.149c0.011,0.006,0.018,0.005,0.027-0.004c0.021-0.022,0.043-0.044,0.063-0.066
		c0.007-0.007,0.012-0.01,0.022-0.006c0.011,0.005,0.023,0.009,0.035,0.011C3.833,2.922,3.824,2.929,3.817,2.937z M3.202,2.438
		c0,0.056-0.047,0.103-0.104,0.103S2.992,2.494,2.993,2.437C2.994,2.38,3.042,2.335,3.098,2.334C3.156,2.334,3.203,2.38,3.202,2.438
		z M2.824,2.636c0.001,0,0.002-0.001,0.002-0.001C2.827,2.636,2.826,2.636,2.824,2.636z"/>
	<path class="st0" d="M3.369,2.907C3.32,2.894,3.284,2.905,3.252,2.941C3.248,2.945,3.245,2.95,3.241,2.954
		c-0.06,0.067-0.103,0.145-0.14,0.225c-0.012,0.028-0.027,0.04-0.057,0.036c-0.021-0.002-0.021,0-0.013-0.021
		c0.022-0.058,0.04-0.119,0.053-0.18c0.005-0.023,0.004-0.023-0.018-0.017c-0.109,0.032-0.22,0.055-0.334,0.053
		c-0.016,0-0.012,0.005-0.006,0.015c0.03,0.047,0.07,0.085,0.118,0.115c0.07,0.045,0.149,0.067,0.231,0.074
		c0.062,0.006,0.123,0.009,0.183-0.006c0.117-0.027,0.217-0.087,0.311-0.16c0.029-0.023,0.058-0.047,0.085-0.075
		C3.647,3.01,3.642,3.006,3.636,3.003C3.551,2.962,3.461,2.933,3.369,2.907z"/>
	<path class="st0" d="M2.482,2.734c-0.026,0.043-0.043,0.084-0.046,0.13C2.433,2.899,2.439,2.909,2.472,2.922
		c0.004,0.001,0.01,0.006,0.013,0.002c0.002-0.002,0.001-0.009,0-0.012C2.476,2.854,2.477,2.796,2.482,2.734z"/>
</g>
</svg>
