<?xml version="1.0" encoding="utf-8"?>
<!-- Generator: Adobe Illustrator 22.0.1, SVG Export Plug-In . SVG Version: 6.00 Build 0)  -->
<svg version="1.1" id="Layer_1" xmlns="http://www.w3.org/2000/svg" xmlns:xlink="http://www.w3.org/1999/xlink" x="0px" y="0px"
	 viewBox="0 0 5 5" style="enable-background:new 0 0 5 5;" xml:space="preserve">
<style type="text/css">
	.st0{fill:#FFFFFF;}
</style>
<g>
	<path class="st0" d="M4.383,1.626c-0.12,0.141-0.239,0.279-0.356,0.415C3.954,1.988,3.885,1.933,3.811,1.884
		C3.67,1.79,3.513,1.746,3.342,1.753c-0.268,0.01-0.471,0.135-0.606,0.363C2.549,2.434,2.58,2.839,2.814,3.125
		C2.964,3.308,3.163,3.387,3.4,3.38c0.226-0.006,0.411-0.104,0.578-0.246c0.019-0.016,0.038-0.032,0.057-0.048
		C4.037,3.085,4.04,3.084,4.034,3.092C4.157,3.209,4.28,3.326,4.403,3.443c-0.21,0.23-0.455,0.39-0.762,0.441
		c-0.368,0.06-0.718,0.01-1.036-0.197C2.42,3.567,2.278,3.405,2.177,3.209C2.08,3.02,2.028,2.82,2.025,2.607
		C2.021,2.23,2.135,1.896,2.399,1.624c0.223-0.229,0.497-0.361,0.818-0.39c0.25-0.023,0.494,0.002,0.729,0.096
		C4.112,1.396,4.251,1.5,4.383,1.626z"/>
</g>
</svg>
