<?xml version="1.0" encoding="utf-8"?>
<!-- Generator: Adobe Illustrator 21.1.0, SVG Export Plug-In . SVG Version: 6.00 Build 0)  -->
<svg version="1.1" id="Layer_1" xmlns="http://www.w3.org/2000/svg" xmlns:xlink="http://www.w3.org/1999/xlink" x="0px" y="0px"
	 viewBox="0 0 13 20" style="enable-background:new 0 0 13 20;" xml:space="preserve">
<style type="text/css">
	.st0{fill:#ECEEEF;}
</style>
<path class="st0" d="M-28.941,5.42c-2.529,0-4.58,2.05-4.58,4.58s2.05,4.58,4.58,4.58s4.58-2.05,4.58-4.58S-26.412,5.42-28.941,5.42
	z M-26.641,10.745h-4.601c-0.41,0-0.745-0.335-0.745-0.745s0.335-0.745,0.745-0.745h4.601c0.41,0,0.745,0.335,0.745,0.745
	S-26.231,10.745-26.641,10.745z"/>
<path class="st0" d="M6.192,6.935C4.5,6.935,3.127,8.307,3.127,10s1.372,3.065,3.065,3.065S9.257,11.693,9.257,10
	S7.885,6.935,6.192,6.935z M7.732,10.499H4.653c-0.274,0-0.499-0.224-0.499-0.499s0.224-0.499,0.499-0.499h3.079
	c0.274,0,0.499,0.224,0.499,0.499S8.006,10.499,7.732,10.499z"/>
</svg>
