<?xml version="1.0" encoding="utf-8"?>
<!-- Generator: Adobe Illustrator 21.1.0, SVG Export Plug-In . SVG Version: 6.00 Build 0)  -->
<svg version="1.1" id="Layer_1" xmlns="http://www.w3.org/2000/svg" xmlns:xlink="http://www.w3.org/1999/xlink" x="0px" y="0px"
	 viewBox="0 0 13 20" style="enable-background:new 0 0 13 20;" xml:space="preserve">
<style type="text/css">
	.st0{fill:#ECEEEF;}
</style>
<path class="st0" d="M8.36,7.833c-1.197-1.197-3.138-1.197-4.335,0s-1.197,3.138,0,4.335c1.197,1.197,3.138,1.197,4.335,0
	S9.557,9.03,8.36,7.833z M6.691,11.684c0,0.274-0.224,0.498-0.498,0.498c-0.274,0-0.498-0.224-0.498-0.498l0-1.186H4.508
	c-0.274,0-0.498-0.224-0.498-0.498c0-0.274,0.224-0.498,0.498-0.498l1.186,0l0-1.186c0-0.274,0.224-0.498,0.498-0.498
	c0.274,0,0.498,0.224,0.498,0.498l0,1.186h1.186c0.274,0,0.498,0.224,0.498,0.498c0,0.274-0.224,0.498-0.498,0.498H6.691V11.684z"/>
</svg>
