<?xml version="1.0" encoding="utf-8"?>
<!-- Generator: Adobe Illustrator 21.1.0, SVG Export Plug-In . SVG Version: 6.00 Build 0)  -->
<svg version="1.1" id="Layer_1" xmlns="http://www.w3.org/2000/svg" xmlns:xlink="http://www.w3.org/1999/xlink" x="0px" y="0px"
	 viewBox="0 0 50 50" style="enable-background:new 0 0 50 50;" xml:space="preserve">
<style type="text/css">
	.st0{fill:#3C4852;}
</style>
<g>
	<path class="st0" d="M26.735,34.848c-0.831-0.117-1.696-0.251-2.564-0.351c-0.165-0.019-0.395,0.041-0.51,0.152
		c-0.882,0.852-1.739,1.731-2.612,2.592c-0.814,0.803-1.856,1.013-2.811,0.587c-1.632-0.729-2.026-2.777-0.753-4.084
		c1.474-1.514,2.98-2.996,4.477-4.487c1.178-1.174,2.516-1.208,3.756-0.103c0.528,0.47,1.176,0.509,1.711,0.045
		c0.447-0.388,0.848-0.83,1.289-1.268c-0.109-0.179-0.195-0.343-0.303-0.492c-1.757-2.429-5.196-2.75-7.338-0.653
		c-2.009,1.967-3.984,3.968-5.967,5.962c-0.587,0.591-0.979,1.302-1.186,2.112c-0.071,0.278-0.14,0.556-0.21,0.835
		c0,0.307,0,0.614,0,0.92c0.177,0.544,0.292,1.118,0.542,1.626c0.732,1.487,1.937,2.38,3.581,2.664
		c0.095,0.016,0.183,0.071,0.275,0.108c0.307,0,0.614,0,0.921,0c0.06-0.03,0.118-0.081,0.18-0.087
		c1.247-0.135,2.232-0.747,3.095-1.627c1.384-1.411,2.793-2.798,4.19-4.196C26.611,34.988,26.717,34.866,26.735,34.848z"/>
	<path class="st0" d="M28.417,29.867c-1.093,1.077-2.458,1.083-3.601,0.049c-0.591-0.534-1.289-0.539-1.873,0.003
		c-0.312,0.29-0.59,0.617-0.91,0.897c-0.256,0.223-0.269,0.398-0.072,0.682c1.683,2.429,5.156,2.864,7.288,0.825
		c2.093-2.002,4.154-4.043,6.144-6.147c2.541-2.687,1.196-7.074-2.39-7.985c-0.226-0.057-0.449-0.127-0.674-0.19
		c-0.307,0-0.614,0-0.92,0c-0.061,0.029-0.12,0.077-0.183,0.084c-1.242,0.145-2.233,0.747-3.095,1.629
		c-1.382,1.413-2.792,2.8-4.19,4.198c-0.114,0.115-0.221,0.237-0.233,0.249c0.84,0.121,1.721,0.259,2.605,0.365
		c0.164,0.02,0.394-0.035,0.507-0.144c0.882-0.853,1.736-1.735,2.613-2.593c1.056-1.033,2.576-1.06,3.575-0.08
		c1.029,1.01,1.027,2.533-0.032,3.606C31.465,26.841,29.947,28.36,28.417,29.867z"/>
	<path class="st0" d="M42.327,9.466c-1.746,0-3.493,0.001-5.239,0.001c-9.552,0-19.105,0.002-28.657-0.004
		c-0.29,0-0.399,0.06-0.398,0.379C8.041,19.846,8.039,27.67,8.04,37.673c0,0.121,0.015,0.242,0.024,0.372c1.831,0,3.656,0,5.485,0
		c-0.022-0.043-0.048-0.081-0.07-0.125c-0.248-0.504-0.392-1.059-0.55-1.607c-1.05,0-2.096,0-3.146,0c0-7.253,0-12.326,0-19.594
		c10.454,0,20.893,0,31.362,0c0,7.277,0,12.333,0,19.594c-4.878,0-9.756,0-14.631,0c-0.578,0.576-1.155,1.153-1.73,1.732
		c6.024,0,12.046,0,18.077,0c0-10.263,0-18.312,0-28.579C42.669,9.466,42.498,9.466,42.327,9.466z M35.056,13.523
		c-0.486,0.005-0.892-0.391-0.894-0.873c-0.002-0.481,0.403-0.88,0.889-0.877c0.474,0.003,0.86,0.381,0.871,0.855
		C35.934,13.117,35.546,13.518,35.056,13.523z M37.658,13.523c-0.486-0.001-0.882-0.401-0.875-0.885
		c0.007-0.47,0.392-0.856,0.864-0.864c0.492-0.008,0.884,0.377,0.887,0.869C38.536,13.137,38.151,13.524,37.658,13.523z
		 M40.274,13.523c-0.493-0.001-0.876-0.393-0.867-0.886c0.008-0.496,0.395-0.87,0.893-0.862c0.469,0.007,0.856,0.399,0.859,0.869
		C41.161,13.127,40.761,13.524,40.274,13.523z"/>
</g>
</svg>
