<?xml version="1.0" encoding="utf-8"?>
<!-- Generator: Adobe Illustrator 21.1.0, SVG Export Plug-In . SVG Version: 6.00 Build 0)  -->
<svg version="1.1" id="Layer_1" xmlns="http://www.w3.org/2000/svg" xmlns:xlink="http://www.w3.org/1999/xlink" x="0px" y="0px"
	 viewBox="0 0 50 50" style="enable-background:new 0 0 50 50;" xml:space="preserve">
<style type="text/css">
	.st0{fill:#3C4852;}
</style>
<g id="oTuoKh_1_">
	<g>
		<path class="st0" d="M14.75,38.48c0-9.969,0-19.937,0-29.906c0.132-0.353,0.398-0.45,0.756-0.45
			c3.977,0.007,7.954,0.004,11.931,0.004c0.095,0,0.192,0,0.3,0c0,0.143,0,0.249,0,0.356c0,2.888,0,5.776,0.001,8.663
			c0,0.532,0.201,0.731,0.731,0.731c2.904,0,5.809,0,8.713,0c0.095,0,0.191,0,0.296,0c0,1.843,0,3.649,0,5.456
			c0,0.017-0.001,0.033-0.003,0.049c-0.047,0.3-0.378,0.505-0.669,0.416c-1.532-0.466-3.081-0.502-4.633-0.138
			c-1.91,0.449-3.519,1.421-4.794,2.912c-1.781,2.082-2.468,4.503-2.116,7.208c0.207,1.59,0.833,3.018,1.822,4.285
			c0.068,0.087,0.124,0.2,0.138,0.308c0.048,0.365-0.205,0.6-0.63,0.6c-3.705,0.001-7.409,0-11.114,0
			C15.02,38.977,14.919,38.908,14.75,38.48z"/>
		<path class="st0" d="M26.137,32.462c-0.007-4.285,3.464-8.082,8.103-8.084c4.535-0.002,8.125,3.629,8.113,8.15
			c-0.011,4.462-3.603,8.057-8.118,8.074C29.751,40.618,26.133,36.956,26.137,32.462z M33.706,34.95
			c-0.102-0.093-0.162-0.144-0.217-0.199c-0.326-0.327-0.648-0.658-0.976-0.984c-0.259-0.256-0.588-0.272-0.81-0.048
			c-0.236,0.239-0.235,0.55,0.023,0.811c0.696,0.704,1.395,1.404,2.1,2.1c0.268,0.265,0.564,0.269,0.83,0.008
			c0.711-0.7,1.417-1.407,2.117-2.117c0.252-0.256,0.247-0.585,0.012-0.812c-0.213-0.206-0.557-0.189-0.794,0.046
			c-0.345,0.343-0.687,0.69-1.031,1.034c-0.041,0.041-0.091,0.073-0.16,0.127c0-2.027,0-4.014,0-6.002
			c0-0.09,0.006-0.183-0.007-0.272c-0.04-0.272-0.249-0.47-0.509-0.493c-0.226-0.02-0.474,0.127-0.541,0.348
			c-0.035,0.115-0.035,0.244-0.035,0.366c-0.002,1.922-0.001,3.844-0.001,5.765C33.706,34.716,33.706,34.803,33.706,34.95z"/>
		<path class="st0" d="M37.385,16.781c-2.826,0-5.662,0-8.515,0c0-2.857,0-5.704,0-8.516C31.701,11.096,34.542,13.938,37.385,16.781
			z"/>
	</g>
</g>
</svg>
