<?xml version="1.0" encoding="utf-8"?>
<!-- Generator: Adobe Illustrator 21.1.0, SVG Export Plug-In . SVG Version: 6.00 Build 0)  -->
<svg version="1.1" id="Layer_1" xmlns="http://www.w3.org/2000/svg" xmlns:xlink="http://www.w3.org/1999/xlink" x="0px" y="0px"
	 viewBox="0 0 50 50" style="enable-background:new 0 0 50 50;" xml:space="preserve">
<style type="text/css">
	.st0{fill:#00B4E4;}
</style>
<g>
	<path class="st0" d="M35.608,20.056c-0.081-0.721-0.765-1.234-1.561-1.234c-4.468-0.001-8.935-0.001-13.402-0.001
		c-4.468,0-8.935-0.001-13.402,0.001c-0.99,0.001-1.619,0.62-1.606,1.605c0.013,0.901,0.049,1.804,0.087,2.704
		c0.101,2.44,0.209,4.879,0.312,7.319c0.086,2.033,0.197,4.065,0.241,6.099c0.019,0.882,0.827,1.511,1.615,1.505
		c3.257-0.026,6.514-0.011,9.771-0.011c5.26,0,10.52-0.008,15.779,0.008c0.825,0.003,1.53-0.772,1.543-1.445
		c0.034-1.682,0.128-3.363,0.198-5.044c0.08-1.923,0.162-3.846,0.243-5.769c0.06-1.418,0.126-2.835,0.179-4.253
		C35.624,21.045,35.663,20.544,35.608,20.056z"/>
	<path class="st0" d="M7.177,17.464c8.978,0,17.931,0,26.928,0c0-1.114-0.017-2.192,0.006-3.269
		c0.015-0.679-0.435-1.333-1.328-1.328c-4.38,0.024-8.76,0.013-13.141,0.002c-0.186-0.001-0.407-0.087-0.552-0.207
		c-0.576-0.477-1.133-0.976-1.687-1.48c-0.227-0.207-0.479-0.286-0.779-0.286c-2.718,0.004-5.437,0.001-8.155,0.003
		c-0.823,0.001-1.308,0.487-1.308,1.311c-0.001,1.64-0.001,3.28,0,4.919C7.161,17.237,7.171,17.342,7.177,17.464z"/>
</g>
</svg>
