<?xml version="1.0" encoding="utf-8"?>
<!-- Generator: Adobe Illustrator 21.1.0, SVG Export Plug-In . SVG Version: 6.00 Build 0)  -->
<svg version="1.1" id="Layer_1" xmlns="http://www.w3.org/2000/svg" xmlns:xlink="http://www.w3.org/1999/xlink" x="0px" y="0px"
	 viewBox="0 0 5 5" style="enable-background:new 0 0 5 5;" xml:space="preserve">
<style type="text/css">
	.st0{fill:#FFFFFF;}
</style>
<g>
	<path class="st0" d="M2.974,2.828C2.95,2.784,2.925,2.742,2.903,2.699c-0.022-0.044-0.029-0.092-0.028-0.14
		c0-0.013,0.006-0.027,0.01-0.041C2.893,2.494,2.901,2.47,2.911,2.44C2.892,2.443,2.878,2.445,2.864,2.445
		c-0.201,0.013-0.38-0.038-0.522-0.188C2.223,2.13,2.18,1.978,2.195,1.805c0.023-0.258,0.276-0.542,0.579-0.589
		C2.876,1.199,2.977,1.189,3.081,1.19c0.221,0.001,0.443,0.001,0.665,0.001c0.009,0,0.018,0,0.034,0
		C3.768,1.199,3.762,1.203,3.756,1.207C3.694,1.243,3.632,1.281,3.57,1.316c-0.011,0.006-0.025,0.009-0.037,0.01
		c-0.062,0.001-0.126,0-0.194,0c0.008,0.008,0.012,0.012,0.018,0.016C3.481,1.433,3.547,1.559,3.567,1.71
		C3.58,1.804,3.579,1.898,3.554,1.991C3.526,2.096,3.465,2.178,3.385,2.249C3.338,2.292,3.291,2.338,3.249,2.386
		C3.194,2.449,3.187,2.533,3.23,2.591C3.254,2.623,3.285,2.652,3.316,2.68C3.39,2.747,3.47,2.808,3.542,2.878
		c0.208,0.204,0.202,0.513,0.05,0.72c-0.114,0.155-0.266,0.256-0.45,0.306C2.938,3.96,2.732,3.975,2.525,3.929
		C2.401,3.9,2.28,3.856,2.178,3.775C2.018,3.647,1.972,3.447,2.049,3.257C2.11,3.111,2.221,3.02,2.357,2.954
		c0.131-0.063,0.272-0.092,0.416-0.11C2.84,2.835,2.907,2.833,2.974,2.828z M2.963,2.932C2.824,2.933,2.774,2.94,2.645,2.986
		c-0.06,0.021-0.123,0.043-0.172,0.079c-0.21,0.154-0.207,0.463,0.026,0.61c0.187,0.119,0.397,0.145,0.614,0.105
		c0.084-0.016,0.164-0.044,0.231-0.099c0.154-0.128,0.173-0.378,0.009-0.535C3.296,3.095,3.232,3.05,3.175,2.998
		c-0.06-0.055-0.128-0.081-0.21-0.067C2.965,2.932,2.964,2.931,2.963,2.932z M2.5,1.73C2.506,1.875,2.56,2.032,2.659,2.172
		c0.088,0.125,0.207,0.19,0.365,0.168C3.098,2.329,3.16,2.297,3.202,2.232c0.052-0.081,0.065-0.171,0.064-0.264
		c-0.002-0.149-0.041-0.29-0.109-0.422c-0.067-0.13-0.164-0.223-0.319-0.232c-0.094-0.006-0.178,0.02-0.24,0.095
		C2.529,1.494,2.5,1.593,2.5,1.73z"/>
	<path class="st0" d="M4.351,2.465c0,0.143,0,0.283,0,0.424c-0.072,0-0.141,0-0.214,0c0-0.14,0-0.281,0-0.423
		c-0.143,0-0.283,0-0.424,0C3.712,2.457,3.71,2.451,3.71,2.445c0-0.056,0.001-0.113-0.001-0.169c0-0.02,0.007-0.025,0.026-0.025
		c0.124,0.001,0.247,0,0.371,0.001c0.023,0,0.03-0.006,0.03-0.029c-0.002-0.12-0.002-0.24-0.002-0.36
		c0-0.011,0.001-0.021,0.002-0.033c0.072,0,0.142,0,0.214,0c0.001,0.012,0.002,0.023,0.002,0.033c0,0.12,0.001,0.241-0.001,0.361
		c0,0.023,0.007,0.029,0.03,0.029c0.123-0.001,0.245,0,0.368-0.001c0.022,0,0.029,0.005,0.028,0.027
		C4.776,2.34,4.777,2.401,4.777,2.466C4.634,2.465,4.494,2.465,4.351,2.465z"/>
</g>
</svg>
