<?xml version="1.0" encoding="utf-8"?>
<!-- Generator: Adobe Illustrator 21.1.0, SVG Export Plug-In . SVG Version: 6.00 Build 0)  -->
<svg version="1.1" id="Layer_1" xmlns="http://www.w3.org/2000/svg" xmlns:xlink="http://www.w3.org/1999/xlink" x="0px" y="0px"
	 viewBox="0 0 50 50" style="enable-background:new 0 0 50 50;" xml:space="preserve">
<style type="text/css">
	.st0{opacity:0.6;}
	.st1{fill:#3C4852;}
</style>
<g id="cgZaV1_1_" class="st0">
	<g>
		<path class="st1" d="M37.436,31.581c-11.322,0-22.628,0-33.961,0c0-4.356,0-8.698,0-13.065c11.318,0,22.623,0,33.961,0
			C37.436,22.864,37.436,27.213,37.436,31.581z M11.308,30.254c6.121,0,12.202,0,18.289,0c0-0.87,0-1.714,0-2.559
			c-6.109,0-12.19,0-18.289,0C11.308,28.558,11.308,29.392,11.308,30.254z M33.558,22.424c0,1.33,0,2.616,0,3.898
			c0.897,0,1.741,0,2.582,0c0-2.181,0-4.335,0-6.498c-1.305,0-2.584,0-3.87,0c0,0.874,0,1.728,0,2.6
			C32.693,22.424,33.087,22.424,33.558,22.424z M4.768,30.25c1.757,0,3.485,0,5.205,0c0-0.873,0-1.716,0-2.557
			c-1.749,0-3.469,0-5.205,0C4.768,28.552,4.768,29.386,4.768,30.25z M30.936,30.248c1.751,0,3.482,0,5.211,0
			c0-0.866,0-1.702,0-2.546c-1.75,0-3.48,0-5.211,0C30.936,28.57,30.936,29.405,30.936,30.248z M4.772,26.325
			c1.31,0,2.597,0,3.883,0c0-0.871,0-1.716,0-2.568c-1.305,0-2.583,0-3.883,0C4.772,24.614,4.772,25.449,4.772,26.325z
			 M15.198,19.84c-0.849,0-1.701,0-2.574,0c0,0.852,0,1.696,0,2.561c0.863,0,1.707,0,2.574,0
			C15.198,21.546,15.198,20.711,15.198,19.84z M16.545,22.393c0.886,0,1.731,0,2.568,0c0-0.874,0-1.718,0-2.558
			c-0.875,0-1.718,0-2.568,0C16.545,20.7,16.545,21.536,16.545,22.393z M23.052,19.831c-0.878,0-1.721,0-2.572,0
			c0,0.871,0,1.715,0,2.566c0.867,0,1.711,0,2.572,0C23.052,21.538,23.052,20.703,23.052,19.831z M26.967,22.407
			c0-0.885,0-1.729,0-2.573c-0.87,0-1.714,0-2.556,0c0,0.874,0,1.717,0,2.573C25.272,22.407,26.107,22.407,26.967,22.407z
			 M28.34,19.823c0,0.891,0,1.735,0,2.569c0.872,0,1.716,0,2.549,0c0-0.874,0-1.719,0-2.569
			C30.024,19.823,29.19,19.823,28.34,19.823z M11.272,22.403c0-0.87,0-1.714,0-2.573c-0.87,0-1.713,0-2.572,0
			c0,0.866,0,1.71,0,2.573C9.556,22.403,10.391,22.403,11.272,22.403z M10.014,26.324c0.883,0,1.726,0,2.568,0
			c0-0.87,0-1.714,0-2.559c-0.868,0-1.711,0-2.568,0C10.014,24.629,10.014,25.464,10.014,26.324z M16.517,23.769
			c-0.886,0-1.73,0-2.561,0c0,0.876,0,1.719,0,2.551c0.875,0,1.719,0,2.561,0C16.517,25.454,16.517,24.619,16.517,23.769z
			 M17.881,23.754c0,0.888,0,1.731,0,2.569c0.873,0,1.717,0,2.553,0c0-0.873,0-1.718,0-2.569
			C19.572,23.754,18.736,23.754,17.881,23.754z M24.375,23.765c-0.881,0-1.725,0-2.573,0c0,0.872,0,1.715,0,2.56
			c0.873,0,1.716,0,2.573,0C24.375,25.463,24.375,24.628,24.375,23.765z M28.298,23.762c-0.874,0-1.718,0-2.574,0
			c0,0.869,0,1.712,0,2.565c0.871,0,1.715,0,2.574,0C28.298,25.469,28.298,24.634,28.298,23.762z M29.646,26.318
			c0.874,0,1.727,0,2.575,0c0-0.868,0-1.703,0-2.558c-0.864,0-1.708,0-2.575,0C29.646,24.623,29.646,25.466,29.646,26.318z
			 M7.353,19.839c-0.891,0-1.734,0-2.571,0c0,0.875,0,1.719,0,2.552c0.875,0,1.719,0,2.571,0
			C7.353,21.526,7.353,20.691,7.353,19.839z"/>
		<path class="st1" d="M10.002,17.155c-0.464,0-0.869,0-1.322,0c0-0.489,0-0.966,0-1.443c0.001-0.948-0.039-1.895,0.276-2.818
			c0.723-2.113,2.672-3.553,4.901-3.58c0.889-0.011,1.778,0.003,2.667-0.001c2.168-0.011,3.868-1.672,3.936-3.842
			c0.014-0.447,0.276-0.742,0.657-0.74c0.391,0.003,0.663,0.328,0.656,0.785c-0.044,2.775-2.361,5.074-5.163,5.114
			c-0.901,0.013-1.802,0-2.704,0.005c-2.177,0.013-3.885,1.719-3.904,3.902C9.995,15.398,10.002,16.26,10.002,17.155z"/>
	</g>
</g>
</svg>
