<?xml version="1.0" encoding="utf-8"?>
<!-- Generator: Adobe Illustrator 21.1.0, SVG Export Plug-In . SVG Version: 6.00 Build 0)  -->
<svg version="1.1" id="Layer_1" xmlns="http://www.w3.org/2000/svg" xmlns:xlink="http://www.w3.org/1999/xlink" x="0px" y="0px"
	 viewBox="0 0 50 50" style="enable-background:new 0 0 50 50;" xml:space="preserve">
<style type="text/css">
	.st0{opacity:0.66;}
	.st1{fill:#FFFFFF;}
</style>
<g id="bhni09_1_" class="st0">
	<g>
		<path class="st1" d="M23.175,2.766c1.227,0,2.455,0,3.682,0c0.55,0.096,1.099,0.2,1.651,0.288
			c9.008,1.438,16.225,8.23,18.187,17.14c0.226,1.027,0.372,2.071,0.556,3.107c0,1.133,0,2.266,0,3.399
			c-0.058,0.367-0.123,0.734-0.172,1.102c-1.255,9.354-8.019,16.777-17.25,18.904c-0.979,0.226-1.98,0.354-2.97,0.528
			c-1.227,0-2.455,0-3.682,0c-0.155-0.043-0.307-0.109-0.464-0.126c-3.523-0.391-6.789-1.512-9.769-3.443
			C4.705,38.327,0.844,28.138,3.667,18.831C6,11.139,11.112,6.097,18.77,3.687C20.194,3.238,21.704,3.066,23.175,2.766z
			 M42.806,25.06c0.065-9.755-7.927-17.775-17.763-17.825C15.308,7.185,7.28,15.116,7.223,24.84
			c-0.058,9.878,7.779,17.806,17.719,17.925C34.691,42.882,42.74,34.903,42.806,25.06z"/>
		<path class="st1" d="M19.479,25.047c0-2.169-0.005-4.337,0.002-6.506c0.005-1.417,0.792-1.868,2.014-1.159
			c3.747,2.174,7.493,4.351,11.236,6.534c0.262,0.153,0.525,0.327,0.735,0.542c0.458,0.471,0.46,1.039-0.001,1.505
			c-0.228,0.23-0.513,0.413-0.796,0.577c-3.628,2.098-7.261,4.188-10.893,6.278c-0.224,0.129-0.449,0.267-0.691,0.352
			c-0.69,0.241-1.288-0.072-1.47-0.779c-0.075-0.292-0.095-0.604-0.096-0.908c-0.008-2.145-0.004-4.29-0.004-6.435
			C19.502,25.047,19.49,25.047,19.479,25.047z"/>
	</g>
</g>
</svg>
