<?xml version="1.0" encoding="utf-8"?>
<!-- Generator: Adobe Illustrator 21.1.0, SVG Export Plug-In . SVG Version: 6.00 Build 0)  -->
<svg version="1.1" id="Layer_1" xmlns="http://www.w3.org/2000/svg" xmlns:xlink="http://www.w3.org/1999/xlink" x="0px" y="0px"
	 viewBox="0 0 50 50" style="enable-background:new 0 0 50 50;" xml:space="preserve">
<style type="text/css">
	.st0{opacity:0.6;}
	.st1{fill:#6D8CBC;}
</style>
<g id="bhni09_1_" class="st0">
	<g>
		<path class="st1" d="M23.2,2.8c1.2,0,2.5,0,3.7,0C27.4,2.9,28,3,28.5,3.1c9,1.4,16.2,8.2,18.2,17.1c0.2,1,0.4,2.1,0.6,3.1
			c0,1.1,0,2.3,0,3.4c-0.1,0.4-0.1,0.7-0.2,1.1c-1.3,9.4-8,16.8-17.2,18.9c-1,0.2-2,0.4-3,0.5c-1.2,0-2.5,0-3.7,0
			c-0.2,0-0.3-0.1-0.5-0.1c-3.5-0.4-6.8-1.5-9.8-3.4C4.7,38.3,0.8,28.1,3.7,18.8C6,11.1,11.1,6.1,18.8,3.7
			C20.2,3.2,21.7,3.1,23.2,2.8z M42.8,25.1C42.9,15.3,34.9,7.3,25,7.2c-9.7,0-17.8,7.9-17.8,17.6C7.2,34.7,15,42.6,24.9,42.8
			C34.7,42.9,42.7,34.9,42.8,25.1z"/>
		<path class="st1" d="M19.5,25c0-2.2,0-4.3,0-6.5c0-1.4,0.8-1.9,2-1.2c3.7,2.2,7.5,4.4,11.2,6.5c0.3,0.2,0.5,0.3,0.7,0.5
			c0.5,0.5,0.5,1,0,1.5c-0.2,0.2-0.5,0.4-0.8,0.6c-3.6,2.1-7.3,4.2-10.9,6.3c-0.2,0.1-0.4,0.3-0.7,0.4c-0.7,0.2-1.3-0.1-1.5-0.8
			c-0.1-0.3-0.1-0.6-0.1-0.9C19.5,29.3,19.5,27.2,19.5,25C19.5,25,19.5,25,19.5,25z"/>
	</g>
</g>
</svg>
