<?xml version="1.0" encoding="utf-8"?>
<!-- Generator: Adobe Illustrator 21.1.0, SVG Export Plug-In . SVG Version: 6.00 Build 0)  -->
<svg version="1.1" id="Layer_1" xmlns="http://www.w3.org/2000/svg" xmlns:xlink="http://www.w3.org/1999/xlink" x="0px" y="0px"
	 viewBox="0 0 50 50" style="enable-background:new 0 0 50 50;" xml:space="preserve">
<style type="text/css">
	.st0{opacity:0.33;fill:#E5E5E4;enable-background:new    ;}
	.st1{fill:#81230F;}
	.st2{opacity:0.6;}
	.st3{fill:#ED1C24;}
	.st4{fill:#4E4E4E;}
</style>
<g>
	<g>
		<path class="st0" d="M24.409,28.396c3.962,0,7.193-0.581,7.193-1.295c0-0.713-3.231-1.295-7.193-1.295s-7.193,0.581-7.193,1.295
			C17.216,27.814,20.447,28.396,24.409,28.396z"/>
	</g>
	<g>
		<path class="st1" d="M24.409,24.001c6.609,0,12-5.391,12-12S31.019,0,24.409,0s-12,5.391-12,12S17.8,24.001,24.409,24.001z"/>
	</g>
	<g class="st2">
		<path class="st3" d="M24.409,22.334c5.692,0,10.334-4.642,10.334-10.334c0-5.692-4.642-10.334-10.334-10.334
			c-5.692,0-10.334,4.642-10.334,10.334C14.075,17.692,18.717,22.334,24.409,22.334z"/>
	</g>
	<g>
		<path class="st4" d="M28.034,18.798c-0.097,0-0.194-0.039-0.265-0.116c-0.753-0.808-1.846-1.275-3.076-1.315
			c-1.362-0.043-2.728,0.454-3.659,1.331c-0.146,0.137-0.376,0.131-0.513-0.015c-0.137-0.146-0.13-0.376,0.015-0.513
			c1.084-1.022,2.61-1.581,4.18-1.528c1.425,0.046,2.698,0.594,3.584,1.545c0.137,0.146,0.128,0.376-0.018,0.513
			C28.212,18.765,28.122,18.798,28.034,18.798z"/>
	</g>
	<g>
		<circle class="st4" cx="21.061" cy="9.358" r="1.613"/>
		<circle class="st4" cx="27.757" cy="9.358" r="1.613"/>
	</g>
</g>
</svg>
