<?xml version="1.0" encoding="utf-8"?>
<!-- Generator: Adobe Illustrator 21.1.0, SVG Export Plug-In . SVG Version: 6.00 Build 0)  -->
<svg version="1.1" id="Layer_1" xmlns="http://www.w3.org/2000/svg" xmlns:xlink="http://www.w3.org/1999/xlink" x="0px" y="0px"
	 viewBox="0 0 50 50" style="enable-background:new 0 0 50 50;" xml:space="preserve">
<style type="text/css">
	.st0{opacity:0.33;fill:#E5E5E4;enable-background:new    ;}
	.st1{fill:#F8962F;}
	.st2{opacity:0.6;}
	.st3{fill:#FDB92D;}
	.st4{fill:#4E4E4E;}
</style>
<g>
	<g>
		<path class="st0" d="M24.614,28.541c3.962,0,7.193-0.582,7.193-1.295s-3.231-1.295-7.193-1.295s-7.193,0.581-7.193,1.295
			C17.421,27.959,20.652,28.541,24.614,28.541z"/>
	</g>
	<g>
		<path class="st1" d="M24.614,24c6.609,0,12-5.391,12-12s-5.391-12-12-12s-12,5.391-12,12S18.004,24,24.614,24z"/>
	</g>
	<g class="st2">
		<path class="st3" d="M24.614,22.334c5.691,0,10.334-4.642,10.334-10.334c0-5.691-4.642-10.334-10.334-10.334
			C18.922,1.666,14.28,6.308,14.28,12C14.28,17.692,18.922,22.334,24.614,22.334z"/>
	</g>
	<g>
		<path class="st4" d="M29.077,16.912c0.132-0.037,0.237-0.148,0.26-0.293c0.031-0.198-0.104-0.384-0.302-0.415
			c-2.094-0.331-5.153,0.538-6.546,1.86c-0.145,0.138-0.152,0.368-0.013,0.513c0.138,0.145,0.368,0.152,0.513,0.013
			c1.232-1.17,4.06-1.966,5.933-1.669C28.975,16.93,29.028,16.926,29.077,16.912z"/>
	</g>
	<g>
		<circle class="st4" cx="21.266" cy="9.358" r="1.613"/>
		<circle class="st4" cx="27.961" cy="9.358" r="1.613"/>
	</g>
</g>
</svg>
