<?xml version="1.0" encoding="utf-8"?>
<!-- Generator: Adobe Illustrator 21.1.0, SVG Export Plug-In . SVG Version: 6.00 Build 0)  -->
<svg version="1.1" id="Layer_1" xmlns="http://www.w3.org/2000/svg" xmlns:xlink="http://www.w3.org/1999/xlink" x="0px" y="0px"
	 viewBox="0 0 50 50" style="enable-background:new 0 0 50 50;" xml:space="preserve">
<style type="text/css">
	.st0{fill:#00722D;}
	.st1{opacity:0.6;}
	.st2{fill:#21B24B;}
	.st3{fill:#4E4E4E;}
	.st4{opacity:0.33;}
	.st5{fill:#E5E5E4;}
</style>
<g>
	<g>
		<path class="st0" d="M25,24.001c6.609,0,12-5.391,12-12S31.609,0,25,0S13,5.391,13,12S18.391,24.001,25,24.001z"/>
	</g>
	<g class="st1">
		<path class="st2" d="M25,22.334c5.692,0,10.334-4.642,10.334-10.334c0-5.692-4.642-10.334-10.334-10.334
			c-5.692,0-10.334,4.642-10.334,10.334C14.666,17.692,19.308,22.334,25,22.334z"/>
	</g>
	<g>
		<path class="st3" d="M25.252,20.111c-2.397,0-5.213-1.362-6.278-4.47c-0.038-0.111-0.02-0.233,0.048-0.328
			c0.068-0.096,0.178-0.152,0.296-0.152h11.365c0.113,0,0.219,0.053,0.288,0.142c0.068,0.09,0.092,0.206,0.063,0.315
			c-0.722,2.678-2.856,4.399-5.571,4.49C25.392,20.11,25.322,20.111,25.252,20.111z"/>
	</g>
	<g class="st4">
		<path class="st5" d="M25,28.551c3.962,0,7.193-0.581,7.193-1.295c0-0.713-3.231-1.295-7.193-1.295s-7.193,0.581-7.193,1.295
			C17.807,27.969,21.038,28.551,25,28.551z"/>
	</g>
	<g>
		<circle class="st3" cx="21.652" cy="9.358" r="1.613"/>
		<circle class="st3" cx="28.348" cy="9.358" r="1.613"/>
	</g>
</g>
</svg>
