<?xml version="1.0" encoding="utf-8"?>
<!-- Generator: Adobe Illustrator 21.1.0, SVG Export Plug-In . SVG Version: 6.00 Build 0)  -->
<svg version="1.1" id="Layer_1" xmlns="http://www.w3.org/2000/svg" xmlns:xlink="http://www.w3.org/1999/xlink" x="0px" y="0px"
	 viewBox="0 0 50 50" style="enable-background:new 0 0 50 50;" xml:space="preserve">
<style type="text/css">
	.st0{fill:#9FAF42;}
	.st1{opacity:0.6;}
	.st2{fill:#CDDD54;}
	.st3{fill:#4E4E4E;}
	.st4{opacity:0.33;fill:#E5E5E4;enable-background:new    ;}
</style>
<g>
	<g>
		<path class="st0" d="M25,24.001c6.609,0,12-5.391,12-12S31.609,0,25,0S13,5.391,13,12S18.391,24.001,25,24.001z"/>
	</g>
	<g class="st1">
		<path class="st2" d="M25,22.334c5.692,0,10.334-4.642,10.334-10.334c0-5.692-4.642-10.334-10.334-10.334
			c-5.692,0-10.334,4.642-10.334,10.334C14.666,17.692,19.308,22.334,25,22.334z"/>
	</g>
	<g>
		<path class="st3" d="M25.17,19.4c-2.302,0-4.51-0.845-6.101-2.345c-0.146-0.137-0.153-0.367-0.015-0.513
			c0.137-0.146,0.367-0.153,0.513-0.015c1.499,1.412,3.701,2.214,5.884,2.143c1.985-0.064,3.748-0.819,4.967-2.126
			c0.137-0.146,0.367-0.155,0.513-0.018c0.146,0.137,0.155,0.367,0.018,0.513c-1.351,1.449-3.295,2.286-5.475,2.357
			C25.372,19.398,25.271,19.4,25.17,19.4z"/>
	</g>
	<g>
		<path class="st4" d="M25,28.396c3.962,0,7.193-0.581,7.193-1.295c0-0.713-3.231-1.295-7.193-1.295s-7.193,0.581-7.193,1.295
			C17.807,27.815,21.038,28.396,25,28.396z"/>
	</g>
	<g>
		<circle class="st3" cx="21.652" cy="9.358" r="1.613"/>
		<circle class="st3" cx="28.348" cy="9.358" r="1.613"/>
	</g>
</g>
</svg>
