<?xml version="1.0" encoding="utf-8"?>
<!-- Generator: Adobe Illustrator 21.1.0, SVG Export Plug-In . SVG Version: 6.00 Build 0)  -->
<svg version="1.1" id="Capa_1" xmlns="http://www.w3.org/2000/svg" xmlns:xlink="http://www.w3.org/1999/xlink" x="0px" y="0px"
	 viewBox="0 0 50 50" style="enable-background:new 0 0 50 50;" xml:space="preserve">
<style type="text/css">
	.st0{fill:#3C4852;}
</style>
<g>
	<g>
		<path class="st0" d="M32.982,38.879c-0.59-0.59-1.375-0.864-2.147-0.819l-2.073-2.073c0.841-1.074,1.535-2.252,2.073-3.522
			c0.812-1.922,1.223-3.961,1.223-6.06s-0.413-4.142-1.223-6.06c-0.785-1.855-1.908-3.517-3.338-4.948
			c-1.43-1.43-3.094-2.553-4.949-3.338c-1.922-0.812-3.961-1.223-6.06-1.223s-4.142,0.412-6.061,1.222
			c-1.854,0.782-3.518,1.905-4.946,3.335s-2.553,3.094-3.338,4.948c-0.812,1.922-1.223,3.961-1.223,6.06s0.413,4.142,1.223,6.06
			c0.785,1.855,1.908,3.517,3.338,4.949c1.43,1.432,3.094,2.553,4.948,3.338c1.922,0.81,3.961,1.223,6.06,1.223
			s4.142-0.413,6.06-1.223c1.284-0.544,2.478-1.246,3.563-2.106l2.07,2.068c-0.041,0.774,0.229,1.559,0.819,2.147l2.94,2.94
			c0.549,0.549,1.27,0.826,1.991,0.826c0.721,0,1.442-0.274,1.991-0.826c1.1-1.1,1.1-2.883,0-3.983L32.982,38.879z M26.082,33.304
			c-0.372,0.511-0.785,0.998-1.239,1.454c-0.442,0.444-0.917,0.844-1.411,1.206c-2.005,1.464-4.415,2.252-6.946,2.252
			c-3.157,0-6.124-1.227-8.354-3.462c-2.23-2.23-3.462-5.2-3.462-8.354s1.227-6.124,3.462-8.354c2.23-2.23,5.2-3.462,8.354-3.462
			s6.124,1.227,8.354,3.462c2.23,2.23,3.462,5.2,3.462,8.354C28.304,28.915,27.526,31.305,26.082,33.304z"/>
	</g>
</g>
</svg>
