<?xml version="1.0" encoding="utf-8"?>
<!-- Generator: Adobe Illustrator 21.1.0, SVG Export Plug-In . SVG Version: 6.00 Build 0)  -->
<svg version="1.1" id="Layer_1" xmlns="http://www.w3.org/2000/svg" xmlns:xlink="http://www.w3.org/1999/xlink" x="0px" y="0px"
	 viewBox="0 0 5 5" style="enable-background:new 0 0 5 5;" xml:space="preserve">
<style type="text/css">
	.st0{fill:#00B4E4;}
</style>
<path class="st0" d="M3.432,2.903c-0.131,0-0.249,0.056-0.334,0.143L1.834,2.569c0.019-0.05,0.032-0.103,0.032-0.16
	c0-0.059-0.013-0.115-0.034-0.168l1.26-0.413c0.085,0.091,0.204,0.15,0.337,0.15c0.257,0,0.465-0.208,0.465-0.465
	S3.688,1.047,3.431,1.047c-0.257,0-0.465,0.208-0.465,0.465C2.966,1.571,2.979,1.627,3,1.68L1.74,2.094
	c-0.085-0.091-0.204-0.15-0.337-0.15c-0.257,0-0.465,0.208-0.465,0.465s0.208,0.465,0.465,0.465c0.137,0,0.257-0.062,0.342-0.156
	l1.258,0.474C2.981,3.246,2.967,3.305,2.967,3.368c0,0.257,0.208,0.465,0.465,0.465s0.465-0.208,0.465-0.465
	S3.689,2.903,3.432,2.903z"/>
</svg>
