<?xml version="1.0" encoding="utf-8"?>
<!-- Generator: Adobe Illustrator 21.1.0, SVG Export Plug-In . SVG Version: 6.00 Build 0)  -->
<svg version="1.1" id="Layer_1" xmlns="http://www.w3.org/2000/svg" xmlns:xlink="http://www.w3.org/1999/xlink" x="0px" y="0px"
	 viewBox="0 0 181.667 35.833" style="enable-background:new 0 0 181.667 35.833;" xml:space="preserve">
<style type="text/css">
	.st0{fill:#00B4E4;}
</style>
<g id="aSky9K_2_">
	<g>
		<path class="st0" d="M30.395,8.333c6.53,0,13.06,0,19.645,0c0,0.787,0,1.511,0,2.303c-0.424,0-0.844,0-1.317,0
			c-0.03-0.27-0.058-0.524-0.092-0.83c-5.581,0-11.153,0-16.771,0c0,4.037,0,8.044,0,12.113c5.566,0,11.112,0,16.769,0
			c0-0.722,0-1.47,0-2.279c0.533,0,0.957,0,1.422,0c0,2.606,0,5.168,0,7.859c-6.555,0-13.106,0-19.658,0
			C30.395,21.111,30.395,14.722,30.395,8.333z"/>
		<path class="st0" d="M39.072,14.077c0.615,0.977,1.13,1.795,1.761,2.799c0.595-0.735,1.115-1.376,1.773-2.188
			c0.721,1.694,1.331,3.129,1.965,4.619c-2.849,0-5.588,0-8.47,0C37.1,17.549,38.05,15.876,39.072,14.077z"/>
		<path class="st0" d="M49.395,11.71c1.213,1.284,2.371,2.51,3.668,3.882c-0.848,0-1.482,0-2.225,0c0,0.965,0,1.86,0,2.8
			c-0.983,0-1.857,0-2.84,0c0-0.88,0-1.775,0-2.772c-0.756,0-1.413,0-2.306,0C47.02,14.218,48.182,12.991,49.395,11.71z"/>
	</g>
</g>
<g>
	<path class="st0" d="M59.781,18.014c-1.238-0.355-2.139-0.793-2.702-1.312c-0.564-0.519-0.846-1.159-0.846-1.921
		c0-0.862,0.344-1.575,1.033-2.138c0.689-0.564,1.585-0.846,2.688-0.846c0.751,0,1.421,0.145,2.01,0.436
		c0.589,0.291,1.045,0.692,1.368,1.203c0.323,0.511,0.485,1.07,0.485,1.676h-1.451c0-0.664-0.21-1.186-0.631-1.565
		c-0.421-0.379-1.015-0.569-1.781-0.569c-0.712,0-1.267,0.157-1.666,0.471c-0.398,0.314-0.597,0.749-0.597,1.306
		c0,0.447,0.189,0.825,0.568,1.134c0.378,0.308,1.022,0.591,1.932,0.847c0.909,0.256,1.621,0.538,2.135,0.846
		s0.895,0.668,1.143,1.079c0.247,0.411,0.372,0.895,0.372,1.451c0,0.887-0.346,1.597-1.037,2.131
		c-0.692,0.533-1.616,0.801-2.773,0.801c-0.752,0-1.454-0.144-2.105-0.432c-0.652-0.288-1.154-0.683-1.507-1.184
		c-0.354-0.501-0.53-1.069-0.53-1.707h1.451c0,0.662,0.244,1.184,0.733,1.568c0.489,0.383,1.141,0.575,1.958,0.575
		c0.761,0,1.345-0.156,1.751-0.466c0.406-0.311,0.609-0.735,0.609-1.27c0-0.536-0.188-0.951-0.564-1.244
		C61.45,18.589,60.768,18.3,59.781,18.014z"/>
	<path class="st0" d="M68.461,23.043c-1.103,0-1.999-0.362-2.691-1.086c-0.691-0.724-1.037-1.692-1.037-2.905v-0.255
		c0-0.807,0.154-1.527,0.462-2.161c0.309-0.634,0.739-1.13,1.293-1.488c0.554-0.358,1.154-0.537,1.801-0.537
		c1.057,0,1.879,0.348,2.465,1.044c0.586,0.697,0.879,1.694,0.879,2.992v0.579h-5.51c0.02,0.802,0.254,1.449,0.703,1.943
		c0.448,0.493,1.018,0.74,1.71,0.74c0.491,0,0.907-0.1,1.247-0.3c0.341-0.2,0.639-0.466,0.895-0.797l0.849,0.662
		C70.846,22.519,69.824,23.043,68.461,23.043z M68.288,15.752c-0.562,0-1.033,0.204-1.414,0.613
		c-0.381,0.408-0.616,0.981-0.706,1.718h4.074v-0.105c-0.04-0.706-0.231-1.254-0.571-1.642
		C69.33,15.946,68.869,15.752,68.288,15.752z"/>
	<path class="st0" d="M74.368,22.893h-1.391V11.347h1.391V22.893z"/>
	<path class="st0" d="M79.583,23.043c-1.103,0-1.999-0.362-2.691-1.086c-0.691-0.724-1.037-1.692-1.037-2.905v-0.255
		c0-0.807,0.154-1.527,0.462-2.161c0.309-0.634,0.739-1.13,1.293-1.488c0.554-0.358,1.154-0.537,1.801-0.537
		c1.057,0,1.879,0.348,2.465,1.044c0.586,0.697,0.879,1.694,0.879,2.992v0.579h-5.51c0.02,0.802,0.254,1.449,0.703,1.943
		c0.448,0.493,1.018,0.74,1.71,0.74c0.491,0,0.907-0.1,1.247-0.3c0.341-0.2,0.639-0.466,0.895-0.797l0.849,0.662
		C81.968,22.519,80.946,23.043,79.583,23.043z M79.41,15.752c-0.562,0-1.033,0.204-1.414,0.613
		c-0.381,0.408-0.616,0.981-0.706,1.718h4.074v-0.105c-0.04-0.706-0.231-1.254-0.571-1.642
		C80.452,15.946,79.991,15.752,79.41,15.752z"/>
	<path class="st0" d="M87.241,21.908c0.496,0,0.93-0.15,1.301-0.451c0.37-0.3,0.576-0.677,0.616-1.128h1.315
		c-0.025,0.466-0.185,0.91-0.481,1.33c-0.295,0.421-0.69,0.757-1.184,1.008c-0.493,0.25-1.016,0.376-1.567,0.376
		c-1.108,0-1.988-0.37-2.642-1.109c-0.654-0.739-0.981-1.75-0.981-3.033v-0.233c0-0.792,0.146-1.496,0.436-2.112
		c0.291-0.617,0.708-1.095,1.251-1.436c0.544-0.341,1.187-0.511,1.928-0.511c0.912,0,1.67,0.273,2.274,0.819
		c0.603,0.546,0.926,1.255,0.965,2.127h-1.315c-0.04-0.526-0.24-0.958-0.598-1.297c-0.358-0.338-0.801-0.507-1.326-0.507
		c-0.706,0-1.254,0.254-1.642,0.763c-0.389,0.508-0.583,1.244-0.583,2.206v0.263c0,0.937,0.193,1.659,0.579,2.165
		C85.973,21.655,86.524,21.908,87.241,21.908z"/>
	<path class="st0" d="M93.538,12.79v1.969h1.518v1.075h-1.518v5.05c0,0.326,0.068,0.571,0.203,0.734
		c0.135,0.162,0.366,0.244,0.691,0.244c0.16,0,0.381-0.03,0.662-0.09v1.121c-0.366,0.099-0.722,0.149-1.068,0.149
		c-0.621,0-1.09-0.188-1.405-0.564c-0.316-0.376-0.473-0.909-0.473-1.601v-5.043h-1.481V14.76h1.481V12.79H93.538z"/>
	<path class="st0" d="M104.742,22.893c-0.08-0.16-0.146-0.446-0.196-0.857c-0.646,0.672-1.418,1.007-2.315,1.007
		c-0.801,0-1.459-0.227-1.973-0.68c-0.514-0.454-0.77-1.029-0.77-1.726c0-0.846,0.322-1.504,0.966-1.973
		c0.643-0.469,1.549-0.703,2.717-0.703h1.353v-0.639c0-0.486-0.146-0.873-0.436-1.161c-0.291-0.288-0.719-0.433-1.285-0.433
		c-0.496,0-0.912,0.126-1.247,0.376c-0.336,0.251-0.504,0.554-0.504,0.909h-1.398c0-0.406,0.143-0.798,0.432-1.176
		s0.679-0.678,1.173-0.898c0.493-0.22,1.036-0.33,1.627-0.33c0.937,0,1.672,0.234,2.203,0.703c0.53,0.469,0.807,1.114,0.826,1.935
		v3.744c0,0.747,0.096,1.34,0.286,1.782v0.12H104.742z M102.434,21.832c0.436,0,0.849-0.112,1.24-0.338
		c0.391-0.226,0.674-0.519,0.85-0.879v-1.669h-1.09c-1.704,0-2.556,0.499-2.556,1.496c0,0.436,0.146,0.776,0.436,1.022
		C101.605,21.71,101.978,21.832,102.434,21.832z"/>
	<path class="st0" d="M112.796,18.608v4.285h-1.443V11.948h4.037c1.197,0,2.135,0.306,2.814,0.917
		c0.679,0.612,1.018,1.421,1.018,2.428c0,1.063-0.332,1.881-0.996,2.454c-0.664,0.574-1.615,0.86-2.852,0.86H112.796z
		 M112.796,17.428h2.594c0.771,0,1.363-0.182,1.773-0.546c0.411-0.364,0.617-0.89,0.617-1.578c0-0.653-0.206-1.175-0.617-1.566
		c-0.411-0.392-0.974-0.595-1.691-0.61h-2.676V17.428z"/>
	<path class="st0" d="M121.853,15.744c0.617-0.757,1.418-1.135,2.405-1.135c1.719,0,2.586,0.969,2.601,2.909v5.374h-1.391v-5.382
		c-0.005-0.586-0.139-1.02-0.402-1.301c-0.263-0.28-0.672-0.421-1.229-0.421c-0.451,0-0.848,0.12-1.188,0.361
		c-0.341,0.241-0.606,0.556-0.797,0.947v5.795h-1.39V11.347h1.39V15.744z"/>
	<path class="st0" d="M128.187,18.751c0-0.797,0.157-1.513,0.47-2.15c0.313-0.637,0.749-1.128,1.307-1.473
		c0.558-0.346,1.197-0.519,1.913-0.519c1.108,0,2.003,0.383,2.688,1.15c0.684,0.767,1.026,1.786,1.026,3.059v0.098
		c0,0.791-0.152,1.502-0.455,2.131c-0.303,0.629-0.736,1.119-1.3,1.47c-0.564,0.351-1.212,0.526-1.943,0.526
		c-1.103,0-1.996-0.383-2.679-1.15c-0.684-0.767-1.027-1.782-1.027-3.045V18.751z M129.586,18.916c0,0.902,0.209,1.626,0.628,2.172
		c0.418,0.546,0.978,0.819,1.68,0.819c0.706,0,1.268-0.276,1.684-0.83c0.416-0.554,0.624-1.329,0.624-2.326
		c0-0.892-0.212-1.615-0.635-2.169c-0.423-0.554-0.986-0.831-1.688-0.831c-0.687,0-1.24,0.273-1.661,0.819
		C129.796,17.117,129.586,17.899,129.586,18.916z"/>
	<path class="st0" d="M138.837,12.79v1.969h1.518v1.075h-1.518v5.05c0,0.326,0.068,0.571,0.203,0.734
		c0.135,0.162,0.366,0.244,0.691,0.244c0.16,0,0.381-0.03,0.662-0.09v1.121c-0.366,0.099-0.722,0.149-1.068,0.149
		c-0.621,0-1.09-0.188-1.405-0.564s-0.473-0.909-0.473-1.601v-5.043h-1.481V14.76h1.481V12.79H138.837z"/>
	<path class="st0" d="M141.075,18.751c0-0.797,0.157-1.513,0.47-2.15c0.313-0.637,0.749-1.128,1.307-1.473
		c0.558-0.346,1.197-0.519,1.913-0.519c1.108,0,2.003,0.383,2.688,1.15c0.684,0.767,1.026,1.786,1.026,3.059v0.098
		c0,0.791-0.152,1.502-0.455,2.131c-0.303,0.629-0.736,1.119-1.3,1.47c-0.564,0.351-1.212,0.526-1.943,0.526
		c-1.103,0-1.996-0.383-2.679-1.15c-0.684-0.767-1.027-1.782-1.027-3.045V18.751z M142.474,18.916c0,0.902,0.209,1.626,0.628,2.172
		c0.418,0.546,0.978,0.819,1.68,0.819c0.706,0,1.268-0.276,1.684-0.83c0.416-0.554,0.624-1.329,0.624-2.326
		c0-0.892-0.212-1.615-0.635-2.169c-0.423-0.554-0.986-0.831-1.688-0.831c-0.687,0-1.24,0.273-1.661,0.819
		C142.684,17.117,142.474,17.899,142.474,18.916z"/>
</g>
</svg>
