<?xml version="1.0" encoding="utf-8"?>
<!-- Generator: Adobe Illustrator 22.0.1, SVG Export Plug-In . SVG Version: 6.00 Build 0)  -->
<svg version="1.1" id="Layer_1" xmlns="http://www.w3.org/2000/svg" xmlns:xlink="http://www.w3.org/1999/xlink" x="0px" y="0px"
	 viewBox="0 0 45 45" style="enable-background:new 0 0 45 45;" xml:space="preserve">
<style type="text/css">
	.st0{fill:#846528;}
</style>
<g id="bcwJXA_1_">
	<g>
		<path class="st0" d="M18.269,30.847c-4.046,0-8.093,0.006-12.139-0.003c-1.868-0.004-3.258-1.219-3.467-3.016
			c-0.088-0.76,0.111-1.458,0.49-2.122c2.15-3.774,4.29-7.553,6.433-11.33c1.898-3.345,3.798-6.689,5.692-10.037
			c0.661-1.168,1.662-1.803,2.992-1.802c1.316,0.001,2.305,0.635,2.961,1.79c4.052,7.142,8.11,14.281,12.161,21.424
			c1.172,2.066,0.103,4.554-2.193,5.003c-0.761,0.149-1.565,0.092-2.35,0.094c-3.526,0.008-7.052,0.004-10.578,0.004
			C18.269,30.85,18.269,30.848,18.269,30.847z M20.624,11.258c-0.067-0.474-0.125-1.095-0.25-1.703
			c-0.088-0.431-0.288-0.828-0.69-1.081c-1.095-0.69-2.701-0.178-3.109,1.045c-0.16,0.479-0.218,1.022-0.192,1.529
			c0.133,2.573,0.294,5.145,0.478,7.715c0.045,0.628,0.17,1.257,0.333,1.867c0.166,0.624,0.592,0.912,1.185,0.931
			c0.57,0.018,1.053-0.273,1.234-0.872c0.175-0.579,0.283-1.187,0.35-1.79c0.135-1.205,0.227-2.414,0.33-3.622
			C20.404,13.988,20.506,12.698,20.624,11.258z M18.469,27.432c1.208,0.009,2.105-0.857,2.116-2.04
			c0.01-1.165-0.931-2.109-2.109-2.114c-1.171-0.006-2.094,0.899-2.111,2.068C16.349,26.545,17.234,27.423,18.469,27.432z"/>
	</g>
</g>
</svg>
