<?xml version="1.0" encoding="utf-8"?>
<!-- Generator: Adobe Illustrator 21.1.0, SVG Export Plug-In . SVG Version: 6.00 Build 0)  -->
<svg version="1.1" id="Capa_1" xmlns="http://www.w3.org/2000/svg" xmlns:xlink="http://www.w3.org/1999/xlink" x="0px" y="0px"
	 viewBox="0 0 60 70" style="enable-background:new 0 0 60 70;" xml:space="preserve">
<style type="text/css">
	.st0{opacity:0.58;}
	.st1{fill:#506F45;}
	.st2{fill:url(#SVGID_1_);}
</style>
<g id="jd829B_2_" class="st0">
	<g>
		<path class="st1" d="M58.694,26.715c0,2.131,0,4.262,0,6.393c-0.508,0.254-1.004,0.538-1.526,0.757
			c-2.046,0.86-4.102,1.696-6.147,2.556c-0.161,0.068-0.33,0.226-0.401,0.384c-0.424,0.958-0.83,1.924-1.217,2.898
			c-0.064,0.161-0.054,0.396,0.014,0.558c0.32,0.752,0.687,1.483,1.01,2.233c0.688,1.599,1.356,3.206,2.038,4.808
			c0.121,0.284,0.11,0.502-0.138,0.739c-1.315,1.259-2.624,2.525-3.908,3.814c-0.334,0.335-0.634,0.4-1.063,0.23
			c-2.249-0.89-4.511-1.748-6.755-2.651c-0.479-0.193-0.883-0.236-1.362-0.017c-0.798,0.365-1.62,0.681-2.442,0.991
			c-0.315,0.119-0.511,0.29-0.615,0.617c-0.14,0.44-0.316,0.869-0.495,1.295c-0.851,2.029-1.709,4.054-2.564,6.081
			c-2.193,0-4.386,0-6.578,0c-0.308-0.616-0.642-1.221-0.919-1.852c-0.81-1.849-1.59-3.711-2.406-5.557
			c-0.093-0.211-0.314-0.42-0.526-0.515c-0.872-0.388-1.773-0.714-2.646-1.1c-0.377-0.167-0.691-0.136-1.053,0.03
			c-1.091,0.503-2.186,1-3.296,1.459c-1.238,0.512-2.49,0.992-3.749,1.452c-0.17,0.062-0.479-0.002-0.61-0.127
			c-1.382-1.322-2.746-2.663-4.096-4.018c-0.121-0.122-0.194-0.39-0.153-0.557c0.123-0.491,0.291-0.975,0.483-1.444
			c0.814-1.981,1.646-3.954,2.461-5.934c0.051-0.124,0.056-0.305,0.006-0.428c-0.414-1.012-0.84-2.02-1.281-3.02
			c-0.059-0.134-0.207-0.267-0.346-0.322c-2.571-1.035-5.146-2.057-7.72-3.083c0-2.131,0-4.262,0-6.393
			c0.565-0.278,1.118-0.586,1.698-0.829c2.003-0.842,4.016-1.658,6.021-2.496c0.136-0.057,0.279-0.193,0.337-0.327
			c0.426-0.974,0.838-1.954,1.233-2.941c0.06-0.151,0.066-0.368,0.004-0.515C9.674,19.146,9.319,18.427,9,17.692
			c-0.697-1.611-1.38-3.229-2.072-4.843c-0.136-0.318-0.088-0.554,0.182-0.812c1.347-1.292,2.663-2.615,4.012-3.905
			c0.144-0.138,0.45-0.218,0.644-0.171c0.552,0.134,1.093,0.326,1.623,0.535c1.921,0.757,3.833,1.537,5.757,2.285
			c0.205,0.08,0.492,0.077,0.698-0.001c0.981-0.369,1.95-0.769,2.914-1.178c0.149-0.063,0.305-0.213,0.367-0.361
			c1.055-2.51,2.096-5.027,3.14-7.542c2.193,0,4.386,0,6.578,0c0.312,0.632,0.649,1.253,0.932,1.897
			c0.805,1.835,1.579,3.683,2.389,5.515c0.093,0.21,0.31,0.42,0.521,0.514c0.902,0.398,1.827,0.744,2.735,1.129
			c0.311,0.132,0.577,0.114,0.881-0.025c1.121-0.512,2.244-1.024,3.383-1.495c1.224-0.507,2.467-0.968,3.701-1.45
			c0.292-0.114,0.513-0.051,0.743,0.18c1.056,1.06,2.131,2.102,3.2,3.148c1.204,1.178,1.192,1.172,0.53,2.733
			c-0.848,2-1.676,4.008-2.503,6.017c-0.051,0.124-0.055,0.305-0.004,0.429c0.413,1.013,0.837,2.022,1.277,3.023
			c0.059,0.134,0.206,0.269,0.344,0.324C53.543,24.67,56.119,25.691,58.694,26.715z M29.707,20.971
			c-5.115-0.013-9.282,4.043-9.316,9.067c-0.033,4.965,4.175,9.085,9.291,9.095c5.118,0.009,9.268-4.032,9.314-9.069
			C39.042,25.105,34.831,20.983,29.707,20.971z"/>
	</g>
</g>
<g id="jd829B_1_">
	<g>
		
			<linearGradient id="SVGID_1_" gradientUnits="userSpaceOnUse" x1="30" y1="88.8687" x2="30" y2="32.1667" gradientTransform="matrix(1 0 0 -1 0 90)">
			<stop  offset="0" style="stop-color:#A1D784"/>
			<stop  offset="0.1791" style="stop-color:#9DD281"/>
			<stop  offset="0.3825" style="stop-color:#93C579"/>
			<stop  offset="0.5978" style="stop-color:#81AE6B"/>
			<stop  offset="0.8199" style="stop-color:#688E58"/>
			<stop  offset="1" style="stop-color:#506F45"/>
		</linearGradient>
		<path class="st2" d="M59,26.147c0,2.131,0,4.262,0,6.393c-0.508,0.254-1.004,0.538-1.526,0.757
			c-2.046,0.86-4.102,1.696-6.147,2.556c-0.161,0.068-0.33,0.226-0.401,0.384c-0.424,0.958-0.83,1.924-1.217,2.898
			c-0.064,0.161-0.054,0.396,0.014,0.558c0.32,0.752,0.687,1.483,1.01,2.233c0.688,1.599,1.356,3.206,2.038,4.808
			c0.121,0.284,0.11,0.502-0.138,0.739c-1.315,1.259-2.624,2.525-3.908,3.814c-0.334,0.335-0.634,0.4-1.063,0.23
			c-2.249-0.89-4.511-1.748-6.755-2.651c-0.479-0.193-0.883-0.236-1.362-0.017c-0.798,0.365-1.62,0.681-2.442,0.991
			c-0.315,0.119-0.511,0.29-0.615,0.617c-0.14,0.44-0.316,0.869-0.495,1.295c-0.851,2.029-1.709,4.055-2.564,6.081
			c-2.193,0-4.386,0-6.578,0c-0.308-0.616-0.642-1.221-0.919-1.852c-0.811-1.849-1.59-3.711-2.406-5.557
			c-0.093-0.211-0.314-0.42-0.526-0.515c-0.872-0.388-1.773-0.714-2.646-1.1c-0.377-0.167-0.691-0.136-1.053,0.03
			c-1.091,0.503-2.186,1-3.296,1.459c-1.238,0.512-2.49,0.992-3.749,1.452c-0.17,0.062-0.479-0.002-0.61-0.127
			C10.264,50.301,8.9,48.96,7.55,47.605c-0.121-0.122-0.194-0.39-0.153-0.557c0.123-0.491,0.291-0.975,0.483-1.444
			c0.814-1.981,1.646-3.954,2.461-5.934c0.051-0.124,0.056-0.305,0.006-0.428c-0.414-1.012-0.84-2.02-1.281-3.02
			C9.007,36.088,8.859,35.955,8.72,35.9C6.15,34.866,3.574,33.843,1,32.817c0-2.131,0-4.262,0-6.393
			c0.565-0.278,1.118-0.586,1.698-0.829c2.003-0.842,4.016-1.658,6.021-2.496c0.136-0.057,0.279-0.193,0.337-0.327
			c0.426-0.974,0.838-1.954,1.233-2.941c0.06-0.151,0.066-0.368,0.004-0.515c-0.313-0.738-0.668-1.457-0.987-2.192
			c-0.697-1.611-1.38-3.229-2.072-4.843c-0.136-0.318-0.088-0.554,0.182-0.812c1.347-1.292,2.663-2.615,4.012-3.905
			c0.144-0.138,0.45-0.218,0.644-0.171c0.552,0.134,1.093,0.326,1.623,0.535c1.921,0.757,3.833,1.537,5.757,2.285
			c0.205,0.08,0.492,0.077,0.698-0.001c0.981-0.369,1.95-0.769,2.914-1.178c0.149-0.063,0.305-0.213,0.367-0.361
			c1.055-2.51,2.096-5.027,3.14-7.542c2.193,0,4.386,0,6.578,0c0.312,0.632,0.649,1.253,0.932,1.897
			c0.805,1.835,1.579,3.683,2.389,5.515c0.093,0.21,0.31,0.42,0.521,0.514c0.902,0.398,1.827,0.744,2.735,1.129
			c0.311,0.132,0.577,0.114,0.881-0.025c1.121-0.512,2.244-1.024,3.383-1.495c1.224-0.507,2.467-0.968,3.701-1.45
			c0.292-0.114,0.513-0.051,0.743,0.18c1.056,1.06,2.131,2.102,3.2,3.148c1.204,1.178,1.192,1.172,0.53,2.733
			c-0.848,2-1.676,4.008-2.503,6.017c-0.051,0.124-0.055,0.305-0.004,0.429c0.413,1.013,0.837,2.022,1.277,3.023
			c0.059,0.134,0.206,0.269,0.344,0.324C53.849,24.102,56.425,25.123,59,26.147z M30.012,20.403
			c-5.115-0.013-9.282,4.043-9.316,9.067c-0.033,4.965,4.175,9.085,9.291,9.095c5.118,0.009,9.268-4.032,9.314-9.069
			C39.348,24.537,35.137,20.415,30.012,20.403z"/>
	</g>
</g>
</svg>
