<?xml version="1.0" encoding="utf-8"?>
<!-- Generator: Adobe Illustrator 21.1.0, SVG Export Plug-In . SVG Version: 6.00 Build 0)  -->
<svg version="1.1" id="Layer_1" xmlns="http://www.w3.org/2000/svg" xmlns:xlink="http://www.w3.org/1999/xlink" x="0px" y="0px"
	 viewBox="0 0 150 50" style="enable-background:new 0 0 150 50;" xml:space="preserve">
<style type="text/css">
	.st0{fill:#FFFFFF;}
</style>
<g>
	<path class="st0" d="M71.824,16.3h-3.555c-0.187,0-0.187,0-0.187,0.187c0,0.936-0.187,1.31-0.187,1.497
		c-1.684,4.49-3.929,11.226-5.426,15.155c0,0.187,0,0.187,0.187,0.187h2.619c0,0,0.187,0,0.187-0.187l1.684-4.678v-0.187h5.8
		l1.684,4.678c0,0.187,0,0.187,0.187,0.187h2.994c0.187,0,0.187,0,0.187-0.187c-1.871-5.426-4.116-11.226-5.987-16.652
		C72.011,16.3,72.011,16.113,71.824,16.3z M67.895,25.842c0.748-2.432,1.871-5.426,2.245-7.11c0.374,1.871,1.684,5.426,2.245,7.11
		H67.895z"/>
	<path class="st0" d="M135.813,27.526c0,0,0.187-0.561,0.187-1.684c0-2.432-1.497-5.426-5.426-5.426
		c-3.929,0-6.174,2.994-6.174,6.736c0,3.368,1.871,6.549,6.549,6.549c1.684,0,2.994-0.187,3.929-0.748
		c0.187-0.187,0.187-0.187,0.187-0.374V30.52c0-0.187-0.187-0.187-0.187-0.187c-1.123,0.374-2.245,0.561-3.181,0.561
		c-2.619,0-3.929-1.31-3.929-3.368h5.239C134.503,27.526,135.439,27.526,135.813,27.526z M127.58,25.468
		c0.187-1.684,1.123-2.994,2.807-2.994c2.058,0,2.619,1.684,2.619,2.432c0,0.187,0,0.374,0,0.374s-0.187,0.187-1.123,0.187H127.58z"
		/>
	<path class="st0" d="M115.98,20.416c-0.936,0-1.871,0.187-2.807,0.561V14.99c0-0.187,0-0.187-0.187-0.187h-2.807
		c-0.187,0-0.187,0-0.187,0.187v17.962c0,0,0,0.187,0.187,0.187c1.31,0.374,2.619,0.561,3.929,0.561
		c4.116,0,7.671-2.807,7.671-7.297C121.78,23.036,119.535,20.416,115.98,20.416z M114.858,31.081c-0.561,0-1.123,0-1.497-0.187
		v-7.671c0.561-0.187,1.31-0.374,2.058-0.374c1.871,0,3.368,1.31,3.555,3.742C118.974,29.584,116.729,31.081,114.858,31.081z"/>
	<path class="st0" d="M101.199,20.416c-3.929,0-6.549,2.619-6.549,6.549c0,3.181,1.871,6.549,6.361,6.549
		c3.742,0,6.361-2.619,6.361-6.736C107.373,23.223,105.128,20.229,101.199,20.416z M101.012,31.081
		c-2.058,0-3.181-1.684-3.181-4.303c0-2.619,1.31-4.116,2.994-4.303c2.245,0,3.181,1.871,3.181,4.303
		C104.006,29.958,102.696,31.081,101.012,31.081z"/>
	<path class="st0" d="M91.47,14.616h-2.807c-0.187,0-0.187,0-0.187,0.187v5.613c-0.374-0.187-0.936-0.187-1.497-0.187
		c-4.49,0-7.297,2.994-7.297,6.736c0,4.49,2.619,6.549,6.549,6.361c1.684,0,3.555-0.561,5.239-1.31c0.187,0,0.187,0,0.187-0.187
		c0-0.374,0-1.123,0-1.684V14.803C91.657,14.616,91.657,14.616,91.47,14.616z M88.476,30.894c-0.561,0-1.31,0.187-1.871,0.187
		c-2.058,0-3.742-1.123-3.742-4.116c0-2.619,1.497-4.116,3.929-4.116c0.561,0,1.123,0,1.497,0.187h0.187V30.894z"/>
	<polygon class="st0" points="49.765,40.623 49.765,9.377 36.668,9.377 	"/>
	<polygon class="st0" points="14.403,9.377 14.403,40.623 27.5,9.377 	"/>
	<polygon class="st0" points="26.378,34.262 32.365,34.262 34.984,40.623 40.41,40.623 31.991,20.79 	"/>
</g>
</svg>
