<?xml version="1.0" encoding="utf-8"?>
<!-- Generator: Adobe Illustrator 21.1.0, SVG Export Plug-In . SVG Version: 6.00 Build 0)  -->
<svg version="1.1" id="Layer_1" xmlns="http://www.w3.org/2000/svg" xmlns:xlink="http://www.w3.org/1999/xlink" x="0px" y="0px"
	 viewBox="0 0 70 20" style="enable-background:new 0 0 70 20;" xml:space="preserve">
<style type="text/css">
	.st0{fill:#3C4852;}
</style>
<g>
	<path class="st0" d="M1.332,10.658c-0.11,0.041-0.606,0.22-0.689,0.22c-0.041,0-0.082-0.027-0.11-0.056l0.014-0.068l-0.138-0.027
		l0.206-0.234l-0.33,0.124v-0.027l0.069-0.096l-0.11-0.014l0.042-0.082c-0.096-0.014-0.124-0.124-0.138-0.193l0.042-0.082
		c-0.042-0.042-0.055-0.083-0.055-0.138c0-0.11,0.027-0.137,0.11-0.206C0.547,9.528,1.662,9.28,2.09,9.184
		C2.269,8.756,2.517,8.357,2.71,7.93c0.179-0.372,0.372-0.716,0.565-1.075L4.5,4.583c0.303-0.565,0.62-1.226,1.061-1.708
		c0.248-0.262,0.593-0.248,0.923-0.248l0.027,0.096c0.027-0.027,0.055-0.042,0.096-0.042L6.649,2.75
		c0.027-0.027,0.055-0.055,0.069-0.096l0.027,0.042L6.677,3.246C6.649,3.481,6.553,3.714,6.498,3.949
		C6.374,4.445,6.264,4.954,6.154,5.45C5.864,6.704,5.671,7.971,5.492,9.252c-0.124,0.882-0.179,1.763-0.261,2.645
		c-0.014,0.11-0.014,0.207-0.014,0.317c0,0.207,0.027,0.772,0.083,0.937c0-3.486,0.785-6.888,1.543-10.277
		c0.013-0.055,0.013-0.11,0.068-0.151l0.083,0.151l0.042-0.082C7.104,2.805,7.159,2.86,7.159,2.929c0,0.551-0.22,1.102-0.345,1.639
		C6.677,5.12,6.58,5.685,6.47,6.249c-0.261,1.377-0.551,2.755-0.675,4.146c-0.055,0.648-0.151,1.281-0.151,1.929
		c0,0.606,0.082,1.199,0.151,1.805l-0.042,0.096l-0.082-0.096L5.63,14.17c-0.042,0-0.069-0.027-0.096-0.041l-0.069,0.055H5.409
		c-0.22,0-0.317-0.027-0.482-0.179c-0.537-0.454-0.565-1.239-0.565-1.887c0-0.248,0.028-0.496,0.042-0.744
		c0.027-0.413,0-0.84,0.096-1.253c-0.138-0.014-0.289-0.027-0.427-0.027c-0.345,0-0.689,0.055-1.034,0.11
		c-0.124,0.193-0.206,0.413-0.303,0.62c-0.193,0.4-0.386,0.813-0.606,1.199c-0.137,0.248-0.137,0.22-0.399,0.289l-0.014-0.165
		c-0.055,0.069-0.082,0.152-0.11,0.234l-0.042-0.096l-0.096,0.042c0-0.083,0-0.165,0.027-0.234H1.469l-0.096,0.234l-0.041-0.069
		l-0.124,0.027l-0.014-0.206l-0.082,0.124c-0.056-0.027-0.179-0.11-0.179-0.179c0-0.413,0.262-0.992,0.427-1.363V10.63L1.332,10.658
		z M1.194,9.721C0.946,9.79,0.684,9.845,0.45,9.969C0.588,9.969,1.07,9.79,1.194,9.721z M0.629,10.23
		c0.082-0.027,0.165-0.068,0.248-0.11c0.042,0,0.082-0.027,0.096-0.055c-0.124,0.027-0.248,0.068-0.372,0.124
		C0.629,10.203,0.629,10.203,0.629,10.23z M1.566,10.162c-0.179,0-0.758,0.22-0.923,0.316h0.096c0.138,0,0.717-0.206,0.854-0.289
		L1.566,10.162z M1.043,10.066v-0.014c-0.014,0-0.014,0-0.027,0.014H1.043z M1.015,10.547v0.014l0.027-0.014H1.015z M1.194,11.966
		l0.014,0.027c0-0.027,0.013-0.055,0.027-0.068C1.208,11.939,1.208,11.939,1.194,11.966z M3.633,8.977
		c0.33,0,0.689,0.014,0.978,0.193c0.042-0.372,0.11-0.744,0.165-1.116c0.096-0.716,0.207-1.432,0.331-2.149
		C4.872,6.346,3.66,8.674,3.633,8.977z M4.817,10.162H4.803c-0.096,0.647-0.124,1.294-0.124,1.942L4.817,10.162z M5.671,4.72
		c-0.027,0.165-0.083,0.317-0.11,0.482L5.134,7.585c-0.11,0.592-0.262,1.226-0.262,1.832v0.042h0.055
		C5.134,7.875,5.396,6.29,5.726,4.72H5.671z M4.955,12.008c0,0.082,0,0.165,0.013,0.248c0.042-0.689,0.096-1.364,0.165-2.053
		C5.01,10.437,4.955,11.691,4.955,12.008z M5.162,9.969C5.313,9.17,5.396,8.357,5.52,7.544l0.151-0.978
		C5.74,6.126,5.85,5.685,5.919,5.244c0.055-0.358,0.138-0.703,0.234-1.047C6.126,4.238,6.098,4.279,6.085,4.321
		C5.974,4.61,5.961,4.927,5.905,5.23C5.809,5.809,5.644,6.373,5.561,6.952l-0.399,2.59C5.134,9.68,5.134,9.817,5.134,9.969H5.162z
		 M5.272,10.258H5.244v0.042h0.028V10.258z M5.272,10.093H5.3V9.997H5.272V10.093z M5.368,9.404h0.014c0-0.028,0-0.042-0.014-0.069
		V9.404z M5.382,9.211h0.014V9.115H5.382V9.211z M5.492,11.746H5.464v0.248h0.027V11.746z M5.492,8.412H5.52V8.357H5.492V8.412z
		 M5.492,11.346v0.096c0.028-0.027,0.028-0.055,0.028-0.096H5.492z M5.533,8.219H5.52l0.013,0.014V8.219z M5.52,11.016v0.165h0.013
		v-0.165H5.52z M5.533,10.864h0.027v-0.151H5.533V10.864z M5.602,10.341H5.63v-0.138H5.602V10.341z M5.63,10.093h0.027V9.997H5.63
		V10.093z M5.671,9.762H5.657v0.124h0.014V9.762z M5.768,9.17H5.754v0.069h0.014V9.17z M5.795,6.745V6.69
		C5.781,6.704,5.768,6.731,5.768,6.745H5.795z M5.795,8.935H5.768v0.083h0.027V8.935z M5.823,8.756H5.795l0.027,0.042V8.756z
		 M5.837,8.66h0.027L5.837,8.619V8.66z M5.892,8.385H5.864v0.096h0.027V8.385z M5.905,8.233H5.892v0.055h0.013V8.233z M5.988,7.737
		H5.961v0.056h0.027V7.737z M6.016,7.585H5.988v0.069h0.027V7.585z M6.029,7.448L6.016,7.476l0.013,0.013V7.448z M6.112,7.131H6.085
		v0.041L6.112,7.131z M6.126,6.98H6.112v0.041h0.013V6.98z M6.154,6.814H6.126c0,0.027,0,0.041,0.028,0.069V6.814z M6.181,6.649
		H6.154L6.181,6.69V6.649z M6.25,6.387V6.359c-0.013,0-0.027,0.014-0.027,0.027H6.25z M6.264,3.674L6.25,3.701l0.014,0.013V3.674z
		 M6.25,6.29h0.014V6.222H6.25V6.29z M6.36,5.809H6.333v0.027H6.36V5.809z M6.415,5.588V5.561H6.388L6.415,5.588z M6.47,5.202h0.014
		V5.147H6.47V5.202z M6.58,4.679l0.027-0.028H6.58V4.679z M6.608,4.569l0.014-0.027L6.608,4.514V4.569z"/>
	<path class="st0" d="M10.923,13.84c0,0.137-0.275,0.151-0.358,0.151c-0.262,0-0.496-0.11-0.661-0.317
		c-0.455-0.579-0.579-1.942-0.675-2.672H9.201c-0.386,0.578-0.771,1.432-1.556,1.432c-0.937,0-1.213-0.923-1.213-1.708
		c0-0.882,0.551-2.163,1.584-2.163c0.454,0,0.826,0.22,1.212,0.427c0.22-1.378,0.482-3.1,1.612-4.05
		c0.165-0.137,0.399-0.289,0.62-0.289c0.551,0,0.909,0.606,0.909,1.103c0,0.964-0.84,2.397-1.474,3.099L10.303,9.5
		c-0.069,0.069-0.082,0.152-0.082,0.248c0,0.372-0.014,0.758-0.014,1.13c0,0.62,0,2.094,0.248,2.631
		c0.083,0.179,0.262,0.262,0.455,0.289C10.909,13.813,10.923,13.84,10.923,13.84z M6.68,10.685c0.042-0.262,0.083-0.51,0.138-0.758
		C6.707,10.175,6.68,10.423,6.68,10.685z M7.038,10.106c-0.056,0.151-0.11,0.303-0.11,0.468c0,0.042,0.014,0.069,0.014,0.11
		l0.124-0.592L7.038,10.106z M7.093,9.997c-0.014,0-0.042,0.013-0.042,0.041c0,0,0.014,0.028,0.014,0.042
		C7.079,10.051,7.093,10.024,7.093,9.997z M7.479,9.611c-0.207,0.413-0.344,0.771-0.344,1.24c0,0.137,0.013,0.275,0.041,0.413
		c0.056-0.578,0.069-1.157,0.372-1.68L7.479,9.611z M7.396,10.41H7.41v-0.028H7.396V10.41z M9.187,9.473H9.159
		C8.939,9.308,8.76,8.977,8.457,8.977c-0.069,0-0.096,0.014-0.152,0.055C7.74,9.5,7.492,10.313,7.492,11.03
		c0,0.275,0.027,0.827,0.22,1.033c0.096-0.082,0.179-0.151,0.262-0.248c0.165-0.206,1.212-1.681,1.212-1.818V9.473z M7.548,9.542
		H7.534c0,0.014,0,0.014,0.014,0.027V9.542z M9.972,9.046H9.958v0.082h0.014V9.046z M9.986,8.825L10,8.811H9.986V8.825z
		 M10.013,8.674h0.014V8.66L10.013,8.674z M10.248,6.07V6.043c0,0.014-0.014,0.014-0.014,0.027H10.248z M10.758,8.206
		c0.468-0.606,1.267-1.777,1.267-2.548c0-0.22,0-0.441-0.151-0.62c-0.206,0.027-0.33,0.151-0.454,0.317
		c-0.717,0.965-0.882,2.204-1.089,3.361C10.399,8.715,10.702,8.274,10.758,8.206z M12.108,5.85H12.08l0.027,0.096
		c-0.083,0-0.069,0.056-0.083,0.11c-0.068,0.317-0.22,0.62-0.372,0.909c-0.344,0.689-0.771,1.337-1.308,1.901v0.055
		c0.523-0.579,1.763-2.287,1.763-3.031V5.85z M10.385,6.911l-0.013,0.013c0,0.014,0,0.014,0.013,0.014V6.911z M10.606,6.318
		c-0.041,0.055-0.068,0.11-0.096,0.179C10.592,6.456,10.578,6.387,10.606,6.318z M10.606,5.478
		c-0.013,0.014-0.041,0.042-0.041,0.069L10.606,5.478z M10.744,8.633l-0.179,0.275c0.055-0.055,0.234-0.234,0.248-0.289
		C10.785,8.633,10.771,8.633,10.744,8.633z M10.592,9.073v0.027c0-0.013,0-0.013,0.013-0.027H10.592z M10.606,6.318
		c0.014-0.042,0.042-0.069,0.056-0.096c0.206-0.386,0.385-0.758,0.702-1.089c-0.289,0.11-0.647,0.854-0.758,1.144V6.318z
		 M10.606,5.478c0.096-0.096,0.193-0.22,0.262-0.33C10.771,5.244,10.675,5.354,10.606,5.478z M10.895,8.536l-0.041-0.013
		L10.813,8.55v0.068c0.013-0.027,0.027-0.055,0.055-0.068C10.882,8.55,10.882,8.536,10.895,8.536z M10.868,5.147l0.11-0.096H10.95
		L10.868,5.147z M10.882,8.647l0.11-0.069c-0.013-0.027,0-0.042,0-0.069L10.882,8.647z M11.047,8.288l-0.027-0.014
		c-0.027,0.042-0.041,0.083-0.082,0.125v0.068c0.027-0.055,0.096-0.165,0.165-0.165C11.088,8.288,11.061,8.288,11.047,8.288z
		 M10.992,8.619l0.014-0.041h-0.014V8.619z M11.102,8.219l0.041-0.027c0.138-0.248,0.303-0.468,0.482-0.689
		c-0.124,0.33-0.386,0.634-0.579,0.937c0.138-0.096,0.179-0.303,0.331-0.399l0.013,0.055l0.014-0.055
		c0.042-0.027,0.055-0.082,0.096-0.124l0.027-0.055c0.014-0.028,0.027-0.056,0.055-0.083l0.028-0.069l0.027-0.055h-0.027
		l0.096-0.151l0.014,0.069c0-0.069,0.042-0.124,0.069-0.193l0.027-0.055l0.069-0.083c0-0.082,0.11-0.193,0.11-0.275l0.042-0.055
		l0.042-0.138c0.096-0.096,0.234-0.647,0.234-0.799c0-0.055-0.042-0.11-0.069-0.151l-0.041,0.014
		c-0.11,0.344-0.193,0.703-0.344,1.033c-0.11,0.234-0.358,0.744-0.51,0.937l-0.069,0.083c-0.027,0.069-0.165,0.234-0.165,0.275
		l-0.041,0.027v0.027c0,0.014,0.013,0.069,0.027,0.083V8.219z"/>
	<path class="st0" d="M14.686,5.161l0.124,0.11c0.592,0.11,0.799,1.143,0.799,1.639c0,1.57-1.308,4.036-2.397,5.138
		c-0.193,0.192-0.413,0.248-0.675,0.248c-0.345,0-0.717-0.234-0.91-0.51c-0.124-0.179-0.137-0.344-0.137-0.551
		c0-0.937,0.151-1.873,0.151-2.81c0-0.234-0.027-0.441-0.096-0.661c0.042-0.028,0.082-0.042,0.124-0.042
		c0.234,0,0.592,0.289,0.703,0.496c0.124,0.248,0.124,0.675,0.124,0.951c0,0.579-0.069,1.171-0.069,1.749
		c0,0.069,0,0.125,0.027,0.193c1.089-1.239,2.218-3.168,2.218-4.863c0-0.358-0.014-0.717-0.014-1.075L14.686,5.161z M13.212,11.525
		l0.042-0.027v-0.013L13.212,11.525z M13.777,10.699c-0.151,0.234-0.372,0.469-0.468,0.744c0.703-0.909,1.281-1.874,1.681-2.948
		c0.068-0.179,0.096-0.234,0.096-0.427C14.741,8.991,14.314,9.873,13.777,10.699z M13.363,10.41
		c0.441-0.524,0.758-1.158,0.992-1.791C14.149,9.059,13.639,10.051,13.363,10.41z M13.763,10.258c0.11-0.027,0.11-0.137,0.165-0.22
		c0.056-0.082,0.124-0.151,0.165-0.248c0.138-0.275,0.275-0.551,0.399-0.826C14.259,9.39,14.066,9.859,13.763,10.258z
		 M14.245,10.382l-0.013-0.013v0.013H14.245z M14.425,8.481L14.41,8.495h0.014V8.481z M14.452,8.412V8.399h-0.014v0.013H14.452z
		 M14.452,10.01c-0.014,0-0.014,0-0.014,0.014h0.014V10.01z M14.465,9.955l0.014,0.014V9.955H14.465z M14.658,9.625h-0.013
		c0,0.013,0,0.013,0.013,0.013V9.625z M15.154,7.93h-0.027c0,0.028,0,0.042-0.013,0.069L15.154,7.93z"/>
	<path class="st0" d="M19.648,10.616c-0.303,0.716-0.978,1.942-1.584,2.425c-0.303-0.11-0.523-0.138-0.523-0.523
		c0-0.744,0.165-1.474,0.317-2.204l-0.468,0.482c-0.289,0.303-0.689,0.882-1.171,0.882c-0.344,0-0.854-0.317-0.854-0.702
		c0-0.813,0.868-2.287,1.529-2.755c0.276-0.193,0.62-0.386,0.965-0.386s0.634,0.193,0.882,0.427c0.027,0.027,0.055,0.069,0.055,0.11
		c0,0.028-0.014,0.056-0.027,0.083l-0.399-0.11c-0.992,0.344-1.488,1.46-1.887,2.356l0.027,0.028l0.22-0.165l1.322-1.185
		c0.248-0.22,0.289-0.509,0.606-0.633L18.67,8.88l-0.042,0.014c-0.027,0.055,0,0.041-0.055,0.096l0.042-0.014l0.013-0.069
		L18.67,8.88c0.014-0.027,0.042-0.055,0.082-0.055c0.027,0,0.056,0.027,0.069,0.042l-0.013,0.096l0.055-0.028V8.922l0.069,0.027
		c-0.11,0.344-0.234,0.675-0.358,1.006L18.56,9.969c0.013,0,0.013,0,0.013-0.014c0.014-0.014,0.042-0.027,0.042-0.055
		c0.137-0.303,0.248-0.62,0.399-0.909c0.069,0.013,0.124,0.055,0.124,0.124c0,0.096-0.042,0.193-0.069,0.275
		c-0.179,0.496-0.785,2.204-0.785,2.645c0.179-0.11,0.317-0.303,0.455-0.455h0.027c-0.179,0.262-0.427,0.482-0.551,0.772h-0.013
		v0.014c0.013,0,0.013,0,0.013-0.014c0.248-0.248,0.469-0.551,0.689-0.827c0.055-0.069,0.11-0.179,0.179-0.248l0.069-0.069
		c-0.289,0.496-0.744,0.951-0.992,1.46l0.441-0.51l-0.124,0.234l0.096-0.069l0.014,0.055c0.013-0.069,0.082-0.151,0.124-0.22h0.013
		v-0.014l-0.013,0.014h-0.027c0.041-0.11,0.055-0.179,0.151-0.248v0.055l0.027-0.055l0.042-0.027l0.027-0.055
		c0.027-0.11,0.137-0.193,0.179-0.303c0.027-0.069,0.082-0.137,0.124-0.206H19.22l0.028-0.056h-0.014l0.082-0.151l0.014,0.056
		c0.014-0.069,0.055-0.124,0.082-0.179H19.4l0.042-0.027c0.027-0.042,0.041-0.082,0.055-0.124v0.014
		C19.537,10.768,19.593,10.699,19.648,10.616z M15.818,10.175c0,0.014-0.014,0.027-0.014,0.042h0.014V10.175z M15.901,10.01
		c0.179-0.303,0.344-0.634,0.537-0.923c0.042-0.056,0.165-0.207,0.165-0.276l-0.028,0.056c-0.192,0.192-0.62,0.937-0.716,1.199
		c-0.013,0.013-0.027,0.041-0.027,0.068l0.027-0.068C15.873,10.051,15.901,10.037,15.901,10.01z M16.039,10.286l0.041-0.096
		c-0.027,0.013-0.027,0.068-0.055,0.096H16.039z M16.066,10.933c-0.014,0.014-0.014,0.042-0.014,0.055h0.014V10.933z M17.209,8.839
		c-0.358,0.22-0.882,1.198-1.019,1.598c-0.056,0.151-0.083,0.317-0.124,0.468c0.027-0.027,0.041-0.055,0.055-0.096
		C16.383,10.12,16.741,9.404,17.209,8.839z M16.121,10.066c0.138-0.262,0.303-0.496,0.454-0.744V9.294
		C16.396,9.542,16.245,9.776,16.121,10.066z M16.644,8.771l0.042-0.027h-0.014L16.644,8.771z M16.713,9.101h0.027V9.087
		C16.727,9.101,16.727,9.101,16.713,9.101z M16.782,9.004h0.014V8.991C16.782,8.991,16.782,8.991,16.782,9.004z M18.16,11.456h0.014
		v-0.027H18.16V11.456z M18.215,12.751c-0.013,0-0.027,0.014-0.027,0.027L18.215,12.751z M18.215,11.181l0.014,0.027v-0.041
		L18.215,11.181z M18.325,12.614l-0.096,0.124C18.27,12.696,18.325,12.682,18.325,12.614z M18.284,10.947h0.014v-0.069
		C18.284,10.906,18.284,10.919,18.284,10.947z M18.298,10.823l0.027-0.055h-0.014L18.298,10.823z M18.325,10.754
		c0.069-0.083,0.082-0.179,0.096-0.276C18.38,10.575,18.353,10.658,18.325,10.754z M18.353,12.655c-0.014,0-0.014,0.014-0.027,0.014
		C18.339,12.669,18.353,12.669,18.353,12.655z M18.408,12.558c0-0.027,0.014-0.055,0.014-0.082L18.339,12.6L18.408,12.558z
		 M18.408,9.28l0.11-0.207C18.477,9.115,18.422,9.211,18.408,9.28z M18.435,12.531l-0.013,0.014
		C18.435,12.545,18.435,12.545,18.435,12.531z M18.449,10.368c-0.014,0.013-0.014,0.027-0.014,0.042L18.449,10.368z M18.491,12.518
		c-0.014,0-0.014,0.013-0.027,0.013h0.027V12.518z M18.491,10.23c-0.014,0.014-0.014,0.042-0.014,0.069l0.014-0.027V10.23z
		 M18.587,12.394h-0.014l-0.042,0.027h0.014L18.587,12.394z M18.628,9.252c0,0,0.014,0.028,0.014,0.042l0.055-0.11
		C18.656,9.197,18.628,9.211,18.628,9.252z M18.697,9.17c0.014-0.027,0.014-0.042,0.014-0.069
		C18.697,9.128,18.697,9.142,18.697,9.17z M18.835,11.98c-0.014,0.013-0.014,0.041-0.014,0.055
		C18.835,12.021,18.835,11.994,18.835,11.98z"/>
	<path class="st0" d="M19.636,11.856c0-0.744,0.482-2.384,0.703-3.141c0.11-0.344,0.234-0.757,0.234-1.13
		c0-0.068-0.027-0.137-0.041-0.206c0.027-0.069,0.082-0.069,0.137-0.069c0.027,0,0.165,0.069,0.193,0.082
		c0.331,0.165,0.565,0.524,0.565,0.91c0,0.799-0.537,2.493-0.813,3.292l0.027,0.014c0.772-1.061,1.501-2.136,2.356-3.127
		c0.331-0.386,0.661-0.772,1.006-1.144c0.11-0.11,0.207-0.22,0.358-0.261c0.262,0.041,0.771,0.316,0.771,0.633
		c0,0.179-0.22,0.744-0.289,0.937c-0.372,0.964-1.364,3.76-1.364,4.684c0,0.137,0.042,0.262,0.165,0.33
		c0,0.083-0.056,0.138-0.138,0.138c-0.785,0-0.937-0.661-0.937-1.308c0-0.868,0.427-2.053,0.689-2.893
		c0.124-0.413,0.303-0.799,0.455-1.198c-0.042,0.027-0.083,0.041-0.125,0.082c-0.606,0.62-1.116,1.377-1.57,2.108
		c-0.289,0.468-0.992,1.653-1.35,1.97c-0.082,0.069-0.124,0.083-0.22,0.083C20.049,12.641,19.636,12.27,19.636,11.856z
		 M20.903,11.953c-0.014,0.013-0.027,0.027-0.027,0.055L20.903,11.953z M21.124,11.168c0.082-0.096,0.137-0.193,0.206-0.289
		C21.248,10.961,21.179,11.071,21.124,11.168z M21.275,11.456c0.013-0.041,0.042-0.068,0.055-0.096
		c-0.042,0.042-0.096,0.11-0.11,0.165L21.275,11.456z M21.289,11.277c0.014,0,0.014,0,0.014-0.014L21.289,11.277z M21.454,10.713
		c0.027-0.082,0.083-0.11,0.138-0.179c0.11-0.124,0.179-0.276,0.275-0.413c0.62-0.923,1.419-1.708,2.122-2.576l0.041-0.056
		l-0.027-0.027c-0.702,0.744-1.377,1.515-1.97,2.356c-0.22,0.317-0.468,0.62-0.634,0.965L21.454,10.713z M21.427,11.099v-0.014
		l-0.013,0.014H21.427z M21.689,10.823c-0.096,0.11-0.179,0.221-0.234,0.345C21.537,11.057,21.62,10.947,21.689,10.823z
		 M21.661,10.671H21.62c0,0.014-0.014,0.042-0.027,0.056h0.069l0.013-0.042L21.661,10.671z M21.689,10.809
		c0.069-0.082,0.137-0.179,0.179-0.289C21.813,10.616,21.73,10.699,21.689,10.809z M21.716,10.547v0.042
		c0,0.014,0,0.027,0.013,0.042c0.014-0.014,0.014-0.042,0.014-0.056h0.055c-0.013-0.013-0.041-0.013-0.055-0.013L21.716,10.547z
		 M21.716,10.906v0.027l0.013-0.014L21.716,10.906z M21.771,10.465v0.027c0,0,0.027,0.069,0.027,0.082v-0.082
		c0.014,0,0.027,0,0.042-0.014c-0.014,0-0.042-0.013-0.042-0.013H21.771z M21.84,10.368v0.042c0,0.013,0,0.041,0.014,0.055
		c0-0.042,0.013-0.069,0.055-0.069c-0.014-0.014-0.027-0.014-0.042-0.014L21.84,10.368z M21.895,10.286v0.027
		c0.014,0.027,0.014,0.055,0.014,0.082c0.013-0.027,0.013-0.055,0.013-0.082l0.028-0.014c-0.014,0-0.042-0.013-0.042-0.013H21.895z
		 M21.964,10.41l0.014-0.056l-0.042,0.083L21.964,10.41z M22.611,9.542l0.056-0.082h0.027l0.069-0.069
		c0.013-0.042,0.137-0.206,0.179-0.234c0.027-0.082,0.358-0.482,0.441-0.523l-0.027-0.014V8.564
		c-0.151,0.165-0.275,0.344-0.455,0.468c0.069-0.165,0.744-0.895,0.896-1.088c-0.689,0.689-1.295,1.446-1.846,2.246v0.041
		l0.013,0.056c0.124-0.193,0.22-0.317,0.372-0.496c-0.013,0.056-0.027,0.096-0.055,0.138l0.096-0.055h0.027
		c0.055-0.069,0.11-0.138,0.138-0.22l0.041-0.027c0.014-0.028,0.027-0.056,0.056-0.069L22.611,9.542z M22.074,10.23
		c0.027-0.027,0.055-0.041,0.082-0.055v-0.013c0.013-0.014,0.027-0.069,0.027-0.096L22.074,10.23z M22.17,10.175v0.027
		c0.014-0.013,0.014-0.027,0.014-0.041L22.17,10.175z M23.273,12.435h0.013v-0.041h-0.013V12.435z M23.286,12.297l0.042,0.013
		c0.027-0.124,0.041-0.234,0.055-0.358L23.286,12.297z M24.829,7.723c-0.579,1.157-1.13,2.934-1.446,4.202
		c0.027-0.028,0.042-0.056,0.055-0.083c0.234-0.62,0.372-1.281,0.592-1.901c0.262-0.744,0.579-1.46,0.841-2.204L24.829,7.723z
		 M23.658,8.316c0.027-0.069,0.11-0.096,0.11-0.179L23.92,7.93l-0.537,0.593c0.042-0.028,0.069-0.056,0.124-0.056
		C23.562,8.412,23.589,8.357,23.658,8.316z M23.727,9.101l0.014-0.013h-0.014V9.101z M23.824,8.839c0,0.013-0.014,0.013-0.014,0.027
		h0.014V8.839z M23.879,8.66l-0.041,0.096l0.041,0.014V8.66z M23.92,8.633c0.124-0.275,0.275-0.551,0.413-0.827V7.737
		c-0.179,0.289-0.317,0.606-0.455,0.923L23.92,8.633z M24.292,8.44c0.069-0.151,0.151-0.303,0.207-0.454
		C24.403,8.123,24.347,8.274,24.292,8.44z M24.595,7.765l-0.014-0.014v0.055L24.595,7.765z"/>
	<path class="st0" d="M29.447,6.098c-0.317,0.385-1.543,0.496-2.039,0.578c-0.496,1.612-0.785,3.279-1.061,4.946
		c-0.138,0.882-0.248,1.791-0.248,2.686c0,0.358,0.056,0.73,0.138,1.075c0.014,0.041,0.014,0.069,0.014,0.11
		c0,0.124-0.179,0.165-0.276,0.165c-0.041,0-0.055-0.042-0.068-0.069l-0.083,0.124c-0.165-0.082-0.344-0.124-0.51-0.206
		c-0.509-0.262-0.509-1.199-0.509-1.681c0-1.446,0.193-2.92,0.413-4.353c0.056-0.33,0.083-0.675,0.152-1.006
		c0.069-0.385,0.165-0.771,0.22-1.157c0.013-0.096,0.055-0.179,0.055-0.275c0-0.069-0.124-0.069-0.165-0.069
		c-0.137,0-0.289,0.014-0.427,0.014l0.013-0.014c-0.137-0.042-0.317-0.179-0.413-0.303l0.014-0.083l-0.124-0.069
		c0.027-0.137,0.055-0.179,0.193-0.22c0.303-0.082,0.62-0.11,0.923-0.179c0.303-0.399,0.579-0.813,0.772-1.281
		c0.151-0.358,0.372-0.703,0.565-1.033c0.055-0.096,0.11-0.179,0.234-0.179l0.165,0.083l-0.096,0.22
		c0.083-0.083,0.138-0.165,0.207-0.248l0.055,0.082l0.11-0.014l-0.069,0.193l0.11-0.096l0.151,0.056v0.137l0.11-0.027
		c0.082,0.069,0.22,0.138,0.22,0.262c0,0.055-0.496,1.474-0.496,1.474c0.096-0.014,0.206,0,0.303-0.027
		c0.234-0.055,0.468-0.055,0.716-0.055c0.289,0,0.358,0.055,0.537,0.289C29.254,6.057,29.365,6.084,29.447,6.098z M25.191,12.394
		h-0.013v0.179h0.013V12.394z M25.246,11.815h-0.014v0.165h0.014V11.815z M25.439,10.451l-0.042-0.013L25.26,11.58h0.027
		C25.329,11.209,25.383,10.823,25.439,10.451z M26.1,6.897c-0.192,0.303-0.647,2.92-0.647,3.361v0.069
		C25.645,9.184,25.811,8.026,26.1,6.897z M25.48,12.972v-0.137h-0.013v0.137H25.48z M25.48,12.627h0.014V12.6H25.48V12.627z
		 M25.535,12.077h-0.013l-0.014,0.261h0.014L25.535,12.077z M25.576,11.746h-0.013c0,0.069-0.014,0.124-0.014,0.193h0.027V11.746z
		 M25.604,11.512v0.068c0.124-0.799,0.234-1.598,0.386-2.383c0.151-0.799,0.331-1.584,0.496-2.383
		C26.238,7.131,25.604,10.947,25.604,11.512z M26.926,6.759l-0.124,0.013c-0.344,1.13-0.551,2.315-0.744,3.472
		c-0.179,1.185-0.372,2.397-0.372,3.596c0,0.206,0,0.427,0.027,0.634C25.824,11.87,26.265,9.28,26.926,6.759z M25.893,6.043V6.07
		l0.055-0.082C25.921,5.988,25.893,6.015,25.893,6.043z M25.976,13.082h-0.013v0.041h0.013V13.082z M26.017,12.71v-0.069
		c-0.013,0.013-0.013,0.041-0.013,0.069H26.017z M26.072,12.256v-0.042h-0.013v0.042H26.072z M26.114,11.884H26.1v0.055h0.014
		V11.884z M26.155,11.594h-0.014v0.055L26.155,11.594z M26.196,11.388c-0.013-0.014-0.013-0.042-0.013-0.056h-0.014
		c0,0.014,0,0.042,0.014,0.056H26.196z M26.224,11.057H26.21v0.096h0.014V11.057z M26.265,10.823h-0.013v0.056h0.013V10.823z
		 M26.279,8.385v0.042h0.013V8.385H26.279z M26.307,10.658v-0.11h-0.014v0.11H26.307z M26.321,8.206c0,0.027,0,0.041-0.014,0.068
		h0.014l0.013-0.068H26.321z M26.348,10.423v-0.082h-0.027v0.082H26.348z M26.348,8.095h0.013V8.068L26.348,8.095z M26.389,10.203
		c0-0.027,0-0.041-0.013-0.069h-0.014v0.069H26.389z M26.389,7.889V7.93h0.014V7.889H26.389z M26.417,9.969V9.914h-0.013v0.056
		H26.417z M26.458,9.804V9.707h-0.013l-0.014,0.096H26.458z M26.472,7.585l-0.027,0.042h0.027V7.585z M26.458,5.767l0.014-0.013
		C26.458,5.754,26.458,5.754,26.458,5.767z M26.5,9.597c0-0.027,0-0.055-0.014-0.082h-0.013v0.082H26.5z M26.486,7.461L26.5,7.476
		l0.027-0.055L26.486,7.461z M26.527,9.308h-0.014v0.11h0.014V9.308z M26.569,9.225V9.128h-0.014l-0.014,0.083
		C26.555,9.225,26.555,9.225,26.569,9.225z M26.555,7.255l0.027-0.069l-0.027-0.014V7.255z M26.596,8.949h-0.014v0.096h0.014V8.949z
		 M26.596,7.048v0.028c0.013-0.014,0.013-0.014,0.013-0.028H26.596z M26.637,8.853V8.771h-0.013v0.082H26.637z M26.678,8.605
		l-0.027,0.069l0.027,0.013V8.605z M26.733,8.44c-0.027,0-0.055,0.027-0.055,0.055c0,0.028,0.014,0.042,0.014,0.069L26.733,8.44z
		 M26.72,8.357c0,0.027,0.013,0.042,0.013,0.069l0.042-0.138C26.747,8.302,26.72,8.316,26.72,8.357z M26.761,5.905
		c0.11-0.11,0.124-0.262,0.151-0.4C26.802,5.616,26.789,5.767,26.761,5.905z M26.775,8.274c0-0.041,0.014-0.082,0.014-0.124h-0.027
		C26.761,8.192,26.761,8.233,26.775,8.274z M26.816,8.068V7.999c-0.014,0.027-0.027,0.042-0.027,0.069H26.816z M26.83,7.916
		c-0.013,0.013-0.013,0.027-0.013,0.042l0.013-0.014V7.916z M26.857,7.82l0.014-0.042C26.857,7.792,26.857,7.806,26.857,7.82z
		 M26.899,7.654l-0.013,0.014c0,0.041-0.014,0.068-0.014,0.11l0.027-0.11V7.654z M26.968,7.434c-0.069,0.055-0.069,0.138-0.069,0.22
		C26.926,7.585,26.954,7.503,26.968,7.434z M26.926,5.478c-0.013,0.014-0.013,0.014-0.013,0.027
		C26.913,5.492,26.926,5.492,26.926,5.478z M27.037,7.186c-0.042,0.042-0.069,0.096-0.069,0.151c0,0.027,0,0.055,0.013,0.083
		C26.995,7.338,27.009,7.269,27.037,7.186z M26.968,7.434h0.013V7.421L26.968,7.434z M26.995,4.486
		c0.014-0.014,0.014-0.014,0.014-0.027C27.009,4.472,26.995,4.472,26.995,4.486z M27.037,4.362l-0.027,0.069
		C27.023,4.417,27.037,4.39,27.037,4.362z M27.064,4.307l-0.027,0.056C27.05,4.348,27.064,4.321,27.064,4.307z M27.037,7.131
		l0.041-0.096V6.98C27.05,7.035,27.05,7.076,27.037,7.131z M27.147,6.787V6.731l-0.055,0.152
		C27.133,6.869,27.147,6.828,27.147,6.787z M27.643,4.651c-0.042,0.069-0.096,0.125-0.138,0.179
		c-0.069,0.124-0.386,0.909-0.386,1.019h0.027c0.069,0,0.096-0.055,0.11-0.11C27.395,5.381,27.505,5.023,27.643,4.651z
		 M27.202,4.114c-0.014,0.013-0.028,0.041-0.028,0.055C27.188,4.155,27.202,4.128,27.202,4.114z M27.188,4.776l0.042-0.028h-0.042
		V4.776z M27.271,3.962c-0.027,0.056-0.055,0.096-0.068,0.152l0.068-0.124V3.962z"/>
	<path class="st0" d="M31.543,10.616c-0.303,0.716-0.978,1.942-1.584,2.425c-0.303-0.11-0.523-0.138-0.523-0.523
		c0-0.744,0.165-1.474,0.317-2.204l-0.468,0.482c-0.289,0.303-0.689,0.882-1.171,0.882c-0.344,0-0.854-0.317-0.854-0.702
		c0-0.813,0.868-2.287,1.529-2.755c0.276-0.193,0.62-0.386,0.965-0.386s0.634,0.193,0.882,0.427c0.027,0.027,0.055,0.069,0.055,0.11
		c0,0.028-0.013,0.056-0.027,0.083l-0.399-0.11c-0.992,0.344-1.488,1.46-1.887,2.356l0.027,0.028l0.22-0.165l1.322-1.185
		c0.248-0.22,0.289-0.509,0.606-0.633l0.014,0.137l-0.042,0.014c-0.027,0.055,0,0.041-0.055,0.096l0.042-0.014l0.013-0.069
		l0.042-0.027c0.014-0.027,0.042-0.055,0.082-0.055c0.028,0,0.056,0.027,0.069,0.042l-0.013,0.096l0.055-0.028V8.922l0.069,0.027
		c-0.11,0.344-0.234,0.675-0.358,1.006l-0.014,0.014c0.014,0,0.014,0,0.014-0.014C30.482,9.941,30.51,9.928,30.51,9.9
		c0.137-0.303,0.248-0.62,0.399-0.909c0.069,0.013,0.124,0.055,0.124,0.124c0,0.096-0.042,0.193-0.069,0.275
		c-0.179,0.496-0.785,2.204-0.785,2.645c0.179-0.11,0.317-0.303,0.455-0.455h0.027c-0.179,0.262-0.427,0.482-0.551,0.772h-0.013
		v0.014c0.013,0,0.013,0,0.013-0.014c0.248-0.248,0.469-0.551,0.689-0.827c0.055-0.069,0.11-0.179,0.179-0.248l0.069-0.069
		c-0.289,0.496-0.744,0.951-0.992,1.46l0.441-0.51l-0.124,0.234l0.096-0.069l0.014,0.055c0.013-0.069,0.082-0.151,0.124-0.22h0.013
		v-0.014l-0.013,0.014h-0.027c0.041-0.11,0.055-0.179,0.151-0.248v0.055l0.027-0.055l0.042-0.027l0.027-0.055
		c0.027-0.11,0.137-0.193,0.179-0.303c0.027-0.069,0.082-0.137,0.124-0.206h-0.013l0.027-0.056h-0.014l0.082-0.151l0.014,0.056
		c0.014-0.069,0.055-0.124,0.082-0.179h-0.013l0.041-0.027c0.028-0.042,0.042-0.082,0.056-0.124v0.014
		C31.432,10.768,31.488,10.699,31.543,10.616z M27.713,10.175c0,0.014-0.014,0.027-0.014,0.042h0.014V10.175z M27.796,10.01
		c0.179-0.303,0.344-0.634,0.537-0.923c0.042-0.056,0.165-0.207,0.165-0.276l-0.027,0.056c-0.193,0.192-0.62,0.937-0.717,1.199
		c-0.013,0.013-0.027,0.041-0.027,0.068l0.027-0.068C27.768,10.051,27.796,10.037,27.796,10.01z M27.934,10.286l0.041-0.096
		c-0.027,0.013-0.027,0.068-0.055,0.096H27.934z M27.961,10.933c-0.014,0.014-0.014,0.042-0.014,0.055h0.014V10.933z M29.104,8.839
		c-0.358,0.22-0.882,1.198-1.019,1.598c-0.055,0.151-0.083,0.317-0.124,0.468c0.027-0.027,0.041-0.055,0.055-0.096
		C28.278,10.12,28.636,9.404,29.104,8.839z M28.016,10.066c0.138-0.262,0.303-0.496,0.455-0.744V9.294
		C28.291,9.542,28.14,9.776,28.016,10.066z M28.539,8.771l0.042-0.027h-0.014L28.539,8.771z M28.608,9.101h0.027V9.087
		C28.622,9.101,28.622,9.101,28.608,9.101z M28.677,9.004h0.013V8.991C28.677,8.991,28.677,8.991,28.677,9.004z M30.055,11.456
		h0.014v-0.027h-0.014V11.456z M30.11,12.751c-0.013,0-0.027,0.014-0.027,0.027L30.11,12.751z M30.11,11.181l0.014,0.027v-0.041
		L30.11,11.181z M30.22,12.614l-0.096,0.124C30.165,12.696,30.22,12.682,30.22,12.614z M30.179,10.947h0.014v-0.069
		C30.179,10.906,30.179,10.919,30.179,10.947z M30.193,10.823l0.027-0.055h-0.014L30.193,10.823z M30.22,10.754
		c0.069-0.083,0.082-0.179,0.096-0.276C30.275,10.575,30.248,10.658,30.22,10.754z M30.248,12.655c-0.013,0-0.013,0.014-0.027,0.014
		C30.234,12.669,30.248,12.669,30.248,12.655z M30.303,12.558c0-0.027,0.014-0.055,0.014-0.082L30.234,12.6L30.303,12.558z
		 M30.303,9.28l0.11-0.207C30.372,9.115,30.317,9.211,30.303,9.28z M30.33,12.531l-0.013,0.014
		C30.33,12.545,30.33,12.545,30.33,12.531z M30.344,10.368c-0.014,0.013-0.014,0.027-0.014,0.042L30.344,10.368z M30.386,12.518
		c-0.014,0-0.014,0.013-0.027,0.013h0.027V12.518z M30.386,10.23c-0.014,0.014-0.014,0.042-0.014,0.069l0.014-0.027V10.23z
		 M30.482,12.394h-0.014l-0.042,0.027h0.014L30.482,12.394z M30.523,9.252c0,0,0.014,0.028,0.014,0.042l0.055-0.11
		C30.551,9.197,30.523,9.211,30.523,9.252z M30.592,9.17c0.014-0.027,0.014-0.042,0.014-0.069
		C30.592,9.128,30.592,9.142,30.592,9.17z M30.73,11.98c-0.014,0.013-0.014,0.041-0.014,0.055
		C30.73,12.021,30.73,11.994,30.73,11.98z"/>
	<path class="st0" d="M32.908,12.063c-0.675,0-1.253-0.578-1.253-1.253c0-1.213,1.033-2.865,2.356-2.865
		c0.579,0,1.13,0.317,1.46,0.799c0.027,0.041,0.055,0.082,0.055,0.124c0,0.055-0.027,0.11-0.042,0.165
		c-0.165-0.11-0.551-0.385-0.744-0.385c-1.226,0-2.163,1.653-2.163,2.755c0,0.042,0.013,0.069,0.013,0.11h0.069
		c0.11,0,0.193-0.056,0.289-0.11c0.399-0.248,0.716-0.579,0.964-0.978c0.165-0.248,0.317-0.592,0.551-0.785l0.537,0.317
		c0.124,0.069,0.193,0.193,0.193,0.331c0,1.088-0.096,2.19-0.413,3.223c-0.413,1.35-0.951,2.631-1.943,3.665
		c-0.385,0.399-0.992,0.868-1.584,0.868c-0.455,0-1.061-0.33-1.061-0.84c0-1.13,1.351-3.182,2.136-3.981
		c0.399-0.413,0.813-0.758,1.336-1.019l0.055,0.11c0.124,0.027,0.248,0.11,0.289,0.234c0.22-0.344,0.303-1.047,0.331-1.46
		C33.901,11.443,33.542,12.063,32.908,12.063z M30.718,16.085l0.468-0.937c-0.069,0.055-0.51,0.978-0.551,1.116
		C30.677,16.209,30.718,16.154,30.718,16.085z M30.801,17.091h0.027v-0.068L30.801,17.091z M31.93,14.708
		c-0.275,0.496-0.578,0.992-0.826,1.501c-0.124,0.248-0.179,0.524-0.276,0.785c0.165-0.206,0.207-0.468,0.303-0.702
		c0.179-0.427,0.413-0.827,0.647-1.226c0.083-0.138,0.165-0.276,0.234-0.427L31.93,14.708z M31.049,17.339h0.042l0.096-0.042
		c1.446-0.799,2.342-2.92,2.824-4.436C33.06,13.523,31.063,16.168,31.049,17.339z M31.145,15.741c-0.013,0-0.027,0.014-0.027,0.027
		L31.145,15.741z M32.11,13.771c0.013,0,0.013,0,0.013-0.014L32.11,13.771z M32.606,8.991c-0.11,0.124-0.234,0.275-0.317,0.427
		C32.358,9.376,32.564,9.073,32.606,8.991z M32.44,10.354l0.027,0.014c0-0.014,0-0.042,0.014-0.055L32.44,10.354z M32.729,9.79
		c0.151-0.289,0.372-0.565,0.592-0.785c-0.042,0-0.069,0.014-0.096,0.042c-0.344,0.289-0.62,0.703-0.716,1.144
		C32.606,10.051,32.66,9.928,32.729,9.79z M32.564,13.881c0.014,0,0.014,0,0.014-0.013L32.564,13.881z M32.908,8.715h-0.013
		l-0.027,0.042L32.908,8.715z M32.895,9.073l-0.014-0.014v0.042L32.895,9.073z M34.424,13.633c-0.275,0.813-0.634,1.598-1.075,2.342
		c-0.124,0.206-0.275,0.413-0.372,0.634c0.565-0.648,1.02-1.57,1.295-2.384c0.082-0.234,0.124-0.468,0.206-0.702
		C34.451,13.551,34.438,13.592,34.424,13.633z M32.977,15.768c0.22-0.275,0.386-0.661,0.523-0.978
		C33.322,15.107,33.143,15.438,32.977,15.768z M33.046,16.113v-0.027c-0.014,0-0.014,0.014-0.014,0.027H33.046z M33.198,15.865
		c0.014,0,0.042-0.013,0.055-0.027L33.198,15.865z M33.542,14.722c0-0.014,0-0.042,0.014-0.056c-0.027,0.028-0.042,0.069-0.056,0.11
		L33.542,14.722z M33.721,10.947c0.138-0.179,0.289-0.358,0.427-0.551L33.721,10.947z M33.735,11.415v0.013
		c0.014,0,0.042,0,0.055-0.013H33.735z M33.79,11.415l0.165-0.234c-0.069,0.055-0.165,0.11-0.165,0.207V11.415z M33.955,13.744
		c-0.014,0.027-0.027,0.055-0.027,0.082L33.955,13.744z M34.01,13.551l0.014-0.014H34.01V13.551z M34.038,15.079h0.014v-0.013
		L34.038,15.079z M34.258,10.809c-0.055,0.055-0.11,0.124-0.151,0.193C34.176,10.961,34.231,10.878,34.258,10.809z M34.134,13.192
		h-0.013v0.014L34.134,13.192z M34.148,11.099l0.027-0.027l-0.042,0.027H34.148z M34.203,10.768H34.19
		c0,0.014-0.014,0.014-0.014,0.027L34.203,10.768z M34.382,9.997l-0.165,0.289c0.055-0.083,0.179-0.22,0.193-0.276L34.382,9.997z
		 M34.341,10.575l-0.014,0.014c0.014,0,0.014,0,0.027-0.014H34.341z M34.52,13.303l-0.027,0.179c0.027-0.055,0.055-0.11,0.069-0.179
		H34.52z M34.562,13.192h0.041v-0.069L34.562,13.192z M34.603,13.11c0.014-0.014,0.014-0.055,0.028-0.069l-0.028-0.014V13.11z"/>
	<path class="st0" d="M36.644,10.74c-0.056,0.11-0.042,0.344-0.042,0.455c0,0.137,0.042,0.661,0.234,0.661
		c0.289,0,0.509-0.193,0.606-0.441l0.014-0.014v0.042c0,0.124-0.11,0.22-0.151,0.33c0.151-0.069,0.179-0.206,0.261-0.33
		c0.014,0.027,0.028,0.055,0.028,0.069c0,0.096-0.083,0.151-0.096,0.234l0.096,0.014l-0.014,0.041l0.027,0.014v-0.014h0.042
		l-0.014-0.027h0.014l0.013-0.055h0.014l0.027-0.055v0.055c0.042-0.042,0.055-0.082,0.055-0.138l0.055-0.068
		c-0.027,0.399-0.399,0.661-0.785,0.661c-0.84,0-1.336-0.579-1.336-1.391c0-0.661,0.275-1.322,0.661-1.86
		c0.303-0.427,0.73-0.661,1.253-0.661c0.124,0,0.248,0.027,0.372,0.055l-0.275-0.51l0.11-0.027c0.551,0.179,0.923,0.634,0.923,1.24
		C38.738,10.024,37.553,10.74,36.644,10.74z M36.203,9.666c-0.014,0-0.014,0-0.014,0.014h0.014V9.666z M36.272,9.459l-0.042,0.069
		l0.027,0.013L36.272,9.459z M36.286,9.432l-0.013,0.013h0.013V9.432z M36.506,9.059l0.042-0.013
		C36.534,9.046,36.52,9.046,36.506,9.059l-0.069,0.11L36.41,9.211v0.013c-0.027,0.042-0.069,0.083-0.096,0.138
		c0.069-0.027,0.083-0.082,0.096-0.138l0.027-0.055l0.055-0.042C36.492,9.101,36.506,9.087,36.506,9.059z M36.465,10.093
		c-0.013,0.013-0.013,0.041-0.013,0.069h0.013V10.093z M36.975,9.142c-0.193,0.193-0.454,0.579-0.454,0.868
		C36.617,9.707,36.851,9.445,36.975,9.142z M36.52,9.5v0.014c0-0.014,0-0.014,0-0.027V9.5z M36.575,9.376
		c0.013-0.013,0.013-0.027,0.013-0.055C36.575,9.349,36.575,9.363,36.575,9.376z M36.63,9.294h0.014
		c0.013-0.013,0.027-0.042,0.027-0.055C36.658,9.252,36.644,9.294,36.63,9.294z M36.782,10.189c0.496-0.056,1.226-0.868,1.226-1.364
		V8.771C37.388,8.908,36.892,9.583,36.782,10.189z M36.989,9.128l0.055-0.027V9.087l-0.014,0.013
		C37.002,9.101,37.002,9.115,36.989,9.128z M37.925,9.528c-0.014,0.013-0.014,0.041-0.014,0.055L37.87,9.611l0.041-0.014V9.583
		L37.925,9.528z M38.022,9.376l-0.027,0.056v0.013C38.008,9.418,38.022,9.404,38.022,9.376z M38.063,9.294
		c0.013,0,0.027-0.013,0.027-0.027h-0.027V9.294z M38.118,9.845c0.013-0.014,0.027-0.014,0.027-0.028L38.118,9.845z M38.146,9.528
		h0.014l0.013-0.042L38.146,9.528z M38.201,9.804c-0.013,0-0.027,0-0.041,0.013C38.173,9.817,38.187,9.817,38.201,9.804z
		 M38.201,9.79c0.138-0.137,0.22-0.317,0.276-0.496C38.421,9.39,38.201,9.707,38.201,9.79z"/>
	<path class="st0" d="M42.571,12.063c-0.454-0.317-0.634-1.24-0.634-1.763c0-0.427,0.096-0.895,0.193-1.308
		c0.11-0.482,0.207-0.965,0.331-1.433c0.275-1.047,0.716-2.053,1.047-3.086c-0.193,0.11-1.157,0.634-1.308,0.634
		c-0.165,0-0.344-0.248-0.427-0.372l0.027-0.055l-0.138-0.096c0.055-0.056,0.096-0.11,0.165-0.151
		c0.206-0.11,0.413-0.193,0.62-0.317c0.565-0.317,1.102-0.689,1.625-1.089c0.069-0.055,0.138-0.11,0.234-0.11
		c0.262,0.193,0.565,0.537,0.565,0.882c0,0.137-0.22,0.606-0.275,0.771l-0.427,1.213c-0.192,0.537-0.372,1.074-0.537,1.625
		c0.124,0.042,1.006,0,1.213,0c0.358,0,0.716,0.014,1.075,0.069c0.027-0.055,0.041-0.11,0.055-0.165
		c0.289-1.02,0.937-3.458,1.529-4.229c0.042-0.055,0.082-0.096,0.151-0.096c0.027,0,0.042,0,0.068,0.014l0.083,0.151l0.068-0.013
		c0.042,0.041,0.07,0.096,0.096,0.151l-0.027,0.013l0.096,0.056c0.027,0.096,0.123,0.234,0.123,0.33
		c0,0.344-0.303,1.075-0.426,1.433c-0.262,0.771-0.482,1.57-0.69,2.369c-0.757,2.838-1.336,5.29-1.336,8.224
		c0,0.11,0,0.234-0.055,0.331c-0.193-0.083-0.386-0.151-0.51-0.331c-0.317-0.454-0.399-1.075-0.399-1.612
		c0-1.804,0.468-3.595,0.84-5.345c0.042-0.22,0.11-0.427,0.165-0.634c-0.785,0.014-1.557,0.096-2.342,0.11
		c-0.055,0.22-0.137,0.441-0.179,0.661c-0.193,0.978-0.289,1.818-0.289,2.81c0,0.165,0,0.372-0.041,0.537l-0.289-0.179v0.014h-0.042
		V12.063z M42.323,4.831c0.138-0.027,1.337-0.689,1.364-0.772C43.37,4.155,42.654,4.638,42.323,4.831z M42.695,4.197
		c-0.027,0.013-0.082,0.027-0.082,0.069v0.013L42.695,4.197z M43.053,3.99c-0.069,0.027-0.138,0.068-0.193,0.11
		c0.027-0.014,0.082-0.042,0.11-0.042L43.053,3.99z M43.976,3.37c-0.11,0.083-0.689,0.482-0.786,0.524l-0.055,0.055
		c0.289-0.179,0.592-0.344,0.854-0.565L43.976,3.37z M43.452,3.949L43.37,4.018h0.027c0.027,0,0.055-0.027,0.055-0.056V3.949z
		 M43.811,3.769l-0.014-0.027l-0.027,0.042L43.811,3.769z"/>
	<path class="st0" d="M51.803,10.52l0.04,0.027c-0.027,0.056-0.095,0.096-0.151,0.124v0.027h0.015v-0.013
		c0.055-0.027,0.151,0,0.193-0.042c-0.07,0.151-0.179,0.275-0.276,0.413c0.083-0.055,0.151-0.124,0.206-0.206l0.013,0.013v-0.013
		H51.83l0.055-0.096c0-0.069,0.015-0.11,0.07-0.165l0.055,0.042c-0.096,0.192-0.206,0.372-0.317,0.551
		c-0.303,0.496-0.785,1.405-1.446,1.405c-0.482,0-0.772-0.303-0.772-0.785c0-0.289,0.028-0.592,0.028-0.882
		c-0.317,0.455-0.648,0.91-1.048,1.282c-0.11,0.11-0.22,0.151-0.386,0.151c-0.22,0-0.426-0.069-0.606-0.193
		c-0.316-0.22-0.344-0.537-0.344-0.896c0-0.909,0.427-2.782,1.088-3.471c0.042-0.042,0.083-0.083,0.138-0.083
		c0.028,0,0.165,0.069,0.276,0.083v0.124c0.027-0.055,0.123-0.042,0.165-0.055l-0.042,0.151l0.125-0.055l0.11,0.055
		c0.013,0.027,0.028,0.069,0.028,0.096c0,0.096-0.372,1.116-0.441,1.308c-0.221,0.675-0.331,1.391-0.414,2.094
		c0.606-0.579,1.088-1.24,1.584-1.901c0.344-0.455,0.455-1.075,0.827-1.529c0.055-0.069,0.221-0.179,0.304-0.179
		c0.11,0,0.248,0.11,0.371,0.138l-0.042,0.151l0.096-0.096h0.028c0.013,0.027,0.042,0.042,0.068,0.042l0.042-0.055
		c0,0.013,0.013,0.041,0.013,0.041c0,0.22-0.178,0.551-0.261,0.772c-0.303,0.854-0.469,1.763-0.702,2.631
		c0,0.014-0.042,0.138-0.042,0.151c0,0.056,0,0.138,0.082,0.138c0.276,0,0.951-0.868,1.131-1.102v0.014l0.04-0.056l-0.013,0.014
		L51.803,10.52z M47.766,9.211V9.197h-0.013v0.014H47.766z M47.918,10.795c0-0.055,0-0.096-0.013-0.151c0,0.042,0,0.096-0.013,0.138
		L47.918,10.795z M47.946,10.561c0.165-0.84,0.454-1.598,0.785-2.384c0.027-0.055,0.013-0.11,0.013-0.165
		c-0.371,0.689-0.757,1.818-0.827,2.603C47.932,10.603,47.946,10.589,47.946,10.561z M48.222,8.137
		c-0.125,0.151-0.221,0.344-0.276,0.537L48.222,8.137z M48.152,8.867V8.825c-0.013,0.014-0.013,0.027-0.013,0.042H48.152z
		 M48.29,8.068l-0.028-0.014c-0.04,0-0.027,0.056-0.04,0.083C48.249,8.109,48.262,8.082,48.29,8.068z M48.497,8.15h-0.013
		c-0.055,0-0.055,0.042-0.055,0.083C48.455,8.206,48.483,8.178,48.497,8.15z M48.676,8.605h0.013V8.591L48.676,8.605z M48.827,8.233
		v0.013h0.013L48.827,8.233z M49.144,10.644l0.015,0.014v-0.014H49.144z M49.819,9.735c-0.11,0.014-0.138,0.11-0.165,0.193
		L49.819,9.735z M49.916,10.368c-0.013,0-0.013,0-0.027,0.013l0.013,0.028L49.916,10.368z M50.122,11.691
		c0.083-0.275,0.138-0.551,0.221-0.827c0.193-0.675,0.399-1.336,0.564-2.011C50.604,9.239,50.177,11.14,50.122,11.691z
		 M50.15,10.465h-0.013v0.027h0.013V10.465z M50.301,9.928h-0.013v0.042L50.301,9.928z M50.37,9.735
		c-0.013-0.013-0.013-0.013-0.027-0.013v0.055L50.37,9.735z M50.907,8.825v0.027c0-0.013,0-0.013,0.015-0.027H50.907z M50.99,8.55
		V8.523c0,0.013-0.013,0.013-0.013,0.027H50.99z M51.004,8.481c0.125-0.082,0.111-0.042,0.166-0.193L51.004,8.481z M51.238,8.399
		l0.013-0.014h-0.013V8.399z M51.499,11.263V11.25l-0.013,0.013H51.499z"/>
	<path class="st0" d="M51.668,11.415c0-0.303,0.068-0.593,0.125-0.882c0.151-0.785,0.385-1.598,0.385-2.397
		c0-0.096,0-0.179-0.068-0.248c-0.042-0.042-0.055-0.096-0.11-0.11l0.013-0.042c-0.055-0.041-0.179-0.096-0.179-0.165
		c0-0.11,0.248-0.165,0.331-0.165c0.151,0,0.372,0.069,0.496,0.151c0.469,0.317,0.634,0.606,0.634,1.171
		c0,0.372-0.386,1.942-0.386,1.956l0.015,0.055c0.771-1.13,1.556-2.314,2.63-3.182c0.125-0.11,0.262-0.193,0.441-0.193
		c0.151,0,0.469,0.124,0.565,0.248c0.068,0.083,0.083,0.22,0.083,0.331c0,0.165-0.042,0.33-0.083,0.482
		c-0.11,0.385-0.262,1.061-0.399,1.405l0.013,0.055c0.068-0.082,0.151-0.151,0.234-0.234c0.592-0.593,1.171-1.213,1.845-1.722
		l0.813-0.606c0.068-0.056,0.151-0.083,0.248-0.083c0.179,0,0.606,0.22,0.717,0.358c0.055,0.069,0.068,0.11,0.068,0.206
		c0,0.344-0.937,2.686-1.116,3.265c-0.123,0.413-0.233,0.84-0.358,1.267c-0.013,0.042-0.013,0.056-0.013,0.096
		c0,0.138,0.138,0.124,0.138,0.248c0,0.179-0.248,0.179-0.372,0.179c-0.303,0-0.744-0.262-0.785-0.592
		c-0.013-0.069-0.013-0.138-0.013-0.207c0-0.758,0.303-1.846,0.551-2.563c0.138-0.413,0.331-0.799,0.509-1.198
		c-1.047,0.675-1.942,2.066-2.782,3.003c-0.249,0.275-0.331,0.083-0.579,0.165l-0.399-0.248c-0.125-0.083-0.138-0.22-0.138-0.358
		c0-0.537,0.234-1.377,0.426-1.887c0.056-0.151,0.138-0.303,0.179-0.454c0.013-0.042,0.013-0.096,0.042-0.138h-0.013
		c-0.138,0.193-0.344,0.344-0.496,0.523c-0.772,0.937-1.322,2.053-2.109,2.989c-0.095,0.11-0.192,0.179-0.344,0.179
		C52.053,12.077,51.668,11.815,51.668,11.415z M52.37,11.36c0.193-0.813,0.372-1.625,0.537-2.438l-0.042-0.014
		c-0.178,0.813-0.358,1.639-0.551,2.452H52.37z M54.065,9.762c-0.013,0.014-0.028,0.027-0.028,0.055L54.065,9.762z M54.175,9.17
		c-0.013,0.014-0.027,0.027-0.027,0.055L54.175,9.17z M55.126,10.134l-0.028,0.056h0.013l0.028-0.056H55.126z M55.166,9.982V9.969
		h-0.013L55.166,9.982z M55.222,9.735c-0.015,0-0.015,0-0.015,0.014c0,0.013,0,0.013,0.015,0.013V9.735z M55.236,9.652h0.013
		l0.013-0.042L55.236,9.652z M55.304,9.487V9.473c-0.013,0.014-0.027,0.014-0.027,0.027C55.291,9.5,55.291,9.487,55.304,9.487z
		 M55.304,10.52l-0.013,0.014h0.013V10.52z M55.359,10.354v-0.068c-0.013,0.027-0.013,0.041-0.013,0.068H55.359z M55.429,10.148
		l-0.028-0.014l-0.042,0.124L55.429,10.148z M55.429,10.01v0.014l0.013-0.014H55.429z M55.497,8.977
		c0.11-0.289,0.289-0.62,0.331-0.937c-0.138,0.317-0.289,0.634-0.372,0.978L55.497,8.977z M55.47,9.9h-0.015v0.041h0.015V9.9z
		 M55.497,9.804V9.762c-0.013,0.014-0.013,0.027-0.013,0.042H55.497z M55.511,10.547l0.056,0.014
		c0.04-0.055,0.068-0.124,0.096-0.193c0.206-0.689,0.426-1.364,0.619-2.053c0.042-0.138,0.055-0.275,0.096-0.399l-0.042-0.014
		L55.511,10.547z M55.539,9.652h-0.013c0,0.013,0,0.013,0.013,0.027V9.652z M55.567,9.542h0.027V9.404L55.567,9.542z M55.649,9.294
		c-0.013,0.027-0.042,0.055-0.055,0.096c0.028-0.027,0.055-0.055,0.07-0.082L55.649,9.294z M55.979,8.357
		c-0.11,0.193-0.206,0.482-0.261,0.702C55.856,8.839,55.896,8.591,55.979,8.357z M56.062,8.15h-0.028l0.013,0.042L56.062,8.15z
		 M56.159,9.211l0.013-0.014h-0.013V9.211z M57.964,11.277c0,0.014,0,0.014,0.013,0.014L57.964,11.277z M58.004,11.085h-0.013v0.042
		h0.013V11.085z M58.019,10.988h0.027c0-0.055,0.013-0.124,0.013-0.179L58.019,10.988z M58.059,10.809
		c0.083-0.124,0.111-0.275,0.111-0.427L58.059,10.809z M59.107,7.999c-0.386,0.758-0.73,1.543-0.937,2.37
		c0.096-0.151,0.138-0.317,0.193-0.482c0.138-0.372,0.261-0.758,0.426-1.116c0.111-0.248,0.262-0.496,0.344-0.758L59.107,7.999z
		 M58.184,11.47h0.013v-0.014L58.184,11.47z M58.197,11.429l0.042-0.055h-0.027L58.197,11.429z M58.252,11.292V11.25
		c-0.013,0.013-0.013,0.013-0.013,0.027L58.252,11.292z M58.322,12.228c0.11-0.303,0.165-0.634,0.248-0.951
		c0.165-0.62,0.386-1.24,0.62-1.846l0.551-1.446c0.027-0.069,0.027-0.138,0.042-0.207h-0.028c-0.358,0.868-0.744,1.722-1.02,2.631
		c-0.178,0.578-0.386,1.199-0.441,1.804L58.322,12.228z M59.478,7.82c-0.33,0.813-0.757,1.612-0.977,2.466
		c-0.056,0.206-0.096,0.454-0.179,0.661c0.083-0.138,0.123-0.344,0.179-0.496c0.178-0.51,0.358-1.019,0.551-1.529
		c0.138-0.372,0.331-0.716,0.454-1.089L59.478,7.82z M58.721,11.25c0,0.013,0,0.027,0.013,0.042h0.015
		c-0.015-0.014-0.015-0.028-0.015-0.042H58.721z M58.749,10.024l0.013,0.013v-0.013H58.749z M58.776,9.955l0.013,0.014V9.955H58.776
		z M58.789,11.085h-0.013l0.013,0.014V11.085z M58.886,10.795c0.015-0.013,0.015-0.013,0.015-0.027
		C58.9,10.782,58.886,10.782,58.886,10.795z M58.927,10.671l-0.013-0.013c0,0.013,0,0.027-0.013,0.041L58.927,10.671z M58.914,9.569
		v0.014l0.013-0.014H58.914z M58.941,9.5v0.014c0.015,0,0.015,0,0.015-0.014H58.941z M58.982,10.52v-0.013
		c-0.013,0.013-0.027,0.013-0.027,0.027C58.969,10.534,58.969,10.52,58.982,10.52z M58.997,9.376c0.013,0,0.013,0,0.013-0.013
		C58.997,9.363,58.997,9.363,58.997,9.376z M59.01,10.423h-0.013v0.027h0.013V10.423z M59.037,10.368v-0.014
		c-0.013,0-0.013,0-0.013,0.014H59.037z M59.23,9.817l-0.027-0.013v0.042L59.23,9.817z M59.286,9.625
		c-0.015,0.013-0.015,0.027-0.015,0.041h0.015V9.625z M59.355,9.542l-0.028-0.027c-0.013,0.014-0.013,0.014-0.013,0.027H59.355z
		 M59.465,9.211h-0.013c0,0.013,0,0.027-0.013,0.041L59.465,9.211z M59.493,9.087l-0.015,0.013h0.015V9.087z M59.506,9.018
		l0.013,0.013V9.018H59.506z M59.548,8.949l-0.013,0.014h0.013V8.949z M59.561,8.894h0.013V8.88L59.561,8.894z M59.616,8.798
		l-0.013,0.013h0.013V8.798z M59.699,8.55c0,0.013,0,0.013,0.013,0.013V8.55H59.699z M59.782,8.343v0.027
		c0-0.013,0-0.013,0.013-0.027H59.782z"/>
	<path class="st0" d="M64.097,10.616c-0.303,0.716-0.977,1.942-1.584,2.425c-0.303-0.11-0.524-0.138-0.524-0.523
		c0-0.744,0.166-1.474,0.317-2.204l-0.469,0.482c-0.289,0.303-0.689,0.882-1.171,0.882c-0.344,0-0.854-0.317-0.854-0.702
		c0-0.813,0.868-2.287,1.529-2.755c0.276-0.193,0.62-0.386,0.965-0.386s0.634,0.193,0.882,0.427c0.027,0.027,0.055,0.069,0.055,0.11
		c0,0.028-0.013,0.056-0.028,0.083l-0.399-0.11c-0.992,0.344-1.487,1.46-1.887,2.356l0.027,0.028l0.221-0.165L62.5,9.376
		c0.248-0.22,0.289-0.509,0.606-0.633L63.12,8.88l-0.042,0.014c-0.028,0.055,0,0.041-0.055,0.096l0.04-0.014l0.015-0.069L63.12,8.88
		c0.013-0.027,0.04-0.055,0.082-0.055c0.028,0,0.055,0.027,0.07,0.042l-0.015,0.096l0.055-0.028V8.922l0.07,0.027
		c-0.11,0.344-0.234,0.675-0.358,1.006l-0.015,0.014c0.015,0,0.015,0,0.015-0.014c0.013-0.014,0.04-0.027,0.04-0.055
		c0.138-0.303,0.248-0.62,0.4-0.909c0.068,0.013,0.123,0.055,0.123,0.124c0,0.096-0.042,0.193-0.068,0.275
		c-0.179,0.496-0.785,2.204-0.785,2.645c0.178-0.11,0.316-0.303,0.454-0.455h0.027c-0.178,0.262-0.426,0.482-0.551,0.772h-0.013
		v0.014c0.013,0,0.013,0,0.013-0.014c0.248-0.248,0.469-0.551,0.689-0.827c0.055-0.069,0.111-0.179,0.179-0.248l0.068-0.069
		c-0.289,0.496-0.744,0.951-0.992,1.46l0.441-0.51l-0.123,0.234l0.096-0.069l0.013,0.055c0.013-0.069,0.083-0.151,0.123-0.22h0.015
		v-0.014l-0.015,0.014h-0.027c0.042-0.11,0.055-0.179,0.151-0.248v0.055l0.027-0.055l0.042-0.027l0.028-0.055
		c0.027-0.11,0.138-0.193,0.178-0.303c0.028-0.069,0.083-0.137,0.125-0.206h-0.013l0.027-0.056h-0.013l0.083-0.151l0.013,0.056
		c0.013-0.069,0.055-0.124,0.083-0.179h-0.015l0.042-0.027c0.028-0.042,0.042-0.082,0.055-0.124v0.014
		C63.987,10.768,64.042,10.699,64.097,10.616z M60.268,10.175c0,0.014-0.013,0.027-0.013,0.042h0.013V10.175z M60.351,10.01
		c0.179-0.303,0.344-0.634,0.537-0.923c0.042-0.056,0.165-0.207,0.165-0.276l-0.027,0.056c-0.193,0.192-0.62,0.937-0.717,1.199
		c-0.013,0.013-0.027,0.041-0.027,0.068l0.027-0.068C60.323,10.051,60.351,10.037,60.351,10.01z M60.489,10.286l0.042-0.096
		c-0.028,0.013-0.028,0.068-0.055,0.096H60.489z M60.516,10.933c-0.013,0.014-0.013,0.042-0.013,0.055h0.013V10.933z M61.66,8.839
		c-0.359,0.22-0.882,1.198-1.02,1.598c-0.055,0.151-0.083,0.317-0.125,0.468c0.028-0.027,0.042-0.055,0.055-0.096
		C60.833,10.12,61.191,9.404,61.66,8.839z M60.571,10.066c0.138-0.262,0.304-0.496,0.455-0.744V9.294
		C60.846,9.542,60.695,9.776,60.571,10.066z M61.094,8.771l0.042-0.027h-0.013L61.094,8.771z M61.164,9.101h0.027V9.087
		C61.177,9.101,61.177,9.101,61.164,9.101z M61.232,9.004h0.013V8.991C61.232,8.991,61.232,8.991,61.232,9.004z M62.61,11.456h0.013
		v-0.027H62.61V11.456z M62.665,12.751c-0.013,0-0.027,0.014-0.027,0.027L62.665,12.751z M62.665,11.181l0.013,0.027v-0.041
		L62.665,11.181z M62.775,12.614l-0.096,0.124C62.72,12.696,62.775,12.682,62.775,12.614z M62.734,10.947h0.013v-0.069
		C62.734,10.906,62.734,10.919,62.734,10.947z M62.748,10.823l0.027-0.055h-0.013L62.748,10.823z M62.775,10.754
		c0.07-0.083,0.083-0.179,0.096-0.276C62.831,10.575,62.803,10.658,62.775,10.754z M62.803,12.655c-0.013,0-0.013,0.014-0.028,0.014
		C62.789,12.669,62.803,12.669,62.803,12.655z M62.858,12.558c0-0.027,0.013-0.055,0.013-0.082L62.789,12.6L62.858,12.558z
		 M62.858,9.28l0.11-0.207C62.927,9.115,62.871,9.211,62.858,9.28z M62.886,12.531l-0.015,0.014
		C62.886,12.545,62.886,12.545,62.886,12.531z M62.899,10.368c-0.013,0.013-0.013,0.027-0.013,0.042L62.899,10.368z M62.941,12.518
		c-0.013,0-0.013,0.013-0.028,0.013h0.028V12.518z M62.941,10.23c-0.013,0.014-0.013,0.042-0.013,0.069l0.013-0.027V10.23z
		 M63.037,12.394h-0.013l-0.042,0.027h0.013L63.037,12.394z M63.079,9.252c0,0,0.013,0.028,0.013,0.042l0.055-0.11
		C63.106,9.197,63.079,9.211,63.079,9.252z M63.147,9.17c0.013-0.027,0.013-0.042,0.013-0.069
		C63.147,9.128,63.147,9.142,63.147,9.17z M63.285,11.98c-0.013,0.013-0.013,0.041-0.013,0.055
		C63.285,12.021,63.285,11.994,63.285,11.98z"/>
	<path class="st0" d="M64.087,11.856c0-0.744,0.482-2.384,0.702-3.141c0.111-0.344,0.234-0.757,0.234-1.13
		c0-0.068-0.027-0.137-0.042-0.206C65.01,7.31,65.065,7.31,65.12,7.31c0.028,0,0.165,0.069,0.193,0.082
		c0.331,0.165,0.565,0.524,0.565,0.91c0,0.799-0.537,2.493-0.813,3.292l0.028,0.014c0.771-1.061,1.501-2.136,2.356-3.127
		c0.33-0.386,0.661-0.772,1.005-1.144c0.11-0.11,0.206-0.22,0.358-0.261c0.262,0.041,0.772,0.316,0.772,0.633
		c0,0.179-0.22,0.744-0.289,0.937c-0.371,0.964-1.364,3.76-1.364,4.684c0,0.137,0.042,0.262,0.166,0.33
		c0,0.083-0.055,0.138-0.138,0.138c-0.785,0-0.937-0.661-0.937-1.308c0-0.868,0.427-2.053,0.689-2.893
		c0.123-0.413,0.303-0.799,0.454-1.198c-0.042,0.027-0.082,0.041-0.123,0.082c-0.607,0.62-1.116,1.377-1.57,2.108
		c-0.289,0.468-0.993,1.653-1.351,1.97c-0.083,0.069-0.123,0.083-0.22,0.083C64.5,12.641,64.087,12.27,64.087,11.856z
		 M65.355,11.953c-0.013,0.013-0.028,0.027-0.028,0.055L65.355,11.953z M65.574,11.168c0.083-0.096,0.138-0.193,0.208-0.289
		C65.699,10.961,65.63,11.071,65.574,11.168z M65.726,11.456c0.015-0.041,0.042-0.068,0.056-0.096
		c-0.042,0.042-0.096,0.11-0.111,0.165L65.726,11.456z M65.74,11.277c0.013,0,0.013,0,0.013-0.014L65.74,11.277z M65.905,10.713
		c0.028-0.082,0.083-0.11,0.138-0.179c0.11-0.124,0.179-0.276,0.276-0.413c0.619-0.923,1.419-1.708,2.121-2.576l0.042-0.056
		l-0.028-0.027c-0.702,0.744-1.377,1.515-1.97,2.356c-0.221,0.317-0.469,0.62-0.634,0.965L65.905,10.713z M65.878,11.099v-0.014
		l-0.015,0.014H65.878z M66.14,10.823c-0.096,0.11-0.179,0.221-0.234,0.345C65.988,11.057,66.07,10.947,66.14,10.823z
		 M66.112,10.671H66.07c0,0.014-0.013,0.042-0.027,0.056h0.068l0.015-0.042L66.112,10.671z M66.14,10.809
		c0.068-0.082,0.138-0.179,0.179-0.289C66.263,10.616,66.181,10.699,66.14,10.809z M66.167,10.547v0.042
		c0,0.014,0,0.027,0.015,0.042c0.013-0.014,0.013-0.042,0.013-0.056h0.055c-0.013-0.013-0.042-0.013-0.055-0.013L66.167,10.547z
		 M66.167,10.906v0.027l0.015-0.014L66.167,10.906z M66.223,10.465v0.027c0,0,0.027,0.069,0.027,0.082v-0.082
		c0.013,0,0.028,0,0.041-0.014c-0.013,0-0.041-0.013-0.041-0.013H66.223z M66.291,10.368v0.042c0,0.013,0,0.041,0.013,0.055
		c0-0.042,0.015-0.069,0.055-0.069c-0.013-0.014-0.027-0.014-0.04-0.014L66.291,10.368z M66.346,10.286v0.027
		c0.013,0.027,0.013,0.055,0.013,0.082c0.015-0.027,0.015-0.055,0.015-0.082l0.027-0.014c-0.013,0-0.042-0.013-0.042-0.013H66.346z
		 M66.416,10.41l0.013-0.056l-0.042,0.083L66.416,10.41z M67.063,9.542l0.055-0.082h0.027l0.07-0.069
		c0.013-0.042,0.138-0.206,0.179-0.234c0.027-0.082,0.358-0.482,0.44-0.523l-0.027-0.014V8.564
		c-0.151,0.165-0.276,0.344-0.454,0.468c0.068-0.165,0.744-0.895,0.895-1.088c-0.689,0.689-1.296,1.446-1.846,2.246v0.041
		l0.015,0.056c0.123-0.193,0.22-0.317,0.371-0.496c-0.013,0.056-0.027,0.096-0.055,0.138l0.096-0.055h0.028
		c0.055-0.069,0.11-0.138,0.137-0.22l0.042-0.027c0.013-0.028,0.028-0.056,0.055-0.069L67.063,9.542z M66.526,10.23
		c0.027-0.027,0.055-0.041,0.082-0.055v-0.013c0.015-0.014,0.028-0.069,0.028-0.096L66.526,10.23z M66.622,10.175v0.027
		c0.013-0.013,0.013-0.027,0.013-0.041L66.622,10.175z M67.724,12.435h0.015v-0.041h-0.015V12.435z M67.738,12.297l0.04,0.013
		c0.028-0.124,0.042-0.234,0.055-0.358L67.738,12.297z M69.28,7.723c-0.579,1.157-1.13,2.934-1.447,4.202
		c0.028-0.028,0.042-0.056,0.056-0.083c0.233-0.62,0.371-1.281,0.592-1.901c0.261-0.744,0.579-1.46,0.84-2.204L69.28,7.723z
		 M68.109,8.316c0.028-0.069,0.11-0.096,0.11-0.179l0.151-0.207l-0.537,0.593c0.042-0.028,0.07-0.056,0.125-0.056
		C68.013,8.412,68.041,8.357,68.109,8.316z M68.179,9.101l0.013-0.013h-0.013V9.101z M68.275,8.839c0,0.013-0.015,0.013-0.015,0.027
		h0.015V8.839z M68.33,8.66l-0.042,0.096l0.042,0.014V8.66z M68.371,8.633c0.125-0.275,0.276-0.551,0.414-0.827V7.737
		c-0.179,0.289-0.317,0.606-0.454,0.923L68.371,8.633z M68.743,8.44c0.068-0.151,0.151-0.303,0.206-0.454
		C68.853,8.123,68.798,8.274,68.743,8.44z M69.046,7.765l-0.013-0.014v0.055L69.046,7.765z"/>
</g>
</svg>
