<?xml version="1.0" encoding="utf-8"?>
<!-- Generator: Adobe Illustrator 21.1.0, SVG Export Plug-In . SVG Version: 6.00 Build 0)  -->
<svg version="1.1" id="Layer_1" xmlns="http://www.w3.org/2000/svg" xmlns:xlink="http://www.w3.org/1999/xlink" x="0px" y="0px"
	 viewBox="0 0 150 50" style="enable-background:new 0 0 150 50;" xml:space="preserve">
<style type="text/css">
	.st0{fill:#FFFFFF;}
</style>
<g id="EADdRo_1_">
	<g>
		<path class="st0" d="M91.714,16.797c-0.948,0.992-1.927,1.866-2.728,2.88c-3.44,4.351-2.872,11.236,2.304,14.853
			c0.479,0.335,0.975,0.645,1.477,0.945c0.195,0.117,0.273,0.226,0.194,0.452c-1.382,3.997-3.414,7.591-6.55,10.489
			c-0.898,0.83-1.902,1.508-3.138,1.751c-0.902,0.178-1.777,0.018-2.626-0.269c-0.939-0.318-1.866-0.672-2.792-1.028
			c-2.011-0.775-4.021-0.763-6.03-0.011c-0.683,0.255-1.365,0.519-2.028,0.821c-2.333,1.065-4.419,0.711-6.31-1.009
			c-1.918-1.744-3.372-3.842-4.667-6.059c-1.847-3.162-3.035-6.565-3.527-10.193c-0.403-2.971-0.454-5.945,0.329-8.875
			c0.868-3.247,2.552-5.962,5.525-7.645c3.145-1.781,6.468-2.036,9.859-0.645c0.54,0.222,1.082,0.442,1.608,0.695
			c1.199,0.577,2.388,0.523,3.603,0.04c1.097-0.436,2.184-0.95,3.325-1.211c4.693-1.072,8.775-0.063,11.96,3.744
			C91.596,16.631,91.678,16.749,91.714,16.797z"/>
		<path class="st0" d="M82.771,1.724c0.076,1.235,0.101,2.459-0.239,3.651c-0.973,3.413-3.001,5.904-6.4,7.129
			c-0.62,0.223-1.313,0.238-1.97,0.362c-0.374,0.07-0.425-0.119-0.456-0.437c-0.269-2.837,0.78-5.201,2.598-7.288
			c1.429-1.64,3.145-2.824,5.31-3.274c0.27-0.056,0.544-0.1,0.817-0.14C82.528,1.712,82.63,1.724,82.771,1.724z"/>
	</g>
</g>
</svg>
