<?xml version="1.0" encoding="utf-8"?>
<!-- Generator: Adobe Illustrator 21.1.0, SVG Export Plug-In . SVG Version: 6.00 Build 0)  -->
<svg version="1.1" id="Layer_1" xmlns="http://www.w3.org/2000/svg" xmlns:xlink="http://www.w3.org/1999/xlink" x="0px" y="0px"
	 viewBox="0 0 20 20" style="enable-background:new 0 0 20 20;" xml:space="preserve">
<style type="text/css">
	.st0{fill:#00B4E4;}
</style>
<g id="oTuoKh_1_">
	<g>
		<path class="st0" d="M6.656,12.304c0-3.9,0-7.799,0-11.698C6.708,0.468,6.812,0.43,6.952,0.43
			c1.556,0.003,3.111,0.002,4.667,0.002c0.037,0,0.075,0,0.117,0c0,0.056,0,0.097,0,0.139c0,1.13,0,2.259,0,3.389
			c0,0.208,0.079,0.286,0.286,0.286c1.136,0,2.272,0,3.408,0c0.037,0,0.075,0,0.116,0c0,0.721,0,1.427,0,2.134
			c0,0.007,0,0.013-0.001,0.019c-0.018,0.117-0.148,0.198-0.262,0.163c-0.599-0.182-1.205-0.196-1.812-0.054
			c-0.747,0.176-1.377,0.556-1.875,1.139c-0.697,0.814-0.965,1.761-0.828,2.82c0.081,0.622,0.326,1.181,0.713,1.676
			c0.027,0.034,0.049,0.078,0.054,0.12c0.019,0.143-0.08,0.235-0.246,0.235c-1.449,0-2.898,0-4.347,0
			C6.762,12.498,6.722,12.471,6.656,12.304z"/>
		<path class="st0" d="M11.11,9.95c-0.003-1.676,1.355-3.161,3.17-3.162c1.774-0.001,3.178,1.42,3.174,3.188
			c-0.004,1.745-1.409,3.152-3.175,3.158C12.524,13.14,11.109,11.707,11.11,9.95z M14.071,10.923
			c-0.04-0.036-0.063-0.056-0.085-0.078c-0.128-0.128-0.253-0.257-0.382-0.385c-0.101-0.1-0.23-0.106-0.317-0.019
			c-0.092,0.093-0.092,0.215,0.009,0.317c0.272,0.275,0.546,0.549,0.821,0.821c0.105,0.104,0.221,0.105,0.325,0.003
			c0.278-0.274,0.554-0.55,0.828-0.828c0.099-0.1,0.097-0.229,0.005-0.318c-0.083-0.081-0.218-0.074-0.311,0.018
			c-0.135,0.134-0.269,0.27-0.403,0.404c-0.016,0.016-0.036,0.029-0.063,0.05c0-0.793,0-1.57,0-2.348
			c0-0.035,0.002-0.072-0.003-0.106c-0.016-0.106-0.097-0.184-0.199-0.193c-0.088-0.008-0.185,0.05-0.212,0.136
			C14.07,8.442,14.07,8.492,14.07,8.54c-0.001,0.752,0,1.504,0,2.255C14.071,10.831,14.071,10.865,14.071,10.923z"/>
		<path class="st0" d="M15.51,3.816c-1.105,0-2.215,0-3.331,0c0-1.118,0-2.231,0-3.331C13.287,1.592,14.398,2.704,15.51,3.816z"/>
	</g>
</g>
</svg>
