<?xml version="1.0" encoding="utf-8"?>
<!-- Generator: Adobe Illustrator 22.1.0, SVG Export Plug-In . SVG Version: 6.00 Build 0)  -->
<svg version="1.1" id="Layer_1" xmlns="http://www.w3.org/2000/svg" xmlns:xlink="http://www.w3.org/1999/xlink" x="0px" y="0px"
	 viewBox="0 0 36 36" style="enable-background:new 0 0 36 36;" xml:space="preserve">
<style type="text/css">
	.st0{fill:#3C4852;}
</style>
<path class="st0" d="M13.268,18l4.62-4.62c0.149-0.149,0.149-0.394,0-0.543l-0.725-0.725c-0.149-0.149-0.394-0.149-0.543,0
	L12,16.732l-4.62-4.62c-0.149-0.149-0.394-0.149-0.543,0l-0.725,0.725c-0.149,0.149-0.149,0.394,0,0.543L10.732,18l-4.62,4.62
	c-0.149,0.149-0.149,0.394,0,0.543l0.725,0.725c0.149,0.149,0.394,0.149,0.543,0l4.62-4.62l4.62,4.62
	c0.149,0.149,0.394,0.149,0.543,0l0.725-0.725c0.149-0.149,0.149-0.394,0-0.543L13.268,18z"/>
</svg>
