<?xml version="1.0" encoding="utf-8"?>
<!-- Generator: Adobe Illustrator 22.1.0, SVG Export Plug-In . SVG Version: 6.00 Build 0)  -->
<svg version="1.1" id="Layer_1" xmlns="http://www.w3.org/2000/svg" xmlns:xlink="http://www.w3.org/1999/xlink" x="0px" y="0px"
	 viewBox="0 0 36 36" style="enable-background:new 0 0 36 36;" xml:space="preserve">
<style type="text/css">
	.st0{fill:#FFFFFF;}
</style>
<g id="JpfMDc_1_">
	<g>
		<path class="st0" d="M10.021,22.333c-0.146-0.043-0.285-0.096-0.392-0.214c-0.12-0.133-0.176-0.287-0.176-0.463
			c-0.001-0.722-0.006-1.443,0.001-2.165c0.005-0.488,0.451-0.792,0.907-0.621c0.235,0.088,0.414,0.31,0.413,0.644
			c-0.001,0.465,0.001,0.93-0.002,1.394c-0.001,0.075,0.014,0.101,0.096,0.101c1.839-0.003,3.677-0.002,5.516-0.001
			c0.072,0,0.097-0.017,0.096-0.093c-0.003-0.465-0.001-0.93-0.002-1.394c0-0.235,0.081-0.433,0.274-0.573
			c0.201-0.146,0.426-0.168,0.65-0.072c0.221,0.095,0.357,0.27,0.388,0.516c0.006,0.048,0.01,0.097,0.01,0.146
			c0.001,0.693,0,1.387,0.001,2.08c0,0.192-0.047,0.364-0.183,0.507c-0.092,0.096-0.203,0.153-0.328,0.189
			c-0.02,0.006-0.039,0.012-0.058,0.018C14.829,22.333,12.425,22.333,10.021,22.333z"/>
		<path class="st0" d="M14.317,17.97c0.108-0.112,0.214-0.227,0.324-0.337c0.195-0.193,0.383-0.394,0.591-0.571
			c0.28-0.238,0.76-0.133,0.946,0.184c0.161,0.274,0.114,0.618-0.131,0.856c-0.331,0.321-0.654,0.651-0.98,0.977
			c-0.332,0.331-0.657,0.671-1,0.989c-0.284,0.263-0.68,0.221-0.95-0.057c-0.375-0.386-0.76-0.762-1.14-1.143
			c-0.286-0.287-0.577-0.569-0.851-0.867c-0.223-0.243-0.189-0.635,0.052-0.88c0.221-0.224,0.608-0.256,0.851-0.053
			c0.178,0.149,0.338,0.32,0.504,0.484c0.138,0.137,0.272,0.278,0.408,0.417c0.008-0.003,0.016-0.006,0.025-0.01
			c0-0.031,0-0.062,0-0.093c0-1.484,0-2.968,0-4.452c0-0.183,0.038-0.353,0.163-0.492c0.164-0.184,0.371-0.266,0.615-0.221
			c0.242,0.045,0.418,0.183,0.5,0.418c0.033,0.095,0.047,0.201,0.047,0.301c0.003,1.484,0.002,2.968,0.002,4.452
			c0,0.027,0,0.055,0,0.082C14.3,17.96,14.308,17.965,14.317,17.97z"/>
	</g>
</g>
</svg>
