<?xml version="1.0" encoding="utf-8"?>
<!-- Generator: Adobe Illustrator 22.1.0, SVG Export Plug-In . SVG Version: 6.00 Build 0)  -->
<svg version="1.1" id="Layer_1" xmlns="http://www.w3.org/2000/svg" xmlns:xlink="http://www.w3.org/1999/xlink" x="0px" y="0px"
	 viewBox="0 0 36 36" style="enable-background:new 0 0 36 36;" xml:space="preserve">
<style type="text/css">
	.st0{fill:#3C4852;}
</style>
<path class="st0" d="M17.785,16.999h-3.158v-3.158c0-0.394-0.321-0.715-0.715-0.715h-0.574c-0.394,0-0.715,0.321-0.715,0.715v3.158
	H9.466c-0.394,0-0.715,0.321-0.715,0.715v0.574c0,0.394,0.321,0.714,0.715,0.714h3.158v3.158c0,0.395,0.321,0.715,0.715,0.715h0.574
	c0.394,0,0.715-0.32,0.715-0.715v-3.158h3.158c0.395,0,0.715-0.32,0.715-0.714v-0.574C18.5,17.319,18.18,16.999,17.785,16.999z"/>
</svg>
