<?xml version="1.0" encoding="utf-8"?>
<!-- Generator: Adobe Illustrator 21.1.0, SVG Export Plug-In . SVG Version: 6.00 Build 0)  -->
<svg version="1.1" id="Layer_1" xmlns="http://www.w3.org/2000/svg" xmlns:xlink="http://www.w3.org/1999/xlink" x="0px" y="0px"
	 viewBox="0 0 35 12" style="enable-background:new 0 0 35 12;" xml:space="preserve">
<style type="text/css">
	.st0{fill:#C50F3C;}
	.st1{fill:#FFFFFF;}
</style>
<rect x="-1.731" y="-0.615" class="st0" width="38.462" height="13.198"/>
<polygon class="st1" points="5.441,2.38 3.498,4.323 1.556,2.38 0.73,3.204 2.674,5.146 0.73,7.089 1.556,7.914 3.497,5.971 
	5.44,7.914 6.264,7.09 4.322,5.147 6.264,3.204 "/>
<g>
	<path class="st1" d="M7.902,4.1C8.053,3.902,8.263,3.803,8.53,3.803c0.218,0,0.387,0.056,0.508,0.17
		c0.121,0.114,0.2,0.297,0.236,0.551h0.42C9.661,4.191,9.543,3.931,9.34,3.743C9.136,3.555,8.867,3.461,8.53,3.461
		c-0.254,0-0.478,0.06-0.67,0.179c-0.193,0.12-0.343,0.291-0.448,0.515C7.306,4.379,7.254,4.638,7.254,4.932v0.305
		c0,0.449,0.113,0.809,0.338,1.077c0.226,0.268,0.526,0.403,0.901,0.403c0.345,0,0.622-0.091,0.831-0.273
		c0.207-0.182,0.331-0.44,0.37-0.776H9.274C9.233,5.93,9.15,6.114,9.026,6.219C8.902,6.324,8.725,6.377,8.492,6.377
		c-0.258,0-0.459-0.101-0.603-0.305C7.746,5.868,7.674,5.594,7.674,5.25V4.943C7.674,4.579,7.75,4.297,7.902,4.1z"/>
	<polygon class="st1" points="9.695,5.668 9.694,5.669 9.695,5.669 	"/>
	<rect x="10.125" y="3.33" class="st1" width="0.403" height="3.344"/>
	<path class="st1" d="M12.023,4.275c-0.208,0-0.393,0.05-0.555,0.15c-0.162,0.101-0.288,0.244-0.379,0.428
		c-0.09,0.184-0.136,0.392-0.136,0.622h0.001v0.028c0,0.366,0.099,0.659,0.297,0.882c0.198,0.222,0.457,0.333,0.777,0.333
		c0.211,0,0.399-0.05,0.562-0.152c0.164-0.101,0.289-0.244,0.377-0.426c0.087-0.182,0.131-0.388,0.131-0.617V5.494
		c0-0.368-0.099-0.664-0.297-0.886C12.603,4.386,12.344,4.275,12.023,4.275z M12.516,6.148c-0.12,0.161-0.283,0.241-0.488,0.241
		c-0.204,0-0.365-0.079-0.486-0.237C11.42,5.993,11.36,5.785,11.36,5.523c0-0.295,0.061-0.521,0.183-0.681
		c0.122-0.157,0.283-0.237,0.482-0.237c0.203,0,0.365,0.081,0.488,0.241c0.123,0.16,0.184,0.37,0.184,0.628
		C12.696,5.763,12.636,5.988,12.516,6.148z"/>
	<path class="st1" d="M14.897,5.475c-0.124-0.063-0.287-0.116-0.488-0.161c-0.201-0.045-0.34-0.092-0.417-0.141
		c-0.077-0.05-0.115-0.122-0.115-0.22c0-0.103,0.042-0.187,0.124-0.25c0.082-0.064,0.197-0.096,0.343-0.096
		c0.142,0,0.26,0.04,0.354,0.119c0.094,0.081,0.141,0.175,0.141,0.285h0.405c0-0.214-0.082-0.392-0.248-0.529
		c-0.167-0.138-0.383-0.207-0.65-0.207c-0.253,0-0.463,0.067-0.626,0.2c-0.163,0.134-0.245,0.298-0.245,0.49
		c0,0.117,0.029,0.216,0.086,0.301c0.057,0.084,0.146,0.157,0.265,0.218c0.119,0.061,0.282,0.113,0.485,0.156
		c0.204,0.044,0.346,0.095,0.429,0.156c0.083,0.06,0.123,0.144,0.123,0.253c0,0.102-0.046,0.186-0.139,0.247
		C14.632,6.358,14.51,6.39,14.357,6.39c-0.165,0-0.299-0.039-0.399-0.119c-0.1-0.08-0.155-0.187-0.162-0.321h-0.403
		c0,0.139,0.041,0.269,0.123,0.389c0.082,0.119,0.195,0.213,0.34,0.28c0.145,0.067,0.312,0.1,0.501,0.1
		c0.269,0,0.487-0.064,0.656-0.191c0.168-0.127,0.252-0.296,0.252-0.506c0-0.126-0.03-0.234-0.091-0.321
		C15.115,5.612,15.022,5.537,14.897,5.475z"/>
	<path class="st1" d="M16.607,4.275c-0.187,0-0.361,0.052-0.521,0.156c-0.16,0.103-0.285,0.247-0.374,0.43
		c-0.09,0.184-0.135,0.393-0.135,0.626v0.074c0,0.352,0.101,0.632,0.301,0.842c0.201,0.21,0.46,0.315,0.779,0.315
		c0.395,0,0.691-0.152,0.888-0.455l-0.246-0.191c-0.074,0.097-0.16,0.173-0.259,0.231C16.942,6.36,16.822,6.39,16.679,6.39
		c-0.2,0-0.365-0.072-0.495-0.214c-0.13-0.143-0.198-0.331-0.204-0.563h1.596V5.444c0-0.376-0.085-0.665-0.255-0.867
		C17.153,4.376,16.914,4.275,16.607,4.275z M17.173,5.281h-1.18c0.027-0.213,0.095-0.379,0.205-0.498
		c0.111-0.119,0.247-0.178,0.41-0.178c0.169,0,0.302,0.057,0.401,0.169c0.099,0.113,0.154,0.271,0.165,0.476V5.281z"/>
	<polygon class="st1" points="21.564,5.672 21.498,6.1 21.411,5.716 20.798,3.504 20.446,3.504 19.819,5.716 19.73,6.093 
		19.669,5.675 19.169,3.505 18.75,3.505 19.517,6.674 19.897,6.674 20.574,4.365 20.625,4.122 20.675,4.364 21.329,6.673 
		21.709,6.673 22.477,3.504 22.057,3.504 	"/>
	<rect x="22.802" y="4.319" class="st1" width="0.402" height="2.355"/>
	<path class="st1" d="M23.006,3.461c-0.08,0-0.137,0.023-0.178,0.067c-0.04,0.045-0.06,0.1-0.06,0.165
		c0,0.065,0.021,0.12,0.06,0.163c0.041,0.044,0.1,0.065,0.178,0.065c0.079,0,0.138-0.022,0.179-0.065
		c0.041-0.044,0.061-0.098,0.061-0.163c0-0.064-0.02-0.12-0.061-0.165C23.145,3.484,23.085,3.461,23.006,3.461z"/>
	<path class="st1" d="M24.837,4.275c-0.29,0-0.526,0.113-0.705,0.339l-0.013-0.296h-0.381v2.355h0.403V4.996
		c0.055-0.113,0.133-0.205,0.23-0.274c0.1-0.07,0.214-0.104,0.345-0.104c0.161,0,0.28,0.04,0.356,0.121
		c0.076,0.082,0.114,0.207,0.117,0.376v1.559h0.402V5.117C25.585,4.556,25.335,4.275,24.837,4.275z"/>
	<path class="st1" d="M27.573,4.558c-0.161-0.189-0.379-0.283-0.656-0.283s-0.502,0.109-0.672,0.329
		c-0.172,0.22-0.258,0.511-0.258,0.872h0.001v0.03c0,0.359,0.086,0.651,0.259,0.875c0.172,0.224,0.394,0.336,0.667,0.336
		c0.288,0,0.512-0.099,0.673-0.296l0.019,0.252h0.37V3.33h-0.402V4.558z M27.572,6.032c-0.118,0.228-0.304,0.343-0.559,0.343
		c-0.194,0-0.347-0.075-0.457-0.226c-0.111-0.151-0.166-0.36-0.166-0.627c0-0.3,0.055-0.525,0.166-0.678
		c0.11-0.153,0.264-0.228,0.461-0.228c0.25,0,0.435,0.111,0.556,0.333V6.032z"/>
	<path class="st1" d="M29.45,4.275c-0.208,0-0.393,0.05-0.554,0.15c-0.162,0.101-0.288,0.244-0.379,0.428
		c-0.09,0.184-0.136,0.392-0.136,0.622c0,0,0,0.028,0,0.028c0,0.366,0.099,0.659,0.297,0.882c0.198,0.222,0.457,0.333,0.777,0.333
		c0.211,0,0.399-0.05,0.562-0.152c0.164-0.101,0.289-0.244,0.377-0.426c0.086-0.182,0.131-0.388,0.131-0.617V5.494
		c0-0.368-0.099-0.664-0.297-0.886C30.03,4.386,29.771,4.275,29.45,4.275z M29.942,6.148c-0.12,0.161-0.283,0.241-0.486,0.241
		c-0.204,0-0.366-0.079-0.486-0.237c-0.122-0.158-0.183-0.367-0.183-0.629c0-0.295,0.061-0.521,0.183-0.681
		c0.121-0.157,0.282-0.237,0.481-0.237c0.203,0,0.366,0.081,0.489,0.241c0.122,0.16,0.184,0.37,0.184,0.628
		C30.123,5.763,30.062,5.988,29.942,6.148z"/>
	<polygon class="st1" points="33.458,4.319 33.005,6.119 32.446,4.319 32.122,4.319 31.574,6.082 31.11,4.319 30.709,4.319 
		31.392,6.674 31.719,6.674 32.276,4.889 32.849,6.674 33.176,6.674 33.86,4.319 	"/>
</g>
</svg>
