<?xml version="1.0" encoding="utf-8"?>
<!-- Generator: Adobe Illustrator 21.1.0, SVG Export Plug-In . SVG Version: 6.00 Build 0)  -->
<svg version="1.1" id="Layer_1" xmlns="http://www.w3.org/2000/svg" xmlns:xlink="http://www.w3.org/1999/xlink" x="0px" y="0px"
	 viewBox="0 0 35 12" style="enable-background:new 0 0 35 12;" xml:space="preserve">
<style type="text/css">
	.st0{fill:#405575;}
	.st1{opacity:0.75;}
	.st2{fill:#C8DEFF;}
</style>
<rect x="-0.236" y="-1.5" class="st0" width="35.236" height="15"/>
<g class="st1">
	<polygon class="st2" points="13.045,2.924 10.539,5.43 8.033,2.924 7.418,3.538 9.925,6.044 7.418,8.551 8.033,9.165 10.539,6.659 
		13.045,9.165 13.659,8.551 11.153,6.044 13.659,3.538 	"/>
</g>
<g class="st1">
	<path class="st2" d="M18.976,6.691c-0.046,0.426-0.199,0.752-0.457,0.978c-0.258,0.226-0.602,0.339-1.032,0.339
		c-0.3,0-0.565-0.075-0.796-0.225c-0.231-0.15-0.409-0.362-0.535-0.637c-0.126-0.275-0.19-0.589-0.191-0.943V5.678
		c0-0.359,0.063-0.678,0.189-0.956c0.126-0.278,0.307-0.492,0.543-0.643c0.236-0.151,0.508-0.226,0.815-0.226
		c0.433,0,0.775,0.117,1.026,0.35c0.251,0.233,0.397,0.557,0.437,0.969h-0.344c-0.085-0.687-0.458-1.03-1.119-1.03
		c-0.367,0-0.659,0.137-0.876,0.412C16.419,4.827,16.31,5.206,16.31,5.69v0.495c0,0.467,0.106,0.839,0.318,1.117
		s0.499,0.417,0.86,0.417c0.357,0,0.627-0.086,0.808-0.257c0.182-0.172,0.293-0.428,0.336-0.771H18.976z"/>
	<path class="st2" d="M19.816,7.952h-0.333V3.686h0.333V7.952z"/>
	<path class="st2" d="M20.252,6.405c0-0.289,0.056-0.549,0.168-0.781c0.112-0.231,0.271-0.412,0.475-0.54
		c0.205-0.129,0.437-0.193,0.696-0.193c0.4,0,0.724,0.14,0.972,0.421c0.248,0.28,0.372,0.652,0.372,1.115v0.069
		c0,0.291-0.056,0.552-0.168,0.785c-0.112,0.232-0.27,0.412-0.474,0.537c-0.204,0.126-0.436,0.189-0.697,0.189
		c-0.398,0-0.722-0.14-0.971-0.421c-0.249-0.281-0.374-0.652-0.374-1.115V6.405z M20.585,6.497c0,0.359,0.093,0.654,0.279,0.885
		c0.186,0.231,0.43,0.346,0.732,0.346c0.3,0,0.543-0.115,0.729-0.346c0.186-0.231,0.279-0.535,0.279-0.913V6.405
		c0-0.23-0.043-0.44-0.128-0.631c-0.085-0.191-0.205-0.338-0.358-0.443c-0.154-0.105-0.33-0.157-0.528-0.157
		c-0.296,0-0.538,0.116-0.725,0.349c-0.187,0.232-0.281,0.536-0.281,0.912V6.497z"/>
	<path class="st2" d="M25.136,7.188c0-0.165-0.066-0.297-0.199-0.397c-0.132-0.1-0.332-0.178-0.599-0.235
		c-0.267-0.057-0.473-0.121-0.621-0.194c-0.147-0.073-0.256-0.162-0.328-0.268c-0.071-0.106-0.107-0.233-0.107-0.383
		c0-0.237,0.099-0.433,0.297-0.587c0.198-0.155,0.452-0.232,0.761-0.232c0.335,0,0.604,0.083,0.807,0.249
		c0.203,0.166,0.304,0.382,0.304,0.649H25.12c0-0.176-0.074-0.322-0.221-0.439c-0.147-0.117-0.333-0.175-0.557-0.175
		c-0.219,0-0.394,0.049-0.526,0.146c-0.133,0.097-0.199,0.223-0.199,0.379c0,0.15,0.055,0.266,0.165,0.348
		c0.11,0.083,0.311,0.158,0.602,0.226c0.292,0.069,0.51,0.142,0.656,0.22s0.253,0.171,0.323,0.28
		c0.07,0.109,0.106,0.242,0.106,0.397c0,0.254-0.102,0.456-0.307,0.608c-0.205,0.152-0.472,0.228-0.801,0.228
		c-0.35,0-0.634-0.085-0.851-0.254c-0.218-0.169-0.326-0.384-0.326-0.643h0.333c0.013,0.194,0.095,0.346,0.246,0.454
		c0.151,0.108,0.351,0.162,0.599,0.162c0.232,0,0.419-0.051,0.561-0.153C25.065,7.473,25.136,7.344,25.136,7.188z"/>
	<path class="st2" d="M27.096,8.008c-0.255,0-0.486-0.063-0.693-0.189s-0.367-0.301-0.482-0.526
		c-0.115-0.225-0.172-0.477-0.172-0.757V6.416c0-0.289,0.056-0.549,0.168-0.781c0.112-0.231,0.268-0.413,0.468-0.546
		c0.2-0.133,0.417-0.199,0.65-0.199c0.365,0,0.654,0.124,0.868,0.373c0.214,0.249,0.321,0.589,0.321,1.021v0.186H26.08v0.064
		c0,0.341,0.098,0.625,0.293,0.851c0.195,0.227,0.441,0.34,0.737,0.34c0.177,0,0.334-0.032,0.471-0.097
		c0.136-0.065,0.259-0.169,0.371-0.311l0.208,0.158C27.915,7.831,27.561,8.008,27.096,8.008z M27.035,5.175
		c-0.25,0-0.461,0.091-0.632,0.275c-0.171,0.184-0.275,0.43-0.312,0.739h1.803V6.152c-0.009-0.289-0.091-0.524-0.247-0.705
		C27.49,5.266,27.287,5.175,27.035,5.175z"/>
</g>
</svg>
