<?xml version="1.0" encoding="utf-8"?>
<!-- Generator: Adobe Illustrator 21.1.0, SVG Export Plug-In . SVG Version: 6.00 Build 0)  -->
<svg version="1.1" id="Layer_1" xmlns="http://www.w3.org/2000/svg" xmlns:xlink="http://www.w3.org/1999/xlink" x="0px" y="0px"
	 viewBox="0 0 35 12" style="enable-background:new 0 0 35 12;" xml:space="preserve">
<style type="text/css">
	.st0{fill:#C50F3C;}
</style>
<g>
	<g>
		<polygon class="st0" points="4.804,0.461 2.833,2.432 0.863,0.461 0.379,0.944 2.35,2.915 0.379,4.886 0.863,5.369 2.833,3.398 
			4.804,5.369 5.287,4.886 3.316,2.915 5.287,0.944 		"/>
		<path class="st0" d="M4.804,5.723L2.833,3.752L0.863,5.723L0.025,4.886l1.972-1.972L0.025,0.944l0.838-0.836l1.971,1.971
			l1.971-1.971l0.836,0.836L3.67,2.915l1.971,1.972L4.804,5.723z M0.732,4.886l0.13,0.129l1.971-1.971l1.971,1.971l0.129-0.129
			L2.963,2.915l1.971-1.971L4.804,0.814L2.833,2.785L0.863,0.814l-0.13,0.129l1.971,1.971L0.732,4.886z"/>
	</g>
</g>
<g>
	<path class="st0" d="M9.345,3.506C9.304,3.86,9.173,4.133,8.954,4.325c-0.22,0.192-0.512,0.288-0.876,0.288
		c-0.395,0-0.712-0.142-0.95-0.425C6.89,3.905,6.771,3.526,6.771,3.052V2.73c0-0.311,0.055-0.584,0.167-0.82
		C7.048,1.674,7.206,1.494,7.41,1.367c0.203-0.126,0.439-0.189,0.707-0.189c0.355,0,0.639,0.099,0.854,0.297
		C9.185,1.674,9.31,1.948,9.345,2.299H8.902C8.864,2.031,8.781,1.838,8.653,1.718c-0.128-0.12-0.306-0.179-0.536-0.179
		c-0.282,0-0.503,0.104-0.663,0.313c-0.16,0.208-0.24,0.505-0.24,0.889v0.324c0,0.363,0.076,0.652,0.227,0.866
		c0.152,0.215,0.364,0.322,0.636,0.322c0.245,0,0.432-0.055,0.563-0.166c0.131-0.111,0.218-0.305,0.261-0.58H9.345z"/>
	<path class="st0" d="M10.224,4.567H9.799V1.04h0.425V4.567z"/>
	<path class="st0" d="M10.673,3.302c0-0.243,0.048-0.462,0.143-0.656c0.096-0.194,0.229-0.345,0.4-0.451
		c0.171-0.105,0.366-0.158,0.585-0.158c0.338,0,0.612,0.117,0.821,0.351c0.209,0.234,0.313,0.546,0.313,0.934v0.03
		c0,0.242-0.046,0.459-0.138,0.651c-0.093,0.192-0.225,0.342-0.398,0.449c-0.172,0.107-0.37,0.16-0.593,0.16
		c-0.337,0-0.61-0.117-0.819-0.351c-0.209-0.235-0.313-0.544-0.313-0.93V3.302z M11.101,3.353c0,0.276,0.064,0.496,0.192,0.663
		c0.128,0.167,0.298,0.25,0.513,0.25c0.216,0,0.388-0.084,0.515-0.254c0.126-0.169,0.19-0.406,0.19-0.711
		c0-0.272-0.064-0.493-0.194-0.662c-0.13-0.169-0.301-0.254-0.515-0.254c-0.21,0-0.379,0.084-0.508,0.25
		C11.165,2.803,11.101,3.042,11.101,3.353z"/>
	<path class="st0" d="M14.797,3.908c0-0.115-0.043-0.204-0.13-0.267c-0.087-0.064-0.237-0.118-0.452-0.164s-0.386-0.101-0.512-0.165
		c-0.126-0.064-0.22-0.141-0.28-0.23c-0.06-0.089-0.091-0.194-0.091-0.317c0-0.203,0.086-0.376,0.258-0.517
		c0.172-0.14,0.393-0.211,0.66-0.211c0.282,0,0.51,0.072,0.686,0.218c0.175,0.145,0.262,0.332,0.262,0.558h-0.427
		c0-0.116-0.05-0.216-0.149-0.301c-0.099-0.084-0.223-0.126-0.373-0.126c-0.154,0-0.276,0.034-0.362,0.101
		c-0.087,0.067-0.131,0.155-0.131,0.264c0,0.103,0.04,0.179,0.121,0.232c0.081,0.052,0.228,0.102,0.44,0.149
		c0.212,0.048,0.384,0.104,0.515,0.17c0.132,0.066,0.23,0.145,0.293,0.238c0.064,0.092,0.096,0.206,0.096,0.339
		c0,0.222-0.089,0.4-0.266,0.534c-0.178,0.134-0.408,0.201-0.692,0.201c-0.199,0-0.375-0.035-0.528-0.106
		c-0.153-0.07-0.273-0.169-0.359-0.295c-0.087-0.126-0.13-0.263-0.13-0.41h0.425c0.008,0.142,0.065,0.255,0.171,0.339
		c0.106,0.084,0.247,0.125,0.421,0.125c0.161,0,0.29-0.033,0.387-0.098C14.749,4.104,14.797,4.016,14.797,3.908z"/>
	<path class="st0" d="M16.688,4.613c-0.337,0-0.61-0.111-0.822-0.332c-0.211-0.221-0.317-0.517-0.317-0.888V3.315
		c0-0.246,0.047-0.466,0.142-0.66c0.094-0.194,0.226-0.345,0.395-0.454c0.169-0.109,0.353-0.164,0.55-0.164
		c0.323,0,0.575,0.106,0.753,0.319c0.179,0.213,0.269,0.517,0.269,0.914v0.177h-1.683c0.006,0.245,0.078,0.443,0.215,0.594
		c0.137,0.15,0.311,0.226,0.522,0.226c0.15,0,0.277-0.031,0.381-0.092c0.104-0.061,0.195-0.142,0.273-0.244l0.259,0.202
		C17.417,4.453,17.105,4.613,16.688,4.613z M16.636,2.385c-0.171,0-0.315,0.062-0.432,0.188c-0.116,0.125-0.188,0.3-0.216,0.525
		h1.245V3.065c-0.012-0.216-0.07-0.383-0.174-0.502C16.954,2.445,16.814,2.385,16.636,2.385z"/>
	<path class="st0" d="M19.865,3.513l0.064,0.441l0.094-0.398l0.662-2.333h0.371l0.646,2.333l0.092,0.405l0.07-0.451l0.52-2.287
		h0.443l-0.81,3.343h-0.401l-0.69-2.436l-0.053-0.255L20.82,2.131l-0.714,2.436h-0.401l-0.809-3.343h0.442L19.865,3.513z"/>
	<path class="st0" d="M23.134,1.423c0-0.069,0.021-0.127,0.063-0.174c0.043-0.047,0.104-0.071,0.188-0.071
		c0.083,0,0.146,0.024,0.189,0.071c0.043,0.047,0.064,0.106,0.064,0.174c0,0.069-0.021,0.126-0.064,0.172
		c-0.043,0.046-0.106,0.069-0.189,0.069c-0.083,0-0.145-0.023-0.188-0.069C23.156,1.55,23.134,1.492,23.134,1.423z M23.594,4.567
		H23.17V2.083h0.424V4.567z"/>
	<path class="st0" d="M24.558,2.083l0.014,0.312c0.189-0.239,0.438-0.358,0.744-0.358c0.525,0,0.789,0.296,0.794,0.888v1.642h-0.424
		V2.923c-0.003-0.179-0.043-0.311-0.123-0.397s-0.205-0.128-0.375-0.128c-0.138,0-0.259,0.036-0.364,0.11
		c-0.103,0.073-0.185,0.17-0.243,0.289v1.77h-0.425V2.083H24.558z"/>
	<path class="st0" d="M26.529,3.304c0-0.381,0.091-0.688,0.272-0.92c0.18-0.232,0.417-0.347,0.709-0.347
		c0.292,0,0.522,0.099,0.692,0.298V1.04h0.424v3.527h-0.39l-0.02-0.266c-0.17,0.208-0.406,0.312-0.71,0.312
		c-0.288,0-0.522-0.118-0.703-0.354c-0.182-0.236-0.273-0.544-0.273-0.923V3.304z M26.954,3.353c0,0.281,0.058,0.502,0.175,0.661
		c0.116,0.159,0.277,0.238,0.482,0.238c0.269,0,0.466-0.121,0.59-0.362V2.748c-0.127-0.234-0.322-0.351-0.586-0.351
		c-0.208,0-0.37,0.08-0.486,0.241C27.012,2.799,26.954,3.037,26.954,3.353z"/>
	<path class="st0" d="M29.054,3.302c0-0.243,0.048-0.462,0.143-0.656c0.096-0.194,0.229-0.345,0.4-0.451
		c0.17-0.105,0.365-0.158,0.584-0.158c0.339,0,0.612,0.117,0.821,0.351c0.209,0.234,0.313,0.546,0.313,0.934v0.03
		c0,0.242-0.047,0.459-0.138,0.651c-0.093,0.192-0.225,0.342-0.398,0.449c-0.172,0.107-0.37,0.16-0.593,0.16
		c-0.337,0-0.61-0.117-0.819-0.351c-0.209-0.235-0.313-0.544-0.313-0.93V3.302z M29.481,3.353c0,0.276,0.064,0.496,0.193,0.663
		c0.127,0.167,0.298,0.25,0.513,0.25s0.386-0.084,0.513-0.254c0.127-0.169,0.191-0.406,0.191-0.711c0-0.272-0.065-0.493-0.194-0.662
		c-0.13-0.169-0.302-0.254-0.516-0.254c-0.21,0-0.379,0.084-0.507,0.25C29.545,2.803,29.481,3.042,29.481,3.353z"/>
	<path class="st0" d="M33.931,3.981l0.478-1.898h0.424l-0.722,2.484h-0.345l-0.604-1.883l-0.588,1.883H32.23l-0.721-2.484h0.423
		l0.49,1.859L33,2.083h0.341L33.931,3.981z"/>
</g>
</svg>
