<?xml version="1.0" encoding="utf-8"?>
<!-- Generator: Adobe Illustrator 21.1.0, SVG Export Plug-In . SVG Version: 6.00 Build 0)  -->
<svg version="1.1" id="Layer_1" xmlns="http://www.w3.org/2000/svg" xmlns:xlink="http://www.w3.org/1999/xlink" x="0px" y="0px"
	 viewBox="0 0 35 12" style="enable-background:new 0 0 35 12;" xml:space="preserve">
<style type="text/css">
	.st0{fill:#C50F3C;stroke:#C50F3C;stroke-width:0.5;stroke-miterlimit:10;}
	.st1{fill:#C50F3C;}
</style>
<g>
	<polygon class="st0" points="5.304,0.461 3.333,2.432 1.363,0.461 0.879,0.944 2.85,2.915 0.879,4.886 1.363,5.369 3.333,3.398 
		5.304,5.369 5.787,4.886 3.816,2.915 5.787,0.944 	"/>
</g>
<g>
	<path class="st1" d="M10.168,3.313c-0.039,0.332-0.161,0.588-0.367,0.768c-0.206,0.18-0.48,0.27-0.822,0.27
		c-0.371,0-0.668-0.133-0.891-0.399C7.864,3.688,7.753,3.332,7.753,2.887V2.585c0-0.292,0.052-0.548,0.156-0.769
		c0.104-0.221,0.252-0.391,0.443-0.51c0.191-0.119,0.412-0.178,0.664-0.178c0.333,0,0.6,0.093,0.801,0.279
		c0.201,0.187,0.318,0.444,0.351,0.773H9.752C9.716,1.929,9.638,1.748,9.519,1.635c-0.12-0.112-0.288-0.168-0.503-0.168
		c-0.265,0-0.472,0.097-0.622,0.293c-0.15,0.195-0.225,0.474-0.225,0.834v0.304c0,0.341,0.071,0.612,0.213,0.813
		c0.142,0.201,0.341,0.302,0.597,0.302c0.23,0,0.406-0.052,0.528-0.156C9.63,3.753,9.712,3.572,9.752,3.313H10.168z"/>
	<path class="st1" d="M10.992,4.309h-0.399V1h0.399V4.309z"/>
	<path class="st1" d="M11.414,3.121c0-0.228,0.045-0.433,0.135-0.616s0.215-0.324,0.375-0.423c0.16-0.099,0.343-0.148,0.548-0.148
		c0.317,0,0.574,0.11,0.77,0.329c0.196,0.22,0.294,0.512,0.294,0.877v0.028c0,0.227-0.043,0.43-0.13,0.61
		c-0.087,0.18-0.211,0.321-0.373,0.422c-0.161,0.1-0.347,0.151-0.557,0.151c-0.316,0-0.572-0.11-0.768-0.329
		c-0.196-0.22-0.294-0.511-0.294-0.873V3.121z M11.815,3.169c0,0.259,0.06,0.466,0.18,0.622c0.12,0.156,0.28,0.235,0.481,0.235
		c0.203,0,0.364-0.079,0.483-0.238c0.119-0.159,0.178-0.381,0.178-0.667c0-0.256-0.06-0.463-0.182-0.621
		c-0.122-0.159-0.283-0.239-0.484-0.239c-0.197,0-0.355,0.079-0.476,0.235C11.876,2.653,11.815,2.878,11.815,3.169z"/>
	<path class="st1" d="M15.284,3.691c0-0.108-0.041-0.191-0.122-0.251c-0.081-0.06-0.223-0.111-0.425-0.154
		c-0.202-0.043-0.362-0.095-0.481-0.155c-0.119-0.06-0.206-0.132-0.263-0.216S13.91,2.732,13.91,2.617
		c0-0.191,0.081-0.352,0.242-0.485c0.162-0.132,0.368-0.198,0.619-0.198c0.265,0,0.479,0.068,0.644,0.204
		c0.164,0.136,0.246,0.311,0.246,0.524h-0.4c0-0.109-0.047-0.203-0.139-0.282c-0.093-0.079-0.209-0.119-0.35-0.119
		c-0.145,0-0.259,0.032-0.34,0.095c-0.082,0.063-0.123,0.146-0.123,0.248c0,0.096,0.038,0.168,0.114,0.217
		c0.076,0.049,0.214,0.096,0.413,0.14c0.199,0.045,0.36,0.098,0.484,0.159c0.123,0.062,0.216,0.136,0.275,0.223
		c0.06,0.087,0.09,0.193,0.09,0.318c0,0.208-0.083,0.376-0.25,0.501c-0.167,0.126-0.383,0.188-0.649,0.188
		c-0.187,0-0.352-0.033-0.495-0.099s-0.256-0.158-0.337-0.277C13.87,3.858,13.83,3.729,13.83,3.591h0.399
		c0.007,0.133,0.061,0.24,0.161,0.318c0.1,0.079,0.231,0.117,0.395,0.117c0.151,0,0.272-0.031,0.363-0.092
		C15.239,3.874,15.284,3.792,15.284,3.691z"/>
	<path class="st1" d="M17.058,4.352c-0.316,0-0.573-0.104-0.771-0.311c-0.198-0.208-0.298-0.485-0.298-0.833V3.134
		c0-0.231,0.044-0.437,0.133-0.619c0.088-0.182,0.212-0.324,0.37-0.426c0.159-0.103,0.331-0.154,0.516-0.154
		c0.303,0,0.539,0.1,0.707,0.299c0.168,0.2,0.252,0.485,0.252,0.857v0.166h-1.579c0.006,0.23,0.073,0.416,0.202,0.557
		c0.128,0.141,0.292,0.212,0.49,0.212c0.141,0,0.26-0.029,0.358-0.086c0.097-0.057,0.183-0.133,0.256-0.228l0.243,0.19
		C17.742,4.202,17.449,4.352,17.058,4.352z M17.009,2.262c-0.161,0-0.296,0.058-0.405,0.176c-0.109,0.117-0.177,0.281-0.203,0.492
		h1.168V2.899c-0.011-0.203-0.066-0.359-0.164-0.471C17.307,2.318,17.176,2.262,17.009,2.262z"/>
	<path class="st1" d="M20.039,3.32l0.06,0.414l0.089-0.373l0.621-2.189h0.348l0.606,2.189l0.086,0.38l0.066-0.423l0.488-2.146h0.416
		l-0.76,3.137h-0.377l-0.647-2.286l-0.05-0.239l-0.05,0.239l-0.67,2.286h-0.377l-0.759-3.137h0.414L20.039,3.32z"/>
	<path class="st1" d="M23.106,1.359c0-0.064,0.02-0.119,0.059-0.164c0.04-0.044,0.098-0.067,0.176-0.067s0.137,0.022,0.177,0.067
		c0.04,0.044,0.06,0.099,0.06,0.164c0,0.065-0.02,0.119-0.06,0.162c-0.04,0.043-0.099,0.064-0.177,0.064s-0.136-0.021-0.176-0.064
		C23.126,1.478,23.106,1.424,23.106,1.359z M23.537,4.309h-0.398V1.978h0.398V4.309z"/>
	<path class="st1" d="M24.442,1.978l0.013,0.293c0.177-0.224,0.411-0.336,0.698-0.336c0.492,0,0.74,0.277,0.745,0.834v1.54H25.5
		V2.766c-0.002-0.168-0.04-0.292-0.116-0.373s-0.192-0.12-0.352-0.12c-0.13,0-0.243,0.034-0.341,0.103
		c-0.097,0.068-0.174,0.159-0.228,0.272v1.661h-0.399V1.978H24.442z"/>
	<path class="st1" d="M26.291,3.124c0-0.358,0.085-0.645,0.255-0.863c0.169-0.217,0.391-0.326,0.665-0.326
		c0.274,0,0.49,0.093,0.649,0.28V1h0.398v3.309h-0.366l-0.019-0.25c-0.159,0.195-0.381,0.293-0.666,0.293
		c-0.27,0-0.49-0.11-0.66-0.332c-0.171-0.221-0.256-0.51-0.256-0.866V3.124z M26.69,3.169c0,0.264,0.054,0.471,0.164,0.621
		c0.109,0.149,0.26,0.224,0.452,0.224c0.253,0,0.437-0.113,0.554-0.34V2.602c-0.119-0.22-0.302-0.329-0.55-0.329
		c-0.195,0-0.347,0.075-0.456,0.226C26.745,2.65,26.69,2.873,26.69,3.169z"/>
	<path class="st1" d="M28.661,3.121c0-0.228,0.045-0.433,0.135-0.616s0.215-0.324,0.376-0.423c0.159-0.099,0.342-0.148,0.548-0.148
		c0.318,0,0.574,0.11,0.77,0.329c0.196,0.22,0.294,0.512,0.294,0.877v0.028c0,0.227-0.044,0.43-0.13,0.61
		C30.566,3.96,30.442,4.1,30.28,4.201c-0.162,0.1-0.347,0.151-0.556,0.151c-0.316,0-0.573-0.11-0.769-0.329
		c-0.196-0.22-0.294-0.511-0.294-0.873V3.121z M29.061,3.169c0,0.259,0.06,0.466,0.181,0.622c0.119,0.156,0.28,0.235,0.482,0.235
		s0.363-0.079,0.482-0.238c0.119-0.159,0.179-0.381,0.179-0.667c0-0.256-0.061-0.463-0.182-0.621
		c-0.122-0.159-0.283-0.239-0.484-0.239c-0.197,0-0.355,0.079-0.476,0.235C29.122,2.653,29.061,2.878,29.061,3.169z"/>
	<path class="st1" d="M33.237,3.759l0.449-1.781h0.398l-0.678,2.331h-0.324l-0.567-1.767l-0.551,1.767H31.64l-0.677-2.331h0.397
		l0.459,1.745l0.543-1.745h0.32L33.237,3.759z"/>
</g>
</svg>
