<?xml version="1.0" encoding="utf-8"?>
<!-- Generator: Adobe Illustrator 22.1.0, SVG Export Plug-In . SVG Version: 6.00 Build 0)  -->
<svg version="1.1" id="Layer_1" xmlns="http://www.w3.org/2000/svg" xmlns:xlink="http://www.w3.org/1999/xlink" x="0px" y="0px"
	 viewBox="0 0 50 50" style="enable-background:new 0 0 50 50;" xml:space="preserve">
<style type="text/css">
	.st0{fill:#FFFFFF;}
	.st1{fill:#758593;enable-background:new    ;}
	.st2{fill:url(#SVGID_1_);}
	.st3{fill:url(#SVGID_2_);}
	.st4{fill:url(#SVGID_3_);}
	.st5{fill:#F6F6F6;}
	.st6{fill:#00B2E2;}
	.st7{opacity:0.51;}
	.st8{fill:#217CC1;}
	.st9{opacity:0.33;fill:#FFFFFF;enable-background:new    ;}
</style>
<g>
	<g>
		<path class="st0" d="M3.116,33.662C2.938,33.55,2.733,33.495,2.5,33.495s-0.438,0.057-0.616,0.171
			c-0.179,0.114-0.316,0.277-0.414,0.489c-0.097,0.212-0.146,0.456-0.146,0.731v0.311c0,0.429,0.109,0.769,0.326,1.022
			c0.217,0.252,0.502,0.379,0.855,0.379c0.234,0,0.44-0.057,0.618-0.17c0.178-0.113,0.316-0.275,0.412-0.485
			c0.096-0.21,0.144-0.454,0.144-0.732v-0.361c-0.004-0.27-0.055-0.507-0.151-0.712C3.43,33.933,3.293,33.775,3.116,33.662z
			 M3.424,35.202c0,0.369-0.081,0.657-0.243,0.864c-0.162,0.207-0.387,0.31-0.676,0.31c-0.285,0-0.51-0.105-0.676-0.314
			s-0.249-0.493-0.249-0.852v-0.315c0-0.371,0.083-0.659,0.25-0.866c0.167-0.207,0.39-0.31,0.671-0.31
			c0.286,0,0.512,0.103,0.676,0.309c0.164,0.206,0.247,0.491,0.247,0.855C3.424,34.883,3.424,35.202,3.424,35.202z"/>
		<polygon class="st0" points="6.211,36.123 4.473,33.536 4.215,33.536 4.215,36.556 4.473,36.556 4.473,33.971 6.209,36.556 
			6.464,36.556 6.464,33.536 6.211,33.536 		"/>
		<polygon class="st0" points="7.383,33.536 7.125,33.536 7.125,36.556 8.874,36.556 8.874,36.34 7.383,36.34 		"/>
		<rect x="9.314" y="33.536" class="st0" width="0.255" height="3.02"/>
		<polygon class="st0" points="10.539,33.971 12.275,36.556 12.531,36.556 12.531,33.536 12.278,33.536 12.278,36.123 
			10.539,33.536 10.282,33.536 10.282,36.556 10.539,36.556 		"/>
		<polygon class="st0" points="15.072,36.34 13.447,36.34 13.447,35.108 14.86,35.108 14.86,34.893 13.447,34.893 13.447,33.752 
			15.061,33.752 15.061,33.536 13.192,33.536 13.192,36.556 15.072,36.556 		"/>
		<path class="st0" d="M18.212,35.095c0.175-0.154,0.262-0.373,0.262-0.657c0-0.281-0.091-0.501-0.273-0.662
			c-0.182-0.161-0.43-0.241-0.744-0.241h-1.029v3.02h0.255v-1.23h0.768C17.784,35.326,18.037,35.249,18.212,35.095z M16.685,33.752
			h0.79c0.238,0.003,0.421,0.066,0.551,0.19c0.129,0.124,0.194,0.29,0.194,0.5c0,0.211-0.065,0.375-0.195,0.492
			c-0.13,0.118-0.319,0.177-0.566,0.177h-0.774L16.685,33.752L16.685,33.752z"/>
		<path class="st0" d="M21.069,36.529l-0.755-1.286c0.191-0.057,0.343-0.159,0.456-0.307c0.113-0.148,0.17-0.318,0.17-0.512
			c0-0.28-0.091-0.498-0.272-0.655c-0.181-0.156-0.433-0.234-0.755-0.234h-0.981v3.02h0.257v-1.259h0.878l0.73,1.259h0.272
			L21.069,36.529C21.07,36.529,21.069,36.529,21.069,36.529z M19.972,35.081H19.19v-1.33h0.72c0.245,0,0.435,0.059,0.57,0.177
			c0.135,0.118,0.203,0.283,0.203,0.497c0,0.194-0.065,0.352-0.195,0.474C20.359,35.02,20.186,35.081,19.972,35.081z"/>
		<path class="st0" d="M23.198,33.662c-0.178-0.112-0.383-0.168-0.615-0.168s-0.438,0.057-0.616,0.171
			c-0.179,0.114-0.316,0.277-0.414,0.489c-0.097,0.212-0.146,0.456-0.146,0.731v0.311c0,0.429,0.109,0.769,0.326,1.022
			c0.217,0.252,0.502,0.379,0.855,0.379c0.234,0,0.44-0.057,0.618-0.17c0.178-0.113,0.316-0.275,0.412-0.485
			c0.096-0.21,0.144-0.454,0.144-0.732v-0.361c-0.004-0.27-0.055-0.507-0.151-0.712C23.513,33.933,23.376,33.775,23.198,33.662z
			 M23.506,35.202c0,0.369-0.081,0.657-0.243,0.864c-0.162,0.207-0.387,0.31-0.676,0.31c-0.285,0-0.51-0.105-0.676-0.314
			c-0.166-0.209-0.249-0.493-0.249-0.852v-0.315c0-0.371,0.083-0.659,0.25-0.866c0.167-0.207,0.39-0.31,0.671-0.31
			c0.286,0,0.512,0.103,0.676,0.309c0.164,0.206,0.247,0.491,0.247,0.855C23.506,34.883,23.506,35.202,23.506,35.202z"/>
		<polygon class="st0" points="24.298,36.556 24.554,36.556 24.554,35.144 25.962,35.144 25.962,34.928 24.554,34.928 
			24.554,33.752 26.17,33.752 26.17,33.536 24.298,33.536 		"/>
		<polygon class="st0" points="28.461,36.34 26.837,36.34 26.837,35.108 28.25,35.108 28.25,34.893 26.837,34.893 26.837,33.752 
			28.451,33.752 28.451,33.536 26.582,33.536 26.582,36.556 28.461,36.556 		"/>
		<path class="st0" d="M30.859,35.81c0-0.151-0.035-0.281-0.106-0.392s-0.176-0.206-0.315-0.285c-0.14-0.08-0.345-0.156-0.616-0.231
			s-0.468-0.16-0.591-0.257c-0.123-0.097-0.185-0.222-0.185-0.376c0-0.166,0.068-0.301,0.206-0.404
			c0.137-0.103,0.321-0.155,0.552-0.155c0.238,0,0.427,0.063,0.569,0.188c0.141,0.126,0.212,0.292,0.212,0.498h0.257
			c0-0.17-0.044-0.324-0.131-0.463c-0.087-0.138-0.21-0.246-0.368-0.324c-0.158-0.077-0.338-0.116-0.538-0.116
			c-0.296,0-0.539,0.072-0.729,0.217c-0.19,0.145-0.285,0.332-0.285,0.563c0,0.238,0.102,0.43,0.307,0.577
			c0.144,0.104,0.372,0.199,0.685,0.287c0.312,0.088,0.527,0.18,0.645,0.278c0.118,0.097,0.176,0.23,0.176,0.397
			c0,0.171-0.071,0.309-0.214,0.413s-0.331,0.156-0.566,0.156c-0.264,0-0.476-0.062-0.635-0.185
			c-0.159-0.123-0.238-0.291-0.238-0.504h-0.255c0,0.177,0.046,0.334,0.138,0.471c0.092,0.137,0.227,0.244,0.405,0.319
			c0.178,0.076,0.373,0.114,0.586,0.114c0.311,0,0.562-0.072,0.752-0.216C30.764,36.238,30.859,36.047,30.859,35.81z"/>
		<path class="st0" d="M32.798,36.226c-0.142,0.104-0.331,0.156-0.566,0.156c-0.264,0-0.476-0.062-0.635-0.185
			c-0.159-0.123-0.238-0.291-0.238-0.504h-0.255c0,0.177,0.046,0.334,0.138,0.471c0.092,0.137,0.227,0.244,0.405,0.319
			c0.178,0.076,0.373,0.114,0.586,0.114c0.311,0,0.562-0.072,0.752-0.216c0.19-0.144,0.285-0.335,0.285-0.572
			c0-0.151-0.035-0.281-0.106-0.392s-0.176-0.206-0.315-0.285c-0.14-0.08-0.345-0.156-0.616-0.231
			c-0.271-0.074-0.468-0.16-0.591-0.257c-0.123-0.097-0.185-0.222-0.185-0.376c0-0.166,0.068-0.301,0.206-0.404
			c0.137-0.103,0.321-0.155,0.552-0.155c0.238,0,0.427,0.063,0.569,0.188c0.141,0.126,0.212,0.292,0.212,0.498h0.257
			c0-0.17-0.044-0.324-0.131-0.463c-0.087-0.138-0.21-0.246-0.368-0.324c-0.158-0.077-0.338-0.116-0.538-0.116
			c-0.296,0-0.539,0.072-0.729,0.217c-0.19,0.145-0.285,0.332-0.285,0.563c0,0.238,0.102,0.43,0.307,0.577
			c0.144,0.104,0.372,0.199,0.685,0.287c0.312,0.088,0.527,0.18,0.645,0.278c0.118,0.097,0.176,0.23,0.176,0.397
			C33.012,35.985,32.941,36.123,32.798,36.226z"/>
		<rect x="33.769" y="33.536" class="st0" width="0.255" height="3.02"/>
		<path class="st0" d="M35.795,36.598c0.234,0,0.44-0.057,0.618-0.17c0.178-0.113,0.316-0.275,0.412-0.485
			c0.096-0.21,0.144-0.454,0.144-0.732v-0.361c-0.004-0.27-0.055-0.507-0.151-0.712c-0.097-0.205-0.234-0.363-0.412-0.475
			c-0.178-0.112-0.383-0.168-0.615-0.168s-0.438,0.057-0.616,0.171c-0.179,0.114-0.316,0.277-0.414,0.489
			c-0.097,0.212-0.146,0.456-0.146,0.731v0.311c0,0.429,0.109,0.769,0.326,1.022C35.157,36.472,35.442,36.598,35.795,36.598z
			 M34.87,34.895c0-0.371,0.083-0.659,0.25-0.866c0.167-0.207,0.39-0.31,0.671-0.31c0.286,0,0.512,0.103,0.676,0.309
			c0.164,0.206,0.247,0.491,0.247,0.855v0.319c0,0.369-0.081,0.657-0.243,0.864c-0.162,0.207-0.387,0.31-0.676,0.31
			c-0.285,0-0.51-0.105-0.676-0.314s-0.249-0.493-0.249-0.852V34.895z"/>
		<polygon class="st0" points="39.501,36.123 37.763,33.536 37.506,33.536 37.506,36.556 37.763,36.556 37.763,33.971 
			39.499,36.556 39.755,36.556 39.755,33.536 39.501,33.536 		"/>
		<path class="st0" d="M41.277,33.536l-1.143,3.02h0.268l0.311-0.849h1.371l0.313,0.849h0.266l-1.143-3.02H41.277z M40.791,35.492
			l0.606-1.645l0.606,1.645H40.791z"/>
		<polygon class="st0" points="43.258,36.34 43.258,33.536 43,33.536 43,36.556 44.749,36.556 44.749,36.34 		"/>
		<path class="st0" d="M10.717,37.88c-0.196-0.113-0.418-0.169-0.666-0.169H9.207v3.02h0.826c0.257,0,0.485-0.057,0.684-0.17
			c0.199-0.113,0.352-0.274,0.462-0.483c0.109-0.209,0.164-0.448,0.164-0.718v-0.278c0-0.268-0.055-0.508-0.165-0.718
			C11.067,38.154,10.913,37.993,10.717,37.88z M11.088,39.343c0,0.36-0.096,0.645-0.288,0.856c-0.192,0.211-0.447,0.317-0.765,0.317
			H9.462v-2.589h0.593c0.31,0.001,0.559,0.106,0.749,0.315c0.189,0.209,0.284,0.487,0.284,0.835L11.088,39.343L11.088,39.343z"/>
		<polygon class="st0" points="12.138,39.284 13.55,39.284 13.55,39.068 12.138,39.068 12.138,37.927 13.751,37.927 13.751,37.711 
			11.883,37.711 11.883,40.732 13.762,40.732 13.762,40.516 12.138,40.516 		"/>
		<polygon class="st0" points="15.139,40.358 15.12,40.423 15.104,40.358 14.153,37.711 13.876,37.711 15,40.732 15.245,40.732 
			16.369,37.711 16.089,37.711 		"/>
		<polygon class="st0" points="16.962,39.284 18.375,39.284 18.375,39.068 16.962,39.068 16.962,37.927 18.576,37.927 
			18.576,37.711 16.707,37.711 16.707,40.732 18.586,40.732 18.586,40.516 16.962,40.516 		"/>
		<polygon class="st0" points="19.274,37.711 19.017,37.711 19.017,40.732 20.766,40.732 20.766,40.516 19.274,40.516 		"/>
		<path class="st0" d="M22.683,37.838c-0.178-0.112-0.383-0.168-0.615-0.168s-0.438,0.057-0.616,0.171
			c-0.179,0.114-0.316,0.277-0.414,0.489c-0.097,0.212-0.146,0.456-0.146,0.731v0.311c0,0.429,0.109,0.769,0.326,1.022
			s0.502,0.379,0.855,0.379c0.234,0,0.44-0.057,0.618-0.17s0.316-0.275,0.412-0.485c0.096-0.21,0.144-0.454,0.144-0.732v-0.361
			c-0.004-0.27-0.055-0.507-0.151-0.712C22.998,38.108,22.861,37.95,22.683,37.838z M22.991,39.377c0,0.369-0.081,0.657-0.243,0.864
			c-0.162,0.207-0.387,0.31-0.676,0.31c-0.285,0-0.51-0.105-0.676-0.314c-0.166-0.209-0.249-0.493-0.249-0.852V39.07
			c0-0.371,0.083-0.659,0.25-0.866c0.167-0.207,0.39-0.31,0.671-0.31c0.286,0,0.512,0.103,0.676,0.309
			c0.164,0.206,0.247,0.491,0.247,0.855C22.991,39.058,22.991,39.377,22.991,39.377z"/>
		<path class="st0" d="M24.812,37.711h-1.029v3.02h0.255v-1.23h0.768c0.332,0,0.585-0.077,0.76-0.231
			c0.175-0.154,0.262-0.373,0.262-0.657c0-0.281-0.091-0.501-0.273-0.662C25.374,37.791,25.126,37.711,24.812,37.711z
			 M25.379,39.109c-0.13,0.118-0.319,0.177-0.566,0.177h-0.774v-1.359h0.79c0.238,0.003,0.421,0.066,0.551,0.19
			c0.129,0.124,0.194,0.29,0.194,0.5C25.574,38.827,25.509,38.991,25.379,39.109z"/>
		<polygon class="st0" points="27.745,40.377 26.631,37.711 26.293,37.711 26.293,40.732 26.548,40.732 26.548,39.408 
			26.528,38.078 27.648,40.732 27.845,40.732 28.969,38.068 28.948,39.416 28.948,40.732 29.204,40.732 29.204,37.711 
			28.863,37.711 		"/>
		<polygon class="st0" points="30.118,39.284 31.531,39.284 31.531,39.068 30.118,39.068 30.118,37.927 31.732,37.927 
			31.732,37.711 29.863,37.711 29.863,40.732 31.742,40.732 31.742,40.516 30.118,40.516 		"/>
		<polygon class="st0" points="34.169,40.298 32.431,37.711 32.173,37.711 32.173,40.732 32.431,40.732 32.431,38.147 
			34.167,40.732 34.422,40.732 34.422,37.711 34.169,37.711 		"/>
		<polygon class="st0" points="34.749,37.927 35.782,37.927 35.782,40.732 36.038,40.732 36.038,37.927 37.073,37.927 
			37.073,37.711 34.749,37.711 		"/>
	</g>
	<g>
		<path class="st1" d="M42.329,10.076v5c-0.905-0.484-1.935-0.759-3.031-0.759c-3.574,0-6.47,2.923-6.47,6.528
			c0,3.606,2.896,6.528,6.47,6.528c1.096,0,2.127-0.276,3.031-0.759v0.759h3.439V10.076H42.329z M39.371,23.915
			c-1.634,0-2.959-1.337-2.959-2.988c0.001-1.65,1.326-2.988,2.959-2.988c1.634,0,2.959,1.337,2.959,2.988
			C42.329,22.576,41.005,23.915,39.371,23.915z"/>
		<path class="st1" d="M25.897,14.708c-1.124,0-2.182,0.283-3.109,0.779v-0.779h-3.528v17.744h3.528v-5.129
			c0.928,0.496,1.985,0.779,3.109,0.779c3.666,0,6.638-2.998,6.638-6.697C32.534,17.706,29.563,14.708,25.897,14.708z
			 M25.824,24.384c-1.676,0-3.035-1.372-3.035-3.064c0-1.69,1.361-3.064,3.035-3.064c1.676,0,3.035,1.372,3.035,3.064
			C28.859,23.012,27.5,24.384,25.824,24.384z"/>
		<path class="st1" d="M17.896,17.709c-0.031-0.076-0.068-0.15-0.101-0.225c-0.075-0.169-0.153-0.336-0.237-0.501
			c-0.048-0.091-0.097-0.182-0.147-0.273c-0.085-0.15-0.173-0.299-0.265-0.443c-0.051-0.079-0.098-0.158-0.15-0.236
			c-0.142-0.209-0.289-0.412-0.448-0.609c-0.042-0.053-0.089-0.102-0.132-0.153c-0.126-0.15-0.255-0.296-0.39-0.437
			c-0.067-0.07-0.134-0.137-0.202-0.203c-0.127-0.124-0.258-0.246-0.392-0.362c-0.067-0.057-0.131-0.116-0.198-0.172
			c-0.197-0.162-0.4-0.319-0.61-0.464c-0.037-0.026-0.078-0.048-0.115-0.074c-0.18-0.12-0.366-0.236-0.555-0.342
			c-0.075-0.042-0.153-0.083-0.229-0.124c-0.166-0.089-0.334-0.171-0.508-0.248c-0.075-0.034-0.147-0.07-0.224-0.1
			c-0.243-0.102-0.49-0.197-0.742-0.276c-0.022-0.007-0.044-0.011-0.065-0.018c-0.235-0.072-0.475-0.134-0.716-0.188
			c-0.08-0.018-0.162-0.033-0.243-0.048c-0.195-0.037-0.393-0.068-0.594-0.091c-0.082-0.009-0.162-0.02-0.246-0.029
			c-0.274-0.026-0.551-0.044-0.832-0.044c-0.284,0-0.565,0.018-0.842,0.044c-0.087,0.008-0.172,0.022-0.255,0.031
			c-0.194,0.023-0.386,0.052-0.576,0.087c-0.091,0.018-0.183,0.035-0.273,0.056c-0.195,0.045-0.388,0.096-0.576,0.151
			c-0.072,0.022-0.146,0.04-0.218,0.064c-0.255,0.082-0.506,0.175-0.75,0.278c-0.048,0.02-0.094,0.045-0.14,0.066
			c-0.198,0.089-0.39,0.183-0.58,0.285c-0.082,0.044-0.161,0.091-0.24,0.137c-0.154,0.089-0.306,0.182-0.454,0.28
			c-0.08,0.053-0.16,0.106-0.239,0.161c-0.157,0.112-0.308,0.228-0.457,0.348c-0.057,0.048-0.119,0.091-0.176,0.14
			c-0.195,0.165-0.383,0.34-0.564,0.521c-0.064,0.063-0.121,0.13-0.183,0.195c-0.12,0.127-0.237,0.258-0.349,0.39
			c-0.07,0.085-0.137,0.169-0.205,0.257c-0.098,0.126-0.192,0.257-0.284,0.388c-0.063,0.089-0.126,0.177-0.186,0.27
			c-0.101,0.156-0.195,0.318-0.287,0.48c-0.051,0.087-0.101,0.175-0.149,0.265c-0.106,0.205-0.206,0.416-0.297,0.63
			c-0.044,0.101-0.082,0.206-0.121,0.31c-0.037,0.096-0.078,0.188-0.112,0.285c0.003,0.001,0.004,0.003,0.007,0.004
			c-0.334,0.959-0.525,1.987-0.525,3.063c0,5.075,4.044,9.189,9.032,9.189s9.032-4.113,9.032-9.189
			c0.001-1.242-0.243-2.426-0.681-3.507C17.903,17.724,17.899,17.716,17.896,17.709z"/>
	</g>
	<linearGradient id="SVGID_1_" gradientUnits="userSpaceOnUse" x1="9.6519" y1="10.9557" x2="9.6519" y2="30.085">
		<stop  offset="0" style="stop-color:#FFFFFF"/>
		<stop  offset="0.5207" style="stop-color:#DDDDDD"/>
		<stop  offset="0.5365" style="stop-color:#DFDFDE"/>
		<stop  offset="1" style="stop-color:#C8C8C8"/>
	</linearGradient>
	<path class="st2" d="M7.606,15.357c0.687,0,7.507,3.94,7.507,5.187c0,1.246-6.635,5.187-7.507,5.187
		C6.735,25.733,6.92,15.357,7.606,15.357z M9.653,10.956c5.193,0,9.401,4.284,9.401,9.565c0,5.282-4.21,9.565-9.401,9.565
		S0.25,25.801,0.25,20.519S4.46,10.956,9.653,10.956z"/>
	<linearGradient id="SVGID_2_" gradientUnits="userSpaceOnUse" x1="39.3437" y1="9.6348" x2="39.3437" y2="27.3636">
		<stop  offset="0" style="stop-color:#FFFFFF"/>
		<stop  offset="0.0543" style="stop-color:#F5F5F5"/>
		<stop  offset="0.1667" style="stop-color:#EEEEEE"/>
		<stop  offset="0.4549" style="stop-color:#ECECEC"/>
		<stop  offset="0.6149" style="stop-color:#E8E8E8"/>
		<stop  offset="0.7813" style="stop-color:#DBDBDB"/>
		<stop  offset="0.9502" style="stop-color:#C9C8C8"/>
		<stop  offset="1" style="stop-color:#C2C2C2"/>
	</linearGradient>
	<path class="st3" d="M39.416,17.694c1.675,0,3.032,1.371,3.032,3.062s-1.358,3.062-3.032,3.062c-1.675,0-3.032-1.371-3.032-3.062
		C36.385,19.064,37.743,17.694,39.416,17.694z M42.45,9.635v5.125c-0.928-0.496-1.983-0.778-3.106-0.778
		c-3.663,0-6.632,2.996-6.632,6.691s2.969,6.691,6.632,6.691c1.123,0,2.179-0.283,3.106-0.778v0.778h3.525V9.635H42.45z"/>
	<linearGradient id="SVGID_3_" gradientUnits="userSpaceOnUse" x1="25.927" y1="14.4654" x2="25.927" y2="32.1944">
		<stop  offset="0" style="stop-color:#FFFFFF"/>
		<stop  offset="0.0196" style="stop-color:#F5F5F5"/>
		<stop  offset="0.0602" style="stop-color:#EEEEEE"/>
		<stop  offset="0.1644" style="stop-color:#ECECEC"/>
		<stop  offset="0.8561" style="stop-color:#C4C4C4"/>
	</linearGradient>
	<path class="st4" d="M25.853,18.011c1.675,0,3.032,1.371,3.032,3.061c0,1.69-1.358,3.061-3.032,3.061
		c-1.675,0-3.032-1.371-3.032-3.061S24.18,18.011,25.853,18.011z M25.927,14.465c-1.123,0-2.18,0.283-3.106,0.778v-0.778h-3.525
		v17.729h3.525V27.07c0.928,0.496,1.983,0.778,3.106,0.778c3.663,0,6.632-2.996,6.632-6.691S29.59,14.465,25.927,14.465z"/>
	<path class="st5" d="M9.653,10.956c-4.092,0-7.571,2.66-8.863,6.372c1.623,1.173,3.795,2.006,6.248,2.327
		c0.061-2.265,0.266-4.297,0.568-4.297c0.508,0,4.37,2.157,6.348,3.782c1.731-0.511,3.237-1.295,4.389-2.27
		C16.933,13.399,13.574,10.956,9.653,10.956z"/>
	<path class="st6" d="M7.606,15.357c0.687,0,7.507,3.94,7.507,5.187c0,1.246-6.635,5.187-7.507,5.187
		C6.735,25.733,6.92,15.357,7.606,15.357z"/>
	<g class="st7">
		<path class="st8" d="M7.606,15.357c-0.087,0-0.166,0.168-0.236,0.462c0.873,0.128,7.462,3.954,7.462,5.182
			c0,0.047-0.013,0.098-0.03,0.153c0.197-0.239,0.311-0.447,0.311-0.608C15.112,19.297,8.292,15.357,7.606,15.357z"/>
	</g>
	<path class="st9" d="M7.038,19.654c0.724,0.095,1.471,0.145,2.237,0.145c1.668,0,3.25-0.236,4.679-0.658
		c-1.977-1.626-5.839-3.781-6.348-3.781C7.303,15.357,7.099,17.39,7.038,19.654z"/>
	<path class="st0" d="M14.818,21.134c-0.004,0.005-0.01,0.011-0.014,0.017c0,0.001,0,0.002-0.001,0.003
		C14.809,21.147,14.813,21.141,14.818,21.134z"/>
	<path class="st0" d="M14.818,20.907c-1.33,1.626-6.576,4.684-7.353,4.684c-0.009,0-0.018-0.003-0.026-0.005
		c0.051,0.094,0.106,0.146,0.167,0.146c0.759,0,5.883-2.986,7.198-4.581c0.016-0.054,0.029-0.104,0.029-0.15
		C14.833,20.971,14.826,20.939,14.818,20.907z"/>
	<g>
		<path class="st0" d="M46.896,10.997c0-0.255,0.059-0.491,0.177-0.71c0.118-0.218,0.281-0.39,0.49-0.516s0.434-0.188,0.676-0.188
			c0.242,0,0.468,0.063,0.676,0.188s0.372,0.297,0.49,0.516c0.118,0.218,0.177,0.455,0.177,0.71c0,0.251-0.057,0.485-0.172,0.702
			c-0.115,0.217-0.277,0.391-0.485,0.521s-0.437,0.196-0.686,0.196c-0.249,0-0.477-0.065-0.686-0.196s-0.371-0.304-0.485-0.521
			S46.896,11.248,46.896,10.997z M47.057,10.996c0,0.226,0.053,0.436,0.158,0.63c0.105,0.195,0.25,0.348,0.433,0.459
			c0.184,0.112,0.381,0.167,0.591,0.167s0.408-0.056,0.592-0.167c0.184-0.112,0.328-0.265,0.432-0.46
			c0.104-0.195,0.156-0.405,0.156-0.63c0-0.222-0.051-0.429-0.153-0.621c-0.102-0.192-0.245-0.345-0.429-0.459
			c-0.184-0.114-0.383-0.17-0.599-0.17c-0.212,0-0.41,0.056-0.593,0.167c-0.184,0.112-0.328,0.264-0.432,0.456
			C47.11,10.562,47.057,10.771,47.057,10.996z M47.933,11.114v0.655h-0.185v-1.588h0.488c0.185,0,0.328,0.039,0.428,0.116
			c0.1,0.077,0.149,0.195,0.149,0.352c0,0.168-0.089,0.292-0.267,0.372c0.091,0.033,0.154,0.084,0.189,0.153
			c0.035,0.069,0.053,0.151,0.053,0.247c0,0.096,0.003,0.165,0.008,0.208c0.005,0.043,0.013,0.079,0.025,0.108v0.03h-0.193
			c-0.018-0.045-0.026-0.161-0.026-0.345c0-0.113-0.024-0.192-0.071-0.239c-0.047-0.047-0.128-0.07-0.241-0.07H47.933z
			 M47.933,10.944h0.342c0.102,0,0.186-0.026,0.253-0.079s0.099-0.123,0.099-0.21c0-0.107-0.027-0.184-0.082-0.23
			c-0.055-0.046-0.149-0.07-0.283-0.073h-0.329V10.944z"/>
	</g>
</g>
</svg>
