<?xml version="1.0" encoding="utf-8"?>
<!-- Generator: Adobe Illustrator 22.1.0, SVG Export Plug-In . SVG Version: 6.00 Build 0)  -->
<svg version="1.1" id="Layer_1" xmlns="http://www.w3.org/2000/svg" xmlns:xlink="http://www.w3.org/1999/xlink" x="0px" y="0px"
	 viewBox="0 0 120 15" style="enable-background:new 0 0 120 15;" xml:space="preserve">
<style type="text/css">
	.st0{fill:#F3757D;}
</style>
<g>
	<path class="st0" d="M11.398,7.954c0.399-0.515,1.03-1.478,1.76-1.478c0.714,0,1.561,0.88,1.561,1.594
		c0,1.345-1.063,2.906-2.009,3.785c-0.282,0.266-0.548,0.482-0.946,0.548c-0.117,0.017-0.233,0.033-0.349,0.033
		c-1.046,0-1.809-0.863-1.809-1.893v-0.199c0-0.681,0.697-2.524,1.494-2.524L11.398,7.954z M10.8,8.203
		c-0.133,0.066-0.199,0.182-0.265,0.299L10.8,8.203z M10.651,9.432v0.033c0.017,0,0.017-0.017,0.033-0.033H10.651z M13.756,7.871
		c0.017-0.117,0.05-0.216,0.05-0.332c0-0.066-0.017-0.149-0.05-0.216c-0.547,0-1.694,1.378-1.694,1.909
		c0,0.165,0.1,0.299,0.233,0.398c-0.033,0.05-0.1,0.1-0.166,0.1c-0.465,0-0.681-0.365-0.93-0.681
		c-0.249,0.614-0.482,1.245-0.482,1.909c0,0.233,0.017,0.465,0.083,0.697C12.312,11.242,13.49,9.349,13.756,7.871z M11.199,8.419
		c-0.216,0.216-0.349,0.499-0.448,0.781c0.083-0.116,0.415-0.631,0.431-0.747L11.199,8.419z M10.817,8.569
		c0.066-0.049,0.133-0.149,0.149-0.233L10.817,8.569z M11.83,7.838c0.049-0.133,0.597-0.681,0.747-0.814h-0.033
		c-0.299,0.249-0.548,0.532-0.764,0.847L11.83,7.838z M12.959,7.373V7.357h-0.017c-0.017,0-0.017,0.017-0.033,0.017
		c-0.349,0.249-0.88,0.813-0.963,1.245C12.278,8.187,12.578,7.755,12.959,7.373z M12.328,7.623
		c-0.066,0.066-0.282,0.282-0.282,0.349C12.129,7.838,12.245,7.739,12.328,7.623z M12.826,11.225c-0.033,0.05-0.083,0.1-0.1,0.166
		c0.332-0.382,1.245-1.312,1.229-1.826C13.64,10.162,13.241,10.694,12.826,11.225z M13.126,10.047
		c-0.083,0.116-0.366,0.448-0.366,0.515C12.909,10.428,13.026,10.245,13.126,10.047z M12.826,10.843c0,0.017,0,0.017,0.016,0.017
		L12.826,10.843z M13.026,10.661c0.116-0.182,0.265-0.349,0.365-0.531l-0.382,0.515v0.017L13.026,10.661L13.026,10.661z
		 M13.408,10.079c-0.017,0.017-0.017,0.033-0.017,0.05L13.408,10.079z M13.657,10.495h0.016v-0.017L13.657,10.495z"/>
	<path class="st0" d="M16.679,7.954c0.399-0.515,1.03-1.477,1.76-1.477c0.714,0,1.561,0.88,1.561,1.594
		c0,1.345-1.063,2.906-2.009,3.785c-0.282,0.266-0.548,0.482-0.946,0.548c-0.117,0.017-0.233,0.033-0.349,0.033
		c-1.046,0-1.809-0.863-1.809-1.893v-0.199c0-0.681,0.697-2.524,1.494-2.524L16.679,7.954z M16.081,8.203
		c-0.133,0.066-0.199,0.182-0.265,0.299L16.081,8.203z M15.931,9.432v0.033c0.017,0,0.017-0.017,0.033-0.033H15.931z M19.036,7.871
		c0.017-0.117,0.05-0.216,0.05-0.332c0-0.066-0.017-0.149-0.05-0.216c-0.547,0-1.694,1.378-1.694,1.909
		c0,0.165,0.1,0.299,0.233,0.398c-0.033,0.05-0.1,0.1-0.166,0.1c-0.465,0-0.681-0.365-0.93-0.681
		c-0.249,0.614-0.482,1.245-0.482,1.909c0,0.233,0.017,0.465,0.083,0.697C17.592,11.242,18.771,9.349,19.036,7.871z M16.479,8.419
		c-0.216,0.216-0.349,0.499-0.448,0.781c0.083-0.116,0.415-0.631,0.431-0.747L16.479,8.419z M16.098,8.569
		c0.066-0.049,0.133-0.149,0.149-0.233L16.098,8.569z M17.111,7.838c0.049-0.133,0.597-0.681,0.747-0.813h-0.033
		c-0.299,0.249-0.548,0.531-0.764,0.847L17.111,7.838z M18.239,7.373V7.357h-0.017c-0.017,0-0.017,0.017-0.033,0.017
		c-0.349,0.249-0.88,0.813-0.963,1.245C17.559,8.187,17.858,7.755,18.239,7.373z M17.609,7.623
		c-0.066,0.066-0.282,0.282-0.282,0.349C17.409,7.838,17.525,7.739,17.609,7.623z M18.107,11.225c-0.033,0.05-0.083,0.1-0.1,0.166
		c0.332-0.382,1.245-1.312,1.229-1.826C18.92,10.162,18.521,10.694,18.107,11.225z M18.406,10.047
		c-0.083,0.116-0.366,0.448-0.366,0.515C18.19,10.428,18.306,10.245,18.406,10.047z M18.107,10.843c0,0.017,0,0.017,0.016,0.017
		L18.107,10.843z M18.306,10.661c0.116-0.182,0.265-0.349,0.365-0.531l-0.382,0.515v0.017L18.306,10.661L18.306,10.661z
		 M18.688,10.079c-0.017,0.017-0.017,0.033-0.017,0.05L18.688,10.079z M18.937,10.495h0.016v-0.017L18.937,10.495z"/>
	<path class="st0" d="M24.931,9.266c-0.249,1.361-0.614,2.756-0.614,4.151c0,0.216,0.017,0.432,0.083,0.648
		c0,0.017,0.017,0.033,0.017,0.049c0,0.033-0.017,0.066-0.017,0.1c-0.066,0.017-0.133,0.017-0.199,0.017
		c-0.465,0-0.93-0.382-0.979-0.847c-0.017-0.199-0.017-0.415-0.017-0.614c0-0.382,0-0.764,0.049-1.146
		c0.182-1.494,0.349-2.839,0.781-4.284L24,7.306l-0.515,0.431c-0.299,0.266-0.648,0.764-0.847,1.112
		c-0.614,1.046-1.063,2.158-1.295,3.354c-0.016,0.1-0.033,0.182-0.066,0.283c-1.146-0.117-1.245-0.863-1.245-1.843
		c0-1.743,0.398-3.47,0.78-5.163c0.15-0.681,0.299-1.378,0.515-2.042c0.199-0.631,0.465-1.261,0.713-1.876
		c0.066-0.149,0.117-0.332,0.233-0.465c0.1,0.066,0.149,0.1,0.266,0.1c0.149,0,0.382,0.199,0.498,0.299
		c0.117,0.1,0.133,0.149,0.149,0.299v0.133c0,0.631-0.431,1.876-0.614,2.54c-0.233,0.897-0.465,1.777-0.681,2.673
		c-0.083,0.349-0.365,1.312-0.365,1.611c0,0.017,0.017,0.049,0.017,0.066c0.648-0.996,1.129-1.527,2.125-2.191
		C23.8,6.544,23.9,6.494,24.049,6.494c0.315,0,0.631,0.199,0.863,0.382c0.233,0.182,0.315,0.332,0.315,0.631
		C25.23,8.087,25.031,8.702,24.931,9.266z M20.813,7.024h-0.016v0.033h0.016V7.024z M20.864,6.792l-0.05,0.083l0.033,0.016
		C20.847,6.859,20.864,6.825,20.864,6.792z M20.88,6.693h-0.016v0.083C20.88,6.742,20.88,6.726,20.88,6.693z M20.897,6.543h0.033
		c-0.017-0.017-0.017-0.049-0.017-0.083C20.897,6.493,20.897,6.51,20.897,6.543z M20.93,10.162c0-0.033-0.017-0.049-0.017-0.083
		c-0.017,0.033-0.017,0.05-0.017,0.083H20.93z M20.963,9.714c-0.017,0.066-0.033,0.133-0.033,0.199h0.033V9.714z M20.963,9.697
		c0.165-0.515,0.265-1.361,0.382-1.925c0.366-1.727,0.863-3.437,1.312-5.147l-0.033,0.016c-0.233,0.747-0.482,1.478-0.681,2.225
		c-0.233,0.88-0.432,1.76-0.614,2.64C21.179,8.236,21.03,8.967,20.963,9.697z M21.013,6.061h0.017V5.995
		C21.013,6.012,21.013,6.045,21.013,6.061z M21.03,5.978c0.016-0.016,0.033-0.049,0.033-0.066L21.03,5.896V5.978z M21.079,5.747
		l0.033,0.016c0-0.083,0.016-0.182,0.016-0.265l0.033-0.017c0.066-0.233,0.116-0.448,0.166-0.681
		c-0.1,0.216-0.149,0.465-0.199,0.697L21.079,5.747z M21.146,6.875v0.066h0.017V6.875H21.146z M21.262,6.411
		c0,0.033-0.017,0.066-0.017,0.1l-0.033,0.117h0.033l0.049-0.199L21.262,6.411z M22.341,8.801c-0.382,0.382-0.963,1.843-1.079,2.391
		c-0.017,0.049,0,0.116-0.017,0.166c0.049-0.05,0.066-0.1,0.083-0.149c0.182-0.531,0.349-1.063,0.597-1.578l0.415-0.797
		L22.341,8.801L22.341,8.801z M21.295,6.278c0,0.016,0,0.016,0.017,0.033V6.278H21.295z M21.295,10.462h0.017v-0.016L21.295,10.462z
		 M21.328,6.145l0.033,0.017c-0.017-0.033-0.017-0.066-0.017-0.1C21.328,6.094,21.328,6.111,21.328,6.145z M21.378,9.631h0.033
		l0.149-0.315L21.378,9.631z M21.461,5.63c0.083-0.1,0.365-1.328,0.399-1.544l0.033-0.1l0.017-0.066
		c-0.017,0.016-0.017,0.049-0.017,0.066c-0.017,0.033-0.033,0.066-0.033,0.1C21.71,4.6,21.561,5.115,21.461,5.63z M21.677,10.561
		l-0.017-0.017v0.017H21.677z M21.677,3.439c0.017,0,0.017,0,0.033-0.017V3.405L21.677,3.439z M21.76,3.189h0.017V3.173L21.76,3.189
		z M21.81,10.162h-0.016l0.016,0.017V10.162z M21.926,9.117c0-0.017,0-0.017,0.017-0.033h-0.017V9.117z M21.943,3.82l0.016-0.049
		h-0.016V3.82z M21.959,5.945l-0.016,0.017h0.016V5.945z M21.976,3.67h0.017V3.637h-0.017V3.67z M22.009,3.521h0.017V3.504
		L22.009,3.521z M22.142,5.264h-0.017v0.033C22.125,5.281,22.125,5.281,22.142,5.264z M22.324,4.617h-0.017v0.017L22.324,4.617z
		 M22.391,4.351h-0.017v0.017L22.391,4.351z M22.424,8.668c-0.017,0.033-0.049,0.066-0.049,0.1
		C22.391,8.735,22.424,8.702,22.424,8.668z M22.424,4.235c-0.017,0-0.017,0-0.017,0.017h0.017V4.235z M22.657,2.608
		c0.05-0.1,0.1-0.199,0.1-0.315l-0.033-0.017C22.69,2.392,22.673,2.492,22.657,2.608z M22.773,2.16h0.016
		c0-0.017,0-0.05-0.016-0.066l0.049-0.066L22.805,2.01c0,0.033-0.017,0.049-0.033,0.083L22.773,2.16L22.773,2.16z M24.151,11.391
		h-0.017v0.066l0.017-0.016V11.391z M24.217,10.893H24.2c0,0.016,0.017,0.016,0.017,0.033V10.893z M24.3,10.362l-0.033,0.116H24.3
		V10.362z M24.815,7.871c-0.216,0.747-0.349,1.494-0.482,2.258c0.117-0.266,0.149-0.614,0.216-0.88
		C24.649,8.784,24.748,8.336,24.815,7.871z M24.848,7.739h-0.033v0.083L24.848,7.739z"/>
	<path class="st0" d="M31.822,0.45c0.482,0,1.013,0.764,1.013,1.229c0,0.681-0.763,2.989-0.996,3.769
		c-0.133,0.448-0.299,0.897-0.431,1.345l-0.897,3.205c-0.299,1.063-0.532,2.191-0.532,3.287c0,0.315,0.066,0.614,0.15,0.93
		c0.049,0.199,0.133,0.415,0.149,0.614c-0.049,0-0.1,0.017-0.149,0.017c-0.448,0-0.813-0.315-1.062-0.665
		c-0.299-0.415-0.332-0.963-0.332-1.461c0-2.059,1.095-5.961,1.743-8.003c0.199-0.614,1.345-3.503,1.345-3.835
		c0-0.117-0.05-0.233-0.117-0.332C31.723,0.5,31.772,0.45,31.822,0.45z M29.73,11.905c0.083-0.515,0.166-1.013,0.299-1.527
		c0.199-0.797,0.382-1.595,0.598-2.391c0.315-1.112,0.713-2.208,0.979-3.338c-0.216,0.332-1.063,3.454-1.246,4.084
		c-0.332,1.146-0.597,2.325-0.714,3.52C29.68,12.138,29.714,12.022,29.73,11.905z M31.74,4.285c-0.066,0.049-0.083,0.1-0.083,0.182
		L31.74,4.285z M31.789,4.136l-0.033-0.017C31.74,4.168,31.74,4.235,31.74,4.285L31.789,4.136z M31.872,3.853l-0.017-0.016v0.016
		H31.872z"/>
	<path class="st0" d="M36.337,10.262c-0.365,0.863-1.178,2.341-1.908,2.923c-0.366-0.133-0.631-0.166-0.631-0.631
		c0-0.897,0.199-1.777,0.382-2.657l-0.565,0.581c-0.349,0.365-0.83,1.063-1.411,1.063c-0.415,0-1.03-0.382-1.03-0.847
		c0-0.979,1.047-2.756,1.843-3.321c0.332-0.233,0.747-0.465,1.163-0.465c0.414,0,0.764,0.233,1.063,0.515
		c0.032,0.033,0.066,0.083,0.066,0.133c0,0.033-0.016,0.066-0.033,0.1l-0.482-0.133c-1.195,0.415-1.793,1.76-2.274,2.839
		l0.032,0.033l0.266-0.199l1.594-1.428c0.299-0.266,0.349-0.614,0.73-0.764l0.017,0.166l-0.049,0.016
		c-0.033,0.066,0,0.05-0.066,0.117l0.049-0.017l0.017-0.083l0.049-0.033c0.016-0.033,0.049-0.066,0.1-0.066
		c0.033,0,0.066,0.033,0.083,0.05L35.325,8.27l0.066-0.033V8.22l0.083,0.033c-0.133,0.415-0.282,0.813-0.431,1.212l-0.016,0.016
		c0.016,0,0.016,0,0.016-0.016c0.016-0.017,0.049-0.033,0.049-0.066c0.166-0.365,0.299-0.747,0.482-1.095
		c0.082,0.017,0.149,0.066,0.149,0.149c0,0.116-0.049,0.233-0.083,0.332c-0.216,0.598-0.946,2.657-0.946,3.188
		c0.216-0.133,0.382-0.365,0.548-0.547h0.032c-0.216,0.315-0.515,0.581-0.664,0.93h-0.017v0.017c0.017,0,0.017,0,0.017-0.017
		c0.299-0.299,0.564-0.664,0.83-0.996c0.066-0.083,0.134-0.216,0.216-0.299l0.083-0.083c-0.349,0.597-0.897,1.146-1.195,1.76
		l0.532-0.614l-0.15,0.282l0.117-0.083l0.016,0.066c0.017-0.083,0.1-0.182,0.15-0.265h0.016v-0.017l-0.016,0.017h-0.033
		c0.049-0.133,0.066-0.216,0.182-0.299v0.066l0.033-0.066l0.049-0.033l0.033-0.066c0.033-0.133,0.166-0.233,0.216-0.365
		c0.033-0.083,0.1-0.166,0.15-0.249h-0.017l0.033-0.066h-0.016l0.1-0.182l0.016,0.066c0.017-0.083,0.066-0.149,0.1-0.216h-0.017
		l0.05-0.033c0.032-0.05,0.049-0.1,0.066-0.149v0.016C36.205,10.445,36.272,10.362,36.337,10.262z M31.723,9.731
		c0,0.017-0.017,0.033-0.017,0.049h0.017V9.731z M31.822,9.532c0.216-0.366,0.415-0.764,0.648-1.112
		c0.05-0.066,0.199-0.249,0.199-0.332l-0.033,0.066c-0.232,0.233-0.747,1.129-0.863,1.445c-0.016,0.017-0.033,0.049-0.033,0.083
		l0.033-0.083C31.788,9.581,31.822,9.565,31.822,9.532z M31.988,9.863l0.049-0.116c-0.032,0.017-0.032,0.083-0.066,0.116H31.988z
		 M32.021,10.644c-0.016,0.017-0.016,0.049-0.016,0.066h0.016V10.644z M33.399,8.12c-0.431,0.266-1.063,1.445-1.229,1.926
		c-0.066,0.182-0.1,0.382-0.149,0.564c0.033-0.033,0.049-0.066,0.066-0.116C32.403,9.665,32.835,8.801,33.399,8.12z M32.088,9.598
		c0.166-0.315,0.366-0.597,0.548-0.897V8.668C32.419,8.967,32.237,9.249,32.088,9.598z M32.718,8.037l0.05-0.033h-0.017
		L32.718,8.037z M32.801,8.436h0.033V8.419C32.818,8.436,32.818,8.436,32.801,8.436z M32.884,8.32h0.017V8.303
		C32.884,8.303,32.884,8.303,32.884,8.32z M34.545,11.275h0.017v-0.033h-0.017V11.275z M34.611,12.835
		c-0.017,0-0.033,0.017-0.033,0.033L34.611,12.835z M34.611,10.943l0.016,0.033v-0.05L34.611,10.943z M34.744,12.669l-0.117,0.149
		C34.677,12.769,34.744,12.753,34.744,12.669z M34.695,10.661h0.016v-0.083C34.695,10.611,34.695,10.627,34.695,10.661z
		 M34.711,10.511l0.033-0.066h-0.016L34.711,10.511z M34.744,10.428c0.083-0.1,0.1-0.216,0.117-0.332
		C34.811,10.213,34.777,10.312,34.744,10.428z M34.777,12.719c-0.017,0-0.017,0.016-0.033,0.016
		C34.76,12.736,34.777,12.736,34.777,12.719z M34.843,12.603c0-0.033,0.017-0.066,0.017-0.1l-0.1,0.149L34.843,12.603z
		 M34.843,8.651l0.133-0.249C34.927,8.453,34.86,8.569,34.843,8.651z M34.877,12.57l-0.016,0.016
		C34.877,12.586,34.877,12.586,34.877,12.57z M34.894,9.963c-0.017,0.017-0.017,0.033-0.017,0.049L34.894,9.963z M34.944,12.553
		c-0.017,0-0.017,0.017-0.033,0.017h0.033V12.553z M34.944,9.797c-0.017,0.017-0.017,0.049-0.017,0.083l0.017-0.033V9.797z
		 M35.06,12.404h-0.016l-0.049,0.033h0.016L35.06,12.404z M35.11,8.619c0,0,0.016,0.033,0.016,0.049l0.066-0.133
		C35.142,8.552,35.11,8.569,35.11,8.619z M35.193,8.519c0.016-0.033,0.016-0.049,0.016-0.083
		C35.193,8.469,35.193,8.485,35.193,8.519z M35.358,11.905c-0.016,0.017-0.016,0.05-0.016,0.066
		C35.358,11.956,35.358,11.922,35.358,11.905z"/>
	<path class="st0" d="M42.865,0.45c0.482,0,1.013,0.764,1.013,1.229c0,0.681-0.763,2.989-0.996,3.769
		c-0.133,0.448-0.299,0.897-0.431,1.345l-0.897,3.205c-0.299,1.063-0.532,2.191-0.532,3.287c0,0.315,0.066,0.614,0.15,0.93
		c0.049,0.199,0.133,0.415,0.149,0.614c-0.049,0-0.1,0.017-0.149,0.017c-0.448,0-0.813-0.315-1.063-0.665
		c-0.299-0.415-0.332-0.963-0.332-1.461c0-2.059,1.096-5.961,1.743-8.003c0.199-0.614,1.345-3.503,1.345-3.835
		c0-0.117-0.05-0.233-0.117-0.332C42.764,0.5,42.814,0.45,42.865,0.45z M40.772,11.905c0.083-0.515,0.166-1.013,0.299-1.527
		c0.199-0.797,0.382-1.595,0.598-2.391c0.315-1.112,0.713-2.208,0.979-3.338c-0.216,0.332-1.063,3.454-1.246,4.084
		c-0.332,1.146-0.597,2.325-0.714,3.52C40.722,12.138,40.755,12.022,40.772,11.905z M42.781,4.285
		c-0.066,0.049-0.083,0.1-0.083,0.182L42.781,4.285z M42.831,4.136l-0.033-0.017c-0.016,0.049-0.016,0.116-0.016,0.166L42.831,4.136
		z M42.914,3.853l-0.017-0.016v0.016H42.914z"/>
	<path class="st0" d="M47.38,10.262c-0.365,0.863-1.178,2.341-1.908,2.923c-0.366-0.133-0.631-0.166-0.631-0.631
		c0-0.897,0.199-1.777,0.382-2.657l-0.565,0.581c-0.349,0.365-0.83,1.063-1.411,1.063c-0.415,0-1.03-0.382-1.03-0.847
		c0-0.979,1.047-2.756,1.843-3.321c0.332-0.233,0.747-0.465,1.163-0.465c0.414,0,0.764,0.233,1.063,0.515
		c0.032,0.033,0.066,0.083,0.066,0.133c0,0.033-0.016,0.066-0.033,0.1l-0.482-0.133c-1.195,0.415-1.793,1.76-2.274,2.839
		l0.032,0.033l0.266-0.199l1.594-1.428c0.299-0.266,0.349-0.614,0.73-0.764l0.017,0.166l-0.049,0.016
		c-0.033,0.066,0,0.05-0.066,0.117l0.049-0.017l0.017-0.083l0.049-0.033c0.016-0.033,0.049-0.066,0.1-0.066
		c0.033,0,0.066,0.033,0.083,0.05L46.368,8.27l0.066-0.033V8.22l0.083,0.033c-0.133,0.415-0.282,0.813-0.431,1.212l-0.016,0.016
		c0.016,0,0.016,0,0.016-0.016c0.016-0.017,0.049-0.033,0.049-0.066c0.166-0.365,0.299-0.747,0.482-1.095
		c0.082,0.017,0.149,0.066,0.149,0.149c0,0.116-0.049,0.233-0.083,0.332c-0.216,0.598-0.946,2.657-0.946,3.188
		c0.216-0.133,0.382-0.365,0.548-0.547h0.032c-0.216,0.315-0.515,0.581-0.664,0.93h-0.017v0.017c0.017,0,0.017,0,0.017-0.017
		c0.299-0.299,0.564-0.664,0.83-0.996c0.066-0.083,0.134-0.216,0.216-0.299l0.083-0.083c-0.349,0.597-0.897,1.146-1.195,1.76
		l0.532-0.614l-0.15,0.282l0.117-0.083l0.016,0.066c0.017-0.083,0.1-0.182,0.15-0.265h0.016v-0.017l-0.016,0.017h-0.033
		c0.049-0.133,0.066-0.216,0.182-0.299v0.066l0.033-0.066l0.049-0.033l0.033-0.066c0.033-0.133,0.166-0.233,0.216-0.365
		c0.033-0.083,0.1-0.166,0.15-0.249h-0.017l0.033-0.066h-0.016l0.1-0.182l0.016,0.066c0.017-0.083,0.066-0.149,0.1-0.216h-0.017
		l0.05-0.033c0.032-0.05,0.049-0.1,0.066-0.149v0.016C47.247,10.445,47.315,10.362,47.38,10.262z M42.765,9.731
		c0,0.017-0.017,0.033-0.017,0.049h0.017V9.731z M42.865,9.532c0.216-0.366,0.415-0.764,0.648-1.112
		c0.05-0.066,0.199-0.249,0.199-0.332l-0.033,0.066c-0.232,0.233-0.747,1.129-0.863,1.445c-0.016,0.017-0.033,0.049-0.033,0.083
		l0.033-0.083C42.831,9.581,42.865,9.565,42.865,9.532z M43.03,9.863l0.049-0.116c-0.032,0.017-0.032,0.083-0.066,0.116H43.03z
		 M43.064,10.644c-0.016,0.017-0.016,0.049-0.016,0.066h0.016V10.644z M44.442,8.12c-0.431,0.266-1.063,1.445-1.229,1.926
		c-0.066,0.182-0.1,0.382-0.149,0.564c0.033-0.033,0.049-0.066,0.066-0.116C43.446,9.665,43.877,8.801,44.442,8.12z M43.13,9.598
		c0.166-0.315,0.366-0.597,0.548-0.897V8.668C43.462,8.967,43.28,9.249,43.13,9.598z M43.761,8.037l0.05-0.033h-0.017L43.761,8.037z
		 M43.844,8.436h0.033V8.419C43.861,8.436,43.861,8.436,43.844,8.436z M43.927,8.32h0.017V8.303
		C43.927,8.303,43.927,8.303,43.927,8.32z M45.587,11.275h0.017v-0.033h-0.017V11.275z M45.654,12.835
		c-0.017,0-0.033,0.017-0.033,0.033L45.654,12.835z M45.654,10.943l0.016,0.033v-0.05L45.654,10.943z M45.787,12.669l-0.117,0.149
		C45.72,12.769,45.787,12.753,45.787,12.669z M45.737,10.661h0.016v-0.083C45.737,10.611,45.737,10.627,45.737,10.661z
		 M45.753,10.511l0.033-0.066H45.77L45.753,10.511z M45.787,10.428c0.083-0.1,0.1-0.216,0.117-0.332
		C45.854,10.213,45.821,10.312,45.787,10.428z M45.821,12.719c-0.017,0-0.017,0.016-0.033,0.016
		C45.803,12.736,45.821,12.736,45.821,12.719z M45.886,12.603c0-0.033,0.017-0.066,0.017-0.1l-0.1,0.149L45.886,12.603z
		 M45.886,8.651l0.133-0.249C45.969,8.453,45.903,8.569,45.886,8.651z M45.92,12.57l-0.016,0.016
		C45.92,12.586,45.92,12.586,45.92,12.57z M45.937,9.963C45.92,9.98,45.92,9.996,45.92,10.013L45.937,9.963z M45.986,12.553
		c-0.017,0-0.017,0.017-0.033,0.017h0.033V12.553z M45.986,9.797c-0.017,0.017-0.017,0.049-0.017,0.083l0.017-0.033V9.797z
		 M46.102,12.404h-0.016l-0.049,0.033h0.016L46.102,12.404z M46.152,8.619c0,0,0.016,0.033,0.016,0.049l0.066-0.133
		C46.185,8.552,46.152,8.569,46.152,8.619z M46.236,8.519c0.016-0.033,0.016-0.049,0.016-0.083
		C46.236,8.469,46.236,8.485,46.236,8.519z M46.401,11.905c-0.016,0.017-0.016,0.05-0.016,0.066
		C46.401,11.956,46.401,11.922,46.401,11.905z"/>
</g>
</svg>
