<?xml version="1.0" encoding="utf-8"?>
<!-- Generator: Adobe Illustrator 21.1.0, SVG Export Plug-In . SVG Version: 6.00 Build 0)  -->
<svg version="1.1" id="Capa_1" xmlns="http://www.w3.org/2000/svg" xmlns:xlink="http://www.w3.org/1999/xlink" x="0px" y="0px"
	 viewBox="0 0 120 20" style="enable-background:new 0 0 120 20;" xml:space="preserve">
<style type="text/css">
	.st0{fill:#6D8CBC;}
</style>
<g id="vvEbeZ_1_">
	<g>
		<path class="st0" d="M1.313,11.418c0-0.114,0-0.192,0-0.268c0-2.122,0.013-4.244-0.008-6.366c-0.007-0.6,0.444-1.044,1.046-1.041
			C8.068,3.752,13.783,3.749,19.5,3.749c0.672,0,1.058,0.385,1.058,1.065c0.001,2.109,0,4.218,0,6.326c0,0.083,0,0.166,0,0.259
			c0.133,0.017,0.256,0.019,0.369,0.052c0.441,0.129,0.685,0.487,0.685,0.997c0.001,1.312,0,2.624,0,3.935
			c0,0.836-0.011,1.673,0.003,2.507c0.009,0.592-0.424,1.04-1.029,1.038c-6.519-0.011-13.039-0.013-19.558,0
			C0.373,19.929-0.003,19.444,0,18.892c0.009-2.168,0.003-4.332,0.005-6.5c0-0.573,0.385-0.963,0.962-0.976
			C1.076,11.417,1.182,11.418,1.313,11.418z M13.626,13.669c0-0.409,0.02-0.795-0.005-1.179c-0.039-0.575,0.368-1.095,1.065-1.08
			c1.254,0.025,2.507,0.008,3.761,0.008c0.075,0,0.149,0,0.224,0c0-1.95,0-3.87,0-5.797c-5.168,0-10.325,0-15.491,0
			c0,1.934,0,3.854,0,5.797c0.085,0,0.16,0,0.235,0c1.222,0.001,2.444-0.003,3.663,0.005c0.453,0.003,0.822,0.315,0.872,0.765
			c0.043,0.394,0.027,0.794,0.036,1.191c0.001,0.094,0,0.189,0,0.29C9.879,13.669,11.741,13.669,13.626,13.669z M1.891,18.051
			c5.949,0,11.885,0,17.834,0c0-1.592,0-3.174,0-4.758c-1.414,0-2.811,0-4.222,0c0,0.11,0,0.207,0,0.302
			c0.007,1.221-0.921,1.945-1.859,1.953c-1.89,0.017-3.78,0.015-5.67,0.001c-0.887-0.007-1.61-0.609-1.803-1.477
			c-0.056-0.252-0.052-0.518-0.076-0.781c-1.404,0-2.801,0-4.202,0C1.891,14.884,1.891,16.462,1.891,18.051z"/>
		<path class="st0" d="M10.937,2.787c-2.514,0-5.026-0.005-7.54,0.007C3.072,2.795,2.885,2.568,2.878,2.35
			c-0.011-0.272,0.176-0.455,0.49-0.476C3.42,1.871,3.473,1.872,3.524,1.872c4.936,0,9.873,0,14.809,0c0.07,0,0.142,0,0.212,0.008
			c0.283,0.031,0.457,0.219,0.444,0.48c-0.011,0.256-0.208,0.427-0.492,0.427C15.978,2.787,13.457,2.787,10.937,2.787z"/>
		<path class="st0" d="M10.934,0.001c2.204,0,4.41,0,6.614,0c0.321,0,0.483,0.119,0.526,0.386c0.043,0.266-0.137,0.502-0.404,0.526
			c-0.044,0.005-0.09,0.001-0.134,0.001c-4.404,0-8.804,0-13.208,0c-0.361,0-0.554-0.178-0.542-0.495
			C3.795,0.194,3.96,0.022,4.187,0.003C4.264-0.003,4.342,0.001,4.42,0.001C6.589-0.001,8.76,0.001,10.934,0.001z"/>
	</g>
</g>
<g>
	<path class="st0" d="M30.743,12.349h-4.527v4.54h-0.82V7.181h6.014v0.693h-5.194v3.781h4.527V12.349z"/>
	<path class="st0" d="M32.502,7.592c0-0.15,0.049-0.277,0.146-0.381c0.098-0.104,0.231-0.156,0.4-0.156s0.303,0.052,0.403,0.156
		c0.1,0.104,0.15,0.23,0.15,0.381c0,0.15-0.05,0.276-0.15,0.377s-0.234,0.152-0.403,0.152s-0.302-0.051-0.4-0.152
		S32.502,7.742,32.502,7.592z M33.442,16.889h-0.8V9.675h0.8V16.889z"/>
	<path class="st0" d="M36.161,16.889h-0.8V6.648h0.8V16.889z"/>
	<path class="st0" d="M40.78,17.023c-0.613,0-1.168-0.151-1.663-0.454c-0.496-0.302-0.881-0.723-1.157-1.263
		c-0.275-0.54-0.413-1.146-0.413-1.817v-0.286c0-0.694,0.134-1.318,0.403-1.874s0.644-0.992,1.124-1.31s1-0.477,1.56-0.477
		c0.875,0,1.57,0.299,2.083,0.896c0.513,0.598,0.77,1.415,0.77,2.451v0.446H38.34v0.153c0,0.818,0.234,1.499,0.703,2.044
		c0.469,0.544,1.059,0.816,1.771,0.816c0.427,0,0.803-0.078,1.13-0.233c0.327-0.155,0.624-0.404,0.89-0.747l0.5,0.381
		C42.747,16.598,41.896,17.023,40.78,17.023z M40.634,10.221c-0.6,0-1.106,0.22-1.517,0.66c-0.412,0.44-0.662,1.032-0.75,1.774
		h4.327v-0.087c-0.022-0.693-0.22-1.258-0.593-1.693S41.238,10.221,40.634,10.221z"/>
	<path class="st0" d="M49.02,15.056c0-0.396-0.159-0.714-0.477-0.954s-0.797-0.428-1.437-0.563c-0.64-0.135-1.137-0.291-1.49-0.467
		c-0.354-0.175-0.616-0.39-0.787-0.643c-0.171-0.254-0.256-0.561-0.256-0.92c0-0.569,0.238-1.04,0.713-1.411
		s1.084-0.557,1.827-0.557c0.805,0,1.45,0.199,1.937,0.597c0.486,0.398,0.73,0.917,0.73,1.556h-0.8c0-0.422-0.177-0.773-0.53-1.053
		c-0.354-0.28-0.799-0.42-1.337-0.42c-0.524,0-0.946,0.117-1.263,0.35c-0.318,0.233-0.477,0.537-0.477,0.91
		c0,0.36,0.132,0.639,0.397,0.837c0.264,0.197,0.747,0.379,1.447,0.543c0.7,0.165,1.224,0.341,1.573,0.527s0.608,0.411,0.777,0.673
		c0.169,0.263,0.253,0.58,0.253,0.954c0,0.608-0.246,1.096-0.737,1.46s-1.132,0.547-1.923,0.547c-0.84,0-1.521-0.204-2.043-0.61
		c-0.522-0.407-0.784-0.921-0.784-1.544h0.8c0.031,0.467,0.228,0.83,0.59,1.091c0.362,0.26,0.841,0.39,1.437,0.39
		c0.555,0,1.004-0.122,1.347-0.367C48.849,15.738,49.02,15.429,49.02,15.056z"/>
	<path class="st0" d="M58.883,11.595c-0.387-0.467-0.667-0.883-0.843-1.25s-0.263-0.73-0.263-1.09c0-0.68,0.202-1.218,0.606-1.614
		s0.947-0.593,1.627-0.593c0.618,0,1.118,0.179,1.5,0.537c0.383,0.358,0.573,0.812,0.573,1.363c0,0.64-0.369,1.269-1.106,1.887
		l-1.066,0.826l2.667,3.107c0.404-0.653,0.606-1.394,0.606-2.221h0.74c0,1.103-0.285,2.034-0.854,2.794l1.326,1.547h-0.96
		l-0.84-0.974c-0.352,0.347-0.757,0.618-1.217,0.813s-0.945,0.294-1.457,0.294c-0.925,0-1.658-0.237-2.2-0.711
		c-0.542-0.473-0.813-1.105-0.813-1.896c0-0.471,0.139-0.917,0.417-1.337s0.766-0.892,1.463-1.417L58.883,11.595z M59.923,16.349
		c0.404,0,0.797-0.086,1.177-0.257c0.38-0.171,0.722-0.414,1.023-0.729l-2.713-3.147l-0.094-0.1l-0.307,0.233
		c-0.871,0.711-1.307,1.399-1.307,2.066c0,0.582,0.2,1.05,0.6,1.403C58.703,16.172,59.243,16.349,59.923,16.349z M58.576,9.228
		c0,0.542,0.301,1.182,0.9,1.919l0.873-0.666c0.284-0.205,0.518-0.429,0.7-0.673s0.273-0.531,0.273-0.86
		c0-0.347-0.12-0.637-0.36-0.87c-0.239-0.233-0.56-0.35-0.96-0.35c-0.436,0-0.782,0.14-1.04,0.42
		C58.705,8.428,58.576,8.788,58.576,9.228z"/>
	<path class="st0" d="M72.261,16.196h4.794v0.693h-5.621V7.181h0.827V16.196z"/>
	<path class="st0" d="M78.053,7.592c0-0.15,0.049-0.277,0.146-0.381c0.099-0.104,0.231-0.156,0.4-0.156s0.304,0.052,0.403,0.156
		c0.101,0.104,0.15,0.23,0.15,0.381c0,0.15-0.05,0.276-0.15,0.377c-0.1,0.102-0.234,0.152-0.403,0.152s-0.302-0.051-0.4-0.152
		C78.102,7.867,78.053,7.742,78.053,7.592z M78.993,16.889h-0.8V9.675h0.8V16.889z"/>
	<path class="st0" d="M81.578,9.675l0.027,1.233c0.271-0.444,0.608-0.784,1.013-1.017c0.405-0.233,0.852-0.35,1.341-0.35
		c0.773,0,1.349,0.218,1.727,0.653s0.569,1.089,0.573,1.96v4.733h-0.793v-4.74c-0.005-0.645-0.142-1.125-0.41-1.44
		c-0.27-0.315-0.699-0.473-1.29-0.473c-0.494,0-0.931,0.154-1.311,0.463s-0.661,0.726-0.844,1.25v4.94h-0.793V9.675H81.578z"/>
	<path class="st0" d="M89.691,13.255l-0.914,0.88v2.754h-0.8V6.648h0.8v6.554l0.754-0.813l2.76-2.714h1.007l-3.061,3.04l3.327,4.174
		h-0.953L89.691,13.255z"/>
	<path class="st0" d="M98.644,15.056c0-0.396-0.159-0.714-0.477-0.954s-0.797-0.428-1.437-0.563
		c-0.641-0.135-1.137-0.291-1.49-0.467c-0.354-0.175-0.616-0.39-0.787-0.643c-0.171-0.254-0.257-0.561-0.257-0.92
		c0-0.569,0.238-1.04,0.714-1.411s1.084-0.557,1.827-0.557c0.804,0,1.449,0.199,1.937,0.597c0.486,0.398,0.729,0.917,0.729,1.556
		h-0.8c0-0.422-0.177-0.773-0.53-1.053c-0.353-0.28-0.799-0.42-1.336-0.42c-0.525,0-0.946,0.117-1.264,0.35
		c-0.318,0.233-0.477,0.537-0.477,0.91c0,0.36,0.132,0.639,0.396,0.837c0.265,0.197,0.746,0.379,1.446,0.543
		c0.7,0.165,1.225,0.341,1.574,0.527c0.349,0.187,0.607,0.411,0.776,0.673c0.169,0.263,0.253,0.58,0.253,0.954
		c0,0.608-0.245,1.096-0.736,1.46s-1.133,0.547-1.924,0.547c-0.84,0-1.521-0.204-2.043-0.61c-0.522-0.407-0.783-0.921-0.783-1.544
		h0.8c0.031,0.467,0.228,0.83,0.59,1.091c0.362,0.26,0.841,0.39,1.437,0.39c0.556,0,1.005-0.122,1.347-0.367
		C98.473,15.738,98.644,15.429,98.644,15.056z"/>
</g>
</svg>
