<?xml version="1.0" encoding="utf-8"?>
<!-- Generator: Adobe Illustrator 21.1.0, SVG Export Plug-In . SVG Version: 6.00 Build 0)  -->
<svg version="1.1" id="Layer_1" xmlns="http://www.w3.org/2000/svg" xmlns:xlink="http://www.w3.org/1999/xlink" x="0px" y="0px"
	 viewBox="0 0 50 50" style="enable-background:new 0 0 50 50;" xml:space="preserve">
<style type="text/css">
	.st0{fill:#7FA8E0;}
	.st1{fill:#FFFFFF;}
</style>
<path class="st0" d="M43.307,39.572c0.085,0.983-0.65,1.829-1.635,1.88c-0.984,0.051-1.901,0.893-2.037,1.869
	c-0.135,0.976-1.041,1.637-2.013,1.468c-0.971-0.169-2.052,0.447-2.402,1.369c-0.35,0.922-1.379,1.364-2.289,0.983
	c-0.91-0.381-2.101-0.021-2.646,0.8c-0.546,0.821-1.648,1.023-2.45,0.449c-0.801-0.574-2.043-0.487-2.758,0.191
	c-0.715,0.68-1.834,0.631-2.488-0.107c-0.655-0.738-1.883-0.93-2.732-0.428c-0.848,0.503-1.93,0.207-2.403-0.658
	c-0.473-0.864-1.629-1.326-2.568-1.025c-0.938,0.302-1.926-0.227-2.195-1.176c-0.269-0.948-1.294-1.655-2.276-1.569
	c-0.982,0.084-1.828-0.651-1.879-1.636c-0.051-0.984-0.892-1.902-1.869-2.037c-0.976-0.136-1.637-1.042-1.469-2.013
	c0.17-0.971-0.446-2.052-1.368-2.402c-0.922-0.35-1.365-1.38-0.984-2.289c0.381-0.909,0.021-2.101-0.8-2.646
	c-0.821-0.546-1.024-1.649-0.45-2.45c0.575-0.802,0.487-2.043-0.191-2.758c-0.679-0.715-0.631-1.835,0.107-2.489
	c0.739-0.654,0.931-1.883,0.426-2.731c-0.502-0.849-0.205-1.93,0.659-2.404c0.865-0.473,1.327-1.629,1.024-2.567
	C3.32,14.258,3.85,13.27,4.799,13c0.948-0.269,1.655-1.293,1.57-2.276C6.283,9.743,7.019,8.897,8.004,8.846
	c0.985-0.051,1.901-0.892,2.037-1.869C10.177,6,11.083,5.34,12.054,5.509c0.971,0.169,2.052-0.447,2.402-1.369
	c0.35-0.922,1.379-1.364,2.288-0.984c0.909,0.381,2.101,0.022,2.647-0.8c0.546-0.821,1.648-1.024,2.451-0.449
	c0.801,0.574,2.042,0.488,2.758-0.191c0.715-0.679,1.834-0.631,2.488,0.107c0.654,0.738,1.882,0.93,2.731,0.428
	c0.849-0.503,1.93-0.207,2.404,0.658c0.473,0.865,1.629,1.326,2.567,1.024c0.939-0.301,1.927,0.228,2.195,1.177
	c0.27,0.949,1.294,1.655,2.276,1.57c0.983-0.085,1.828,0.65,1.879,1.635c0.053,0.985,0.892,1.902,1.87,2.038
	c0.977,0.135,1.636,1.041,1.468,2.012c-0.17,0.971,0.446,2.053,1.369,2.402c0.923,0.35,1.364,1.38,0.983,2.289
	c-0.382,0.91-0.021,2.101,0.8,2.646c0.82,0.546,1.023,1.649,0.449,2.45c-0.574,0.802-0.488,2.043,0.19,2.758
	c0.68,0.715,0.632,1.835-0.106,2.49c-0.738,0.653-0.93,1.882-0.428,2.73c0.503,0.848,0.207,1.93-0.658,2.403
	c-0.864,0.473-1.326,1.629-1.024,2.567c0.302,0.94-0.228,1.927-1.176,2.196C43.929,37.567,43.222,38.59,43.307,39.572z"/>
<g>
	<path class="st1" d="M40.908,35.304c-0.38-0.264-0.729-0.627-1.15-0.755c-0.277-0.085-0.66,0.162-0.991,0.273
		c-0.228,0.076-0.449,0.174-0.674,0.262c-0.051-0.242-0.134-0.483-0.145-0.726c-0.022-0.518-0.007-1.037-0.007-1.629
		c0.371-0.027,0.715-0.052,1.099-0.08c0-2.508,0-5.019,0-7.658c-1.19,0.629-2.296,1.213-3.473,1.834
		c-0.013-0.249-0.057-0.413-0.024-0.56c0.205-0.909-0.316-1.276-1.056-1.592c-2.431-1.038-4.931-1.837-7.542-2.25
		c-2.383-0.377-4.763-0.215-7.066,0.452c-1.865,0.54-3.672,1.284-5.495,1.966c-0.552,0.207-1.177,0.431-0.726,1.458
		c-2.302-1.046-4.374-1.987-6.555-2.978c1.585-0.911,3.068-1.765,4.552-2.616c3.852-2.208,7.712-4.403,11.552-6.634
		c0.628-0.365,1.1-0.415,1.774-0.031c3.796,2.162,7.629,4.257,11.444,6.386c0.372,0.208,0.661,0.32,1.084,0.053
		c0.341-0.215,0.791-0.305,1.203-0.351c0.769-0.086,1.278,0.273,1.181,1.019c-0.156,1.205,0.55,1.612,1.441,1.961
		c0,0.236,0,0.473,0,0.709c-1.421,0.497-1.421,0.497-1.421,1.895c-0.001,2.099-0.005,4.198,0.002,6.297
		c0.001,0.241,0.06,0.481,0.091,0.709c0.435,0,0.776,0,1.083,0c0.046,0.074,0.068,0.093,0.068,0.112
		c0.013,0.825,0.023,1.649,0.034,2.474C41.097,35.304,41.002,35.304,40.908,35.304z M39.521,23.526
		c0.027-0.522-0.335-0.844-0.767-0.758c-0.317,0.063-0.729,0.466-0.797,0.783c-0.109,0.501,0.289,0.839,0.815,0.83
		C39.273,24.373,39.531,24.06,39.521,23.526z"/>
	<path class="st1" d="M14.671,31.28c0-1.816-0.011-3.466,0.016-5.117c0.003-0.179,0.185-0.435,0.352-0.52
		c4.976-2.53,10.117-3.392,15.509-1.446c1.151,0.415,2.28,0.891,3.406,1.369c0.173,0.073,0.392,0.309,0.395,0.472
		c0.029,1.693,0.018,3.387,0.018,5.239C27.778,28.404,21.252,28.376,14.671,31.28z"/>
</g>
</svg>
