<?xml version="1.0" encoding="utf-8"?>
<!-- Generator: Adobe Illustrator 21.1.0, SVG Export Plug-In . SVG Version: 6.00 Build 0)  -->
<svg version="1.1" id="Layer_1" xmlns="http://www.w3.org/2000/svg" xmlns:xlink="http://www.w3.org/1999/xlink" x="0px" y="0px"
	 viewBox="0 0 50 50" style="enable-background:new 0 0 50 50;" xml:space="preserve">
<style type="text/css">
	.st0{fill:#3C4852;}
</style>
<g id="tei5gj_1_">
	<g>
		<path class="st0" d="M37.02,12.631c3.171,0,6.342-0.001,9.514,0.001c0.801,0,0.95,0.143,0.953,0.93
			c0.005,1.251,0.007,2.502-0.001,3.753c-0.004,0.685-0.202,0.883-0.889,0.883c-6.364,0.003-12.728,0.003-19.091,0
			c-0.748,0-0.91-0.16-0.916-0.917c-0.01-1.251-0.01-2.502,0-3.753c0.005-0.753,0.159-0.896,0.918-0.897
			C30.677,12.63,33.849,12.631,37.02,12.631z"/>
		<path class="st0" d="M37.026,25.847c-3.171,0-6.343,0.001-9.515-0.001c-0.756,0-0.917-0.15-0.922-0.897
			c-0.009-1.273,0.003-2.546-0.004-3.818c-0.003-0.578,0.217-0.859,0.846-0.857c6.408,0.013,12.816,0.012,19.224,0.002
			c0.579-0.001,0.834,0.246,0.834,0.807c-0.002,1.316-0.004,2.632,0.001,3.948c0.003,0.604-0.287,0.827-0.884,0.824
			C43.413,25.838,40.219,25.847,37.026,25.847z"/>
		<path class="st0" d="M36.974,33.497c-3.15,0-6.299,0.001-9.449-0.001c-0.791,0-0.933-0.139-0.938-0.943
			c-0.006-1.251-0.01-2.502,0.003-3.753c0.007-0.708,0.178-0.87,0.896-0.871c6.364-0.003,12.728-0.003,19.091,0
			c0.723,0,0.905,0.19,0.909,0.929c0.005,1.229,0.004,2.459,0,3.688c-0.003,0.798-0.152,0.948-0.934,0.949
			C43.36,33.498,40.167,33.497,36.974,33.497z"/>
		<path class="st0" d="M24.476,15.405c0,0.69-0.01,1.379,0.004,2.069c0.01,0.49-0.222,0.722-0.696,0.723
			c-1.379,0.003-2.759,0.003-4.139,0c-0.475-0.001-0.722-0.256-0.724-0.721c-0.008-1.379-0.008-2.759,0-4.139
			c0.003-0.46,0.224-0.713,0.719-0.71c1.379,0.01,2.759,0.01,4.139,0c0.494-0.003,0.704,0.227,0.698,0.708
			C24.47,14.025,24.475,14.715,24.476,15.405z"/>
		<path class="st0" d="M24.476,23.068c0,0.69-0.006,1.379,0.002,2.069c0.006,0.483-0.211,0.713-0.701,0.711
			c-1.379-0.006-2.76-0.006-4.139,0c-0.493,0.003-0.713-0.266-0.717-0.719c-0.01-1.379-0.011-2.76,0.001-4.139
			c0.003-0.455,0.233-0.714,0.724-0.711c1.379,0.008,2.76,0.006,4.139,0.001c0.493-0.002,0.699,0.239,0.693,0.718
			C24.469,21.688,24.476,22.378,24.476,23.068z"/>
		<path class="st0" d="M21.729,33.497c-0.668,0-1.337-0.016-2.004,0.005c-0.544,0.018-0.807-0.22-0.807-0.757
			c-0.001-1.358-0.003-2.716,0.002-4.074c0.002-0.502,0.268-0.744,0.771-0.743c1.358,0.003,2.716,0,4.074,0.003
			c0.465,0.001,0.718,0.204,0.715,0.704c-0.01,1.401-0.004,2.802-0.003,4.203c0,0.455-0.223,0.666-0.678,0.661
			C23.108,33.491,22.418,33.497,21.729,33.497z"/>
	</g>
</g>
</svg>
