<?xml version="1.0" encoding="utf-8"?>
<!-- Generator: Adobe Illustrator 21.1.0, SVG Export Plug-In . SVG Version: 6.00 Build 0)  -->
<svg version="1.1" id="Layer_1" xmlns="http://www.w3.org/2000/svg" xmlns:xlink="http://www.w3.org/1999/xlink" x="0px" y="0px"
	 viewBox="0 0 50 50" style="enable-background:new 0 0 50 50;" xml:space="preserve">
<style type="text/css">
	.st0{fill:#4FC5DD;}
	.st1{fill:#FFFFFF;}
</style>
<path class="st0" d="M43.307,39.572c0.085,0.983-0.65,1.829-1.635,1.88c-0.984,0.051-1.901,0.893-2.037,1.869
	c-0.135,0.976-1.041,1.637-2.013,1.468c-0.971-0.169-2.052,0.447-2.402,1.369c-0.35,0.922-1.379,1.364-2.289,0.983
	c-0.91-0.381-2.101-0.021-2.646,0.8c-0.546,0.821-1.648,1.023-2.45,0.449c-0.801-0.574-2.043-0.487-2.758,0.191
	c-0.715,0.68-1.834,0.631-2.488-0.107c-0.655-0.738-1.883-0.93-2.732-0.428c-0.848,0.503-1.93,0.207-2.403-0.658
	c-0.473-0.864-1.629-1.326-2.568-1.025c-0.938,0.302-1.926-0.227-2.195-1.176c-0.269-0.948-1.294-1.655-2.276-1.569
	c-0.982,0.084-1.828-0.651-1.879-1.636c-0.051-0.984-0.892-1.902-1.869-2.037c-0.976-0.136-1.637-1.042-1.469-2.013
	c0.17-0.971-0.446-2.052-1.368-2.402c-0.922-0.35-1.365-1.38-0.984-2.289c0.381-0.909,0.021-2.101-0.8-2.646
	c-0.821-0.546-1.024-1.649-0.45-2.45c0.575-0.802,0.487-2.043-0.191-2.758c-0.679-0.715-0.631-1.835,0.107-2.489
	c0.739-0.654,0.931-1.883,0.426-2.731c-0.502-0.849-0.205-1.93,0.659-2.404c0.865-0.473,1.327-1.629,1.024-2.567
	C3.32,14.258,3.85,13.27,4.799,13c0.948-0.269,1.655-1.293,1.57-2.276C6.283,9.743,7.019,8.897,8.004,8.846
	c0.985-0.051,1.901-0.892,2.037-1.869C10.177,6,11.083,5.34,12.054,5.509c0.971,0.169,2.052-0.447,2.402-1.369
	c0.35-0.922,1.379-1.364,2.288-0.984c0.909,0.381,2.101,0.022,2.647-0.8c0.546-0.821,1.648-1.024,2.451-0.449
	c0.801,0.574,2.042,0.488,2.758-0.191c0.715-0.679,1.834-0.631,2.488,0.107c0.654,0.738,1.882,0.93,2.731,0.428
	c0.849-0.503,1.93-0.207,2.404,0.658c0.473,0.865,1.629,1.326,2.567,1.024c0.939-0.301,1.927,0.228,2.195,1.177
	c0.27,0.949,1.294,1.655,2.276,1.57c0.983-0.085,1.828,0.65,1.879,1.635c0.053,0.985,0.892,1.902,1.87,2.038
	c0.977,0.135,1.636,1.041,1.468,2.012c-0.17,0.971,0.446,2.053,1.369,2.402c0.923,0.35,1.364,1.38,0.983,2.289
	c-0.382,0.91-0.021,2.101,0.8,2.646c0.82,0.546,1.023,1.649,0.449,2.45c-0.574,0.802-0.488,2.043,0.19,2.758
	c0.68,0.715,0.632,1.835-0.106,2.49c-0.738,0.653-0.93,1.882-0.428,2.73c0.503,0.848,0.207,1.93-0.658,2.403
	c-0.864,0.473-1.326,1.629-1.024,2.567c0.302,0.94-0.228,1.927-1.176,2.196C43.929,37.567,43.222,38.59,43.307,39.572z"/>
<g>
	<path class="st1" d="M17.236,38.067c-0.228-0.018-0.455-0.042-0.683-0.053c-0.201-0.01-0.306-0.106-0.326-0.305
		c-0.124-1.253,0.171-2.35,1.19-3.169c0.724-0.581,1.574-0.926,2.425-1.271c0.676-0.274,1.35-0.553,2.011-0.859
		c0.492-0.228,0.709-0.647,0.699-1.19c-0.006-0.322,0.004-0.644,0.016-0.966c0.009-0.22-0.048-0.416-0.171-0.595
		c-0.049-0.072-0.094-0.146-0.147-0.214c-0.472-0.609-0.684-1.312-0.731-2.069c-0.019-0.314-0.107-0.566-0.373-0.767
		c-0.255-0.193-0.382-0.483-0.419-0.803c-0.032-0.277-0.061-0.554-0.08-0.832c-0.034-0.486,0.006-0.533,0.49-0.61
		c0-0.123-0.006-0.252,0.001-0.379c0.031-0.542,0-1.099,0.112-1.624c0.323-1.523,1.315-2.398,2.856-2.614
		c0.768-0.108,1.521-0.054,2.255,0.192c1.131,0.38,1.754,1.214,2.058,2.329c0.152,0.559,0.119,1.13,0.116,1.699
		c-0.001,0.129,0,0.259,0,0.381c0.019,0.015,0.027,0.027,0.038,0.029c0.438,0.061,0.491,0.115,0.462,0.556
		c-0.021,0.314-0.054,0.628-0.101,0.94c-0.052,0.346-0.23,0.628-0.509,0.836c-0.153,0.113-0.225,0.249-0.24,0.435
		c-0.018,0.216-0.065,0.429-0.085,0.644c-0.058,0.596-0.272,1.133-0.638,1.6c-0.267,0.34-0.393,0.698-0.341,1.133
		c0.04,0.337,0.032,0.68,0.043,1.021c0.009,0.267,0.142,0.467,0.334,0.639c0.343,0.308,0.754,0.492,1.177,0.656
		c0.721,0.28,1.453,0.537,2.154,0.861c0.502,0.232,0.995,0.513,1.433,0.849c1.011,0.778,1.299,1.872,1.202,3.094
		c-0.025,0.315-0.092,0.354-0.414,0.381c-0.153,0.013-0.306,0.031-0.459,0.047C27.471,38.067,22.353,38.067,17.236,38.067z"/>
	<path class="st1" d="M38.833,24.722c-0.036,0.338-0.067,0.676-0.109,1.013c-0.334,2.685-1.349,5.082-3.055,7.183
		c-0.316,0.389-0.857,0.466-1.226,0.181c-0.394-0.304-0.453-0.838-0.143-1.26c0.286-0.389,0.589-0.768,0.848-1.174
		c1.474-2.319,2.113-4.856,1.892-7.594c-0.438-5.425-4.452-9.933-9.776-11.007c-6.629-1.337-13.133,2.995-14.437,9.632
		c-0.492,2.502-0.217,4.926,0.803,7.27c0.449,1.031,1.023,1.977,1.728,2.849c0.333,0.412,0.287,0.956-0.108,1.274
		c-0.366,0.295-0.927,0.222-1.242-0.171c-1.898-2.366-2.967-5.053-3.129-8.091c-0.004-0.072-0.024-0.144-0.036-0.216
		c0-0.285,0-0.57,0-0.855c0.011-0.085,0.029-0.169,0.032-0.254c0.109-2.855,1.006-5.444,2.713-7.727
		c2.386-3.191,5.578-5.051,9.531-5.59c0.342-0.047,0.688-0.073,1.031-0.109c0.446,0,0.892,0,1.338,0
		c0.344,0.036,0.688,0.065,1.031,0.109c3.303,0.424,6.121,1.821,8.424,4.229c2.14,2.238,3.404,4.9,3.783,7.977
		c0.042,0.343,0.072,0.687,0.107,1.03C38.833,23.854,38.833,24.288,38.833,24.722z"/>
	<path class="st1" d="M24.817,14.018c4.504,0.005,8.433,2.948,9.686,7.253c0.223,0.765,0.342,1.551,0.379,2.342
		c0.083,1.764-0.277,3.441-1.08,5.017c-0.416,0.816-0.937,1.56-1.557,2.233c-0.285,0.309-0.717,0.384-1.07,0.2
		c-0.332-0.173-0.531-0.56-0.435-0.941c0.046-0.182,0.156-0.366,0.283-0.508c1.083-1.217,1.763-2.627,2.02-4.233
		c0.623-3.902-1.589-7.701-5.284-9.095c-4.819-1.818-10.161,1.19-11.08,6.264c-0.459,2.533,0.148,4.814,1.78,6.814
		c0.086,0.106,0.177,0.207,0.265,0.311c0.33,0.39,0.312,0.936-0.041,1.256c-0.368,0.335-0.901,0.305-1.262-0.083
		c-0.654-0.703-1.187-1.491-1.609-2.353c-2.908-5.935,0.621-13.044,7.105-14.294c0.623-0.12,1.263-0.157,1.895-0.232
		C24.813,13.987,24.815,14.003,24.817,14.018z"/>
</g>
</svg>
