<?xml version="1.0" encoding="utf-8"?>
<!-- Generator: Adobe Illustrator 21.1.0, SVG Export Plug-In . SVG Version: 6.00 Build 0)  -->
<svg version="1.1" id="Capa_1" xmlns="http://www.w3.org/2000/svg" xmlns:xlink="http://www.w3.org/1999/xlink" x="0px" y="0px"
	 viewBox="0 0 120 20" style="enable-background:new 0 0 120 20;" xml:space="preserve">
<style type="text/css">
	.st0{fill:#6D8CBC;}
</style>
<g>
	<path class="st0" d="M21.233,14.337c0-0.537-0.189-0.962-0.566-1.276c-0.378-0.313-1.068-0.611-2.071-0.893
		c-1.004-0.282-1.736-0.59-2.198-0.922c-0.657-0.471-0.985-1.088-0.985-1.852c0-0.742,0.305-1.344,0.916-1.809
		c0.611-0.464,1.39-0.696,2.34-0.696c0.644,0,1.22,0.125,1.728,0.372c0.509,0.249,0.902,0.595,1.182,1.039
		c0.28,0.444,0.42,0.939,0.42,1.485h-0.826c0-0.663-0.227-1.197-0.679-1.6s-1.061-0.604-1.824-0.604
		c-0.742,0-1.332,0.166-1.771,0.497C16.46,8.41,16.24,8.842,16.24,9.375c0,0.494,0.197,0.896,0.593,1.207
		c0.394,0.312,1.027,0.586,1.898,0.824s1.53,0.485,1.977,0.741c0.448,0.255,0.786,0.56,1.012,0.916s0.34,0.775,0.34,1.259
		c0,0.765-0.305,1.376-0.916,1.838s-1.415,0.692-2.414,0.692c-0.684,0-1.311-0.122-1.881-0.366
		c-0.571-0.244-1.004-0.586-1.299-1.026s-0.443-0.943-0.443-1.512h0.819c0,0.684,0.255,1.223,0.766,1.619
		c0.511,0.394,1.19,0.592,2.037,0.592c0.754,0,1.361-0.166,1.818-0.499C21.006,15.327,21.233,14.888,21.233,14.337z"/>
	<path class="st0" d="M24.871,13.092l-0.913,0.879v2.75h-0.799V6.492h0.799v6.546l0.752-0.812l2.757-2.71h1.005l-3.057,3.037
		l3.322,4.169h-0.953L24.871,13.092z"/>
	<path class="st0" d="M29.315,7.435c0-0.15,0.048-0.277,0.147-0.381c0.098-0.104,0.231-0.155,0.4-0.155
		c0.169,0,0.303,0.051,0.403,0.155s0.15,0.231,0.15,0.381s-0.05,0.276-0.15,0.377c-0.101,0.102-0.235,0.152-0.403,0.152
		s-0.302-0.05-0.4-0.152S29.315,7.585,29.315,7.435z M30.254,16.722h-0.799V9.516h0.799V16.722z"/>
	<path class="st0" d="M32.832,16.722h-0.798V6.493h0.799L32.832,16.722L32.832,16.722L32.832,16.722z"/>
	<path class="st0" d="M35.412,16.722h-0.799V6.493h0.799V16.722z"/>
	<path class="st0" d="M41.415,14.89c0-0.395-0.158-0.713-0.476-0.953c-0.317-0.24-0.795-0.427-1.435-0.562
		c-0.639-0.135-1.136-0.291-1.488-0.466c-0.354-0.175-0.615-0.39-0.786-0.643c-0.171-0.253-0.257-0.559-0.257-0.919
		c0-0.569,0.238-1.038,0.712-1.408c0.475-0.371,1.084-0.556,1.824-0.556c0.804,0,1.449,0.198,1.934,0.596
		c0.487,0.397,0.729,0.916,0.729,1.555h-0.799c0-0.422-0.176-0.772-0.53-1.052c-0.352-0.28-0.797-0.42-1.334-0.42
		c-0.525,0-0.944,0.116-1.262,0.349c-0.317,0.234-0.476,0.536-0.476,0.91c0,0.36,0.132,0.638,0.395,0.835
		c0.264,0.197,0.746,0.379,1.446,0.543c0.699,0.165,1.223,0.34,1.571,0.526c0.348,0.187,0.607,0.411,0.775,0.672
		c0.169,0.262,0.253,0.58,0.253,0.953c0,0.607-0.245,1.094-0.735,1.458c-0.491,0.365-1.131,0.547-1.922,0.547
		c-0.839,0-1.519-0.202-2.041-0.61c-0.521-0.406-0.783-0.92-0.783-1.541h0.799c0.031,0.466,0.228,0.829,0.59,1.088
		c0.362,0.26,0.84,0.39,1.435,0.39c0.555,0,1.004-0.122,1.345-0.367C41.244,15.572,41.415,15.263,41.415,14.89z"/>
	<path class="st0" d="M48.017,11.433c-0.386-0.466-0.667-0.882-0.842-1.248C47,9.819,46.912,9.456,46.912,9.096
		c0-0.679,0.201-1.217,0.606-1.611s0.945-0.593,1.625-0.593c0.617,0,1.116,0.178,1.499,0.536c0.381,0.358,0.572,0.811,0.572,1.362
		c0,0.639-0.368,1.267-1.105,1.884L49.043,11.5l2.665,3.103c0.404-0.653,0.604-1.392,0.604-2.218h0.74
		c0,1.1-0.283,2.031-0.852,2.791l1.326,1.545h-0.959l-0.84-0.972c-0.35,0.346-0.754,0.618-1.215,0.812
		c-0.459,0.196-0.944,0.293-1.455,0.293c-0.923,0-1.656-0.237-2.198-0.709c-0.541-0.473-0.812-1.105-0.812-1.895
		c0-0.471,0.138-0.916,0.415-1.335c0.278-0.419,0.765-0.891,1.462-1.415L48.017,11.433z M49.056,16.182
		c0.404,0,0.796-0.086,1.175-0.257c0.38-0.17,0.721-0.414,1.023-0.728l-2.711-3.144l-0.093-0.1l-0.306,0.233
		c-0.871,0.71-1.305,1.398-1.305,2.065c0,0.581,0.199,1.048,0.599,1.402C47.838,16.005,48.377,16.182,49.056,16.182z M47.711,9.07
		c0,0.541,0.3,1.18,0.899,1.918l0.873-0.666c0.284-0.205,0.517-0.428,0.7-0.672s0.273-0.531,0.273-0.859
		c0-0.346-0.12-0.636-0.36-0.87c-0.24-0.233-0.559-0.349-0.959-0.349c-0.435,0-0.782,0.14-1.039,0.42
		C47.841,8.272,47.711,8.63,47.711,9.07z"/>
	<path class="st0" d="M63.618,7.717h-3.323v9.003h-0.818V7.717H56.16V7.025h7.458V7.717z"/>
	<path class="st0" d="M66.65,16.854c-0.613,0-1.167-0.151-1.662-0.453c-0.495-0.301-0.88-0.722-1.156-1.262
		c-0.276-0.539-0.413-1.143-0.413-1.814v-0.286c0-0.692,0.134-1.317,0.403-1.872c0.269-0.555,0.643-0.991,1.122-1.308
		c0.479-0.318,0.998-0.476,1.557-0.476c0.875,0,1.568,0.299,2.081,0.896c0.512,0.597,0.768,1.413,0.768,2.447v0.446h-5.14v0.153
		c0,0.817,0.235,1.498,0.703,2.04c0.468,0.544,1.059,0.816,1.769,0.816c0.426,0,0.803-0.078,1.129-0.234
		c0.326-0.154,0.623-0.404,0.89-0.746l0.499,0.38C68.614,16.43,67.764,16.854,66.65,16.854z M66.503,10.062
		c-0.598,0-1.104,0.219-1.514,0.659c-0.41,0.44-0.661,1.03-0.75,1.771h4.322v-0.087c-0.022-0.692-0.22-1.257-0.593-1.691
		S67.107,10.062,66.503,10.062z"/>
	<path class="st0" d="M73.091,16.182c0.555,0,1.021-0.156,1.395-0.47c0.375-0.313,0.578-0.718,0.608-1.215h0.766
		c-0.022,0.44-0.159,0.84-0.413,1.202c-0.253,0.363-0.59,0.645-1.009,0.85c-0.419,0.205-0.869,0.306-1.348,0.306
		c-0.945,0-1.694-0.327-2.248-0.985c-0.552-0.657-0.829-1.54-0.829-2.65v-0.24c0-0.71,0.124-1.339,0.372-1.884
		c0.249-0.546,0.604-0.967,1.069-1.265s1.007-0.446,1.629-0.446c0.79,0,1.441,0.235,1.953,0.706c0.513,0.471,0.787,1.09,0.822,1.858
		h-0.766c-0.035-0.564-0.238-1.019-0.608-1.365s-0.838-0.519-1.402-0.519c-0.72,0-1.278,0.26-1.675,0.779
		c-0.398,0.519-0.596,1.247-0.596,2.184v0.233c0,0.919,0.198,1.637,0.596,2.152C71.807,15.924,72.368,16.182,73.091,16.182z"/>
	<path class="st0" d="M77.768,10.735c0.261-0.431,0.596-0.764,1.005-0.999s0.854-0.352,1.339-0.352c0.772,0,1.347,0.218,1.725,0.653
		c0.378,0.434,0.569,1.088,0.573,1.958v4.728h-0.793v-4.734c-0.004-0.644-0.141-1.124-0.409-1.438s-0.699-0.473-1.289-0.473
		c-0.493,0-0.929,0.154-1.308,0.463c-0.38,0.308-0.661,0.724-0.842,1.248v4.935h-0.793V6.493h0.793L77.768,10.735L77.768,10.735
		L77.768,10.735z"/>
	<path class="st0" d="M84.742,9.516l0.026,1.232c0.271-0.444,0.608-0.783,1.012-1.015c0.404-0.233,0.851-0.349,1.339-0.349
		c0.772,0,1.347,0.218,1.725,0.653s0.569,1.088,0.573,1.958v4.728h-0.793v-4.734c-0.004-0.644-0.141-1.124-0.409-1.438
		c-0.269-0.315-0.699-0.473-1.289-0.473c-0.493,0-0.929,0.154-1.308,0.463c-0.38,0.308-0.661,0.724-0.842,1.248v4.935h-0.791V9.516
		H84.742z"/>
	<path class="st0" d="M90.949,7.435c0-0.15,0.049-0.277,0.148-0.381c0.098-0.104,0.231-0.155,0.4-0.155
		c0.168,0,0.302,0.051,0.403,0.155c0.1,0.104,0.15,0.231,0.15,0.381S92,7.711,91.9,7.812c-0.101,0.102-0.235,0.152-0.403,0.152
		c-0.169,0-0.302-0.05-0.4-0.152C90.999,7.711,90.949,7.585,90.949,7.435z M91.889,16.722H91.09V9.516h0.799V16.722z"/>
	<path class="st0" d="M93.257,13.052c0-1.128,0.25-2.02,0.749-2.68c0.5-0.659,1.182-0.988,2.048-0.988
		c0.972,0,1.711,0.371,2.217,1.112l0.041-0.979h0.746v9.976h-0.799V15.83c-0.525,0.684-1.263,1.026-2.218,1.026
		c-0.843,0-1.518-0.333-2.025-0.999c-0.507-0.666-0.76-1.564-0.76-2.697v-0.108H93.257z M94.062,13.191
		c0,0.933,0.189,1.664,0.563,2.195s0.896,0.796,1.561,0.796c0.955,0,1.645-0.415,2.072-1.246v-3.529
		c-0.2-0.431-0.476-0.763-0.83-0.996c-0.352-0.233-0.763-0.349-1.228-0.349c-0.67,0-1.195,0.265-1.572,0.796
		C94.252,11.388,94.062,12.167,94.062,13.191z"/>
	<path class="st0" d="M105.338,15.809c-0.479,0.697-1.246,1.045-2.296,1.045c-0.768,0-1.352-0.223-1.752-0.669
		c-0.4-0.447-0.603-1.107-0.613-1.982V9.516h0.793v4.589c0,1.372,0.554,2.057,1.664,2.057c1.155,0,1.885-0.477,2.191-1.431V9.516
		h0.799v7.205h-0.772L105.338,15.809z"/>
	<path class="st0" d="M110.508,16.854c-0.613,0-1.167-0.151-1.662-0.453c-0.495-0.301-0.88-0.722-1.156-1.262
		c-0.276-0.539-0.413-1.143-0.413-1.814v-0.286c0-0.692,0.134-1.317,0.403-1.872c0.269-0.555,0.643-0.991,1.122-1.308
		c0.479-0.318,0.998-0.476,1.557-0.476c0.875,0,1.568,0.299,2.081,0.896c0.512,0.597,0.768,1.413,0.768,2.447v0.446h-5.14v0.153
		c0,0.817,0.235,1.498,0.703,2.04c0.468,0.544,1.059,0.816,1.769,0.816c0.426,0,0.803-0.078,1.129-0.234
		c0.326-0.154,0.623-0.404,0.89-0.746l0.499,0.38C112.472,16.43,111.621,16.854,110.508,16.854z M110.36,10.062
		c-0.598,0-1.104,0.219-1.514,0.659c-0.41,0.44-0.661,1.03-0.75,1.771h4.322v-0.087c-0.022-0.692-0.22-1.257-0.593-1.691
		S110.964,10.062,110.36,10.062z"/>
	<path class="st0" d="M118.601,14.89c0-0.395-0.158-0.713-0.476-0.953c-0.318-0.239-0.796-0.427-1.435-0.562
		s-1.135-0.291-1.488-0.466c-0.354-0.175-0.615-0.39-0.786-0.643c-0.171-0.253-0.257-0.559-0.257-0.919
		c0-0.569,0.238-1.038,0.713-1.408c0.475-0.371,1.083-0.556,1.824-0.556c0.804,0,1.449,0.198,1.934,0.596
		c0.487,0.397,0.729,0.916,0.729,1.555h-0.799c0-0.422-0.176-0.772-0.53-1.052c-0.352-0.28-0.798-0.42-1.334-0.42
		c-0.523,0-0.944,0.116-1.262,0.349c-0.318,0.234-0.476,0.536-0.476,0.91c0,0.36,0.132,0.638,0.397,0.835
		c0.264,0.197,0.746,0.379,1.446,0.543c0.699,0.165,1.223,0.34,1.571,0.526s0.606,0.411,0.775,0.672
		c0.169,0.262,0.253,0.58,0.253,0.953c0,0.607-0.244,1.094-0.735,1.458c-0.491,0.365-1.131,0.547-1.922,0.547
		c-0.838,0-1.519-0.202-2.04-0.61c-0.521-0.406-0.783-0.92-0.783-1.541h0.799c0.031,0.466,0.229,0.829,0.59,1.088
		c0.362,0.26,0.84,0.39,1.434,0.39c0.555,0,1.004-0.122,1.346-0.367C118.43,15.572,118.601,15.263,118.601,14.89z"/>
</g>
<g id="_x35_bPADg_1_">
	<g>
		<path class="st0" d="M6.525,15.659c-0.693,0-1.387,0.001-2.08,0c-0.349-0.001-0.46-0.103-0.509-0.451
			c-0.14-1.01-0.585-1.9-1.136-2.735c-0.43-0.651-0.919-1.262-1.393-1.883C0.743,9.717,0.279,8.751,0.101,7.668
			c-0.3-1.82,0.066-3.497,1.164-4.986c1.079-1.464,2.53-2.336,4.334-2.609c3.387-0.513,6.622,1.73,7.325,5.13
			c0.415,2.008-0.058,3.825-1.316,5.429c-0.759,0.969-1.492,1.952-2.009,3.075c-0.233,0.507-0.438,1.024-0.468,1.592
			c-0.012,0.214-0.192,0.356-0.436,0.357C7.972,15.66,7.249,15.658,6.525,15.659z"/>
		<path class="st0" d="M7.837,19.194c0,0.127,0.005,0.261-0.001,0.394c-0.013,0.243-0.169,0.405-0.411,0.407
			c-0.589,0.007-1.176,0.005-1.766,0.001c-0.255-0.003-0.406-0.161-0.415-0.425c-0.005-0.131-0.001-0.265-0.001-0.423
			c-0.288,0-0.554,0.003-0.82,0c-0.332-0.004-0.477-0.145-0.479-0.473c-0.001-0.551-0.003-1.102,0-1.653
			c0.001-0.282,0.131-0.422,0.411-0.455c0.058-0.007,0.119-0.005,0.179-0.005c1.333,0,2.666,0,4.001,0
			c0.485,0,0.603,0.119,0.603,0.607c0,0.507,0.001,1.013,0,1.52c-0.003,0.302-0.149,0.451-0.45,0.459
			c-0.267,0.005-0.536,0.007-0.803,0.011C7.877,19.16,7.872,19.167,7.837,19.194z"/>
	</g>
</g>
</svg>
