<?xml version="1.0" encoding="utf-8"?>
<!-- Generator: Adobe Illustrator 21.1.0, SVG Export Plug-In . SVG Version: 6.00 Build 0)  -->
<svg version="1.1" id="Layer_1" xmlns="http://www.w3.org/2000/svg" xmlns:xlink="http://www.w3.org/1999/xlink" x="0px" y="0px"
	 viewBox="0 0 50 50" style="enable-background:new 0 0 50 50;" xml:space="preserve">
<style type="text/css">
	.st0{fill:#E1D11F;}
	.st1{fill:#FFFFFF;}
</style>
<path class="st0" d="M43.307,39.572c0.085,0.983-0.65,1.829-1.635,1.88c-0.984,0.051-1.901,0.893-2.037,1.869
	c-0.135,0.976-1.041,1.637-2.013,1.468c-0.971-0.169-2.052,0.447-2.402,1.369c-0.35,0.922-1.379,1.364-2.289,0.983
	c-0.91-0.381-2.101-0.021-2.646,0.8c-0.546,0.821-1.648,1.023-2.45,0.449c-0.801-0.574-2.043-0.487-2.758,0.191
	c-0.715,0.68-1.834,0.631-2.488-0.107c-0.655-0.738-1.883-0.93-2.732-0.428c-0.848,0.503-1.93,0.207-2.403-0.658
	c-0.473-0.864-1.629-1.326-2.568-1.025c-0.938,0.302-1.926-0.227-2.195-1.176c-0.269-0.948-1.294-1.655-2.276-1.569
	c-0.982,0.084-1.828-0.651-1.879-1.636c-0.051-0.984-0.892-1.902-1.869-2.037c-0.976-0.136-1.637-1.042-1.469-2.013
	c0.17-0.971-0.446-2.052-1.368-2.402c-0.922-0.35-1.365-1.38-0.984-2.289c0.381-0.909,0.021-2.101-0.8-2.646
	c-0.821-0.546-1.024-1.649-0.45-2.45c0.575-0.802,0.487-2.043-0.191-2.758c-0.679-0.715-0.631-1.835,0.107-2.489
	c0.739-0.654,0.931-1.883,0.426-2.731c-0.502-0.849-0.205-1.93,0.659-2.404c0.865-0.473,1.327-1.629,1.024-2.567
	C3.32,14.258,3.85,13.27,4.799,13c0.948-0.269,1.655-1.293,1.57-2.276C6.283,9.743,7.019,8.897,8.004,8.846
	c0.985-0.051,1.901-0.892,2.037-1.869C10.177,6,11.083,5.34,12.054,5.509c0.971,0.169,2.052-0.447,2.402-1.369
	c0.35-0.922,1.379-1.364,2.288-0.984c0.909,0.381,2.101,0.022,2.647-0.8c0.546-0.821,1.648-1.024,2.451-0.449
	c0.801,0.574,2.042,0.488,2.758-0.191c0.715-0.679,1.834-0.631,2.488,0.107c0.654,0.738,1.882,0.93,2.731,0.428
	c0.849-0.503,1.93-0.207,2.404,0.658c0.473,0.865,1.629,1.326,2.567,1.024c0.939-0.301,1.927,0.228,2.195,1.177
	c0.27,0.949,1.294,1.655,2.276,1.57c0.983-0.085,1.828,0.65,1.879,1.635c0.053,0.985,0.892,1.902,1.87,2.038
	c0.977,0.135,1.636,1.041,1.468,2.012c-0.17,0.971,0.446,2.053,1.369,2.402c0.923,0.35,1.364,1.38,0.983,2.289
	c-0.382,0.91-0.021,2.101,0.8,2.646c0.82,0.546,1.023,1.649,0.449,2.45c-0.574,0.802-0.488,2.043,0.19,2.758
	c0.68,0.715,0.632,1.835-0.106,2.49c-0.738,0.653-0.93,1.882-0.428,2.73c0.503,0.848,0.207,1.93-0.658,2.403
	c-0.864,0.473-1.326,1.629-1.024,2.567c0.302,0.94-0.228,1.927-1.176,2.196C43.929,37.567,43.222,38.59,43.307,39.572z"/>
<g id="gF07J2_1_">
	<g>
		<path class="st1" d="M40.535,19.821c-0.527-0.269-1.008-0.509-1.48-0.762c-0.088-0.047-0.152-0.146-0.216-0.23
			c-0.68-0.891-1.918-1.067-2.786-0.395c-0.845,0.655-1.013,1.895-0.37,2.737c0.675,0.884,1.892,1.048,2.781,0.353
			c0.187-0.146,0.323-0.169,0.492-0.012c0.009,0.008,0.02,0.014,0.03,0.02c0.841,0.573,0.878,0.676,0.575,1.631
			c-0.425,1.337-0.831,2.679-1.282,4.007c-0.382,1.124-1.116,1.96-2.249,2.374c-6.948,2.537-13.899,5.064-20.849,7.593
			c-1.128,0.41-2.052-0.004-2.477-1.133c-0.482-1.279-0.938-2.567-1.406-3.851c-1.034-2.838-2.077-5.674-3.09-8.519
			c-0.132-0.37-0.185-0.802-0.145-1.192c0.072-0.692,0.507-1.12,1.172-1.36c4.025-1.454,8.044-2.924,12.065-4.388
			c2.962-1.079,5.923-2.163,8.888-3.235c1.098-0.397,2.178-0.263,3.151,0.331c2.058,1.258,4.087,2.564,6.115,3.87
			C40.22,18.155,40.54,18.904,40.535,19.821z M16.571,23.516c0.841,2.338,1.641,4.563,2.451,6.814
			c0.63-0.227,1.219-0.44,1.821-0.657c-0.3-0.84-0.583-1.635-0.861-2.416c0.276-0.205,0.479-0.193,0.722,0.025
			c0.589,0.529,1.206,1.027,1.82,1.528c0.09,0.073,0.244,0.157,0.333,0.128c0.631-0.206,1.254-0.44,1.942-0.687
			c-1.036-0.768-2.015-1.494-2.997-2.222c0.107-0.161,0.206-0.297,0.291-0.44c0.467-0.785,0.398-1.56-0.078-2.308
			c-0.447-0.701-1.145-0.954-1.906-0.778C18.936,22.776,17.79,23.161,16.571,23.516z M30.597,26.168
			c1.345-0.483,2.66-0.955,4.006-1.439c-0.182-0.505-0.355-0.983-0.535-1.483c-0.743,0.263-1.45,0.514-2.181,0.773
			c-0.154-0.43-0.298-0.833-0.45-1.258c0.677-0.249,1.334-0.49,2.013-0.739c-0.187-0.513-0.357-0.979-0.53-1.454
			c-0.694,0.247-1.345,0.479-2.016,0.718c-0.129-0.366-0.246-0.699-0.371-1.051c0.744-0.271,1.446-0.527,2.17-0.791
			c-0.182-0.505-0.347-0.963-0.526-1.46c-1.351,0.486-2.673,0.962-4.005,1.441C28.986,21.693,29.785,23.912,30.597,26.168z
			 M26.994,19.847c-1.359,0.489-2.673,0.962-4.008,1.442c0.815,2.265,1.617,4.492,2.427,6.745c1.353-0.487,2.667-0.96,4.005-1.442
			c-0.185-0.512-0.359-0.99-0.538-1.483c-0.746,0.265-1.452,0.516-2.177,0.774c-0.158-0.438-0.301-0.838-0.453-1.26
			c0.684-0.249,1.334-0.485,2.014-0.733c-0.183-0.503-0.355-0.976-0.529-1.456c-0.696,0.246-1.346,0.476-2.019,0.714
			c-0.132-0.371-0.249-0.702-0.371-1.048c0.749-0.273,1.443-0.526,2.169-0.791C27.339,20.817,27.176,20.358,26.994,19.847z
			 M11.505,25.418c0.812,2.258,1.613,4.485,2.425,6.744c0.613-0.221,1.194-0.431,1.793-0.647c-0.303-0.854-0.598-1.682-0.898-2.528
			c0.693-0.252,1.341-0.488,2.012-0.732c-0.183-0.501-0.354-0.967-0.532-1.454c-0.692,0.245-1.341,0.474-2.014,0.712
			c-0.158-0.441-0.303-0.843-0.457-1.271c0.739-0.27,1.453-0.532,2.184-0.799c-0.181-0.498-0.352-0.967-0.53-1.458
			C14.141,24.469,12.838,24.938,11.505,25.418z"/>
		<path class="st1" d="M34.441,30.774c0.388-0.143,0.698-0.27,1.018-0.367c0.103-0.032,0.244-0.018,0.343,0.028
			c1.728,0.786,3.412,0.103,4.446-1.159c1.81-2.21,1.62-5.924-0.422-7.832c-1.014-0.947-2.194-1.283-3.551-0.893
			c-0.058,0.017-0.117,0.028-0.176,0.04c-0.01,0.002-0.022-0.007-0.118-0.044c-0.018-0.237-0.069-0.516-0.044-0.788
			c0.009-0.097,0.192-0.227,0.315-0.256c1.702-0.401,3.17,0.086,4.372,1.3c1.516,1.529,2.047,3.423,1.842,5.539
			c-0.159,1.65-0.803,3.076-2.035,4.206c-1.609,1.477-3.805,1.658-5.641,0.479C34.693,30.963,34.601,30.89,34.441,30.774z"/>
		<path class="st1" d="M19.47,25.844c-0.187-0.523-0.359-1.005-0.544-1.522c0.428-0.165,0.824-0.388,1.251-0.139
			c0.309,0.18,0.406,0.519,0.343,0.85C20.417,25.569,19.944,25.681,19.47,25.844z"/>
	</g>
</g>
</svg>
