<?xml version="1.0" encoding="utf-8"?>
<!-- Generator: Adobe Illustrator 21.1.0, SVG Export Plug-In . SVG Version: 6.00 Build 0)  -->
<svg version="1.1" id="Capa_1" xmlns="http://www.w3.org/2000/svg" xmlns:xlink="http://www.w3.org/1999/xlink" x="0px" y="0px"
	 viewBox="0 0 120 20" style="enable-background:new 0 0 120 20;" xml:space="preserve">
<style type="text/css">
	.st0{fill:#6D8CBC;}
</style>
<g>
	<path class="st0" d="M21.704,0H0.959C0.429,0,0,0.428,0,0.959v14.565c0,0.529,0.428,0.959,0.959,0.959h11.503l4.411,3.295
		c0.597,0.444,1.082,0.201,1.082-0.543v-2.753h3.75c0.529,0,0.959-0.428,0.959-0.959V0.958C22.662,0.428,22.234,0,21.704,0z
		 M6.106,9.61c-0.819,0-1.481-0.664-1.481-1.481s0.664-1.481,1.481-1.481s1.481,0.661,1.481,1.48C7.587,8.945,6.923,9.61,6.106,9.61
		z M11.333,9.61c-0.819,0-1.481-0.664-1.481-1.481s0.664-1.481,1.481-1.481c0.817,0,1.481,0.664,1.481,1.481
		C12.813,8.945,12.152,9.61,11.333,9.61z M16.56,9.61c-0.819,0-1.481-0.664-1.481-1.481s0.664-1.481,1.481-1.481
		s1.481,0.664,1.481,1.481C18.041,8.945,17.378,9.61,16.56,9.61z"/>
</g>
<g>
	<path class="st0" d="M29.589,15.817V5.768h2.808c0.823,0,1.562,0.187,2.216,0.563c0.653,0.375,1.162,0.912,1.529,1.611
		c0.365,0.699,0.548,1.495,0.548,2.387v0.925c0,0.897-0.182,1.693-0.545,2.387s-0.875,1.231-1.535,1.608s-1.419,0.566-2.274,0.566
		C32.335,15.817,29.589,15.817,29.589,15.817z M30.438,6.486v8.612h1.905c1.058,0,1.907-0.351,2.546-1.053
		c0.639-0.702,0.959-1.652,0.959-2.849v-0.884c0-1.156-0.315-2.082-0.946-2.777c-0.631-0.696-1.461-1.045-2.492-1.05L30.438,6.486
		L30.438,6.486z"/>
	<path class="st0" d="M38.107,6.193c0-0.155,0.05-0.287,0.152-0.395c0.101-0.108,0.239-0.161,0.414-0.161s0.314,0.053,0.417,0.161
		s0.155,0.239,0.155,0.395c0,0.155-0.052,0.286-0.155,0.39c-0.104,0.105-0.244,0.158-0.417,0.158s-0.313-0.052-0.414-0.158
		S38.107,6.349,38.107,6.193z M39.08,15.817h-0.828V8.349h0.828V15.817z"/>
	<path class="st0" d="M45.3,13.918c0-0.409-0.164-0.738-0.494-0.987c-0.328-0.249-0.824-0.442-1.487-0.583
		c-0.662-0.14-1.177-0.301-1.542-0.483c-0.366-0.182-0.637-0.404-0.814-0.666s-0.266-0.579-0.266-0.952
		c0-0.589,0.247-1.075,0.738-1.459c0.492-0.385,1.123-0.576,1.891-0.576c0.833,0,1.501,0.205,2.005,0.617
		c0.504,0.411,0.756,0.949,0.756,1.611h-0.828c0-0.437-0.183-0.8-0.549-1.09c-0.365-0.29-0.826-0.435-1.383-0.435
		c-0.544,0-0.978,0.121-1.308,0.362c-0.328,0.242-0.494,0.556-0.494,0.943c0,0.373,0.137,0.661,0.41,0.865
		c0.274,0.204,0.773,0.392,1.498,0.563c0.724,0.171,1.268,0.352,1.629,0.545c0.361,0.194,0.629,0.426,0.803,0.697
		s0.262,0.6,0.262,0.987c0,0.631-0.254,1.134-0.762,1.511c-0.509,0.377-1.172,0.566-1.992,0.566c-0.87,0-1.574-0.21-2.116-0.632
		c-0.54-0.421-0.811-0.953-0.811-1.597h0.828c0.033,0.483,0.236,0.86,0.611,1.128c0.375,0.27,0.871,0.404,1.487,0.404
		c0.575,0,1.04-0.126,1.394-0.379C45.119,14.626,45.3,14.304,45.3,13.918z"/>
	<path class="st0" d="M50.25,15.257c0.575,0,1.057-0.162,1.446-0.487c0.388-0.324,0.599-0.744,0.632-1.259h0.794
		c-0.023,0.456-0.165,0.871-0.428,1.246c-0.262,0.375-0.611,0.669-1.046,0.881c-0.434,0.212-0.9,0.317-1.397,0.317
		c-0.98,0-1.756-0.34-2.33-1.021c-0.572-0.681-0.859-1.596-0.859-2.746v-0.249c0-0.736,0.129-1.387,0.386-1.952
		s0.627-1.002,1.108-1.311c0.481-0.309,1.044-0.462,1.687-0.462c0.819,0,1.495,0.244,2.025,0.732
		c0.532,0.488,0.815,1.13,0.852,1.925h-0.794c-0.037-0.585-0.248-1.056-0.632-1.414c-0.385-0.359-0.869-0.538-1.452-0.538
		c-0.746,0-1.324,0.27-1.735,0.808c-0.412,0.538-0.617,1.293-0.617,2.263v0.241c0,0.952,0.205,1.696,0.617,2.229
		C48.919,14.99,49.5,15.257,50.25,15.257z"/>
	<path class="st0" d="M59.079,14.871c-0.497,0.723-1.29,1.084-2.381,1.084c-0.796,0-1.401-0.232-1.814-0.694
		c-0.414-0.463-0.626-1.147-0.635-2.054V8.349h0.821v4.755c0,1.422,0.575,2.132,1.725,2.132c1.196,0,1.952-0.495,2.27-1.484V8.349
		h0.828v7.466h-0.8L59.079,14.871z"/>
	<path class="st0" d="M66.016,13.918c0-0.409-0.164-0.738-0.494-0.987c-0.328-0.249-0.824-0.442-1.487-0.583
		c-0.662-0.14-1.177-0.301-1.542-0.483c-0.366-0.182-0.637-0.404-0.814-0.666s-0.266-0.579-0.266-0.952
		c0-0.589,0.247-1.075,0.738-1.459c0.492-0.385,1.123-0.576,1.891-0.576c0.833,0,1.501,0.205,2.005,0.617
		c0.504,0.411,0.756,0.949,0.756,1.611h-0.828c0-0.437-0.183-0.8-0.549-1.09c-0.365-0.29-0.826-0.435-1.383-0.435
		c-0.544,0-0.978,0.121-1.308,0.362c-0.328,0.242-0.494,0.556-0.494,0.943c0,0.373,0.137,0.661,0.41,0.865
		c0.274,0.204,0.773,0.392,1.498,0.563c0.724,0.171,1.268,0.352,1.629,0.545c0.361,0.194,0.628,0.426,0.803,0.697
		s0.262,0.6,0.262,0.987c0,0.631-0.253,1.134-0.762,1.511s-1.172,0.566-1.992,0.566c-0.87,0-1.574-0.21-2.116-0.632
		c-0.54-0.421-0.811-0.953-0.811-1.597h0.828c0.033,0.483,0.236,0.86,0.611,1.128c0.375,0.27,0.871,0.404,1.487,0.404
		c0.575,0,1.04-0.126,1.394-0.379C65.836,14.626,66.016,14.304,66.016,13.918z"/>
	<path class="st0" d="M72.677,13.918c0-0.409-0.164-0.738-0.494-0.987s-0.825-0.442-1.487-0.583
		c-0.662-0.14-1.176-0.301-1.542-0.483s-0.637-0.404-0.814-0.666s-0.266-0.579-0.266-0.952c0-0.589,0.247-1.075,0.739-1.459
		c0.492-0.385,1.122-0.576,1.891-0.576c0.833,0,1.501,0.205,2.005,0.617c0.504,0.411,0.756,0.949,0.756,1.611h-0.828
		c0-0.437-0.183-0.8-0.549-1.09c-0.365-0.29-0.827-0.435-1.383-0.435c-0.542,0-0.978,0.121-1.308,0.362
		c-0.329,0.242-0.494,0.556-0.494,0.943c0,0.373,0.137,0.661,0.411,0.865s0.773,0.392,1.498,0.563
		c0.724,0.171,1.268,0.352,1.629,0.545c0.361,0.192,0.628,0.426,0.803,0.697s0.262,0.6,0.262,0.987c0,0.631-0.253,1.134-0.762,1.511
		s-1.172,0.566-1.992,0.566c-0.869,0-1.574-0.21-2.114-0.632c-0.54-0.421-0.811-0.953-0.811-1.597h0.828
		c0.033,0.483,0.237,0.86,0.611,1.128c0.375,0.27,0.871,0.404,1.486,0.404c0.575,0,1.04-0.126,1.395-0.379
		C72.5,14.624,72.677,14.304,72.677,13.918z"/>
	<path class="st0" d="M74.819,6.193c0-0.155,0.051-0.287,0.153-0.395c0.101-0.108,0.239-0.161,0.414-0.161
		c0.174,0,0.313,0.053,0.417,0.161c0.103,0.108,0.155,0.239,0.155,0.395c0,0.155-0.052,0.286-0.155,0.39
		c-0.104,0.105-0.244,0.158-0.417,0.158c-0.175,0-0.313-0.052-0.414-0.158C74.87,6.479,74.819,6.349,74.819,6.193z M75.792,15.817
		h-0.828V8.349h0.828V15.817z"/>
	<path class="st0" d="M77.085,11.972c0-0.718,0.139-1.364,0.417-1.939s0.672-1.022,1.181-1.342s1.084-0.479,1.729-0.479
		c0.994,0,1.798,0.348,2.416,1.046c0.616,0.697,0.925,1.62,0.925,2.77v0.173c0,0.723-0.139,1.372-0.417,1.949
		c-0.278,0.577-0.671,1.023-1.177,1.336c-0.506,0.313-1.083,0.47-1.732,0.47c-0.989,0-1.793-0.348-2.412-1.046
		c-0.619-0.697-0.928-1.62-0.928-2.77L77.085,11.972L77.085,11.972z M77.913,12.2c0,0.893,0.232,1.625,0.694,2.197
		c0.463,0.573,1.069,0.86,1.819,0.86c0.746,0,1.349-0.286,1.811-0.86c0.463-0.572,0.694-1.328,0.694-2.267v-0.159
		c0-0.571-0.105-1.093-0.316-1.567c-0.212-0.474-0.509-0.84-0.89-1.101c-0.383-0.26-0.819-0.389-1.311-0.389
		c-0.736,0-1.336,0.289-1.8,0.866c-0.465,0.577-0.698,1.333-0.698,2.267V12.2H77.913z"/>
	<path class="st0" d="M85.746,8.349l0.027,1.276c0.28-0.46,0.631-0.811,1.049-1.052c0.419-0.241,0.882-0.362,1.387-0.362
		c0.8,0,1.396,0.226,1.787,0.676c0.391,0.45,0.589,1.127,0.594,2.029v4.9h-0.822V10.91c-0.004-0.668-0.146-1.164-0.424-1.49
		s-0.724-0.49-1.336-0.49c-0.511,0-0.963,0.16-1.356,0.479c-0.394,0.32-0.685,0.75-0.873,1.294v5.114h-0.821V8.349H85.746z"/>
</g>
</svg>
