<?xml version="1.0" encoding="utf-8"?>
<!-- Generator: Adobe Illustrator 21.1.0, SVG Export Plug-In . SVG Version: 6.00 Build 0)  -->
<svg version="1.1" id="Layer_1" xmlns="http://www.w3.org/2000/svg" xmlns:xlink="http://www.w3.org/1999/xlink" x="0px" y="0px"
	 viewBox="0 0 368 50" style="enable-background:new 0 0 368 50;" xml:space="preserve">
<style type="text/css">
	.st0{fill:#4FC5DD;}
	.st1{fill:#FFFFFF;}
	.st2{fill:#7FA8E0;}
	.st3{fill:#E1D11F;}
</style>
<g>
	<path class="st0" d="M37.177,40.724c0.073,0.839-0.555,1.561-1.396,1.605c-0.84,0.044-1.623,0.762-1.739,1.595
		c-0.115,0.833-0.889,1.397-1.718,1.253c-0.829-0.144-1.752,0.382-2.05,1.169c-0.299,0.787-1.177,1.164-1.954,0.839
		s-1.793-0.018-2.259,0.683c-0.466,0.701-1.407,0.873-2.091,0.383s-1.744-0.416-2.354,0.163c-0.61,0.58-1.566,0.539-2.124-0.091
		c-0.559-0.63-1.607-0.794-2.332-0.365c-0.724,0.429-1.647,0.177-2.051-0.562c-0.404-0.738-1.391-1.132-2.192-0.875
		c-0.801,0.258-1.644-0.194-1.874-1.004c-0.23-0.809-1.105-1.413-1.943-1.339c-0.838,0.072-1.56-0.556-1.604-1.397
		c-0.044-0.84-0.761-1.624-1.595-1.739c-0.833-0.116-1.397-0.889-1.254-1.718c0.145-0.829-0.381-1.752-1.168-2.05
		c-0.787-0.299-1.165-1.178-0.84-1.954c0.325-0.776,0.018-1.793-0.683-2.259s-0.874-1.408-0.384-2.091
		c0.491-0.685,0.416-1.744-0.163-2.354c-0.58-0.61-0.539-1.566,0.091-2.125c0.631-0.558,0.795-1.607,0.364-2.331
		c-0.429-0.725-0.175-1.647,0.563-2.052c0.738-0.404,1.133-1.391,0.874-2.191c-0.257-0.801,0.195-1.644,1.006-1.875
		c0.809-0.23,1.413-1.104,1.34-1.943c-0.073-0.837,0.555-1.56,1.396-1.603c0.841-0.044,1.623-0.761,1.739-1.595
		c0.116-0.834,0.889-1.397,1.718-1.253c0.829,0.144,1.752-0.382,2.05-1.169c0.299-0.787,1.177-1.164,1.953-0.84
		c0.776,0.325,1.793,0.019,2.26-0.683c0.466-0.701,1.407-0.874,2.092-0.383c0.684,0.49,1.743,0.417,2.354-0.163
		c0.61-0.58,1.566-0.539,2.124,0.091s1.607,0.794,2.331,0.365c0.725-0.429,1.647-0.177,2.052,0.562
		c0.404,0.738,1.391,1.132,2.191,0.874c0.802-0.257,1.645,0.195,1.874,1.005c0.23,0.81,1.105,1.413,1.943,1.34
		c0.839-0.073,1.56,0.555,1.604,1.396c0.045,0.841,0.761,1.624,1.596,1.74c0.834,0.115,1.397,0.889,1.253,1.717
		c-0.145,0.829,0.381,1.752,1.169,2.05c0.788,0.299,1.164,1.178,0.839,1.954c-0.326,0.777-0.018,1.793,0.683,2.259
		c0.7,0.466,0.873,1.408,0.383,2.091c-0.49,0.685-0.417,1.744,0.162,2.354c0.58,0.61,0.539,1.566-0.09,2.126
		c-0.63,0.557-0.794,1.607-0.365,2.33c0.429,0.724,0.177,1.647-0.562,2.051c-0.738,0.404-1.132,1.391-0.874,2.191
		c0.258,0.802-0.195,1.645-1.004,1.875C37.708,39.012,37.105,39.886,37.177,40.724z"/>
	<g>
		<path class="st1" d="M14.922,39.439c-0.195-0.015-0.388-0.036-0.583-0.045c-0.172-0.009-0.261-0.09-0.278-0.26
			c-0.106-1.07,0.146-2.006,1.016-2.705c0.618-0.496,1.344-0.79,2.07-1.085c0.577-0.234,1.152-0.472,1.717-0.733
			c0.42-0.195,0.605-0.552,0.597-1.016c-0.005-0.275,0.003-0.55,0.014-0.825c0.008-0.188-0.041-0.355-0.146-0.508
			c-0.042-0.061-0.08-0.125-0.125-0.183c-0.403-0.52-0.584-1.12-0.624-1.766c-0.016-0.268-0.091-0.483-0.318-0.655
			c-0.218-0.165-0.326-0.412-0.358-0.685c-0.027-0.236-0.052-0.473-0.068-0.71c-0.029-0.415,0.005-0.455,0.418-0.521
			c0-0.105-0.005-0.215,0.001-0.324c0.026-0.463,0-0.938,0.096-1.386c0.276-1.3,1.123-2.047,2.438-2.231
			c0.656-0.092,1.298-0.046,1.925,0.164c0.965,0.324,1.497,1.036,1.757,1.988c0.13,0.477,0.102,0.965,0.099,1.45
			c-0.001,0.11,0,0.221,0,0.325c0.016,0.013,0.023,0.023,0.032,0.025c0.374,0.052,0.419,0.098,0.394,0.475
			c-0.018,0.268-0.046,0.536-0.086,0.802c-0.044,0.295-0.196,0.536-0.434,0.714c-0.131,0.096-0.192,0.213-0.205,0.371
			c-0.015,0.184-0.055,0.366-0.073,0.55c-0.05,0.509-0.232,0.967-0.545,1.366c-0.228,0.29-0.335,0.596-0.291,0.967
			c0.034,0.288,0.027,0.58,0.037,0.872c0.008,0.228,0.121,0.399,0.285,0.545c0.293,0.263,0.644,0.42,1.005,0.56
			c0.615,0.239,1.24,0.458,1.839,0.735c0.429,0.198,0.849,0.438,1.223,0.725c0.863,0.664,1.109,1.598,1.026,2.641
			c-0.021,0.269-0.079,0.302-0.353,0.325c-0.131,0.011-0.261,0.026-0.392,0.04C23.659,39.439,19.29,39.439,14.922,39.439z"/>
		<path class="st1" d="M33.358,28.048c-0.031,0.289-0.057,0.577-0.093,0.865c-0.285,2.292-1.152,4.338-2.608,6.132
			c-0.27,0.332-0.732,0.398-1.047,0.155c-0.336-0.26-0.387-0.715-0.122-1.076c0.244-0.332,0.503-0.656,0.724-1.002
			c1.258-1.98,1.804-4.145,1.615-6.482c-0.374-4.631-3.8-8.479-8.345-9.396c-5.659-1.141-11.211,2.557-12.324,8.222
			c-0.42,2.136-0.185,4.205,0.685,6.206c0.383,0.88,0.873,1.688,1.475,2.432c0.284,0.352,0.245,0.816-0.092,1.088
			c-0.312,0.252-0.791,0.19-1.06-0.146c-1.62-2.02-2.533-4.313-2.671-6.907c-0.003-0.061-0.02-0.123-0.031-0.184
			c0-0.243,0-0.487,0-0.73c0.009-0.073,0.025-0.144,0.027-0.217c0.093-2.437,0.859-4.647,2.316-6.596
			c2.037-2.724,4.762-4.312,8.136-4.772c0.292-0.04,0.587-0.062,0.88-0.093c0.381,0,0.761,0,1.142,0
			c0.294,0.031,0.587,0.055,0.88,0.093c2.82,0.362,5.225,1.554,7.191,3.61c1.827,1.91,2.906,4.183,3.229,6.809
			c0.036,0.293,0.061,0.586,0.091,0.879C33.358,27.307,33.358,27.677,33.358,28.048z"/>
		<path class="st1" d="M21.394,18.911c3.845,0.004,7.199,2.516,8.268,6.191c0.19,0.653,0.292,1.324,0.324,1.999
			c0.071,1.506-0.236,2.937-0.922,4.283c-0.355,0.697-0.8,1.332-1.329,1.906c-0.243,0.264-0.612,0.328-0.913,0.171
			c-0.283-0.148-0.453-0.478-0.371-0.803c0.039-0.155,0.133-0.312,0.242-0.434c0.924-1.039,1.505-2.242,1.724-3.613
			c0.532-3.331-1.356-6.574-4.511-7.764c-4.114-1.552-8.674,1.016-9.458,5.347c-0.392,2.162,0.126,4.109,1.519,5.817
			c0.073,0.09,0.151,0.177,0.226,0.265c0.282,0.333,0.266,0.799-0.035,1.072c-0.314,0.286-0.769,0.26-1.077-0.071
			c-0.558-0.6-1.013-1.273-1.373-2.009c-2.482-5.066,0.53-11.135,6.065-12.202c0.532-0.102,1.078-0.134,1.618-0.198
			C21.39,18.884,21.392,18.898,21.394,18.911z"/>
	</g>
</g>
<g>
	<path class="st2" d="M252.987,40.724c0.073,0.839-0.555,1.561-1.396,1.605c-0.84,0.044-1.623,0.762-1.739,1.595
		c-0.115,0.833-0.889,1.397-1.718,1.253s-1.752,0.382-2.05,1.169c-0.299,0.787-1.177,1.164-1.954,0.839s-1.793-0.018-2.259,0.683
		s-1.407,0.873-2.091,0.383s-1.744-0.416-2.354,0.163c-0.61,0.58-1.566,0.539-2.124-0.091c-0.559-0.63-1.607-0.794-2.332-0.365
		c-0.724,0.429-1.647,0.177-2.051-0.562c-0.404-0.738-1.391-1.132-2.192-0.875c-0.801,0.258-1.644-0.194-1.874-1.004
		c-0.23-0.809-1.105-1.413-1.943-1.339c-0.838,0.072-1.56-0.556-1.604-1.397c-0.044-0.84-0.761-1.624-1.595-1.739
		c-0.833-0.116-1.397-0.889-1.254-1.718c0.145-0.829-0.381-1.752-1.168-2.05c-0.787-0.299-1.165-1.178-0.84-1.954
		c0.325-0.776,0.018-1.793-0.683-2.259s-0.874-1.408-0.384-2.091c0.491-0.685,0.416-1.744-0.163-2.354
		c-0.58-0.61-0.539-1.566,0.091-2.125c0.631-0.558,0.795-1.607,0.364-2.331c-0.429-0.725-0.175-1.647,0.563-2.052
		c0.738-0.404,1.133-1.391,0.874-2.191c-0.257-0.801,0.195-1.644,1.006-1.875c0.809-0.23,1.413-1.104,1.34-1.943
		c-0.073-0.837,0.555-1.56,1.396-1.603c0.841-0.044,1.623-0.761,1.739-1.595c0.116-0.834,0.889-1.397,1.718-1.253
		s1.752-0.382,2.05-1.169c0.299-0.787,1.177-1.164,1.953-0.84c0.776,0.325,1.793,0.019,2.26-0.683
		c0.466-0.701,1.407-0.874,2.092-0.383c0.684,0.49,1.743,0.417,2.354-0.163c0.61-0.58,1.566-0.539,2.124,0.091
		s1.607,0.794,2.331,0.365c0.725-0.429,1.647-0.177,2.052,0.562c0.404,0.738,1.391,1.132,2.191,0.874
		c0.802-0.257,1.645,0.195,1.874,1.005c0.23,0.81,1.105,1.413,1.943,1.34c0.839-0.073,1.56,0.555,1.604,1.396
		c0.045,0.841,0.761,1.624,1.596,1.74c0.834,0.115,1.396,0.889,1.253,1.717c-0.145,0.829,0.381,1.752,1.169,2.05
		c0.788,0.299,1.164,1.178,0.839,1.954c-0.326,0.777-0.018,1.793,0.683,2.259c0.7,0.466,0.873,1.408,0.383,2.091
		c-0.49,0.685-0.417,1.744,0.162,2.354c0.58,0.61,0.539,1.566-0.09,2.126c-0.63,0.557-0.794,1.607-0.365,2.33
		c0.429,0.724,0.177,1.647-0.562,2.051c-0.738,0.404-1.132,1.391-0.874,2.191c0.258,0.802-0.195,1.645-1.004,1.875
		C253.518,39.012,252.915,39.886,252.987,40.724z"/>
	<g>
		<path class="st1" d="M250.939,37.081c-0.324-0.225-0.622-0.535-0.982-0.644c-0.236-0.073-0.563,0.138-0.846,0.233
			c-0.195,0.065-0.383,0.149-0.575,0.224c-0.044-0.207-0.114-0.412-0.124-0.62c-0.019-0.442-0.006-0.885-0.006-1.391
			c0.317-0.023,0.61-0.044,0.938-0.068c0-2.141,0-4.284,0-6.537c-1.016,0.537-1.96,1.035-2.965,1.566
			c-0.011-0.213-0.049-0.353-0.02-0.478c0.175-0.776-0.27-1.089-0.901-1.359c-2.075-0.886-4.209-1.568-6.438-1.921
			c-2.034-0.322-4.066-0.184-6.032,0.386c-1.592,0.461-3.134,1.096-4.691,1.678c-0.471,0.177-1.005,0.368-0.62,1.245
			c-1.965-0.893-3.734-1.696-5.595-2.542c1.353-0.778,2.619-1.507,3.886-2.233c3.288-1.885,6.583-3.758,9.861-5.663
			c0.536-0.312,0.939-0.354,1.514-0.026c3.24,1.846,6.512,3.634,9.769,5.451c0.318,0.178,0.564,0.273,0.925,0.045
			c0.291-0.184,0.675-0.26,1.027-0.3c0.656-0.073,1.091,0.233,1.008,0.87c-0.133,1.029,0.469,1.376,1.23,1.674
			c0,0.201,0,0.404,0,0.605c-1.213,0.424-1.213,0.424-1.213,1.618c-0.001,1.792-0.004,3.584,0.002,5.375
			c0.001,0.206,0.051,0.411,0.078,0.605c0.371,0,0.662,0,0.924,0c0.039,0.063,0.058,0.079,0.058,0.096
			c0.011,0.704,0.02,1.408,0.029,2.112C251.101,37.081,251.02,37.081,250.939,37.081z M249.755,27.027
			c0.023-0.446-0.286-0.72-0.655-0.647c-0.271,0.054-0.622,0.398-0.68,0.668c-0.093,0.428,0.247,0.716,0.696,0.709
			C249.544,27.75,249.764,27.483,249.755,27.027z"/>
		<path class="st1" d="M228.543,33.646c0-1.55-0.009-2.959,0.014-4.368c0.003-0.153,0.158-0.371,0.3-0.444
			c4.248-2.16,8.636-2.895,13.239-1.234c0.983,0.354,1.946,0.761,2.907,1.169c0.148,0.062,0.335,0.264,0.337,0.403
			c0.025,1.445,0.015,2.891,0.015,4.472C239.731,31.191,234.161,31.167,228.543,33.646z"/>
	</g>
</g>
<g>
	<path class="st3" d="M141.692,40.724c0.073,0.839-0.555,1.561-1.396,1.605c-0.84,0.044-1.623,0.762-1.739,1.595
		c-0.115,0.833-0.889,1.397-1.718,1.253s-1.752,0.382-2.05,1.169c-0.299,0.787-1.177,1.164-1.954,0.839s-1.793-0.018-2.259,0.683
		s-1.407,0.873-2.091,0.383c-0.684-0.49-1.744-0.416-2.354,0.163c-0.61,0.58-1.566,0.539-2.124-0.091
		c-0.559-0.63-1.607-0.794-2.332-0.365c-0.724,0.429-1.647,0.177-2.051-0.562c-0.404-0.738-1.391-1.132-2.192-0.875
		c-0.801,0.258-1.644-0.194-1.874-1.004c-0.23-0.809-1.105-1.413-1.943-1.339c-0.838,0.072-1.56-0.556-1.604-1.397
		c-0.044-0.84-0.761-1.624-1.595-1.739c-0.833-0.116-1.397-0.889-1.254-1.718c0.145-0.829-0.381-1.752-1.168-2.05
		c-0.787-0.299-1.165-1.178-0.84-1.954c0.325-0.776,0.018-1.793-0.683-2.259s-0.874-1.408-0.384-2.091
		c0.491-0.685,0.416-1.744-0.163-2.354c-0.58-0.61-0.539-1.566,0.091-2.125c0.631-0.558,0.795-1.607,0.364-2.331
		c-0.429-0.725-0.175-1.647,0.563-2.052c0.738-0.404,1.133-1.391,0.874-2.191c-0.257-0.801,0.195-1.644,1.006-1.875
		c0.809-0.23,1.413-1.104,1.34-1.943c-0.073-0.837,0.555-1.56,1.396-1.603c0.841-0.044,1.623-0.761,1.739-1.595
		c0.116-0.834,0.889-1.397,1.718-1.253s1.752-0.382,2.05-1.169c0.299-0.787,1.177-1.164,1.953-0.84
		c0.776,0.325,1.793,0.019,2.26-0.683c0.466-0.701,1.407-0.874,2.092-0.383c0.684,0.49,1.743,0.417,2.354-0.163
		c0.61-0.58,1.566-0.539,2.124,0.091c0.558,0.63,1.607,0.794,2.331,0.365c0.725-0.429,1.647-0.177,2.052,0.562
		c0.404,0.738,1.391,1.132,2.191,0.874c0.802-0.257,1.645,0.195,1.874,1.005c0.23,0.81,1.105,1.413,1.943,1.34
		c0.839-0.073,1.56,0.555,1.604,1.396c0.045,0.841,0.761,1.624,1.596,1.74c0.834,0.115,1.397,0.889,1.253,1.717
		c-0.145,0.829,0.381,1.752,1.169,2.05c0.788,0.299,1.164,1.178,0.839,1.954c-0.326,0.777-0.018,1.793,0.683,2.259
		c0.7,0.466,0.873,1.408,0.383,2.091c-0.49,0.685-0.417,1.744,0.162,2.354c0.58,0.61,0.539,1.566-0.09,2.126
		c-0.63,0.557-0.794,1.607-0.365,2.33c0.429,0.724,0.177,1.647-0.562,2.051c-0.738,0.404-1.132,1.391-0.874,2.191
		c0.258,0.802-0.195,1.645-1.004,1.875C142.223,39.012,141.62,39.886,141.692,40.724z"/>
	<g id="gF07J2_1_">
		<g>
			<path class="st1" d="M139.326,23.864c-0.45-0.23-0.86-0.434-1.263-0.65c-0.075-0.04-0.13-0.125-0.184-0.196
				c-0.58-0.761-1.637-0.911-2.378-0.337c-0.721,0.559-0.865,1.618-0.316,2.336c0.576,0.755,1.615,0.895,2.374,0.301
				c0.16-0.125,0.276-0.144,0.42-0.01c0.008,0.007,0.017,0.012,0.026,0.017c0.718,0.489,0.749,0.577,0.491,1.392
				c-0.363,1.141-0.709,2.287-1.094,3.42c-0.326,0.959-0.953,1.673-1.92,2.026c-5.931,2.166-11.864,4.323-17.797,6.482
				c-0.963,0.35-1.752-0.003-2.114-0.967c-0.411-1.092-0.801-2.191-1.2-3.287c-0.883-2.423-1.773-4.843-2.638-7.272
				c-0.113-0.316-0.158-0.685-0.124-1.018c0.061-0.591,0.433-0.956,1-1.161c3.436-1.241,6.867-2.496,10.299-3.746
				c2.528-0.921,5.056-1.846,7.587-2.761c0.937-0.339,1.859-0.225,2.69,0.283c1.757,1.074,3.489,2.189,5.22,3.304
				C139.057,22.442,139.33,23.081,139.326,23.864z M118.87,27.018c0.718,1.996,1.401,3.895,2.092,5.817
				c0.538-0.194,1.041-0.376,1.554-0.561c-0.256-0.717-0.498-1.396-0.735-2.062c0.236-0.175,0.409-0.165,0.616,0.021
				c0.503,0.452,1.029,0.877,1.554,1.304c0.077,0.062,0.208,0.134,0.284,0.109c0.539-0.176,1.07-0.376,1.658-0.586
				c-0.884-0.656-1.72-1.275-2.558-1.897c0.091-0.137,0.176-0.254,0.248-0.376c0.399-0.67,0.34-1.332-0.067-1.97
				c-0.382-0.598-0.977-0.814-1.627-0.664C120.888,26.387,119.91,26.715,118.87,27.018z M130.843,29.282
				c1.148-0.412,2.271-0.815,3.42-1.228c-0.155-0.431-0.303-0.839-0.457-1.266c-0.634,0.225-1.238,0.439-1.862,0.66
				c-0.131-0.367-0.254-0.711-0.384-1.074c0.578-0.213,1.139-0.418,1.718-0.631c-0.16-0.438-0.305-0.836-0.452-1.241
				c-0.592,0.211-1.148,0.409-1.721,0.613c-0.11-0.312-0.21-0.597-0.317-0.897c0.635-0.231,1.234-0.45,1.852-0.675
				c-0.155-0.431-0.296-0.822-0.449-1.246c-1.153,0.415-2.282,0.821-3.419,1.23C129.467,25.462,130.149,27.356,130.843,29.282z
				 M127.767,23.886c-1.16,0.417-2.282,0.821-3.421,1.231c0.696,1.933,1.38,3.834,2.072,5.758c1.155-0.416,2.277-0.819,3.419-1.231
				c-0.158-0.437-0.306-0.845-0.459-1.266c-0.637,0.226-1.239,0.44-1.858,0.661c-0.135-0.374-0.257-0.715-0.387-1.076
				c0.584-0.213,1.139-0.414,1.719-0.626c-0.156-0.429-0.303-0.833-0.452-1.243c-0.594,0.21-1.149,0.406-1.723,0.609
				c-0.113-0.317-0.213-0.599-0.317-0.895c0.639-0.233,1.232-0.449,1.852-0.675C128.061,24.714,127.922,24.322,127.767,23.886z
				 M114.545,28.642c0.693,1.927,1.377,3.828,2.07,5.757c0.523-0.189,1.019-0.368,1.531-0.552c-0.259-0.729-0.51-1.436-0.767-2.158
				c0.592-0.215,1.145-0.417,1.717-0.625c-0.156-0.428-0.302-0.825-0.454-1.241c-0.591,0.209-1.145,0.405-1.719,0.608
				c-0.135-0.376-0.259-0.72-0.39-1.085c0.631-0.23,1.24-0.454,1.864-0.682c-0.155-0.425-0.3-0.825-0.452-1.245
				C116.795,27.832,115.683,28.232,114.545,28.642z"/>
			<path class="st1" d="M134.124,33.214c0.331-0.122,0.596-0.23,0.869-0.313c0.088-0.027,0.208-0.015,0.293,0.024
				c1.475,0.671,2.913,0.088,3.795-0.989c1.545-1.887,1.383-5.057-0.36-6.686c-0.866-0.808-1.873-1.095-3.031-0.762
				c-0.05,0.015-0.1,0.024-0.15,0.034c-0.009,0.002-0.019-0.006-0.101-0.038c-0.015-0.202-0.059-0.44-0.038-0.673
				c0.008-0.083,0.164-0.194,0.269-0.219c1.453-0.342,2.706,0.073,3.732,1.11c1.294,1.305,1.747,2.922,1.572,4.728
				c-0.136,1.408-0.685,2.626-1.737,3.59c-1.373,1.261-3.248,1.415-4.815,0.409C134.339,33.375,134.26,33.313,134.124,33.214z"/>
			<path class="st1" d="M121.344,29.005c-0.16-0.446-0.306-0.858-0.464-1.299c0.365-0.141,0.703-0.331,1.068-0.119
				c0.264,0.154,0.347,0.443,0.293,0.726C122.153,28.771,121.749,28.866,121.344,29.005z"/>
		</g>
	</g>
</g>
<g>
	<path class="st0" d="M49.865,32.541h6.838v0.989h-8.018V19.683h1.18C49.865,19.683,49.865,32.541,49.865,32.541z"/>
	<path class="st0" d="M58.129,20.268c0-0.214,0.07-0.396,0.209-0.544c0.139-0.149,0.329-0.223,0.571-0.223s0.433,0.074,0.575,0.223
		c0.143,0.148,0.213,0.329,0.213,0.544c0,0.213-0.072,0.394-0.213,0.538c-0.143,0.146-0.335,0.218-0.575,0.218
		c-0.241,0-0.431-0.072-0.571-0.218C58.199,20.662,58.129,20.482,58.129,20.268z M59.47,33.531h-1.141V23.24h1.141V33.531z"/>
	<path class="st0" d="M65.279,31.962l3.129-8.722h1.169l-3.842,10.29h-0.923L60.95,23.24h1.169L65.279,31.962z"/>
	<path class="st0" d="M74.816,33.721c-0.875,0-1.666-0.216-2.373-0.647c-0.708-0.431-1.257-1.032-1.65-1.803
		c-0.394-0.77-0.59-1.634-0.59-2.592V28.27c0-0.989,0.191-1.881,0.575-2.673s0.918-1.416,1.603-1.869
		c0.685-0.454,1.426-0.68,2.225-0.68c1.249,0,2.24,0.427,2.972,1.279c0.732,0.854,1.099,2.018,1.099,3.496v0.638h-7.342v0.219
		c0,1.167,0.335,2.138,1.003,2.915c0.669,0.777,1.511,1.166,2.525,1.166c0.609,0,1.146-0.112,1.612-0.333
		c0.465-0.222,0.889-0.577,1.269-1.065l0.714,0.542C77.622,33.116,76.408,33.721,74.816,33.721z M74.607,24.019
		c-0.856,0-1.577,0.313-2.163,0.942c-0.587,0.627-0.943,1.471-1.07,2.529h6.173v-0.123c-0.032-0.989-0.314-1.794-0.847-2.416
		C76.166,24.33,75.469,24.019,74.607,24.019z"/>
</g>
<g>
	<path class="st3" d="M160.55,27.054h-6.458v6.476h-1.169V19.683h8.579v0.989h-7.409v5.393h6.458L160.55,27.054L160.55,27.054z"/>
	<path class="st3" d="M167.634,24.21c-0.241-0.044-0.498-0.067-0.77-0.067c-0.71,0-1.311,0.198-1.802,0.595
		c-0.492,0.396-0.842,0.972-1.051,1.725v7.067h-1.132V23.24h1.113l0.019,1.636c0.603-1.217,1.569-1.826,2.901-1.826
		c0.317,0,0.568,0.042,0.751,0.124L167.634,24.21z"/>
	<path class="st3" d="M172.749,33.721c-0.875,0-1.665-0.216-2.372-0.647c-0.708-0.431-1.257-1.032-1.65-1.803
		c-0.394-0.77-0.59-1.634-0.59-2.592V28.27c0-0.989,0.191-1.881,0.575-2.673s0.918-1.416,1.603-1.869
		c0.685-0.454,1.427-0.68,2.226-0.68c1.248,0,2.239,0.427,2.972,1.279c0.732,0.854,1.099,2.018,1.099,3.496v0.638h-7.343v0.219
		c0,1.167,0.335,2.138,1.003,2.915c0.669,0.777,1.511,1.166,2.525,1.166c0.609,0,1.146-0.112,1.613-0.333
		c0.465-0.222,0.889-0.577,1.269-1.065l0.714,0.542C175.555,33.116,174.341,33.721,172.749,33.721z M172.54,24.019
		c-0.857,0-1.577,0.313-2.164,0.942c-0.587,0.627-0.943,1.471-1.07,2.529h6.173v-0.123c-0.032-0.989-0.313-1.794-0.846-2.416
		C174.101,24.33,173.403,24.019,172.54,24.019z"/>
	<path class="st3" d="M182.325,33.721c-0.875,0-1.666-0.216-2.373-0.647c-0.708-0.431-1.257-1.032-1.65-1.803
		c-0.394-0.77-0.59-1.634-0.59-2.592V28.27c0-0.989,0.191-1.881,0.575-2.673s0.919-1.416,1.603-1.869
		c0.685-0.454,1.426-0.68,2.225-0.68c1.25,0,2.24,0.427,2.973,1.279c0.732,0.854,1.098,2.018,1.098,3.496v0.638h-7.342v0.219
		c0,1.167,0.335,2.138,1.004,2.915c0.668,0.777,1.511,1.166,2.525,1.166c0.609,0,1.146-0.112,1.613-0.333
		c0.465-0.222,0.889-0.577,1.27-1.065l0.713,0.542C185.13,33.116,183.916,33.721,182.325,33.721z M182.114,24.019
		c-0.855,0-1.577,0.313-2.163,0.942c-0.587,0.627-0.944,1.471-1.07,2.529h6.173v-0.123c-0.032-0.989-0.314-1.794-0.847-2.416
		C183.675,24.33,182.977,24.019,182.114,24.019z"/>
</g>
<g>
	<path class="st2" d="M272.233,29.213c-0.159,1.458-0.68,2.575-1.566,3.348c-0.884,0.773-2.061,1.16-3.532,1.16
		c-1.027,0-1.936-0.257-2.726-0.77c-0.789-0.515-1.399-1.242-1.831-2.183c-0.431-0.942-0.65-2.018-0.656-3.229v-1.798
		c0-1.229,0.216-2.321,0.647-3.272s1.051-1.685,1.858-2.201c0.809-0.517,1.739-0.775,2.791-0.775c1.484,0,2.655,0.399,3.514,1.198
		s1.359,1.906,1.498,3.32h-1.18c-0.292-2.353-1.57-3.529-3.834-3.529c-1.256,0-2.255,0.469-3,1.408
		c-0.744,0.939-1.117,2.237-1.117,3.893v1.694c0,1.599,0.362,2.874,1.088,3.826c0.726,0.952,1.707,1.427,2.944,1.427
		c1.224,0,2.146-0.294,2.767-0.879c0.621-0.587,1.006-1.467,1.152-2.639C271.053,29.213,272.233,29.213,272.233,29.213z"/>
	<path class="st2" d="M278.308,33.721c-0.875,0-1.665-0.216-2.372-0.647c-0.708-0.431-1.257-1.032-1.65-1.803
		c-0.393-0.77-0.59-1.634-0.59-2.592V28.27c0-0.989,0.191-1.881,0.575-2.673c0.383-0.792,0.918-1.416,1.602-1.869
		c0.685-0.454,1.426-0.68,2.225-0.68c1.249,0,2.24,0.427,2.973,1.279c0.732,0.854,1.098,2.018,1.098,3.496v0.638h-7.342v0.219
		c0,1.167,0.335,2.138,1.004,2.915c0.668,0.777,1.511,1.166,2.525,1.166c0.609,0,1.146-0.112,1.612-0.333
		c0.465-0.222,0.889-0.577,1.269-1.065l0.714,0.542C281.114,33.116,279.899,33.721,278.308,33.721z M278.099,24.019
		c-0.856,0-1.577,0.313-2.163,0.942c-0.587,0.627-0.944,1.471-1.07,2.529h6.173v-0.123c-0.032-0.989-0.314-1.794-0.847-2.416
		S278.961,24.019,278.099,24.019z"/>
	<path class="st2" d="M288.654,24.21c-0.241-0.044-0.498-0.067-0.77-0.067c-0.71,0-1.311,0.198-1.803,0.595
		c-0.492,0.396-0.842,0.972-1.051,1.725v7.067h-1.132V23.24h1.113l0.019,1.636c0.603-1.217,1.569-1.826,2.901-1.826
		c0.317,0,0.568,0.042,0.752,0.124L288.654,24.21z"/>
	<path class="st2" d="M292.209,20.605v2.635h2.131v0.932h-2.131v6.865c0,0.572,0.102,0.996,0.309,1.276
		c0.206,0.279,0.55,0.418,1.032,0.418c0.19,0,0.499-0.032,0.923-0.095l0.047,0.924c-0.298,0.107-0.703,0.16-1.217,0.16
		c-0.78,0-1.347-0.226-1.702-0.68c-0.355-0.453-0.533-1.121-0.533-2.002v-6.867h-1.893V23.24h1.893v-2.635
		C291.068,20.605,292.209,20.605,292.209,20.605z"/>
	<path class="st2" d="M296.145,20.268c0-0.214,0.07-0.396,0.209-0.544c0.139-0.149,0.329-0.223,0.571-0.223s0.432,0.074,0.575,0.223
		c0.143,0.148,0.213,0.329,0.213,0.544c0,0.213-0.072,0.394-0.213,0.538c-0.143,0.146-0.335,0.218-0.575,0.218
		c-0.241,0-0.431-0.072-0.571-0.218C296.215,20.662,296.145,20.482,296.145,20.268z M297.486,33.531h-1.141V23.24h1.141V33.531z"/>
	<path class="st2" d="M300.908,33.531v-9.358h-1.702V23.24h1.702v-1.245c0-1.053,0.268-1.862,0.803-2.426
		c0.536-0.564,1.283-0.846,2.24-0.846c0.431,0,0.834,0.054,1.209,0.16l-0.086,0.944c-0.317-0.076-0.662-0.114-1.036-0.114
		c-0.627,0-1.116,0.195-1.465,0.586c-0.349,0.392-0.523,0.946-0.523,1.664v1.278h2.454v0.932h-2.454v9.358H300.908z"/>
	<path class="st2" d="M305.984,20.268c0-0.214,0.07-0.396,0.209-0.544c0.139-0.149,0.329-0.223,0.571-0.223s0.433,0.074,0.576,0.223
		c0.143,0.148,0.213,0.329,0.213,0.544c0,0.213-0.072,0.394-0.213,0.538c-0.143,0.146-0.335,0.218-0.576,0.218
		s-0.431-0.072-0.571-0.218C306.054,20.662,305.984,20.482,305.984,20.268z M307.326,33.531h-1.141V23.24h1.141V33.531z"/>
	<path class="st2" d="M313.734,32.761c0.792,0,1.456-0.224,1.992-0.671c0.535-0.446,0.825-1.025,0.87-1.735h1.094
		c-0.032,0.627-0.228,1.2-0.59,1.717c-0.361,0.517-0.842,0.921-1.441,1.213c-0.598,0.292-1.241,0.438-1.926,0.438
		c-1.35,0-2.42-0.469-3.21-1.408c-0.789-0.938-1.184-2.2-1.184-3.785v-0.342c0-1.014,0.178-1.912,0.533-2.691
		c0.355-0.781,0.863-1.382,1.526-1.808c0.662-0.424,1.438-0.637,2.325-0.637c1.128,0,2.06,0.336,2.791,1.008
		c0.732,0.672,1.124,1.557,1.175,2.654h-1.094c-0.05-0.805-0.341-1.455-0.87-1.951c-0.53-0.494-1.198-0.742-2.003-0.742
		c-1.027,0-1.824,0.371-2.391,1.112c-0.568,0.743-0.851,1.782-0.851,3.119v0.333c0,1.313,0.283,2.337,0.851,3.072
		C311.901,32.393,312.701,32.761,313.734,32.761z"/>
	<path class="st2" d="M325.973,33.531c-0.114-0.324-0.188-0.802-0.219-1.437c-0.4,0.521-0.908,0.921-1.526,1.204
		c-0.619,0.282-1.273,0.423-1.964,0.423c-0.989,0-1.79-0.276-2.402-0.828c-0.611-0.551-0.918-1.248-0.918-2.092
		c0-1.001,0.417-1.793,1.251-2.376c0.833-0.583,1.996-0.875,3.485-0.875h2.064v-1.17c0-0.736-0.227-1.315-0.68-1.735
		c-0.454-0.422-1.114-0.633-1.983-0.633c-0.792,0-1.449,0.203-1.969,0.609c-0.52,0.405-0.78,0.893-0.78,1.464l-1.141-0.009
		c0-0.818,0.381-1.526,1.141-2.126c0.761-0.598,1.696-0.899,2.806-0.899c1.147,0,2.053,0.287,2.715,0.86
		c0.663,0.574,1.004,1.374,1.023,2.401v4.87c0,0.996,0.105,1.741,0.314,2.236v0.114L325.973,33.531L325.973,33.531z M322.397,32.713
		c0.761,0,1.44-0.184,2.04-0.551c0.598-0.368,1.035-0.859,1.308-1.475v-2.263h-2.035c-1.135,0.013-2.022,0.22-2.663,0.622
		c-0.64,0.403-0.961,0.955-0.961,1.66c0,0.577,0.213,1.055,0.642,1.436C321.155,32.522,321.712,32.713,322.397,32.713z"/>
	<path class="st2" d="M331.192,20.605v2.635h2.131v0.932h-2.131v6.865c0,0.572,0.103,0.996,0.309,1.276
		c0.207,0.279,0.551,0.418,1.033,0.418c0.19,0,0.498-0.032,0.922-0.095l0.048,0.924c-0.298,0.107-0.703,0.16-1.217,0.16
		c-0.78,0-1.348-0.226-1.703-0.68c-0.355-0.453-0.533-1.121-0.533-2.002v-6.867h-1.892V23.24h1.892v-2.635
		C330.05,20.605,331.192,20.605,331.192,20.605z"/>
	<path class="st2" d="M335.128,20.268c0-0.214,0.07-0.396,0.209-0.544c0.139-0.149,0.329-0.223,0.571-0.223s0.433,0.074,0.576,0.223
		c0.143,0.148,0.213,0.329,0.213,0.544c0,0.213-0.072,0.394-0.213,0.538c-0.143,0.146-0.335,0.218-0.576,0.218
		s-0.431-0.072-0.571-0.218C335.198,20.662,335.128,20.482,335.128,20.268z M336.469,33.531h-1.141V23.24h1.141V33.531z"/>
	<path class="st2" d="M338.446,28.234c0-0.989,0.191-1.881,0.575-2.673c0.383-0.792,0.925-1.409,1.627-1.85
		c0.7-0.441,1.495-0.662,2.382-0.662c1.369,0,2.479,0.48,3.329,1.441c0.849,0.96,1.274,2.234,1.274,3.819v0.237
		c0,0.995-0.192,1.892-0.575,2.686c-0.384,0.796-0.924,1.409-1.622,1.84c-0.697,0.431-1.493,0.647-2.387,0.647
		c-1.363,0-2.472-0.48-3.324-1.441c-0.854-0.96-1.279-2.233-1.279-3.818v-0.228l0,0V28.234z M339.587,28.547
		c0,1.23,0.319,2.24,0.955,3.029c0.638,0.79,1.473,1.185,2.506,1.185c1.027,0,1.859-0.395,2.496-1.185
		c0.638-0.789,0.955-1.831,0.955-3.124v-0.219c0-0.786-0.146-1.507-0.438-2.16s-0.7-1.158-1.227-1.517
		c-0.527-0.358-1.128-0.537-1.807-0.537c-1.014,0-1.842,0.398-2.483,1.194c-0.64,0.796-0.96,1.837-0.96,3.124v0.209L339.587,28.547
		L339.587,28.547z"/>
	<path class="st2" d="M350.58,23.24l0.038,1.76c0.387-0.634,0.869-1.117,1.446-1.451c0.577-0.332,1.214-0.499,1.911-0.499
		c1.103,0,1.925,0.311,2.464,0.932s0.812,1.554,0.818,2.796v6.753h-1.132v-6.762c-0.006-0.918-0.201-1.603-0.584-2.055
		c-0.384-0.449-0.997-0.675-1.84-0.675c-0.703,0-1.327,0.22-1.869,0.662c-0.543,0.44-0.944,1.035-1.204,1.783v7.047h-1.131V23.24
		H350.58z"/>
</g>
</svg>
