<?xml version="1.0" encoding="utf-8"?>
<!-- Generator: Adobe Illustrator 21.1.0, SVG Export Plug-In . SVG Version: 6.00 Build 0)  -->
<svg version="1.1" id="Layer_1" xmlns="http://www.w3.org/2000/svg" xmlns:xlink="http://www.w3.org/1999/xlink" x="0px" y="0px"
	 viewBox="0 0 50 50" style="enable-background:new 0 0 50 50;" xml:space="preserve">
<style type="text/css">
	.st0{fill:#3C4852;}
</style>
<g id="_x31_63MYo_1_">
	<g>
		<path class="st0" d="M22.505,11.517c0.299-1.925,1.044-2.732,2.446-2.708c1.33,0.023,2.085,0.884,2.303,2.66
			c4.16,0,8.324,0,12.541,0c0.009-0.871,0.2-1.716,0.983-2.202c0.42-0.26,0.968-0.43,1.46-0.435
			c1.313-0.013,1.999,0.827,2.284,2.674c0.421,0,0.852-0.009,1.282,0.002c1.421,0.037,2.349,0.991,2.349,2.416
			c0.001,6.543,0.001,13.086,0,19.629c0,1.463-0.922,2.426-2.383,2.427c-8.188,0.008-16.376,0.008-24.563-0.002
			c-1.399-0.002-2.329-0.974-2.329-2.369c-0.002-6.579-0.002-13.158,0-19.737c0-1.319,0.873-2.264,2.184-2.349
			C21.545,11.491,22.031,11.517,22.505,11.517z M20.713,17.653c0,0.238,0,0.45,0,0.662c0,4.966,0,9.932,0,14.898
			c0,0.916,0.029,0.947,0.934,0.947c7.93,0,15.86,0,23.789,0c0.831,0,0.879-0.049,0.88-0.893c0.004-4.153,0.007-8.307,0.01-12.46
			c0.001-1.042,0-2.085,0-3.155C37.763,17.653,29.266,17.653,20.713,17.653z M26.256,12.136c0.001,0,0.001,0,0.002,0
			c0-0.342,0.005-0.685-0.001-1.027c-0.013-0.786-0.586-1.382-1.339-1.4c-0.768-0.018-1.372,0.539-1.397,1.332
			c-0.023,0.738-0.02,1.478,0.002,2.215c0.022,0.753,0.623,1.322,1.355,1.325c0.757,0.003,1.357-0.587,1.377-1.364
			C26.264,12.857,26.256,12.496,26.256,12.136z M40.771,12.074c0.001,0,0.002,0,0.003,0c0,0.396-0.012,0.793,0.003,1.189
			c0.028,0.739,0.64,1.323,1.366,1.32c0.733-0.002,1.339-0.572,1.361-1.32c0.022-0.738,0.022-1.477,0.003-2.215
			c-0.02-0.783-0.628-1.352-1.392-1.34c-0.749,0.012-1.328,0.61-1.343,1.393C40.766,11.426,40.771,11.75,40.771,12.074z"/>
		<path class="st0" d="M43.464,19.571c0,0.944,0,1.854,0,2.797c-0.947,0-1.856,0-2.82,0c0-0.947,0-1.855,0-2.797
			C41.608,19.571,42.518,19.571,43.464,19.571z"/>
		<path class="st0" d="M29.261,22.353c0-0.941,0-1.834,0-2.771c0.945,0,1.853,0,2.808,0c0,0.901,0,1.81,0,2.771
			C31.169,22.353,30.25,22.353,29.261,22.353z"/>
		<path class="st0" d="M37.763,19.583c0,0.86,0.012,1.685-0.015,2.509c-0.004,0.108-0.207,0.295-0.322,0.299
			c-0.806,0.026-1.614,0.014-2.466,0.014c0-0.963,0-1.87,0-2.822C35.871,19.583,36.778,19.583,37.763,19.583z"/>
		<path class="st0" d="M23.571,19.574c0.944,0,1.85,0,2.789,0c0,0.943,0,1.851,0,2.794c-0.936,0-1.842,0-2.789,0
			C23.571,21.421,23.571,20.514,23.571,19.574z"/>
		<path class="st0" d="M23.567,27.227c0-0.923,0-1.819,0-2.765c0.919,0,1.828,0,2.781,0c0,0.899,0,1.81,0,2.765
			C25.448,27.227,24.539,27.227,23.567,27.227z"/>
		<path class="st0" d="M29.284,27.236c0-0.951,0-1.848,0-2.784c0.935,0,1.845,0,2.787,0c0,0.926,0,1.838,0,2.784
			C31.148,27.236,30.238,27.236,29.284,27.236z"/>
		<path class="st0" d="M37.729,27.248c-0.931,0-1.826,0-2.761,0c0-0.926,0-1.835,0-2.789c0.904,0,1.811,0,2.761,0
			C37.729,25.368,37.729,26.278,37.729,27.248z"/>
		<path class="st0" d="M43.46,24.448c0,0.97,0,1.866,0,2.792c-0.938,0-1.849,0-2.795,0c0-0.936,0-1.846,0-2.792
			C41.604,24.448,42.514,24.448,43.46,24.448z"/>
		<path class="st0" d="M26.36,32.122c-0.928,0-1.824,0-2.769,0c0-0.916,0-1.839,0-2.793c0.921,0,1.83,0,2.769,0
			C26.36,30.274,26.36,31.183,26.36,32.122z"/>
		<path class="st0" d="M29.305,29.328c0.913,0,1.809,0,2.751,0c0,0.911,0,1.821,0,2.777c-0.883,0-1.792,0-2.751,0
			C29.305,31.202,29.305,30.28,29.305,29.328z"/>
		<path class="st0" d="M34.952,32.116c0-0.948,0-1.844,0-2.78c0.93,0,1.837,0,2.781,0c0,0.924,0,1.834,0,2.78
			C36.814,32.116,35.906,32.116,34.952,32.116z"/>
		<path class="st0" d="M40.664,29.328c0.944,0,1.853,0,2.793,0c0,0.931,0,1.828,0,2.774c-0.916,0-1.839,0-2.793,0
			C40.664,31.179,40.664,30.27,40.664,29.328z"/>
	</g>
</g>
</svg>
