<?xml version="1.0" encoding="utf-8"?>
<!-- Generator: Adobe Illustrator 21.1.0, SVG Export Plug-In . SVG Version: 6.00 Build 0)  -->
<svg version="1.1" id="Capa_1" xmlns="http://www.w3.org/2000/svg" xmlns:xlink="http://www.w3.org/1999/xlink" x="0px" y="0px"
	 viewBox="0 0 120 20" style="enable-background:new 0 0 120 20;" xml:space="preserve">
<style type="text/css">
	.st0{fill:#6D8CBC;}
</style>
<g>
	<path class="st0" d="M26.827,13.84h-4.508l-1.023,2.789h-0.88l3.758-9.93h0.798l3.758,9.93h-0.872L26.827,13.84z M22.578,13.131
		h3.983l-1.992-5.409L22.578,13.131z"/>
	<path class="st0" d="M33.929,14.753c0-0.404-0.162-0.73-0.488-0.976c-0.324-0.246-0.814-0.437-1.47-0.576
		c-0.654-0.139-1.164-0.298-1.524-0.477c-0.362-0.179-0.63-0.4-0.805-0.659c-0.175-0.259-0.263-0.573-0.263-0.941
		c0-0.582,0.244-1.063,0.73-1.442c0.487-0.38,1.11-0.569,1.869-0.569c0.823,0,1.484,0.203,1.981,0.61
		c0.499,0.406,0.747,0.938,0.747,1.592h-0.819c0-0.432-0.181-0.791-0.543-1.078c-0.361-0.287-0.817-0.43-1.367-0.43
		c-0.537,0-0.967,0.119-1.293,0.358c-0.324,0.24-0.488,0.549-0.488,0.932c0,0.369,0.135,0.653,0.405,0.855
		c0.271,0.202,0.764,0.388,1.481,0.557c0.716,0.169,1.253,0.348,1.61,0.538c0.357,0.191,0.622,0.421,0.794,0.689
		c0.172,0.268,0.259,0.593,0.259,0.976c0,0.623-0.251,1.121-0.753,1.494c-0.503,0.373-1.158,0.56-1.968,0.56
		c-0.86,0-1.556-0.207-2.091-0.624c-0.534-0.416-0.802-0.942-0.802-1.578h0.819c0.032,0.477,0.233,0.85,0.604,1.115
		c0.371,0.266,0.861,0.4,1.47,0.4c0.568,0,1.028-0.125,1.377-0.375C33.75,15.454,33.929,15.136,33.929,14.753z"/>
	<path class="st0" d="M40.512,14.753c0-0.404-0.162-0.73-0.488-0.976c-0.324-0.246-0.814-0.437-1.47-0.576
		c-0.654-0.139-1.164-0.298-1.524-0.477c-0.362-0.179-0.63-0.4-0.805-0.659c-0.175-0.259-0.263-0.573-0.263-0.941
		c0-0.582,0.244-1.063,0.73-1.442c0.487-0.38,1.11-0.569,1.868-0.569c0.823,0,1.484,0.203,1.981,0.61
		c0.499,0.406,0.747,0.938,0.747,1.592h-0.819c0-0.432-0.181-0.791-0.543-1.078c-0.361-0.287-0.817-0.43-1.367-0.43
		c-0.537,0-0.967,0.119-1.293,0.358c-0.324,0.24-0.488,0.549-0.488,0.932c0,0.369,0.135,0.653,0.405,0.855
		c0.271,0.202,0.764,0.388,1.481,0.557c0.716,0.169,1.253,0.348,1.61,0.538c0.357,0.191,0.622,0.421,0.794,0.689
		c0.172,0.268,0.259,0.593,0.259,0.976c0,0.623-0.251,1.121-0.753,1.494c-0.503,0.373-1.158,0.56-1.968,0.56
		c-0.86,0-1.556-0.207-2.091-0.624c-0.534-0.416-0.802-0.942-0.802-1.578h0.819c0.032,0.477,0.233,0.85,0.604,1.115
		c0.371,0.266,0.861,0.4,1.47,0.4c0.568,0,1.028-0.125,1.377-0.375C40.334,15.453,40.512,15.136,40.512,14.753z"/>
	<path class="st0" d="M42.629,7.118c0-0.154,0.049-0.284,0.15-0.39c0.1-0.106,0.236-0.159,0.409-0.159s0.311,0.053,0.413,0.159
		c0.102,0.106,0.154,0.236,0.154,0.39s-0.052,0.283-0.154,0.386C43.498,7.608,43.36,7.66,43.188,7.66
		c-0.172,0-0.309-0.052-0.409-0.155S42.629,7.272,42.629,7.118z M43.591,16.63h-0.819V9.25h0.819V16.63z"/>
	<path class="st0" d="M44.992,12.871c0-1.155,0.256-2.069,0.767-2.745c0.513-0.675,1.207-1.012,2.083-1.012
		c1.005,0,1.769,0.401,2.292,1.2l0.041-1.064h0.764v7.23c0,0.95-0.266,1.703-0.798,2.257s-1.253,0.832-2.162,0.832
		c-0.514,0-1.004-0.115-1.47-0.345c-0.466-0.229-0.833-0.535-1.101-0.918l0.457-0.491c0.578,0.709,1.264,1.064,2.06,1.064
		c0.682,0,1.214-0.202,1.596-0.604c0.381-0.403,0.58-0.961,0.593-1.675v-0.927c-0.523,0.727-1.284,1.092-2.284,1.092
		c-0.854,0-1.542-0.341-2.06-1.023s-0.778-1.603-0.778-2.762L44.992,12.871C44.992,12.871,44.992,12.871,44.992,12.871z
		 M45.817,13.015c0,0.941,0.189,1.684,0.566,2.226c0.377,0.544,0.909,0.816,1.596,0.816c1.005,0,1.717-0.45,2.135-1.351v-3.431
		c-0.191-0.473-0.466-0.833-0.825-1.081c-0.359-0.247-0.791-0.372-1.296-0.372c-0.687,0-1.221,0.27-1.603,0.808
		C46.008,11.17,45.817,11.964,45.817,13.015z"/>
	<path class="st0" d="M53.355,9.25l0.027,1.261c0.277-0.455,0.623-0.802,1.037-1.04c0.414-0.239,0.871-0.358,1.371-0.358
		c0.791,0,1.38,0.223,1.768,0.668c0.386,0.446,0.581,1.114,0.586,2.005v4.843h-0.811V11.78c-0.005-0.66-0.144-1.151-0.419-1.473
		c-0.275-0.322-0.716-0.485-1.321-0.485c-0.505,0-0.952,0.158-1.34,0.474c-0.389,0.316-0.677,0.741-0.863,1.279v5.054h-0.811V9.25
		H53.355z"/>
	<path class="st0" d="M60.505,9.25l0.027,1.2c0.273-0.446,0.615-0.78,1.024-1.002s0.864-0.334,1.365-0.334
		c1.164,0,1.903,0.477,2.216,1.432c0.263-0.459,0.616-0.812,1.057-1.061c0.441-0.247,0.927-0.372,1.458-0.372
		c1.583,0,2.391,0.864,2.422,2.592v4.924h-0.82v-4.863c-0.004-0.66-0.147-1.148-0.425-1.467c-0.28-0.318-0.736-0.477-1.368-0.477
		c-0.586,0.009-1.082,0.199-1.486,0.569c-0.405,0.371-0.631,0.822-0.676,1.354v4.883H64.48v-4.924
		c-0.004-0.632-0.154-1.103-0.447-1.415c-0.292-0.312-0.744-0.467-1.354-0.467c-0.515,0-0.955,0.147-1.323,0.439
		c-0.369,0.293-0.641,0.728-0.819,1.307v5.061h-0.819V9.25H60.505z"/>
	<path class="st0" d="M74.511,16.766c-0.627,0-1.195-0.155-1.702-0.464s-0.901-0.739-1.184-1.293
		c-0.283-0.552-0.423-1.171-0.423-1.858v-0.293c0-0.709,0.138-1.348,0.413-1.917s0.659-1.015,1.15-1.34
		c0.491-0.326,1.022-0.488,1.595-0.488c0.896,0,1.606,0.306,2.132,0.918c0.524,0.611,0.787,1.447,0.787,2.507v0.457h-5.265v0.157
		c0,0.837,0.241,1.533,0.72,2.09c0.479,0.558,1.084,0.836,1.812,0.836c0.436,0,0.822-0.08,1.156-0.239s0.638-0.414,0.911-0.764
		l0.511,0.389C76.522,16.332,75.652,16.766,74.511,16.766z M74.359,9.809c-0.612,0-1.13,0.225-1.55,0.675
		c-0.42,0.45-0.677,1.055-0.768,1.814h4.427v-0.089c-0.023-0.709-0.226-1.287-0.607-1.732C75.479,10.031,74.979,9.809,74.359,9.809z
		"/>
	<path class="st0" d="M79.157,9.25l0.027,1.261c0.277-0.455,0.623-0.802,1.037-1.04c0.414-0.239,0.871-0.358,1.371-0.358
		c0.791,0,1.38,0.223,1.766,0.668c0.387,0.445,0.582,1.114,0.587,2.005v4.843h-0.812V11.78c-0.004-0.66-0.144-1.151-0.419-1.473
		c-0.275-0.322-0.716-0.485-1.321-0.485c-0.505,0-0.952,0.158-1.34,0.474c-0.389,0.316-0.677,0.741-0.863,1.279v5.054h-0.812V9.25
		H79.157z"/>
	<path class="st0" d="M86.831,7.361V9.25h1.528v0.668h-1.528v4.923c0,0.409,0.073,0.716,0.221,0.915
		c0.148,0.201,0.394,0.301,0.74,0.301c0.136,0,0.357-0.023,0.661-0.068l0.033,0.663c-0.213,0.076-0.504,0.115-0.872,0.115
		c-0.559,0-0.965-0.162-1.221-0.488c-0.255-0.324-0.381-0.804-0.381-1.435V9.921h-1.357V9.25h1.357V7.361H86.831z"/>
	<path class="st0" d="M93.981,14.753c0-0.404-0.162-0.73-0.488-0.976s-0.816-0.437-1.47-0.576s-1.163-0.298-1.524-0.477
		c-0.362-0.179-0.63-0.4-0.805-0.659c-0.175-0.259-0.263-0.573-0.263-0.941c0-0.582,0.244-1.063,0.731-1.442
		c0.487-0.38,1.109-0.569,1.868-0.569c0.823,0,1.484,0.203,1.981,0.61c0.499,0.406,0.747,0.938,0.747,1.592h-0.819
		c0-0.432-0.181-0.791-0.543-1.078c-0.361-0.287-0.818-0.43-1.367-0.43c-0.536,0-0.967,0.119-1.293,0.358
		c-0.326,0.24-0.488,0.549-0.488,0.932c0,0.369,0.135,0.653,0.406,0.855c0.271,0.202,0.764,0.388,1.481,0.557
		c0.716,0.169,1.253,0.348,1.61,0.538c0.357,0.19,0.621,0.421,0.794,0.689s0.259,0.593,0.259,0.976c0,0.623-0.25,1.121-0.753,1.494
		s-1.158,0.56-1.968,0.56c-0.859,0-1.556-0.207-2.09-0.624c-0.534-0.416-0.802-0.942-0.802-1.578h0.819
		c0.032,0.477,0.234,0.85,0.604,1.115c0.371,0.266,0.861,0.4,1.469,0.4c0.568,0,1.028-0.125,1.379-0.375
		C93.806,15.452,93.981,15.136,93.981,14.753z"/>
</g>
<g id="_x35_pzpl7_1_">
	<g>
		<path class="st0" d="M0.001,10.948c0-1.952,0.005-3.904-0.001-5.855c-0.004-1.073,0.407-1.932,1.278-2.559
			C1.783,2.17,2.359,2.004,2.976,1.995c0.141-0.001,0.205-0.043,0.267-0.176C3.79,0.654,4.706,0.031,5.998,0.012
			C7.302-0.007,8.605,0,9.909,0.01c1.316,0.011,2.231,0.651,2.792,1.82c0.062,0.128,0.125,0.161,0.253,0.163
			c1.511,0.029,2.544,1.026,2.847,2.131c0.088,0.325,0.133,0.672,0.133,1.008c0.009,3.889,0.004,7.78,0.005,11.667
			c0,1.304-0.562,2.265-1.735,2.85c-0.37,0.184-0.773,0.279-1.192,0.279c-3.369,0-6.739,0.003-10.108-0.001
			c-1.357-0.001-2.617-1.067-2.842-2.404c-0.043-0.25-0.059-0.51-0.061-0.764C-0.001,14.823,0.001,12.887,0.001,10.948z
			 M7.968,3.985c0.67,0,1.338,0.001,2.008,0c0.532-0.003,0.977-0.432,0.986-0.947c0.009-0.587-0.407-1.055-0.967-1.058
			C8.644,1.973,7.291,1.97,5.938,1.982c-0.573,0.005-0.997,0.51-0.964,1.056c0.03,0.518,0.452,0.944,0.988,0.946
			C6.63,3.986,7.3,3.985,7.968,3.985z M4.467,10.632c0.942-0.943,1.883-1.887,2.789-2.795C7.043,7.623,6.816,7.393,6.576,7.15
			C5.892,7.837,5.192,8.542,4.452,9.286C4.074,8.891,3.707,8.508,3.356,8.138C3.112,8.384,2.883,8.616,2.668,8.833
			C3.262,9.428,3.871,10.037,4.467,10.632z M6.598,10.116c-0.709,0.711-1.408,1.416-2.14,2.151
			c-0.383-0.389-0.756-0.764-1.114-1.126c-0.233,0.236-0.462,0.468-0.657,0.664c0.598,0.599,1.209,1.21,1.796,1.799
			c0.923-0.926,1.865-1.869,2.793-2.801C7.071,10.594,6.846,10.367,6.598,10.116z M4.482,15.293
			c-0.412-0.416-0.785-0.793-1.138-1.15c-0.229,0.232-0.458,0.462-0.648,0.655c0.595,0.597,1.206,1.209,1.789,1.794
			c0.922-0.925,1.864-1.866,2.791-2.795c-0.209-0.209-0.435-0.433-0.659-0.657C5.925,13.834,5.226,14.54,4.482,15.293z
			 M12.958,8.489c-1.669,0-3.323,0-4.972,0c0,0.333,0,0.651,0,0.967c1.665,0,3.314,0,4.972,0
			C12.958,9.129,12.958,8.818,12.958,8.489z M12.958,12.448c0-0.329,0-0.647,0-0.969c-1.665,0-3.319,0-4.972,0
			c0,0.332,0,0.649,0,0.969C9.647,12.448,11.296,12.448,12.958,12.448z M12.958,14.472c-1.667,0-3.322,0-4.972,0
			c0,0.333,0,0.649,0,0.968c1.663,0,3.312,0,4.972,0C12.958,15.115,12.958,14.803,12.958,14.472z"/>
	</g>
</g>
</svg>
