<?xml version="1.0" encoding="utf-8"?>
<!-- Generator: Adobe Illustrator 21.1.0, SVG Export Plug-In . SVG Version: 6.00 Build 0)  -->
<svg version="1.1" id="Capa_1" xmlns="http://www.w3.org/2000/svg" xmlns:xlink="http://www.w3.org/1999/xlink" x="0px" y="0px"
	 viewBox="0 0 120 20" style="enable-background:new 0 0 120 20;" xml:space="preserve">
<style type="text/css">
	.st0{fill:#6D8CBC;}
</style>
<g>
	<path class="st0" d="M30.705,12.316h-4.495v4.508h-0.814V7.187h5.971v0.688H26.21v3.753h4.495
		C30.705,11.628,30.705,12.316,30.705,12.316z"/>
	<path class="st0" d="M32.314,7.593c0-0.149,0.048-0.275,0.146-0.379c0.097-0.103,0.229-0.154,0.397-0.154s0.301,0.051,0.4,0.154
		c0.099,0.103,0.149,0.229,0.149,0.379s-0.05,0.274-0.149,0.374c-0.1,0.101-0.234,0.151-0.4,0.151s-0.3-0.05-0.397-0.151
		C32.364,7.867,32.314,7.743,32.314,7.593z M33.249,16.825h-0.795V9.662h0.795V16.825z"/>
	<path class="st0" d="M35.812,16.825h-0.795V6.657h0.795V16.825z"/>
	<path class="st0" d="M40.263,16.957c-0.609,0-1.16-0.15-1.651-0.451c-0.492-0.3-0.875-0.717-1.149-1.255
		c-0.273-0.536-0.411-1.137-0.411-1.803v-0.285c0-0.688,0.133-1.309,0.4-1.86c0.267-0.552,0.639-0.985,1.116-1.3
		c0.477-0.316,0.993-0.473,1.549-0.473c0.869,0,1.559,0.297,2.069,0.891c0.509,0.593,0.764,1.405,0.764,2.433v0.443h-5.11v0.152
		c0,0.812,0.233,1.488,0.698,2.028c0.466,0.541,1.051,0.811,1.758,0.811c0.423,0,0.798-0.077,1.122-0.232
		c0.324-0.154,0.618-0.401,0.883-0.741l0.496,0.378C42.215,16.536,41.369,16.957,40.263,16.957z M40.118,10.205
		c-0.595,0-1.098,0.218-1.506,0.655c-0.409,0.437-0.657,1.024-0.745,1.76h4.296v-0.087c-0.022-0.688-0.218-1.249-0.589-1.681
		C41.202,10.421,40.716,10.205,40.118,10.205z"/>
	<path class="st0" d="M48.307,15.004c0-0.392-0.157-0.708-0.473-0.947c-0.315-0.239-0.79-0.424-1.427-0.559
		c-0.635-0.135-1.129-0.289-1.479-0.463c-0.351-0.174-0.611-0.388-0.781-0.639s-0.255-0.556-0.255-0.914
		c0-0.565,0.237-1.031,0.708-1.399c0.472-0.369,1.077-0.553,1.813-0.553c0.799,0,1.44,0.197,1.923,0.592
		c0.484,0.394,0.725,0.91,0.725,1.545h-0.795c0-0.419-0.175-0.768-0.527-1.046c-0.35-0.278-0.793-0.417-1.326-0.417
		c-0.521,0-0.939,0.116-1.255,0.347c-0.315,0.233-0.473,0.533-0.473,0.904c0,0.358,0.131,0.634,0.393,0.83
		c0.263,0.196,0.741,0.376,1.437,0.54c0.695,0.164,1.216,0.338,1.562,0.522c0.346,0.186,0.604,0.409,0.771,0.668
		c0.167,0.26,0.251,0.576,0.251,0.947c0,0.605-0.244,1.088-0.731,1.45c-0.488,0.362-1.124,0.543-1.91,0.543
		c-0.834,0-1.51-0.201-2.029-0.606c-0.518-0.404-0.778-0.915-0.778-1.532h0.795c0.031,0.463,0.226,0.825,0.586,1.082
		c0.36,0.259,0.835,0.388,1.427,0.388c0.552,0,0.998-0.121,1.337-0.364C48.134,15.683,48.307,15.375,48.307,15.004z"/>
</g>
<g id="vvEbeZ_1_">
	<g>
		<path class="st0" d="M1.313,11.418c0-0.114,0-0.192,0-0.268c0-2.122,0.013-4.244-0.008-6.366c-0.007-0.6,0.444-1.044,1.046-1.041
			C8.068,3.752,13.783,3.749,19.5,3.749c0.672,0,1.058,0.385,1.058,1.065c0.001,2.109,0,4.218,0,6.326c0,0.083,0,0.166,0,0.259
			c0.133,0.017,0.256,0.019,0.369,0.052c0.441,0.129,0.685,0.487,0.685,0.997c0.001,1.312,0,2.624,0,3.935
			c0,0.836-0.011,1.673,0.003,2.507c0.009,0.592-0.424,1.04-1.029,1.038c-6.519-0.011-13.039-0.013-19.558,0
			C0.373,19.929-0.003,19.444,0,18.892c0.009-2.168,0.003-4.332,0.005-6.5c0-0.573,0.385-0.963,0.962-0.976
			C1.076,11.417,1.182,11.418,1.313,11.418z M13.626,13.669c0-0.409,0.02-0.795-0.005-1.179c-0.039-0.575,0.368-1.095,1.065-1.08
			c1.254,0.025,2.507,0.008,3.761,0.008c0.075,0,0.149,0,0.224,0c0-1.95,0-3.87,0-5.797c-5.168,0-10.325,0-15.491,0
			c0,1.934,0,3.854,0,5.797c0.085,0,0.16,0,0.235,0c1.222,0.001,2.444-0.003,3.663,0.005c0.453,0.003,0.822,0.315,0.872,0.765
			c0.043,0.394,0.027,0.794,0.036,1.191c0.001,0.094,0,0.189,0,0.29C9.879,13.669,11.741,13.669,13.626,13.669z M1.891,18.051
			c5.949,0,11.885,0,17.834,0c0-1.592,0-3.174,0-4.758c-1.414,0-2.811,0-4.222,0c0,0.11,0,0.207,0,0.302
			c0.007,1.221-0.921,1.945-1.859,1.953c-1.89,0.017-3.78,0.015-5.67,0.001c-0.887-0.007-1.61-0.609-1.803-1.477
			c-0.056-0.252-0.052-0.518-0.076-0.781c-1.404,0-2.801,0-4.202,0C1.891,14.884,1.891,16.462,1.891,18.051z"/>
		<path class="st0" d="M10.937,2.787c-2.514,0-5.026-0.005-7.54,0.007C3.072,2.795,2.885,2.568,2.878,2.35
			c-0.011-0.272,0.176-0.455,0.49-0.476C3.42,1.871,3.473,1.872,3.524,1.872c4.936,0,9.873,0,14.809,0c0.07,0,0.142,0,0.212,0.008
			c0.283,0.031,0.457,0.219,0.444,0.48c-0.011,0.256-0.208,0.427-0.492,0.427C15.978,2.787,13.457,2.787,10.937,2.787z"/>
		<path class="st0" d="M10.934,0.001c2.204,0,4.41,0,6.614,0c0.321,0,0.483,0.119,0.526,0.386c0.043,0.266-0.137,0.502-0.404,0.526
			c-0.044,0.005-0.09,0.001-0.134,0.001c-4.404,0-8.804,0-13.208,0c-0.361,0-0.554-0.178-0.542-0.495
			c0.009-0.225,0.174-0.397,0.401-0.416C4.264-0.003,4.342,0.001,4.42,0.001C6.589-0.001,8.76,0.001,10.934,0.001z"/>
	</g>
</g>
</svg>
