<?xml version="1.0" encoding="utf-8"?>
<!-- Generator: Adobe Illustrator 21.1.0, SVG Export Plug-In . SVG Version: 6.00 Build 0)  -->
<svg version="1.1" id="Layer_1" xmlns="http://www.w3.org/2000/svg" xmlns:xlink="http://www.w3.org/1999/xlink" x="0px" y="0px"
	 viewBox="0 0 100 15" style="enable-background:new 0 0 100 15;" xml:space="preserve">
<style type="text/css">
	.st0{fill:#3A58A8;}
	.st1{fill:#FFFFFF;}
	.st2{fill:#FAA634;}
	.st3{fill:#14477C;}
	.st4{fill:#FBB22F;}
	.st5{fill:#EB2030;}
	.st6{fill:none;stroke:#FFFFFF;stroke-width:0.216;stroke-miterlimit:2.6131;}
	.st7{fill:#0078A9;}
	.st8{fill:#F58220;}
	.st9{fill:url(#SVGID_1_);}
	.st10{fill:#091A23;}
	.st11{fill:#231F20;}
</style>
<g>
	<path class="st0" d="M16.385,9.78c0,0.301-0.245,0.546-0.546,0.546H0.546C0.245,10.326,0,10.081,0,9.78V0.631
		C0,0.33,0.245,0.085,0.546,0.085h15.292c0.301,0,0.546,0.245,0.546,0.546L16.385,9.78L16.385,9.78z"/>
	<g>
		<polygon class="st1" points="7.541,6.743 6.74,6.743 7.24,3.669 8.04,3.669 		"/>
		<path class="st1" d="M6.067,3.669L5.303,5.784l-0.09-0.456l0,0L4.944,3.946c0,0-0.032-0.277-0.379-0.277H3.302L3.288,3.721
			c0,0,0.386,0.08,0.837,0.351l0.695,2.67h0.834l1.273-3.074L6.067,3.669L6.067,3.669z"/>
		<path class="st1" d="M12.362,6.743h0.735l-0.641-3.074h-0.644c-0.298,0-0.37,0.229-0.37,0.229l-1.193,2.845h0.834l0.167-0.456
			h1.018L12.362,6.743z M11.481,5.656l0.42-1.151l0.237,1.151H11.481z"/>
		<path class="st1" d="M10.313,4.408l0.114-0.66c0,0-0.353-0.134-0.719-0.134c-0.397,0-1.34,0.174-1.34,1.018
			c0,0.794,1.107,0.804,1.107,1.221S8.482,6.195,8.154,5.932l-0.119,0.69c0,0,0.357,0.174,0.904,0.174
			c0.546,0,1.37-0.283,1.37-1.052c0-0.8-1.117-0.874-1.117-1.221C9.19,4.175,9.97,4.22,10.313,4.408z"/>
	</g>
	<path class="st2" d="M5.213,5.329L4.944,3.946c0,0-0.032-0.277-0.379-0.277H3.302L3.288,3.721c0,0,0.606,0.126,1.188,0.597
		C5.032,4.768,5.213,5.329,5.213,5.329z"/>
</g>
<g>
	<path class="st3" d="M37.587,9.78c0,0.301-0.245,0.546-0.546,0.546H21.748c-0.301,0-0.546-0.244-0.546-0.546V0.631
		c0-0.301,0.245-0.546,0.546-0.546H37.04c0.301,0,0.546,0.245,0.546,0.546L37.587,9.78L37.587,9.78z"/>
	<g>
		<polygon class="st4" points="31.361,8.145 31.512,8.141 31.662,8.13 31.808,8.111 31.955,8.085 32.096,8.053 32.236,8.013 
			32.373,7.966 32.506,7.914 32.638,7.855 32.765,7.79 32.887,7.719 33.008,7.642 33.123,7.56 33.234,7.473 33.341,7.381 
			33.443,7.283 33.541,7.18 33.633,7.073 33.721,6.962 33.803,6.847 33.879,6.727 33.951,6.604 34.015,6.477 34.074,6.347 
			34.127,6.212 34.173,6.075 34.214,5.936 34.246,5.794 34.272,5.649 34.291,5.501 34.302,5.352 34.306,5.2 34.302,5.05 
			34.291,4.901 34.272,4.754 34.246,4.61 34.214,4.468 34.173,4.33 34.127,4.193 34.074,4.06 34.015,3.93 33.951,3.803 
			33.879,3.681 33.803,3.561 33.721,3.446 33.633,3.336 33.541,3.229 33.443,3.127 33.341,3.029 33.234,2.937 33.123,2.85 
			33.008,2.768 32.887,2.692 32.765,2.621 32.638,2.557 32.506,2.497 32.373,2.445 32.236,2.398 32.096,2.358 31.955,2.326 
			31.808,2.3 31.662,2.281 31.512,2.27 31.361,2.266 31.21,2.27 31.06,2.281 30.913,2.3 30.769,2.326 30.627,2.358 30.487,2.398 
			30.351,2.445 30.217,2.497 30.087,2.557 29.961,2.621 29.838,2.692 29.72,2.768 29.605,2.85 29.494,2.937 29.387,3.029 
			29.285,3.127 29.188,3.229 29.096,3.336 29.009,3.446 28.927,3.561 28.851,3.681 28.781,3.803 28.715,3.93 28.656,4.06 
			28.604,4.193 28.559,4.33 28.518,4.468 28.485,4.61 28.46,4.754 28.441,4.901 28.43,5.05 28.426,5.2 28.43,5.352 28.441,5.501 
			28.46,5.649 28.485,5.794 28.518,5.936 28.559,6.075 28.604,6.212 28.656,6.347 28.715,6.477 28.781,6.604 28.851,6.727 
			28.927,6.847 29.009,6.962 29.096,7.073 29.188,7.18 29.285,7.283 29.387,7.381 29.494,7.473 29.605,7.56 29.72,7.642 
			29.838,7.719 29.961,7.79 30.087,7.855 30.217,7.914 30.351,7.966 30.487,8.013 30.627,8.053 30.769,8.085 30.913,8.111 
			31.06,8.13 31.21,8.141 		"/>
		<polygon class="st5" points="27.428,8.145 27.579,8.141 27.728,8.13 27.875,8.111 28.02,8.085 28.162,8.053 28.301,8.013 
			28.437,7.966 28.571,7.914 28.701,7.855 28.827,7.79 28.95,7.719 29.069,7.642 29.184,7.56 29.295,7.473 29.402,7.381 
			29.503,7.283 29.601,7.18 29.693,7.073 29.78,6.962 29.861,6.847 29.938,6.727 30.008,6.604 30.074,6.477 30.132,6.347 
			30.185,6.212 30.23,6.075 30.27,5.936 30.303,5.794 30.328,5.649 30.348,5.501 30.358,5.352 30.362,5.2 30.358,5.05 30.348,4.901 
			30.328,4.754 30.303,4.61 30.27,4.468 30.23,4.33 30.185,4.193 30.132,4.06 30.074,3.93 30.008,3.803 29.938,3.681 29.861,3.561 
			29.78,3.446 29.693,3.336 29.601,3.229 29.503,3.127 29.402,3.029 29.295,2.937 29.184,2.85 29.069,2.768 28.95,2.692 
			28.827,2.621 28.701,2.557 28.571,2.497 28.437,2.445 28.301,2.398 28.162,2.358 28.02,2.326 27.875,2.3 27.728,2.281 
			27.579,2.27 27.428,2.266 27.277,2.27 27.126,2.281 26.98,2.3 26.834,2.326 26.693,2.358 26.552,2.398 26.416,2.445 26.282,2.497 
			26.151,2.557 26.024,2.621 25.901,2.692 25.781,2.768 25.665,2.85 25.554,2.937 25.447,3.029 25.346,3.127 25.248,3.229 
			25.155,3.336 25.068,3.446 24.985,3.561 24.909,3.681 24.838,3.803 24.774,3.93 24.714,4.06 24.662,4.193 24.615,4.33 
			24.575,4.468 24.542,4.61 24.516,4.754 24.497,4.901 24.486,5.05 24.483,5.2 24.486,5.352 24.497,5.501 24.516,5.649 
			24.542,5.794 24.575,5.936 24.615,6.075 24.662,6.212 24.714,6.347 24.774,6.477 24.838,6.604 24.909,6.727 24.985,6.847 
			25.068,6.962 25.155,7.073 25.248,7.18 25.346,7.283 25.447,7.381 25.554,7.473 25.665,7.56 25.781,7.642 25.901,7.719 
			26.024,7.79 26.151,7.855 26.282,7.914 26.416,7.966 26.552,8.013 26.693,8.053 26.834,8.085 26.98,8.111 27.126,8.13 
			27.277,8.141 		"/>
		<polygon class="st4" points="29.051,3.394 30.612,3.394 30.612,3.234 29.185,3.234 		"/>
		<polygon class="st4" points="28.816,3.749 30.612,3.749 30.612,3.589 28.91,3.589 		"/>
		<polygon class="st4" points="28.641,4.102 30.612,4.102 30.612,3.943 28.711,3.943 		"/>
		<polygon class="st4" points="28.522,4.457 30.612,4.457 30.612,4.298 28.571,4.298 		"/>
		<polygon class="st4" points="28.591,6.173 30.617,6.173 30.617,6.013 28.541,6.013 		"/>
		<polygon class="st4" points="28.74,6.528 30.617,6.528 30.617,6.368 28.666,6.368 		"/>
		<polygon class="st4" points="28.951,6.882 30.617,6.882 30.617,6.722 28.851,6.722 		"/>
		<polygon class="st4" points="29.24,7.237 30.617,7.237 30.617,7.076 29.101,7.076 		"/>
		<polygon class="st4" points="28.452,4.811 30.612,4.811 30.612,4.651 28.482,4.651 		"/>
		<polygon class="st4" points="29.768,5.819 30.592,5.819 30.592,5.659 29.797,5.659 		"/>
		<polygon class="st4" points="29.834,5.464 30.592,5.464 30.592,5.304 29.864,5.304 		"/>
		<polygon class="st4" points="28.397,5.304 28.611,5.304 28.611,5.464 28.407,5.464 		"/>
		<polygon class="st1" points="27.997,5.111 27.983,5.109 27.969,5.108 27.957,5.106 27.944,5.104 27.931,5.102 27.919,5.1 
			27.906,5.098 27.892,5.096 27.878,5.094 27.862,5.093 27.845,5.092 27.826,5.091 27.805,5.091 27.782,5.092 27.756,5.094 
			27.728,5.096 27.708,5.099 27.689,5.102 27.672,5.108 27.657,5.113 27.643,5.12 27.631,5.128 27.62,5.139 27.612,5.147 
			27.606,5.158 27.6,5.169 27.598,5.181 27.598,5.193 27.602,5.206 27.606,5.219 27.613,5.231 27.623,5.245 27.643,5.264 
			27.667,5.279 27.694,5.291 27.724,5.302 27.756,5.313 27.789,5.323 27.822,5.335 27.853,5.348 27.883,5.364 27.911,5.386 
			27.936,5.41 27.957,5.441 27.972,5.479 27.983,5.523 27.986,5.577 27.983,5.639 27.975,5.686 27.964,5.727 27.948,5.764 
			27.927,5.797 27.905,5.826 27.879,5.851 27.851,5.872 27.82,5.891 27.789,5.906 27.756,5.919 27.723,5.929 27.688,5.937 
			27.654,5.943 27.621,5.946 27.588,5.948 27.558,5.948 27.515,5.948 27.476,5.948 27.441,5.948 27.408,5.947 27.378,5.946 
			27.351,5.944 27.328,5.941 27.305,5.939 27.284,5.937 27.266,5.933 27.247,5.93 27.229,5.925 27.213,5.921 27.197,5.915 
			27.181,5.909 27.164,5.903 27.209,5.684 27.218,5.686 27.229,5.689 27.243,5.693 27.259,5.697 27.277,5.701 27.297,5.704 
			27.319,5.71 27.343,5.714 27.367,5.718 27.393,5.722 27.42,5.725 27.447,5.727 27.476,5.729 27.506,5.73 27.534,5.73 
			27.563,5.729 27.591,5.723 27.614,5.715 27.632,5.704 27.646,5.69 27.656,5.676 27.664,5.66 27.669,5.645 27.673,5.63 
			27.675,5.601 27.666,5.576 27.649,5.556 27.624,5.539 27.595,5.524 27.56,5.509 27.521,5.495 27.483,5.479 27.443,5.462 
			27.405,5.441 27.37,5.416 27.339,5.385 27.314,5.347 27.296,5.302 27.288,5.249 27.288,5.185 27.293,5.146 27.3,5.109 
			27.31,5.076 27.322,5.044 27.338,5.015 27.355,4.989 27.376,4.964 27.401,4.943 27.43,4.924 27.461,4.907 27.498,4.893 
			27.537,4.882 27.582,4.873 27.631,4.866 27.683,4.862 27.742,4.861 27.779,4.861 27.813,4.862 27.843,4.863 27.872,4.864 
			27.896,4.866 27.919,4.868 27.938,4.87 27.957,4.872 27.973,4.874 27.987,4.877 28.001,4.879 28.012,4.88 28.022,4.883 
			28.031,4.884 28.04,4.886 28.048,4.887 		"/>
		<polyline class="st6" points="27.997,5.111 27.997,5.111 27.983,5.109 27.969,5.108 27.957,5.106 27.944,5.104 27.931,5.102 
			27.919,5.1 27.906,5.098 27.892,5.096 27.878,5.094 27.862,5.093 27.845,5.092 27.826,5.091 27.805,5.091 27.782,5.092 
			27.756,5.094 27.728,5.096 27.728,5.096 27.708,5.099 27.689,5.102 27.672,5.108 27.657,5.113 27.643,5.12 27.631,5.128 
			27.62,5.139 27.612,5.147 27.606,5.158 27.6,5.169 27.598,5.181 27.598,5.193 27.602,5.206 27.606,5.219 27.613,5.231 
			27.623,5.245 27.623,5.245 27.643,5.264 27.667,5.279 27.694,5.291 27.724,5.302 27.756,5.313 27.789,5.323 27.822,5.335 
			27.853,5.348 27.883,5.364 27.911,5.386 27.936,5.41 27.957,5.441 27.972,5.479 27.983,5.523 27.986,5.577 27.983,5.639 
			27.983,5.639 27.975,5.686 27.964,5.727 27.948,5.764 27.927,5.797 27.905,5.826 27.879,5.851 27.851,5.872 27.82,5.891 
			27.789,5.906 27.756,5.919 27.723,5.929 27.688,5.937 27.654,5.943 27.621,5.946 27.588,5.948 27.558,5.948 27.558,5.948 
			27.515,5.948 27.476,5.948 27.441,5.948 27.408,5.947 27.378,5.946 27.351,5.944 27.328,5.941 27.305,5.939 27.284,5.937 
			27.266,5.933 27.247,5.93 27.229,5.925 27.213,5.921 27.197,5.915 27.181,5.909 27.164,5.903 27.209,5.684 27.209,5.684 
			27.218,5.686 27.229,5.689 27.243,5.693 27.259,5.697 27.277,5.701 27.297,5.704 27.319,5.71 27.343,5.714 27.367,5.718 
			27.393,5.722 27.42,5.725 27.447,5.727 27.476,5.729 27.506,5.73 27.534,5.73 27.563,5.729 27.563,5.729 27.591,5.723 
			27.614,5.715 27.632,5.704 27.646,5.69 27.656,5.676 27.664,5.66 27.669,5.645 27.673,5.63 27.673,5.63 27.675,5.601 
			27.666,5.576 27.649,5.556 27.624,5.539 27.595,5.524 27.56,5.509 27.521,5.495 27.483,5.479 27.443,5.462 27.405,5.441 
			27.37,5.416 27.339,5.385 27.314,5.347 27.296,5.302 27.288,5.249 27.288,5.185 27.288,5.185 27.293,5.146 27.3,5.109 
			27.31,5.076 27.322,5.044 27.338,5.015 27.355,4.989 27.376,4.964 27.401,4.943 27.43,4.924 27.461,4.907 27.498,4.893 
			27.537,4.882 27.582,4.873 27.631,4.866 27.683,4.862 27.742,4.861 27.742,4.861 27.779,4.861 27.813,4.862 27.843,4.863 
			27.872,4.864 27.896,4.866 27.919,4.868 27.938,4.87 27.957,4.872 27.973,4.874 27.987,4.877 28.001,4.879 28.012,4.88 
			28.022,4.883 28.031,4.884 28.04,4.886 28.048,4.887 27.997,5.111 		"/>
		<polygon class="st1" points="28.232,4.642 28.507,4.642 28.467,4.882 28.632,4.882 28.596,5.106 28.422,5.101 28.326,5.654 
			28.326,5.674 28.33,5.691 28.34,5.704 28.353,5.715 28.371,5.722 28.391,5.727 28.412,5.731 28.437,5.734 28.458,5.733 
			28.478,5.73 28.496,5.727 28.512,5.723 28.525,5.719 28.533,5.717 28.54,5.715 28.541,5.714 28.507,5.898 28.5,5.903 
			28.493,5.907 28.485,5.911 28.479,5.915 28.472,5.918 28.464,5.921 28.456,5.924 28.446,5.927 28.437,5.93 28.426,5.932 
			28.415,5.934 28.403,5.936 28.389,5.938 28.374,5.94 28.359,5.941 28.342,5.944 28.267,5.944 28.227,5.941 28.193,5.937 
			28.161,5.931 28.134,5.924 28.111,5.915 28.093,5.905 28.075,5.893 28.063,5.88 28.053,5.867 28.045,5.849 28.041,5.833 
			28.038,5.814 28.037,5.793 28.037,5.771 28.04,5.749 28.042,5.723 		"/>
		<polyline class="st6" points="28.232,4.642 28.507,4.642 28.467,4.882 28.632,4.882 28.596,5.106 28.422,5.101 28.326,5.654 
			28.326,5.654 28.326,5.674 28.33,5.691 28.34,5.704 28.353,5.715 28.371,5.722 28.391,5.727 28.412,5.731 28.437,5.734 
			28.437,5.734 28.458,5.733 28.478,5.73 28.496,5.727 28.512,5.723 28.525,5.719 28.533,5.717 28.54,5.715 28.541,5.714 
			28.507,5.898 28.507,5.898 28.5,5.903 28.493,5.907 28.485,5.911 28.479,5.915 28.472,5.918 28.464,5.921 28.456,5.924 
			28.446,5.927 28.437,5.93 28.426,5.932 28.415,5.934 28.403,5.936 28.389,5.938 28.374,5.94 28.359,5.941 28.342,5.944 
			28.267,5.944 28.267,5.944 28.227,5.941 28.193,5.937 28.161,5.931 28.134,5.924 28.111,5.915 28.093,5.905 28.075,5.893 
			28.063,5.88 28.053,5.867 28.045,5.849 28.041,5.833 28.038,5.814 28.037,5.793 28.037,5.771 28.04,5.749 28.042,5.723 
			28.232,4.642 		"/>
		<polyline class="st6" points="28.851,5.479 28.851,5.479 28.848,5.497 28.847,5.514 28.848,5.533 28.853,5.552 28.86,5.571 
			28.868,5.589 28.878,5.608 28.891,5.624 28.904,5.642 28.919,5.656 28.935,5.671 28.953,5.683 28.97,5.694 28.991,5.703 
			29.01,5.71 29.03,5.714 29.03,5.714 29.056,5.718 29.08,5.721 29.106,5.723 29.132,5.726 29.158,5.727 29.185,5.727 29.211,5.726 
			29.238,5.723 29.265,5.719 29.291,5.715 29.319,5.708 29.346,5.7 29.373,5.689 29.402,5.677 29.43,5.661 29.459,5.645 
			29.419,5.889 29.419,5.889 29.403,5.897 29.387,5.904 29.372,5.91 29.357,5.916 29.342,5.921 29.326,5.926 29.31,5.93 
			29.293,5.933 29.275,5.936 29.255,5.938 29.235,5.94 29.212,5.941 29.186,5.943 29.159,5.943 29.128,5.944 29.096,5.944 
			29.096,5.944 29.047,5.943 28.998,5.938 28.948,5.931 28.899,5.919 28.85,5.904 28.803,5.886 28.759,5.86 28.717,5.832 
			28.678,5.798 28.644,5.757 28.616,5.712 28.592,5.659 28.575,5.601 28.564,5.534 28.561,5.461 28.567,5.379 28.567,5.379 
			28.57,5.348 28.576,5.311 28.584,5.272 28.595,5.231 28.61,5.188 28.628,5.146 28.651,5.102 28.678,5.061 28.71,5.021 
			28.748,4.983 28.792,4.949 28.842,4.92 28.899,4.895 28.964,4.877 29.036,4.865 29.116,4.861 29.116,4.861 29.154,4.862 
			29.195,4.866 29.235,4.873 29.276,4.883 29.316,4.898 29.354,4.916 29.391,4.939 29.423,4.967 29.453,5.001 29.478,5.04 
			29.498,5.086 29.511,5.139 29.519,5.198 29.52,5.265 29.513,5.341 29.498,5.424 29.494,5.485 28.77,5.485 28.816,5.289 
			29.25,5.289 29.25,5.289 29.253,5.265 29.251,5.241 29.25,5.219 29.246,5.199 29.239,5.18 29.232,5.163 29.221,5.149 
			29.212,5.135 29.2,5.123 29.187,5.113 29.173,5.104 29.157,5.096 29.142,5.09 29.125,5.086 29.109,5.084 29.091,5.081 
			29.091,5.081 29.072,5.082 29.054,5.085 29.037,5.089 29.021,5.095 29.003,5.103 28.988,5.112 28.973,5.123 28.961,5.135 
			28.948,5.149 28.936,5.163 28.925,5.18 28.916,5.196 28.907,5.214 28.9,5.234 28.895,5.254 28.891,5.275 28.851,5.479 		"/>
		<polygon class="st1" points="31.216,4.941 31.203,4.935 31.19,4.928 31.176,4.921 31.161,4.914 31.146,4.909 31.13,4.902 
			31.113,4.897 31.094,4.891 31.076,4.886 31.057,4.882 31.036,4.878 31.016,4.875 30.993,4.873 30.97,4.871 30.946,4.871 
			30.921,4.871 30.897,4.871 30.871,4.873 30.844,4.876 30.816,4.88 30.788,4.888 30.761,4.899 30.733,4.914 30.705,4.932 
			30.678,4.953 30.652,4.979 30.628,5.011 30.604,5.047 30.582,5.091 30.562,5.14 30.543,5.196 30.527,5.26 30.521,5.295 
			30.517,5.33 30.514,5.364 30.516,5.398 30.518,5.432 30.525,5.464 30.535,5.494 30.546,5.523 30.56,5.55 30.578,5.576 
			30.599,5.599 30.623,5.619 30.65,5.638 30.681,5.653 30.714,5.665 30.752,5.674 30.765,5.677 30.78,5.68 30.797,5.682 
			30.817,5.684 30.839,5.686 30.862,5.686 30.887,5.686 30.911,5.684 30.937,5.681 30.963,5.676 30.987,5.669 31.013,5.661 
			31.037,5.65 31.06,5.638 31.081,5.622 31.101,5.604 31.056,5.868 31.05,5.874 31.044,5.879 31.036,5.886 31.028,5.892 31.017,5.9 
			31.002,5.907 30.987,5.914 30.969,5.92 30.946,5.927 30.921,5.932 30.891,5.936 30.856,5.94 30.817,5.941 30.773,5.943 
			30.722,5.941 30.666,5.939 30.621,5.934 30.575,5.924 30.529,5.909 30.484,5.889 30.44,5.866 30.399,5.836 30.359,5.801 
			30.322,5.761 30.289,5.717 30.262,5.667 30.238,5.612 30.22,5.551 30.208,5.485 30.204,5.414 30.207,5.337 30.217,5.254 
			30.226,5.214 30.234,5.174 30.244,5.135 30.254,5.099 30.265,5.065 30.278,5.03 30.291,4.997 30.304,4.966 30.319,4.936 
			30.334,4.906 30.351,4.879 30.369,4.853 30.387,4.829 30.407,4.805 30.426,4.783 30.448,4.762 30.47,4.742 30.493,4.723 
			30.517,4.707 30.542,4.691 30.568,4.676 30.595,4.662 30.623,4.651 30.651,4.64 30.682,4.63 30.713,4.622 30.745,4.615 
			30.778,4.609 30.812,4.604 30.848,4.6 30.884,4.599 30.921,4.597 30.953,4.599 30.984,4.6 31.013,4.603 31.043,4.607 
			31.071,4.611 31.098,4.617 31.124,4.622 31.147,4.628 31.17,4.634 31.19,4.64 31.209,4.646 31.224,4.651 31.239,4.657 
			31.25,4.661 31.26,4.665 31.265,4.666 		"/>
		<polyline class="st6" points="31.216,4.941 31.216,4.941 31.203,4.935 31.19,4.928 31.176,4.921 31.161,4.914 31.146,4.909 
			31.13,4.902 31.113,4.897 31.094,4.891 31.076,4.886 31.057,4.882 31.036,4.878 31.016,4.875 30.993,4.873 30.97,4.871 
			30.946,4.871 30.921,4.871 30.921,4.871 30.897,4.871 30.871,4.873 30.844,4.876 30.816,4.88 30.788,4.888 30.761,4.899 
			30.733,4.914 30.705,4.932 30.678,4.953 30.652,4.979 30.628,5.011 30.604,5.047 30.582,5.091 30.562,5.14 30.543,5.196 
			30.527,5.26 30.527,5.26 30.521,5.295 30.517,5.33 30.514,5.364 30.516,5.398 30.518,5.432 30.525,5.464 30.535,5.494 
			30.546,5.523 30.56,5.55 30.578,5.576 30.599,5.599 30.623,5.619 30.65,5.638 30.681,5.653 30.714,5.665 30.752,5.674 
			30.752,5.674 30.765,5.677 30.78,5.68 30.797,5.682 30.817,5.684 30.839,5.686 30.862,5.686 30.887,5.686 30.911,5.684 
			30.937,5.681 30.963,5.676 30.987,5.669 31.013,5.661 31.037,5.65 31.06,5.638 31.081,5.622 31.101,5.604 31.056,5.868 
			31.056,5.868 31.05,5.874 31.044,5.879 31.036,5.886 31.028,5.892 31.017,5.9 31.002,5.907 30.987,5.914 30.969,5.92 
			30.946,5.927 30.921,5.932 30.891,5.936 30.856,5.94 30.817,5.941 30.773,5.943 30.722,5.941 30.666,5.939 30.666,5.939 
			30.621,5.934 30.575,5.924 30.529,5.909 30.484,5.889 30.44,5.866 30.399,5.836 30.359,5.801 30.322,5.761 30.289,5.717 
			30.262,5.667 30.238,5.612 30.22,5.551 30.208,5.485 30.204,5.414 30.207,5.337 30.217,5.254 30.217,5.254 30.226,5.214 
			30.234,5.174 30.244,5.135 30.254,5.099 30.265,5.065 30.278,5.03 30.291,4.997 30.304,4.966 30.319,4.936 30.334,4.906 
			30.351,4.879 30.369,4.853 30.387,4.829 30.407,4.805 30.426,4.783 30.448,4.762 30.47,4.742 30.493,4.723 30.517,4.707 
			30.542,4.691 30.568,4.676 30.595,4.662 30.623,4.651 30.651,4.64 30.682,4.63 30.713,4.622 30.745,4.615 30.778,4.609 
			30.812,4.604 30.848,4.6 30.884,4.599 30.921,4.597 30.921,4.597 30.953,4.599 30.984,4.6 31.013,4.603 31.043,4.607 
			31.071,4.611 31.098,4.617 31.124,4.622 31.147,4.628 31.17,4.634 31.19,4.64 31.209,4.646 31.224,4.651 31.239,4.657 
			31.25,4.661 31.26,4.665 31.265,4.666 31.216,4.941 		"/>
		<polygon class="st1" points="33.657,5.944 33.382,5.944 33.402,5.834 33.402,5.824 33.386,5.844 33.37,5.861 33.353,5.878 
			33.335,5.891 33.317,5.904 33.299,5.915 33.281,5.924 33.262,5.933 33.244,5.94 33.225,5.945 33.206,5.95 33.186,5.952 
			33.166,5.956 33.147,5.958 33.127,5.959 33.108,5.959 33.056,5.955 33.009,5.944 32.965,5.927 32.925,5.904 32.89,5.875 
			32.857,5.841 32.83,5.805 32.806,5.764 32.787,5.719 32.771,5.672 32.76,5.623 32.752,5.573 32.749,5.523 32.75,5.471 
			32.754,5.42 32.764,5.37 32.779,5.311 32.797,5.256 32.817,5.205 32.842,5.157 32.868,5.113 32.898,5.073 32.928,5.038 
			32.961,5.005 32.996,4.976 33.032,4.951 33.07,4.929 33.108,4.913 33.147,4.899 33.187,4.89 33.227,4.884 33.268,4.882 
			33.296,4.883 33.323,4.886 33.349,4.891 33.374,4.898 33.396,4.906 33.416,4.914 33.436,4.925 33.454,4.936 33.47,4.948 
			33.485,4.962 33.497,4.974 33.509,4.987 33.519,5 33.528,5.013 33.536,5.024 33.542,5.036 33.542,5.036 33.611,4.647 
			33.881,4.647 		"/>
		<polyline class="st6" points="33.657,5.944 33.382,5.944 33.402,5.834 33.402,5.824 33.402,5.824 33.386,5.844 33.37,5.861 
			33.353,5.878 33.335,5.891 33.317,5.904 33.299,5.915 33.281,5.924 33.262,5.933 33.244,5.94 33.225,5.945 33.206,5.95 
			33.186,5.952 33.166,5.956 33.147,5.958 33.127,5.959 33.108,5.959 33.108,5.959 33.056,5.955 33.009,5.944 32.965,5.927 
			32.925,5.904 32.89,5.875 32.857,5.841 32.83,5.805 32.806,5.764 32.787,5.719 32.771,5.672 32.76,5.623 32.752,5.573 
			32.749,5.523 32.75,5.471 32.754,5.42 32.764,5.37 32.764,5.37 32.779,5.311 32.797,5.256 32.817,5.205 32.842,5.157 
			32.868,5.113 32.898,5.073 32.928,5.038 32.961,5.005 32.996,4.976 33.032,4.951 33.07,4.929 33.108,4.913 33.147,4.899 
			33.187,4.89 33.227,4.884 33.268,4.882 33.268,4.882 33.296,4.883 33.323,4.886 33.349,4.891 33.374,4.898 33.396,4.906 
			33.416,4.914 33.436,4.925 33.454,4.936 33.47,4.948 33.485,4.962 33.497,4.974 33.509,4.987 33.519,5 33.528,5.013 33.536,5.024 
			33.542,5.036 33.542,5.036 33.611,4.647 33.881,4.647 33.657,5.944 		"/>
		<polygon class="st4" points="33.208,5.704 33.236,5.702 33.261,5.696 33.285,5.689 33.308,5.678 33.329,5.666 33.349,5.651 
			33.367,5.634 33.385,5.616 33.399,5.597 33.413,5.575 33.426,5.552 33.437,5.528 33.447,5.504 33.455,5.478 33.462,5.451 
			33.467,5.424 33.471,5.397 33.475,5.368 33.475,5.341 33.474,5.313 33.471,5.287 33.467,5.262 33.46,5.239 33.452,5.216 
			33.441,5.196 33.43,5.177 33.417,5.161 33.402,5.147 33.386,5.135 33.367,5.128 33.349,5.123 33.328,5.12 33.301,5.123 
			33.276,5.127 33.253,5.135 33.231,5.145 33.211,5.157 33.191,5.173 33.174,5.191 33.157,5.209 33.142,5.231 33.128,5.254 
			33.116,5.277 33.105,5.303 33.095,5.33 33.087,5.357 33.079,5.386 33.073,5.414 33.068,5.458 33.07,5.505 33.077,5.554 
			33.09,5.601 33.109,5.642 33.135,5.674 33.168,5.696 		"/>
		<polygon class="st1" points="27.118,5.723 27.079,5.944 26.829,5.944 26.836,5.903 26.841,5.867 26.844,5.839 26.849,5.824 
			26.835,5.84 26.819,5.856 26.8,5.871 26.779,5.884 26.756,5.898 26.731,5.91 26.705,5.922 26.678,5.932 26.649,5.941 
			26.621,5.948 26.593,5.954 26.563,5.958 26.534,5.959 26.505,5.96 26.477,5.958 26.45,5.954 26.416,5.945 26.384,5.935 
			26.356,5.922 26.331,5.907 26.309,5.891 26.29,5.874 26.274,5.855 26.26,5.835 26.248,5.814 26.238,5.792 26.231,5.771 
			26.224,5.749 26.22,5.726 26.217,5.703 26.215,5.681 26.215,5.659 26.218,5.62 26.224,5.584 26.234,5.549 26.247,5.516 
			26.263,5.483 26.281,5.455 26.301,5.427 26.325,5.402 26.35,5.379 26.378,5.359 26.407,5.34 26.436,5.324 26.468,5.31 
			26.501,5.299 26.534,5.291 26.569,5.284 26.571,5.284 26.576,5.283 26.583,5.283 26.594,5.281 26.606,5.279 26.62,5.279 
			26.634,5.276 26.652,5.275 26.668,5.272 26.685,5.271 26.704,5.269 26.719,5.268 26.735,5.267 26.75,5.265 26.763,5.265 
			26.774,5.265 26.797,5.265 26.822,5.265 26.843,5.267 26.865,5.267 26.882,5.268 26.896,5.268 26.907,5.269 26.909,5.269 
			26.911,5.262 26.918,5.245 26.922,5.224 26.924,5.205 26.92,5.183 26.911,5.163 26.9,5.146 26.884,5.131 26.865,5.118 
			26.844,5.109 26.82,5.103 26.794,5.101 26.767,5.1 26.737,5.099 26.706,5.099 26.674,5.1 26.641,5.102 26.61,5.105 26.578,5.108 
			26.547,5.112 26.518,5.116 26.489,5.12 26.463,5.125 26.439,5.131 26.417,5.137 26.4,5.143 26.386,5.15 26.375,5.155 
			26.445,4.917 26.467,4.907 26.489,4.899 26.513,4.893 26.537,4.888 26.56,4.883 26.586,4.879 26.611,4.875 26.639,4.873 
			26.667,4.871 26.695,4.87 26.725,4.869 26.756,4.869 26.788,4.869 26.82,4.869 26.855,4.87 26.889,4.871 26.918,4.873 
			26.947,4.878 26.978,4.885 27.01,4.894 27.04,4.906 27.07,4.92 27.099,4.936 27.128,4.955 27.152,4.977 27.174,5.001 
			27.194,5.028 27.209,5.058 27.219,5.089 27.225,5.123 27.225,5.161 27.219,5.2 		"/>
		<polyline class="st6" points="27.118,5.723 27.079,5.944 26.829,5.944 26.829,5.944 26.836,5.903 26.841,5.867 26.844,5.839 
			26.849,5.824 26.849,5.824 26.835,5.84 26.819,5.856 26.8,5.871 26.779,5.884 26.756,5.898 26.731,5.91 26.705,5.922 
			26.678,5.932 26.649,5.941 26.621,5.948 26.593,5.954 26.563,5.958 26.534,5.959 26.505,5.96 26.477,5.958 26.45,5.954 
			26.45,5.954 26.416,5.945 26.384,5.935 26.356,5.922 26.331,5.907 26.309,5.891 26.29,5.874 26.274,5.855 26.26,5.835 
			26.248,5.814 26.238,5.792 26.231,5.771 26.224,5.749 26.22,5.726 26.217,5.703 26.215,5.681 26.215,5.659 26.215,5.659 
			26.218,5.62 26.224,5.584 26.234,5.549 26.247,5.516 26.263,5.483 26.281,5.455 26.301,5.427 26.325,5.402 26.35,5.379 
			26.378,5.359 26.407,5.34 26.436,5.324 26.468,5.31 26.501,5.299 26.534,5.291 26.569,5.284 26.569,5.284 26.571,5.284 
			26.576,5.283 26.583,5.283 26.594,5.281 26.606,5.279 26.62,5.279 26.634,5.276 26.652,5.275 26.668,5.272 26.685,5.271 
			26.704,5.269 26.719,5.268 26.735,5.267 26.75,5.265 26.763,5.265 26.774,5.265 26.774,5.265 26.797,5.265 26.822,5.265 
			26.843,5.267 26.865,5.267 26.882,5.268 26.896,5.268 26.907,5.269 26.909,5.269 26.909,5.269 26.911,5.262 26.918,5.245 
			26.922,5.224 26.924,5.205 26.924,5.205 26.92,5.183 26.911,5.163 26.9,5.146 26.884,5.131 26.865,5.118 26.844,5.109 
			26.82,5.103 26.794,5.101 26.794,5.101 26.767,5.1 26.737,5.099 26.706,5.099 26.674,5.1 26.641,5.102 26.61,5.105 26.578,5.108 
			26.547,5.112 26.518,5.116 26.489,5.12 26.463,5.125 26.439,5.131 26.417,5.137 26.4,5.143 26.386,5.15 26.375,5.155 
			26.445,4.917 26.445,4.917 26.467,4.907 26.489,4.899 26.513,4.893 26.537,4.888 26.56,4.883 26.586,4.879 26.611,4.875 
			26.639,4.873 26.667,4.871 26.695,4.87 26.725,4.869 26.756,4.869 26.788,4.869 26.82,4.869 26.855,4.87 26.889,4.871 
			26.889,4.871 26.918,4.873 26.947,4.878 26.978,4.885 27.01,4.894 27.04,4.906 27.07,4.92 27.099,4.936 27.128,4.955 
			27.152,4.977 27.174,5.001 27.194,5.028 27.209,5.058 27.219,5.089 27.225,5.123 27.225,5.161 27.219,5.2 27.118,5.723 		"/>
		<polygon class="st5" points="26.88,5.464 26.879,5.46 26.874,5.455 26.869,5.452 26.859,5.45 26.848,5.448 26.835,5.447 
			26.82,5.447 26.805,5.447 26.789,5.448 26.772,5.45 26.756,5.452 26.741,5.454 26.726,5.456 26.712,5.459 26.7,5.462 
			26.689,5.464 26.682,5.467 26.674,5.47 26.663,5.474 26.652,5.479 26.64,5.485 26.626,5.492 26.613,5.498 26.6,5.506 
			26.586,5.516 26.574,5.527 26.561,5.538 26.55,5.55 26.541,5.563 26.534,5.577 26.527,5.593 26.525,5.608 26.523,5.642 
			26.529,5.669 26.538,5.689 26.552,5.704 26.566,5.714 26.583,5.719 26.599,5.723 26.615,5.723 26.645,5.723 26.671,5.719 
			26.697,5.716 26.72,5.71 26.74,5.703 26.759,5.694 26.775,5.685 26.79,5.674 26.804,5.664 26.815,5.653 26.825,5.642 26.833,5.63 
			26.84,5.618 26.846,5.605 26.851,5.595 26.854,5.584 26.862,5.555 26.869,5.523 26.874,5.49 		"/>
		<polygon class="st1" points="25.033,5.944 24.763,5.944 24.988,4.642 25.457,4.642 25.501,5.414 25.825,4.642 26.316,4.642 
			26.085,5.944 25.816,5.944 25.986,4.971 25.976,4.971 25.572,5.944 25.267,5.944 25.266,5.903 25.259,5.795 25.249,5.642 
			25.24,5.464 25.229,5.287 25.221,5.132 25.214,5.019 25.211,4.971 25.209,4.971 25.203,4.971 25.197,4.971 25.197,4.971 		"/>
		<polyline class="st6" points="25.033,5.944 24.763,5.944 24.988,4.642 25.457,4.642 25.501,5.414 25.825,4.642 26.316,4.642 
			26.085,5.944 25.816,5.944 25.986,4.971 25.976,4.971 25.572,5.944 25.267,5.944 25.267,5.944 25.266,5.903 25.259,5.795 
			25.249,5.642 25.24,5.464 25.229,5.287 25.221,5.132 25.214,5.019 25.211,4.971 25.211,4.971 25.209,4.971 25.203,4.971 
			25.197,4.971 25.197,4.971 25.033,5.944 		"/>
		<polygon class="st1" points="32.04,5.723 32,5.944 31.75,5.944 31.752,5.903 31.753,5.867 31.753,5.841 31.756,5.829 
			31.742,5.844 31.727,5.859 31.709,5.872 31.689,5.886 31.669,5.899 31.645,5.911 31.62,5.923 31.596,5.933 31.568,5.941 
			31.541,5.948 31.513,5.954 31.486,5.958 31.457,5.959 31.429,5.96 31.402,5.958 31.375,5.954 31.34,5.945 31.308,5.935 
			31.28,5.922 31.254,5.907 31.233,5.891 31.214,5.874 31.198,5.855 31.184,5.835 31.172,5.814 31.163,5.792 31.155,5.771 
			31.15,5.749 31.146,5.726 31.143,5.703 31.141,5.681 31.141,5.659 31.143,5.62 31.15,5.584 31.158,5.549 31.171,5.516 
			31.186,5.483 31.205,5.455 31.226,5.427 31.249,5.402 31.275,5.379 31.301,5.359 31.33,5.34 31.361,5.324 31.391,5.31 
			31.424,5.299 31.457,5.291 31.49,5.284 31.493,5.284 31.497,5.283 31.505,5.283 31.514,5.281 31.527,5.279 31.541,5.279 
			31.556,5.276 31.571,5.275 31.589,5.272 31.606,5.271 31.623,5.269 31.641,5.268 31.656,5.267 31.67,5.265 31.684,5.265 
			31.695,5.265 31.719,5.265 31.742,5.265 31.765,5.267 31.787,5.267 31.806,5.268 31.822,5.268 31.83,5.269 31.835,5.269 
			31.837,5.262 31.84,5.245 31.842,5.224 31.845,5.205 31.841,5.183 31.833,5.163 31.819,5.146 31.804,5.131 31.787,5.118 
			31.766,5.109 31.744,5.103 31.72,5.101 31.693,5.1 31.663,5.099 31.632,5.099 31.601,5.1 31.567,5.102 31.536,5.105 31.505,5.108 
			31.474,5.112 31.444,5.116 31.415,5.12 31.39,5.125 31.365,5.131 31.344,5.137 31.326,5.143 31.312,5.15 31.301,5.155 
			31.371,4.917 31.392,4.907 31.415,4.899 31.438,4.893 31.462,4.888 31.486,4.883 31.511,4.879 31.537,4.875 31.564,4.873 
			31.592,4.871 31.62,4.87 31.649,4.869 31.679,4.869 31.711,4.869 31.742,4.869 31.776,4.87 31.81,4.871 31.837,4.873 
			31.867,4.878 31.898,4.885 31.93,4.894 31.96,4.906 31.991,4.92 32.021,4.936 32.049,4.955 32.074,4.977 32.096,5.001 
			32.116,5.028 32.131,5.058 32.142,5.089 32.149,5.123 32.149,5.161 32.144,5.2 		"/>
		<polygon class="st1" points="32,5.951 32.005,5.945 32.046,5.725 32.033,5.723 31.993,5.943 32,5.937 32,5.951 32.004,5.95 
			32.005,5.945 		"/>
		<polygon class="st1" points="31.744,5.944 31.75,5.951 32,5.951 32,5.937 31.75,5.937 31.756,5.944 31.744,5.944 31.743,5.951 
			31.75,5.951 		"/>
		<polygon class="st1" points="31.76,5.833 31.752,5.825 31.747,5.841 31.746,5.867 31.746,5.903 31.744,5.944 31.756,5.944 
			31.758,5.903 31.76,5.867 31.759,5.841 31.759,5.833 31.75,5.825 		"/>
		<polygon class="st1" points="31.375,5.959 31.375,5.959 31.402,5.963 31.429,5.967 31.457,5.966 31.486,5.963 31.514,5.959 
			31.542,5.955 31.57,5.947 31.597,5.939 31.623,5.929 31.648,5.917 31.671,5.905 31.693,5.891 31.714,5.878 31.731,5.863 
			31.747,5.848 31.76,5.833 31.75,5.825 31.737,5.84 31.723,5.853 31.706,5.867 31.687,5.882 31.666,5.893 31.642,5.905 
			31.619,5.917 31.593,5.927 31.567,5.935 31.54,5.943 31.512,5.948 31.486,5.952 31.457,5.954 31.429,5.955 31.402,5.952 
			31.376,5.948 31.376,5.948 		"/>
		<polygon class="st1" points="31.135,5.659 31.135,5.659 31.135,5.681 31.138,5.703 31.14,5.727 31.144,5.749 31.15,5.771 
			31.157,5.794 31.166,5.817 31.179,5.837 31.193,5.859 31.209,5.878 31.229,5.897 31.251,5.912 31.277,5.928 31.306,5.941 
			31.338,5.951 31.375,5.959 31.376,5.948 31.341,5.939 31.31,5.929 31.283,5.916 31.257,5.902 31.236,5.886 31.219,5.87 
			31.203,5.851 31.189,5.832 31.178,5.811 31.169,5.79 31.161,5.77 31.157,5.748 31.152,5.725 31.15,5.703 31.147,5.681 
			31.149,5.659 31.149,5.659 		"/>
		<polygon class="st1" points="31.49,5.279 31.49,5.279 31.456,5.284 31.422,5.294 31.39,5.304 31.357,5.318 31.327,5.334 
			31.297,5.353 31.27,5.375 31.245,5.398 31.22,5.424 31.2,5.451 31.18,5.481 31.165,5.513 31.152,5.547 31.143,5.582 31.138,5.62 
			31.135,5.659 31.149,5.659 31.15,5.62 31.155,5.585 31.165,5.551 31.177,5.517 31.192,5.486 31.21,5.459 31.231,5.431 
			31.253,5.406 31.278,5.385 31.305,5.364 31.333,5.346 31.364,5.33 31.393,5.316 31.426,5.305 31.457,5.296 31.49,5.291 
			31.49,5.291 		"/>
		<polygon class="st1" points="31.695,5.257 31.695,5.257 31.684,5.257 31.67,5.26 31.656,5.261 31.641,5.261 31.623,5.264 
			31.606,5.265 31.589,5.267 31.571,5.268 31.556,5.271 31.541,5.272 31.527,5.273 31.514,5.276 31.505,5.276 31.497,5.277 
			31.493,5.279 31.49,5.279 31.49,5.291 31.493,5.291 31.498,5.289 31.505,5.288 31.514,5.287 31.527,5.286 31.541,5.284 
			31.556,5.283 31.571,5.28 31.589,5.279 31.606,5.276 31.623,5.276 31.641,5.273 31.656,5.272 31.67,5.272 31.684,5.272 
			31.695,5.272 31.695,5.272 		"/>
		<polygon class="st1" points="31.829,5.268 31.835,5.264 31.83,5.264 31.822,5.262 31.806,5.261 31.787,5.26 31.765,5.26 
			31.742,5.26 31.719,5.257 31.695,5.257 31.695,5.272 31.719,5.272 31.742,5.272 31.765,5.273 31.787,5.273 31.806,5.273 
			31.822,5.275 31.83,5.276 31.835,5.276 31.841,5.271 31.835,5.276 31.84,5.276 31.841,5.271 		"/>
		<polygon class="st1" points="31.838,5.205 31.837,5.205 31.837,5.224 31.834,5.244 31.83,5.261 31.829,5.268 31.841,5.271 
			31.842,5.264 31.845,5.246 31.848,5.224 31.852,5.205 31.85,5.205 		"/>
		<polygon class="st1" points="31.72,5.107 31.72,5.108 31.743,5.109 31.764,5.115 31.784,5.124 31.8,5.135 31.815,5.15 
			31.826,5.166 31.835,5.184 31.838,5.205 31.85,5.205 31.846,5.183 31.838,5.161 31.825,5.142 31.808,5.125 31.789,5.112 
			31.768,5.103 31.745,5.097 31.72,5.094 31.72,5.095 		"/>
		<polygon class="st1" points="31.295,5.154 31.305,5.161 31.315,5.155 31.327,5.149 31.345,5.143 31.367,5.137 31.39,5.132 
			31.416,5.127 31.445,5.122 31.474,5.118 31.505,5.113 31.536,5.111 31.567,5.108 31.601,5.106 31.632,5.106 31.663,5.106 
			31.693,5.106 31.72,5.107 31.72,5.095 31.693,5.094 31.663,5.092 31.632,5.092 31.601,5.094 31.567,5.096 31.536,5.099 
			31.505,5.102 31.474,5.106 31.443,5.109 31.414,5.115 31.388,5.12 31.364,5.125 31.343,5.131 31.324,5.137 31.309,5.143 
			31.297,5.15 31.307,5.157 		"/>
		<polygon class="st1" points="31.368,4.91 31.364,4.916 31.295,5.154 31.307,5.157 31.376,4.917 31.372,4.922 31.368,4.91 
			31.365,4.912 31.364,4.916 		"/>
		<polygon class="st1" points="31.81,4.865 31.81,4.865 31.776,4.863 31.742,4.862 31.711,4.862 31.679,4.862 31.649,4.862 
			31.62,4.864 31.592,4.865 31.564,4.867 31.537,4.869 31.51,4.873 31.486,4.877 31.46,4.882 31.437,4.887 31.413,4.894 
			31.39,4.902 31.368,4.91 31.372,4.922 31.394,4.914 31.417,4.906 31.438,4.899 31.463,4.894 31.487,4.888 31.512,4.885 
			31.537,4.88 31.564,4.879 31.592,4.877 31.62,4.876 31.649,4.876 31.679,4.876 31.711,4.876 31.742,4.876 31.776,4.877 
			31.81,4.877 31.81,4.877 		"/>
		<polygon class="st1" points="32.15,5.201 32.15,5.201 32.155,5.161 32.155,5.123 32.148,5.088 32.137,5.055 32.122,5.024 
			32.101,4.997 32.077,4.973 32.052,4.95 32.024,4.932 31.994,4.914 31.963,4.899 31.932,4.888 31.899,4.879 31.868,4.872 
			31.837,4.867 31.81,4.865 31.81,4.877 31.837,4.879 31.866,4.884 31.897,4.891 31.928,4.899 31.959,4.912 31.988,4.925 
			32.018,4.941 32.044,4.96 32.07,4.982 32.091,5.005 32.111,5.031 32.125,5.059 32.136,5.09 32.143,5.123 32.143,5.161 
			32.138,5.199 32.138,5.199 		"/>
		<polygon class="st1" points="32.046,5.725 32.046,5.725 32.15,5.201 32.138,5.199 32.033,5.723 32.033,5.723 		"/>
		<polygon class="st4" points="31.8,5.464 31.798,5.459 31.794,5.454 31.787,5.451 31.777,5.448 31.766,5.447 31.753,5.446 
			31.738,5.446 31.723,5.447 31.708,5.449 31.692,5.451 31.676,5.453 31.661,5.455 31.646,5.458 31.633,5.46 31.62,5.463 
			31.611,5.464 31.604,5.466 31.596,5.469 31.586,5.472 31.575,5.475 31.562,5.482 31.549,5.488 31.536,5.494 31.523,5.504 
			31.51,5.512 31.497,5.523 31.486,5.534 31.475,5.547 31.467,5.561 31.46,5.576 31.454,5.592 31.451,5.608 31.449,5.642 
			31.455,5.669 31.463,5.689 31.475,5.704 31.49,5.714 31.506,5.719 31.523,5.723 31.54,5.723 31.57,5.723 31.597,5.719 
			31.623,5.715 31.646,5.708 31.668,5.7 31.687,5.691 31.704,5.681 31.72,5.669 31.734,5.658 31.746,5.645 31.757,5.634 
			31.766,5.62 31.773,5.608 31.778,5.597 31.782,5.585 31.785,5.574 31.789,5.546 31.794,5.517 31.798,5.49 		"/>
		<polygon class="st1" points="33.842,5.808 33.844,5.785 33.852,5.758 33.866,5.734 33.883,5.714 33.904,5.697 33.928,5.685 
			33.953,5.677 33.981,5.674 34.009,5.677 34.035,5.685 34.058,5.697 34.08,5.714 34.096,5.734 34.11,5.758 34.118,5.785 
			34.12,5.808 34.091,5.808 34.089,5.79 34.084,5.768 34.073,5.749 34.061,5.731 34.044,5.718 34.026,5.708 34.004,5.701 
			33.981,5.699 33.959,5.701 33.936,5.708 33.918,5.718 33.902,5.731 33.889,5.749 33.879,5.768 33.874,5.79 33.871,5.808 		"/>
		<polygon class="st1" points="33.932,5.808 33.932,5.749 33.986,5.749 33.998,5.749 34.009,5.752 34.017,5.754 34.024,5.758 
			34.029,5.764 34.033,5.771 34.035,5.777 34.036,5.784 34.035,5.793 34.033,5.8 34.03,5.806 34.028,5.808 33.986,5.808 
			33.99,5.807 33.997,5.806 34.003,5.804 34.008,5.802 34.012,5.799 34.014,5.796 34.016,5.791 34.016,5.784 34.015,5.779 
			34.013,5.775 34.01,5.773 34.007,5.771 34.002,5.771 33.997,5.77 33.992,5.77 33.986,5.77 33.956,5.77 33.956,5.808 		"/>
		<polygon class="st1" points="33.842,5.808 33.841,5.814 33.844,5.843 33.852,5.87 33.866,5.893 33.883,5.913 33.904,5.93 
			33.928,5.943 33.953,5.951 33.981,5.954 34.009,5.951 34.035,5.943 34.058,5.93 34.08,5.913 34.096,5.893 34.11,5.87 
			34.118,5.843 34.121,5.814 34.12,5.808 34.091,5.808 34.092,5.814 34.089,5.837 34.084,5.86 34.073,5.878 34.061,5.895 
			34.044,5.909 34.026,5.92 34.004,5.927 33.981,5.929 33.959,5.927 33.936,5.92 33.918,5.909 33.902,5.895 33.889,5.878 
			33.879,5.86 33.874,5.837 33.871,5.814 33.871,5.808 		"/>
		<polygon class="st1" points="33.932,5.808 33.932,5.868 33.956,5.868 33.956,5.819 33.981,5.819 34.011,5.868 34.031,5.868 
			34.001,5.819 34.008,5.819 34.015,5.817 34.021,5.815 34.026,5.811 34.028,5.808 33.986,5.808 33.981,5.809 33.956,5.809 
			33.956,5.808 		"/>
		<path class="st6" d="M33.841,5.814L33.841,5.814l0.003-0.029l0.008-0.027l0.014-0.024l0.017-0.02l0.02-0.017l0.024-0.012
			l0.026-0.008l0.028-0.003l0,0l0.028,0.003l0.025,0.008l0.024,0.012l0.02,0.017l0.017,0.02l0.013,0.024l0.008,0.027l0.003,0.029
			l0,0l-0.003,0.029L34.108,5.87l-0.013,0.024l-0.017,0.02l-0.02,0.017l-0.024,0.013l-0.025,0.008l-0.028,0.003l0,0l-0.027-0.004
			l-0.026-0.008L33.904,5.93l-0.02-0.017l-0.017-0.02l-0.014-0.024l-0.008-0.027L33.841,5.814 M33.956,5.868h-0.024v-0.12h0.054l0,0
			l0.012,0.001l0.011,0.002l0.008,0.003l0.007,0.004l0.005,0.006l0.004,0.006l0.002,0.007l0.001,0.007l0,0l-0.001,0.009L34.033,5.8
			L34.03,5.806l-0.005,0.006L34.02,5.816l-0.006,0.002L34.008,5.82h-0.007l0.03,0.05h-0.02l-0.03-0.05h-0.025L33.956,5.868
			 M33.981,5.809L33.981,5.809l0.009-0.002l0.007-0.001l0.006-0.002l0.005-0.002l0.004-0.003l0.002-0.003l0.002-0.005V5.784l0,0
			l-0.002-0.005V5.775l-0.003-0.002l-0.003-0.002L34.003,5.77l-0.005-0.001h-0.005h-0.006h-0.031v0.039L33.981,5.809 M33.981,5.929
			L33.981,5.929l0.023-0.002l0.022-0.007l0.019-0.011l0.016-0.014l0.013-0.017l0.01-0.019l0.006-0.022l0.002-0.024l0,0L34.09,5.789
			l-0.006-0.022l-0.01-0.02L34.061,5.73l-0.016-0.014l-0.019-0.009L34.004,5.7l-0.023-0.002l0,0L33.958,5.7l-0.022,0.007
			l-0.019,0.009L33.901,5.73l-0.013,0.017l-0.01,0.02l-0.004,0.022l-0.002,0.024l0,0l0.002,0.024l0.006,0.022l0.01,0.019
			l0.013,0.017l0.016,0.014l0.019,0.011l0.022,0.007L33.981,5.929"/>
		<polygon class="st1" points="32.114,5.944 32.394,5.944 32.394,5.944 32.494,5.379 32.498,5.358 32.504,5.336 32.51,5.314 
			32.517,5.292 32.528,5.271 32.539,5.25 32.552,5.23 32.569,5.211 32.586,5.194 32.606,5.178 32.628,5.163 32.654,5.151 
			32.684,5.142 32.715,5.134 32.75,5.128 32.788,5.125 32.802,5.125 32.81,5.125 32.813,5.125 32.813,5.125 32.857,4.871 
			32.83,4.873 32.803,4.876 32.779,4.88 32.754,4.888 32.733,4.895 32.712,4.906 32.692,4.917 32.673,4.928 32.655,4.943 
			32.639,4.956 32.623,4.973 32.607,4.988 32.592,5.005 32.577,5.024 32.562,5.042 32.548,5.061 32.578,4.882 32.299,4.882 		"/>
		<polyline class="st6" points="32.114,5.944 32.394,5.944 32.394,5.944 32.494,5.379 32.494,5.379 32.498,5.358 32.504,5.336 
			32.51,5.314 32.517,5.292 32.528,5.271 32.539,5.25 32.552,5.23 32.569,5.211 32.586,5.194 32.606,5.178 32.628,5.163 
			32.654,5.151 32.684,5.142 32.715,5.134 32.75,5.128 32.788,5.125 32.788,5.125 32.802,5.125 32.81,5.125 32.813,5.125 
			32.813,5.125 32.857,4.871 32.857,4.871 32.83,4.873 32.803,4.876 32.779,4.88 32.754,4.888 32.733,4.895 32.712,4.906 
			32.692,4.917 32.673,4.928 32.655,4.943 32.639,4.956 32.623,4.973 32.607,4.988 32.592,5.005 32.577,5.024 32.562,5.042 
			32.548,5.061 32.578,4.882 32.299,4.882 32.114,5.944 32.114,5.944 		"/>
		<polygon class="st1" points="29.488,5.944 29.768,5.944 29.773,5.944 29.868,5.379 29.872,5.358 29.877,5.337 29.882,5.316 
			29.889,5.296 29.897,5.276 29.907,5.257 29.919,5.24 29.933,5.223 29.949,5.208 29.967,5.193 29.988,5.181 30.012,5.17 
			30.04,5.161 30.071,5.154 30.104,5.149 30.143,5.146 30.146,5.146 30.15,5.146 30.155,5.147 30.159,5.147 30.165,5.149 
			30.169,5.15 30.171,5.15 30.173,5.15 30.174,5.146 30.177,5.135 30.181,5.117 30.185,5.095 30.193,5.069 30.2,5.042 30.208,5.013 
			30.217,4.986 30.226,4.967 30.235,4.948 30.245,4.929 30.255,4.913 30.264,4.898 30.27,4.886 30.276,4.879 30.278,4.876 
			30.277,4.876 30.273,4.875 30.267,4.874 30.261,4.873 30.254,4.873 30.246,4.872 30.239,4.871 30.232,4.871 30.201,4.873 
			30.174,4.876 30.148,4.88 30.124,4.887 30.101,4.895 30.081,4.905 30.062,4.914 30.044,4.926 30.026,4.939 30.011,4.954 
			29.997,4.969 29.981,4.986 29.967,5.002 29.952,5.022 29.938,5.042 29.923,5.061 29.959,4.882 29.674,4.882 		"/>
		<polyline class="st6" points="29.488,5.944 29.768,5.944 29.773,5.944 29.868,5.379 29.868,5.379 29.872,5.358 29.877,5.337 
			29.882,5.316 29.889,5.296 29.897,5.276 29.907,5.257 29.919,5.24 29.933,5.223 29.949,5.208 29.967,5.193 29.988,5.181 
			30.012,5.17 30.04,5.161 30.071,5.154 30.104,5.149 30.143,5.146 30.143,5.146 30.146,5.146 30.15,5.146 30.155,5.147 
			30.159,5.147 30.165,5.149 30.169,5.15 30.171,5.15 30.173,5.15 30.173,5.15 30.174,5.146 30.177,5.135 30.181,5.117 
			30.185,5.095 30.193,5.069 30.2,5.042 30.208,5.013 30.217,4.986 30.217,4.986 30.226,4.967 30.235,4.948 30.245,4.929 
			30.255,4.913 30.264,4.898 30.27,4.886 30.276,4.879 30.278,4.876 30.278,4.876 30.277,4.876 30.273,4.875 30.267,4.874 
			30.261,4.873 30.254,4.873 30.246,4.872 30.239,4.871 30.232,4.871 30.232,4.871 30.201,4.873 30.174,4.876 30.148,4.88 
			30.124,4.887 30.101,4.895 30.081,4.905 30.062,4.914 30.044,4.926 30.026,4.939 30.011,4.954 29.997,4.969 29.981,4.986 
			29.967,5.002 29.952,5.022 29.938,5.042 29.923,5.061 29.959,4.882 29.674,4.882 29.488,5.944 29.488,5.944 		"/>
		<polygon class="st4" points="33.844,6.987 33.844,6.983 33.852,6.957 33.866,6.935 33.883,6.915 33.904,6.898 33.928,6.887 
			33.953,6.88 33.981,6.877 34.009,6.88 34.035,6.887 34.058,6.898 34.08,6.915 34.096,6.935 34.11,6.957 34.118,6.983 
			34.118,6.987 34.089,6.987 34.084,6.966 34.073,6.947 34.061,6.931 34.044,6.917 34.026,6.906 34.004,6.898 33.981,6.897 
			33.959,6.898 33.936,6.906 33.918,6.917 33.902,6.931 33.889,6.947 33.879,6.966 33.874,6.987 		"/>
		<polygon class="st4" points="33.932,6.987 33.932,6.953 33.986,6.953 33.998,6.953 34.009,6.954 34.017,6.956 34.024,6.96 
			34.029,6.965 34.033,6.971 34.035,6.978 34.036,6.987 34.016,6.987 34.016,6.982 34.015,6.977 34.013,6.973 34.01,6.971 
			34.007,6.969 34.002,6.968 33.997,6.967 33.992,6.967 33.986,6.967 33.956,6.967 33.956,6.987 		"/>
		<polygon class="st4" points="33.841,7.009 33.844,6.987 33.874,6.987 33.874,6.988 33.871,7.009 		"/>
		<polygon class="st4" points="33.932,7.009 33.932,6.987 33.956,6.987 33.956,7.007 33.981,7.007 33.99,7.005 33.997,7.004 
			34.003,7.002 34.008,7 34.012,6.997 34.014,6.994 34.016,6.989 34.016,6.987 34.036,6.987 34.036,6.987 34.035,6.994 34.033,7 
			34.03,7.005 34.026,7.009 		"/>
		<polygon class="st4" points="34.092,7.009 34.089,6.988 34.089,6.987 34.118,6.987 34.121,7.009 		"/>
		<polygon class="st4" points="33.841,7.009 33.841,7.012 33.844,7.04 33.852,7.067 33.866,7.091 33.883,7.112 33.904,7.129 
			33.928,7.141 33.953,7.149 33.981,7.152 34.009,7.149 34.035,7.141 34.058,7.129 34.08,7.112 34.096,7.091 34.11,7.067 
			34.118,7.04 34.121,7.012 34.121,7.009 34.092,7.009 34.092,7.012 34.089,7.035 34.084,7.057 34.073,7.076 34.061,7.093 
			34.044,7.107 34.026,7.118 34.004,7.125 33.981,7.127 33.959,7.125 33.936,7.118 33.918,7.107 33.902,7.093 33.889,7.076 
			33.879,7.057 33.874,7.035 33.871,7.012 33.871,7.009 		"/>
		<polygon class="st4" points="33.932,7.009 33.932,7.066 33.956,7.066 33.956,7.016 33.981,7.016 34.011,7.066 34.031,7.066 
			34.001,7.016 34.008,7.016 34.015,7.015 34.021,7.013 34.026,7.009 34.026,7.009 		"/>
		<path class="st1" d="M29.519,5.198l-0.008-0.059l-0.014-0.053L29.478,5.04l-0.024-0.039l-0.031-0.034l-0.032-0.028l-0.035-0.024
			l-0.039-0.018l-0.04-0.015l-0.041-0.01l-0.04-0.007l-0.042-0.003l-0.039-0.001l-0.08,0.004l-0.071,0.012l-0.065,0.018L28.842,4.92
			l-0.05,0.03l-0.043,0.034L28.71,5.022l-0.032,0.039l-0.027,0.041l-0.023,0.043l-0.017,0.042L28.595,5.23l-0.011,0.042
			l-0.008,0.039L28.57,5.348l-0.004,0.031L28.561,5.46l0.003,0.073L28.575,5.6l0.017,0.058l0.024,0.053l0.028,0.046l0.034,0.041
			l0.039,0.034l0.042,0.029l0.045,0.024l0.046,0.019l0.049,0.015l0.05,0.012l0.05,0.007l0.05,0.005l0.049,0.001h0.032l0.031-0.001
			h0.027l0.026-0.001l0.023-0.002l0.02-0.002l0.02-0.002l0.018-0.003l0.017-0.003l0.016-0.004l0.016-0.005l0.015-0.005l0.015-0.006
			l0.016-0.006l0.016-0.008l0.016-0.008l0.04-0.244l-0.033,0.018l-0.028,0.016L29.372,5.69l-0.028,0.011L29.317,5.71l-0.028,0.006
			l-0.025,0.003l-0.027,0.004L29.21,5.725l-0.025,0.001h-0.027l-0.025-0.001l-0.026-0.002L29.081,5.72l-0.024-0.003l-0.026-0.004
			l-0.02-0.004l-0.02-0.006l-0.02-0.009l-0.017-0.011l-0.018-0.012L28.92,5.656l-0.016-0.014l-0.013-0.017l-0.012-0.017
			l-0.011-0.019L28.86,5.571l-0.007-0.019l-0.005-0.019l-0.001-0.019l0.001-0.017l0.002-0.013h0.643l0.005-0.061l0.015-0.083
			l0.007-0.076L29.519,5.198z M29.25,5.289h-0.362V5.288h-0.001l0.002-0.014l0.004-0.02l0.006-0.02l0.007-0.02l0.009-0.018
			l0.009-0.017l0.011-0.016l0.012-0.015l0.013-0.014l0.013-0.012l0.015-0.011l0.015-0.009l0.017-0.008l0.017-0.006l0.017-0.004
			l0.017-0.003L29.09,5.08l0.017,0.002l0.017,0.005l0.016,0.004l0.016,0.006l0.015,0.008l0.017,0.009l0.013,0.01l0.012,0.012
			l0.01,0.014l0.01,0.015l0.007,0.017l0.007,0.019l0.004,0.02l0.002,0.022l0.001,0.024L29.25,5.289z"/>
	</g>
</g>
<g>
	<path class="st7" d="M77.713,9.78c0,0.301-0.245,0.546-0.546,0.546H61.875c-0.301,0-0.546-0.245-0.546-0.546V0.631
		c0-0.301,0.245-0.546,0.546-0.546h15.292c0.301,0,0.546,0.245,0.546,0.546V9.78z"/>
	<g>
		<path class="st1" d="M66.412,4.967V4.803l-0.078,0.164h-0.678L65.57,4.792v0.176h-1.268l-0.15-0.355h-0.254l-0.159,0.355h-0.657
			v-1.07l0.482-1.091h0.923l0.13,0.309V2.808h1.129l0.248,0.52l0.243-0.523H69.8c0,0,0.187-0.002,0.31,0.084l-0.001-0.084h0.897
			v0.118c0,0,0.161-0.118,0.4-0.118c0.238,0,1.584,0,1.584,0l0.139,0.313V2.806h1.015l0.184,0.313V2.806h0.97v2.163h-0.997
			l-0.234-0.377v0.375h-1.239l-0.174-0.386h-0.243l-0.163,0.386h-0.75c0,0-0.279-0.004-0.49-0.153c0,0.079,0,0.153,0,0.153h-1.494
			c0,0,0-0.431,0-0.504s-0.056-0.068-0.056-0.068h-0.054v0.573C69.405,4.967,66.412,4.967,66.412,4.967z"/>
		<path class="st1" d="M65.667,5.435h1.961l0.283,0.32l0.29-0.32h1.508c0,0,0.142,0.004,0.276,0.076V5.435c0,0,1.173,0,1.343,0
			c0.171,0,0.313,0.085,0.313,0.085V5.435h1.726v0.079c0,0,0.123-0.079,0.288-0.079s1.125,0,1.125,0v0.079
			c0,0,0.142-0.079,0.291-0.079c0.15,0,0.883,0,0.883,0v2.038c0,0-0.116,0.131-0.357,0.131h-1.163V7.539
			c0,0-0.111,0.065-0.279,0.065s-3.092,0-3.092,0s0-0.475,0-0.527s-0.023-0.061-0.068-0.061h-0.042v0.588h-0.966V7.019
			c0,0-0.107,0.057-0.286,0.057s-0.348,0-0.348,0v0.527h-1.192L67.89,7.272L67.6,7.603h-1.933V5.435L65.667,5.435z"/>
		<polygon class="st7" points="71.849,5.76 73.08,5.76 73.08,6.091 72.226,6.091 72.226,6.379 73.056,6.379 73.056,6.669 
			72.226,6.669 72.226,6.972 73.08,6.972 73.08,7.294 71.849,7.294 		"/>
		<path class="st7" d="M75.459,6.359c0.463,0.024,0.501,0.255,0.501,0.501c0,0.287-0.236,0.442-0.482,0.442h-0.792v-0.33h0.616
			c0.105,0,0.261,0,0.261-0.147c0-0.07-0.028-0.115-0.139-0.126c-0.05-0.007-0.232-0.017-0.261-0.018
			c-0.418-0.011-0.516-0.219-0.516-0.472c0-0.287,0.202-0.445,0.449-0.445h0.791v0.329h-0.578c-0.131,0.002-0.274-0.016-0.274,0.133
			c0,0.094,0.07,0.113,0.159,0.122C75.226,6.347,75.431,6.359,75.459,6.359z"/>
		<path class="st7" d="M74.04,6.359c0.463,0.024,0.501,0.255,0.501,0.501c0,0.287-0.236,0.442-0.482,0.442h-0.79v-0.33h0.616
			c0.105,0,0.261,0,0.261-0.147c0-0.07-0.028-0.115-0.139-0.126c-0.05-0.007-0.233-0.017-0.26-0.018
			c-0.419-0.011-0.516-0.219-0.516-0.472c0-0.287,0.201-0.445,0.449-0.445h0.791v0.329h-0.578c-0.132,0.002-0.274-0.016-0.274,0.133
			c0,0.094,0.07,0.113,0.16,0.122C73.808,6.347,74.013,6.359,74.04,6.359z"/>
		<path class="st7" d="M69.576,5.764h-1.321L67.824,6.24l-0.417-0.479h-1.484v1.534h1.436l0.452-0.507l0.442,0.51h0.723V6.777h0.506
			c0.195,0,0.552-0.006,0.552-0.544C70.032,5.849,69.761,5.764,69.576,5.764z M67.162,6.972h-0.868V6.669h0.83V6.378h-0.83V6.091
			l0.915,0.002l0.367,0.417L67.162,6.972z M68.6,7.15l-0.541-0.64L68.6,5.911V7.15z M69.449,6.462H68.98V6.093h0.471
			c0.157,0,0.208,0.101,0.208,0.176C69.658,6.372,69.604,6.462,69.449,6.462z"/>
		<path class="st7" d="M71.395,6.599c0.205-0.102,0.261-0.239,0.261-0.424c0-0.328-0.267-0.411-0.452-0.411h-0.979v1.534h0.376
			V6.757h0.493c0.13,0,0.181,0.13,0.185,0.261l0.01,0.281h0.367l-0.014-0.315C71.641,6.736,71.574,6.62,71.395,6.599z M71.07,6.44
			h-0.469V6.093h0.471c0.157,0,0.207,0.101,0.207,0.176C71.279,6.372,71.224,6.44,71.07,6.44z"/>
		<rect x="70.375" y="3.114" class="st7" width="0.376" height="1.536"/>
		<polygon class="st7" points="67.293,3.115 68.523,3.115 68.523,3.445 67.669,3.445 67.669,3.733 68.499,3.733 68.499,4.024 
			67.669,4.024 67.669,4.326 68.523,4.326 68.523,4.648 67.293,4.648 		"/>
		<path class="st7" d="M69.918,3.95c0.205-0.102,0.261-0.239,0.261-0.424c0-0.329-0.267-0.411-0.452-0.411h-0.979v1.533h0.376v-0.54
			h0.493c0.13,0,0.182,0.13,0.185,0.26l0.01,0.281h0.367l-0.013-0.315C70.164,4.087,70.096,3.971,69.918,3.95z M69.593,3.791h-0.469
			V3.444h0.471c0.157,0,0.207,0.101,0.207,0.176C69.801,3.723,69.746,3.791,69.593,3.791z"/>
		<path class="st7" d="M66.425,3.115l-0.462,1.029l-0.46-1.029h-0.59v1.477l-0.657-1.477h-0.498l-0.672,1.533h0.397l0.147-0.342
			h0.752l0.149,0.342h0.758V3.51l0.504,1.138h0.342l0.516-1.119v1.119h0.376V3.115H66.425z M63.772,3.975l0.224-0.536l0.234,0.536
			H63.772z"/>
		<path class="st7" d="M74.637,3.114v1.062l-0.635-1.062h-0.556v1.44l-0.641-1.44h-0.498l-0.519,1.188c0,0-0.219,0-0.242-0.006
			c-0.091-0.019-0.232-0.083-0.235-0.353v-0.11c0-0.36,0.195-0.386,0.445-0.386h0.232V3.114h-0.491c-0.172,0-0.544,0.131-0.556,0.76
			c-0.009,0.424,0.176,0.774,0.594,0.774h0.497l0.147-0.342h0.752l0.149,0.342h0.743V3.526l0.678,1.123h0.514V3.114H74.637z
			 M72.325,3.976l0.224-0.536l0.236,0.536C72.785,3.976,72.325,3.976,72.325,3.976z"/>
	</g>
</g>
<g>
	<path class="st1" d="M58.143,9.78c0,0.301-0.245,0.546-0.546,0.546H42.304c-0.301,0-0.546-0.245-0.546-0.546V0.631
		c0-0.302,0.245-0.546,0.546-0.546h15.292c0.301,0,0.546,0.245,0.546,0.546L58.143,9.78L58.143,9.78z"/>
	<path class="st8" d="M46.262,10.326h11.335c0.301,0,0.546-0.245,0.546-0.546V5.945C57.055,6.635,52.954,9.012,46.262,10.326z"/>
	<g>
		
			<radialGradient id="SVGID_1_" cx="43.7335" cy="462.877" r="0.8073" gradientTransform="matrix(1 0 0 -1 6.416 468.083)" gradientUnits="userSpaceOnUse">
			<stop  offset="0.0056" style="stop-color:#FFEEE1"/>
			<stop  offset="0.0966" style="stop-color:#FFEAD8"/>
			<stop  offset="0.2452" style="stop-color:#FEDDC2"/>
			<stop  offset="0.4329" style="stop-color:#FCCA9F"/>
			<stop  offset="0.6522" style="stop-color:#F9AF72"/>
			<stop  offset="0.8954" style="stop-color:#F68F39"/>
			<stop  offset="1" style="stop-color:#F48220"/>
		</radialGradient>
		<path class="st9" d="M50.151,4.408c-0.452,0-0.818,0.353-0.818,0.788c0,0.463,0.35,0.808,0.818,0.808
			c0.456,0,0.815-0.35,0.815-0.8C50.966,4.758,50.608,4.408,50.151,4.408z"/>
		<path class="st10" d="M45.508,4.437h-0.439V5.97h0.438c0.232,0,0.4-0.055,0.547-0.177c0.175-0.145,0.278-0.364,0.278-0.589
			C46.332,4.751,45.994,4.437,45.508,4.437z M45.859,5.588c-0.094,0.085-0.216,0.122-0.41,0.122h-0.08V4.696h0.08
			c0.194,0,0.311,0.035,0.41,0.124c0.103,0.092,0.164,0.235,0.164,0.382S45.962,5.497,45.859,5.588z"/>
		<rect x="46.47" y="4.437" class="st10" width="0.298" height="1.533"/>
		<path class="st10" d="M47.5,5.024c-0.179-0.066-0.232-0.11-0.232-0.193c0-0.097,0.094-0.17,0.223-0.17
			c0.09,0,0.163,0.037,0.242,0.124l0.156-0.204C47.76,4.468,47.606,4.41,47.438,4.41c-0.271,0-0.478,0.189-0.478,0.439
			c0,0.212,0.097,0.32,0.377,0.421c0.117,0.042,0.177,0.069,0.207,0.087c0.06,0.039,0.09,0.094,0.09,0.158
			c0,0.124-0.098,0.216-0.232,0.216c-0.142,0-0.257-0.071-0.327-0.205l-0.193,0.187c0.138,0.202,0.303,0.292,0.531,0.292
			c0.31,0,0.529-0.207,0.529-0.504C47.941,5.26,47.84,5.149,47.5,5.024z"/>
		<path class="st10" d="M48.036,5.204c0,0.451,0.354,0.8,0.81,0.8c0.129,0,0.239-0.025,0.375-0.09V5.563
			c-0.12,0.12-0.226,0.168-0.361,0.168c-0.301,0-0.516-0.218-0.516-0.529c0-0.294,0.22-0.527,0.501-0.527
			c0.142,0,0.25,0.051,0.375,0.172V4.496c-0.131-0.067-0.239-0.094-0.368-0.094C48.398,4.402,48.036,4.758,48.036,5.204z"/>
		<polygon class="st10" points="51.643,5.467 51.233,4.437 50.907,4.437 51.558,6.009 51.719,6.009 52.381,4.437 52.057,4.437 		"/>
		<polygon class="st10" points="52.517,5.97 53.365,5.97 53.365,5.71 52.815,5.71 52.815,5.296 53.344,5.296 53.344,5.036 
			52.815,5.036 52.815,4.696 53.365,4.696 53.365,4.437 52.517,4.437 		"/>
		<path class="st10" d="M54.549,4.889c0-0.287-0.198-0.453-0.542-0.453h-0.444v1.533h0.299V5.353h0.039l0.414,0.616h0.368
			L54.2,5.323C54.425,5.278,54.549,5.124,54.549,4.889z M53.949,5.143h-0.087V4.678h0.092c0.187,0,0.287,0.079,0.287,0.227
			C54.241,5.059,54.14,5.143,53.949,5.143z"/>
		<path class="st11" d="M54.76,4.551c0-0.027-0.018-0.042-0.051-0.042h-0.043v0.135h0.032V4.592l0.038,0.053h0.04l-0.045-0.056
			C54.749,4.584,54.76,4.57,54.76,4.551z M54.703,4.569h-0.006V4.534h0.006c0.017,0,0.024,0.006,0.024,0.017
			S54.719,4.569,54.703,4.569z"/>
		<path class="st11" d="M54.715,4.459c-0.065,0-0.118,0.053-0.118,0.118s0.053,0.118,0.118,0.118c0.064,0,0.116-0.053,0.116-0.118
			S54.78,4.459,54.715,4.459z M54.715,4.673c-0.052,0-0.094-0.042-0.094-0.097c0-0.054,0.042-0.097,0.094-0.097
			c0.051,0,0.093,0.043,0.093,0.097C54.808,4.63,54.766,4.673,54.715,4.673z"/>
	</g>
</g>
</svg>
