<?xml version="1.0" encoding="utf-8"?>
<!-- Generator: Adobe Illustrator 21.1.0, SVG Export Plug-In . SVG Version: 6.00 Build 0)  -->
<svg version="1.1" id="Layer_1" xmlns="http://www.w3.org/2000/svg" xmlns:xlink="http://www.w3.org/1999/xlink" x="0px" y="0px"
	 viewBox="0 0 100 15" style="enable-background:new 0 0 100 15;" xml:space="preserve">
<style type="text/css">
	.st0{fill:#3A58A8;}
	.st1{fill:#FFFFFF;}
	.st2{fill:#FAA634;}
	.st3{fill:#14477C;}
	.st4{fill:#FBB22F;}
	.st5{fill:#EB2030;}
	.st6{fill:none;stroke:#FFFFFF;stroke-width:0.216;stroke-miterlimit:2.6131;}
	.st7{fill:#0078A9;}
	.st8{fill:#E5E6E6;}
	.st9{fill:#F58220;}
	.st10{fill:url(#SVGID_1_);}
	.st11{fill:#091A23;}
	.st12{fill:#231F20;}
</style>
<g>
	<path class="st0" d="M17.061,13.348c0,0.301-0.245,0.546-0.546,0.546H1.222c-0.301,0-0.546-0.245-0.546-0.546V4.199
		c0-0.301,0.245-0.546,0.546-0.546h15.292c0.301,0,0.546,0.245,0.546,0.546L17.061,13.348L17.061,13.348z"/>
	<g>
		<polygon class="st1" points="8.217,10.311 7.416,10.311 7.916,7.237 8.716,7.237 		"/>
		<path class="st1" d="M6.743,7.237L5.979,9.352l-0.09-0.456l0,0L5.62,7.514c0,0-0.032-0.277-0.379-0.277H3.978L3.964,7.289
			c0,0,0.386,0.08,0.837,0.351l0.695,2.67h0.834l1.273-3.074L6.743,7.237L6.743,7.237z"/>
		<path class="st1" d="M13.038,10.311h0.735l-0.641-3.074h-0.644c-0.298,0-0.37,0.229-0.37,0.229l-1.193,2.845h0.834l0.167-0.456
			h1.018L13.038,10.311z M12.157,9.224l0.42-1.151l0.237,1.151H12.157z"/>
		<path class="st1" d="M10.989,7.976l0.114-0.66c0,0-0.353-0.134-0.719-0.134c-0.397,0-1.34,0.174-1.34,1.018
			c0,0.794,1.107,0.804,1.107,1.221c0,0.417-0.993,0.342-1.321,0.079l-0.119,0.69c0,0,0.357,0.174,0.904,0.174
			c0.546,0,1.37-0.283,1.37-1.052c0-0.8-1.117-0.874-1.117-1.221C9.866,7.743,10.646,7.788,10.989,7.976z"/>
	</g>
	<path class="st2" d="M5.889,8.897L5.62,7.514c0,0-0.032-0.277-0.379-0.277H3.978L3.964,7.289c0,0,0.606,0.126,1.188,0.597
		C5.708,8.336,5.889,8.897,5.889,8.897z"/>
</g>
<g>
	<path class="st3" d="M38.263,13.348c0,0.301-0.245,0.546-0.546,0.546H22.424c-0.301,0-0.546-0.244-0.546-0.546V4.199
		c0-0.301,0.245-0.546,0.546-0.546h15.292c0.301,0,0.546,0.245,0.546,0.546V13.348z"/>
	<g>
		<polygon class="st4" points="32.037,11.713 32.188,11.709 32.338,11.698 32.484,11.679 32.631,11.653 32.772,11.621 
			32.912,11.581 33.049,11.534 33.182,11.482 33.314,11.423 33.441,11.358 33.563,11.287 33.684,11.21 33.799,11.128 33.91,11.041 
			34.017,10.949 34.119,10.851 34.217,10.748 34.309,10.641 34.397,10.53 34.479,10.415 34.555,10.295 34.627,10.172 34.691,10.045 
			34.75,9.915 34.803,9.78 34.849,9.643 34.89,9.504 34.922,9.362 34.948,9.217 34.967,9.069 34.978,8.92 34.982,8.768 
			34.978,8.618 34.967,8.469 34.948,8.322 34.922,8.178 34.89,8.036 34.849,7.898 34.803,7.761 34.75,7.628 34.691,7.498 
			34.627,7.371 34.555,7.249 34.479,7.129 34.397,7.014 34.309,6.904 34.217,6.797 34.119,6.695 34.017,6.597 33.91,6.505 
			33.799,6.418 33.684,6.336 33.563,6.26 33.441,6.189 33.314,6.125 33.182,6.065 33.049,6.013 32.912,5.966 32.772,5.926 
			32.631,5.894 32.484,5.868 32.338,5.849 32.188,5.838 32.037,5.834 31.886,5.838 31.736,5.849 31.589,5.868 31.445,5.894 
			31.303,5.926 31.163,5.966 31.027,6.013 30.893,6.065 30.763,6.125 30.637,6.189 30.514,6.26 30.396,6.336 30.281,6.418 
			30.17,6.505 30.063,6.597 29.961,6.695 29.864,6.797 29.772,6.904 29.685,7.014 29.603,7.129 29.527,7.249 29.457,7.371 
			29.391,7.498 29.332,7.628 29.28,7.761 29.235,7.898 29.194,8.036 29.161,8.178 29.136,8.322 29.117,8.469 29.106,8.618 
			29.102,8.768 29.106,8.92 29.117,9.069 29.136,9.217 29.161,9.362 29.194,9.504 29.235,9.643 29.28,9.78 29.332,9.915 
			29.391,10.045 29.457,10.172 29.527,10.295 29.603,10.415 29.685,10.53 29.772,10.641 29.864,10.748 29.961,10.851 30.063,10.949 
			30.17,11.041 30.281,11.128 30.396,11.21 30.514,11.287 30.637,11.358 30.763,11.423 30.893,11.482 31.027,11.534 31.163,11.581 
			31.303,11.621 31.445,11.653 31.589,11.679 31.736,11.698 31.886,11.709 32.037,11.713 		"/>
		<polygon class="st5" points="28.104,11.713 28.255,11.709 28.404,11.698 28.551,11.679 28.696,11.653 28.838,11.621 
			28.977,11.581 29.113,11.534 29.247,11.482 29.377,11.423 29.503,11.358 29.626,11.287 29.745,11.21 29.86,11.128 29.971,11.041 
			30.078,10.949 30.179,10.851 30.277,10.748 30.369,10.641 30.456,10.53 30.537,10.415 30.614,10.295 30.684,10.172 30.75,10.045 
			30.808,9.915 30.861,9.78 30.906,9.643 30.946,9.504 30.979,9.362 31.004,9.217 31.024,9.069 31.034,8.92 31.038,8.768 
			31.034,8.618 31.024,8.469 31.004,8.322 30.979,8.178 30.946,8.036 30.906,7.898 30.861,7.761 30.808,7.628 30.75,7.498 
			30.684,7.371 30.614,7.249 30.537,7.129 30.456,7.014 30.369,6.904 30.277,6.797 30.179,6.695 30.078,6.597 29.971,6.505 
			29.86,6.418 29.745,6.336 29.626,6.26 29.503,6.189 29.377,6.125 29.247,6.065 29.113,6.013 28.977,5.966 28.838,5.926 
			28.696,5.894 28.551,5.868 28.404,5.849 28.255,5.838 28.104,5.834 27.953,5.838 27.802,5.849 27.656,5.868 27.51,5.894 
			27.369,5.926 27.228,5.966 27.092,6.013 26.958,6.065 26.827,6.125 26.7,6.189 26.577,6.26 26.457,6.336 26.341,6.418 
			26.23,6.505 26.123,6.597 26.022,6.695 25.924,6.797 25.831,6.904 25.744,7.014 25.661,7.129 25.585,7.249 25.514,7.371 
			25.45,7.498 25.39,7.628 25.338,7.761 25.291,7.898 25.251,8.036 25.218,8.178 25.192,8.322 25.173,8.469 25.162,8.618 
			25.159,8.768 25.162,8.92 25.173,9.069 25.192,9.217 25.218,9.362 25.251,9.504 25.291,9.643 25.338,9.78 25.39,9.915 
			25.45,10.045 25.514,10.172 25.585,10.295 25.661,10.415 25.744,10.53 25.831,10.641 25.924,10.748 26.022,10.851 26.123,10.949 
			26.23,11.041 26.341,11.128 26.457,11.21 26.577,11.287 26.7,11.358 26.827,11.423 26.958,11.482 27.092,11.534 27.228,11.581 
			27.369,11.621 27.51,11.653 27.656,11.679 27.802,11.698 27.953,11.709 28.104,11.713 		"/>
		<polygon class="st4" points="29.727,6.962 31.288,6.962 31.288,6.802 29.861,6.802 29.727,6.962 		"/>
		<polygon class="st4" points="29.492,7.317 31.288,7.317 31.288,7.157 29.586,7.157 29.492,7.317 		"/>
		<polygon class="st4" points="29.317,7.67 31.288,7.67 31.288,7.511 29.387,7.511 29.317,7.67 		"/>
		<polygon class="st4" points="29.198,8.025 31.288,8.025 31.288,7.866 29.247,7.866 29.198,8.025 		"/>
		<polygon class="st4" points="29.267,9.741 31.293,9.741 31.293,9.581 29.217,9.581 29.267,9.741 		"/>
		<polygon class="st4" points="29.416,10.096 31.293,10.096 31.293,9.936 29.342,9.936 29.416,10.096 		"/>
		<polygon class="st4" points="29.627,10.45 31.293,10.45 31.293,10.29 29.527,10.29 29.627,10.45 		"/>
		<polygon class="st4" points="29.916,10.805 31.293,10.805 31.293,10.644 29.777,10.644 29.916,10.805 		"/>
		<polygon class="st4" points="29.128,8.379 31.288,8.379 31.288,8.219 29.158,8.219 29.128,8.379 		"/>
		<polygon class="st4" points="30.444,9.387 31.268,9.387 31.268,9.227 30.473,9.227 30.444,9.387 		"/>
		<polygon class="st4" points="30.51,9.032 31.268,9.032 31.268,8.872 30.54,8.872 30.51,9.032 		"/>
		<polygon class="st4" points="29.073,8.872 29.287,8.872 29.287,9.032 29.083,9.032 29.073,8.872 		"/>
		<polygon class="st1" points="28.673,8.679 28.659,8.677 28.645,8.676 28.633,8.674 28.62,8.672 28.607,8.67 28.595,8.668 
			28.582,8.666 28.568,8.664 28.554,8.662 28.538,8.661 28.521,8.66 28.502,8.659 28.481,8.659 28.458,8.66 28.432,8.662 
			28.404,8.664 28.384,8.667 28.365,8.67 28.348,8.676 28.333,8.681 28.319,8.688 28.307,8.696 28.296,8.707 28.288,8.715 
			28.282,8.726 28.276,8.737 28.274,8.749 28.274,8.761 28.278,8.774 28.282,8.787 28.289,8.799 28.299,8.813 28.319,8.832 
			28.343,8.847 28.37,8.859 28.4,8.87 28.432,8.881 28.465,8.891 28.498,8.903 28.529,8.916 28.559,8.932 28.587,8.954 
			28.612,8.978 28.633,9.009 28.648,9.047 28.659,9.091 28.662,9.145 28.659,9.207 28.651,9.254 28.64,9.295 28.624,9.332 
			28.603,9.365 28.581,9.394 28.555,9.419 28.527,9.44 28.496,9.459 28.465,9.474 28.432,9.487 28.399,9.497 28.364,9.505 
			28.33,9.511 28.297,9.514 28.264,9.516 28.234,9.516 28.191,9.516 28.152,9.516 28.117,9.516 28.084,9.515 28.054,9.514 
			28.027,9.512 28.004,9.509 27.981,9.507 27.96,9.505 27.942,9.501 27.923,9.498 27.905,9.493 27.889,9.489 27.873,9.483 
			27.857,9.477 27.84,9.471 27.885,9.252 27.894,9.254 27.905,9.257 27.919,9.261 27.935,9.265 27.953,9.269 27.973,9.272 
			27.995,9.278 28.019,9.282 28.043,9.286 28.069,9.29 28.096,9.293 28.123,9.295 28.152,9.297 28.182,9.298 28.21,9.298 
			28.239,9.297 28.267,9.291 28.29,9.283 28.308,9.272 28.322,9.258 28.332,9.244 28.34,9.228 28.345,9.213 28.349,9.198 
			28.351,9.169 28.342,9.144 28.325,9.124 28.3,9.107 28.271,9.092 28.236,9.077 28.197,9.063 28.159,9.047 28.119,9.03 
			28.081,9.009 28.046,8.984 28.015,8.953 27.99,8.915 27.972,8.87 27.964,8.817 27.964,8.753 27.969,8.714 27.976,8.677 
			27.986,8.644 27.998,8.612 28.014,8.583 28.031,8.557 28.052,8.532 28.077,8.511 28.106,8.492 28.137,8.475 28.174,8.461 
			28.213,8.45 28.258,8.441 28.307,8.434 28.359,8.43 28.418,8.429 28.455,8.429 28.489,8.43 28.519,8.431 28.548,8.432 
			28.572,8.434 28.595,8.436 28.614,8.438 28.633,8.44 28.649,8.442 28.663,8.445 28.677,8.447 28.688,8.448 28.698,8.451 
			28.707,8.452 28.716,8.454 28.724,8.455 28.673,8.679 		"/>
		<polyline class="st6" points="28.673,8.679 28.673,8.679 28.659,8.677 28.645,8.676 28.633,8.674 28.62,8.672 28.607,8.67 
			28.595,8.668 28.582,8.666 28.568,8.664 28.554,8.662 28.538,8.661 28.521,8.66 28.502,8.659 28.481,8.659 28.458,8.66 
			28.432,8.662 28.404,8.664 28.404,8.664 28.384,8.667 28.365,8.67 28.348,8.676 28.333,8.681 28.319,8.688 28.307,8.696 
			28.296,8.707 28.288,8.715 28.282,8.726 28.276,8.737 28.274,8.749 28.274,8.761 28.278,8.774 28.282,8.787 28.289,8.799 
			28.299,8.813 28.299,8.813 28.319,8.832 28.343,8.847 28.37,8.859 28.4,8.87 28.432,8.881 28.465,8.891 28.498,8.903 
			28.529,8.916 28.559,8.932 28.587,8.954 28.612,8.978 28.633,9.009 28.648,9.047 28.659,9.091 28.662,9.145 28.659,9.207 
			28.659,9.207 28.651,9.254 28.64,9.295 28.624,9.332 28.603,9.365 28.581,9.394 28.555,9.419 28.527,9.44 28.496,9.459 
			28.465,9.474 28.432,9.487 28.399,9.497 28.364,9.505 28.33,9.511 28.297,9.514 28.264,9.516 28.234,9.516 28.234,9.516 
			28.191,9.516 28.152,9.516 28.117,9.516 28.084,9.515 28.054,9.514 28.027,9.512 28.004,9.509 27.981,9.507 27.96,9.505 
			27.942,9.501 27.923,9.498 27.905,9.493 27.889,9.489 27.873,9.483 27.857,9.477 27.84,9.471 27.885,9.252 27.885,9.252 
			27.894,9.254 27.905,9.257 27.919,9.261 27.935,9.265 27.953,9.269 27.973,9.272 27.995,9.278 28.019,9.282 28.043,9.286 
			28.069,9.29 28.096,9.293 28.123,9.295 28.152,9.297 28.182,9.298 28.21,9.298 28.239,9.297 28.239,9.297 28.267,9.291 
			28.29,9.283 28.308,9.272 28.322,9.258 28.332,9.244 28.34,9.228 28.345,9.213 28.349,9.198 28.349,9.198 28.351,9.169 
			28.342,9.144 28.325,9.124 28.3,9.107 28.271,9.092 28.236,9.077 28.197,9.063 28.159,9.047 28.119,9.03 28.081,9.009 
			28.046,8.984 28.015,8.953 27.99,8.915 27.972,8.87 27.964,8.817 27.964,8.753 27.964,8.753 27.969,8.714 27.976,8.677 
			27.986,8.644 27.998,8.612 28.014,8.583 28.031,8.557 28.052,8.532 28.077,8.511 28.106,8.492 28.137,8.475 28.174,8.461 
			28.213,8.45 28.258,8.441 28.307,8.434 28.359,8.43 28.418,8.429 28.418,8.429 28.455,8.429 28.489,8.43 28.519,8.431 
			28.548,8.432 28.572,8.434 28.595,8.436 28.614,8.438 28.633,8.44 28.649,8.442 28.663,8.445 28.677,8.447 28.688,8.448 
			28.698,8.451 28.707,8.452 28.716,8.454 28.724,8.455 28.673,8.679 		"/>
		<polygon class="st1" points="28.908,8.21 29.183,8.21 29.143,8.45 29.308,8.45 29.272,8.674 29.098,8.669 29.002,9.222 
			29.002,9.242 29.006,9.259 29.016,9.272 29.029,9.283 29.047,9.29 29.067,9.295 29.088,9.299 29.113,9.302 29.134,9.301 
			29.154,9.298 29.172,9.295 29.188,9.291 29.201,9.287 29.209,9.285 29.216,9.283 29.217,9.282 29.183,9.466 29.176,9.471 
			29.169,9.475 29.161,9.479 29.155,9.483 29.148,9.486 29.14,9.489 29.132,9.492 29.122,9.495 29.113,9.498 29.102,9.5 
			29.091,9.502 29.079,9.504 29.065,9.506 29.05,9.508 29.035,9.509 29.018,9.512 28.943,9.512 28.903,9.509 28.869,9.505 
			28.837,9.499 28.81,9.492 28.787,9.483 28.769,9.473 28.751,9.461 28.739,9.448 28.729,9.435 28.721,9.417 28.717,9.401 
			28.714,9.382 28.713,9.361 28.713,9.339 28.716,9.317 28.718,9.291 28.908,8.21 		"/>
		<polyline class="st6" points="28.908,8.21 29.183,8.21 29.143,8.45 29.308,8.45 29.272,8.674 29.098,8.669 29.002,9.222 
			29.002,9.222 29.002,9.242 29.006,9.259 29.016,9.272 29.029,9.283 29.047,9.29 29.067,9.295 29.088,9.299 29.113,9.302 
			29.113,9.302 29.134,9.301 29.154,9.298 29.172,9.295 29.188,9.291 29.201,9.287 29.209,9.285 29.216,9.283 29.217,9.282 
			29.183,9.466 29.183,9.466 29.176,9.471 29.169,9.475 29.161,9.479 29.155,9.483 29.148,9.486 29.14,9.489 29.132,9.492 
			29.122,9.495 29.113,9.498 29.102,9.5 29.091,9.502 29.079,9.504 29.065,9.506 29.05,9.508 29.035,9.509 29.018,9.512 
			28.943,9.512 28.943,9.512 28.903,9.509 28.869,9.505 28.837,9.499 28.81,9.492 28.787,9.483 28.769,9.473 28.751,9.461 
			28.739,9.448 28.729,9.435 28.721,9.417 28.717,9.401 28.714,9.382 28.713,9.361 28.713,9.339 28.716,9.317 28.718,9.291 
			28.908,8.21 		"/>
		<polyline class="st6" points="29.527,9.047 29.527,9.047 29.524,9.065 29.523,9.082 29.524,9.101 29.529,9.12 29.536,9.139 
			29.544,9.157 29.554,9.176 29.567,9.192 29.58,9.21 29.595,9.224 29.611,9.239 29.629,9.251 29.646,9.262 29.667,9.271 
			29.686,9.278 29.706,9.282 29.706,9.282 29.732,9.286 29.756,9.289 29.782,9.291 29.808,9.294 29.834,9.295 29.861,9.295 
			29.887,9.294 29.914,9.291 29.941,9.287 29.967,9.283 29.995,9.276 30.022,9.268 30.049,9.257 30.078,9.245 30.106,9.229 
			30.135,9.213 30.095,9.457 30.095,9.457 30.079,9.465 30.063,9.472 30.048,9.478 30.033,9.484 30.018,9.489 30.002,9.494 
			29.986,9.498 29.969,9.501 29.951,9.504 29.931,9.506 29.911,9.508 29.888,9.509 29.862,9.511 29.835,9.511 29.804,9.512 
			29.772,9.512 29.772,9.512 29.723,9.511 29.674,9.506 29.624,9.499 29.575,9.487 29.526,9.472 29.479,9.454 29.435,9.428 
			29.393,9.4 29.354,9.366 29.32,9.325 29.292,9.28 29.268,9.227 29.251,9.169 29.24,9.102 29.237,9.029 29.243,8.947 29.243,8.947 
			29.246,8.916 29.252,8.879 29.26,8.84 29.271,8.799 29.286,8.756 29.304,8.714 29.327,8.67 29.354,8.629 29.386,8.589 
			29.424,8.551 29.468,8.517 29.518,8.488 29.575,8.463 29.64,8.445 29.712,8.433 29.792,8.429 29.792,8.429 29.83,8.43 
			29.871,8.434 29.911,8.441 29.952,8.451 29.992,8.466 30.03,8.484 30.067,8.507 30.099,8.535 30.129,8.569 30.154,8.608 
			30.174,8.654 30.187,8.707 30.195,8.766 30.196,8.833 30.189,8.909 30.174,8.992 30.17,9.053 29.446,9.053 29.492,8.857 
			29.926,8.857 29.926,8.857 29.929,8.833 29.927,8.809 29.926,8.787 29.922,8.767 29.915,8.748 29.908,8.731 29.897,8.717 
			29.888,8.703 29.876,8.691 29.863,8.681 29.849,8.672 29.833,8.664 29.818,8.658 29.801,8.654 29.785,8.652 29.767,8.649 
			29.767,8.649 29.748,8.65 29.73,8.653 29.713,8.657 29.697,8.663 29.679,8.671 29.664,8.68 29.649,8.691 29.637,8.703 
			29.624,8.717 29.612,8.731 29.601,8.748 29.592,8.764 29.583,8.782 29.576,8.802 29.571,8.822 29.567,8.843 29.527,9.047 		"/>
		<polygon class="st1" points="31.892,8.509 31.879,8.503 31.866,8.496 31.852,8.489 31.837,8.482 31.822,8.477 31.806,8.47 
			31.789,8.465 31.77,8.459 31.752,8.454 31.733,8.45 31.712,8.446 31.692,8.443 31.669,8.441 31.646,8.439 31.622,8.439 
			31.597,8.439 31.573,8.439 31.547,8.441 31.52,8.444 31.492,8.448 31.464,8.456 31.437,8.467 31.409,8.482 31.381,8.5 
			31.354,8.521 31.328,8.547 31.304,8.579 31.28,8.615 31.258,8.659 31.238,8.708 31.219,8.764 31.203,8.828 31.197,8.863 
			31.193,8.898 31.19,8.932 31.192,8.966 31.194,9 31.201,9.032 31.211,9.062 31.222,9.091 31.236,9.118 31.254,9.144 31.275,9.167 
			31.299,9.187 31.326,9.206 31.357,9.221 31.39,9.233 31.428,9.242 31.441,9.245 31.456,9.248 31.473,9.25 31.493,9.252 
			31.515,9.254 31.538,9.254 31.563,9.254 31.587,9.252 31.613,9.249 31.639,9.244 31.663,9.237 31.689,9.229 31.713,9.218 
			31.736,9.206 31.757,9.19 31.777,9.172 31.732,9.436 31.726,9.442 31.72,9.447 31.712,9.454 31.704,9.46 31.693,9.468 
			31.678,9.475 31.663,9.482 31.645,9.488 31.622,9.495 31.597,9.5 31.567,9.504 31.532,9.508 31.493,9.509 31.449,9.511 
			31.398,9.509 31.342,9.507 31.297,9.502 31.251,9.492 31.205,9.477 31.16,9.457 31.116,9.434 31.075,9.404 31.035,9.369 
			30.998,9.329 30.965,9.285 30.938,9.235 30.914,9.18 30.896,9.119 30.884,9.053 30.88,8.982 30.883,8.905 30.893,8.822 
			30.902,8.782 30.91,8.742 30.92,8.703 30.93,8.667 30.941,8.633 30.954,8.598 30.967,8.565 30.98,8.534 30.995,8.504 31.01,8.474 
			31.027,8.447 31.045,8.421 31.063,8.397 31.083,8.373 31.102,8.351 31.124,8.33 31.146,8.31 31.169,8.291 31.193,8.275 
			31.218,8.259 31.244,8.244 31.271,8.23 31.299,8.219 31.327,8.208 31.358,8.198 31.389,8.19 31.421,8.183 31.454,8.177 
			31.488,8.172 31.524,8.168 31.56,8.167 31.597,8.165 31.629,8.167 31.66,8.168 31.689,8.171 31.719,8.175 31.747,8.179 
			31.774,8.185 31.8,8.19 31.823,8.196 31.846,8.202 31.866,8.208 31.885,8.214 31.9,8.219 31.915,8.225 31.926,8.229 31.936,8.233 
			31.941,8.234 31.892,8.509 		"/>
		<polyline class="st6" points="31.892,8.509 31.892,8.509 31.879,8.503 31.866,8.496 31.852,8.489 31.837,8.482 31.822,8.477 
			31.806,8.47 31.789,8.465 31.77,8.459 31.752,8.454 31.733,8.45 31.712,8.446 31.692,8.443 31.669,8.441 31.646,8.439 
			31.622,8.439 31.597,8.439 31.597,8.439 31.573,8.439 31.547,8.441 31.52,8.444 31.492,8.448 31.464,8.456 31.437,8.467 
			31.409,8.482 31.381,8.5 31.354,8.521 31.328,8.547 31.304,8.579 31.28,8.615 31.258,8.659 31.238,8.708 31.219,8.764 
			31.203,8.828 31.203,8.828 31.197,8.863 31.193,8.898 31.19,8.932 31.192,8.966 31.194,9 31.201,9.032 31.211,9.062 31.222,9.091 
			31.236,9.118 31.254,9.144 31.275,9.167 31.299,9.187 31.326,9.206 31.357,9.221 31.39,9.233 31.428,9.242 31.428,9.242 
			31.441,9.245 31.456,9.248 31.473,9.25 31.493,9.252 31.515,9.254 31.538,9.254 31.563,9.254 31.587,9.252 31.613,9.249 
			31.639,9.244 31.663,9.237 31.689,9.229 31.713,9.218 31.736,9.206 31.757,9.19 31.777,9.172 31.732,9.436 31.732,9.436 
			31.726,9.442 31.72,9.447 31.712,9.454 31.704,9.46 31.693,9.468 31.678,9.475 31.663,9.482 31.645,9.488 31.622,9.495 
			31.597,9.5 31.567,9.504 31.532,9.508 31.493,9.509 31.449,9.511 31.398,9.509 31.342,9.507 31.342,9.507 31.297,9.502 
			31.251,9.492 31.205,9.477 31.16,9.457 31.116,9.434 31.075,9.404 31.035,9.369 30.998,9.329 30.965,9.285 30.938,9.235 
			30.914,9.18 30.896,9.119 30.884,9.053 30.88,8.982 30.883,8.905 30.893,8.822 30.893,8.822 30.902,8.782 30.91,8.742 
			30.92,8.703 30.93,8.667 30.941,8.633 30.954,8.598 30.967,8.565 30.98,8.534 30.995,8.504 31.01,8.474 31.027,8.447 
			31.045,8.421 31.063,8.397 31.083,8.373 31.102,8.351 31.124,8.33 31.146,8.31 31.169,8.291 31.193,8.275 31.218,8.259 
			31.244,8.244 31.271,8.23 31.299,8.219 31.327,8.208 31.358,8.198 31.389,8.19 31.421,8.183 31.454,8.177 31.488,8.172 
			31.524,8.168 31.56,8.167 31.597,8.165 31.597,8.165 31.629,8.167 31.66,8.168 31.689,8.171 31.719,8.175 31.747,8.179 
			31.774,8.185 31.8,8.19 31.823,8.196 31.846,8.202 31.866,8.208 31.885,8.214 31.9,8.219 31.915,8.225 31.926,8.229 31.936,8.233 
			31.941,8.234 31.892,8.509 		"/>
		<polygon class="st1" points="34.333,9.512 34.058,9.512 34.078,9.402 34.078,9.392 34.062,9.412 34.046,9.429 34.029,9.446 
			34.011,9.459 33.993,9.472 33.975,9.483 33.957,9.492 33.938,9.501 33.92,9.508 33.901,9.513 33.882,9.518 33.862,9.52 
			33.842,9.524 33.823,9.526 33.803,9.527 33.784,9.527 33.732,9.523 33.685,9.512 33.641,9.495 33.601,9.472 33.566,9.443 
			33.533,9.409 33.506,9.373 33.482,9.332 33.463,9.287 33.447,9.24 33.436,9.191 33.428,9.141 33.425,9.091 33.426,9.039 
			33.43,8.988 33.44,8.938 33.455,8.879 33.473,8.824 33.493,8.773 33.518,8.725 33.544,8.681 33.574,8.641 33.604,8.606 
			33.637,8.573 33.672,8.544 33.708,8.519 33.746,8.497 33.784,8.481 33.823,8.467 33.863,8.458 33.903,8.452 33.944,8.45 
			33.972,8.451 33.999,8.454 34.025,8.459 34.05,8.466 34.072,8.474 34.092,8.482 34.112,8.493 34.13,8.504 34.146,8.516 
			34.161,8.53 34.173,8.542 34.185,8.555 34.195,8.568 34.204,8.581 34.212,8.592 34.218,8.604 34.218,8.604 34.287,8.215 
			34.557,8.215 34.333,9.512 		"/>
		<polyline class="st6" points="34.333,9.512 34.058,9.512 34.078,9.402 34.078,9.392 34.078,9.392 34.062,9.412 34.046,9.429 
			34.029,9.446 34.011,9.459 33.993,9.472 33.975,9.483 33.957,9.492 33.938,9.501 33.92,9.508 33.901,9.513 33.882,9.518 
			33.862,9.52 33.842,9.524 33.823,9.526 33.803,9.527 33.784,9.527 33.784,9.527 33.732,9.523 33.685,9.512 33.641,9.495 
			33.601,9.472 33.566,9.443 33.533,9.409 33.506,9.373 33.482,9.332 33.463,9.287 33.447,9.24 33.436,9.191 33.428,9.141 
			33.425,9.091 33.426,9.039 33.43,8.988 33.44,8.938 33.44,8.938 33.455,8.879 33.473,8.824 33.493,8.773 33.518,8.725 
			33.544,8.681 33.574,8.641 33.604,8.606 33.637,8.573 33.672,8.544 33.708,8.519 33.746,8.497 33.784,8.481 33.823,8.467 
			33.863,8.458 33.903,8.452 33.944,8.45 33.944,8.45 33.972,8.451 33.999,8.454 34.025,8.459 34.05,8.466 34.072,8.474 
			34.092,8.482 34.112,8.493 34.13,8.504 34.146,8.516 34.161,8.53 34.173,8.542 34.185,8.555 34.195,8.568 34.204,8.581 
			34.212,8.592 34.218,8.604 34.218,8.604 34.287,8.215 34.557,8.215 34.333,9.512 		"/>
		<polygon class="st4" points="33.884,9.272 33.912,9.27 33.937,9.264 33.961,9.257 33.984,9.246 34.005,9.234 34.025,9.219 
			34.043,9.202 34.061,9.184 34.075,9.165 34.089,9.143 34.102,9.12 34.113,9.096 34.123,9.072 34.131,9.046 34.138,9.019 
			34.143,8.992 34.147,8.965 34.151,8.936 34.151,8.909 34.15,8.881 34.147,8.855 34.143,8.83 34.136,8.807 34.128,8.784 
			34.117,8.764 34.106,8.745 34.093,8.729 34.078,8.715 34.062,8.703 34.043,8.696 34.025,8.691 34.004,8.688 33.977,8.691 
			33.952,8.695 33.929,8.703 33.907,8.713 33.887,8.725 33.867,8.741 33.85,8.759 33.833,8.777 33.818,8.799 33.804,8.822 
			33.792,8.845 33.781,8.871 33.771,8.898 33.763,8.925 33.755,8.954 33.749,8.982 33.744,9.026 33.746,9.073 33.753,9.122 
			33.766,9.169 33.785,9.21 33.811,9.242 33.844,9.264 33.884,9.272 		"/>
		<polygon class="st1" points="27.794,9.291 27.755,9.512 27.505,9.512 27.512,9.471 27.517,9.435 27.52,9.407 27.525,9.392 
			27.511,9.408 27.495,9.424 27.476,9.439 27.455,9.452 27.432,9.466 27.407,9.478 27.381,9.49 27.354,9.5 27.325,9.509 
			27.297,9.516 27.269,9.522 27.239,9.526 27.21,9.527 27.181,9.528 27.153,9.526 27.126,9.522 27.092,9.513 27.06,9.503 
			27.032,9.49 27.007,9.475 26.985,9.459 26.966,9.442 26.95,9.423 26.936,9.403 26.924,9.382 26.914,9.36 26.907,9.339 26.9,9.317 
			26.896,9.294 26.893,9.271 26.891,9.249 26.891,9.227 26.894,9.188 26.9,9.152 26.91,9.117 26.923,9.084 26.939,9.051 
			26.957,9.023 26.977,8.995 27.001,8.97 27.026,8.947 27.054,8.927 27.083,8.908 27.112,8.892 27.144,8.878 27.177,8.867 
			27.21,8.859 27.245,8.852 27.247,8.852 27.252,8.851 27.259,8.851 27.27,8.849 27.282,8.847 27.296,8.847 27.31,8.844 
			27.328,8.843 27.344,8.84 27.361,8.839 27.38,8.837 27.395,8.836 27.411,8.835 27.426,8.833 27.439,8.833 27.45,8.833 
			27.473,8.833 27.498,8.833 27.519,8.835 27.541,8.835 27.558,8.836 27.572,8.836 27.583,8.837 27.585,8.837 27.587,8.83 
			27.594,8.813 27.598,8.792 27.6,8.773 27.596,8.751 27.587,8.731 27.576,8.714 27.56,8.699 27.541,8.686 27.52,8.677 
			27.496,8.671 27.47,8.669 27.443,8.668 27.413,8.667 27.382,8.667 27.35,8.668 27.317,8.67 27.286,8.673 27.254,8.676 
			27.223,8.68 27.194,8.684 27.165,8.688 27.139,8.693 27.115,8.699 27.093,8.705 27.076,8.711 27.062,8.718 27.051,8.723 
			27.121,8.485 27.143,8.475 27.165,8.467 27.189,8.461 27.213,8.456 27.236,8.451 27.262,8.447 27.287,8.443 27.315,8.441 
			27.343,8.439 27.371,8.438 27.401,8.437 27.432,8.437 27.464,8.437 27.496,8.437 27.531,8.438 27.565,8.439 27.594,8.441 
			27.623,8.446 27.654,8.453 27.686,8.462 27.716,8.474 27.746,8.488 27.775,8.504 27.804,8.523 27.828,8.545 27.85,8.569 
			27.87,8.596 27.885,8.626 27.895,8.657 27.901,8.691 27.901,8.729 27.895,8.768 27.794,9.291 		"/>
		<polyline class="st6" points="27.794,9.291 27.755,9.512 27.505,9.512 27.505,9.512 27.512,9.471 27.517,9.435 27.52,9.407 
			27.525,9.392 27.525,9.392 27.511,9.408 27.495,9.424 27.476,9.439 27.455,9.452 27.432,9.466 27.407,9.478 27.381,9.49 
			27.354,9.5 27.325,9.509 27.297,9.516 27.269,9.522 27.239,9.526 27.21,9.527 27.181,9.528 27.153,9.526 27.126,9.522 
			27.126,9.522 27.092,9.513 27.06,9.503 27.032,9.49 27.007,9.475 26.985,9.459 26.966,9.442 26.95,9.423 26.936,9.403 
			26.924,9.382 26.914,9.36 26.907,9.339 26.9,9.317 26.896,9.294 26.893,9.271 26.891,9.249 26.891,9.227 26.891,9.227 
			26.894,9.188 26.9,9.152 26.91,9.117 26.923,9.084 26.939,9.051 26.957,9.023 26.977,8.995 27.001,8.97 27.026,8.947 
			27.054,8.927 27.083,8.908 27.112,8.892 27.144,8.878 27.177,8.867 27.21,8.859 27.245,8.852 27.245,8.852 27.247,8.852 
			27.252,8.851 27.259,8.851 27.27,8.849 27.282,8.847 27.296,8.847 27.31,8.844 27.328,8.843 27.344,8.84 27.361,8.839 
			27.38,8.837 27.395,8.836 27.411,8.835 27.426,8.833 27.439,8.833 27.45,8.833 27.45,8.833 27.473,8.833 27.498,8.833 
			27.519,8.835 27.541,8.835 27.558,8.836 27.572,8.836 27.583,8.837 27.585,8.837 27.585,8.837 27.587,8.83 27.594,8.813 
			27.598,8.792 27.6,8.773 27.6,8.773 27.596,8.751 27.587,8.731 27.576,8.714 27.56,8.699 27.541,8.686 27.52,8.677 27.496,8.671 
			27.47,8.669 27.47,8.669 27.443,8.668 27.413,8.667 27.382,8.667 27.35,8.668 27.317,8.67 27.286,8.673 27.254,8.676 27.223,8.68 
			27.194,8.684 27.165,8.688 27.139,8.693 27.115,8.699 27.093,8.705 27.076,8.711 27.062,8.718 27.051,8.723 27.121,8.485 
			27.121,8.485 27.143,8.475 27.165,8.467 27.189,8.461 27.213,8.456 27.236,8.451 27.262,8.447 27.287,8.443 27.315,8.441 
			27.343,8.439 27.371,8.438 27.401,8.437 27.432,8.437 27.464,8.437 27.496,8.437 27.531,8.438 27.565,8.439 27.565,8.439 
			27.594,8.441 27.623,8.446 27.654,8.453 27.686,8.462 27.716,8.474 27.746,8.488 27.775,8.504 27.804,8.523 27.828,8.545 
			27.85,8.569 27.87,8.596 27.885,8.626 27.895,8.657 27.901,8.691 27.901,8.729 27.895,8.768 27.794,9.291 		"/>
		<polygon class="st5" points="27.556,9.032 27.555,9.028 27.55,9.023 27.545,9.02 27.535,9.018 27.524,9.016 27.511,9.015 
			27.496,9.015 27.481,9.015 27.465,9.016 27.448,9.018 27.432,9.02 27.417,9.022 27.402,9.024 27.388,9.027 27.376,9.03 
			27.365,9.032 27.358,9.035 27.35,9.038 27.339,9.042 27.328,9.047 27.316,9.053 27.302,9.06 27.289,9.066 27.276,9.074 
			27.262,9.084 27.25,9.095 27.237,9.106 27.226,9.118 27.217,9.131 27.21,9.145 27.203,9.161 27.201,9.176 27.199,9.21 
			27.205,9.237 27.214,9.257 27.228,9.272 27.242,9.282 27.259,9.287 27.275,9.291 27.291,9.291 27.321,9.291 27.347,9.287 
			27.373,9.284 27.396,9.278 27.416,9.271 27.435,9.262 27.451,9.253 27.466,9.242 27.48,9.232 27.491,9.221 27.501,9.21 
			27.509,9.198 27.516,9.186 27.522,9.173 27.527,9.163 27.53,9.152 27.538,9.123 27.545,9.091 27.55,9.058 27.556,9.032 		"/>
		<polygon class="st1" points="25.709,9.512 25.439,9.512 25.664,8.21 26.133,8.21 26.177,8.982 26.501,8.21 26.992,8.21 
			26.761,9.512 26.492,9.512 26.662,8.539 26.652,8.539 26.248,9.512 25.943,9.512 25.942,9.471 25.935,9.363 25.925,9.21 
			25.916,9.032 25.905,8.855 25.897,8.7 25.89,8.587 25.887,8.539 25.885,8.539 25.879,8.539 25.873,8.539 25.873,8.539 
			25.709,9.512 		"/>
		<polyline class="st6" points="25.709,9.512 25.439,9.512 25.664,8.21 26.133,8.21 26.177,8.982 26.501,8.21 26.992,8.21 
			26.761,9.512 26.492,9.512 26.662,8.539 26.652,8.539 26.248,9.512 25.943,9.512 25.943,9.512 25.942,9.471 25.935,9.363 
			25.925,9.21 25.916,9.032 25.905,8.855 25.897,8.7 25.89,8.587 25.887,8.539 25.887,8.539 25.885,8.539 25.879,8.539 
			25.873,8.539 25.873,8.539 25.709,9.512 		"/>
		<polygon class="st1" points="32.716,9.291 32.676,9.512 32.426,9.512 32.428,9.471 32.429,9.435 32.429,9.409 32.432,9.397 
			32.418,9.412 32.403,9.427 32.385,9.44 32.365,9.454 32.345,9.467 32.321,9.479 32.296,9.491 32.272,9.501 32.244,9.509 
			32.217,9.516 32.189,9.522 32.162,9.526 32.133,9.527 32.105,9.528 32.078,9.526 32.051,9.522 32.016,9.513 31.984,9.503 
			31.956,9.49 31.93,9.475 31.909,9.459 31.89,9.442 31.874,9.423 31.86,9.403 31.848,9.382 31.839,9.36 31.831,9.339 31.826,9.317 
			31.822,9.294 31.819,9.271 31.817,9.249 31.817,9.227 31.819,9.188 31.826,9.152 31.834,9.117 31.847,9.084 31.862,9.051 
			31.881,9.023 31.902,8.995 31.925,8.97 31.951,8.947 31.977,8.927 32.006,8.908 32.037,8.892 32.067,8.878 32.1,8.867 
			32.133,8.859 32.166,8.852 32.169,8.852 32.173,8.851 32.181,8.851 32.19,8.849 32.203,8.847 32.217,8.847 32.232,8.844 
			32.247,8.843 32.265,8.84 32.282,8.839 32.299,8.837 32.317,8.836 32.332,8.835 32.346,8.833 32.36,8.833 32.371,8.833 
			32.395,8.833 32.418,8.833 32.441,8.835 32.463,8.835 32.482,8.836 32.498,8.836 32.506,8.837 32.511,8.837 32.513,8.83 
			32.516,8.813 32.518,8.792 32.521,8.773 32.517,8.751 32.509,8.731 32.495,8.714 32.48,8.699 32.463,8.686 32.442,8.677 
			32.42,8.671 32.396,8.669 32.369,8.668 32.339,8.667 32.308,8.667 32.277,8.668 32.243,8.67 32.212,8.673 32.181,8.676 
			32.15,8.68 32.12,8.684 32.091,8.688 32.066,8.693 32.041,8.699 32.02,8.705 32.002,8.711 31.988,8.718 31.977,8.723 
			32.047,8.485 32.068,8.475 32.091,8.467 32.114,8.461 32.138,8.456 32.162,8.451 32.187,8.447 32.213,8.443 32.24,8.441 
			32.268,8.439 32.296,8.438 32.325,8.437 32.355,8.437 32.387,8.437 32.418,8.437 32.452,8.438 32.486,8.439 32.513,8.441 
			32.543,8.446 32.574,8.453 32.606,8.462 32.636,8.474 32.667,8.488 32.697,8.504 32.725,8.523 32.75,8.545 32.772,8.569 
			32.792,8.596 32.807,8.626 32.818,8.657 32.825,8.691 32.825,8.729 32.82,8.768 32.716,9.291 		"/>
		<polygon class="st1" points="32.676,9.519 32.681,9.513 32.722,9.293 32.709,9.291 32.669,9.511 32.676,9.505 32.676,9.519 
			32.68,9.518 32.681,9.513 32.676,9.519 		"/>
		<polygon class="st1" points="32.42,9.512 32.426,9.519 32.676,9.519 32.676,9.505 32.426,9.505 32.432,9.512 32.42,9.512 
			32.419,9.519 32.426,9.519 32.42,9.512 		"/>
		<polygon class="st1" points="32.436,9.401 32.428,9.393 32.423,9.409 32.422,9.435 32.422,9.471 32.42,9.512 32.432,9.512 
			32.434,9.471 32.436,9.435 32.435,9.409 32.435,9.401 32.426,9.393 32.436,9.401 		"/>
		<polygon class="st1" points="32.051,9.527 32.051,9.527 32.078,9.531 32.105,9.535 32.133,9.534 32.162,9.531 32.19,9.527 
			32.218,9.523 32.246,9.515 32.273,9.507 32.299,9.497 32.324,9.485 32.347,9.473 32.369,9.459 32.39,9.446 32.407,9.431 
			32.423,9.416 32.436,9.401 32.426,9.393 32.413,9.408 32.399,9.421 32.382,9.435 32.363,9.45 32.342,9.461 32.318,9.473 
			32.295,9.485 32.269,9.495 32.243,9.503 32.216,9.511 32.188,9.516 32.162,9.52 32.133,9.522 32.105,9.523 32.078,9.52 
			32.052,9.516 32.052,9.516 32.051,9.527 		"/>
		<polygon class="st1" points="31.811,9.227 31.811,9.227 31.811,9.249 31.814,9.271 31.816,9.295 31.82,9.317 31.826,9.339 
			31.833,9.362 31.842,9.385 31.855,9.405 31.869,9.427 31.885,9.446 31.905,9.465 31.927,9.48 31.953,9.496 31.982,9.509 
			32.014,9.519 32.051,9.527 32.052,9.516 32.017,9.507 31.986,9.497 31.959,9.484 31.933,9.47 31.912,9.454 31.895,9.438 
			31.879,9.419 31.865,9.4 31.854,9.379 31.845,9.358 31.837,9.338 31.833,9.316 31.828,9.293 31.826,9.271 31.823,9.249 
			31.825,9.227 31.825,9.227 31.811,9.227 		"/>
		<polygon class="st1" points="32.166,8.847 32.166,8.847 32.132,8.852 32.098,8.862 32.066,8.872 32.033,8.886 32.003,8.902 
			31.973,8.921 31.946,8.943 31.921,8.966 31.896,8.992 31.876,9.019 31.856,9.049 31.841,9.081 31.828,9.115 31.819,9.15 
			31.814,9.188 31.811,9.227 31.825,9.227 31.826,9.188 31.831,9.153 31.841,9.119 31.853,9.085 31.868,9.054 31.886,9.027 
			31.907,8.999 31.929,8.974 31.954,8.953 31.981,8.932 32.009,8.914 32.04,8.898 32.069,8.884 32.102,8.873 32.133,8.864 
			32.166,8.859 32.166,8.859 32.166,8.847 		"/>
		<polygon class="st1" points="32.371,8.825 32.371,8.825 32.36,8.825 32.346,8.828 32.332,8.829 32.317,8.829 32.299,8.832 
			32.282,8.833 32.265,8.835 32.247,8.836 32.232,8.839 32.217,8.84 32.203,8.841 32.19,8.844 32.181,8.844 32.173,8.845 
			32.169,8.847 32.166,8.847 32.166,8.859 32.169,8.859 32.174,8.857 32.181,8.856 32.19,8.855 32.203,8.854 32.217,8.852 
			32.232,8.851 32.247,8.848 32.265,8.847 32.282,8.844 32.299,8.844 32.317,8.841 32.332,8.84 32.346,8.84 32.36,8.84 32.371,8.84 
			32.371,8.84 32.371,8.825 		"/>
		<polygon class="st1" points="32.505,8.836 32.511,8.832 32.506,8.832 32.498,8.83 32.482,8.829 32.463,8.828 32.441,8.828 
			32.418,8.828 32.395,8.825 32.371,8.825 32.371,8.84 32.395,8.84 32.418,8.84 32.441,8.841 32.463,8.841 32.482,8.841 
			32.498,8.843 32.506,8.844 32.511,8.844 32.517,8.839 32.511,8.844 32.516,8.844 32.517,8.839 32.505,8.836 		"/>
		<polygon class="st1" points="32.514,8.773 32.513,8.773 32.513,8.792 32.51,8.812 32.506,8.829 32.505,8.836 32.517,8.839 
			32.518,8.832 32.521,8.814 32.524,8.792 32.528,8.773 32.526,8.773 32.514,8.773 		"/>
		<polygon class="st1" points="32.396,8.675 32.396,8.676 32.419,8.677 32.44,8.683 32.46,8.692 32.476,8.703 32.491,8.718 
			32.502,8.734 32.511,8.752 32.514,8.773 32.526,8.773 32.522,8.751 32.514,8.729 32.501,8.71 32.484,8.693 32.465,8.68 
			32.444,8.671 32.421,8.665 32.396,8.662 32.396,8.663 32.396,8.675 		"/>
		<polygon class="st1" points="31.971,8.722 31.981,8.729 31.991,8.723 32.003,8.717 32.021,8.711 32.043,8.705 32.066,8.7 
			32.092,8.695 32.121,8.69 32.15,8.686 32.181,8.681 32.212,8.679 32.243,8.676 32.277,8.674 32.308,8.674 32.339,8.674 
			32.369,8.674 32.396,8.675 32.396,8.663 32.369,8.662 32.339,8.66 32.308,8.66 32.277,8.662 32.243,8.664 32.212,8.667 
			32.181,8.67 32.15,8.674 32.119,8.677 32.09,8.683 32.064,8.688 32.04,8.693 32.019,8.699 32,8.705 31.985,8.711 31.973,8.718 
			31.983,8.725 31.971,8.722 		"/>
		<polygon class="st1" points="32.044,8.478 32.04,8.484 31.971,8.722 31.983,8.725 32.052,8.485 32.048,8.49 32.044,8.478 
			32.041,8.48 32.04,8.484 32.044,8.478 		"/>
		<polygon class="st1" points="32.486,8.433 32.486,8.433 32.452,8.431 32.418,8.43 32.387,8.43 32.355,8.43 32.325,8.43 
			32.296,8.432 32.268,8.433 32.24,8.435 32.213,8.437 32.186,8.441 32.162,8.445 32.136,8.45 32.113,8.455 32.089,8.462 
			32.066,8.47 32.044,8.478 32.048,8.49 32.07,8.482 32.093,8.474 32.114,8.467 32.139,8.462 32.163,8.456 32.188,8.453 
			32.213,8.448 32.24,8.447 32.268,8.445 32.296,8.444 32.325,8.444 32.355,8.444 32.387,8.444 32.418,8.444 32.452,8.445 
			32.486,8.445 32.486,8.445 32.486,8.433 		"/>
		<polygon class="st1" points="32.826,8.769 32.826,8.769 32.831,8.729 32.831,8.691 32.824,8.656 32.813,8.623 32.798,8.592 
			32.777,8.565 32.753,8.541 32.728,8.518 32.7,8.5 32.67,8.482 32.639,8.467 32.608,8.456 32.575,8.447 32.544,8.44 32.513,8.435 
			32.486,8.433 32.486,8.445 32.513,8.447 32.542,8.452 32.573,8.459 32.604,8.467 32.635,8.48 32.664,8.493 32.694,8.509 
			32.72,8.528 32.746,8.55 32.767,8.573 32.787,8.599 32.801,8.627 32.812,8.658 32.819,8.691 32.819,8.729 32.814,8.767 
			32.814,8.767 32.826,8.769 		"/>
		<polygon class="st1" points="32.722,9.293 32.722,9.293 32.826,8.769 32.814,8.767 32.709,9.291 32.709,9.291 32.722,9.293 		"/>
		<polygon class="st4" points="32.476,9.032 32.474,9.027 32.47,9.022 32.463,9.019 32.453,9.016 32.442,9.015 32.429,9.014 
			32.414,9.014 32.399,9.015 32.384,9.017 32.368,9.019 32.352,9.021 32.337,9.023 32.322,9.026 32.309,9.028 32.296,9.031 
			32.287,9.032 32.28,9.034 32.272,9.037 32.262,9.04 32.251,9.043 32.238,9.05 32.225,9.056 32.212,9.062 32.199,9.072 
			32.186,9.08 32.173,9.091 32.162,9.102 32.151,9.115 32.143,9.129 32.136,9.144 32.13,9.16 32.127,9.176 32.125,9.21 
			32.131,9.237 32.139,9.257 32.151,9.272 32.166,9.282 32.182,9.287 32.199,9.291 32.216,9.291 32.246,9.291 32.273,9.287 
			32.299,9.283 32.322,9.276 32.344,9.268 32.363,9.259 32.38,9.249 32.396,9.237 32.41,9.226 32.422,9.213 32.433,9.202 
			32.442,9.188 32.449,9.176 32.454,9.165 32.458,9.153 32.461,9.142 32.465,9.114 32.47,9.085 32.474,9.058 32.476,9.032 		"/>
		<polygon class="st1" points="34.518,9.376 34.52,9.353 34.528,9.326 34.542,9.302 34.559,9.282 34.58,9.265 34.604,9.253 
			34.629,9.245 34.657,9.242 34.685,9.245 34.711,9.253 34.734,9.265 34.756,9.282 34.772,9.302 34.786,9.326 34.794,9.353 
			34.796,9.376 34.767,9.376 34.765,9.358 34.76,9.336 34.749,9.317 34.737,9.299 34.72,9.286 34.702,9.276 34.68,9.269 
			34.657,9.267 34.635,9.269 34.612,9.276 34.594,9.286 34.578,9.299 34.565,9.317 34.555,9.336 34.55,9.358 34.547,9.376 
			34.518,9.376 		"/>
		<polygon class="st1" points="34.608,9.376 34.608,9.317 34.662,9.317 34.674,9.317 34.685,9.32 34.693,9.322 34.7,9.326 
			34.705,9.332 34.709,9.339 34.711,9.345 34.712,9.352 34.711,9.361 34.709,9.368 34.706,9.374 34.704,9.376 34.662,9.376 
			34.666,9.375 34.673,9.374 34.679,9.372 34.684,9.37 34.688,9.367 34.69,9.364 34.692,9.359 34.692,9.352 34.691,9.347 
			34.689,9.343 34.686,9.341 34.683,9.339 34.678,9.339 34.673,9.338 34.668,9.338 34.662,9.338 34.632,9.338 34.632,9.376 
			34.608,9.376 		"/>
		<polygon class="st1" points="34.518,9.376 34.517,9.382 34.52,9.411 34.528,9.438 34.542,9.461 34.559,9.481 34.58,9.498 
			34.604,9.511 34.629,9.519 34.657,9.522 34.685,9.519 34.711,9.511 34.734,9.498 34.756,9.481 34.772,9.461 34.786,9.438 
			34.794,9.411 34.797,9.382 34.796,9.376 34.767,9.376 34.768,9.382 34.765,9.405 34.76,9.428 34.749,9.446 34.737,9.463 
			34.72,9.477 34.702,9.488 34.68,9.495 34.657,9.497 34.635,9.495 34.612,9.488 34.594,9.477 34.578,9.463 34.565,9.446 
			34.555,9.428 34.55,9.405 34.547,9.382 34.547,9.376 34.518,9.376 		"/>
		<polygon class="st1" points="34.608,9.376 34.608,9.436 34.632,9.436 34.632,9.387 34.657,9.387 34.687,9.436 34.707,9.436 
			34.677,9.387 34.684,9.387 34.691,9.385 34.697,9.383 34.702,9.379 34.704,9.376 34.662,9.376 34.657,9.377 34.632,9.377 
			34.632,9.376 34.608,9.376 		"/>
		<path class="st6" d="M34.517,9.382L34.517,9.382l0.003-0.029l0.008-0.027l0.014-0.024l0.017-0.02l0.02-0.017l0.024-0.012
			l0.026-0.008l0.028-0.003l0,0l0.028,0.003l0.025,0.008l0.024,0.012l0.02,0.017l0.017,0.02l0.013,0.024l0.008,0.027l0.003,0.029
			l0,0l-0.003,0.029l-0.008,0.027l-0.013,0.024l-0.017,0.02l-0.02,0.017l-0.024,0.013l-0.025,0.008l-0.028,0.003l0,0L34.63,9.519
			l-0.026-0.008L34.58,9.498l-0.02-0.017l-0.017-0.02l-0.014-0.024l-0.008-0.027L34.517,9.382 M34.632,9.436h-0.024v-0.12h0.054l0,0
			l0.012,0.001l0.011,0.002l0.008,0.003L34.7,9.326l0.005,0.006l0.004,0.006l0.002,0.007l0.001,0.007l0,0l-0.001,0.009l-0.002,0.007
			l-0.003,0.006L34.701,9.38l-0.005,0.004L34.69,9.386l-0.006,0.002h-0.007l0.03,0.05h-0.02l-0.03-0.05h-0.025V9.436 M34.657,9.377
			L34.657,9.377l0.009-0.002l0.007-0.001l0.006-0.002l0.005-0.002l0.004-0.003l0.002-0.003l0.002-0.005V9.352l0,0l-0.002-0.005
			L34.69,9.343l-0.003-0.002l-0.003-0.002l-0.005-0.001l-0.005-0.001h-0.005h-0.006h-0.031v0.039H34.657 M34.657,9.497L34.657,9.497
			l0.023-0.002l0.022-0.007l0.019-0.011l0.016-0.014l0.013-0.017l0.01-0.019l0.006-0.022l0.002-0.024l0,0l-0.002-0.024L34.76,9.335
			l-0.01-0.02l-0.013-0.017l-0.016-0.014l-0.019-0.009L34.68,9.268l-0.023-0.002l0,0l-0.023,0.002l-0.022,0.007l-0.019,0.009
			l-0.016,0.014l-0.013,0.017l-0.01,0.02L34.55,9.357l-0.002,0.024l0,0l0.002,0.024l0.006,0.022l0.01,0.019l0.013,0.017l0.016,0.014
			l0.019,0.011l0.022,0.007L34.657,9.497"/>
		<polygon class="st1" points="32.79,9.512 33.07,9.512 33.07,9.512 33.17,8.947 33.174,8.926 33.18,8.904 33.186,8.882 
			33.193,8.86 33.204,8.839 33.215,8.818 33.228,8.798 33.245,8.779 33.262,8.762 33.282,8.746 33.304,8.731 33.33,8.719 
			33.36,8.71 33.391,8.702 33.426,8.696 33.464,8.693 33.478,8.693 33.486,8.693 33.489,8.693 33.489,8.693 33.533,8.439 
			33.506,8.441 33.479,8.444 33.455,8.448 33.43,8.456 33.409,8.463 33.388,8.474 33.368,8.485 33.349,8.496 33.331,8.511 
			33.315,8.524 33.299,8.541 33.283,8.556 33.268,8.573 33.253,8.592 33.238,8.61 33.224,8.629 33.254,8.45 32.975,8.45 
			32.79,9.512 32.79,9.512 		"/>
		<polyline class="st6" points="32.79,9.512 33.07,9.512 33.07,9.512 33.17,8.947 33.17,8.947 33.174,8.926 33.18,8.904 
			33.186,8.882 33.193,8.86 33.204,8.839 33.215,8.818 33.228,8.798 33.245,8.779 33.262,8.762 33.282,8.746 33.304,8.731 
			33.33,8.719 33.36,8.71 33.391,8.702 33.426,8.696 33.464,8.693 33.464,8.693 33.478,8.693 33.486,8.693 33.489,8.693 
			33.489,8.693 33.533,8.439 33.533,8.439 33.506,8.441 33.479,8.444 33.455,8.448 33.43,8.456 33.409,8.463 33.388,8.474 
			33.368,8.485 33.349,8.496 33.331,8.511 33.315,8.524 33.299,8.541 33.283,8.556 33.268,8.573 33.253,8.592 33.238,8.61 
			33.224,8.629 33.254,8.45 32.975,8.45 32.79,9.512 32.79,9.512 		"/>
		<polygon class="st1" points="30.164,9.512 30.444,9.512 30.449,9.512 30.544,8.947 30.548,8.926 30.553,8.905 30.558,8.884 
			30.565,8.864 30.573,8.844 30.583,8.825 30.595,8.808 30.609,8.791 30.625,8.776 30.643,8.761 30.664,8.749 30.688,8.738 
			30.716,8.729 30.747,8.722 30.78,8.717 30.819,8.714 30.822,8.714 30.826,8.714 30.831,8.715 30.835,8.715 30.841,8.717 
			30.845,8.718 30.847,8.718 30.849,8.718 30.85,8.714 30.853,8.703 30.857,8.685 30.861,8.663 30.869,8.637 30.876,8.61 
			30.884,8.581 30.893,8.554 30.902,8.535 30.911,8.516 30.921,8.497 30.931,8.481 30.94,8.466 30.946,8.454 30.952,8.447 
			30.954,8.444 30.953,8.444 30.949,8.443 30.943,8.442 30.937,8.441 30.93,8.441 30.922,8.44 30.915,8.439 30.908,8.439 
			30.877,8.441 30.85,8.444 30.824,8.448 30.8,8.455 30.777,8.463 30.757,8.473 30.738,8.482 30.72,8.494 30.702,8.507 
			30.687,8.522 30.673,8.537 30.657,8.554 30.643,8.57 30.628,8.59 30.614,8.61 30.599,8.629 30.635,8.45 30.35,8.45 30.164,9.512 
			30.164,9.512 		"/>
		<polyline class="st6" points="30.164,9.512 30.444,9.512 30.449,9.512 30.544,8.947 30.544,8.947 30.548,8.926 30.553,8.905 
			30.558,8.884 30.565,8.864 30.573,8.844 30.583,8.825 30.595,8.808 30.609,8.791 30.625,8.776 30.643,8.761 30.664,8.749 
			30.688,8.738 30.716,8.729 30.747,8.722 30.78,8.717 30.819,8.714 30.819,8.714 30.822,8.714 30.826,8.714 30.831,8.715 
			30.835,8.715 30.841,8.717 30.845,8.718 30.847,8.718 30.849,8.718 30.849,8.718 30.85,8.714 30.853,8.703 30.857,8.685 
			30.861,8.663 30.869,8.637 30.876,8.61 30.884,8.581 30.893,8.554 30.893,8.554 30.902,8.535 30.911,8.516 30.921,8.497 
			30.931,8.481 30.94,8.466 30.946,8.454 30.952,8.447 30.954,8.444 30.954,8.444 30.953,8.444 30.949,8.443 30.943,8.442 
			30.937,8.441 30.93,8.441 30.922,8.44 30.915,8.439 30.908,8.439 30.908,8.439 30.877,8.441 30.85,8.444 30.824,8.448 30.8,8.455 
			30.777,8.463 30.757,8.473 30.738,8.482 30.72,8.494 30.702,8.507 30.687,8.522 30.673,8.537 30.657,8.554 30.643,8.57 
			30.628,8.59 30.614,8.61 30.599,8.629 30.635,8.45 30.35,8.45 30.164,9.512 30.164,9.512 		"/>
		<polygon class="st4" points="34.52,10.555 34.52,10.551 34.528,10.525 34.542,10.503 34.559,10.483 34.58,10.466 34.604,10.455 
			34.629,10.448 34.657,10.445 34.685,10.448 34.711,10.455 34.734,10.466 34.756,10.483 34.772,10.503 34.786,10.525 
			34.794,10.551 34.794,10.555 34.765,10.555 34.76,10.534 34.749,10.515 34.737,10.499 34.72,10.485 34.702,10.474 34.68,10.466 
			34.657,10.465 34.635,10.466 34.612,10.474 34.594,10.485 34.578,10.499 34.565,10.515 34.555,10.534 34.55,10.555 34.52,10.555 
					"/>
		<polygon class="st4" points="34.608,10.555 34.608,10.521 34.662,10.521 34.674,10.521 34.685,10.522 34.693,10.524 34.7,10.528 
			34.705,10.533 34.709,10.539 34.711,10.546 34.712,10.555 34.692,10.555 34.692,10.55 34.691,10.545 34.689,10.541 34.686,10.539 
			34.683,10.537 34.678,10.536 34.673,10.535 34.668,10.535 34.662,10.535 34.632,10.535 34.632,10.555 34.608,10.555 		"/>
		<polygon class="st4" points="34.517,10.577 34.52,10.555 34.55,10.555 34.55,10.556 34.547,10.577 34.517,10.577 		"/>
		<polygon class="st4" points="34.608,10.577 34.608,10.555 34.632,10.555 34.632,10.575 34.657,10.575 34.666,10.573 
			34.673,10.572 34.679,10.57 34.684,10.568 34.688,10.565 34.69,10.562 34.692,10.557 34.692,10.555 34.712,10.555 34.712,10.555 
			34.711,10.562 34.709,10.568 34.706,10.573 34.702,10.577 34.608,10.577 		"/>
		<polygon class="st4" points="34.768,10.577 34.765,10.556 34.765,10.555 34.794,10.555 34.797,10.577 34.768,10.577 		"/>
		<polygon class="st4" points="34.517,10.577 34.517,10.58 34.52,10.608 34.528,10.635 34.542,10.659 34.559,10.68 34.58,10.697 
			34.604,10.709 34.629,10.717 34.657,10.72 34.685,10.717 34.711,10.709 34.734,10.697 34.756,10.68 34.772,10.659 34.786,10.635 
			34.794,10.608 34.797,10.58 34.797,10.577 34.768,10.577 34.768,10.58 34.765,10.603 34.76,10.625 34.749,10.644 34.737,10.661 
			34.72,10.675 34.702,10.686 34.68,10.693 34.657,10.695 34.635,10.693 34.612,10.686 34.594,10.675 34.578,10.661 34.565,10.644 
			34.555,10.625 34.55,10.603 34.547,10.58 34.547,10.577 34.517,10.577 		"/>
		<polygon class="st4" points="34.608,10.577 34.608,10.634 34.632,10.634 34.632,10.584 34.657,10.584 34.687,10.634 
			34.707,10.634 34.677,10.584 34.684,10.584 34.691,10.583 34.697,10.581 34.702,10.577 34.702,10.577 34.608,10.577 		"/>
		<path class="st1" d="M30.195,8.766l-0.008-0.059l-0.014-0.053l-0.019-0.046L30.13,8.569l-0.031-0.034l-0.032-0.028l-0.035-0.024
			l-0.039-0.018l-0.04-0.015l-0.041-0.01l-0.04-0.007L29.83,8.43l-0.039-0.001l-0.08,0.004L29.64,8.445l-0.065,0.018l-0.057,0.025
			l-0.05,0.03l-0.043,0.034l-0.039,0.038l-0.032,0.039L29.327,8.67l-0.023,0.043l-0.017,0.042l-0.016,0.043L29.26,8.84l-0.008,0.039
			l-0.006,0.037l-0.004,0.031l-0.005,0.081l0.003,0.073l0.011,0.067l0.017,0.058l0.024,0.053l0.028,0.046l0.034,0.041L29.393,9.4
			l0.042,0.029l0.045,0.024l0.046,0.019l0.049,0.015l0.05,0.012l0.05,0.007l0.05,0.005l0.049,0.001h0.032l0.031-0.001h0.027
			l0.026-0.001l0.023-0.002l0.02-0.002l0.02-0.002l0.018-0.003l0.017-0.003l0.016-0.004l0.016-0.005l0.015-0.005l0.015-0.006
			l0.016-0.006l0.016-0.008l0.016-0.008l0.04-0.244L30.105,9.23l-0.028,0.016l-0.029,0.012l-0.028,0.011l-0.027,0.009l-0.028,0.006
			L29.94,9.287l-0.027,0.004l-0.027,0.002l-0.025,0.001h-0.027l-0.025-0.001l-0.026-0.002l-0.026-0.003l-0.024-0.003l-0.026-0.004
			l-0.02-0.004l-0.02-0.006l-0.02-0.009l-0.017-0.011l-0.018-0.012l-0.016-0.015L29.58,9.21l-0.013-0.017l-0.012-0.017l-0.011-0.019
			l-0.008-0.018L29.529,9.12l-0.005-0.019l-0.001-0.019l0.001-0.017l0.002-0.013h0.643l0.005-0.061l0.015-0.083l0.007-0.076
			L30.195,8.766z M29.926,8.857h-0.362V8.856h-0.001l0.002-0.014l0.004-0.02l0.006-0.02l0.007-0.02l0.009-0.018l0.009-0.017
			l0.011-0.016l0.012-0.015l0.013-0.014l0.013-0.012l0.015-0.011l0.015-0.009l0.017-0.008l0.017-0.006l0.017-0.004l0.017-0.003
			l0.019-0.001l0.017,0.002L29.8,8.655l0.016,0.004l0.016,0.006l0.015,0.008l0.017,0.009l0.013,0.01l0.012,0.012l0.01,0.014
			l0.01,0.015l0.007,0.017l0.007,0.019l0.004,0.02l0.002,0.022l0.001,0.024L29.926,8.857z"/>
	</g>
</g>
<g>
	<path class="st7" d="M78.389,13.348c0,0.301-0.245,0.546-0.546,0.546H62.551c-0.301,0-0.546-0.245-0.546-0.546V4.199
		c0-0.301,0.245-0.546,0.546-0.546h15.292c0.301,0,0.546,0.245,0.546,0.546V13.348z"/>
	<g>
		<path class="st1" d="M67.088,8.535V8.371L67.01,8.535h-0.678L66.246,8.36v0.176h-1.268l-0.15-0.355h-0.254l-0.159,0.355h-0.657
			v-1.07l0.482-1.091h0.923l0.13,0.309V6.376h1.129l0.248,0.52l0.243-0.523h3.563c0,0,0.187-0.002,0.31,0.084l-0.001-0.084h0.897
			v0.118c0,0,0.161-0.118,0.4-0.118c0.238,0,1.584,0,1.584,0l0.139,0.313V6.374h1.015l0.184,0.313V6.374h0.97v2.163h-0.997
			L74.743,8.16v0.375h-1.239L73.33,8.149h-0.243l-0.163,0.386h-0.75c0,0-0.279-0.004-0.49-0.153c0,0.079,0,0.153,0,0.153h-1.494
			c0,0,0-0.431,0-0.504c0-0.073-0.056-0.068-0.056-0.068h-0.054v0.573C70.081,8.535,67.088,8.535,67.088,8.535z"/>
		<path class="st1" d="M66.343,9.003h1.961l0.283,0.32l0.29-0.32h1.508c0,0,0.142,0.004,0.276,0.076V9.003c0,0,1.173,0,1.343,0
			c0.171,0,0.313,0.085,0.313,0.085V9.003h1.726v0.079c0,0,0.123-0.079,0.288-0.079c0.165,0,1.125,0,1.125,0v0.079
			c0,0,0.142-0.079,0.291-0.079c0.15,0,0.883,0,0.883,0v2.038c0,0-0.116,0.131-0.357,0.131H75.11v-0.065
			c0,0-0.111,0.065-0.279,0.065c-0.168,0-3.092,0-3.092,0s0-0.475,0-0.527s-0.023-0.061-0.068-0.061h-0.042v0.588h-0.966v-0.585
			c0,0-0.107,0.057-0.286,0.057c-0.179,0-0.348,0-0.348,0v0.527h-1.192l-0.271-0.331l-0.29,0.331h-1.933V9.003H66.343z"/>
		<polygon class="st7" points="72.525,9.328 73.756,9.328 73.756,9.659 72.902,9.659 72.902,9.947 73.732,9.947 73.732,10.237 
			72.902,10.237 72.902,10.54 73.756,10.54 73.756,10.862 72.525,10.862 		"/>
		<path class="st7" d="M76.135,9.927c0.463,0.024,0.501,0.255,0.501,0.501c0,0.287-0.236,0.442-0.482,0.442h-0.792V10.54h0.616
			c0.105,0,0.261,0,0.261-0.147c0-0.07-0.028-0.115-0.139-0.126c-0.05-0.007-0.232-0.017-0.261-0.018
			c-0.418-0.011-0.516-0.219-0.516-0.472c0-0.287,0.202-0.445,0.449-0.445h0.791v0.329h-0.578c-0.131,0.002-0.274-0.016-0.274,0.133
			c0,0.094,0.07,0.113,0.159,0.122C75.902,9.915,76.107,9.927,76.135,9.927z"/>
		<path class="st7" d="M74.716,9.927c0.463,0.024,0.501,0.255,0.501,0.501c0,0.287-0.236,0.442-0.482,0.442h-0.79V10.54h0.616
			c0.105,0,0.261,0,0.261-0.147c0-0.07-0.028-0.115-0.139-0.126c-0.05-0.007-0.233-0.017-0.26-0.018
			c-0.419-0.011-0.516-0.219-0.516-0.472c0-0.287,0.201-0.445,0.449-0.445h0.791v0.329h-0.578c-0.132,0.002-0.274-0.016-0.274,0.133
			c0,0.094,0.07,0.113,0.16,0.122C74.484,9.915,74.689,9.927,74.716,9.927z"/>
		<path class="st7" d="M70.252,9.332h-1.321l-0.431,0.476l-0.417-0.479h-1.484v1.534h1.436l0.452-0.507l0.442,0.51h0.723v-0.521
			h0.506c0.195,0,0.552-0.006,0.552-0.544C70.708,9.417,70.437,9.332,70.252,9.332z M67.838,10.54h-0.868v-0.303h0.83V9.946h-0.83
			V9.659l0.915,0.002l0.367,0.417L67.838,10.54z M69.276,10.718l-0.541-0.64l0.541-0.599V10.718z M70.125,10.03h-0.469V9.661h0.471
			c0.157,0,0.208,0.101,0.208,0.176C70.334,9.94,70.28,10.03,70.125,10.03z"/>
		<path class="st7" d="M72.071,10.167c0.205-0.102,0.261-0.239,0.261-0.424c0-0.328-0.267-0.411-0.452-0.411h-0.979v1.534h0.376
			v-0.541h0.493c0.13,0,0.181,0.13,0.185,0.261l0.01,0.281h0.367l-0.014-0.315C72.317,10.304,72.25,10.188,72.071,10.167z
			 M71.746,10.008h-0.469V9.661h0.471c0.157,0,0.207,0.101,0.207,0.176C71.955,9.94,71.9,10.008,71.746,10.008z"/>
		<rect x="71.051" y="6.682" class="st7" width="0.376" height="1.536"/>
		<polygon class="st7" points="67.969,6.683 69.199,6.683 69.199,7.013 68.345,7.013 68.345,7.301 69.175,7.301 69.175,7.592 
			68.345,7.592 68.345,7.894 69.199,7.894 69.199,8.216 67.969,8.216 		"/>
		<path class="st7" d="M70.594,7.518c0.205-0.102,0.261-0.239,0.261-0.424c0-0.329-0.267-0.411-0.452-0.411h-0.979v1.533H69.8V7.676
			h0.493c0.13,0,0.182,0.13,0.185,0.26l0.01,0.281h0.367l-0.013-0.315C70.84,7.655,70.772,7.539,70.594,7.518z M70.269,7.359H69.8
			V7.012h0.471c0.157,0,0.207,0.101,0.207,0.176C70.477,7.291,70.422,7.359,70.269,7.359z"/>
		<path class="st7" d="M67.101,6.683l-0.462,1.029l-0.46-1.029h-0.59V8.16l-0.657-1.477h-0.498l-0.672,1.533h0.397l0.147-0.342
			h0.752l0.149,0.342h0.758V7.078l0.504,1.138h0.342l0.516-1.119v1.119h0.376V6.683H67.101z M64.448,7.543l0.224-0.536l0.234,0.536
			H64.448z"/>
		<path class="st7" d="M75.313,6.682v1.062l-0.635-1.062h-0.556v1.44l-0.641-1.44h-0.498l-0.519,1.188c0,0-0.219,0-0.242-0.006
			c-0.091-0.019-0.232-0.083-0.235-0.353V7.401c0-0.36,0.195-0.386,0.445-0.386h0.232V6.682h-0.491c-0.172,0-0.544,0.131-0.556,0.76
			c-0.009,0.424,0.176,0.774,0.594,0.774h0.497l0.147-0.342h0.752l0.149,0.342h0.743V7.094l0.678,1.123h0.514V6.682H75.313z
			 M73.001,7.544l0.224-0.536l0.236,0.536H73.001z"/>
	</g>
</g>
<g>
	<path class="st8" d="M58.819,13.348c0,0.301-0.245,0.546-0.546,0.546H42.98c-0.301,0-0.546-0.245-0.546-0.546V4.199
		c0-0.302,0.245-0.546,0.546-0.546h15.292c0.301,0,0.546,0.245,0.546,0.546V13.348z"/>
	<path class="st9" d="M46.938,13.894h11.335c0.301,0,0.546-0.245,0.546-0.546V9.513C57.731,10.203,53.63,12.58,46.938,13.894z"/>
	<g>
		
			<radialGradient id="SVGID_1_" cx="44.41" cy="493.3087" r="0.8074" gradientTransform="matrix(1 0 0 -1 6.416 502.083)" gradientUnits="userSpaceOnUse">
			<stop  offset="0.0056" style="stop-color:#FFEEE1"/>
			<stop  offset="0.0966" style="stop-color:#FFEAD8"/>
			<stop  offset="0.2452" style="stop-color:#FEDDC2"/>
			<stop  offset="0.4329" style="stop-color:#FCCA9F"/>
			<stop  offset="0.6522" style="stop-color:#F9AF72"/>
			<stop  offset="0.8954" style="stop-color:#F68F39"/>
			<stop  offset="1" style="stop-color:#F48220"/>
		</radialGradient>
		<path class="st10" d="M50.827,7.976c-0.452,0-0.818,0.353-0.818,0.788c0,0.463,0.35,0.808,0.818,0.808
			c0.456,0,0.815-0.35,0.815-0.8C51.642,8.326,51.284,7.976,50.827,7.976z"/>
		<path class="st11" d="M46.184,8.005h-0.439v1.533h0.438c0.232,0,0.4-0.055,0.547-0.177c0.175-0.145,0.278-0.364,0.278-0.589
			C47.008,8.319,46.67,8.005,46.184,8.005z M46.535,9.156c-0.094,0.085-0.216,0.122-0.41,0.122h-0.08V8.264h0.08
			c0.194,0,0.311,0.035,0.41,0.124c0.103,0.092,0.164,0.235,0.164,0.382C46.699,8.917,46.638,9.065,46.535,9.156z"/>
		<rect x="47.146" y="8.005" class="st11" width="0.298" height="1.533"/>
		<path class="st11" d="M48.176,8.592c-0.179-0.066-0.232-0.11-0.232-0.193c0-0.097,0.094-0.17,0.223-0.17
			c0.09,0,0.163,0.037,0.242,0.124l0.156-0.204c-0.129-0.113-0.283-0.171-0.451-0.171c-0.271,0-0.478,0.189-0.478,0.439
			c0,0.212,0.097,0.32,0.377,0.421c0.117,0.042,0.177,0.069,0.207,0.087c0.06,0.039,0.09,0.094,0.09,0.158
			c0,0.124-0.098,0.216-0.232,0.216c-0.142,0-0.257-0.071-0.327-0.205l-0.193,0.187c0.138,0.202,0.303,0.292,0.531,0.292
			c0.31,0,0.529-0.207,0.529-0.504C48.617,8.828,48.516,8.717,48.176,8.592z"/>
		<path class="st11" d="M48.712,8.772c0,0.451,0.354,0.8,0.81,0.8c0.129,0,0.239-0.025,0.375-0.09V9.131
			c-0.12,0.12-0.226,0.168-0.361,0.168c-0.301,0-0.516-0.218-0.516-0.529c0-0.294,0.22-0.527,0.501-0.527
			c0.142,0,0.25,0.051,0.375,0.172V8.064c-0.131-0.067-0.239-0.094-0.368-0.094C49.074,7.97,48.712,8.326,48.712,8.772z"/>
		<polygon class="st11" points="52.319,9.035 51.909,8.005 51.583,8.005 52.234,9.577 52.395,9.577 53.057,8.005 52.733,8.005 		"/>
		<polygon class="st11" points="53.193,9.538 54.041,9.538 54.041,9.278 53.491,9.278 53.491,8.864 54.02,8.864 54.02,8.604 
			53.491,8.604 53.491,8.264 54.041,8.264 54.041,8.005 53.193,8.005 		"/>
		<path class="st11" d="M55.225,8.457c0-0.287-0.198-0.453-0.542-0.453h-0.444v1.533h0.299V8.921h0.039l0.414,0.616h0.368
			l-0.483-0.646C55.101,8.846,55.225,8.692,55.225,8.457z M54.625,8.711h-0.087V8.246h0.092c0.187,0,0.287,0.079,0.287,0.227
			C54.917,8.627,54.816,8.711,54.625,8.711z"/>
		<path class="st12" d="M55.436,8.119c0-0.027-0.018-0.042-0.051-0.042h-0.043v0.135h0.032V8.16l0.038,0.053h0.04l-0.045-0.056
			C55.425,8.152,55.436,8.138,55.436,8.119z M55.379,8.137h-0.006V8.102h0.006c0.017,0,0.024,0.006,0.024,0.017
			S55.395,8.137,55.379,8.137z"/>
		<path class="st12" d="M55.391,8.027c-0.065,0-0.118,0.053-0.118,0.118s0.053,0.118,0.118,0.118c0.064,0,0.116-0.053,0.116-0.118
			S55.456,8.027,55.391,8.027z M55.391,8.241c-0.052,0-0.094-0.042-0.094-0.097c0-0.054,0.042-0.097,0.094-0.097
			c0.051,0,0.093,0.043,0.093,0.097C55.484,8.198,55.442,8.241,55.391,8.241z"/>
	</g>
</g>
</svg>
