<?xml version="1.0" encoding="utf-8"?>
<!-- Generator: Adobe Illustrator 21.1.0, SVG Export Plug-In . SVG Version: 6.00 Build 0)  -->
<svg version="1.1" id="Layer_1" xmlns="http://www.w3.org/2000/svg" xmlns:xlink="http://www.w3.org/1999/xlink" x="0px" y="0px"
	 viewBox="0 0 75 50" style="enable-background:new 0 0 75 50;" xml:space="preserve">
<style type="text/css">
	.st0{fill:#6D8CBC;}
	.st1{fill:#FFFFFF;}
	.st2{fill:#828487;}
	.st3{fill:#50688C;}
	.st4{fill:#BEC0C2;}
</style>
<g>
	<rect x="25.118" y="9.533" class="st0" width="48.812" height="8.51"/>
	<rect x="25.118" y="18.043" class="st1" width="48.812" height="28.401"/>
	<polygon class="st2" points="73.929,46.445 25.118,46.445 26.306,47.542 75.118,47.542 	"/>
	<polygon class="st3" points="75.118,19.14 73.929,18.043 73.929,9.533 75.118,10.63 	"/>
	<polygon class="st4" points="75.118,47.542 73.929,46.445 73.929,18.043 75.118,19.14 	"/>
	<g>
		<path class="st4" d="M36.329,26.224h-2.62l-0.595,1.621h-0.511l2.184-5.771h0.464l2.184,5.771h-0.508L36.329,26.224z
			 M33.86,25.811h2.314l-1.157-3.143L33.86,25.811z"/>
		<path class="st4" d="M40.878,27.845c-0.048-0.135-0.078-0.334-0.091-0.599c-0.167,0.217-0.379,0.384-0.637,0.502
			c-0.257,0.117-0.53,0.176-0.818,0.176c-0.412,0-0.745-0.115-1.001-0.345c-0.255-0.229-0.382-0.521-0.382-0.872
			c0-0.417,0.174-0.747,0.521-0.99c0.347-0.244,0.831-0.366,1.452-0.366h0.86v-0.487c0-0.307-0.095-0.548-0.284-0.724
			c-0.188-0.176-0.464-0.264-0.826-0.264c-0.33,0-0.604,0.085-0.82,0.254s-0.325,0.373-0.325,0.61l-0.476-0.004
			c0-0.341,0.159-0.636,0.476-0.886c0.317-0.25,0.707-0.374,1.17-0.374c0.478,0,0.855,0.119,1.131,0.358s0.419,0.572,0.427,1.001
			v2.03c0,0.414,0.043,0.725,0.131,0.931v0.048L40.878,27.845L40.878,27.845z M39.389,27.504c0.317,0,0.601-0.076,0.851-0.229
			c0.249-0.153,0.431-0.358,0.545-0.614v-0.943h-0.849c-0.473,0.005-0.843,0.092-1.109,0.259c-0.268,0.168-0.4,0.398-0.4,0.692
			c0,0.24,0.089,0.439,0.268,0.598C38.871,27.425,39.104,27.504,39.389,27.504z"/>
	</g>
	<rect x="43.568" y="25.25" class="st4" width="21.75" height="0.75"/>
	<rect x="32.604" y="29.792" class="st4" width="32.714" height="0.75"/>
	<rect x="32.604" y="33.917" class="st4" width="32.714" height="0.75"/>
	<rect x="32.604" y="38.792" class="st4" width="32.714" height="0.75"/>
</g>
<g>
	<rect x="12.5" y="6.995" class="st0" width="48.812" height="8.51"/>
	<rect x="12.5" y="15.505" class="st1" width="48.812" height="28.401"/>
	<polygon class="st2" points="61.312,43.907 12.5,43.907 13.688,45.004 62.5,45.004 	"/>
	<polygon class="st3" points="62.5,16.602 61.312,15.505 61.312,6.995 62.5,8.092 	"/>
	<polygon class="st4" points="62.5,45.004 61.312,43.907 61.312,15.505 62.5,16.602 	"/>
	<g>
		<path class="st4" d="M23.712,23.686h-2.62l-0.595,1.621h-0.511l2.184-5.771h0.464l2.184,5.771H24.31L23.712,23.686z
			 M21.242,23.273h2.314l-1.157-3.143L21.242,23.273z"/>
		<path class="st4" d="M28.261,25.307c-0.048-0.135-0.078-0.334-0.091-0.599c-0.167,0.217-0.379,0.384-0.637,0.502
			c-0.257,0.117-0.53,0.176-0.818,0.176c-0.412,0-0.745-0.115-1.001-0.345c-0.255-0.229-0.382-0.521-0.382-0.872
			c0-0.417,0.174-0.747,0.521-0.99c0.347-0.244,0.831-0.366,1.452-0.366h0.86v-0.487c0-0.307-0.095-0.548-0.284-0.724
			c-0.188-0.176-0.464-0.264-0.826-0.264c-0.33,0-0.604,0.085-0.82,0.254s-0.325,0.373-0.325,0.61l-0.476-0.004
			c0-0.341,0.159-0.636,0.476-0.886c0.317-0.25,0.707-0.374,1.17-0.374c0.478,0,0.855,0.119,1.131,0.358
			c0.276,0.239,0.419,0.572,0.427,1.001v2.03c0,0.414,0.043,0.725,0.131,0.931v0.048L28.261,25.307L28.261,25.307z M26.771,24.966
			c0.317,0,0.601-0.076,0.851-0.229c0.249-0.153,0.431-0.358,0.545-0.614V23.18h-0.849c-0.473,0.005-0.843,0.092-1.109,0.259
			c-0.268,0.168-0.4,0.398-0.4,0.692c0,0.24,0.089,0.439,0.268,0.598C26.254,24.887,26.486,24.966,26.771,24.966z"/>
	</g>
	<rect x="30.95" y="22.712" class="st4" width="21.75" height="0.75"/>
	<rect x="19.986" y="27.254" class="st4" width="32.714" height="0.75"/>
	<rect x="19.986" y="31.379" class="st4" width="32.714" height="0.75"/>
	<rect x="19.986" y="36.254" class="st4" width="32.714" height="0.75"/>
</g>
<g>
	<rect x="0.117" y="3.403" class="st0" width="48.812" height="8.51"/>
	<rect x="0.117" y="11.913" class="st1" width="48.812" height="28.401"/>
	<polygon class="st2" points="48.93,40.315 0.117,40.315 1.305,41.412 50.118,41.412 	"/>
	<polygon class="st3" points="50.118,13.01 48.93,11.913 48.93,3.403 50.118,4.5 	"/>
	<polygon class="st4" points="50.118,41.412 48.93,40.315 48.93,11.913 50.118,13.01 	"/>
	<g>
		<path class="st4" d="M11.33,20.094h-2.62l-0.595,1.621H7.603l2.184-5.771h0.464l2.184,5.771h-0.508L11.33,20.094z M8.859,19.681
			h2.314l-1.157-3.143L8.859,19.681z"/>
		<path class="st4" d="M15.878,21.715c-0.048-0.135-0.078-0.334-0.091-0.599c-0.167,0.217-0.379,0.384-0.637,0.502
			c-0.257,0.117-0.53,0.176-0.818,0.176c-0.412,0-0.745-0.115-1.001-0.345c-0.255-0.229-0.382-0.521-0.382-0.872
			c0-0.417,0.174-0.747,0.521-0.99c0.347-0.244,0.831-0.366,1.452-0.366h0.86v-0.487c0-0.307-0.095-0.548-0.284-0.724
			c-0.188-0.176-0.464-0.264-0.826-0.264c-0.33,0-0.604,0.085-0.82,0.254s-0.325,0.373-0.325,0.61l-0.476-0.004
			c0-0.341,0.159-0.636,0.476-0.886c0.317-0.25,0.707-0.374,1.17-0.374c0.478,0,0.855,0.119,1.131,0.358s0.419,0.572,0.427,1.001
			v2.03c0,0.414,0.043,0.725,0.131,0.931v0.048L15.878,21.715L15.878,21.715z M14.389,21.374c0.317,0,0.601-0.076,0.851-0.229
			c0.249-0.153,0.431-0.358,0.545-0.614v-0.943h-0.849c-0.473,0.005-0.843,0.092-1.109,0.259c-0.268,0.168-0.4,0.398-0.4,0.692
			c0,0.24,0.089,0.439,0.268,0.598C13.872,21.295,14.104,21.374,14.389,21.374z"/>
	</g>
	<rect x="18.568" y="19.12" class="st4" width="21.75" height="0.75"/>
	<rect x="7.603" y="23.662" class="st4" width="32.714" height="0.75"/>
	<rect x="7.603" y="27.787" class="st4" width="32.714" height="0.75"/>
	<rect x="7.603" y="32.662" class="st4" width="32.714" height="0.75"/>
</g>
</svg>
