<?xml version="1.0" encoding="utf-8"?>
<!-- Generator: Adobe Illustrator 21.1.0, SVG Export Plug-In . SVG Version: 6.00 Build 0)  -->
<svg version="1.1" id="Layer_1" xmlns="http://www.w3.org/2000/svg" xmlns:xlink="http://www.w3.org/1999/xlink" x="0px" y="0px"
	 viewBox="0 0 50 50" style="enable-background:new 0 0 50 50;" xml:space="preserve">
<style type="text/css">
	.st0{fill:#6D8CBC;}
	.st1{fill:#FFFFFF;}
	.st2{fill:#828487;}
	.st3{fill:#50688C;}
	.st4{fill:#BEC0C2;}
</style>
<rect y="6.454" class="st0" width="48.812" height="8.51"/>
<rect y="14.964" class="st1" width="48.812" height="28.401"/>
<polygon class="st2" points="48.812,43.366 0,43.366 1.188,44.463 50,44.463 "/>
<polygon class="st3" points="50,16.061 48.812,14.964 48.812,6.454 50,7.551 "/>
<polygon class="st4" points="50,44.463 48.812,43.366 48.812,14.964 50,16.061 "/>
<g>
	<path class="st4" d="M11.212,23.145h-2.62l-0.595,1.621H7.486l2.184-5.771h0.464l2.184,5.771H11.81L11.212,23.145z M8.742,22.732
		h2.314l-1.157-3.143L8.742,22.732z"/>
	<path class="st4" d="M15.761,24.766c-0.048-0.135-0.078-0.334-0.091-0.599c-0.167,0.217-0.379,0.384-0.637,0.502
		c-0.257,0.117-0.53,0.176-0.818,0.176c-0.412,0-0.745-0.115-1.001-0.345c-0.255-0.229-0.382-0.521-0.382-0.872
		c0-0.417,0.174-0.747,0.521-0.99c0.347-0.244,0.831-0.366,1.452-0.366h0.86v-0.487c0-0.307-0.095-0.548-0.284-0.724
		c-0.188-0.176-0.464-0.264-0.826-0.264c-0.33,0-0.604,0.085-0.82,0.254s-0.325,0.373-0.325,0.61l-0.476-0.004
		c0-0.341,0.159-0.636,0.476-0.886c0.317-0.25,0.707-0.374,1.17-0.374c0.478,0,0.855,0.119,1.131,0.358
		c0.276,0.239,0.419,0.572,0.427,1.001v2.03c0,0.414,0.043,0.725,0.131,0.931v0.048H15.761z M14.271,24.425
		c0.317,0,0.601-0.076,0.851-0.229c0.249-0.153,0.431-0.358,0.545-0.614v-0.943h-0.849c-0.473,0.005-0.843,0.092-1.109,0.259
		c-0.268,0.168-0.4,0.398-0.4,0.692c0,0.24,0.089,0.439,0.268,0.598C13.754,24.346,13.986,24.425,14.271,24.425z"/>
</g>
<rect x="18.45" y="22.171" class="st4" width="21.75" height="0.75"/>
<rect x="7.486" y="26.713" class="st4" width="32.714" height="0.75"/>
<rect x="7.486" y="30.838" class="st4" width="32.714" height="0.75"/>
<rect x="7.486" y="35.713" class="st4" width="32.714" height="0.75"/>
</svg>
