<?xml version="1.0" encoding="utf-8"?>
<!-- Generator: Adobe Illustrator 21.1.0, SVG Export Plug-In . SVG Version: 6.00 Build 0)  -->
<svg version="1.1" id="Layer_1" xmlns="http://www.w3.org/2000/svg" xmlns:xlink="http://www.w3.org/1999/xlink" x="0px" y="0px"
	 viewBox="0 0 50 50" style="enable-background:new 0 0 50 50;" xml:space="preserve">
<style type="text/css">
	.st0{fill:#405461;}
	.st1{fill:#333D47;}
	.st2{fill:#242E33;}
	.st3{fill:#EE4649;}
	.st4{fill:#FFFFFF;}
	.st5{fill:#F9BE13;}
	.st6{fill:#F89C1E;}
</style>
<g>
	<polygon class="st0" points="25.136,0.053 27.458,3.077 30.362,0.599 32.002,4.038 35.36,2.214 36.245,5.917 39.911,4.827 
		40.003,8.632 43.817,8.325 43.111,12.064 46.906,12.553 45.433,16.066 49.043,17.327 46.869,20.459 50.136,22.439 47.354,25.053 
		50.136,27.666 46.869,29.647 49.043,32.778 45.433,34.04 46.906,37.553 43.111,38.04 43.817,41.781 40.003,41.473 39.911,45.278 
		36.245,44.188 35.36,47.891 32.002,46.067 30.362,49.507 27.458,47.028 25.136,50.053 22.814,47.028 19.91,49.507 18.27,46.067 
		14.911,47.891 14.027,44.188 10.36,45.278 10.27,41.473 6.455,41.781 7.161,38.04 3.366,37.553 4.839,34.04 1.229,32.778 
		3.403,29.647 0.136,27.666 2.918,25.053 0.136,22.439 3.403,20.459 1.229,17.327 4.839,16.066 3.366,12.553 7.161,12.064 
		6.455,8.325 10.27,8.632 10.36,4.827 14.027,5.917 14.911,2.214 18.27,4.038 19.91,0.599 22.814,3.077 	"/>
</g>
<g>
	<polygon class="st1" points="46.868,20.459 49.044,17.327 45.433,16.066 46.906,12.553 43.11,12.064 43.817,8.325 40.003,8.632 
		39.912,4.827 36.245,5.917 35.36,2.214 32.002,4.038 30.362,0.599 27.458,3.077 25.136,0.053 25.1,0.099 25.1,50.006 
		25.136,50.053 27.458,47.028 30.362,49.507 32.002,46.067 35.36,47.891 36.245,44.188 39.912,45.278 40.003,41.473 43.817,41.781 
		43.11,38.04 46.906,37.553 45.433,34.04 49.044,32.778 46.868,29.647 50.136,27.666 47.354,25.053 50.136,22.439 	"/>
</g>
<g>
	<polygon class="st2" points="45.433,34.04 49.043,32.778 46.869,29.647 49.117,28.283 29.385,14.692 24.294,14.391 19.81,16.503 
		17.745,21.438 19.56,25.918 16.891,24.324 17.052,32.763 36.113,44.743 36.245,44.188 39.911,45.278 40.003,41.473 43.817,41.781 
		43.111,38.04 46.906,37.553 	"/>
	<g>
		<g>
			<g>
				<path class="st3" d="M19.953,28.25c-0.476-0.19-0.897-0.517-1.206-0.928c-0.077-0.104-0.144-0.219-0.209-0.321
					c-0.054-0.097-0.102-0.199-0.143-0.304c-0.031-0.08-0.121-0.623-0.162-0.642c-0.048-0.024-0.095-0.053-0.141-0.082
					c-0.457-0.276-0.836-0.72-1.064-1.252c-0.056-0.131-0.101-0.265-0.138-0.398l-4.089,3.602c-0.214,0.189-0.131,0.542,0.145,0.615
					l3.066,0.813l0.449,3.191c0.04,0.283,0.376,0.407,0.59,0.219l4.159-3.662c-0.231-0.198-0.425-0.43-0.564-0.682
					C20.414,28.397,20.181,28.341,19.953,28.25z"/>
			</g>
			<g>
				<path class="st3" d="M33.54,24.324c-0.036,0.136-0.083,0.268-0.138,0.399c-0.225,0.533-0.596,0.977-1.062,1.259
					c-0.04,0.026-0.089,0.054-0.137,0.078c-0.039,0.021-0.125,0.563-0.157,0.645c-0.065,0.163-0.148,0.307-0.238,0.47
					c-0.039,0.041-0.071,0.105-0.111,0.156c-0.305,0.412-0.723,0.743-1.2,0.937c-0.228,0.092-0.462,0.15-0.693,0.17
					c-0.139,0.254-0.331,0.485-0.56,0.684l4.177,3.641c0.215,0.188,0.552,0.061,0.589-0.222l0.433-3.193l3.062-0.829
					c0.275-0.074,0.357-0.428,0.141-0.615L33.54,24.324z"/>
			</g>
			<g>
				<path class="st3" d="M29.967,24.531c0.187-0.285,0.349-0.587,0.482-0.901c0.295-0.695,0.442-1.434,0.442-2.194
					c0-0.76-0.15-1.499-0.442-2.194c-0.283-0.671-0.69-1.275-1.209-1.792c-0.517-0.517-1.12-0.924-1.792-1.209
					c-0.547-0.232-1.13-0.374-1.722-0.423c-0.175-0.014-0.353-0.019-0.529-0.019c-0.76,0-1.499,0.15-2.194,0.442
					c-0.671,0.283-1.275,0.69-1.792,1.209c-0.517,0.517-0.924,1.12-1.209,1.792c-0.295,0.695-0.442,1.434-0.442,2.194
					c0,0.76,0.15,1.499,0.442,2.194c0.133,0.313,0.295,0.615,0.482,0.901c0.211,0.32,0.456,0.62,0.728,0.894
					c0.517,0.517,1.12,0.924,1.792,1.209c0.601,0.255,1.237,0.4,1.89,0.435c0.22,0.012,0.442,0.012,0.662,0
					c0.655-0.035,1.291-0.18,1.892-0.435c0.671-0.283,1.275-0.69,1.792-1.209C29.511,25.151,29.757,24.852,29.967,24.531z"/>
			</g>
			<g>
				<path class="st3" d="M26.891,29.093c0.07,0,0.143,0.012,0.213,0.037c0.823,0.292,1.881-0.147,2.253-0.936
					c0.103-0.218,0.313-0.358,0.552-0.367c0.873-0.04,1.684-0.849,1.731-1.719c0.012-0.234,0.15-0.44,0.36-0.538
					c0.788-0.377,1.226-1.434,0.931-2.255c-0.082-0.225-0.03-0.475,0.131-0.65c0.589-0.646,0.589-1.792,0.009-2.44
					c-0.157-0.173-0.203-0.416-0.126-0.636c0.292-0.823-0.147-1.881-0.936-2.253c-0.218-0.103-0.358-0.313-0.367-0.552
					c-0.019-0.398-0.208-0.828-0.557-1.177c-0.344-0.344-0.77-0.533-1.163-0.554c-0.234-0.012-0.44-0.15-0.538-0.36
					c-0.171-0.356-0.508-0.678-0.957-0.866c-0.255-0.105-0.515-0.157-0.76-0.157c-0.192,0-0.374,0.03-0.54,0.089
					c-0.073,0.026-0.145,0.037-0.22,0.037c-0.157,0-0.313-0.056-0.433-0.168c-0.292-0.269-0.735-0.437-1.226-0.437
					c-0.016,0-0.035,0-0.051,0c-0.491,0-0.931,0.168-1.223,0.437c-0.122,0.11-0.276,0.168-0.433,0.168
					c-0.073,0-0.147-0.012-0.218-0.037c-0.164-0.058-0.349-0.089-0.54-0.089c-0.246,0-0.505,0.049-0.76,0.157
					c-0.449,0.187-0.786,0.508-0.957,0.866c-0.101,0.211-0.306,0.349-0.538,0.36c-0.393,0.021-0.819,0.211-1.163,0.554
					c-0.349,0.349-0.538,0.779-0.557,1.177c-0.012,0.239-0.152,0.449-0.367,0.552c-0.788,0.372-1.228,1.429-0.936,2.253
					c0.077,0.22,0.03,0.463-0.126,0.636c-0.582,0.648-0.58,1.794,0.009,2.44c0.161,0.178,0.211,0.426,0.131,0.65
					c-0.295,0.821,0.143,1.878,0.931,2.255c0.211,0.101,0.349,0.306,0.36,0.538c0.047,0.87,0.859,1.68,1.731,1.719
					c0.239,0.012,0.449,0.152,0.552,0.367c0.026,0.054,0.054,0.105,0.087,0.157c0.014,0.021,0.028,0.042,0.042,0.063
					c0.449,0.648,1.383,0.98,2.126,0.716c0.07-0.026,0.14-0.037,0.213-0.037c0.154,0,0.304,0.056,0.423,0.161
					c0.335,0.299,0.791,0.437,1.237,0.43c0.468,0.007,0.908-0.131,1.242-0.43C26.582,29.149,26.737,29.093,26.891,29.093z
					 M25.249,27.895c-0.877,0.002-1.754-0.166-2.564-0.508c-0.77-0.325-1.46-0.791-2.051-1.385
					c-0.313-0.313-0.592-0.655-0.833-1.022c-0.213-0.325-0.398-0.669-0.552-1.032c-0.337-0.795-0.508-1.642-0.508-2.515
					c0-0.873,0.171-1.717,0.508-2.515c0.325-0.77,0.791-1.46,1.385-2.052c0.592-0.592,1.284-1.057,2.051-1.385
					c0.55-0.232,1.13-0.388,1.722-0.461c0.281-0.035,0.559-0.047,0.842-0.047c0.873,0,1.722,0.171,2.517,0.508
					c0.77,0.325,1.46,0.791,2.052,1.385c0.592,0.592,1.057,1.284,1.385,2.052c0.337,0.795,0.508,1.642,0.508,2.515
					c0,0.873-0.171,1.717-0.508,2.515c-0.152,0.363-0.337,0.706-0.552,1.032c-0.241,0.365-0.519,0.709-0.833,1.022
					c-0.592,0.592-1.284,1.057-2.054,1.385c-0.69,0.292-1.42,0.458-2.168,0.498C25.48,27.89,25.366,27.895,25.249,27.895z"/>
			</g>
		</g>
	</g>
</g>
<g>
	<g>
		<path class="st4" d="M29.176,45.464c-0.075,0-0.142-0.053-0.157-0.13c-0.017-0.086,0.04-0.17,0.127-0.188
			c0.507-0.099,1.019-0.22,1.521-0.359c0.091-0.023,0.174,0.027,0.197,0.111c0.023,0.085-0.026,0.174-0.111,0.197
			c-0.511,0.142-1.03,0.264-1.546,0.365C29.196,45.463,29.186,45.464,29.176,45.464z M35.489,43.107
			c-0.056,0-0.109-0.029-0.139-0.08c-0.044-0.077-0.018-0.175,0.059-0.219c1.49-0.854,2.872-1.896,4.107-3.095
			c0.063-0.061,0.163-0.06,0.227,0.004c0.062,0.063,0.06,0.165-0.004,0.227c-1.255,1.217-2.657,2.273-4.17,3.142
			C35.544,43.101,35.517,43.107,35.489,43.107z M42.868,35.945c-0.028,0-0.058-0.008-0.084-0.023
			c-0.075-0.047-0.099-0.146-0.053-0.221c0.9-1.467,1.611-3.043,2.113-4.687c0.026-0.084,0.116-0.135,0.2-0.106
			c0.084,0.026,0.132,0.115,0.106,0.2c-0.511,1.669-1.232,3.271-2.146,4.761C42.975,35.918,42.922,35.945,42.868,35.945z"/>
	</g>
	<g>
		<path class="st4" d="M19.125,44.976c-0.015,0-0.031-0.002-0.046-0.007c-1.672-0.503-3.278-1.216-4.774-2.118
			c-0.076-0.045-0.1-0.144-0.055-0.22c0.046-0.076,0.145-0.1,0.22-0.054c1.473,0.889,3.055,1.59,4.701,2.085
			c0.085,0.025,0.133,0.115,0.107,0.199C19.257,44.931,19.193,44.976,19.125,44.976z M10.318,39.665
			c-0.042,0-0.083-0.016-0.114-0.048c-1.228-1.245-2.296-2.64-3.174-4.146c-0.044-0.077-0.019-0.175,0.058-0.22
			c0.076-0.044,0.174-0.02,0.219,0.058c0.865,1.483,1.917,2.856,3.125,4.083c0.062,0.062,0.062,0.164-0.001,0.227
			C10.399,39.649,10.358,39.665,10.318,39.665z M5.145,30.783c-0.07,0-0.134-0.046-0.154-0.117c-0.143-0.506-0.268-1.025-0.37-1.544
			c-0.018-0.087,0.039-0.171,0.125-0.188c0.092-0.015,0.17,0.039,0.188,0.126c0.102,0.51,0.224,1.021,0.364,1.521
			c0.024,0.085-0.025,0.173-0.11,0.197C5.174,30.781,5.159,30.783,5.145,30.783z"/>
	</g>
	<g>
		<path class="st4" d="M5.273,19.204c-0.016,0-0.031-0.002-0.047-0.007c-0.084-0.026-0.132-0.115-0.106-0.2
			c0.509-1.667,1.231-3.27,2.146-4.761c0.046-0.076,0.145-0.1,0.22-0.053c0.076,0.046,0.099,0.145,0.053,0.22
			c-0.9,1.469-1.611,3.045-2.113,4.688C5.405,19.16,5.342,19.204,5.273,19.204z M10.644,10.436c-0.042,0-0.083-0.017-0.115-0.049
			c-0.062-0.063-0.06-0.165,0.003-0.226c1.254-1.216,2.657-2.273,4.171-3.141c0.075-0.044,0.174-0.018,0.218,0.059
			c0.044,0.077,0.018,0.174-0.059,0.218c-1.491,0.855-2.873,1.896-4.107,3.093C10.724,10.421,10.684,10.436,10.644,10.436z
			 M19.563,5.324c-0.07,0-0.135-0.047-0.154-0.118c-0.023-0.085,0.026-0.173,0.112-0.197c0.505-0.139,1.024-0.262,1.545-0.365
			c0.085-0.018,0.171,0.04,0.188,0.126c0.017,0.086-0.039,0.171-0.126,0.188c-0.512,0.101-1.024,0.222-1.521,0.359
			C19.592,5.322,19.578,5.324,19.563,5.324z"/>
	</g>
	<g>
		<path class="st4" d="M45.494,21.174c-0.075,0-0.142-0.053-0.157-0.129c-0.1-0.504-0.223-1.016-0.364-1.519
			c-0.023-0.085,0.025-0.173,0.111-0.197c0.079-0.026,0.172,0.025,0.197,0.11c0.144,0.512,0.269,1.031,0.37,1.543
			c0.017,0.087-0.039,0.171-0.126,0.188C45.515,21.173,45.504,21.174,45.494,21.174z M43.104,14.875
			c-0.055,0-0.108-0.029-0.139-0.08c-0.863-1.482-1.914-2.855-3.125-4.083c-0.062-0.063-0.061-0.164,0.002-0.226
			c0.062-0.062,0.164-0.062,0.227,0.001c1.229,1.247,2.297,2.642,3.174,4.146c0.044,0.076,0.019,0.174-0.059,0.219
			C43.159,14.867,43.131,14.875,43.104,14.875z M35.885,7.551c-0.028,0-0.057-0.007-0.083-0.023c-1.473-0.889-3.055-1.59-4.7-2.085
			c-0.085-0.025-0.133-0.115-0.107-0.199c0.025-0.085,0.115-0.13,0.199-0.107c1.672,0.502,3.277,1.215,4.774,2.117
			c0.075,0.046,0.1,0.144,0.054,0.22C35.992,7.523,35.938,7.551,35.885,7.551z"/>
	</g>
	<g>
		<path class="st4" d="M25.136,45.854c-0.68,0-1.368-0.033-2.044-0.099c-0.088-0.009-0.153-0.087-0.144-0.175
			c0.008-0.087,0.087-0.162,0.174-0.144c1.333,0.129,2.696,0.129,4.028,0c0.1-0.023,0.166,0.057,0.175,0.144
			c0.009,0.088-0.056,0.166-0.144,0.175C26.504,45.821,25.815,45.854,25.136,45.854z M4.479,27.242
			c-0.082,0-0.151-0.062-0.159-0.145c-0.066-0.679-0.1-1.366-0.1-2.045c0-0.679,0.034-1.367,0.1-2.045
			c0.008-0.088,0.073-0.154,0.175-0.144c0.088,0.008,0.152,0.087,0.144,0.175c-0.065,0.667-0.098,1.345-0.098,2.014
			c0,0.668,0.033,1.346,0.098,2.014c0.009,0.088-0.056,0.166-0.144,0.175C4.489,27.242,4.484,27.242,4.479,27.242z M45.793,27.242
			c-0.005,0-0.011,0-0.016-0.001c-0.088-0.009-0.152-0.087-0.144-0.175c0.064-0.663,0.098-1.341,0.098-2.014
			c0-0.674-0.033-1.351-0.098-2.014c-0.009-0.088,0.056-0.166,0.144-0.175c0.089-0.012,0.167,0.056,0.175,0.144
			c0.066,0.673,0.1,1.361,0.1,2.045c0,0.684-0.033,1.371-0.1,2.045C45.944,27.181,45.874,27.242,45.793,27.242z M27.165,4.668
			c-0.005,0-0.01,0-0.016-0.001c-1.327-0.128-2.701-0.128-4.028,0c-0.086,0.002-0.167-0.056-0.174-0.144
			c-0.009-0.088,0.056-0.166,0.144-0.174c1.346-0.13,2.742-0.13,4.089,0c0.088,0.008,0.152,0.086,0.144,0.174
			C27.316,4.606,27.247,4.668,27.165,4.668z"/>
	</g>
	<g>
		<path class="st4" d="M25.136,45.008c-11.063,0-20.063-8.952-20.063-19.955c0-11.003,9-19.956,20.063-19.956
			c11.063,0,20.063,8.952,20.063,19.956C45.199,36.056,36.199,45.008,25.136,45.008z M25.136,5.736
			c-10.711,0-19.425,8.666-19.425,19.317s8.714,19.316,19.425,19.316s19.425-8.665,19.425-19.316S35.847,5.736,25.136,5.736z"/>
	</g>
	<g>
		<path class="st4" d="M15.66,13.95l-0.709-0.646c2.602-2.854,6.314-4.492,10.185-4.492c3.43,0,6.715,1.264,9.249,3.559
			l-0.645,0.711c-2.357-2.135-5.413-3.311-8.604-3.311C21.534,9.771,18.081,11.294,15.66,13.95z"/>
	</g>
</g>
<g>
	<g>
		<path class="st5" d="M12.634,16.815c-0.121,0.602-0.597,0.881-1.078,0.836c-0.283-0.029-0.546-0.418-0.425-1.023
			c0.12-0.606,1.212-1.004,1.557-1.408C12.773,15.121,12.755,16.208,12.634,16.815"/>
	</g>
	<g>
		<path class="st5" d="M12.317,19.26c-0.437,0.451-0.961,0.477-1.304,0.229c-0.205-0.148-0.189-0.588,0.249-1.041
			c0.436-0.456,1.505-0.312,2.001-0.499C13.383,17.905,12.753,18.806,12.317,19.26"/>
	</g>
	<g>
		<path class="st5" d="M9.072,18.438c-0.172,0.565,0.12,0.929,0.566,1.009c0.261,0.05,0.674-0.23,0.845-0.792
			c0.172-0.567-0.608-1.192-0.728-1.637C9.728,16.907,9.242,17.874,9.072,18.438"/>
	</g>
	<g>
		<path class="st5" d="M11.28,21.848c-0.35,0.511-0.874,0.61-1.268,0.419c-0.233-0.112-0.301-0.549,0.047-1.057
			c0.349-0.511,1.45-0.53,1.909-0.793C12.081,20.355,11.627,21.339,11.28,21.848"/>
	</g>
	<g>
		<path class="st5" d="M7.919,21.428c-0.061,0.58,0.302,0.894,0.765,0.906c0.271,0.008,0.627-0.332,0.688-0.91
			c0.063-0.575-0.84-1.069-1.044-1.489C8.27,19.818,7.981,20.856,7.919,21.428"/>
	</g>
	<g>
		<path class="st5" d="M10.765,24.742c-0.167,0.572-0.649,0.804-1.101,0.728c-0.268-0.048-0.484-0.438-0.317-1.009
			c0.165-0.572,1.236-0.883,1.598-1.25C11.033,23.123,10.932,24.168,10.765,24.742"/>
	</g>
	<g>
		<path class="st5" d="M7.42,25.033c0.138,0.56,0.602,0.758,1.06,0.645c0.268-0.064,0.497-0.477,0.358-1.037
			c-0.137-0.559-1.186-0.782-1.531-1.119C7.199,23.415,7.284,24.486,7.42,25.033"/>
	</g>
	<g>
		<path class="st5" d="M11.335,27.592c-0.029,0.588-0.46,0.898-0.928,0.907c-0.276,0.008-0.587-0.329-0.559-0.915
			c0.028-0.587,1.021-1.087,1.294-1.507C11.208,25.972,11.362,27.009,11.335,27.592"/>
	</g>
	<g>
		<path class="st5" d="M8.145,28.359c0.272,0.518,0.783,0.624,1.211,0.433c0.251-0.114,0.376-0.563,0.104-1.078
			c-0.273-0.517-1.366-0.534-1.793-0.797C7.519,26.824,7.877,27.854,8.145,28.359"/>
	</g>
	<g>
		<path class="st5" d="M12.365,30.629c0.058,0.586-0.341,0.943-0.814,1.006c-0.28,0.038-0.644-0.261-0.702-0.848
			c-0.058-0.586,0.872-1.197,1.086-1.646C11.987,29.03,12.305,30.043,12.365,30.629"/>
	</g>
	<g>
		<path class="st5" d="M9.321,31.708c0.353,0.484,0.885,0.529,1.29,0.29c0.237-0.144,0.288-0.602-0.064-1.086
			c-0.353-0.483-1.454-0.372-1.922-0.585C8.43,30.237,8.982,31.242,9.321,31.708"/>
	</g>
	<g>
		<path class="st5" d="M13.729,33.362c0.143,0.574-0.213,0.97-0.679,1.086c-0.275,0.067-0.685-0.189-0.828-0.759
			c-0.142-0.575,0.705-1.283,0.856-1.75C13.114,31.823,13.586,32.791,13.729,33.362"/>
	</g>
	<g>
		<path class="st5" d="M10.882,34.696c0.423,0.439,0.966,0.425,1.339,0.144c0.218-0.168,0.197-0.63-0.226-1.068
			c-0.424-0.438-1.509-0.206-2.011-0.364C9.759,33.337,10.477,34.276,10.882,34.696"/>
	</g>
	<g>
		<path class="st5" d="M15.599,35.5c0.338,0.5,0.12,0.966-0.296,1.198c-0.246,0.14-0.736,0.007-1.074-0.494
			c-0.337-0.5,0.25-1.389,0.234-1.868C14.461,34.218,15.263,35,15.599,35.5"/>
	</g>
	<g>
		<path class="st5" d="M13.08,37.395c0.565,0.3,1.092,0.144,1.36-0.221c0.157-0.217-0.027-0.641-0.594-0.941
			c-0.567-0.299-1.546,0.206-2.093,0.192C11.494,36.417,12.542,37.111,13.08,37.395"/>
	</g>
	<g>
		<path class="st5" d="M17.745,36.943c0.397,0.467,0.225,0.951-0.168,1.218c-0.231,0.159-0.739,0.071-1.136-0.396
			c-0.397-0.467,0.095-1.402,0.024-1.879C16.447,35.77,17.349,36.477,17.745,36.943"/>
	</g>
	<g>
		<path class="st5" d="M15.632,39.368c0.603,0.248,1.116,0.046,1.344-0.34c0.133-0.226-0.105-0.635-0.71-0.882
			c-0.605-0.245-1.529,0.339-2.08,0.372C13.905,38.534,15.061,39.134,15.632,39.368"/>
	</g>
	<g>
		<path class="st5" d="M20.077,38.184c0.472,0.412,0.375,0.911,0.022,1.223c-0.207,0.185-0.731,0.16-1.206-0.249
			c-0.473-0.412-0.131-1.394-0.276-1.855C18.58,37.19,19.604,37.77,20.077,38.184"/>
	</g>
	<g>
		<path class="st5" d="M18.697,40.937c0.647,0.169,1.13-0.093,1.296-0.5c0.1-0.245-0.211-0.613-0.858-0.782
			c-0.649-0.168-1.477,0.522-2.026,0.625C16.812,40.332,18.091,40.78,18.697,40.937"/>
	</g>
	<g>
		<path class="st5" d="M22.635,38.821c0.52,0.369,0.468,0.878,0.145,1.22c-0.19,0.199-0.72,0.218-1.242-0.155
			c-0.519-0.37-0.275-1.376-0.471-1.824C21.019,37.95,22.117,38.449,22.635,38.821"/>
	</g>
	<g>
		<path class="st5" d="M22.183,41.772c0.668,0.116,1.128-0.183,1.253-0.603c0.075-0.249-0.282-0.592-0.951-0.707
			c-0.67-0.116-1.428,0.638-1.971,0.78C20.204,41.327,21.559,41.663,22.183,41.772"/>
	</g>
	<g>
		<path class="st5" d="M11.619,17.341c0,0-0.126,0.056-0.296,0.245c-0.174,0.182-0.395,0.483-0.628,0.897
			c-0.468,0.819-0.978,2.096-1.25,3.697c-0.27,1.599-0.278,3.526,0.198,5.497c0.225,0.986,0.598,1.963,1.023,2.941
			c0.429,0.974,0.933,1.932,1.523,2.834c1.174,1.808,2.749,3.329,4.435,4.42c0.412,0.286,0.861,0.518,1.271,0.749
			c0.442,0.208,0.872,0.432,1.297,0.593c0.843,0.36,1.692,0.602,2.472,0.814c0.784,0.195,1.515,0.347,2.162,0.475
			c2.203,0.432,3.172,1.301,3.172,1.301l-0.002,0.04l-0.349,0.602c0,0-0.416-1.255-2.858-1.707c-0.654-0.12-1.403-0.21-2.205-0.388
			c-0.8-0.194-1.66-0.415-2.548-0.768c-0.456-0.155-0.88-0.373-1.323-0.585c-0.446-0.25-0.888-0.481-1.316-0.778
			c-1.744-1.112-3.325-2.724-4.491-4.587c-0.588-0.928-1.087-1.91-1.506-2.901c-0.414-0.989-0.781-1.996-0.995-3
			c-0.459-2.011-0.411-3.966-0.106-5.575c0.306-1.615,0.845-2.888,1.331-3.708c0.245-0.413,0.472-0.714,0.654-0.896
			c0.182-0.189,0.312-0.245,0.312-0.245L11.619,17.341z"/>
	</g>
</g>
<g>
	<g>
		<path class="st6" d="M37.813,16.815c0.12,0.602,0.595,0.881,1.077,0.836c0.283-0.029,0.547-0.418,0.426-1.023
			c-0.121-0.606-1.213-1.004-1.559-1.408C37.672,15.121,37.691,16.208,37.813,16.815"/>
	</g>
	<g>
		<path class="st6" d="M38.129,19.26c0.438,0.451,0.962,0.477,1.307,0.229c0.203-0.148,0.186-0.588-0.25-1.041
			c-0.437-0.456-1.506-0.312-2.001-0.499C37.063,17.905,37.695,18.806,38.129,19.26"/>
	</g>
	<g>
		<path class="st6" d="M41.376,18.438c0.17,0.565-0.121,0.929-0.567,1.009c-0.26,0.05-0.674-0.23-0.844-0.792
			c-0.172-0.567,0.608-1.192,0.727-1.637C40.721,16.907,41.203,17.874,41.376,18.438"/>
	</g>
	<g>
		<path class="st6" d="M39.167,21.848c0.35,0.511,0.873,0.61,1.269,0.419c0.232-0.112,0.301-0.549-0.049-1.057
			c-0.349-0.511-1.449-0.53-1.908-0.793C38.365,20.355,38.818,21.339,39.167,21.848"/>
	</g>
	<g>
		<path class="st6" d="M42.528,21.428c0.06,0.58-0.303,0.894-0.765,0.906c-0.271,0.008-0.627-0.332-0.688-0.91
			c-0.064-0.575,0.839-1.069,1.044-1.489C42.177,19.818,42.466,20.856,42.528,21.428"/>
	</g>
	<g>
		<path class="st6" d="M39.681,24.742c0.167,0.572,0.649,0.804,1.102,0.728c0.266-0.048,0.483-0.438,0.317-1.009
			c-0.167-0.572-1.237-0.883-1.599-1.25C39.414,23.123,39.514,24.168,39.681,24.742"/>
	</g>
	<g>
		<path class="st6" d="M43.026,25.033c-0.139,0.56-0.602,0.758-1.06,0.645c-0.268-0.064-0.497-0.477-0.358-1.037
			c0.139-0.559,1.186-0.782,1.531-1.119C43.247,23.415,43.163,24.486,43.026,25.033"/>
	</g>
	<g>
		<path class="st6" d="M39.111,27.592c0.029,0.588,0.46,0.898,0.928,0.907c0.278,0.008,0.587-0.329,0.558-0.915
			c-0.027-0.587-1.019-1.087-1.292-1.507C39.238,25.972,39.083,27.009,39.111,27.592"/>
	</g>
	<g>
		<path class="st6" d="M42.303,28.359c-0.272,0.518-0.784,0.624-1.212,0.433c-0.25-0.114-0.377-0.563-0.103-1.078
			c0.272-0.517,1.365-0.534,1.792-0.797C42.926,26.824,42.568,27.854,42.303,28.359"/>
	</g>
	<g>
		<path class="st6" d="M38.082,30.629c-0.057,0.586,0.342,0.943,0.815,1.006c0.278,0.038,0.644-0.261,0.701-0.848
			c0.057-0.586-0.872-1.197-1.086-1.646C38.46,29.03,38.14,30.043,38.082,30.629"/>
	</g>
	<g>
		<path class="st6" d="M41.126,31.708c-0.352,0.484-0.885,0.529-1.29,0.29c-0.238-0.144-0.289-0.602,0.065-1.086
			c0.353-0.483,1.452-0.372,1.92-0.585C42.015,30.237,41.465,31.242,41.126,31.708"/>
	</g>
	<g>
		<path class="st6" d="M36.717,33.362c-0.143,0.574,0.215,0.97,0.68,1.086c0.274,0.067,0.684-0.189,0.827-0.759
			c0.143-0.575-0.704-1.283-0.855-1.75C37.332,31.823,36.86,32.791,36.717,33.362"/>
	</g>
	<g>
		<path class="st6" d="M39.564,34.696c-0.424,0.439-0.965,0.425-1.338,0.144c-0.22-0.168-0.198-0.63,0.225-1.068
			c0.424-0.438,1.51-0.206,2.013-0.364C40.688,33.337,39.97,34.276,39.564,34.696"/>
	</g>
	<g>
		<path class="st6" d="M34.846,35.5c-0.337,0.5-0.119,0.966,0.297,1.198c0.246,0.14,0.735,0.007,1.071-0.494
			c0.339-0.5-0.248-1.389-0.232-1.868C35.986,34.218,35.184,35,34.846,35.5"/>
	</g>
	<g>
		<path class="st6" d="M37.368,37.395c-0.567,0.3-1.094,0.144-1.361-0.221c-0.157-0.217,0.026-0.641,0.593-0.941
			c0.569-0.299,1.546,0.206,2.093,0.192C38.953,36.417,37.904,37.111,37.368,37.395"/>
	</g>
	<g>
		<path class="st6" d="M32.701,36.943c-0.397,0.467-0.225,0.951,0.169,1.218c0.23,0.159,0.738,0.071,1.135-0.396
			c0.398-0.467-0.094-1.402-0.024-1.879C34,35.77,33.097,36.477,32.701,36.943"/>
	</g>
	<g>
		<path class="st6" d="M34.814,39.368c-0.603,0.248-1.116,0.046-1.343-0.34c-0.135-0.226,0.104-0.635,0.71-0.882
			c0.603-0.245,1.528,0.339,2.081,0.372C36.541,38.534,35.385,39.134,34.814,39.368"/>
	</g>
	<g>
		<path class="st6" d="M30.369,38.184c-0.472,0.412-0.374,0.911-0.022,1.223c0.206,0.185,0.732,0.16,1.205-0.249
			c0.475-0.412,0.133-1.394,0.278-1.855C31.867,37.19,30.842,37.77,30.369,38.184"/>
	</g>
	<g>
		<path class="st6" d="M31.749,40.937c-0.649,0.169-1.13-0.093-1.297-0.5c-0.098-0.245,0.212-0.613,0.859-0.782
			c0.649-0.168,1.476,0.522,2.027,0.625C33.634,40.332,32.355,40.78,31.749,40.937"/>
	</g>
	<g>
		<path class="st6" d="M27.812,38.821c-0.52,0.369-0.468,0.878-0.144,1.22c0.189,0.199,0.718,0.218,1.241-0.155
			c0.52-0.37,0.275-1.376,0.471-1.824C29.428,37.95,28.33,38.449,27.812,38.821"/>
	</g>
	<g>
		<path class="st6" d="M28.264,41.772c-0.67,0.116-1.129-0.183-1.255-0.603c-0.074-0.249,0.282-0.592,0.951-0.707
			c0.671-0.116,1.429,0.638,1.972,0.78C30.242,41.327,28.887,41.663,28.264,41.772"/>
	</g>
	<g>
		<path class="st6" d="M38.828,17.341c0,0,0.125,0.056,0.296,0.245c0.176,0.182,0.393,0.483,0.629,0.897
			c0.466,0.819,0.977,2.096,1.248,3.697c0.271,1.599,0.28,3.526-0.198,5.497c-0.224,0.986-0.597,1.963-1.023,2.941
			c-0.428,0.974-0.932,1.932-1.523,2.834c-1.173,1.808-2.747,3.329-4.434,4.42c-0.413,0.286-0.861,0.518-1.272,0.749
			c-0.442,0.208-0.872,0.432-1.297,0.593c-0.842,0.36-1.692,0.602-2.471,0.814c-0.785,0.195-1.515,0.347-2.162,0.475
			c-2.204,0.432-3.172,1.301-3.172,1.301l0.002,0.04l0.349,0.602c0,0,0.414-1.255,2.858-1.707c0.653-0.12,1.402-0.21,2.204-0.388
			c0.8-0.194,1.661-0.415,2.548-0.768c0.457-0.155,0.881-0.373,1.323-0.585c0.446-0.25,0.888-0.481,1.316-0.778
			c1.744-1.112,3.326-2.724,4.491-4.587c0.588-0.928,1.087-1.91,1.506-2.901c0.415-0.989,0.78-1.996,0.996-3
			c0.46-2.011,0.408-3.966,0.105-5.575c-0.304-1.615-0.844-2.888-1.331-3.708c-0.245-0.413-0.472-0.714-0.655-0.896
			c-0.18-0.189-0.31-0.245-0.31-0.245L38.828,17.341z"/>
	</g>
</g>
</svg>
