<?xml version="1.0" encoding="utf-8"?>
<!-- Generator: Adobe Illustrator 22.1.0, SVG Export Plug-In . SVG Version: 6.00 Build 0)  -->
<svg version="1.1" id="Layer_1" xmlns="http://www.w3.org/2000/svg" xmlns:xlink="http://www.w3.org/1999/xlink" x="0px" y="0px"
	 viewBox="0 0 200 125" style="enable-background:new 0 0 200 125;" xml:space="preserve">
<style type="text/css">
	.st0{opacity:0.25;fill:#C8DEFF;}
	.st1{fill:#6D8CBC;}
</style>
<rect x="-3.401" y="-1.824" class="st0" width="206.401" height="130.022"/>
<g id="wOXDEa_1_">
	<g>
		<path class="st1" d="M72.099,32.876c10.07,0,20.14,0,30.209,0c3.217,3.346,6.434,6.691,9.734,10.124
			c0.191-0.243,0.311-0.433,0.467-0.588c2.085-2.083,4.155-4.183,6.277-6.228c0.58-0.559,1.273-1.052,2-1.392
			c1.058-0.495,2.15-0.483,3.056,0.424c2.48,2.483,4.954,4.971,7.429,7.458c0.609,0.612,0.825,1.348,0.69,2.2
			c-0.184,1.166-0.823,2.066-1.634,2.873c-3.411,3.395-6.815,6.796-10.239,10.177c-0.36,0.356-0.495,0.708-0.494,1.207
			c0.013,11.55,0.01,23.099,0.011,34.649c0,0.239,0.022,0.479,0.034,0.718c-15.847,0-31.694,0-47.54,0
			c0.006-0.2,0.016-0.4,0.016-0.6c0.001-20.14,0.001-40.281,0-60.421C72.115,33.277,72.105,33.077,72.099,32.876z M109.245,79.146
			c-8.945,0-17.854,0-26.752,0c0-0.841,0-1.633,0-2.46c1.543,0,3.045-0.013,4.546,0.009c0.41,0.006,0.634-0.092,0.798-0.507
			c0.893-2.252,1.824-4.488,2.74-6.731c0.073-0.179,0.137-0.363,0.238-0.632c-2.83,0-5.568,0-8.334,0c0-0.856,0-1.647,0-2.498
			c0.245,0,0.46,0,0.675,0c2.687,0,5.375-0.012,8.062,0.011c0.469,0.004,0.704-0.115,0.879-0.574
			c0.571-1.496,1.182-2.977,1.816-4.448c0.169-0.392,0.432-0.76,0.72-1.078c0.525-0.58,1.101-1.113,1.656-1.666
			c-0.025-0.05-0.049-0.1-0.074-0.15c-4.576,0-9.152,0-13.731,0c0-0.854,0-1.627,0-2.457c0.268,0,0.504,0,0.74,0
			c4.332,0,8.664,0.001,12.996-0.001c0.882,0,1.866,0.233,2.618-0.082c0.774-0.324,1.325-1.184,1.967-1.816
			c0.287-0.282,0.559-0.579,0.937-0.973c-0.886,0-1.603,0-2.4,0c0-5.082,0-10.123,0-15.168c-7.446,0-14.81,0-22.172,0
			c0,17.211,0,34.369,0,51.533c12.484,0,24.925,0,37.359,0c0-8.664,0-17.283,0-26.074c-0.235,0.273-0.357,0.434-0.498,0.575
			c-2.639,2.634-5.275,5.272-7.928,7.892c-0.275,0.271-0.628,0.497-0.986,0.644c-3.148,1.294-6.306,2.564-9.459,3.843
			c-0.191,0.078-0.375,0.174-0.563,0.261c0.009,0.034,0.017,0.069,0.026,0.103c4.701,0,9.402,0,14.121,0
			C109.245,77.547,109.245,78.338,109.245,79.146z M104.119,70.799c-2.871-2.827-5.715-5.629-8.548-8.419
			c-1.347,3.294-2.737,6.682-4.104,10.079c-0.065,0.162,0.01,0.467,0.133,0.604c0.494,0.552,1.064,1.038,1.545,1.601
			c0.325,0.38,0.609,0.379,1.036,0.203c3.147-1.294,6.304-2.565,9.458-3.845C103.799,70.957,103.955,70.875,104.119,70.799z
			 M103.148,49.37c0.747,0,1.462,0.005,2.177-0.006c0.108-0.002,0.243-0.05,0.318-0.124c0.921-0.913,1.834-1.835,2.785-2.791
			c-1.748-1.814-3.469-3.601-5.281-5.482C103.148,43.852,103.148,46.58,103.148,49.37z"/>
	</g>
</g>
</svg>
