<?xml version="1.0" encoding="utf-8"?>
<!-- Generator: Adobe Illustrator 22.1.0, SVG Export Plug-In . SVG Version: 6.00 Build 0)  -->
<svg version="1.1" id="Layer_1" xmlns="http://www.w3.org/2000/svg" xmlns:xlink="http://www.w3.org/1999/xlink" x="0px" y="0px"
	 viewBox="0 0 82.083 23" style="enable-background:new 0 0 82.083 23;" xml:space="preserve">
<style type="text/css">
	.st0{opacity:0.33;enable-background:new    ;}
	.st1{opacity:0.33;fill:#5C6A75;enable-background:new    ;}
	.st2{fill:url(#SVGID_1_);}
	.st3{fill:url(#SVGID_2_);}
	.st4{fill:url(#SVGID_3_);}
	.st5{fill:#50C5DD;}
	.st6{fill:#2EA8D6;}
	.st7{fill:#FFFFFF;}
	.st8{opacity:0.33;fill:#FFFFFF;enable-background:new    ;}
</style>
<g>
	<g class="st0">
		<path class="st1" d="M19.018,6.944l-0.12-1.514h-3.444v11.794h3.673V9.758c0.327-0.726,1.068-1.09,2.224-1.09l1.21,0.087
			l0.065-3.411c-0.29-0.087-0.632-0.131-1.025-0.131C20.497,5.211,19.636,5.788,19.018,6.944z"/>
		<path class="st1" d="M31.102,12.865c-0.489,0.876-1.38,1.464-2.397,1.464c-1.541,0-2.795-1.35-2.795-3.009
			c0-1.659,1.253-3.007,2.795-3.007c1.017,0,1.907,0.588,2.397,1.464h3.324c-0.651-2.697-2.964-4.693-5.72-4.693
			c-3.26,0-5.904,2.792-5.904,6.236s2.644,6.238,5.904,6.238c2.754,0,5.07-1.995,5.72-4.693H31.102z"/>
		<path class="st1" d="M13.842,7.367c-0.002-0.002-0.003-0.004-0.004-0.005c-0.024-0.037-0.048-0.073-0.074-0.109
			c-0.008-0.012-0.017-0.024-0.026-0.037c-0.019-0.026-0.037-0.052-0.056-0.077c-0.012-0.015-0.023-0.03-0.035-0.046
			c-0.017-0.022-0.033-0.045-0.05-0.067c-0.013-0.016-0.026-0.032-0.039-0.048c-0.017-0.021-0.033-0.041-0.05-0.061
			c-0.013-0.016-0.028-0.032-0.042-0.048c-0.017-0.02-0.034-0.04-0.052-0.06c-0.014-0.016-0.029-0.032-0.044-0.048
			c-0.018-0.02-0.036-0.039-0.054-0.058c-0.015-0.016-0.03-0.031-0.046-0.048c-0.019-0.019-0.037-0.038-0.055-0.056
			c-0.016-0.016-0.032-0.031-0.048-0.048c-0.019-0.019-0.038-0.037-0.057-0.055c-0.017-0.015-0.034-0.03-0.051-0.047
			c-0.02-0.018-0.039-0.036-0.059-0.053c-0.018-0.015-0.036-0.03-0.054-0.046c-0.02-0.017-0.04-0.034-0.061-0.051
			c-0.019-0.015-0.037-0.03-0.056-0.045c-0.021-0.016-0.042-0.033-0.063-0.049c-0.02-0.014-0.039-0.029-0.058-0.044
			c-0.021-0.016-0.044-0.032-0.065-0.048c-0.02-0.014-0.04-0.028-0.061-0.042c-0.022-0.015-0.045-0.03-0.068-0.046
			c-0.021-0.013-0.041-0.028-0.062-0.041c-0.023-0.014-0.047-0.03-0.07-0.045C12.362,5.925,12.34,5.912,12.318,5.9
			c-0.024-0.014-0.048-0.028-0.072-0.043c-0.022-0.013-0.045-0.026-0.068-0.038c-0.026-0.012-0.05-0.026-0.076-0.039
			c-0.022-0.012-0.046-0.024-0.069-0.037c-0.026-0.013-0.052-0.026-0.077-0.039c-0.023-0.012-0.048-0.023-0.072-0.035
			c-0.027-0.012-0.053-0.025-0.08-0.037C11.779,5.62,11.754,5.61,11.73,5.599c-0.028-0.012-0.055-0.023-0.083-0.035
			c-0.025-0.011-0.051-0.021-0.077-0.03c-0.028-0.012-0.056-0.021-0.085-0.032c-0.026-0.01-0.053-0.02-0.079-0.029
			c-0.029-0.011-0.059-0.02-0.089-0.03c-0.027-0.009-0.053-0.018-0.081-0.027c-0.03-0.01-0.061-0.02-0.092-0.028
			c-0.028-0.008-0.055-0.017-0.084-0.025c-0.031-0.009-0.063-0.018-0.095-0.026c-0.028-0.007-0.056-0.015-0.085-0.022
			c-0.032-0.008-0.065-0.016-0.099-0.023c-0.029-0.007-0.058-0.013-0.087-0.02c-0.034-0.007-0.068-0.014-0.101-0.021
			c-0.03-0.006-0.06-0.012-0.09-0.019c-0.035-0.006-0.07-0.013-0.106-0.02c-0.03-0.004-0.061-0.009-0.091-0.013
			c-0.037-0.005-0.074-0.012-0.11-0.017c-0.03-0.004-0.061-0.009-0.092-0.013c-0.039-0.004-0.077-0.01-0.117-0.013
			c-0.03-0.004-0.061-0.008-0.092-0.012C9.855,5.138,9.813,5.135,9.772,5.13C9.742,5.128,9.71,5.125,9.68,5.122
			C9.636,5.119,9.592,5.117,9.548,5.114C9.518,5.112,9.49,5.11,9.459,5.109C9.41,5.106,9.36,5.105,9.31,5.104
			C9.284,5.103,9.259,5.101,9.233,5.1C9.157,5.098,9.08,5.097,9.001,5.097c-0.083,0-0.164,0.001-0.245,0.004
			C8.728,5.101,8.702,5.103,8.674,5.104C8.622,5.106,8.569,5.108,8.517,5.11C8.486,5.112,8.454,5.114,8.423,5.116
			C8.377,5.12,8.331,5.122,8.286,5.126C8.253,5.13,8.221,5.132,8.187,5.136C8.144,5.14,8.102,5.144,8.06,5.149
			c-0.033,0.004-0.066,0.008-0.1,0.012C7.92,5.167,7.88,5.172,7.84,5.178c-0.033,0.004-0.066,0.01-0.099,0.015
			C7.703,5.199,7.665,5.204,7.627,5.211C7.594,5.217,7.561,5.223,7.528,5.229C7.492,5.237,7.456,5.243,7.421,5.251
			C7.388,5.258,7.355,5.265,7.323,5.272C7.288,5.281,7.253,5.288,7.219,5.296C7.187,5.304,7.154,5.312,7.122,5.32
			C7.089,5.329,7.056,5.338,7.024,5.347C6.992,5.356,6.959,5.365,6.928,5.374C6.897,5.383,6.865,5.392,6.835,5.402
			c-0.031,0.009-0.063,0.02-0.094,0.03c-0.03,0.01-0.06,0.02-0.089,0.03C6.62,5.472,6.589,5.484,6.558,5.495
			c-0.028,0.011-0.056,0.02-0.085,0.031C6.442,5.539,6.411,5.551,6.381,5.563C6.354,5.574,6.328,5.584,6.302,5.596
			c-0.03,0.013-0.061,0.026-0.091,0.039c-0.025,0.011-0.05,0.022-0.075,0.034C6.105,5.683,6.075,5.698,6.045,5.712
			c-0.023,0.012-0.046,0.023-0.07,0.035c-0.029,0.015-0.061,0.03-0.09,0.046C5.864,5.803,5.842,5.816,5.821,5.828
			C5.791,5.844,5.759,5.86,5.73,5.877C5.71,5.888,5.691,5.9,5.671,5.911C5.641,5.93,5.61,5.948,5.58,5.966
			c-0.017,0.01-0.034,0.021-0.052,0.032c-0.031,0.02-0.062,0.039-0.093,0.06c-0.014,0.01-0.028,0.02-0.044,0.029
			C5.36,6.109,5.328,6.131,5.296,6.153C5.286,6.161,5.275,6.168,5.263,6.176C5.23,6.201,5.195,6.226,5.161,6.252
			C5.157,6.257,5.15,6.261,5.145,6.266C4.679,6.622,4.305,7.035,4.004,7.47l0,0l0,0c-0.959,1.387-1.167,2.991-1.167,3.65v0.32
			c0,1.814,0.607,3.288,1.821,4.42c1.214,1.132,2.804,1.697,4.767,1.697c1.049,0,2.029-0.196,2.94-0.588
			c0.911-0.393,1.615-0.921,2.112-1.584l-1.821-2.081c-0.71,0.855-1.696,1.28-2.957,1.28c-2.527,0-2.804-1.536-2.945-2.23h8.068
			v-1.497C14.821,9.923,14.615,8.543,13.842,7.367L13.842,7.367z"/>
	</g>
	
		<linearGradient id="SVGID_1_" gradientUnits="userSpaceOnUse" x1="18.8098" y1="26.0191" x2="18.8098" y2="14.0077" gradientTransform="matrix(1 0 0 -1 0 31)">
		<stop  offset="0" style="stop-color:#FFFFFF"/>
		<stop  offset="0.3126" style="stop-color:#E2E1E0"/>
		<stop  offset="0.7198" style="stop-color:#C8C8C8"/>
		<stop  offset="0.9324" style="stop-color:#AFB0B1"/>
	</linearGradient>
	<path class="st2" d="M22.331,8.524l-1.21-0.087c-1.156,0-1.896,0.363-2.224,1.09v7.466h-3.673V5.199h3.444l0.12,1.514
		c0.618-1.156,1.479-1.732,2.583-1.732c0.393,0,0.734,0.044,1.025,0.131L22.331,8.524z"/>
	<g>
		
			<linearGradient id="SVGID_2_" gradientUnits="userSpaceOnUse" x1="28.3842" y1="26.1464" x2="28.3842" y2="13.672" gradientTransform="matrix(1 0 0 -1 0 31)">
			<stop  offset="0" style="stop-color:#FFFFFF"/>
			<stop  offset="0.3126" style="stop-color:#E2E1E0"/>
			<stop  offset="0.7198" style="stop-color:#C8C8C8"/>
			<stop  offset="0.9324" style="stop-color:#AFB0B1"/>
		</linearGradient>
		<path class="st3" d="M28.475,14.099c-1.541,0-2.795-1.35-2.795-3.009c0-1.659,1.253-3.007,2.795-3.007
			c1.017,0,1.907,0.588,2.397,1.464h3.324c-0.651-2.697-2.964-4.693-5.72-4.693c-3.26,0-5.904,2.792-5.904,6.236
			s2.644,6.238,5.904,6.238c2.754,0,5.07-1.995,5.72-4.693h-3.324C30.382,13.511,29.492,14.099,28.475,14.099z"/>
	</g>
	<g>
		
			<linearGradient id="SVGID_3_" gradientUnits="userSpaceOnUse" x1="8.6002" y1="26.134" x2="8.6002" y2="13.672" gradientTransform="matrix(1 0 0 -1 0 31)">
			<stop  offset="0" style="stop-color:#FFFFFF"/>
			<stop  offset="0.3126" style="stop-color:#E2E1E0"/>
			<stop  offset="0.7198" style="stop-color:#C8C8C8"/>
			<stop  offset="0.9324" style="stop-color:#AFB0B1"/>
		</linearGradient>
		<path class="st4" d="M9.197,17.328c-1.964,0-3.553-0.566-4.767-1.698s-1.821-2.606-1.821-4.42v-0.32
			c0-1.265,0.764-6.024,6.164-6.024c4.943,0,5.821,3.831,5.821,5.76v1.497H6.523c0.142,0.694,0.419,2.23,2.945,2.23
			c1.262,0,2.248-0.427,2.957-1.28l1.821,2.081c-0.497,0.663-1.201,1.191-2.112,1.584C11.226,17.132,10.245,17.328,9.197,17.328z"/>
		<g>
			<path class="st5" d="M7.948,6.197c0.31,0,3.386,1.777,3.386,2.34c0,0.562-2.992,2.34-3.386,2.34
				C7.555,10.877,7.639,6.197,7.948,6.197z"/>
			<g>
				<path class="st6" d="M7.948,6.197c-0.039,0-0.075,0.076-0.107,0.208c0.394,0.057,3.365,1.783,3.365,2.337
					c0,0.021-0.005,0.045-0.013,0.069c0.089-0.108,0.141-0.202,0.141-0.274C11.333,7.974,8.257,6.197,7.948,6.197z"/>
			</g>
			<g>
				<path class="st7" d="M11.201,8.803c-0.003,0.003-0.004,0.004-0.006,0.007c0,0.001,0,0.001-0.001,0.002
					C11.196,8.808,11.198,8.805,11.201,8.803z"/>
				<path class="st7" d="M11.201,8.7c-0.6,0.733-2.966,2.113-3.316,2.113c-0.004,0-0.008-0.002-0.012-0.003
					c0.022,0.042,0.048,0.065,0.075,0.065c0.343,0,2.653-1.347,3.247-2.066c0.007-0.024,0.013-0.047,0.013-0.068
					C11.207,8.729,11.204,8.715,11.201,8.7z"/>
			</g>
		</g>
		<path class="st8" d="M8.771,4.867c-2.59,0-4.113,1.095-4.997,2.373c1.408,0.759,3.059,1.196,4.825,1.196
			c1.845,0,3.564-0.477,5.012-1.299C12.787,5.886,11.319,4.867,8.771,4.867z"/>
	</g>
</g>
<g>
	<polygon class="st7" points="39.053,10.989 36.737,10.989 36.737,9.233 38.751,9.233 38.751,8.924 36.737,8.924 36.737,7.299 
		39.038,7.299 39.038,6.991 36.373,6.991 36.373,11.297 39.053,11.297 	"/>
	<rect x="39.625" y="6.754" class="st7" width="0.356" height="4.543"/>
	<path class="st7" d="M41.292,11.155c0.22,0.134,0.465,0.201,0.738,0.201c0.496,0,0.872-0.188,1.134-0.565l-0.222-0.169
		c-0.119,0.152-0.25,0.263-0.395,0.331c-0.145,0.07-0.313,0.104-0.501,0.104c-0.315,0-0.577-0.121-0.785-0.362
		c-0.208-0.241-0.313-0.543-0.313-0.907V9.72h2.283V9.522c0-0.459-0.113-0.822-0.342-1.087c-0.228-0.265-0.536-0.398-0.924-0.398
		c-0.248,0-0.479,0.071-0.692,0.212s-0.38,0.335-0.498,0.581c-0.119,0.246-0.18,0.523-0.18,0.831v0.127
		c0,0.297,0.062,0.566,0.184,0.806C40.901,10.834,41.072,11.021,41.292,11.155z M41.292,8.632c0.182-0.196,0.406-0.293,0.673-0.293
		c0.268,0,0.485,0.096,0.651,0.289s0.253,0.444,0.264,0.751v0.038h-1.92C40.998,9.089,41.109,8.828,41.292,8.632z"/>
	<path class="st7" d="M46.181,10.309h-0.34c-0.014,0.222-0.105,0.401-0.271,0.54c-0.166,0.138-0.373,0.209-0.62,0.209
		c-0.322,0-0.57-0.114-0.747-0.343c-0.177-0.229-0.264-0.547-0.264-0.956V9.656c0-0.416,0.088-0.74,0.264-0.97
		s0.424-0.346,0.744-0.346c0.251,0,0.458,0.077,0.623,0.23c0.164,0.155,0.255,0.356,0.271,0.607h0.34
		c-0.015-0.341-0.138-0.616-0.365-0.825c-0.228-0.209-0.517-0.313-0.868-0.313c-0.275,0-0.517,0.066-0.724,0.197
		c-0.206,0.133-0.364,0.32-0.475,0.563c-0.11,0.242-0.166,0.522-0.166,0.837v0.106c0,0.493,0.123,0.885,0.369,1.177
		s0.579,0.438,0.998,0.438c0.213,0,0.413-0.046,0.599-0.137c0.186-0.09,0.336-0.216,0.447-0.377
		C46.11,10.682,46.171,10.504,46.181,10.309z"/>
	<path class="st7" d="M46.932,10.522c0,0.274,0.055,0.481,0.166,0.623c0.11,0.141,0.287,0.212,0.53,0.212
		c0.159,0,0.286-0.017,0.378-0.05l-0.014-0.288c-0.133,0.019-0.228,0.029-0.287,0.029c-0.149,0-0.257-0.043-0.321-0.13
		c-0.064-0.087-0.096-0.219-0.096-0.397V8.387h0.663v-0.29h-0.663v-0.82h-0.356v0.819h-0.589v0.289h0.589V10.522L46.932,10.522z"/>
	<path class="st7" d="M49.77,8.378c0.085,0,0.164,0.007,0.24,0.021l0.008-0.322c-0.057-0.026-0.135-0.038-0.233-0.038
		c-0.414,0-0.715,0.189-0.902,0.568l-0.006-0.508h-0.346v3.2h0.352V9.1c0.066-0.234,0.173-0.414,0.327-0.536
		C49.363,8.439,49.55,8.378,49.77,8.378z"/>
	<path class="st7" d="M52.842,10.582c0.119-0.247,0.18-0.525,0.18-0.835V9.673c0-0.493-0.133-0.889-0.397-1.188
		c-0.264-0.299-0.609-0.447-1.035-0.447c-0.276,0-0.523,0.068-0.74,0.205c-0.218,0.137-0.387,0.329-0.505,0.575
		c-0.119,0.246-0.18,0.523-0.18,0.831V9.72c0,0.493,0.133,0.889,0.398,1.188c0.265,0.299,0.61,0.447,1.034,0.447
		c0.278,0,0.525-0.067,0.742-0.201C52.554,11.021,52.722,10.831,52.842,10.582z M51.595,11.057c-0.322,0-0.581-0.123-0.779-0.368
		c-0.197-0.246-0.297-0.559-0.297-0.942V9.683c0-0.4,0.099-0.724,0.299-0.972c0.2-0.247,0.456-0.371,0.772-0.371
		c0.211,0,0.398,0.055,0.563,0.167c0.163,0.112,0.291,0.269,0.381,0.472c0.09,0.204,0.137,0.427,0.137,0.671v0.068
		c0,0.403-0.099,0.726-0.297,0.972C52.173,10.934,51.914,11.057,51.595,11.057z"/>
	<path class="st7" d="M55.479,8.555c0.119,0.14,0.18,0.353,0.182,0.639v2.103h0.352v-2.1c-0.003-0.387-0.087-0.677-0.255-0.87
		c-0.168-0.193-0.423-0.289-0.766-0.289c-0.217,0-0.415,0.052-0.594,0.155c-0.18,0.104-0.33,0.254-0.449,0.451l-0.012-0.547H53.6
		v3.2h0.352V9.107c0.081-0.233,0.205-0.417,0.374-0.554c0.169-0.137,0.362-0.205,0.581-0.205
		C55.169,8.346,55.359,8.416,55.479,8.555z"/>
	<rect x="56.816" y="8.097" class="st7" width="0.356" height="3.2"/>
	<path class="st7" d="M56.996,6.934c-0.075,0-0.134,0.023-0.177,0.07c-0.043,0.046-0.066,0.103-0.066,0.169s0.021,0.122,0.066,0.167
		c0.043,0.046,0.103,0.068,0.177,0.068s0.135-0.022,0.18-0.068c0.045-0.046,0.066-0.101,0.066-0.167
		c0-0.066-0.021-0.123-0.066-0.169C57.131,6.958,57.072,6.934,56.996,6.934z"/>
	<path class="st7" d="M58.417,8.685c0.177-0.23,0.424-0.346,0.744-0.346c0.251,0,0.458,0.077,0.623,0.23
		c0.164,0.155,0.255,0.356,0.271,0.607h0.34c-0.015-0.341-0.138-0.616-0.365-0.825c-0.228-0.209-0.517-0.313-0.868-0.313
		c-0.275,0-0.517,0.066-0.724,0.197c-0.206,0.133-0.364,0.32-0.475,0.563c-0.11,0.242-0.166,0.522-0.166,0.837v0.106
		c0,0.493,0.123,0.885,0.369,1.177c0.246,0.292,0.579,0.438,0.998,0.438c0.213,0,0.413-0.046,0.599-0.137
		c0.186-0.09,0.336-0.216,0.447-0.377c0.113-0.161,0.173-0.339,0.183-0.534h-0.34c-0.014,0.222-0.105,0.401-0.271,0.54
		c-0.166,0.139-0.373,0.209-0.62,0.209c-0.322,0-0.57-0.114-0.747-0.343c-0.177-0.229-0.264-0.547-0.264-0.956V9.654
		C58.152,9.24,58.241,8.916,58.417,8.685z"/>
	<path class="st7" d="M39.373,14.434c0.127-0.197,0.191-0.441,0.191-0.735c0-0.414-0.138-0.734-0.414-0.961
		c-0.275-0.226-0.668-0.34-1.177-0.34h-1.6v4.306h0.887v-1.576h0.706l0.807,1.576h0.952v-0.041l-0.931-1.76
		C39.053,14.786,39.245,14.63,39.373,14.434z M38.493,14.238c-0.122,0.113-0.295,0.17-0.518,0.17h-0.716v-1.293h0.713
		c0.239,0,0.416,0.059,0.532,0.174c0.115,0.116,0.173,0.275,0.173,0.479C38.676,13.969,38.614,14.125,38.493,14.238z"/>
	<path class="st7" d="M41.408,13.444c-0.292,0-0.551,0.068-0.779,0.205c-0.228,0.137-0.403,0.332-0.528,0.585
		c-0.124,0.253-0.186,0.54-0.186,0.862v0.082c0,0.479,0.147,0.863,0.442,1.15c0.295,0.289,0.677,0.431,1.146,0.431
		c0.267,0,0.508-0.05,0.727-0.153c0.219-0.101,0.392-0.243,0.521-0.424l-0.42-0.47c-0.186,0.239-0.442,0.358-0.772,0.358
		c-0.213,0-0.389-0.063-0.528-0.189c-0.139-0.126-0.222-0.293-0.25-0.503h2.037v-0.349c0-0.507-0.126-0.898-0.377-1.174
		C42.191,13.582,41.846,13.444,41.408,13.444z M41.979,14.799H40.79c0.029-0.214,0.097-0.378,0.202-0.493
		c0.105-0.114,0.243-0.172,0.413-0.172c0.181,0,0.322,0.052,0.42,0.155c0.099,0.105,0.149,0.251,0.154,0.44V14.799L41.979,14.799z"
		/>
	<path class="st7" d="M45.039,14.922c-0.146-0.053-0.325-0.101-0.539-0.144c-0.213-0.042-0.364-0.093-0.454-0.151
		c-0.09-0.059-0.135-0.135-0.135-0.229c0-0.1,0.039-0.184,0.119-0.248c0.079-0.066,0.19-0.097,0.334-0.097
		c0.167,0,0.29,0.039,0.37,0.12c0.079,0.08,0.119,0.18,0.119,0.303h0.855c0-0.306-0.121-0.554-0.365-0.745
		c-0.244-0.191-0.568-0.287-0.974-0.287c-0.38,0-0.688,0.095-0.924,0.285c-0.236,0.19-0.353,0.427-0.353,0.711
		c0,0.487,0.38,0.811,1.142,0.97c0.229,0.047,0.395,0.101,0.498,0.162c0.104,0.06,0.155,0.142,0.155,0.246
		c0,0.101-0.042,0.182-0.126,0.244c-0.084,0.063-0.208,0.094-0.371,0.094c-0.175,0-0.315-0.04-0.42-0.121s-0.161-0.197-0.169-0.349
		h-0.811c0,0.193,0.059,0.373,0.177,0.54c0.119,0.168,0.281,0.297,0.489,0.394c0.208,0.096,0.447,0.144,0.715,0.144
		c0.397,0,0.719-0.09,0.97-0.271c0.251-0.18,0.375-0.416,0.375-0.708C45.716,15.375,45.49,15.09,45.039,14.922z"/>
	<path class="st7" d="M48.551,13.841c-0.273-0.264-0.625-0.397-1.058-0.397c-0.304,0-0.57,0.068-0.799,0.204
		c-0.23,0.137-0.406,0.329-0.528,0.577c-0.122,0.248-0.183,0.532-0.183,0.849v0.038c0,0.508,0.138,0.911,0.413,1.207
		c0.275,0.296,0.643,0.444,1.105,0.444c0.461,0,0.829-0.148,1.103-0.445c0.274-0.297,0.411-0.69,0.411-1.181l-0.006-0.219
		C48.976,14.463,48.824,14.104,48.551,13.841z M47.985,15.835c-0.116,0.159-0.278,0.239-0.485,0.239c-0.213,0-0.377-0.08-0.49-0.241
		c-0.114-0.161-0.172-0.394-0.172-0.698c0-0.342,0.057-0.593,0.172-0.757c0.114-0.163,0.276-0.244,0.485-0.244
		c0.211,0,0.374,0.081,0.49,0.246c0.116,0.163,0.174,0.395,0.174,0.693C48.159,15.422,48.101,15.676,47.985,15.835z"/>
	<path class="st7" d="M51.275,15.772c-0.108,0.202-0.307,0.302-0.598,0.302c-0.304,0-0.456-0.166-0.456-0.501v-2.07h-0.855V15.6
		c0.004,0.38,0.096,0.67,0.276,0.866c0.18,0.197,0.442,0.296,0.785,0.296c0.373,0,0.665-0.129,0.875-0.385l0.023,0.325h0.804v-3.2
		h-0.857L51.275,15.772L51.275,15.772z"/>
	<path class="st7" d="M53.457,13.885l-0.023-0.381h-0.806v3.2h0.855V14.61c0.101-0.219,0.313-0.329,0.636-0.329
		c0.088,0,0.191,0.008,0.307,0.023l0.012-0.822c-0.082-0.026-0.172-0.038-0.267-0.038C53.866,13.444,53.629,13.592,53.457,13.885z"
		/>
	<path class="st7" d="M55.502,14.352c0.101-0.145,0.251-0.218,0.451-0.218c0.162,0,0.292,0.052,0.39,0.155
		c0.099,0.105,0.149,0.24,0.154,0.406h0.801c-0.004-0.378-0.127-0.681-0.369-0.909c-0.241-0.228-0.563-0.342-0.962-0.342
		c-0.457,0-0.817,0.147-1.079,0.44c-0.263,0.293-0.394,0.687-0.394,1.18v0.056c0,0.512,0.133,0.914,0.397,1.205
		c0.264,0.29,0.625,0.436,1.083,0.436c0.244,0,0.468-0.05,0.67-0.149c0.202-0.099,0.362-0.24,0.477-0.42
		c0.116-0.18,0.175-0.38,0.177-0.596h-0.801c-0.004,0.144-0.055,0.26-0.154,0.346c-0.099,0.087-0.226,0.13-0.385,0.13
		c-0.205,0-0.358-0.071-0.458-0.216c-0.1-0.144-0.151-0.381-0.151-0.711v-0.088C55.349,14.732,55.401,14.496,55.502,14.352z"/>
	<path class="st7" d="M59.013,13.444c-0.292,0-0.551,0.068-0.779,0.205c-0.228,0.137-0.403,0.332-0.528,0.585
		c-0.124,0.253-0.186,0.54-0.186,0.862v0.082c0,0.479,0.147,0.863,0.442,1.15c0.295,0.289,0.677,0.431,1.146,0.431
		c0.266,0,0.508-0.05,0.727-0.153c0.219-0.101,0.392-0.243,0.521-0.424l-0.42-0.47c-0.186,0.239-0.442,0.358-0.772,0.358
		c-0.213,0-0.389-0.063-0.528-0.189c-0.139-0.126-0.222-0.293-0.25-0.503h2.037v-0.349c0-0.507-0.126-0.898-0.377-1.174
		C59.796,13.582,59.451,13.444,59.013,13.444z M59.584,14.799h-1.189c0.029-0.214,0.097-0.378,0.202-0.493
		c0.105-0.114,0.243-0.172,0.413-0.172c0.181,0,0.322,0.052,0.42,0.155c0.099,0.105,0.149,0.251,0.155,0.44L59.584,14.799
		L59.584,14.799L59.584,14.799z"/>
	<path class="st7" d="M63.166,13.384c0.147-0.212,0.369-0.318,0.665-0.318c0.272,0,0.475,0.063,0.607,0.188
		c0.133,0.126,0.211,0.327,0.232,0.605h0.887c-0.047-0.481-0.222-0.855-0.526-1.121c-0.304-0.266-0.704-0.399-1.201-0.399
		c-0.359,0-0.673,0.084-0.944,0.253c-0.271,0.168-0.48,0.41-0.625,0.726c-0.146,0.315-0.219,0.681-0.219,1.094v0.264
		c0,0.648,0.158,1.159,0.475,1.53c0.316,0.371,0.75,0.557,1.303,0.557c0.505,0,0.911-0.133,1.22-0.399
		c0.308-0.266,0.48-0.631,0.514-1.094h-0.887c-0.02,0.263-0.097,0.456-0.232,0.581c-0.135,0.126-0.339,0.188-0.614,0.188
		c-0.304,0-0.525-0.107-0.666-0.322c-0.141-0.215-0.212-0.556-0.212-1.02v-0.325C62.942,13.925,63.018,13.596,63.166,13.384z"/>
	<path class="st7" d="M67.304,13.444c-0.292,0-0.551,0.068-0.779,0.205c-0.228,0.137-0.403,0.332-0.528,0.585
		c-0.124,0.253-0.186,0.54-0.186,0.862v0.082c0,0.479,0.147,0.863,0.442,1.15c0.295,0.289,0.677,0.431,1.146,0.431
		c0.267,0,0.508-0.05,0.727-0.153c0.219-0.101,0.392-0.243,0.521-0.424l-0.42-0.47c-0.186,0.239-0.442,0.358-0.772,0.358
		c-0.213,0-0.389-0.063-0.528-0.189c-0.139-0.126-0.222-0.293-0.25-0.503h2.037v-0.349c0-0.507-0.126-0.898-0.377-1.174
		C68.087,13.582,67.742,13.444,67.304,13.444z M67.875,14.799h-1.189c0.029-0.214,0.097-0.378,0.202-0.493
		c0.105-0.114,0.243-0.172,0.413-0.172c0.181,0,0.322,0.052,0.42,0.155c0.099,0.105,0.149,0.251,0.155,0.44L67.875,14.799
		L67.875,14.799L67.875,14.799z"/>
	<path class="st7" d="M70.781,13.444c-0.385,0-0.691,0.144-0.92,0.429l-0.027-0.37h-0.804v3.2h0.855v-2.262
		c0.12-0.205,0.3-0.308,0.541-0.308c0.183,0,0.314,0.041,0.394,0.123c0.079,0.081,0.119,0.214,0.119,0.396v2.051h0.855v-2.068
		c-0.004-0.397-0.088-0.694-0.255-0.893C71.373,13.544,71.121,13.444,70.781,13.444z"/>
	<path class="st7" d="M73.381,15.982c-0.046-0.052-0.068-0.137-0.068-0.255v-1.597h0.547v-0.627h-0.547v-0.786h-0.855v0.786H71.99
		v0.627h0.467v1.724c0.012,0.605,0.318,0.907,0.916,0.907c0.177,0,0.349-0.026,0.518-0.077v-0.648
		c-0.073,0.014-0.156,0.021-0.251,0.021C73.512,16.06,73.427,16.034,73.381,15.982z"/>
	<path class="st7" d="M75.562,13.444c-0.292,0-0.551,0.068-0.779,0.205c-0.228,0.137-0.403,0.332-0.528,0.585
		c-0.124,0.253-0.186,0.54-0.186,0.862v0.082c0,0.479,0.147,0.863,0.442,1.15c0.295,0.289,0.677,0.431,1.146,0.431
		c0.267,0,0.508-0.05,0.727-0.153c0.219-0.101,0.392-0.243,0.521-0.424l-0.42-0.47c-0.186,0.239-0.442,0.358-0.772,0.358
		c-0.213,0-0.389-0.063-0.528-0.189c-0.139-0.126-0.222-0.293-0.25-0.503h2.037v-0.349c0-0.507-0.126-0.898-0.377-1.174
		C76.345,13.582,76,13.444,75.562,13.444z M76.133,14.799h-1.189c0.029-0.214,0.097-0.378,0.202-0.493
		c0.105-0.114,0.243-0.172,0.413-0.172c0.181,0,0.322,0.052,0.42,0.155c0.099,0.105,0.149,0.251,0.155,0.44L76.133,14.799
		L76.133,14.799L76.133,14.799z"/>
	<path class="st7" d="M78.851,13.444c-0.304,0-0.541,0.147-0.713,0.44l-0.023-0.381h-0.807v3.2h0.855V14.61
		c0.1-0.219,0.313-0.329,0.636-0.329c0.088,0,0.191,0.008,0.307,0.023l0.012-0.822C79.033,13.458,78.945,13.444,78.851,13.444z"/>
</g>
</svg>
