<?xml version="1.0" encoding="utf-8"?>
<!-- Generator: Adobe Illustrator 22.1.0, SVG Export Plug-In . SVG Version: 6.00 Build 0)  -->
<svg version="1.1" id="Layer_1" xmlns="http://www.w3.org/2000/svg" xmlns:xlink="http://www.w3.org/1999/xlink" x="0px" y="0px"
	 viewBox="0 0 200 24" style="enable-background:new 0 0 200 24;" xml:space="preserve">
<style type="text/css">
	.st0{opacity:0.33;enable-background:new    ;}
	.st1{opacity:0.33;fill:#5C6A75;enable-background:new    ;}
	.st2{fill:url(#SVGID_1_);}
	.st3{fill:url(#SVGID_2_);}
	.st4{fill:url(#SVGID_3_);}
	.st5{fill:#50C5DD;}
	.st6{fill:#2EA8D6;}
	.st7{fill:#FFFFFF;}
	.st8{opacity:0.33;fill:#FFFFFF;enable-background:new    ;}
</style>
<g>
	<g class="st0">
		<path class="st1" d="M22.319,7.181L22.184,5.48h-3.869v13.248h4.126v-8.386c0.367-0.816,1.2-1.224,2.498-1.224l1.359,0.098
			l0.073-3.832c-0.326-0.098-0.71-0.147-1.151-0.147C23.98,5.235,23.013,5.883,22.319,7.181z"/>
		<path class="st1" d="M35.892,13.832c-0.549,0.984-1.55,1.644-2.692,1.644c-1.731,0-3.139-1.516-3.139-3.38
			c0-1.863,1.408-3.378,3.139-3.378c1.142,0,2.142,0.66,2.692,1.644h3.734c-0.731-3.029-3.329-5.271-6.425-5.271
			c-3.662,0-6.632,3.136-6.632,7.005s2.97,7.007,6.632,7.007c3.094,0,5.695-2.241,6.425-5.271H35.892z"/>
		<path class="st1" d="M16.505,7.656C16.503,7.654,16.502,7.651,16.5,7.65c-0.027-0.041-0.054-0.082-0.083-0.122
			c-0.009-0.014-0.019-0.027-0.029-0.041c-0.021-0.029-0.041-0.058-0.063-0.087c-0.013-0.017-0.026-0.034-0.039-0.052
			c-0.019-0.025-0.037-0.05-0.056-0.075c-0.015-0.018-0.029-0.036-0.044-0.054c-0.019-0.024-0.037-0.046-0.056-0.069
			c-0.015-0.018-0.031-0.036-0.047-0.054c-0.019-0.023-0.038-0.045-0.058-0.067c-0.016-0.018-0.033-0.036-0.049-0.054
			c-0.02-0.022-0.04-0.044-0.061-0.065c-0.017-0.018-0.034-0.035-0.052-0.054c-0.021-0.021-0.041-0.043-0.062-0.063
			c-0.018-0.018-0.036-0.035-0.054-0.054c-0.021-0.021-0.043-0.041-0.064-0.062c-0.019-0.017-0.038-0.034-0.057-0.053
			c-0.022-0.02-0.044-0.04-0.066-0.059c-0.02-0.017-0.04-0.034-0.061-0.052c-0.023-0.019-0.045-0.038-0.068-0.057
			c-0.021-0.017-0.042-0.034-0.063-0.051c-0.024-0.018-0.047-0.037-0.071-0.055c-0.022-0.016-0.044-0.033-0.065-0.049
			c-0.024-0.018-0.049-0.036-0.073-0.054c-0.023-0.016-0.045-0.032-0.068-0.047c-0.025-0.017-0.05-0.034-0.076-0.052
			c-0.024-0.015-0.046-0.031-0.07-0.046c-0.026-0.016-0.053-0.034-0.079-0.05c-0.024-0.015-0.048-0.03-0.073-0.044
			c-0.027-0.016-0.054-0.032-0.081-0.048c-0.025-0.015-0.051-0.029-0.076-0.043c-0.029-0.014-0.056-0.029-0.085-0.044
			c-0.025-0.014-0.052-0.027-0.078-0.041c-0.029-0.015-0.058-0.029-0.087-0.044c-0.026-0.013-0.054-0.026-0.081-0.039
			c-0.03-0.014-0.06-0.028-0.09-0.042c-0.027-0.013-0.055-0.024-0.083-0.037c-0.031-0.014-0.062-0.026-0.093-0.039
			c-0.028-0.012-0.057-0.024-0.086-0.034c-0.032-0.013-0.063-0.024-0.096-0.036c-0.029-0.011-0.059-0.022-0.089-0.033
			c-0.033-0.012-0.066-0.023-0.1-0.034c-0.03-0.01-0.06-0.02-0.091-0.03c-0.034-0.011-0.069-0.022-0.103-0.032
			c-0.031-0.009-0.062-0.019-0.094-0.028c-0.035-0.01-0.071-0.02-0.107-0.029c-0.032-0.008-0.063-0.017-0.096-0.025
			c-0.036-0.009-0.073-0.018-0.111-0.026c-0.033-0.008-0.065-0.015-0.098-0.023c-0.038-0.008-0.076-0.016-0.114-0.024
			c-0.034-0.007-0.067-0.014-0.101-0.021c-0.039-0.007-0.079-0.015-0.119-0.022c-0.034-0.004-0.068-0.01-0.102-0.015
			c-0.041-0.006-0.083-0.013-0.124-0.019c-0.034-0.005-0.069-0.01-0.103-0.015c-0.044-0.005-0.087-0.011-0.131-0.015
			c-0.034-0.005-0.069-0.009-0.103-0.013c-0.045-0.005-0.092-0.008-0.138-0.013c-0.034-0.003-0.069-0.006-0.103-0.009
			c-0.049-0.004-0.099-0.006-0.148-0.009c-0.034-0.003-0.066-0.005-0.1-0.006c-0.055-0.003-0.112-0.005-0.168-0.006
			c-0.029-0.001-0.057-0.003-0.086-0.004c-0.086-0.002-0.172-0.004-0.261-0.004c-0.093,0-0.184,0.001-0.275,0.004
			c-0.031,0.001-0.061,0.003-0.092,0.004c-0.059,0.002-0.118,0.005-0.176,0.007c-0.035,0.002-0.071,0.005-0.106,0.007
			c-0.052,0.004-0.103,0.006-0.154,0.011c-0.037,0.004-0.073,0.007-0.111,0.011c-0.048,0.005-0.096,0.009-0.143,0.015
			C9.973,5.169,9.936,5.174,9.898,5.179c-0.045,0.006-0.09,0.012-0.135,0.018C9.726,5.202,9.689,5.208,9.652,5.214
			C9.609,5.221,9.567,5.227,9.524,5.235C9.487,5.241,9.45,5.248,9.413,5.255C9.372,5.264,9.332,5.271,9.292,5.279
			c-0.037,0.008-0.074,0.016-0.11,0.024C9.143,5.313,9.104,5.321,9.066,5.33C9.03,5.339,8.993,5.348,8.957,5.357
			c-0.037,0.01-0.074,0.02-0.111,0.03c-0.036,0.01-0.072,0.02-0.107,0.031c-0.035,0.01-0.071,0.02-0.105,0.031
			c-0.035,0.01-0.071,0.022-0.106,0.034c-0.034,0.011-0.067,0.022-0.1,0.034c-0.035,0.011-0.07,0.024-0.105,0.037
			C8.291,5.566,8.26,5.577,8.228,5.589C8.193,5.603,8.158,5.616,8.124,5.63c-0.03,0.012-0.059,0.024-0.089,0.037
			C8.001,5.682,7.967,5.696,7.933,5.711C7.905,5.723,7.877,5.736,7.849,5.749C7.814,5.765,7.781,5.781,7.747,5.797
			C7.721,5.81,7.695,5.823,7.668,5.836C7.635,5.853,7.6,5.87,7.567,5.888C7.543,5.9,7.519,5.914,7.495,5.927
			C7.461,5.946,7.426,5.964,7.393,5.983C7.371,5.995,7.349,6.008,7.327,6.021C7.293,6.042,7.258,6.062,7.225,6.083
			C7.206,6.094,7.187,6.107,7.167,6.119c-0.035,0.022-0.07,0.044-0.105,0.067C7.046,6.197,7.03,6.208,7.013,6.219
			C6.977,6.243,6.941,6.268,6.906,6.293C6.894,6.302,6.882,6.31,6.869,6.319C6.831,6.347,6.792,6.375,6.754,6.404
			c-0.005,0.005-0.012,0.01-0.018,0.015c-0.523,0.4-0.944,0.864-1.282,1.353l0,0l0,0c-1.077,1.558-1.311,3.36-1.311,4.1v0.36
			c0,2.038,0.682,3.693,2.046,4.965c1.364,1.271,3.15,1.906,5.355,1.906c1.178,0,2.279-0.22,3.302-0.661s1.814-1.034,2.372-1.779
			l-2.046-2.338c-0.797,0.96-1.905,1.438-3.322,1.438c-2.839,0-3.15-1.725-3.308-2.505h9.063v-1.682
			C17.605,10.527,17.373,8.977,16.505,7.656L16.505,7.656z"/>
	</g>
	
		<linearGradient id="SVGID_1_" gradientUnits="userSpaceOnUse" x1="22.085" y1="26.0237" x2="22.085" y2="12.5317" gradientTransform="matrix(1 0 0 -1 0 31)">
		<stop  offset="0" style="stop-color:#FFFFFF"/>
		<stop  offset="0.3126" style="stop-color:#E2E1E0"/>
		<stop  offset="0.7198" style="stop-color:#C8C8C8"/>
		<stop  offset="0.9324" style="stop-color:#AFB0B1"/>
	</linearGradient>
	<path class="st2" d="M26.04,8.956l-1.359-0.098c-1.298,0-2.13,0.408-2.498,1.224v8.386h-4.126V5.221h3.869l0.135,1.701
		c0.694-1.298,1.661-1.946,2.901-1.946c0.441,0,0.824,0.049,1.151,0.147L26.04,8.956z"/>
	<g>
		
			<linearGradient id="SVGID_2_" gradientUnits="userSpaceOnUse" x1="32.8395" y1="26.1667" x2="32.8395" y2="12.1547" gradientTransform="matrix(1 0 0 -1 0 31)">
			<stop  offset="0" style="stop-color:#FFFFFF"/>
			<stop  offset="0.3126" style="stop-color:#E2E1E0"/>
			<stop  offset="0.7198" style="stop-color:#C8C8C8"/>
			<stop  offset="0.9324" style="stop-color:#AFB0B1"/>
		</linearGradient>
		<path class="st3" d="M32.942,15.218c-1.731,0-3.139-1.516-3.139-3.38c0-1.863,1.408-3.378,3.139-3.378
			c1.142,0,2.142,0.66,2.692,1.644h3.734c-0.731-3.029-3.329-5.271-6.425-5.271c-3.662,0-6.632,3.136-6.632,7.005
			s2.97,7.007,6.632,7.007c3.094,0,5.695-2.241,6.425-5.271h-3.734C35.084,14.558,34.084,15.218,32.942,15.218z"/>
	</g>
	<g>
		
			<linearGradient id="SVGID_3_" gradientUnits="userSpaceOnUse" x1="10.617" y1="26.1527" x2="10.617" y2="12.1547" gradientTransform="matrix(1 0 0 -1 0 31)">
			<stop  offset="0" style="stop-color:#FFFFFF"/>
			<stop  offset="0.3126" style="stop-color:#E2E1E0"/>
			<stop  offset="0.7198" style="stop-color:#C8C8C8"/>
			<stop  offset="0.9324" style="stop-color:#AFB0B1"/>
		</linearGradient>
		<path class="st4" d="M11.287,18.845c-2.206,0-3.991-0.636-5.355-1.907s-2.046-2.927-2.046-4.965v-0.36
			c0-1.421,0.858-6.766,6.924-6.766c5.552,0,6.538,4.303,6.538,6.47v1.682H8.284c0.16,0.779,0.471,2.505,3.308,2.505
			c1.418,0,2.525-0.48,3.322-1.438l2.046,2.338c-0.558,0.745-1.349,1.338-2.372,1.779C13.566,18.625,12.465,18.845,11.287,18.845z"
			/>
		<g>
			<path class="st5" d="M9.884,6.342c0.348,0,3.803,1.996,3.803,2.628c0,0.631-3.361,2.628-3.803,2.628
				C9.443,11.599,9.537,6.342,9.884,6.342z"/>
			<g>
				<path class="st6" d="M9.884,6.342c-0.044,0-0.084,0.085-0.12,0.234c0.443,0.064,3.78,2.003,3.78,2.625
					c0,0.024-0.006,0.05-0.015,0.078c0.1-0.121,0.158-0.227,0.158-0.308C13.687,8.338,10.231,6.342,9.884,6.342z"/>
			</g>
			<g>
				<path class="st7" d="M13.538,9.269c-0.003,0.003-0.005,0.005-0.007,0.008c0,0.001,0,0.001-0.001,0.002
					C13.533,9.275,13.535,9.272,13.538,9.269z"/>
				<path class="st7" d="M13.538,9.153c-0.674,0.823-3.332,2.373-3.725,2.373c-0.005,0-0.009-0.002-0.014-0.003
					c0.025,0.047,0.054,0.073,0.084,0.073c0.385,0,2.98-1.513,3.647-2.321c0.008-0.027,0.015-0.053,0.015-0.076
					C13.545,9.186,13.542,9.17,13.538,9.153z"/>
			</g>
		</g>
		<path class="st8" d="M10.809,4.848c-2.909,0-4.62,1.23-5.613,2.665c1.582,0.853,3.436,1.343,5.42,1.343
			c2.072,0,4.003-0.536,5.63-1.459C15.32,5.993,13.671,4.848,10.809,4.848z"/>
	</g>
</g>
<g>
	<polygon class="st7" points="44.823,11.726 42.222,11.726 42.222,9.753 44.484,9.753 44.484,9.406 42.222,9.406 42.222,7.58 
		44.807,7.58 44.807,7.235 41.812,7.235 41.812,12.071 44.823,12.071 	"/>
	<rect x="45.466" y="6.968" class="st7" width="0.399" height="5.103"/>
	<path class="st7" d="M47.338,11.912c0.247,0.15,0.523,0.226,0.829,0.226c0.557,0,0.979-0.211,1.273-0.634l-0.249-0.19
		c-0.133,0.171-0.281,0.295-0.444,0.371c-0.163,0.078-0.351,0.116-0.563,0.116c-0.354,0-0.648-0.136-0.882-0.407
		c-0.233-0.271-0.351-0.61-0.351-1.018v-0.076h2.565v-0.223c0-0.516-0.127-0.923-0.384-1.221c-0.256-0.298-0.602-0.447-1.038-0.447
		c-0.278,0-0.538,0.08-0.777,0.238c-0.239,0.158-0.427,0.376-0.559,0.653c-0.133,0.277-0.202,0.587-0.202,0.934v0.143
		c0,0.333,0.07,0.636,0.206,0.906C46.899,11.551,47.091,11.761,47.338,11.912z M47.338,9.077c0.205-0.22,0.456-0.329,0.756-0.329
		c0.301,0,0.545,0.108,0.731,0.325c0.186,0.217,0.285,0.499,0.296,0.844V9.96h-2.157C47.008,9.591,47.133,9.297,47.338,9.077z"/>
	<path class="st7" d="M52.83,10.962h-0.382c-0.016,0.249-0.118,0.451-0.305,0.606c-0.187,0.155-0.419,0.234-0.696,0.234
		c-0.361,0-0.641-0.128-0.839-0.385c-0.199-0.257-0.297-0.615-0.297-1.073v-0.116c0-0.467,0.098-0.831,0.297-1.09
		c0.199-0.258,0.476-0.389,0.835-0.389c0.282,0,0.514,0.087,0.7,0.258c0.185,0.174,0.286,0.399,0.305,0.682h0.382
		c-0.017-0.383-0.155-0.692-0.41-0.927c-0.256-0.234-0.581-0.352-0.975-0.352c-0.309,0-0.581,0.074-0.813,0.222
		c-0.231,0.149-0.409,0.359-0.534,0.632c-0.124,0.272-0.186,0.586-0.186,0.94v0.119c0,0.554,0.138,0.994,0.414,1.322
		s0.65,0.492,1.121,0.492c0.239,0,0.464-0.051,0.672-0.154c0.209-0.102,0.377-0.243,0.503-0.423
		C52.75,11.38,52.819,11.18,52.83,10.962z"/>
	<path class="st7" d="M53.673,11.201c0,0.308,0.062,0.54,0.186,0.7c0.124,0.158,0.322,0.238,0.595,0.238
		c0.179,0,0.321-0.019,0.425-0.056l-0.016-0.323c-0.15,0.021-0.256,0.033-0.322,0.033c-0.168,0-0.288-0.049-0.361-0.146
		c-0.071-0.098-0.108-0.246-0.108-0.446V8.803h0.744V8.477h-0.744V7.556h-0.399v0.92h-0.662v0.325h0.662V11.201L53.673,11.201z"/>
	<path class="st7" d="M56.861,8.792c0.095,0,0.185,0.008,0.269,0.023l0.009-0.361c-0.064-0.029-0.151-0.043-0.262-0.043
		c-0.465,0-0.803,0.212-1.013,0.637l-0.006-0.571H55.47v3.594h0.396V9.604c0.074-0.263,0.195-0.465,0.368-0.603
		C56.405,8.861,56.614,8.792,56.861,8.792z"/>
	<path class="st7" d="M60.312,11.268c0.134-0.278,0.202-0.59,0.202-0.938v-0.083c0-0.554-0.149-0.998-0.446-1.334
		c-0.296-0.336-0.684-0.503-1.162-0.503c-0.31,0-0.587,0.077-0.831,0.23c-0.245,0.154-0.434,0.369-0.568,0.646
		c-0.133,0.277-0.202,0.587-0.202,0.934v0.08c0,0.554,0.149,0.998,0.447,1.334c0.298,0.336,0.685,0.503,1.161,0.503
		c0.313,0,0.59-0.075,0.833-0.226C59.988,11.761,60.177,11.547,60.312,11.268z M58.911,11.802c-0.361,0-0.653-0.138-0.876-0.413
		c-0.222-0.276-0.333-0.628-0.333-1.058v-0.072c0-0.45,0.112-0.813,0.336-1.092c0.224-0.278,0.512-0.417,0.867-0.417
		c0.237,0,0.447,0.062,0.632,0.188c0.183,0.126,0.327,0.302,0.428,0.53c0.102,0.229,0.154,0.479,0.154,0.754v0.076
		c0,0.452-0.111,0.815-0.333,1.092C59.56,11.663,59.27,11.802,58.911,11.802z"/>
	<path class="st7" d="M63.274,8.991c0.134,0.157,0.202,0.396,0.205,0.717v2.362h0.396V9.712c-0.003-0.434-0.098-0.76-0.286-0.977
		C63.4,8.518,63.113,8.41,62.728,8.41c-0.244,0-0.466,0.058-0.668,0.174C61.859,8.7,61.69,8.869,61.556,9.09l-0.013-0.615h-0.379
		v3.594h0.396V9.611c0.091-0.261,0.23-0.468,0.42-0.623c0.19-0.154,0.407-0.23,0.653-0.23C62.926,8.756,63.14,8.834,63.274,8.991z"
		/>
	<rect x="64.776" y="8.476" class="st7" width="0.399" height="3.594"/>
	<path class="st7" d="M64.978,7.17c-0.084,0-0.15,0.026-0.199,0.078s-0.074,0.116-0.074,0.19s0.024,0.137,0.074,0.188
		c0.049,0.051,0.116,0.076,0.199,0.076s0.151-0.025,0.202-0.076c0.05-0.051,0.074-0.114,0.074-0.188c0-0.074-0.024-0.138-0.074-0.19
		C65.13,7.197,65.063,7.17,64.978,7.17z"/>
	<path class="st7" d="M66.575,9.137c0.199-0.258,0.476-0.389,0.835-0.389c0.282,0,0.514,0.087,0.7,0.258
		c0.185,0.174,0.286,0.399,0.304,0.682h0.382c-0.017-0.383-0.155-0.692-0.41-0.927c-0.256-0.234-0.581-0.352-0.975-0.352
		c-0.309,0-0.581,0.074-0.813,0.222c-0.231,0.149-0.409,0.359-0.534,0.632c-0.124,0.272-0.186,0.586-0.186,0.94v0.119
		c0,0.554,0.138,0.994,0.414,1.322c0.276,0.328,0.65,0.492,1.121,0.492c0.239,0,0.464-0.051,0.672-0.154
		c0.209-0.102,0.377-0.243,0.503-0.423c0.126-0.181,0.195-0.381,0.206-0.6h-0.382c-0.016,0.249-0.118,0.451-0.304,0.606
		c-0.187,0.156-0.419,0.234-0.696,0.234c-0.361,0-0.641-0.128-0.839-0.385c-0.199-0.257-0.297-0.615-0.297-1.073v-0.116
		C66.276,9.76,66.377,9.397,66.575,9.137z"/>
	<path class="st7" d="M45.183,15.595c0.143-0.221,0.214-0.496,0.214-0.826c0-0.465-0.155-0.824-0.465-1.08
		c-0.309-0.254-0.751-0.382-1.322-0.382h-1.798v4.837h0.997v-1.77h0.793l0.907,1.77h1.069v-0.047l-1.046-1.977
		C44.823,15.991,45.039,15.815,45.183,15.595z M44.194,15.375c-0.137,0.127-0.332,0.191-0.582,0.191h-0.804v-1.453h0.8
		c0.268,0,0.467,0.066,0.597,0.195c0.13,0.13,0.194,0.309,0.194,0.538C44.4,15.072,44.331,15.248,44.194,15.375z"/>
	<path class="st7" d="M47.468,14.483c-0.328,0-0.619,0.077-0.876,0.23c-0.256,0.154-0.453,0.373-0.593,0.658
		c-0.14,0.285-0.209,0.606-0.209,0.969v0.092c0,0.538,0.165,0.969,0.496,1.292c0.332,0.324,0.76,0.484,1.287,0.484
		c0.299,0,0.571-0.057,0.817-0.171c0.246-0.114,0.44-0.273,0.585-0.476l-0.472-0.528c-0.209,0.268-0.496,0.402-0.867,0.402
		c-0.239,0-0.437-0.071-0.593-0.212c-0.156-0.142-0.25-0.33-0.281-0.565h2.289v-0.392c0-0.569-0.141-1.009-0.423-1.319
		C48.348,14.638,47.961,14.483,47.468,14.483z M48.11,16.005h-1.335c0.033-0.24,0.109-0.425,0.227-0.554
		c0.118-0.128,0.273-0.193,0.464-0.193c0.203,0,0.361,0.059,0.472,0.174c0.111,0.118,0.168,0.282,0.173,0.495V16.005L48.11,16.005z"
		/>
	<path class="st7" d="M51.547,16.143c-0.164-0.06-0.365-0.114-0.605-0.161c-0.239-0.047-0.409-0.104-0.51-0.17
		c-0.102-0.066-0.151-0.151-0.151-0.257c0-0.112,0.044-0.206,0.133-0.278c0.088-0.074,0.213-0.109,0.375-0.109
		c0.188,0,0.326,0.044,0.416,0.135c0.088,0.09,0.133,0.202,0.133,0.34h0.961c0-0.344-0.136-0.623-0.41-0.837
		c-0.274-0.215-0.638-0.322-1.094-0.322c-0.427,0-0.773,0.107-1.038,0.32s-0.397,0.48-0.397,0.799c0,0.547,0.427,0.91,1.283,1.09
		c0.257,0.053,0.444,0.114,0.559,0.181c0.116,0.067,0.174,0.16,0.174,0.277c0,0.113-0.047,0.205-0.141,0.274
		C51.139,17.495,51,17.53,50.816,17.53c-0.197,0-0.354-0.045-0.472-0.136c-0.118-0.091-0.181-0.221-0.19-0.392h-0.91
		c0,0.217,0.067,0.419,0.199,0.606c0.133,0.188,0.316,0.333,0.55,0.442c0.233,0.108,0.502,0.161,0.803,0.161
		c0.446,0,0.808-0.102,1.09-0.304c0.282-0.202,0.421-0.468,0.421-0.796C52.307,16.652,52.054,16.331,51.547,16.143z"/>
	<path class="st7" d="M55.492,14.929c-0.306-0.296-0.702-0.446-1.188-0.446c-0.341,0-0.641,0.076-0.898,0.23
		c-0.258,0.154-0.456,0.369-0.593,0.648c-0.137,0.278-0.206,0.597-0.206,0.954v0.043c0,0.571,0.155,1.023,0.464,1.356
		c0.309,0.333,0.722,0.499,1.241,0.499c0.518,0,0.931-0.167,1.239-0.5c0.308-0.333,0.462-0.776,0.462-1.327l-0.007-0.246
		C55.969,15.628,55.799,15.224,55.492,14.929z M54.856,17.168c-0.13,0.178-0.313,0.268-0.545,0.268c-0.239,0-0.423-0.09-0.551-0.271
		c-0.128-0.181-0.193-0.442-0.193-0.784c0-0.384,0.064-0.666,0.193-0.851c0.128-0.183,0.31-0.275,0.545-0.275
		c0.237,0,0.42,0.092,0.551,0.277c0.13,0.183,0.195,0.444,0.195,0.779C55.051,16.705,54.986,16.989,54.856,17.168z"/>
	<path class="st7" d="M58.552,17.097c-0.122,0.226-0.345,0.34-0.672,0.34c-0.341,0-0.512-0.187-0.512-0.562V14.55h-0.961v2.355
		c0.005,0.427,0.108,0.752,0.31,0.973c0.202,0.221,0.496,0.333,0.882,0.333c0.419,0,0.747-0.145,0.983-0.432l0.026,0.365h0.903
		V14.55h-0.963L58.552,17.097L58.552,17.097z"/>
	<path class="st7" d="M61.003,14.979l-0.026-0.428H60.07v3.594h0.961v-2.352c0.113-0.246,0.351-0.369,0.714-0.369
		c0.099,0,0.215,0.009,0.345,0.026l0.013-0.924c-0.092-0.029-0.193-0.043-0.299-0.043C61.462,14.483,61.196,14.649,61.003,14.979z"
		/>
	<path class="st7" d="M63.3,15.503c0.114-0.163,0.282-0.245,0.506-0.245c0.182,0,0.328,0.059,0.438,0.174
		c0.111,0.118,0.168,0.269,0.173,0.456h0.9c-0.005-0.425-0.143-0.765-0.414-1.021c-0.271-0.256-0.632-0.384-1.081-0.384
		c-0.513,0-0.918,0.165-1.212,0.495c-0.295,0.33-0.442,0.772-0.442,1.325v0.063c0,0.575,0.149,1.027,0.446,1.354
		c0.296,0.326,0.702,0.49,1.216,0.49c0.275,0,0.526-0.056,0.752-0.168c0.227-0.112,0.406-0.269,0.536-0.472
		c0.13-0.202,0.197-0.427,0.199-0.669h-0.9c-0.005,0.162-0.062,0.292-0.173,0.389c-0.111,0.098-0.254,0.146-0.432,0.146
		c-0.23,0-0.402-0.08-0.515-0.243c-0.112-0.162-0.17-0.428-0.17-0.799v-0.099C63.128,15.929,63.186,15.664,63.3,15.503z"/>
	<path class="st7" d="M67.244,14.483c-0.328,0-0.619,0.077-0.876,0.23c-0.256,0.154-0.453,0.373-0.593,0.658
		c-0.14,0.285-0.209,0.606-0.209,0.969v0.092c0,0.538,0.165,0.969,0.496,1.292c0.332,0.324,0.76,0.484,1.287,0.484
		c0.299,0,0.571-0.057,0.817-0.171c0.246-0.114,0.44-0.273,0.585-0.476l-0.472-0.528c-0.209,0.268-0.496,0.402-0.867,0.402
		c-0.239,0-0.437-0.071-0.593-0.212c-0.156-0.142-0.249-0.33-0.281-0.565h2.289v-0.392c0-0.569-0.141-1.009-0.423-1.319
		C68.123,14.638,67.735,14.483,67.244,14.483z M67.885,16.005H66.55c0.033-0.24,0.109-0.425,0.227-0.554
		c0.118-0.128,0.273-0.193,0.464-0.193c0.203,0,0.361,0.059,0.472,0.174c0.111,0.118,0.168,0.282,0.174,0.495L67.885,16.005
		L67.885,16.005L67.885,16.005z"/>
	<path class="st7" d="M71.909,14.415c0.165-0.238,0.414-0.357,0.747-0.357c0.306,0,0.534,0.071,0.682,0.211
		c0.15,0.141,0.237,0.368,0.261,0.68h0.997c-0.053-0.54-0.25-0.961-0.591-1.259c-0.341-0.299-0.791-0.448-1.349-0.448
		c-0.403,0-0.756,0.095-1.061,0.285c-0.305,0.189-0.539,0.461-0.702,0.815c-0.164,0.354-0.246,0.765-0.246,1.228v0.296
		c0,0.728,0.178,1.302,0.534,1.719c0.355,0.417,0.843,0.626,1.463,0.626c0.567,0,1.023-0.15,1.37-0.448
		c0.346-0.299,0.539-0.709,0.577-1.228h-0.997c-0.022,0.295-0.109,0.512-0.261,0.653c-0.151,0.141-0.381,0.211-0.689,0.211
		c-0.341,0-0.59-0.12-0.748-0.361c-0.158-0.241-0.238-0.624-0.238-1.145v-0.365C71.657,15.023,71.743,14.653,71.909,14.415z"/>
	<path class="st7" d="M76.557,14.483c-0.328,0-0.619,0.077-0.876,0.23c-0.256,0.154-0.453,0.373-0.593,0.658
		c-0.14,0.285-0.209,0.606-0.209,0.969v0.092c0,0.538,0.165,0.969,0.496,1.292c0.332,0.324,0.76,0.484,1.287,0.484
		c0.299,0,0.571-0.057,0.817-0.171c0.246-0.114,0.44-0.273,0.585-0.476l-0.472-0.528c-0.209,0.268-0.496,0.402-0.867,0.402
		c-0.239,0-0.437-0.071-0.593-0.212c-0.156-0.142-0.25-0.33-0.281-0.565h2.289v-0.392c0-0.569-0.141-1.009-0.423-1.319
		C77.436,14.638,77.049,14.483,76.557,14.483z M77.198,16.005h-1.335c0.033-0.24,0.109-0.425,0.227-0.554
		c0.118-0.128,0.273-0.193,0.464-0.193c0.203,0,0.361,0.059,0.472,0.174c0.111,0.118,0.168,0.282,0.174,0.495L77.198,16.005
		L77.198,16.005L77.198,16.005z"/>
	<path class="st7" d="M80.462,14.483c-0.432,0-0.776,0.161-1.033,0.482l-0.03-0.416h-0.903v3.594h0.961v-2.541
		c0.135-0.23,0.337-0.346,0.607-0.346c0.206,0,0.353,0.047,0.442,0.138c0.088,0.092,0.133,0.24,0.133,0.444v2.304h0.961v-2.323
		c-0.005-0.446-0.099-0.779-0.286-1.003C81.127,14.595,80.844,14.483,80.462,14.483z"/>
	<path class="st7" d="M83.382,17.334c-0.051-0.058-0.076-0.154-0.076-0.286v-1.794h0.615V14.55h-0.615v-0.883h-0.961v0.883H81.82
		v0.704h0.525v1.936c0.013,0.68,0.357,1.019,1.029,1.019c0.199,0,0.392-0.029,0.582-0.087v-0.728
		c-0.082,0.016-0.175,0.023-0.282,0.023C83.53,17.421,83.434,17.392,83.382,17.334z"/>
	<path class="st7" d="M85.833,14.483c-0.328,0-0.619,0.077-0.876,0.23c-0.256,0.154-0.453,0.373-0.593,0.658
		c-0.14,0.285-0.209,0.606-0.209,0.969v0.092c0,0.538,0.165,0.969,0.496,1.292c0.332,0.324,0.76,0.484,1.287,0.484
		c0.299,0,0.571-0.057,0.817-0.171c0.246-0.114,0.44-0.273,0.585-0.476l-0.472-0.528c-0.209,0.268-0.496,0.402-0.867,0.402
		c-0.239,0-0.437-0.071-0.593-0.212c-0.156-0.142-0.25-0.33-0.281-0.565h2.289v-0.392c0-0.569-0.141-1.009-0.423-1.319
		C86.712,14.638,86.324,14.483,85.833,14.483z M86.474,16.005h-1.335c0.033-0.24,0.109-0.425,0.227-0.554
		c0.118-0.128,0.273-0.193,0.464-0.193c0.203,0,0.361,0.059,0.472,0.174c0.111,0.118,0.168,0.282,0.174,0.495L86.474,16.005
		L86.474,16.005L86.474,16.005z"/>
	<path class="st7" d="M89.527,14.483c-0.341,0-0.607,0.165-0.8,0.495L88.7,14.55h-0.907v3.594h0.961v-2.352
		c0.112-0.246,0.351-0.369,0.714-0.369c0.099,0,0.215,0.009,0.345,0.026l0.013-0.924C89.731,14.498,89.632,14.483,89.527,14.483z"/>
</g>
</svg>
