<?xml version="1.0" encoding="utf-8"?>
<!-- Generator: Adobe Illustrator 22.1.0, SVG Export Plug-In . SVG Version: 6.00 Build 0)  -->
<svg version="1.1" id="Layer_1" xmlns="http://www.w3.org/2000/svg" xmlns:xlink="http://www.w3.org/1999/xlink" x="0px" y="0px"
	 viewBox="0 0 75 25" style="enable-background:new 0 0 75 25;" xml:space="preserve">
<style type="text/css">
	.st0{fill:#758492;}
	.st1{fill:url(#SVGID_1_);}
	.st2{fill:url(#SVGID_2_);}
	.st3{fill:url(#SVGID_3_);}
	.st4{fill:#F5F5F5;}
	.st5{fill:#00B1E1;}
	.st6{opacity:0.51;}
	.st7{fill:#217CC0;}
	.st8{opacity:0.33;fill:#FFFFFF;enable-background:new    ;}
	.st9{fill:#FFFFFF;}
</style>
<g>
	<g>
		<path class="st0" d="M25.513,11.773v2.858c-0.517-0.276-1.106-0.434-1.732-0.434c-2.043,0-3.699,1.671-3.699,3.732
			s1.656,3.732,3.699,3.732c0.627,0,1.216-0.158,1.732-0.434v0.434h1.966v-9.888H25.513z M23.822,19.683
			c-0.934,0-1.691-0.764-1.691-1.708c0.001-0.943,0.758-1.708,1.691-1.708c0.934,0,1.691,0.764,1.691,1.708
			C25.513,18.918,24.756,19.683,23.822,19.683z"/>
		<path class="st0" d="M16.12,14.42c-0.643,0-1.247,0.162-1.777,0.445V14.42h-2.017v10.143h2.017v-2.932
			c0.531,0.284,1.134,0.445,1.777,0.445c2.096,0,3.794-1.714,3.794-3.828C19.914,16.134,18.216,14.42,16.12,14.42z M16.078,19.951
			c-0.958,0-1.735-0.784-1.735-1.751c0-0.966,0.778-1.751,1.735-1.751c0.958,0,1.735,0.784,1.735,1.751S17.037,19.951,16.078,19.951
			z"/>
		<path class="st0" d="M11.547,16.136c-0.018-0.044-0.039-0.086-0.058-0.129c-0.043-0.097-0.087-0.192-0.136-0.286
			c-0.027-0.052-0.055-0.104-0.084-0.156c-0.048-0.086-0.099-0.171-0.151-0.253c-0.029-0.045-0.056-0.09-0.086-0.135
			c-0.081-0.119-0.165-0.236-0.256-0.348c-0.024-0.03-0.051-0.059-0.076-0.087c-0.072-0.086-0.146-0.169-0.223-0.25
			c-0.038-0.04-0.076-0.078-0.115-0.116c-0.073-0.071-0.147-0.14-0.224-0.207c-0.038-0.033-0.075-0.066-0.113-0.098
			c-0.112-0.093-0.229-0.183-0.349-0.265c-0.021-0.015-0.044-0.028-0.065-0.043c-0.103-0.068-0.209-0.135-0.318-0.195
			c-0.043-0.024-0.087-0.048-0.131-0.071c-0.095-0.051-0.191-0.098-0.29-0.142c-0.043-0.019-0.084-0.04-0.128-0.057
			c-0.139-0.059-0.28-0.113-0.424-0.158c-0.013-0.004-0.025-0.006-0.038-0.01c-0.134-0.041-0.271-0.076-0.41-0.108
			c-0.045-0.01-0.092-0.018-0.138-0.027c-0.112-0.021-0.225-0.039-0.339-0.052c-0.047-0.006-0.093-0.012-0.141-0.017
			c-0.156-0.014-0.315-0.025-0.475-0.025c-0.162,0-0.323,0.01-0.481,0.025c-0.05,0.005-0.098,0.012-0.146,0.018
			c-0.111,0.013-0.221,0.03-0.329,0.05c-0.053,0.01-0.105,0.021-0.157,0.032c-0.111,0.026-0.221,0.055-0.329,0.087
			c-0.041,0.012-0.083,0.023-0.125,0.037c-0.146,0.047-0.289,0.1-0.429,0.159c-0.027,0.011-0.053,0.025-0.08,0.037
			c-0.113,0.051-0.223,0.105-0.331,0.163c-0.047,0.025-0.092,0.052-0.138,0.078c-0.088,0.051-0.175,0.104-0.26,0.16
			c-0.046,0.03-0.091,0.061-0.136,0.092c-0.09,0.064-0.176,0.13-0.261,0.199c-0.033,0.027-0.068,0.052-0.101,0.08
			c-0.112,0.095-0.219,0.195-0.322,0.298c-0.037,0.036-0.07,0.074-0.105,0.112c-0.069,0.073-0.136,0.147-0.2,0.223
			c-0.039,0.048-0.077,0.097-0.116,0.147c-0.056,0.071-0.11,0.146-0.163,0.221c-0.036,0.051-0.072,0.101-0.106,0.154
			c-0.058,0.089-0.112,0.182-0.164,0.275c-0.029,0.05-0.058,0.1-0.085,0.151c-0.061,0.117-0.118,0.238-0.17,0.36
			c-0.025,0.058-0.047,0.118-0.069,0.177c-0.021,0.055-0.044,0.108-0.064,0.163c0.002,0.001,0.002,0.002,0.004,0.002
			c-0.191,0.548-0.3,1.136-0.3,1.751c0,2.901,2.312,5.252,5.163,5.252s5.163-2.351,5.163-5.252c0.001-0.71-0.139-1.387-0.389-2.005
			C11.55,16.145,11.548,16.14,11.547,16.136z"/>
	</g>
	
		<linearGradient id="SVGID_1_" gradientUnits="userSpaceOnUse" x1="6.834" y1="12.6395" x2="6.834" y2="1.7055" gradientTransform="matrix(1 0 0 -1 0 25)">
		<stop  offset="0" style="stop-color:#FFFFFF"/>
		<stop  offset="0.5207" style="stop-color:#DDDDDC"/>
		<stop  offset="0.5365" style="stop-color:#DEDEDD"/>
		<stop  offset="1" style="stop-color:#C7C7C7"/>
	</linearGradient>
	<path class="st1" d="M5.664,14.876c0.393,0,4.291,2.252,4.291,2.965c0,0.712-3.792,2.965-4.291,2.965
		C5.167,20.807,5.272,14.876,5.664,14.876z M6.834,12.36c2.968,0,5.374,2.449,5.374,5.467c0,3.019-2.406,5.467-5.374,5.467
		S1.46,20.846,1.46,17.826S3.866,12.36,6.834,12.36z"/>
	
		<linearGradient id="SVGID_2_" gradientUnits="userSpaceOnUse" x1="23.806" y1="13.3945" x2="23.806" y2="3.2605" gradientTransform="matrix(1 0 0 -1 0 25)">
		<stop  offset="0" style="stop-color:#FFFFFF"/>
		<stop  offset="0.0732" style="stop-color:#F4F4F4"/>
		<stop  offset="0.1803" style="stop-color:#EDEDED"/>
		<stop  offset="0.4549" style="stop-color:#EBEBEB"/>
		<stop  offset="0.6207" style="stop-color:#E7E7E7"/>
		<stop  offset="0.7931" style="stop-color:#DADADA"/>
		<stop  offset="0.9681" style="stop-color:#C6C6C6"/>
		<stop  offset="1" style="stop-color:#C1C1C1"/>
	</linearGradient>
	<path class="st2" d="M23.848,16.211c0.957,0,1.733,0.783,1.733,1.751s-0.776,1.751-1.733,1.751s-1.733-0.783-1.733-1.751
		C22.115,16.995,22.892,16.211,23.848,16.211z M25.582,11.605v2.929c-0.53-0.283-1.133-0.445-1.776-0.445
		c-2.094,0-3.791,1.712-3.791,3.825s1.697,3.825,3.791,3.825c0.642,0,1.245-0.162,1.776-0.445v0.445h2.015V11.605H25.582z"/>
	
		<linearGradient id="SVGID_3_" gradientUnits="userSpaceOnUse" x1="16.137" y1="10.6335" x2="16.137" y2="0.4995" gradientTransform="matrix(1 0 0 -1 0 25)">
		<stop  offset="0" style="stop-color:#FFFFFF"/>
		<stop  offset="0.0264" style="stop-color:#F4F4F4"/>
		<stop  offset="0.0652" style="stop-color:#EDEDED"/>
		<stop  offset="0.1644" style="stop-color:#EBEBEB"/>
		<stop  offset="0.8561" style="stop-color:#C3C3C3"/>
	</linearGradient>
	<path class="st3" d="M16.095,16.392c0.957,0,1.733,0.783,1.733,1.75c0,0.967-0.776,1.75-1.733,1.75s-1.733-0.783-1.733-1.75
		C14.362,17.175,15.139,16.392,16.095,16.392z M16.137,14.366c-0.642,0-1.246,0.162-1.776,0.445v-0.445h-2.015V24.5h2.015v-2.929
		c0.53,0.283,1.133,0.445,1.776,0.445c2.094,0,3.791-1.712,3.791-3.825S18.231,14.366,16.137,14.366z"/>
	<path class="st4" d="M6.834,12.36c-2.339,0-4.328,1.521-5.066,3.642c0.928,0.671,2.169,1.146,3.572,1.33
		c0.035-1.295,0.151-2.456,0.324-2.456c0.291,0,2.498,1.233,3.628,2.162c0.99-0.292,1.85-0.74,2.509-1.297
		C10.996,13.756,9.076,12.36,6.834,12.36z"/>
	<path class="st5" d="M5.664,14.876c0.393,0,4.291,2.252,4.291,2.965c0,0.712-3.792,2.965-4.291,2.965
		C5.167,20.807,5.272,14.876,5.664,14.876z"/>
	<g class="st6">
		<path class="st7" d="M5.664,14.876c-0.05,0-0.095,0.096-0.135,0.264c0.499,0.073,4.266,2.26,4.266,2.962
			c0,0.027-0.007,0.056-0.017,0.088c0.113-0.136,0.178-0.256,0.178-0.348C9.955,17.128,6.057,14.876,5.664,14.876z"/>
	</g>
	<path class="st8" d="M5.34,17.332c0.414,0.054,0.841,0.083,1.279,0.083c0.953,0,1.858-0.135,2.674-0.376
		c-1.13-0.93-3.338-2.161-3.628-2.161C5.492,14.876,5.375,16.038,5.34,17.332z"/>
	<path class="st9" d="M9.787,18.048c-0.76,0.929-3.759,2.678-4.203,2.678c-0.005,0-0.01-0.002-0.015-0.003
		c0.029,0.054,0.061,0.083,0.095,0.083c0.434,0,3.363-1.707,4.114-2.619c0.009-0.031,0.016-0.06,0.016-0.086
		C9.795,18.085,9.791,18.066,9.787,18.048z"/>
	<g>
		<g>
			<g>
				<g>
					<path class="st9" d="M28.17,12.383c0-0.146,0.034-0.281,0.101-0.406s0.161-0.223,0.28-0.295
						c0.119-0.072,0.248-0.108,0.387-0.108s0.267,0.036,0.387,0.108c0.119,0.072,0.213,0.17,0.28,0.295
						c0.067,0.125,0.101,0.26,0.101,0.406c0,0.143-0.033,0.277-0.098,0.401c-0.066,0.124-0.158,0.223-0.277,0.298
						s-0.25,0.112-0.392,0.112s-0.273-0.037-0.392-0.112s-0.212-0.174-0.277-0.298C28.203,12.66,28.17,12.527,28.17,12.383z
						 M28.262,12.383c0,0.129,0.03,0.249,0.09,0.36s0.143,0.199,0.248,0.263s0.218,0.096,0.338,0.096s0.233-0.032,0.339-0.096
						c0.105-0.064,0.188-0.152,0.247-0.263c0.059-0.112,0.089-0.231,0.089-0.36c0-0.127-0.029-0.245-0.088-0.355
						c-0.058-0.11-0.14-0.197-0.245-0.262c-0.105-0.065-0.219-0.097-0.342-0.097c-0.121,0-0.234,0.032-0.339,0.096
						c-0.105,0.064-0.187,0.151-0.247,0.261C28.292,12.135,28.262,12.254,28.262,12.383z M28.763,12.45v0.374h-0.106v-0.907h0.279
						c0.106,0,0.187,0.022,0.244,0.067c0.057,0.044,0.085,0.111,0.085,0.201c0,0.096-0.051,0.167-0.153,0.213
						c0.052,0.019,0.088,0.048,0.108,0.087c0.02,0.039,0.03,0.086,0.03,0.141c0,0.055,0.001,0.094,0.004,0.119
						c0.003,0.025,0.008,0.045,0.014,0.062v0.017h-0.11c-0.01-0.026-0.015-0.092-0.015-0.197c0-0.064-0.014-0.11-0.041-0.137
						c-0.027-0.027-0.073-0.04-0.138-0.04C28.964,12.45,28.763,12.45,28.763,12.45z M28.763,12.353h0.196
						c0.058,0,0.107-0.015,0.144-0.045c0.038-0.03,0.057-0.07,0.057-0.12c0-0.061-0.016-0.105-0.047-0.131s-0.085-0.04-0.162-0.042
						h-0.188C28.763,12.015,28.763,12.353,28.763,12.353z"/>
				</g>
			</g>
		</g>
	</g>
</g>
<g>
	<path class="st9" d="M32.471,16.203c0,0.248-0.043,0.466-0.129,0.654c-0.086,0.188-0.208,0.332-0.368,0.433
		c-0.159,0.101-0.343,0.152-0.552,0.152c-0.315,0-0.569-0.113-0.763-0.338s-0.291-0.529-0.291-0.912v-0.278
		c0-0.246,0.044-0.463,0.131-0.653s0.21-0.335,0.369-0.437s0.342-0.153,0.55-0.153c0.207,0,0.39,0.05,0.549,0.15
		c0.159,0.1,0.281,0.241,0.368,0.424c0.086,0.183,0.132,0.394,0.135,0.635v0.323H32.471z M32.243,15.911
		c0-0.325-0.073-0.579-0.22-0.763s-0.348-0.276-0.604-0.276c-0.251,0-0.45,0.092-0.599,0.277c-0.149,0.185-0.223,0.442-0.223,0.773
		v0.281c0,0.32,0.074,0.573,0.222,0.76s0.349,0.28,0.604,0.28c0.258,0,0.459-0.092,0.604-0.277c0.144-0.185,0.217-0.442,0.217-0.771
		L32.243,15.911L32.243,15.911z"/>
	<path class="st9" d="M33.109,15.402l0.008,0.343c0.075-0.123,0.169-0.217,0.281-0.282s0.236-0.097,0.372-0.097
		c0.215,0,0.375,0.061,0.48,0.181c0.105,0.121,0.158,0.302,0.159,0.544v1.314h-0.22v-1.316c-0.001-0.179-0.039-0.312-0.114-0.4
		c-0.075-0.088-0.194-0.131-0.358-0.131c-0.137,0-0.258,0.043-0.364,0.129c-0.105,0.086-0.184,0.202-0.234,0.347v1.372h-0.22v-2.003
		h0.21V15.402z"/>
	<path class="st9" d="M35.134,17.405h-0.222v-2.844h0.222V17.405z"/>
	<path class="st9" d="M35.628,14.823c0-0.042,0.014-0.077,0.041-0.106s0.064-0.043,0.111-0.043s0.084,0.014,0.112,0.043
		s0.042,0.064,0.042,0.106s-0.014,0.077-0.042,0.105s-0.065,0.042-0.112,0.042s-0.084-0.014-0.111-0.042
		S35.628,14.865,35.628,14.823z M35.889,17.405h-0.222v-2.003h0.222V17.405z"/>
	<path class="st9" d="M36.607,15.402l0.008,0.343c0.075-0.123,0.169-0.217,0.281-0.282s0.236-0.097,0.372-0.097
		c0.215,0,0.375,0.061,0.48,0.181c0.105,0.121,0.158,0.302,0.159,0.544v1.314h-0.22v-1.316c-0.001-0.179-0.039-0.312-0.114-0.4
		c-0.075-0.088-0.194-0.131-0.358-0.131c-0.137,0-0.258,0.043-0.364,0.129c-0.105,0.086-0.184,0.202-0.234,0.347v1.372h-0.22v-2.003
		h0.21V15.402z"/>
	<path class="st9" d="M39.16,17.442c-0.17,0-0.324-0.042-0.462-0.126c-0.138-0.084-0.245-0.201-0.321-0.351
		c-0.077-0.15-0.115-0.318-0.115-0.504v-0.08c0-0.193,0.037-0.366,0.112-0.52s0.179-0.276,0.312-0.364s0.278-0.132,0.433-0.132
		c0.243,0,0.436,0.083,0.579,0.249s0.214,0.393,0.214,0.68v0.124h-1.429v0.043c0,0.227,0.065,0.416,0.195,0.567
		c0.13,0.151,0.294,0.227,0.492,0.227c0.119,0,0.223-0.021,0.314-0.065c0.091-0.043,0.173-0.112,0.247-0.207l0.139,0.106
		C39.706,17.324,39.47,17.442,39.16,17.442z M39.119,15.554c-0.166,0-0.307,0.061-0.421,0.183c-0.114,0.122-0.184,0.286-0.208,0.493
		h1.202v-0.024c-0.006-0.193-0.061-0.349-0.165-0.47C39.423,15.614,39.287,15.554,39.119,15.554z"/>
	<path class="st9" d="M41.355,16.307v1.098h-0.228v-2.696h0.918c0.28,0,0.501,0.072,0.664,0.215c0.162,0.143,0.243,0.34,0.243,0.591
		c0,0.253-0.078,0.448-0.234,0.586c-0.156,0.138-0.382,0.206-0.678,0.206C42.04,16.307,41.355,16.307,41.355,16.307z M41.355,16.115
		h0.691c0.221,0,0.389-0.052,0.505-0.158c0.116-0.105,0.174-0.251,0.174-0.439c0-0.187-0.058-0.335-0.173-0.446
		s-0.279-0.167-0.492-0.17h-0.705C41.355,14.902,41.355,16.115,41.355,16.115z"/>
	<path class="st9" d="M44.242,15.591c-0.047-0.009-0.097-0.013-0.15-0.013c-0.138,0-0.255,0.039-0.351,0.116
		c-0.096,0.077-0.164,0.189-0.205,0.336v1.376h-0.22v-2.003h0.217l0.004,0.318c0.117-0.237,0.306-0.355,0.565-0.355
		c0.062,0,0.111,0.008,0.146,0.024L44.242,15.591z"/>
	<path class="st9" d="M44.337,16.374c0-0.193,0.037-0.366,0.112-0.52s0.18-0.274,0.317-0.36c0.136-0.086,0.291-0.129,0.464-0.129
		c0.267,0,0.483,0.093,0.648,0.28c0.165,0.187,0.248,0.435,0.248,0.743v0.046c0,0.194-0.037,0.368-0.112,0.523
		c-0.075,0.155-0.18,0.274-0.316,0.358s-0.291,0.126-0.465,0.126c-0.266,0-0.481-0.093-0.647-0.281
		c-0.166-0.187-0.249-0.435-0.249-0.743V16.374z M44.56,16.435c0,0.239,0.062,0.436,0.186,0.59c0.124,0.154,0.287,0.23,0.488,0.23
		c0.2,0,0.362-0.077,0.486-0.23s0.186-0.356,0.186-0.608v-0.043c0-0.153-0.028-0.293-0.085-0.42s-0.136-0.226-0.239-0.295
		c-0.103-0.07-0.22-0.104-0.352-0.104c-0.197,0-0.359,0.077-0.483,0.232c-0.125,0.155-0.187,0.358-0.187,0.608V16.435z"/>
	<path class="st9" d="M46.648,17.405v-1.822h-0.331v-0.182h0.331v-0.242c0-0.205,0.052-0.362,0.156-0.472
		c0.104-0.11,0.25-0.165,0.436-0.165c0.084,0,0.162,0.01,0.235,0.031l-0.017,0.184c-0.062-0.015-0.129-0.022-0.202-0.022
		c-0.122,0-0.217,0.038-0.285,0.114s-0.102,0.184-0.102,0.324v0.249h0.478v0.182H46.87v1.822L46.648,17.405L46.648,17.405z"/>
	<path class="st9" d="M48.38,17.442c-0.17,0-0.324-0.042-0.462-0.126c-0.138-0.084-0.245-0.201-0.321-0.351
		c-0.077-0.15-0.115-0.318-0.115-0.504v-0.08c0-0.193,0.037-0.366,0.112-0.52s0.179-0.276,0.312-0.364s0.278-0.132,0.433-0.132
		c0.243,0,0.436,0.083,0.579,0.249s0.214,0.393,0.214,0.68v0.124h-1.429v0.043c0,0.227,0.065,0.416,0.195,0.567
		c0.13,0.151,0.294,0.227,0.492,0.227c0.119,0,0.223-0.021,0.314-0.065c0.091-0.043,0.173-0.112,0.247-0.207l0.139,0.106
		C48.926,17.324,48.69,17.442,48.38,17.442z M48.339,15.554c-0.166,0-0.307,0.061-0.421,0.183c-0.114,0.122-0.184,0.286-0.208,0.493
		h1.202v-0.024c-0.006-0.193-0.061-0.349-0.165-0.47C48.643,15.614,48.507,15.554,48.339,15.554z"/>
	<path class="st9" d="M50.668,16.896c0-0.11-0.044-0.198-0.132-0.265c-0.088-0.067-0.221-0.119-0.399-0.156
		c-0.178-0.038-0.316-0.081-0.414-0.13s-0.171-0.108-0.219-0.179c-0.047-0.071-0.071-0.156-0.071-0.256
		c0-0.158,0.066-0.288,0.198-0.392c0.132-0.103,0.301-0.154,0.507-0.154c0.223,0,0.403,0.055,0.538,0.166
		c0.135,0.11,0.203,0.255,0.203,0.432h-0.222c0-0.117-0.049-0.215-0.147-0.292c-0.098-0.078-0.222-0.117-0.371-0.117
		c-0.146,0-0.263,0.032-0.351,0.097c-0.088,0.065-0.132,0.149-0.132,0.253c0,0.1,0.037,0.178,0.11,0.233
		c0.073,0.055,0.207,0.105,0.402,0.151c0.195,0.046,0.34,0.094,0.437,0.146s0.169,0.114,0.216,0.187s0.07,0.161,0.07,0.265
		c0,0.169-0.068,0.304-0.205,0.406c-0.136,0.101-0.315,0.152-0.534,0.152c-0.233,0-0.422-0.057-0.567-0.169
		c-0.145-0.113-0.218-0.256-0.218-0.429h0.222c0.009,0.13,0.063,0.231,0.164,0.303c0.101,0.072,0.234,0.108,0.399,0.108
		c0.154,0,0.279-0.034,0.374-0.102C50.621,17.086,50.668,17,50.668,16.896z"/>
	<path class="st9" d="M52.494,16.896c0-0.11-0.044-0.198-0.132-0.265c-0.088-0.067-0.221-0.119-0.399-0.156
		c-0.178-0.038-0.316-0.081-0.414-0.13s-0.171-0.108-0.219-0.179c-0.047-0.071-0.071-0.156-0.071-0.256
		c0-0.158,0.066-0.288,0.198-0.392c0.132-0.103,0.301-0.154,0.507-0.154c0.223,0,0.403,0.055,0.538,0.166
		c0.135,0.11,0.203,0.255,0.203,0.432h-0.222c0-0.117-0.049-0.215-0.147-0.292c-0.098-0.078-0.222-0.117-0.371-0.117
		c-0.146,0-0.263,0.032-0.351,0.097c-0.088,0.065-0.132,0.149-0.132,0.253c0,0.1,0.037,0.178,0.11,0.233
		c0.073,0.055,0.207,0.105,0.402,0.151c0.195,0.046,0.34,0.094,0.437,0.146s0.169,0.114,0.216,0.187s0.07,0.161,0.07,0.265
		c0,0.169-0.068,0.304-0.205,0.406c-0.136,0.101-0.315,0.152-0.534,0.152c-0.233,0-0.422-0.057-0.567-0.169
		c-0.145-0.113-0.218-0.256-0.218-0.429h0.222c0.009,0.13,0.063,0.231,0.164,0.303c0.101,0.072,0.234,0.108,0.399,0.108
		c0.154,0,0.279-0.034,0.374-0.102C52.446,17.086,52.494,17,52.494,16.896z"/>
	<path class="st9" d="M53.106,14.823c0-0.042,0.014-0.077,0.041-0.106s0.064-0.043,0.111-0.043s0.084,0.014,0.113,0.043
		c0.027,0.029,0.041,0.064,0.041,0.106s-0.014,0.077-0.041,0.105c-0.028,0.028-0.065,0.042-0.113,0.042
		c-0.047,0-0.084-0.014-0.111-0.042S53.106,14.865,53.106,14.823z M53.368,17.405h-0.222v-2.003h0.222V17.405z"/>
	<path class="st9" d="M53.752,16.374c0-0.193,0.038-0.366,0.112-0.52c0.075-0.154,0.18-0.274,0.317-0.36
		c0.136-0.086,0.291-0.129,0.464-0.129c0.267,0,0.482,0.093,0.648,0.28c0.165,0.187,0.248,0.435,0.248,0.743v0.046
		c0,0.194-0.038,0.368-0.112,0.523c-0.075,0.155-0.18,0.274-0.316,0.358s-0.29,0.126-0.465,0.126c-0.265,0-0.481-0.093-0.647-0.281
		c-0.166-0.187-0.249-0.435-0.249-0.743V16.374z M53.974,16.435c0,0.239,0.062,0.436,0.186,0.59c0.124,0.154,0.287,0.23,0.488,0.23
		c0.2,0,0.362-0.077,0.486-0.23s0.186-0.356,0.186-0.608v-0.043c0-0.153-0.028-0.293-0.085-0.42s-0.137-0.226-0.239-0.295
		c-0.103-0.07-0.22-0.104-0.351-0.104c-0.198,0-0.359,0.077-0.483,0.232c-0.125,0.155-0.187,0.358-0.187,0.608L53.974,16.435
		L53.974,16.435z"/>
	<path class="st9" d="M56.114,15.402l0.007,0.343c0.076-0.123,0.169-0.217,0.282-0.282c0.112-0.065,0.236-0.097,0.372-0.097
		c0.215,0,0.375,0.061,0.48,0.181c0.105,0.121,0.158,0.302,0.159,0.544v1.314h-0.22v-1.316c-0.001-0.179-0.04-0.312-0.114-0.4
		c-0.075-0.088-0.194-0.131-0.358-0.131c-0.137,0-0.258,0.043-0.364,0.129c-0.105,0.086-0.184,0.202-0.234,0.347v1.372h-0.22v-2.003
		h0.21V15.402z"/>
	<path class="st9" d="M59.156,17.405c-0.022-0.063-0.037-0.156-0.043-0.28c-0.078,0.101-0.177,0.179-0.297,0.234
		c-0.12,0.055-0.247,0.082-0.382,0.082c-0.192,0-0.349-0.054-0.468-0.161s-0.179-0.243-0.179-0.407c0-0.195,0.082-0.349,0.244-0.463
		c0.163-0.113,0.389-0.17,0.678-0.17h0.402v-0.228c0-0.143-0.044-0.256-0.132-0.338c-0.088-0.082-0.217-0.123-0.386-0.123
		c-0.154,0-0.282,0.04-0.383,0.119c-0.101,0.079-0.152,0.174-0.152,0.285l-0.222-0.002c0-0.159,0.074-0.297,0.222-0.414
		s0.33-0.175,0.546-0.175c0.224,0,0.4,0.056,0.529,0.167c0.129,0.112,0.195,0.268,0.199,0.468v0.948
		c0,0.194,0.021,0.339,0.061,0.435v0.022L59.156,17.405L59.156,17.405z M58.46,17.246c0.148,0,0.281-0.036,0.397-0.107
		c0.117-0.072,0.202-0.167,0.254-0.287v-0.441h-0.396c-0.221,0.002-0.394,0.043-0.518,0.121c-0.125,0.078-0.187,0.186-0.187,0.323
		c0,0.112,0.041,0.205,0.125,0.279C58.218,17.209,58.326,17.246,58.46,17.246z"/>
	<path class="st9" d="M60.076,17.405h-0.222v-2.844h0.222V17.405z"/>
	<path class="st9" d="M30.479,20.881v-2.696h0.754c0.221,0,0.419,0.05,0.594,0.151s0.312,0.245,0.41,0.432
		c0.098,0.188,0.147,0.401,0.147,0.641v0.248c0,0.241-0.049,0.454-0.146,0.641c-0.098,0.186-0.235,0.33-0.412,0.431
		s-0.38,0.152-0.61,0.152H30.479z M30.706,18.378v2.311h0.511c0.284,0,0.512-0.094,0.683-0.283c0.171-0.189,0.257-0.443,0.257-0.764
		v-0.237c0-0.31-0.085-0.558-0.254-0.745c-0.169-0.186-0.392-0.28-0.668-0.282H30.706z"/>
	<path class="st9" d="M33.59,20.918c-0.17,0-0.324-0.042-0.462-0.126c-0.138-0.084-0.245-0.201-0.321-0.351
		c-0.077-0.15-0.115-0.318-0.115-0.504v-0.08c0-0.193,0.037-0.366,0.112-0.52c0.075-0.154,0.179-0.276,0.312-0.364
		c0.133-0.088,0.278-0.132,0.433-0.132c0.243,0,0.436,0.083,0.579,0.249c0.143,0.166,0.214,0.393,0.214,0.68v0.124h-1.429v0.043
		c0,0.227,0.065,0.416,0.195,0.567c0.13,0.151,0.294,0.227,0.492,0.227c0.119,0,0.223-0.021,0.314-0.065
		c0.091-0.043,0.173-0.112,0.247-0.207l0.139,0.106C34.137,20.8,33.9,20.918,33.59,20.918z M33.55,19.03
		c-0.166,0-0.307,0.061-0.421,0.183c-0.114,0.122-0.184,0.286-0.208,0.493h1.202v-0.024c-0.006-0.193-0.061-0.349-0.165-0.47
		C33.853,19.09,33.718,19.03,33.55,19.03z"/>
	<path class="st9" d="M35.279,20.576l0.609-1.698h0.228l-0.748,2.003h-0.18l-0.752-2.003h0.228L35.279,20.576z"/>
	<path class="st9" d="M37.135,20.918c-0.17,0-0.324-0.042-0.462-0.126c-0.138-0.084-0.245-0.201-0.321-0.351
		c-0.077-0.15-0.115-0.318-0.115-0.504v-0.08c0-0.193,0.037-0.366,0.112-0.52c0.075-0.154,0.179-0.276,0.312-0.364
		c0.133-0.088,0.278-0.132,0.433-0.132c0.243,0,0.436,0.083,0.579,0.249c0.143,0.166,0.214,0.393,0.214,0.68v0.124h-1.429v0.043
		c0,0.227,0.065,0.416,0.195,0.567c0.13,0.151,0.294,0.227,0.492,0.227c0.119,0,0.223-0.021,0.314-0.065
		c0.091-0.044,0.173-0.112,0.247-0.207l0.139,0.106C37.682,20.8,37.445,20.918,37.135,20.918z M37.095,19.03
		c-0.166,0-0.307,0.061-0.421,0.183c-0.114,0.122-0.184,0.286-0.208,0.493h1.202v-0.024c-0.006-0.193-0.061-0.349-0.165-0.47
		C37.398,19.09,37.263,19.03,37.095,19.03z"/>
	<path class="st9" d="M38.472,20.881H38.25v-2.844h0.222V20.881z"/>
	<path class="st9" d="M38.857,19.85c0-0.193,0.037-0.366,0.112-0.52c0.075-0.154,0.18-0.274,0.317-0.36
		c0.136-0.086,0.291-0.129,0.464-0.129c0.267,0,0.483,0.093,0.648,0.28c0.165,0.187,0.248,0.435,0.248,0.743v0.046
		c0,0.194-0.037,0.368-0.112,0.523c-0.075,0.155-0.18,0.274-0.316,0.358s-0.291,0.126-0.465,0.126c-0.266,0-0.481-0.093-0.647-0.281
		c-0.166-0.187-0.249-0.435-0.249-0.743V19.85z M39.079,19.911c0,0.239,0.062,0.436,0.186,0.59c0.124,0.154,0.287,0.23,0.488,0.23
		c0.2,0,0.362-0.077,0.486-0.23c0.124-0.154,0.186-0.356,0.186-0.608V19.85c0-0.153-0.028-0.293-0.085-0.42
		c-0.057-0.127-0.136-0.226-0.239-0.295c-0.103-0.07-0.22-0.104-0.352-0.104c-0.197,0-0.359,0.077-0.483,0.232
		c-0.125,0.155-0.187,0.358-0.187,0.608V19.911z"/>
	<path class="st9" d="M42.619,19.9c0,0.312-0.069,0.56-0.207,0.743c-0.138,0.183-0.323,0.275-0.555,0.275
		c-0.274,0-0.484-0.096-0.629-0.289v1.022h-0.22v-2.774h0.205l0.011,0.283c0.144-0.214,0.354-0.32,0.627-0.32
		c0.239,0,0.427,0.091,0.564,0.272c0.136,0.181,0.205,0.433,0.205,0.755L42.619,19.9L42.619,19.9z M42.396,19.861
		c0-0.256-0.052-0.457-0.157-0.606c-0.105-0.148-0.251-0.222-0.439-0.222c-0.136,0-0.252,0.033-0.35,0.098
		c-0.098,0.065-0.172,0.16-0.224,0.285v0.961c0.053,0.115,0.129,0.203,0.228,0.263c0.099,0.061,0.215,0.091,0.35,0.091
		c0.186,0,0.332-0.074,0.436-0.223S42.396,20.144,42.396,19.861z"/>
	<path class="st9" d="M43.216,18.878l0.008,0.326c0.074-0.121,0.167-0.212,0.278-0.272c0.111-0.06,0.235-0.091,0.37-0.091
		c0.316,0,0.517,0.13,0.602,0.389c0.072-0.125,0.167-0.221,0.287-0.288c0.12-0.067,0.252-0.101,0.396-0.101
		c0.43,0,0.649,0.235,0.657,0.704v1.337h-0.222v-1.32c-0.001-0.179-0.04-0.312-0.116-0.398c-0.076-0.086-0.2-0.13-0.371-0.13
		c-0.159,0.002-0.294,0.054-0.404,0.154c-0.11,0.101-0.171,0.223-0.183,0.368v1.326h-0.222v-1.337
		c-0.001-0.172-0.041-0.3-0.121-0.384c-0.08-0.084-0.202-0.127-0.368-0.127c-0.139,0-0.259,0.04-0.359,0.119
		c-0.1,0.08-0.174,0.198-0.222,0.355v1.374h-0.222v-2.003h0.212V18.878z"/>
	<path class="st9" d="M47.056,20.918c-0.17,0-0.324-0.042-0.462-0.126c-0.138-0.084-0.245-0.201-0.321-0.351
		c-0.077-0.15-0.115-0.318-0.115-0.504v-0.08c0-0.193,0.037-0.366,0.112-0.52c0.075-0.154,0.179-0.276,0.312-0.364
		c0.133-0.088,0.278-0.132,0.433-0.132c0.243,0,0.436,0.083,0.579,0.249c0.143,0.166,0.214,0.393,0.214,0.68v0.124h-1.429v0.043
		c0,0.227,0.065,0.416,0.195,0.567c0.13,0.151,0.294,0.227,0.492,0.227c0.119,0,0.223-0.021,0.314-0.065
		c0.091-0.043,0.173-0.112,0.247-0.207l0.139,0.106C47.602,20.8,47.366,20.918,47.056,20.918z M47.015,19.03
		c-0.166,0-0.307,0.061-0.421,0.183c-0.114,0.122-0.184,0.286-0.208,0.493h1.202v-0.024c-0.006-0.193-0.061-0.349-0.165-0.47
		C47.319,19.09,47.183,19.03,47.015,19.03z"/>
	<path class="st9" d="M48.355,18.878l0.008,0.343c0.075-0.123,0.169-0.217,0.281-0.282c0.112-0.065,0.236-0.097,0.372-0.097
		c0.215,0,0.375,0.061,0.48,0.181c0.105,0.121,0.158,0.302,0.159,0.544v1.314h-0.22v-1.316c-0.001-0.179-0.039-0.312-0.114-0.4
		c-0.075-0.088-0.194-0.131-0.358-0.131c-0.137,0-0.258,0.043-0.364,0.129c-0.105,0.086-0.184,0.202-0.234,0.347v1.372h-0.22v-2.003
		h0.21V18.878z"/>
	<path class="st9" d="M50.477,18.365v0.513h0.415v0.182h-0.415v1.336c0,0.111,0.02,0.194,0.06,0.248
		c0.04,0.054,0.107,0.082,0.201,0.082c0.037,0,0.097-0.006,0.18-0.019l0.009,0.18c-0.058,0.021-0.137,0.031-0.237,0.031
		c-0.152,0-0.262-0.044-0.331-0.133c-0.069-0.088-0.104-0.218-0.104-0.39v-1.337h-0.369v-0.182h0.369v-0.513h0.222V18.365z"/>
</g>
</svg>
