<?xml version="1.0" encoding="utf-8"?>
<!-- Generator: Adobe Illustrator 22.1.0, SVG Export Plug-In . SVG Version: 6.00 Build 0)  -->
<svg version="1.1" id="Layer_1" xmlns="http://www.w3.org/2000/svg" xmlns:xlink="http://www.w3.org/1999/xlink" x="0px" y="0px"
	 viewBox="0 0 200 24" style="enable-background:new 0 0 200 24;" xml:space="preserve">
<style type="text/css">
	.st0{opacity:0.33;enable-background:new    ;}
	.st1{opacity:0.33;fill:#5C6A75;enable-background:new    ;}
	.st2{fill:url(#SVGID_1_);}
	.st3{fill:url(#SVGID_2_);}
	.st4{fill:url(#SVGID_3_);}
	.st5{fill:#50C5DD;}
	.st6{fill:#2EA8D6;}
	.st7{fill:#FFFFFF;}
	.st8{opacity:0.33;fill:#FFFFFF;enable-background:new    ;}
</style>
<g>
	<g class="st0">
		<path class="st1" d="M22.3,7.2l-0.1-1.7h-3.9v13.2h4.1v-8.4c0.4-0.8,1.2-1.2,2.5-1.2l1.4,0.1l0.1-3.8c-0.3-0.1-0.7-0.1-1.2-0.1
			C24,5.2,23,5.9,22.3,7.2z"/>
		<path class="st1" d="M35.9,13.8c-0.5,1-1.5,1.6-2.7,1.6c-1.7,0-3.1-1.5-3.1-3.4c0-1.9,1.4-3.4,3.1-3.4c1.1,0,2.1,0.7,2.7,1.6h3.7
			c-0.7-3-3.3-5.3-6.4-5.3c-3.7,0-6.6,3.1-6.6,7s3,7,6.6,7c3.1,0,5.7-2.2,6.4-5.3C39.6,13.8,35.9,13.8,35.9,13.8z"/>
		<path class="st1" d="M16.5,7.7C16.5,7.7,16.5,7.7,16.5,7.7c0,0-0.1-0.1-0.1-0.1c0,0,0,0,0,0c0,0,0-0.1-0.1-0.1c0,0,0,0,0-0.1
			c0,0,0-0.1-0.1-0.1c0,0,0,0,0-0.1c0,0,0,0-0.1-0.1c0,0,0,0,0-0.1c0,0,0,0-0.1-0.1c0,0,0,0,0-0.1c0,0,0,0-0.1-0.1c0,0,0,0-0.1-0.1
			c0,0,0,0-0.1-0.1c0,0,0,0-0.1-0.1c0,0,0,0-0.1-0.1c0,0,0,0-0.1-0.1c0,0,0,0-0.1-0.1c0,0,0,0-0.1-0.1c0,0,0,0-0.1-0.1
			c0,0,0,0-0.1-0.1c0,0,0,0-0.1-0.1c0,0,0,0-0.1,0c0,0,0,0-0.1-0.1c0,0,0,0-0.1,0c0,0-0.1,0-0.1-0.1c0,0,0,0-0.1,0
			c0,0-0.1,0-0.1-0.1c0,0,0,0-0.1,0c0,0-0.1,0-0.1,0c0,0-0.1,0-0.1,0c0,0-0.1,0-0.1,0c0,0-0.1,0-0.1,0c0,0-0.1,0-0.1,0
			c0,0-0.1,0-0.1,0c0,0-0.1,0-0.1,0c0,0-0.1,0-0.1,0c0,0-0.1,0-0.1,0c0,0-0.1,0-0.1,0c0,0-0.1,0-0.1,0c0,0-0.1,0-0.1,0
			c0,0-0.1,0-0.1,0c0,0-0.1,0-0.1,0c0,0-0.1,0-0.1,0c0,0-0.1,0-0.1,0c0,0-0.1,0-0.1,0c0,0-0.1,0-0.1,0c0,0-0.1,0-0.1,0
			c0,0-0.1,0-0.1,0c0,0-0.1,0-0.1,0c0,0-0.1,0-0.1,0c0,0-0.1,0-0.1,0c0,0-0.1,0-0.1,0c0,0-0.1,0-0.1,0c0,0-0.1,0-0.1,0
			c0,0-0.1,0-0.1,0c0,0-0.1,0-0.1,0c0,0-0.1,0-0.1,0c0,0-0.1,0-0.1,0c0,0-0.1,0-0.1,0c0,0-0.1,0-0.1,0c-0.1,0-0.1,0-0.2,0
			c0,0-0.1,0-0.1,0c-0.1,0-0.2,0-0.3,0c-0.1,0-0.2,0-0.3,0c0,0-0.1,0-0.1,0c-0.1,0-0.1,0-0.2,0c0,0-0.1,0-0.1,0c-0.1,0-0.1,0-0.2,0
			c0,0-0.1,0-0.1,0c0,0-0.1,0-0.1,0c0,0-0.1,0-0.1,0c0,0-0.1,0-0.1,0c0,0-0.1,0-0.1,0c0,0-0.1,0-0.1,0c0,0-0.1,0-0.1,0
			c0,0-0.1,0-0.1,0c0,0-0.1,0-0.1,0c0,0-0.1,0-0.1,0c0,0-0.1,0-0.1,0c0,0-0.1,0-0.1,0c0,0-0.1,0-0.1,0c0,0-0.1,0-0.1,0
			c0,0-0.1,0-0.1,0c0,0-0.1,0-0.1,0c0,0-0.1,0-0.1,0c0,0-0.1,0-0.1,0c0,0-0.1,0-0.1,0c0,0-0.1,0-0.1,0c0,0-0.1,0-0.1,0
			c0,0-0.1,0-0.1,0c0,0-0.1,0-0.1,0c0,0-0.1,0-0.1,0c0,0-0.1,0-0.1,0.1c0,0,0,0-0.1,0c0,0-0.1,0-0.1,0.1c0,0,0,0-0.1,0
			c0,0-0.1,0-0.1,0.1c0,0,0,0-0.1,0c0,0-0.1,0-0.1,0.1c0,0,0,0,0,0c0,0-0.1,0-0.1,0.1c0,0,0,0,0,0c0,0-0.1,0.1-0.1,0.1c0,0,0,0,0,0
			C6.2,6.8,5.8,7.3,5.5,7.8l0,0l0,0c-1.1,1.6-1.3,3.4-1.3,4.1v0.4c0,2,0.7,3.7,2,5c1.4,1.3,3.2,1.9,5.4,1.9c1.2,0,2.3-0.2,3.3-0.7
			s1.8-1,2.4-1.8l-2-2.3c-0.8,1-1.9,1.4-3.3,1.4c-2.8,0-3.1-1.7-3.3-2.5h9.1v-1.7C17.6,10.5,17.4,9,16.5,7.7L16.5,7.7z"/>
	</g>
	
		<linearGradient id="SVGID_1_" gradientUnits="userSpaceOnUse" x1="22.085" y1="21.976" x2="22.085" y2="35.468" gradientTransform="matrix(1 0 0 1 0 -17)">
		<stop  offset="0" style="stop-color:#FFFFFF"/>
		<stop  offset="0.3126" style="stop-color:#E2E1E0"/>
		<stop  offset="0.7198" style="stop-color:#C8C8C8"/>
		<stop  offset="0.9324" style="stop-color:#AFB0B1"/>
	</linearGradient>
	<path class="st2" d="M26,9l-1.4-0.1c-1.3,0-2.1,0.4-2.5,1.2v8.4h-4.1V5.2h3.9l0.1,1.7C22.8,5.6,23.7,5,25,5c0.4,0,0.8,0,1.2,0.1
		L26,9z"/>
	<g>
		
			<linearGradient id="SVGID_2_" gradientUnits="userSpaceOnUse" x1="32.8395" y1="21.833" x2="32.8395" y2="35.845" gradientTransform="matrix(1 0 0 1 0 -17)">
			<stop  offset="0" style="stop-color:#FFFFFF"/>
			<stop  offset="0.3126" style="stop-color:#E2E1E0"/>
			<stop  offset="0.7198" style="stop-color:#C8C8C8"/>
			<stop  offset="0.9324" style="stop-color:#AFB0B1"/>
		</linearGradient>
		<path class="st3" d="M32.9,15.2c-1.7,0-3.1-1.5-3.1-3.4c0-1.9,1.4-3.4,3.1-3.4c1.1,0,2.1,0.7,2.7,1.6h3.7c-0.7-3-3.3-5.3-6.4-5.3
			c-3.7,0-6.6,3.1-6.6,7s3,7,6.6,7c3.1,0,5.7-2.2,6.4-5.3h-3.7C35.1,14.6,34.1,15.2,32.9,15.2z"/>
	</g>
	<g>
		
			<linearGradient id="SVGID_3_" gradientUnits="userSpaceOnUse" x1="10.617" y1="21.847" x2="10.617" y2="35.845" gradientTransform="matrix(1 0 0 1 0 -17)">
			<stop  offset="0" style="stop-color:#FFFFFF"/>
			<stop  offset="0.3126" style="stop-color:#E2E1E0"/>
			<stop  offset="0.7198" style="stop-color:#C8C8C8"/>
			<stop  offset="0.9324" style="stop-color:#AFB0B1"/>
		</linearGradient>
		<path class="st4" d="M11.3,18.8c-2.2,0-4-0.6-5.4-1.9s-2-2.9-2-5v-0.4c0-1.4,0.9-6.8,6.9-6.8c5.6,0,6.5,4.3,6.5,6.5V13H8.3
			c0.2,0.8,0.5,2.5,3.3,2.5c1.4,0,2.5-0.5,3.3-1.4l2,2.3c-0.6,0.7-1.3,1.3-2.4,1.8C13.6,18.6,12.5,18.8,11.3,18.8z"/>
		<g>
			<path class="st5" d="M9.9,6.3c0.3,0,3.8,2,3.8,2.6c0,0.6-3.4,2.6-3.8,2.6C9.4,11.6,9.5,6.3,9.9,6.3z"/>
			<g>
				<path class="st6" d="M9.9,6.3c0,0-0.1,0.1-0.1,0.2c0.4,0.1,3.8,2,3.8,2.6c0,0,0,0.1,0,0.1c0.1-0.1,0.2-0.2,0.2-0.3
					C13.7,8.3,10.2,6.3,9.9,6.3z"/>
			</g>
			<g>
				<path class="st7" d="M13.5,9.3C13.5,9.3,13.5,9.3,13.5,9.3C13.5,9.3,13.5,9.3,13.5,9.3C13.5,9.3,13.5,9.3,13.5,9.3z"/>
				<path class="st7" d="M13.5,9.2c-0.7,0.8-3.3,2.4-3.7,2.4c0,0,0,0,0,0c0,0,0.1,0.1,0.1,0.1c0.4,0,3-1.5,3.6-2.3
					C13.5,9.2,13.5,9.2,13.5,9.2C13.5,9.2,13.5,9.2,13.5,9.2z"/>
			</g>
		</g>
		<path class="st8" d="M10.8,4.8c-2.9,0-4.6,1.2-5.6,2.7c1.6,0.9,3.4,1.3,5.4,1.3c2.1,0,4-0.5,5.6-1.5C15.3,6,13.7,4.8,10.8,4.8z"/>
	</g>
</g>
<g>
	<path class="st7" d="M45.2,15.6c0.1-0.2,0.2-0.5,0.2-0.8c0-0.5-0.2-0.8-0.5-1.1c-0.3-0.3-0.8-0.4-1.3-0.4h-1.8v4.8h1v-1.8h0.8
		l0.9,1.8h1.1v0l-1-2C44.8,16,45,15.8,45.2,15.6z M44.2,15.4c-0.1,0.1-0.3,0.2-0.6,0.2h-0.8v-1.5h0.8c0.3,0,0.5,0.1,0.6,0.2
		c0.1,0.1,0.2,0.3,0.2,0.5C44.4,15.1,44.3,15.2,44.2,15.4z"/>
	<path class="st7" d="M47.5,14.5c-0.3,0-0.6,0.1-0.9,0.2c-0.3,0.2-0.5,0.4-0.6,0.7s-0.2,0.6-0.2,1v0.1c0,0.5,0.2,1,0.5,1.3
		c0.3,0.3,0.8,0.5,1.3,0.5c0.3,0,0.6-0.1,0.8-0.2c0.2-0.1,0.4-0.3,0.6-0.5L48.5,17c-0.2,0.3-0.5,0.4-0.9,0.4c-0.2,0-0.4-0.1-0.6-0.2
		c-0.2-0.1-0.2-0.3-0.3-0.6h2.3v-0.4c0-0.6-0.1-1-0.4-1.3C48.3,14.6,48,14.5,47.5,14.5z M48.1,16h-1.3c0-0.2,0.1-0.4,0.2-0.6
		c0.1-0.1,0.3-0.2,0.5-0.2c0.2,0,0.4,0.1,0.5,0.2C48,15.5,48.1,15.7,48.1,16L48.1,16L48.1,16z"/>
	<path class="st7" d="M51.5,16.1c-0.2-0.1-0.4-0.1-0.6-0.2c-0.2,0-0.4-0.1-0.5-0.2c-0.1-0.1-0.2-0.2-0.2-0.3c0-0.1,0-0.2,0.1-0.3
		c0.1-0.1,0.2-0.1,0.4-0.1c0.2,0,0.3,0,0.4,0.1c0.1,0.1,0.1,0.2,0.1,0.3h1c0-0.3-0.1-0.6-0.4-0.8c-0.3-0.2-0.6-0.3-1.1-0.3
		c-0.4,0-0.8,0.1-1,0.3s-0.4,0.5-0.4,0.8c0,0.5,0.4,0.9,1.3,1.1c0.3,0.1,0.4,0.1,0.6,0.2c0.1,0.1,0.2,0.2,0.2,0.3
		c0,0.1,0,0.2-0.1,0.3c-0.1,0.1-0.2,0.1-0.4,0.1c-0.2,0-0.4,0-0.5-0.1s-0.2-0.2-0.2-0.4h-0.9c0,0.2,0.1,0.4,0.2,0.6
		c0.1,0.2,0.3,0.3,0.5,0.4c0.2,0.1,0.5,0.2,0.8,0.2c0.4,0,0.8-0.1,1.1-0.3c0.3-0.2,0.4-0.5,0.4-0.8C52.3,16.7,52.1,16.3,51.5,16.1z"
		/>
	<path class="st7" d="M55.5,14.9c-0.3-0.3-0.7-0.4-1.2-0.4c-0.3,0-0.6,0.1-0.9,0.2c-0.3,0.2-0.5,0.4-0.6,0.6c-0.1,0.3-0.2,0.6-0.2,1
		v0c0,0.6,0.2,1,0.5,1.4c0.3,0.3,0.7,0.5,1.2,0.5c0.5,0,0.9-0.2,1.2-0.5s0.5-0.8,0.5-1.3l0-0.2C56,15.6,55.8,15.2,55.5,14.9z
		 M54.9,17.2c-0.1,0.2-0.3,0.3-0.5,0.3c-0.2,0-0.4-0.1-0.6-0.3s-0.2-0.4-0.2-0.8c0-0.4,0.1-0.7,0.2-0.9c0.1-0.2,0.3-0.3,0.5-0.3
		c0.2,0,0.4,0.1,0.6,0.3c0.1,0.2,0.2,0.4,0.2,0.8C55.1,16.7,55,17,54.9,17.2z"/>
	<path class="st7" d="M58.6,17.1c-0.1,0.2-0.3,0.3-0.7,0.3c-0.3,0-0.5-0.2-0.5-0.6v-2.3h-1v2.4c0,0.4,0.1,0.8,0.3,1
		c0.2,0.2,0.5,0.3,0.9,0.3c0.4,0,0.7-0.1,1-0.4l0,0.4h0.9v-3.6h-1L58.6,17.1L58.6,17.1z"/>
	<path class="st7" d="M61,15l0-0.4h-0.9v3.6h1v-2.4c0.1-0.2,0.4-0.4,0.7-0.4c0.1,0,0.2,0,0.3,0l0-0.9c-0.1,0-0.2,0-0.3,0
		C61.5,14.5,61.2,14.6,61,15z"/>
	<path class="st7" d="M63.3,15.5c0.1-0.2,0.3-0.2,0.5-0.2c0.2,0,0.3,0.1,0.4,0.2c0.1,0.1,0.2,0.3,0.2,0.5h0.9c0-0.4-0.1-0.8-0.4-1
		s-0.6-0.4-1.1-0.4c-0.5,0-0.9,0.2-1.2,0.5c-0.3,0.3-0.4,0.8-0.4,1.3v0.1c0,0.6,0.1,1,0.4,1.4c0.3,0.3,0.7,0.5,1.2,0.5
		c0.3,0,0.5-0.1,0.8-0.2c0.2-0.1,0.4-0.3,0.5-0.5c0.1-0.2,0.2-0.4,0.2-0.7h-0.9c0,0.2-0.1,0.3-0.2,0.4c-0.1,0.1-0.3,0.1-0.4,0.1
		c-0.2,0-0.4-0.1-0.5-0.2c-0.1-0.2-0.2-0.4-0.2-0.8v-0.1C63.1,15.9,63.2,15.7,63.3,15.5z"/>
	<path class="st7" d="M67.2,14.5c-0.3,0-0.6,0.1-0.9,0.2c-0.3,0.2-0.5,0.4-0.6,0.7s-0.2,0.6-0.2,1v0.1c0,0.5,0.2,1,0.5,1.3
		c0.3,0.3,0.8,0.5,1.3,0.5c0.3,0,0.6-0.1,0.8-0.2s0.4-0.3,0.6-0.5L68.3,17c-0.2,0.3-0.5,0.4-0.9,0.4c-0.2,0-0.4-0.1-0.6-0.2
		c-0.2-0.1-0.2-0.3-0.3-0.6h2.3v-0.4c0-0.6-0.1-1-0.4-1.3C68.1,14.6,67.7,14.5,67.2,14.5z M67.9,16h-1.3c0-0.2,0.1-0.4,0.2-0.6
		c0.1-0.1,0.3-0.2,0.5-0.2c0.2,0,0.4,0.1,0.5,0.2C67.8,15.5,67.9,15.7,67.9,16L67.9,16L67.9,16L67.9,16z"/>
	<path class="st7" d="M71.9,14.4c0.2-0.2,0.4-0.4,0.7-0.4c0.3,0,0.5,0.1,0.7,0.2c0.2,0.1,0.2,0.4,0.3,0.7h1c-0.1-0.5-0.2-1-0.6-1.3
		c-0.3-0.3-0.8-0.4-1.3-0.4c-0.4,0-0.8,0.1-1.1,0.3c-0.3,0.2-0.5,0.5-0.7,0.8c-0.2,0.4-0.2,0.8-0.2,1.2v0.3c0,0.7,0.2,1.3,0.5,1.7
		c0.4,0.4,0.8,0.6,1.5,0.6c0.6,0,1-0.1,1.4-0.4c0.3-0.3,0.5-0.7,0.6-1.2h-1c0,0.3-0.1,0.5-0.3,0.7c-0.2,0.1-0.4,0.2-0.7,0.2
		c-0.3,0-0.6-0.1-0.7-0.4c-0.2-0.2-0.2-0.6-0.2-1.1v-0.4C71.7,15,71.7,14.7,71.9,14.4z"/>
	<path class="st7" d="M76.6,14.5c-0.3,0-0.6,0.1-0.9,0.2c-0.3,0.2-0.5,0.4-0.6,0.7s-0.2,0.6-0.2,1v0.1c0,0.5,0.2,1,0.5,1.3
		c0.3,0.3,0.8,0.5,1.3,0.5c0.3,0,0.6-0.1,0.8-0.2s0.4-0.3,0.6-0.5L77.6,17c-0.2,0.3-0.5,0.4-0.9,0.4c-0.2,0-0.4-0.1-0.6-0.2
		c-0.2-0.1-0.2-0.3-0.3-0.6h2.3v-0.4c0-0.6-0.1-1-0.4-1.3C77.4,14.6,77,14.5,76.6,14.5z M77.2,16h-1.3c0-0.2,0.1-0.4,0.2-0.6
		c0.1-0.1,0.3-0.2,0.5-0.2c0.2,0,0.4,0.1,0.5,0.2C77.1,15.5,77.2,15.7,77.2,16L77.2,16L77.2,16L77.2,16z"/>
	<path class="st7" d="M80.5,14.5c-0.4,0-0.8,0.2-1,0.5l0-0.4h-0.9v3.6h1v-2.5c0.1-0.2,0.3-0.3,0.6-0.3c0.2,0,0.4,0,0.4,0.1
		c0.1,0.1,0.1,0.2,0.1,0.4v2.3h1v-2.3c0-0.4-0.1-0.8-0.3-1C81.1,14.6,80.8,14.5,80.5,14.5z"/>
	<path class="st7" d="M83.4,17.3c-0.1-0.1-0.1-0.2-0.1-0.3v-1.8h0.6v-0.7h-0.6v-0.9h-1v0.9h-0.5v0.7h0.5v1.9c0,0.7,0.4,1,1,1
		c0.2,0,0.4,0,0.6-0.1v-0.7c-0.1,0-0.2,0-0.3,0C83.5,17.4,83.4,17.4,83.4,17.3z"/>
	<path class="st7" d="M85.8,14.5c-0.3,0-0.6,0.1-0.9,0.2c-0.3,0.2-0.5,0.4-0.6,0.7s-0.2,0.6-0.2,1v0.1c0,0.5,0.2,1,0.5,1.3
		c0.3,0.3,0.8,0.5,1.3,0.5c0.3,0,0.6-0.1,0.8-0.2s0.4-0.3,0.6-0.5L86.9,17c-0.2,0.3-0.5,0.4-0.9,0.4c-0.2,0-0.4-0.1-0.6-0.2
		c-0.2-0.1-0.2-0.3-0.3-0.6h2.3v-0.4c0-0.6-0.1-1-0.4-1.3C86.7,14.6,86.3,14.5,85.8,14.5z M86.5,16h-1.3c0-0.2,0.1-0.4,0.2-0.6
		c0.1-0.1,0.3-0.2,0.5-0.2c0.2,0,0.4,0.1,0.5,0.2C86.4,15.5,86.5,15.7,86.5,16L86.5,16L86.5,16L86.5,16z"/>
	<path class="st7" d="M89.5,14.5c-0.3,0-0.6,0.2-0.8,0.5l0-0.4h-0.9v3.6h1v-2.4c0.1-0.2,0.4-0.4,0.7-0.4c0.1,0,0.2,0,0.3,0l0-0.9
		C89.7,14.5,89.6,14.5,89.5,14.5z"/>
</g>
<g>
	<path class="st7" d="M44.6,9.7h-2.3v2h2.7v0.4h-3.1v-5h3.1v0.4h-2.7v1.9h2.3V9.7z"/>
	<path class="st7" d="M45.3,10.2c0-0.6,0.1-1,0.4-1.4c0.3-0.3,0.6-0.5,1-0.5c0.5,0,0.9,0.2,1.1,0.6V6.8h0.4v5.3h-0.4l0-0.5
		c-0.3,0.4-0.6,0.6-1.2,0.6c-0.4,0-0.8-0.2-1-0.5C45.4,11.3,45.3,10.8,45.3,10.2L45.3,10.2z M45.7,10.3c0,0.5,0.1,0.8,0.3,1.1
		s0.5,0.4,0.8,0.4c0.5,0,0.9-0.2,1.1-0.7V9.4c-0.2-0.5-0.6-0.7-1.1-0.7c-0.3,0-0.6,0.1-0.8,0.4C45.8,9.3,45.7,9.7,45.7,10.3z"/>
	<path class="st7" d="M51.6,11.6c-0.2,0.4-0.6,0.5-1.2,0.5c-0.4,0-0.7-0.1-0.9-0.3c-0.2-0.2-0.3-0.6-0.3-1V8.4h0.4v2.4
		c0,0.7,0.3,1.1,0.9,1.1c0.6,0,1-0.2,1.1-0.7V8.4H52v3.7h-0.4L51.6,11.6z"/>
	<path class="st7" d="M54.3,11.8c0.3,0,0.5-0.1,0.7-0.2c0.2-0.2,0.3-0.4,0.3-0.6h0.4c0,0.2-0.1,0.4-0.2,0.6
		c-0.1,0.2-0.3,0.3-0.5,0.4c-0.2,0.1-0.4,0.2-0.7,0.2c-0.5,0-0.9-0.2-1.2-0.5c-0.3-0.3-0.4-0.8-0.4-1.4v-0.1c0-0.4,0.1-0.7,0.2-1
		c0.1-0.3,0.3-0.5,0.6-0.7c0.2-0.2,0.5-0.2,0.8-0.2c0.4,0,0.7,0.1,1,0.4c0.3,0.2,0.4,0.6,0.4,1h-0.4c0-0.3-0.1-0.5-0.3-0.7
		s-0.4-0.3-0.7-0.3c-0.4,0-0.7,0.1-0.9,0.4s-0.3,0.6-0.3,1.1v0.1c0,0.5,0.1,0.8,0.3,1.1S53.9,11.8,54.3,11.8z"/>
	<path class="st7" d="M58.7,12.1c0-0.1-0.1-0.3-0.1-0.5c-0.1,0.2-0.3,0.3-0.6,0.4c-0.2,0.1-0.5,0.2-0.7,0.2c-0.4,0-0.6-0.1-0.9-0.3
		c-0.2-0.2-0.3-0.5-0.3-0.8c0-0.4,0.2-0.6,0.5-0.9c0.3-0.2,0.7-0.3,1.3-0.3h0.7V9.5c0-0.3-0.1-0.5-0.2-0.6c-0.2-0.2-0.4-0.2-0.7-0.2
		c-0.3,0-0.5,0.1-0.7,0.2s-0.3,0.3-0.3,0.5l-0.4,0c0-0.3,0.1-0.6,0.4-0.8c0.3-0.2,0.6-0.3,1-0.3c0.4,0,0.7,0.1,1,0.3
		C58.9,8.8,59,9.1,59,9.5v1.8c0,0.4,0,0.6,0.1,0.8v0H58.7z M57.4,11.8c0.3,0,0.5-0.1,0.7-0.2c0.2-0.1,0.4-0.3,0.5-0.5v-0.8h-0.7
		c-0.4,0-0.7,0.1-1,0.2s-0.3,0.3-0.3,0.6c0,0.2,0.1,0.4,0.2,0.5S57.1,11.8,57.4,11.8z"/>
	<path class="st7" d="M60.5,7.4v1h0.8v0.3h-0.8v2.5c0,0.2,0,0.4,0.1,0.5s0.2,0.2,0.4,0.2c0.1,0,0.2,0,0.3,0l0,0.3
		c-0.1,0-0.3,0.1-0.4,0.1c-0.3,0-0.5-0.1-0.6-0.2c-0.1-0.2-0.2-0.4-0.2-0.7V8.7h-0.7V8.4h0.7v-1H60.5z"/>
	<path class="st7" d="M61.7,10.2c0-0.4,0.1-0.7,0.2-1s0.3-0.5,0.6-0.7c0.3-0.2,0.5-0.2,0.9-0.2c0.5,0,0.9,0.2,1.2,0.5
		c0.3,0.3,0.5,0.8,0.5,1.4v0.1c0,0.4-0.1,0.7-0.2,1c-0.1,0.3-0.3,0.5-0.6,0.7c-0.3,0.2-0.5,0.2-0.9,0.2c-0.5,0-0.9-0.2-1.2-0.5
		C61.8,11.3,61.7,10.8,61.7,10.2L61.7,10.2z M62.1,10.3c0,0.4,0.1,0.8,0.3,1.1c0.2,0.3,0.5,0.4,0.9,0.4c0.4,0,0.7-0.1,0.9-0.4
		c0.2-0.3,0.3-0.7,0.3-1.1v-0.1c0-0.3-0.1-0.5-0.2-0.8C64.3,9.1,64.2,9,64,8.8c-0.2-0.1-0.4-0.2-0.7-0.2c-0.4,0-0.7,0.1-0.9,0.4
		C62.2,9.4,62.1,9.7,62.1,10.3L62.1,10.3z"/>
	<path class="st7" d="M67.4,8.7c-0.1,0-0.2,0-0.3,0c-0.3,0-0.5,0.1-0.6,0.2c-0.2,0.1-0.3,0.4-0.4,0.6v2.5h-0.4V8.4h0.4l0,0.6
		c0.2-0.4,0.6-0.7,1-0.7c0.1,0,0.2,0,0.3,0L67.4,8.7z"/>
</g>
</svg>
