<?xml version="1.0" encoding="utf-8"?>
<!-- Generator: Adobe Illustrator 22.1.0, SVG Export Plug-In . SVG Version: 6.00 Build 0)  -->
<svg version="1.1" id="Layer_1" xmlns="http://www.w3.org/2000/svg" xmlns:xlink="http://www.w3.org/1999/xlink" x="0px" y="0px"
	 viewBox="0 0 20 20" style="enable-background:new 0 0 20 20;" xml:space="preserve">
<style type="text/css">
	.st0{fill:#C8DEFF;}
	.st1{fill:#3C4852;}
</style>
<g>
	<g id="Jgz7iH_2_">
		<g>
			<path class="st0" d="M4.986,2.496c2.278,0,4.117,1.843,4.119,4.124c0.002,2.27-1.852,4.127-4.133,4.12
				c-2.273-0.007-4.11-1.849-4.109-4.133C0.864,4.337,2.711,2.496,4.986,2.496z"/>
		</g>
	</g>
	<g id="Jgz7iH_1_">
		<g>
			<path class="st1" d="M4.986,2.496c2.278,0,4.117,1.843,4.119,4.124c0.002,2.27-1.852,4.127-4.133,4.12
				c-2.273-0.007-4.11-1.849-4.109-4.133C0.864,4.337,2.711,2.496,4.986,2.496z M5.632,7.858C5.502,8.014,5.388,8.157,5.267,8.295
				C5.213,8.356,5.151,8.414,5.084,8.459C5.053,8.48,4.983,8.489,4.961,8.47c-0.029-0.025-0.03-0.084-0.037-0.129
				c-0.003-0.018,0.01-0.038,0.016-0.056C5.157,7.57,5.372,6.855,5.588,6.14c0.061-0.202,0.03-0.383-0.131-0.522
				C5.28,5.464,5.08,5.485,4.882,5.573C4.558,5.718,4.31,5.953,4.089,6.226c-0.092,0.113-0.082,0.23-0.071,0.377
				c0.125-0.151,0.236-0.289,0.353-0.422c0.058-0.066,0.124-0.127,0.194-0.179c0.027-0.021,0.096-0.029,0.113-0.011
				c0.028,0.03,0.035,0.084,0.041,0.129c0.003,0.023-0.015,0.05-0.022,0.075C4.48,6.914,4.262,7.632,4.049,8.351
				C4.029,8.422,4.017,8.502,4.026,8.574C4.058,8.82,4.322,8.99,4.598,8.952c0.204-0.028,0.393-0.1,0.542-0.243
				c0.137-0.132,0.255-0.283,0.384-0.424C5.632,8.17,5.653,8.033,5.632,7.858z M5.543,4.234C5.27,4.232,5.068,4.425,5.063,4.693
				C5.058,4.959,5.27,5.171,5.538,5.171c0.265,0,0.472-0.205,0.474-0.47C6.014,4.434,5.814,4.236,5.543,4.234z"/>
		</g>
	</g>
</g>
</svg>
