<?xml version="1.0" encoding="utf-8"?>
<!-- Generator: Adobe Illustrator 22.1.0, SVG Export Plug-In . SVG Version: 6.00 Build 0)  -->
<svg version="1.1" id="Layer_1" xmlns="http://www.w3.org/2000/svg" xmlns:xlink="http://www.w3.org/1999/xlink" x="0px" y="0px"
	 viewBox="0 0 200 25" style="enable-background:new 0 0 200 25;" xml:space="preserve">
<style type="text/css">
	.st0{fill:#4F105F;}
</style>
<g>
	<g>
		<path d="M141.166,9.533c-0.873,0-1.6,0.297-2.179,0.891c-0.58,0.594-0.869,1.34-0.869,2.239c0,0.877,0.291,1.607,0.872,2.19
			c0.581,0.583,1.334,0.874,2.258,0.874c0.596,0,1.11-0.105,1.543-0.317c0.433-0.211,0.805-0.537,1.115-0.978l-1.246-0.585
			c-0.397,0.386-0.872,0.58-1.424,0.58c-0.462,0-0.842-0.123-1.14-0.371c-0.298-0.247-0.481-0.58-0.549-0.999h4.748l0.006-0.281
			c0-0.975-0.291-1.759-0.872-2.353C142.848,9.83,142.093,9.533,141.166,9.533z M139.612,11.894
			c0.166-0.364,0.347-0.619,0.543-0.763c0.311-0.231,0.673-0.346,1.085-0.346c0.379,0,0.714,0.103,1.001,0.309
			c0.288,0.206,0.48,0.473,0.578,0.802L139.612,11.894L139.612,11.894z"/>
		<path d="M149.84,10.334c-0.263-0.267-0.55-0.467-0.86-0.601s-0.642-0.201-0.995-0.201c-0.768,0-1.42,0.291-1.958,0.872
			c-0.537,0.581-0.806,1.327-0.806,2.237c0,0.877,0.277,1.611,0.833,2.201c0.555,0.59,1.213,0.886,1.974,0.886
			c0.339,0,0.654-0.061,0.944-0.182s0.58-0.318,0.868-0.593v0.623h1.478V9.684h-1.478L149.84,10.334L149.84,10.334z M149.447,13.889
			c-0.305,0.323-0.691,0.484-1.155,0.484c-0.45,0-0.828-0.164-1.136-0.493s-0.461-0.747-0.461-1.256c0-0.506,0.151-0.92,0.453-1.243
			c0.302-0.323,0.682-0.485,1.138-0.485c0.468,0,0.854,0.159,1.16,0.476c0.305,0.318,0.459,0.733,0.459,1.246
			C149.905,13.142,149.752,13.566,149.447,13.889z"/>
		<path d="M155.033,12.002l-0.541-0.271c-0.235-0.115-0.382-0.207-0.441-0.274c-0.059-0.067-0.089-0.14-0.089-0.219
			c0-0.105,0.047-0.192,0.141-0.263c0.094-0.07,0.224-0.105,0.39-0.105c0.303,0,0.641,0.184,1.012,0.552l0.915-0.915
			c-0.235-0.314-0.521-0.555-0.858-0.723c-0.337-0.168-0.698-0.252-1.08-0.252c-0.559,0-1.019,0.165-1.378,0.496
			c-0.359,0.33-0.539,0.728-0.539,1.194c0,0.722,0.476,1.323,1.429,1.803l0.498,0.249c0.429,0.216,0.645,0.439,0.645,0.666
			c0,0.123-0.059,0.231-0.179,0.325c-0.119,0.094-0.276,0.141-0.471,0.141c-0.18,0-0.387-0.062-0.62-0.187s-0.436-0.288-0.609-0.49
			l-0.91,0.991c0.512,0.672,1.198,1.007,2.058,1.007c0.646,0,1.161-0.175,1.546-0.525c0.384-0.35,0.576-0.787,0.576-1.311
			c0-0.394-0.107-0.737-0.32-1.029C155.995,12.57,155.603,12.283,155.033,12.002z"/>
		<path d="M158.268,7.258c-0.259,0-0.48,0.092-0.664,0.276c-0.184,0.184-0.275,0.406-0.275,0.666c0,0.271,0.092,0.501,0.278,0.691
			c0.185,0.189,0.41,0.284,0.672,0.284c0.256,0,0.475-0.093,0.659-0.279c0.183-0.186,0.275-0.41,0.275-0.674
			c0-0.267-0.092-0.494-0.278-0.682C158.749,7.352,158.527,7.258,158.268,7.258z"/>
		<rect x="157.529" y="9.684" width="1.478" height="5.891"/>
		<polygon points="173.524,17.944 172.844,16.898 172.554,16.898 172.554,18.488 172.857,18.488 172.857,17.445 173.536,18.488 
			173.827,18.488 173.827,16.898 173.524,16.898 		"/>
		<polygon points="174.191,18.488 175.059,18.488 175.059,18.191 174.492,18.191 174.492,17.773 175.059,17.773 175.059,17.482 
			174.492,17.482 174.492,17.194 175.059,17.194 175.059,16.898 174.191,16.898 		"/>
		<polygon points="176.587,16.898 176.247,16.898 175.912,17.409 175.579,16.898 175.238,16.898 175.742,17.668 175.204,18.488 
			175.547,18.488 175.913,17.929 176.279,18.488 176.619,18.488 176.082,17.669 		"/>
		<polygon points="176.689,17.196 176.972,17.196 176.972,18.488 177.279,18.488 177.279,17.196 177.568,17.196 177.568,16.898 
			176.689,16.898 		"/>
		<path d="M179.174,17.682v0.284h0.461c-0.044,0.094-0.102,0.163-0.174,0.206s-0.16,0.066-0.265,0.066
			c-0.161,0-0.296-0.053-0.406-0.16c-0.11-0.107-0.165-0.237-0.165-0.39c0-0.149,0.053-0.275,0.159-0.378
			c0.105-0.104,0.237-0.155,0.393-0.155c0.179,0,0.337,0.071,0.471,0.214l0.213-0.211c-0.098-0.105-0.197-0.179-0.298-0.223
			c-0.12-0.051-0.249-0.077-0.388-0.077c-0.265,0-0.479,0.092-0.644,0.277c-0.139,0.156-0.209,0.339-0.209,0.549
			c0,0.154,0.038,0.297,0.113,0.429c0.075,0.133,0.178,0.235,0.307,0.307c0.129,0.072,0.276,0.108,0.442,0.108
			c0.154,0,0.289-0.033,0.403-0.098s0.208-0.161,0.28-0.285c0.072-0.125,0.108-0.257,0.108-0.396l-0.002-0.067L179.174,17.682
			L179.174,17.682z"/>
		<polygon points="180.255,18.488 181.123,18.488 181.123,18.191 180.556,18.191 180.556,17.773 181.123,17.773 181.123,17.482 
			180.556,17.482 180.556,17.194 181.123,17.194 181.123,16.898 180.255,16.898 		"/>
		<polygon points="182.377,17.944 181.696,16.898 181.406,16.898 181.406,18.488 181.709,18.488 181.709,17.445 182.388,18.488 
			182.679,18.488 182.679,16.898 182.377,16.898 		"/>
		<polygon points="183.043,18.488 183.912,18.488 183.912,18.191 183.344,18.191 183.344,17.773 183.912,17.773 183.912,17.482 
			183.344,17.482 183.344,17.194 183.912,17.194 183.912,16.898 183.043,16.898 		"/>
		<path d="M185.083,17.622c0.05-0.07,0.075-0.158,0.075-0.262c0-0.099-0.023-0.186-0.068-0.258c-0.045-0.073-0.105-0.125-0.18-0.156
			c-0.075-0.031-0.2-0.047-0.375-0.047h-0.321v1.59h0.303v-0.673h0.027l0.358,0.673h0.331l-0.377-0.707
			C184.957,17.745,185.032,17.692,185.083,17.622z M184.81,17.482c-0.036,0.025-0.103,0.038-0.198,0.038h-0.095v-0.326h0.083
			c0.08,0,0.136,0.006,0.166,0.017c0.03,0.011,0.054,0.03,0.072,0.055c0.018,0.026,0.027,0.056,0.027,0.09
			C184.864,17.414,184.847,17.456,184.81,17.482z"/>
		<path d="M185.963,16.898l-0.613,1.59h0.314l0.129-0.327h0.649l0.124,0.327h0.314l-0.612-1.59H185.963z M185.904,17.866
			l0.213-0.545l0.212,0.545H185.904z"/>
		<polygon points="186.958,17.196 187.24,17.196 187.24,18.488 187.547,18.488 187.547,17.196 187.836,17.196 187.836,16.898 
			186.958,16.898 		"/>
		<rect x="188.023" y="16.898" width="0.3" height="1.59"/>
		<path d="M189.414,16.858c-0.149,0-0.287,0.037-0.416,0.112c-0.128,0.075-0.23,0.175-0.303,0.303
			c-0.073,0.128-0.11,0.267-0.11,0.419c0,0.227,0.079,0.423,0.237,0.588c0.158,0.165,0.356,0.248,0.595,0.248
			c0.228,0,0.422-0.08,0.581-0.241c0.16-0.161,0.239-0.357,0.239-0.589c0-0.234-0.081-0.433-0.243-0.595
			C189.832,16.94,189.639,16.858,189.414,16.858z M189.783,18.079c-0.101,0.104-0.223,0.156-0.367,0.156
			c-0.127,0-0.239-0.04-0.337-0.12c-0.126-0.103-0.189-0.242-0.189-0.417c0-0.158,0.05-0.288,0.151-0.39
			c0.1-0.103,0.224-0.154,0.371-0.154c0.146,0,0.27,0.053,0.371,0.157c0.101,0.105,0.152,0.233,0.152,0.384
			C189.934,17.848,189.884,17.975,189.783,18.079z"/>
		<polygon points="191.494,16.898 191.494,17.944 190.813,16.898 190.523,16.898 190.523,18.488 190.826,18.488 190.826,17.445 
			191.505,18.488 191.796,18.488 191.796,16.898 		"/>
	</g>
	<g>
		<polygon class="st0" points="162.157,7.437 161.4,7.437 161.4,9.624 160.365,9.624 160.365,10.279 161.4,10.279 161.4,15.515 
			162.157,15.515 162.157,10.279 163.359,10.279 163.359,9.624 162.157,9.624 		"/>
		<path class="st0" d="M169.706,10.615c-0.6-0.762-1.401-1.142-2.406-1.142c-0.976,0-1.755,0.372-2.336,1.115
			c-0.459,0.585-0.688,1.251-0.688,1.998c0,0.794,0.271,1.506,0.813,2.136c0.542,0.63,1.294,0.945,2.255,0.945
			c0.434,0,0.822-0.066,1.165-0.198c0.344-0.132,0.652-0.324,0.927-0.577c0.275-0.253,0.517-0.585,0.726-0.996l-0.639-0.336
			c-0.232,0.385-0.446,0.664-0.645,0.836c-0.198,0.173-0.44,0.311-0.724,0.415c-0.284,0.104-0.575,0.156-0.876,0.156
			c-0.622,0-1.144-0.219-1.567-0.656s-0.641-0.998-0.656-1.683h5.301C170.35,11.825,170.133,11.153,169.706,10.615z M165.132,11.974
			c0.155-0.541,0.385-0.947,0.688-1.218c0.416-0.372,0.913-0.558,1.491-0.558c0.35,0,0.685,0.074,1.003,0.222
			c0.318,0.148,0.574,0.343,0.767,0.585c0.193,0.242,0.341,0.565,0.442,0.969C169.523,11.974,165.132,11.974,165.132,11.974z"/>
		<path class="st0" d="M176.959,10.707c-0.296-0.411-0.64-0.72-1.031-0.926c-0.391-0.206-0.829-0.309-1.313-0.309
			c-0.837,0-1.554,0.302-2.15,0.904s-0.894,1.328-0.894,2.177c0,0.867,0.295,1.602,0.886,2.206c0.59,0.605,1.302,0.907,2.136,0.907
			c0.469,0,0.901-0.098,1.297-0.293c0.395-0.195,0.752-0.485,1.07-0.872v1.013h0.747V9.624h-0.747L176.959,10.707L176.959,10.707z
			 M176.707,13.806c-0.2,0.357-0.486,0.64-0.857,0.849c-0.372,0.209-0.765,0.314-1.179,0.314c-0.411,0-0.796-0.105-1.155-0.317
			c-0.359-0.211-0.645-0.506-0.857-0.885c-0.212-0.378-0.319-0.775-0.319-1.19c0-0.418,0.105-0.815,0.316-1.189
			c0.211-0.375,0.495-0.666,0.852-0.873c0.357-0.207,0.747-0.311,1.168-0.311c0.656,0,1.209,0.229,1.658,0.687
			c0.449,0.458,0.673,1.027,0.673,1.709C177.007,13.047,176.908,13.448,176.707,13.806z"/>
		<path class="st0" d="M182.47,10.187c0.898,0,1.607,0.345,2.126,1.034l0.601-0.373c-0.177-0.296-0.392-0.54-0.644-0.731
			c-0.253-0.191-0.561-0.346-0.923-0.466c-0.363-0.119-0.739-0.179-1.129-0.179c-0.621,0-1.182,0.137-1.684,0.411
			c-0.502,0.274-0.896,0.656-1.183,1.145c-0.287,0.489-0.43,1.019-0.43,1.589c0,0.848,0.307,1.568,0.92,2.16
			s1.386,0.888,2.318,0.888c0.607,0,1.147-0.117,1.622-0.351c0.475-0.234,0.853-0.563,1.135-0.987l-0.601-0.395
			c-0.548,0.689-1.255,1.034-2.12,1.034c-0.473,0-0.899-0.105-1.279-0.314s-0.68-0.503-0.898-0.882
			c-0.218-0.378-0.327-0.783-0.327-1.211c0-0.66,0.237-1.22,0.711-1.682C181.156,10.418,181.752,10.187,182.47,10.187z"/>
		<path class="st0" d="M191.614,10.71c-0.163-0.377-0.414-0.678-0.755-0.902c-0.341-0.224-0.732-0.336-1.172-0.336
			c-0.429,0-0.828,0.1-1.197,0.3c-0.368,0.2-0.706,0.503-1.012,0.907v-3.33h-0.758v8.166h0.758v-2.16
			c0-0.78,0.036-1.314,0.108-1.603c0.115-0.447,0.355-0.823,0.717-1.126c0.363-0.303,0.774-0.455,1.232-0.455
			c0.401,0,0.725,0.099,0.972,0.295c0.247,0.197,0.418,0.49,0.512,0.88c0.054,0.228,0.081,0.68,0.081,1.359v2.809h0.758v-3.032
			C191.858,11.678,191.776,11.087,191.614,10.71z"/>
		<path class="st0" d="M134.936,7.772c-0.078-0.359-0.385-0.623-0.752-0.648c-0.369-0.025-0.706,0.196-0.832,0.541l-1.718,4.721
			l-1.864-4.774c-0.131-0.336-0.469-0.546-0.825-0.524c-0.36,0.024-0.662,0.279-0.747,0.629l-1.486,6.123l-1.484-1.501
			c0.758-0.498,1.259-1.357,1.259-2.329c0-1.536-1.249-2.786-2.785-2.786h-1.928c-0.456,0-0.826,0.37-0.826,0.826v6.985
			c0,0.456,0.37,0.826,0.826,0.826s0.826-0.37,0.826-0.826v-2.237h0.761l2.472,2.501c0.155,0.157,0.367,0.246,0.587,0.246h0.929
			c0.381,0,0.713-0.261,0.803-0.631l1.034-4.26l1.707,4.372c0.125,0.32,0.43,0.518,0.779,0.525c0.344-0.004,0.649-0.22,0.767-0.544
			l1.492-4.1l0.872,3.993c0.097,0.446,0.536,0.728,0.983,0.631c0.446-0.098,0.728-0.538,0.631-0.983L134.936,7.772z M123.703,11.146
			c-0.016,0-0.031,0.003-0.047,0.003H122.6V8.878h1.102c0.625,0,1.133,0.508,1.133,1.133
			C124.836,10.637,124.328,11.146,123.703,11.146z"/>
	</g>
</g>
</svg>
