<?xml version="1.0" encoding="utf-8"?>
<!-- Generator: Adobe Illustrator 22.1.0, SVG Export Plug-In . SVG Version: 6.00 Build 0)  -->
<svg version="1.1" id="Layer_1" xmlns="http://www.w3.org/2000/svg" xmlns:xlink="http://www.w3.org/1999/xlink" x="0px" y="0px"
	 viewBox="0 0 200 25" style="enable-background:new 0 0 200 25;" xml:space="preserve">
<style type="text/css">
	.st0{fill:#00B2E2;}
	.st1{fill:#4B5861;}
</style>
<g>
	<g>
		<path class="st0" d="M191.223,6.153c-1.525,2.226-2.862,4.589-3.916,6.176c0,0-0.418,0.318-0.772,0.557
			c-0.355,0.239-1.104,0.702-1.104,0.702c-0.077,0.114-0.233,0.146-0.347,0.071c-0.114-0.075-0.147-0.231-0.07-0.346
			c0,0,0.279-2.01,0.419-2.221c0.827-1.254,2.267-2.916,3.501-4.938h-5.142h-2.931V7.36h1.943v0.972h-1.943v1.447h1.943v0.972
			h-1.943v1.45h1.943v0.971h-1.943v1.448h1.943v0.971h-1.943v1.257h10.687v-1.674V6.303v-0.15H191.223z"/>
		<polygon class="st0" points="134.151,7.094 134.151,7.094 134.151,14.772 131.713,11.473 128.477,7.094 128.477,7.094 
			127.834,7.094 127.834,7.094 127.834,16.131 127.834,16.131 127.834,16.131 128.551,16.131 128.551,16.131 128.551,16.131 
			128.551,8.379 133.418,15.029 134.224,16.131 134.224,16.131 134.224,16.131 134.867,16.131 134.867,7.094 134.867,7.094 		"/>
		<path class="st0" d="M138.921,9.347c-1.795,0-3.098,1.457-3.098,3.464c0,2.015,1.303,3.477,3.098,3.477
			c1.794,0,3.096-1.462,3.096-3.477C142.017,10.804,140.716,9.347,138.921,9.347z M138.921,15.637c-1.555,0-2.368-1.422-2.368-2.826
			c0-1.398,0.813-2.813,2.368-2.813c1.626,0,2.367,1.459,2.367,2.813C141.288,14.172,140.547,15.637,138.921,15.637z"/>
		<path class="st0" d="M145.176,15.348c-0.12,0.14-0.349,0.29-0.634,0.29c-0.441,0-0.533-0.419-0.533-0.77v-4.713h1.284V9.505
			h-1.284V7.775h-0.689v1.729h-1.048v0.651h1.048v4.713c0,0.915,0.434,1.42,1.223,1.42c0.552,0,0.848-0.209,1.085-0.434l0.098-0.093
			l-0.431-0.55L145.176,15.348z"/>
		<path class="st0" d="M148.985,9.347c-1.751,0-3.123,1.522-3.123,3.464c0,2.015,1.369,3.477,3.255,3.477
			c1.025,0,1.809-0.341,2.544-1.107l0.098-0.102l-0.441-0.467l-0.108,0.115c-0.573,0.612-1.258,0.91-2.093,0.91
			c-1.392,0-2.404-1.039-2.504-2.546h5.457v-0.28C152.069,11.087,151.115,9.347,148.985,9.347z M146.614,12.441
			c0.1-1.211,0.933-2.442,2.358-2.442c1.65,0,2.316,1.44,2.376,2.442H146.614z"/>
		<path class="st0" d="M155.821,9.347c-0.803,0-1.573,0.356-2.132,0.968V7.094H153v9.037h0.689v-0.782
			c0.539,0.58,1.335,0.939,2.132,0.939c1.782,0,2.979-1.392,2.979-3.462C158.8,10.744,157.603,9.347,155.821,9.347z M155.821,15.637
			c-0.98,0-1.785-0.59-2.132-1.151v-3.311c0.365-0.59,1.205-1.177,2.132-1.177c1.367,0,2.249,1.109,2.249,2.826
			C158.071,14.533,157.188,15.637,155.821,15.637z"/>
		<path class="st0" d="M162.634,9.347c-1.794,0-3.097,1.457-3.097,3.464c0,2.015,1.303,3.477,3.097,3.477
			c1.794,0,3.096-1.462,3.096-3.477C165.73,10.804,164.428,9.347,162.634,9.347z M162.634,15.637c-1.554,0-2.368-1.422-2.368-2.826
			c0-1.398,0.813-2.813,2.368-2.813c1.627,0,2.368,1.459,2.368,2.813C165.002,14.172,164.261,15.637,162.634,15.637z"/>
		<path class="st0" d="M169.564,9.347c-1.794,0-3.097,1.457-3.097,3.464c0,2.015,1.303,3.477,3.097,3.477s3.096-1.462,3.096-3.477
			C172.66,10.804,171.358,9.347,169.564,9.347z M169.564,15.637c-1.554,0-2.368-1.422-2.368-2.826c0-1.398,0.813-2.813,2.368-2.813
			c1.627,0,2.368,1.459,2.368,2.813C171.932,14.172,171.191,15.637,169.564,15.637z"/>
		<polygon class="st0" points="179.35,9.505 179.348,9.505 179.349,9.505 178.349,9.505 174.428,13.164 174.428,7.094 
			174.428,7.094 173.738,7.094 173.738,7.094 173.738,16.131 173.738,16.131 173.738,16.131 174.428,16.131 174.428,16.131 
			174.428,16.131 174.428,14.068 175.578,13.011 178.301,16.131 179.259,16.131 179.259,16.131 179.259,16.131 177.875,14.55 
			176.098,12.521 176.9,11.776 		"/>
	</g>
	<g>
		<path class="st1" d="M89.53,10.894c-1.146-0.322-2.135-0.6-2.135-1.499c0-0.845,0.794-1.457,1.887-1.457
			c0.991,0,1.813,0.36,2.378,1.043l0.108,0.131l0.696-0.77l-0.085-0.098c-0.721-0.835-1.779-1.276-3.057-1.276
			c-1.739,0-3.002,1.038-3.002,2.468c0,1.695,1.532,2.123,2.883,2.5c1.251,0.349,2.332,0.651,2.332,1.762
			c0,0.767-0.561,1.587-2.135,1.587c-1.349,0-2.217-0.762-2.614-1.216l-0.111-0.127L86,14.725l0.08,0.095
			c0.772,0.925,1.942,1.435,3.293,1.435c2.386,0,3.236-1.349,3.236-2.61C92.609,11.758,90.973,11.299,89.53,10.894z"/>
		<polygon class="st1" points="98.317,14.104 95.458,7.11 94.104,7.11 94.104,16.098 95.14,16.098 95.14,8.939 98.039,16.007 
			98.076,16.098 98.56,16.098 101.482,8.942 101.482,16.098 102.532,16.098 102.532,7.11 101.165,7.11 		"/>
		<path class="st1" d="M107.126,7.11l-3.679,8.988h1.178l0.86-2.138h4.402l0.86,2.138h1.178l-3.679-8.988H107.126z M109.524,12.99
			h-3.672l1.842-4.546L109.524,12.99z"/>
		<path class="st1" d="M119.028,9.799c0-1.608-1.122-2.688-2.793-2.688h-3.393v8.988h1.036V12.5h1.691l2.438,3.598h1.256
			l-2.53-3.672C117.914,12.279,119.028,11.439,119.028,9.799z M117.953,9.799c0,1.035-0.716,1.73-1.783,1.73h-2.29V8.081h2.29
			C117.236,8.082,117.953,8.772,117.953,9.799z"/>
		<polygon class="st1" points="119.833,7.11 119.833,8.081 122.674,8.081 122.674,16.098 123.723,16.098 123.723,8.081 
			126.565,8.081 126.565,7.11 		"/>
	</g>
</g>
</svg>
