<?xml version="1.0" encoding="utf-8"?>
<!-- Generator: Adobe Illustrator 22.1.0, SVG Export Plug-In . SVG Version: 6.00 Build 0)  -->
<svg version="1.1" id="Layer_1" xmlns="http://www.w3.org/2000/svg" xmlns:xlink="http://www.w3.org/1999/xlink" x="0px" y="0px"
	 viewBox="0 0 200 24" style="enable-background:new 0 0 200 24;" xml:space="preserve">
<style type="text/css">
	.st0{opacity:0.33;enable-background:new    ;}
	.st1{opacity:0.33;fill:#5C6A75;enable-background:new    ;}
	.st2{fill:url(#SVGID_1_);}
	.st3{fill:url(#SVGID_2_);}
	.st4{fill:url(#SVGID_3_);}
	.st5{fill:#50C5DD;}
	.st6{fill:#2EA8D6;}
	.st7{fill:#FFFFFF;}
	.st8{opacity:0.33;fill:#FFFFFF;enable-background:new    ;}
</style>
<g>
	<g class="st0">
		<path class="st1" d="M22.313,7.204l-0.135-1.7h-3.865v13.233h4.121V10.36c0.367-0.815,1.199-1.223,2.495-1.223l1.358,0.098
			l0.073-3.828c-0.326-0.098-0.709-0.147-1.15-0.147C23.972,5.259,23.006,5.907,22.313,7.204z"/>
		<path class="st1" d="M35.871,13.848c-0.549,0.983-1.548,1.642-2.689,1.642c-1.729,0-3.136-1.515-3.136-3.376
			s1.407-3.374,3.136-3.374c1.14,0,2.14,0.659,2.689,1.642H39.6c-0.73-3.026-3.326-5.265-6.418-5.265
			c-3.658,0-6.624,3.132-6.624,6.997s2.967,6.999,6.624,6.999c3.091,0,5.688-2.239,6.418-5.265
			C39.6,13.848,35.871,13.848,35.871,13.848z"/>
		<path class="st1" d="M16.505,7.678c-0.001-0.002-0.003-0.004-0.004-0.006c-0.027-0.041-0.055-0.082-0.083-0.123
			c-0.009-0.014-0.019-0.027-0.029-0.04c-0.021-0.029-0.041-0.058-0.062-0.087c-0.013-0.017-0.026-0.034-0.039-0.051
			c-0.019-0.025-0.037-0.049-0.057-0.074c-0.014-0.018-0.029-0.036-0.044-0.054c-0.019-0.023-0.037-0.046-0.056-0.069
			C16.116,7.156,16.1,7.138,16.084,7.12c-0.019-0.022-0.038-0.045-0.058-0.067c-0.016-0.018-0.033-0.036-0.049-0.054
			c-0.02-0.022-0.04-0.044-0.06-0.065c-0.017-0.018-0.035-0.036-0.052-0.053c-0.021-0.021-0.041-0.042-0.062-0.063
			c-0.018-0.018-0.036-0.035-0.055-0.053c-0.021-0.02-0.042-0.041-0.064-0.061c-0.019-0.018-0.038-0.035-0.057-0.052
			c-0.022-0.02-0.044-0.04-0.066-0.059c-0.02-0.017-0.04-0.034-0.06-0.052c-0.022-0.019-0.045-0.038-0.068-0.057
			c-0.021-0.017-0.042-0.034-0.063-0.05c-0.023-0.019-0.047-0.037-0.071-0.055c-0.021-0.016-0.043-0.033-0.065-0.049
			c-0.024-0.018-0.049-0.036-0.073-0.054c-0.022-0.016-0.045-0.032-0.068-0.047c-0.025-0.017-0.05-0.035-0.076-0.052
			c-0.023-0.015-0.047-0.031-0.07-0.046c-0.026-0.017-0.052-0.033-0.079-0.05c-0.024-0.015-0.048-0.03-0.073-0.044
			c-0.027-0.016-0.054-0.032-0.081-0.048c-0.025-0.014-0.05-0.029-0.076-0.043C14.61,5.931,14.582,5.915,14.554,5.9
			c-0.026-0.014-0.052-0.027-0.078-0.041c-0.029-0.015-0.058-0.029-0.087-0.044c-0.027-0.013-0.053-0.026-0.08-0.039
			c-0.03-0.014-0.06-0.028-0.09-0.041c-0.028-0.012-0.055-0.025-0.083-0.037c-0.031-0.013-0.062-0.026-0.093-0.039
			c-0.028-0.012-0.057-0.023-0.086-0.035C13.924,5.612,13.892,5.6,13.86,5.588c-0.029-0.011-0.059-0.022-0.089-0.033
			c-0.033-0.012-0.066-0.023-0.1-0.034c-0.03-0.01-0.06-0.02-0.091-0.03c-0.034-0.011-0.069-0.021-0.103-0.032
			c-0.031-0.009-0.062-0.019-0.093-0.028c-0.035-0.01-0.071-0.02-0.107-0.029c-0.032-0.009-0.064-0.017-0.096-0.025
			c-0.036-0.009-0.073-0.018-0.11-0.027c-0.033-0.008-0.065-0.016-0.098-0.023c-0.038-0.008-0.076-0.016-0.114-0.024
			c-0.033-0.007-0.067-0.014-0.101-0.02c-0.039-0.008-0.079-0.014-0.119-0.021c-0.034-0.006-0.068-0.012-0.102-0.018
			c-0.041-0.007-0.083-0.013-0.125-0.019c-0.034-0.005-0.068-0.01-0.103-0.015c-0.043-0.006-0.087-0.011-0.13-0.016
			c-0.034-0.004-0.069-0.008-0.103-0.012c-0.045-0.005-0.091-0.009-0.137-0.013c-0.034-0.003-0.068-0.007-0.103-0.009
			c-0.049-0.004-0.099-0.007-0.148-0.01c-0.033-0.002-0.066-0.005-0.099-0.006c-0.055-0.003-0.112-0.005-0.168-0.006
			c-0.029-0.001-0.057-0.002-0.086-0.003c-0.086-0.002-0.173-0.003-0.261-0.003c-0.093,0-0.184,0.001-0.275,0.004
			c-0.031,0.001-0.061,0.003-0.092,0.004c-0.059,0.002-0.118,0.004-0.176,0.007c-0.036,0.002-0.071,0.005-0.106,0.007
			c-0.052,0.003-0.103,0.007-0.154,0.011c-0.037,0.003-0.074,0.007-0.111,0.011c-0.048,0.005-0.096,0.009-0.143,0.014
			C9.98,5.194,9.943,5.199,9.906,5.204C9.861,5.21,9.816,5.215,9.771,5.222C9.734,5.227,9.697,5.233,9.66,5.239
			C9.617,5.246,9.575,5.252,9.532,5.26c-0.037,0.006-0.074,0.013-0.11,0.02C9.381,5.288,9.34,5.296,9.3,5.304
			C9.263,5.312,9.227,5.32,9.19,5.328C9.152,5.337,9.113,5.346,9.074,5.355C9.038,5.364,9.002,5.373,8.966,5.382
			c-0.037,0.01-0.074,0.019-0.11,0.029c-0.036,0.01-0.072,0.02-0.107,0.031c-0.035,0.01-0.071,0.021-0.105,0.032
			c-0.036,0.01-0.071,0.022-0.106,0.033c-0.034,0.011-0.067,0.022-0.1,0.034c-0.035,0.012-0.07,0.025-0.104,0.037
			C8.301,5.59,8.27,5.601,8.238,5.613C8.203,5.627,8.169,5.64,8.135,5.654c-0.03,0.012-0.06,0.024-0.089,0.037
			C8.011,5.706,7.977,5.72,7.943,5.735C7.915,5.748,7.887,5.761,7.859,5.773C7.825,5.789,7.791,5.805,7.757,5.821
			C7.731,5.834,7.705,5.847,7.679,5.86C7.645,5.877,7.611,5.894,7.577,5.912C7.553,5.925,7.529,5.938,7.505,5.951
			C7.471,5.969,7.437,5.988,7.404,6.007C7.382,6.019,7.36,6.032,7.338,6.045c-0.034,0.02-0.069,0.04-0.103,0.061
			C7.216,6.118,7.197,6.13,7.178,6.143C7.143,6.165,7.108,6.187,7.074,6.21C7.057,6.22,7.041,6.231,7.025,6.242
			c-0.037,0.025-0.073,0.05-0.108,0.075C6.905,6.325,6.893,6.334,6.881,6.343C6.842,6.371,6.803,6.399,6.766,6.428
			C6.76,6.433,6.754,6.438,6.748,6.442c-0.522,0.4-0.943,0.864-1.281,1.352l0,0l0,0c-1.076,1.557-1.309,3.356-1.309,4.095v0.359
			c0,2.036,0.681,3.689,2.044,4.959s3.146,1.905,5.349,1.905c1.177,0,2.276-0.22,3.298-0.661c1.022-0.44,1.812-1.033,2.369-1.777
			l-2.044-2.335c-0.796,0.958-1.903,1.437-3.318,1.437c-2.835,0-3.146-1.724-3.305-2.502h9.053v-1.681
			C17.604,10.546,17.373,8.997,16.505,7.678L16.505,7.678z"/>
	</g>
	
		<linearGradient id="SVGID_1_" gradientUnits="userSpaceOnUse" x1="22.08" y1="19.999" x2="22.08" y2="6.522" gradientTransform="matrix(1 0 0 -1 0 25)">
		<stop  offset="0" style="stop-color:#FFFFFF"/>
		<stop  offset="0.3126" style="stop-color:#E2E1E0"/>
		<stop  offset="0.7198" style="stop-color:#C8C8C8"/>
		<stop  offset="0.9324" style="stop-color:#AFB0B1"/>
	</linearGradient>
	<path class="st2" d="M26.03,8.976l-1.358-0.098c-1.296,0-2.128,0.408-2.495,1.223v8.377h-4.121V5.246h3.865l0.135,1.7
		c0.693-1.296,1.659-1.945,2.898-1.945c0.44,0,0.823,0.049,1.15,0.147L26.03,8.976z"/>
	<g>
		
			<linearGradient id="SVGID_2_" gradientUnits="userSpaceOnUse" x1="32.821" y1="20.141" x2="32.821" y2="6.145" gradientTransform="matrix(1 0 0 -1 0 25)">
			<stop  offset="0" style="stop-color:#FFFFFF"/>
			<stop  offset="0.3126" style="stop-color:#E2E1E0"/>
			<stop  offset="0.7198" style="stop-color:#C8C8C8"/>
			<stop  offset="0.9324" style="stop-color:#AFB0B1"/>
		</linearGradient>
		<path class="st3" d="M32.924,15.232c-1.729,0-3.136-1.515-3.136-3.376s1.407-3.374,3.136-3.374c1.14,0,2.14,0.659,2.689,1.642
			h3.729c-0.73-3.026-3.326-5.265-6.418-5.265c-3.658,0-6.624,3.132-6.624,6.997s2.967,6.999,6.624,6.999
			c3.091,0,5.688-2.239,6.418-5.265h-3.729C35.064,14.573,34.064,15.232,32.924,15.232z"/>
	</g>
	<g>
		
			<linearGradient id="SVGID_3_" gradientUnits="userSpaceOnUse" x1="10.623" y1="20.126" x2="10.623" y2="6.145" gradientTransform="matrix(1 0 0 -1 0 25)">
			<stop  offset="0" style="stop-color:#FFFFFF"/>
			<stop  offset="0.3126" style="stop-color:#E2E1E0"/>
			<stop  offset="0.7198" style="stop-color:#C8C8C8"/>
			<stop  offset="0.9324" style="stop-color:#AFB0B1"/>
		</linearGradient>
		<path class="st4" d="M11.293,18.855c-2.203,0-3.987-0.635-5.349-1.905C4.581,15.679,3.9,14.027,3.9,11.991v-0.359
			c0-1.42,0.857-6.758,6.915-6.758c5.546,0,6.531,4.299,6.531,6.463v1.681H8.293c0.159,0.778,0.47,2.502,3.305,2.502
			c1.416,0,2.522-0.479,3.318-1.437l2.044,2.335c-0.558,0.744-1.347,1.337-2.369,1.777S12.47,18.855,11.293,18.855z"/>
		<g>
			<path class="st5" d="M9.892,6.365c0.348,0,3.799,1.994,3.799,2.625c0,0.63-3.357,2.625-3.799,2.625
				C9.451,11.616,9.545,6.365,9.892,6.365z"/>
			<g>
				<path class="st6" d="M9.892,6.365c-0.044,0-0.084,0.085-0.119,0.234c0.442,0.065,3.776,2.001,3.776,2.622
					c0,0.024-0.006,0.05-0.015,0.078c0.1-0.121,0.157-0.226,0.157-0.308C13.69,8.359,10.239,6.365,9.892,6.365z"/>
			</g>
			<g>
				<path class="st7" d="M13.542,9.289c-0.002,0.003-0.005,0.006-0.007,0.008c0,0.001,0,0.001,0,0.002
					C13.537,9.295,13.539,9.292,13.542,9.289z"/>
				<path class="st7" d="M13.542,9.174c-0.673,0.823-3.328,2.371-3.721,2.371c-0.005,0-0.009-0.001-0.013-0.002
					c0.026,0.047,0.054,0.074,0.084,0.074c0.384,0,2.977-1.511,3.642-2.318c0.008-0.027,0.015-0.053,0.015-0.076
					C13.549,9.206,13.545,9.19,13.542,9.174z"/>
			</g>
		</g>
		<path class="st8" d="M10.815,4.873c-2.906,0-4.615,1.228-5.607,2.663c1.58,0.852,3.433,1.342,5.414,1.342
			c2.07,0,3.999-0.535,5.624-1.458C15.322,6.016,13.675,4.873,10.815,4.873z"/>
	</g>
</g>
<g>
	<polygon class="st7" points="46.115,11.175 43.484,11.175 43.484,9.18 45.772,9.18 45.772,8.83 43.484,8.83 43.484,6.983 
		46.098,6.983 46.098,6.634 43.072,6.634 43.072,11.525 46.115,11.525 	"/>
	<path class="st7" d="M49.027,11.041l0.017,0.484h0.376v-5.16h-0.4v2.039c-0.257-0.388-0.631-0.581-1.122-0.581
		c-0.432,0-0.774,0.168-1.026,0.502c-0.252,0.334-0.378,0.784-0.378,1.348v0.047c0,0.573,0.129,1.028,0.385,1.366
		c0.256,0.337,0.594,0.505,1.013,0.505C48.391,11.592,48.769,11.409,49.027,11.041z M47.18,10.841
		c-0.186-0.268-0.279-0.633-0.279-1.097c0-0.517,0.094-0.909,0.282-1.174c0.188-0.266,0.451-0.398,0.789-0.398
		c0.49,0,0.84,0.236,1.048,0.709v1.707c-0.208,0.436-0.56,0.655-1.055,0.655C47.628,11.243,47.365,11.109,47.18,10.841z"/>
	<path class="st7" d="M51.485,11.592c0.531,0,0.917-0.176,1.159-0.528l0.007,0.461h0.39V7.89h-0.403v2.63
		c-0.154,0.481-0.523,0.722-1.105,0.722c-0.56,0-0.84-0.346-0.84-1.038V7.89h-0.4v2.365c0.004,0.441,0.108,0.774,0.309,0.999
		S51.098,11.592,51.485,11.592z"/>
	<path class="st7" d="M55.258,11.592c0.241,0,0.469-0.051,0.68-0.154c0.212-0.103,0.381-0.246,0.509-0.428s0.197-0.385,0.208-0.607
		h-0.387c-0.016,0.251-0.118,0.456-0.307,0.613c-0.189,0.158-0.424,0.236-0.704,0.236c-0.365,0-0.648-0.13-0.848-0.39
		c-0.201-0.26-0.3-0.622-0.3-1.085V9.66c0-0.472,0.1-0.84,0.3-1.102c0.201-0.262,0.482-0.393,0.845-0.393
		c0.285,0,0.52,0.087,0.707,0.262c0.187,0.175,0.29,0.404,0.307,0.689h0.387c-0.018-0.388-0.156-0.7-0.415-0.937
		c-0.259-0.237-0.587-0.356-0.986-0.356c-0.314,0-0.587,0.075-0.822,0.225c-0.234,0.15-0.414,0.363-0.539,0.638
		s-0.188,0.592-0.188,0.951v0.121c0,0.56,0.139,1.006,0.418,1.337C54.402,11.426,54.781,11.592,55.258,11.592z"/>
	<path class="st7" d="M58.77,9.412c-0.526,0-0.937,0.103-1.231,0.309c-0.295,0.206-0.441,0.486-0.441,0.84
		c0,0.298,0.108,0.544,0.324,0.739c0.217,0.195,0.499,0.292,0.848,0.292c0.244,0,0.475-0.05,0.694-0.149
		c0.218-0.1,0.398-0.241,0.539-0.425c0.011,0.224,0.037,0.393,0.077,0.507h0.43v-0.041c-0.074-0.175-0.111-0.438-0.111-0.789v-1.72
		c-0.007-0.363-0.127-0.646-0.361-0.848c-0.234-0.202-0.553-0.304-0.959-0.304c-0.392,0-0.722,0.106-0.991,0.318
		c-0.269,0.212-0.403,0.462-0.403,0.751l0.403,0.003c0-0.202,0.092-0.374,0.275-0.517s0.416-0.215,0.695-0.215
		c0.307,0,0.54,0.075,0.7,0.223c0.16,0.149,0.24,0.353,0.24,0.613v0.413L58.77,9.412L58.77,9.412z M59.5,10.521
		c-0.096,0.217-0.251,0.391-0.462,0.52c-0.212,0.13-0.452,0.195-0.72,0.195c-0.241,0-0.438-0.067-0.589-0.202
		c-0.151-0.134-0.227-0.304-0.227-0.507c0-0.249,0.113-0.444,0.339-0.586c0.227-0.142,0.539-0.216,0.941-0.22H59.5L59.5,10.521
		L59.5,10.521z"/>
	<path class="st7" d="M62.24,11.535l-0.017-0.326c-0.15,0.022-0.259,0.033-0.326,0.033c-0.17,0-0.292-0.049-0.364-0.148
		c-0.072-0.099-0.11-0.249-0.11-0.451V8.219h0.753V7.89h-0.753V6.959H61.02v0.93h-0.669v0.329h0.669v2.426
		c0,0.311,0.063,0.547,0.188,0.707s0.326,0.24,0.602,0.24C61.991,11.592,62.135,11.573,62.24,11.535z"/>
	<path class="st7" d="M64.175,11.592c0.316,0,0.597-0.076,0.843-0.228c0.246-0.152,0.437-0.369,0.573-0.65
		c0.135-0.281,0.203-0.597,0.203-0.949V9.68c0-0.56-0.15-1.01-0.45-1.348c-0.3-0.339-0.692-0.509-1.176-0.509
		c-0.314,0-0.594,0.078-0.841,0.233c-0.247,0.156-0.439,0.373-0.574,0.653c-0.135,0.28-0.203,0.595-0.203,0.944v0.08
		c0,0.56,0.151,1.01,0.452,1.348C63.302,11.423,63.693,11.592,64.175,11.592z M62.952,9.691c0-0.455,0.113-0.822,0.339-1.104
		c0.227-0.281,0.519-0.422,0.877-0.422c0.24,0,0.452,0.063,0.638,0.19c0.186,0.126,0.33,0.305,0.433,0.536
		c0.103,0.231,0.154,0.485,0.154,0.763v0.077c0,0.457-0.113,0.825-0.338,1.104c-0.225,0.279-0.519,0.418-0.882,0.418
		c-0.365,0-0.661-0.139-0.885-0.418c-0.225-0.279-0.338-0.636-0.338-1.07L62.952,9.691L62.952,9.691z"/>
	<path class="st7" d="M67.859,8.209c0.096,0,0.187,0.007,0.272,0.023l0.01-0.366c-0.065-0.029-0.154-0.044-0.266-0.044
		c-0.47,0-0.812,0.215-1.025,0.645L66.844,7.89h-0.393v3.635h0.4V9.029c0.074-0.266,0.197-0.47,0.371-0.61
		C67.396,8.279,67.608,8.209,67.859,8.209z"/>
	<path class="st7" d="M46.48,14.411c0.144-0.223,0.217-0.501,0.217-0.835c0-0.47-0.157-0.834-0.471-1.092
		c-0.314-0.258-0.759-0.387-1.337-0.387h-1.817v4.891h1.008v-1.791h0.803l0.917,1.791h1.082v-0.047l-1.058-1.999
		C46.117,14.812,46.336,14.634,46.48,14.411z M45.48,14.189c-0.139,0.129-0.334,0.193-0.587,0.193h-0.813v-1.468h0.81
		c0.271,0,0.472,0.066,0.603,0.198s0.197,0.314,0.197,0.544C45.688,13.883,45.619,14.061,45.48,14.189z"/>
	<path class="st7" d="M48.792,13.287c-0.331,0-0.627,0.078-0.885,0.233c-0.259,0.155-0.459,0.378-0.6,0.666
		c-0.141,0.288-0.212,0.614-0.212,0.979v0.094c0,0.544,0.168,0.98,0.502,1.307c0.334,0.327,0.768,0.49,1.302,0.49
		c0.302,0,0.578-0.057,0.826-0.173c0.249-0.115,0.446-0.276,0.592-0.482l-0.477-0.534c-0.211,0.271-0.503,0.407-0.877,0.407
		c-0.241,0-0.441-0.071-0.6-0.215c-0.158-0.144-0.252-0.334-0.284-0.571h2.314v-0.397c0-0.576-0.143-1.02-0.428-1.333
		C49.681,13.444,49.289,13.287,48.792,13.287z M49.441,14.826h-1.35c0.033-0.243,0.11-0.43,0.23-0.56
		c0.119-0.13,0.276-0.196,0.469-0.196c0.206,0,0.365,0.059,0.477,0.177c0.112,0.118,0.17,0.285,0.175,0.501L49.441,14.826
		L49.441,14.826z"/>
	<path class="st7" d="M52.917,14.967c-0.166-0.061-0.369-0.115-0.612-0.163c-0.242-0.048-0.414-0.105-0.515-0.171
		c-0.101-0.066-0.153-0.153-0.153-0.261c0-0.115,0.045-0.208,0.134-0.282c0.09-0.074,0.216-0.111,0.379-0.111
		c0.19,0,0.33,0.046,0.42,0.136c0.09,0.09,0.134,0.206,0.134,0.344h0.971c0-0.347-0.139-0.629-0.415-0.846
		c-0.276-0.217-0.646-0.326-1.107-0.326c-0.432,0-0.783,0.108-1.05,0.324c-0.267,0.217-0.402,0.485-0.402,0.808
		c0,0.553,0.432,0.92,1.297,1.102c0.26,0.054,0.448,0.115,0.566,0.183c0.118,0.068,0.177,0.162,0.177,0.28
		c0,0.115-0.047,0.207-0.143,0.277s-0.236,0.106-0.422,0.106c-0.199,0-0.358-0.046-0.477-0.138
		c-0.119-0.092-0.183-0.224-0.192-0.397h-0.921c0,0.219,0.067,0.424,0.202,0.613c0.134,0.189,0.319,0.339,0.556,0.446
		c0.236,0.109,0.507,0.163,0.812,0.163c0.45,0,0.817-0.102,1.102-0.307c0.285-0.205,0.427-0.473,0.427-0.805
		C53.686,15.481,53.43,15.155,52.917,14.967z"/>
	<path class="st7" d="M56.905,13.738c-0.31-0.3-0.71-0.45-1.201-0.45c-0.345,0-0.648,0.077-0.909,0.232
		c-0.261,0.154-0.461,0.373-0.6,0.655c-0.139,0.282-0.208,0.603-0.208,0.964v0.043c0,0.578,0.156,1.035,0.469,1.371
		c0.313,0.336,0.731,0.504,1.255,0.504c0.524,0,0.942-0.168,1.253-0.505c0.311-0.337,0.467-0.784,0.467-1.342l-0.007-0.249
		C57.389,14.445,57.215,14.037,56.905,13.738z M56.262,16.002c-0.132,0.181-0.316,0.271-0.551,0.271
		c-0.241,0-0.427-0.091-0.558-0.275c-0.13-0.183-0.195-0.446-0.195-0.792c0-0.388,0.065-0.675,0.195-0.86s0.314-0.278,0.551-0.278
		c0.24,0,0.426,0.093,0.558,0.28c0.132,0.186,0.198,0.448,0.198,0.787C56.46,15.533,56.394,15.822,56.262,16.002z"/>
	<path class="st7" d="M60,15.93c-0.123,0.229-0.349,0.344-0.679,0.344c-0.345,0-0.517-0.189-0.517-0.568v-2.351h-0.971v2.382
		c0.004,0.432,0.11,0.76,0.314,0.984c0.205,0.224,0.502,0.336,0.892,0.336c0.423,0,0.755-0.145,0.994-0.436l0.027,0.369h0.914
		v-3.635H60C60,13.354,60,15.93,60,15.93z"/>
	<path class="st7" d="M62.479,13.788l-0.027-0.433h-0.917v3.635h0.971v-2.378c0.115-0.249,0.355-0.373,0.722-0.373
		c0.1,0,0.217,0.009,0.349,0.027l0.013-0.934c-0.094-0.029-0.195-0.044-0.302-0.044C62.943,13.287,62.674,13.454,62.479,13.788z"/>
	<path class="st7" d="M64.801,14.318c0.115-0.165,0.286-0.247,0.512-0.247c0.183,0,0.331,0.06,0.443,0.178
		c0.112,0.118,0.17,0.271,0.175,0.461h0.91c-0.004-0.43-0.144-0.774-0.418-1.033c-0.275-0.259-0.639-0.388-1.094-0.388
		c-0.519,0-0.929,0.167-1.226,0.5c-0.298,0.334-0.446,0.781-0.446,1.34v0.064c0,0.583,0.15,1.039,0.45,1.369
		c0.3,0.33,0.71,0.495,1.23,0.495c0.278,0,0.531-0.056,0.761-0.169c0.23-0.113,0.411-0.272,0.543-0.477s0.199-0.431,0.202-0.677
		h-0.91c-0.004,0.163-0.063,0.295-0.175,0.393c-0.112,0.099-0.257,0.148-0.436,0.148c-0.233,0-0.407-0.082-0.52-0.246
		c-0.115-0.163-0.171-0.433-0.171-0.807v-0.1C64.628,14.749,64.686,14.482,64.801,14.318z"/>
	<path class="st7" d="M68.789,13.287c-0.331,0-0.626,0.078-0.885,0.233s-0.459,0.378-0.6,0.666
		c-0.141,0.288-0.212,0.614-0.212,0.979v0.094c0,0.544,0.168,0.98,0.502,1.307c0.334,0.327,0.768,0.49,1.302,0.49
		c0.302,0,0.578-0.057,0.826-0.173c0.249-0.115,0.446-0.276,0.592-0.482l-0.477-0.534c-0.211,0.271-0.503,0.407-0.877,0.407
		c-0.241,0-0.441-0.071-0.6-0.215c-0.158-0.144-0.252-0.334-0.284-0.571h2.314v-0.397c0-0.576-0.143-1.02-0.428-1.333
		C69.678,13.444,69.286,13.287,68.789,13.287z M69.437,14.826h-1.35c0.033-0.243,0.11-0.43,0.23-0.56
		c0.119-0.13,0.276-0.196,0.469-0.196c0.206,0,0.365,0.059,0.477,0.177c0.112,0.118,0.17,0.285,0.175,0.501L69.437,14.826
		L69.437,14.826z"/>
	<path class="st7" d="M73.506,13.218c0.167-0.241,0.418-0.361,0.754-0.361c0.309,0,0.539,0.071,0.69,0.213
		c0.151,0.142,0.239,0.371,0.264,0.687h1.008c-0.054-0.547-0.253-0.971-0.598-1.273c-0.345-0.302-0.8-0.454-1.364-0.454
		c-0.407,0-0.765,0.095-1.073,0.287c-0.308,0.192-0.545,0.466-0.71,0.825c-0.166,0.358-0.249,0.773-0.249,1.243v0.299
		c0,0.737,0.18,1.316,0.539,1.738s0.853,0.633,1.48,0.633c0.573,0,1.036-0.151,1.386-0.454s0.545-0.717,0.583-1.243h-1.008
		c-0.022,0.298-0.11,0.518-0.264,0.66s-0.386,0.213-0.697,0.213c-0.345,0-0.597-0.122-0.758-0.366
		c-0.16-0.244-0.24-0.631-0.24-1.159v-0.369C73.254,13.832,73.339,13.459,73.506,13.218z"/>
	<path class="st7" d="M78.207,13.287c-0.331,0-0.627,0.078-0.885,0.233c-0.259,0.155-0.459,0.378-0.6,0.666
		c-0.141,0.288-0.212,0.614-0.212,0.979v0.094c0,0.544,0.168,0.98,0.502,1.307c0.334,0.327,0.768,0.49,1.302,0.49
		c0.302,0,0.578-0.057,0.826-0.173c0.249-0.115,0.446-0.276,0.592-0.482l-0.477-0.534c-0.211,0.271-0.503,0.407-0.877,0.407
		c-0.241,0-0.441-0.071-0.6-0.215c-0.158-0.144-0.252-0.334-0.284-0.571h2.314v-0.397c0-0.576-0.143-1.02-0.428-1.333
		C79.095,13.444,78.704,13.287,78.207,13.287z M78.856,14.826h-1.35c0.033-0.243,0.11-0.43,0.23-0.56
		c0.119-0.13,0.276-0.196,0.469-0.196c0.206,0,0.365,0.059,0.477,0.177s0.17,0.285,0.175,0.501L78.856,14.826L78.856,14.826z"/>
	<path class="st7" d="M82.157,13.287c-0.436,0-0.785,0.163-1.045,0.487l-0.03-0.42h-0.914v3.635h0.971V14.42
		c0.137-0.233,0.342-0.35,0.615-0.35c0.208,0,0.357,0.046,0.446,0.14c0.09,0.093,0.134,0.243,0.134,0.449v2.33h0.971v-2.348
		c-0.004-0.45-0.1-0.788-0.289-1.015S82.542,13.287,82.157,13.287z"/>
	<path class="st7" d="M85.109,16.17c-0.051-0.058-0.077-0.154-0.077-0.289v-1.814h0.622v-0.712h-0.622v-0.894h-0.971v0.894H83.53
		v0.712h0.531v1.958c0.013,0.688,0.361,1.031,1.041,1.031c0.202,0,0.397-0.029,0.588-0.087v-0.736
		c-0.083,0.016-0.178,0.023-0.285,0.023C85.259,16.257,85.16,16.228,85.109,16.17z"/>
	<path class="st7" d="M87.588,13.287c-0.331,0-0.626,0.078-0.885,0.233s-0.459,0.378-0.6,0.666
		c-0.141,0.288-0.212,0.614-0.212,0.979v0.094c0,0.544,0.168,0.98,0.502,1.307c0.334,0.327,0.768,0.49,1.302,0.49
		c0.302,0,0.578-0.057,0.826-0.173c0.249-0.115,0.446-0.276,0.592-0.482l-0.477-0.534c-0.211,0.271-0.503,0.407-0.877,0.407
		c-0.241,0-0.441-0.071-0.6-0.215s-0.252-0.334-0.284-0.571h2.314v-0.397c0-0.576-0.143-1.02-0.428-1.333
		C88.476,13.444,88.085,13.287,87.588,13.287z M88.236,14.826h-1.35c0.033-0.243,0.11-0.43,0.23-0.56
		c0.119-0.13,0.276-0.196,0.469-0.196c0.206,0,0.365,0.059,0.477,0.177s0.17,0.285,0.175,0.501L88.236,14.826L88.236,14.826z"/>
	<path class="st7" d="M91.323,13.287c-0.345,0-0.615,0.167-0.81,0.5l-0.027-0.433h-0.917v3.635h0.971v-2.378
		c0.115-0.249,0.355-0.373,0.722-0.373c0.1,0,0.217,0.009,0.349,0.027l0.013-0.934C91.531,13.302,91.43,13.287,91.323,13.287z"/>
</g>
</svg>
