<?xml version="1.0" encoding="utf-8"?>
<!-- Generator: Adobe Illustrator 21.1.0, SVG Export Plug-In . SVG Version: 6.00 Build 0)  -->
<svg version="1.1" id="Layer_1" xmlns="http://www.w3.org/2000/svg" xmlns:xlink="http://www.w3.org/1999/xlink" x="0px" y="0px"
	 viewBox="0 0 50 50" style="enable-background:new 0 0 50 50;" xml:space="preserve">
<style type="text/css">
	.st0{fill:#FFFFFF;}
	.st1{fill:#33599D;}
	.st2{fill:#254178;}
	.st3{fill:#112754;}
</style>
<g>
	<g>
		<g>
			<rect class="st0" width="44.004" height="44.004"/>
		</g>
		<g>
			<path class="st1" d="M21.022,26.006c-2.064,0-4.128,0-6.192,0c-0.189,0-0.189-0.001-0.189-0.183c0-2.435,0-4.87,0-7.305
				c0-0.183,0-0.183,0.188-0.184c0.044,0,0.087,0,0.131,0c2.025,0,4.049,0,6.074,0c0.184,0,0.184,0,0.184-0.187
				c0-1.767,0-3.535,0-5.302c0-0.672,0.041-1.34,0.127-2.006c0.1-0.774,0.27-1.532,0.529-2.268c0.665-1.89,1.804-3.411,3.516-4.476
				c1.531-0.953,3.225-1.385,5.008-1.442c1.189-0.038,2.381,0.025,3.571,0.045c0.174,0.003,0.348,0.017,0.522,0.029
				c0.569,0.04,1.137,0.08,1.706,0.125c0.246,0.02,0.491,0.052,0.742,0.079c0,2.287,0,4.558,0,6.851c-0.068,0-0.123,0-0.179,0
				c-1.448,0.008-2.897,0.013-4.345,0.027C32,9.812,31.591,9.879,31.192,9.99c-0.901,0.252-1.541,0.787-1.832,1.698
				c-0.138,0.43-0.21,0.874-0.213,1.322c-0.01,1.71-0.006,3.421-0.007,5.132c0,0.192,0,0.192,0.193,0.192c2.361,0,4.721,0,7.082,0
				c0.048,0,0.096,0.003,0.144,0c0.107-0.007,0.133,0.04,0.119,0.142c-0.071,0.503-0.137,1.007-0.202,1.512
				c-0.083,0.642-0.16,1.285-0.243,1.927s-0.171,1.283-0.255,1.925c-0.089,0.689-0.175,1.379-0.268,2.068
				c-0.005,0.036-0.056,0.078-0.095,0.093c-0.042,0.016-0.095,0.005-0.143,0.005c-2.042,0-4.084,0-6.127,0
				c-0.206,0-0.206,0-0.206,0.203c0,5.931,0,11.863,0,17.794h14.864V0H0v44.004h21.218c0-5.933,0-11.865,0-17.798
				C21.218,26.006,21.218,26.006,21.022,26.006z"/>
		</g>
	</g>
	<g>
		<polygon class="st2" points="46.864,46.424 2.86,46.424 0,44.004 44.004,44.004 		"/>
	</g>
	<g>
		<polygon class="st3" points="46.864,2.42 46.864,46.424 44.004,44.004 44.004,0 		"/>
	</g>
</g>
</svg>
