<?xml version="1.0" encoding="utf-8"?>
<!-- Generator: Adobe Illustrator 21.1.0, SVG Export Plug-In . SVG Version: 6.00 Build 0)  -->
<svg version="1.1" id="Layer_1" xmlns="http://www.w3.org/2000/svg" xmlns:xlink="http://www.w3.org/1999/xlink" x="0px" y="0px"
	 viewBox="0 0 150 50" style="enable-background:new 0 0 150 50;" xml:space="preserve">
<style type="text/css">
	.st0{fill:#FFFFFF;}
</style>
<g>
	<path class="st0" d="M27.394,19.501l0.017,4.221h9.936c-1.175,5.139-4.802,8.29-9.67,8.29c-6.385,0-11.561-5.176-11.561-11.561
		S21.293,8.891,27.678,8.891c3.036,0,5.797,1.172,7.86,3.086l3.261-2.811c-2.861-2.819-6.786-4.56-11.12-4.56
		c-8.752,0-15.846,7.095-15.846,15.846s7.095,15.846,15.846,15.846c8.404,0,14.477-6.41,14.477-15.162l-0.025-1.635H27.394z"/>
	<rect x="110.137" y="4.606" class="st0" width="4.198" height="30.737"/>
	<path class="st0" d="M54.26,15.665c-5.626,0-10.187,4.561-10.187,10.187c0,5.626,4.561,10.187,10.187,10.187
		c5.626,0,10.187-4.561,10.187-10.187C64.447,20.226,59.886,15.665,54.26,15.665z M54.26,31.673c-3.215,0-5.821-2.606-5.821-5.821
		s2.606-5.821,5.821-5.821c3.215,0,5.821,2.606,5.821,5.821S57.475,31.673,54.26,31.673z"/>
	<path class="st0" d="M76.126,15.665c-5.626,0-10.187,4.561-10.187,10.187c0,5.626,4.561,10.187,10.187,10.187
		c5.626,0,10.187-4.561,10.187-10.187C86.313,20.226,81.752,15.665,76.126,15.665z M76.126,31.673c-3.215,0-5.821-2.606-5.821-5.821
		s2.606-5.821,5.821-5.821c3.215,0,5.821,2.606,5.821,5.821S79.341,31.673,76.126,31.673z"/>
	<path class="st0" d="M125.879,15.665c-5.412,0-9.799,4.561-9.799,10.187c0,5.626,4.387,10.187,9.799,10.187
		c3.649,0,6.829-1.764,8.516-4.636l-3.472-2.055c-1.03,1.695-2.955,2.782-5.044,2.782c-1.995,0-3.746-1.276-4.737-3.044l10.34-4.206
		c0.001,0.003,0.002,0.006,0.002,0.008l3.367-1.379l0,0l0.361-0.148C133.948,19.084,130.248,15.665,125.879,15.665z M120.294,25.46
		c0.193-3.067,2.619-5.885,5.586-5.885c1.453,0,2.826,0.827,3.874,2.037L120.294,25.46z"/>
	<path class="st0" d="M103.126,17.27c-1.537-1.014-3.362-1.604-5.322-1.604c-5.459,0-9.885,4.561-9.885,10.187
		c0,5.626,4.426,10.187,9.885,10.187c1.96,0,3.785-0.59,5.322-1.604c0,0,0.165,0.765,0.165,1.332c0,0.961-0.165,1.394-0.165,1.394
		c-0.779,2.254-2.867,3.868-5.322,3.868c-2.295,0-4.269-1.412-5.152-3.438l-3.909,1.689c1.524,3.599,5.006,6.115,9.061,6.115
		c5.359,0,9.719-4.396,9.877-9.879l0.008-0.004V16.117h-4.563V17.27z M103.773,25.852c0,3.202-2.619,5.821-5.821,5.821h-0.165
		c-3.202,0-5.821-2.619-5.821-5.821v0c0-3.202,2.619-5.821,5.821-5.821h0.165C101.153,20.031,103.773,22.651,103.773,25.852
		L103.773,25.852z"/>
</g>
</svg>
