<?xml version="1.0" encoding="utf-8"?>
<!-- Generator: Adobe Illustrator 21.1.0, SVG Export Plug-In . SVG Version: 6.00 Build 0)  -->
<svg version="1.1" id="Layer_1" xmlns="http://www.w3.org/2000/svg" xmlns:xlink="http://www.w3.org/1999/xlink" x="0px" y="0px"
	 viewBox="0 0 100 20" style="enable-background:new 0 0 100 20;" xml:space="preserve">
<style type="text/css">
	.st0{fill:#6D8CBC;}
	.st1{fill:#3C4852;}
</style>
<g id="qDqo21_1_">
	<g>
		<path class="st0" d="M4.947,12.11c0.1-0.408,0.2-0.815,0.299-1.223C5.363,10.4,5.475,9.911,5.595,9.426
			c0.074-0.3,0.266-0.492,0.562-0.581c0.121-0.037,0.224-0.02,0.316,0.072C6.527,8.97,6.588,9.018,6.647,9.068
			c0.16,0.138,0.322,0.142,0.487,0.006c0.073-0.06,0.137-0.136,0.219-0.184c0.06-0.036,0.145-0.066,0.21-0.054
			c0.339,0.061,0.554,0.271,0.633,0.602c0.204,0.859,0.402,1.72,0.6,2.58c0.065,0.279-0.082,0.45-0.401,0.466
			c0.061,0.261,0.121,0.52,0.183,0.779c0.032,0.134,0.066,0.267,0.097,0.401c0.04,0.17-0.053,0.29-0.226,0.291
			c-0.28,0.002-0.56,0.001-0.852,0.001c-0.023,0.248-0.044,0.488-0.066,0.727c-0.037,0.401-0.072,0.802-0.113,1.202
			c-0.016,0.153-0.118,0.255-0.27,0.264c-0.175,0.011-0.354,0.01-0.529-0.001c-0.15-0.009-0.253-0.124-0.266-0.27
			c-0.055-0.604-0.111-1.207-0.16-1.811c-0.007-0.087-0.033-0.117-0.124-0.114c-0.246,0.007-0.492,0.003-0.738,0.002
			c-0.181-0.001-0.27-0.117-0.228-0.296c0.092-0.391,0.183-0.781,0.275-1.18c-0.164,0.007-0.302-0.036-0.38-0.187
			c-0.022-0.043-0.034-0.092-0.051-0.138C4.947,12.141,4.947,12.126,4.947,12.11z"/>
		<path class="st0" d="M14.795,13.957c-0.28,0-0.549-0.009-0.817,0.003c-0.175,0.008-0.314-0.103-0.257-0.328
			c0.097-0.378,0.183-0.757,0.275-1.14c-0.07-0.013-0.134-0.017-0.193-0.037c-0.159-0.054-0.258-0.225-0.22-0.383
			c0.212-0.885,0.421-1.772,0.638-2.655c0.079-0.32,0.29-0.519,0.613-0.58c0.072-0.014,0.164,0.019,0.231,0.058
			c0.084,0.05,0.151,0.129,0.229,0.192c0.134,0.111,0.296,0.113,0.434,0.007c0.082-0.064,0.159-0.133,0.237-0.201
			c0.072-0.065,0.153-0.082,0.245-0.06c0.339,0.083,0.542,0.299,0.62,0.637c0.193,0.843,0.387,1.685,0.58,2.527
			c0.071,0.307-0.07,0.483-0.396,0.483c0.066,0.276,0.129,0.549,0.195,0.823c0.029,0.122,0.059,0.245,0.086,0.368
			c0.037,0.171-0.055,0.283-0.231,0.284c-0.242,0.001-0.484,0-0.726,0.001c-0.038,0-0.075,0.003-0.12,0.005
			c-0.019,0.212-0.038,0.417-0.057,0.623c-0.039,0.435-0.076,0.872-0.117,1.307c-0.013,0.132-0.125,0.247-0.256,0.257
			c-0.168,0.012-0.338,0.017-0.506,0.009c-0.195-0.01-0.303-0.129-0.32-0.325C14.906,15.214,14.851,14.594,14.795,13.957z"/>
		<path class="st0" d="M11.194,16.17c-0.104,0-0.208,0.003-0.311-0.001c-0.196-0.007-0.311-0.113-0.333-0.31
			c-0.078-0.705-0.154-1.411-0.231-2.115c-0.055-0.499-0.109-0.998-0.162-1.498c-0.007-0.068-0.031-0.113-0.101-0.147
			c-0.229-0.117-0.346-0.317-0.38-0.569C9.6,10.96,9.53,10.391,9.447,9.821C9.362,9.242,9.776,8.78,10.323,8.812
			c0.012,0.001,0.024,0.002,0.035,0c0.224-0.037,0.396,0.051,0.554,0.206c0.21,0.206,0.355,0.2,0.581,0.008
			c0.009-0.007,0.02-0.014,0.026-0.022c0.328-0.437,1.347-0.142,1.415,0.447c0.021,0.183,0.007,0.375-0.014,0.559
			c-0.059,0.498-0.134,0.996-0.197,1.493c-0.035,0.279-0.16,0.489-0.418,0.616c-0.032,0.016-0.064,0.063-0.068,0.099
			c-0.041,0.327-0.076,0.655-0.113,0.984c-0.044,0.397-0.088,0.793-0.13,1.189c-0.042,0.385-0.082,0.77-0.124,1.156
			c-0.012,0.114-0.024,0.229-0.042,0.343c-0.029,0.18-0.138,0.275-0.321,0.283C11.401,16.174,11.298,16.17,11.194,16.17z"/>
		<path class="st0" d="M10.221,7.563c-0.007-0.537,0.429-0.972,0.978-0.978c0.533-0.005,0.972,0.43,0.976,0.969
			c0.005,0.543-0.423,0.982-0.968,0.992C10.668,8.556,10.229,8.119,10.221,7.563z"/>
		<path class="st0" d="M16.485,7.564c0.002,0.543-0.43,0.98-0.973,0.984c-0.537,0.003-0.973-0.431-0.98-0.977
			c-0.008-0.532,0.437-0.98,0.976-0.984C16.042,6.58,16.483,7.022,16.485,7.564z"/>
		<path class="st0" d="M6.887,6.586c0.535-0.002,0.98,0.443,0.98,0.98c0.001,0.537-0.441,0.98-0.978,0.98
			C6.35,8.548,5.912,8.11,5.911,7.567C5.91,7.026,6.348,6.586,6.887,6.586z"/>
		<path class="st0" d="M12.175,4.294c-0.018,0.651-0.551,0.978-0.992,0.964c-0.564-0.017-0.981-0.469-0.96-1.019
			c0.02-0.513,0.429-0.942,0.997-0.935C11.759,3.307,12.199,3.776,12.175,4.294z"/>
		<path class="st0" d="M9.044,4.947c0.54,0.001,0.98,0.443,0.98,0.981C10.022,6.47,9.562,6.91,9.038,6.902
			C8.53,6.895,8.071,6.507,8.063,5.916C8.055,5.39,8.511,4.947,9.044,4.947z"/>
		<path class="st0" d="M13.355,6.9c-0.543,0-0.978-0.434-0.98-0.978c-0.002-0.533,0.452-0.982,0.985-0.976
			c0.54,0.008,0.98,0.443,0.976,0.975C14.33,6.48,13.875,6.909,13.355,6.9z"/>
	</g>
</g>
<g>
	<path class="st1" d="M24.47,12.16c-0.183,0.219-0.442,0.389-0.777,0.511c-0.334,0.121-0.706,0.181-1.113,0.181
		c-0.428,0-0.802-0.093-1.125-0.28c-0.323-0.186-0.571-0.457-0.747-0.812c-0.175-0.355-0.265-0.773-0.27-1.252v-0.335
		c0-0.493,0.083-0.92,0.249-1.28c0.167-0.361,0.406-0.637,0.719-0.829c0.314-0.191,0.681-0.286,1.101-0.286
		c0.585,0,1.044,0.139,1.375,0.419c0.33,0.28,0.526,0.686,0.586,1.22h-0.991c-0.045-0.283-0.145-0.49-0.3-0.622
		s-0.368-0.197-0.639-0.197c-0.346,0-0.61,0.13-0.79,0.39c-0.181,0.26-0.273,0.647-0.275,1.16v0.316
		c0,0.517,0.099,0.909,0.296,1.174c0.197,0.264,0.485,0.397,0.865,0.397c0.383,0,0.654-0.081,0.818-0.244v-0.852h-0.926v-0.75h1.944
		V12.16L24.47,12.16L24.47,12.16z"/>
	<path class="st1" d="M26.746,12.852c-0.538,0-0.977-0.164-1.314-0.495c-0.338-0.33-0.508-0.771-0.508-1.32v-0.095
		c0-0.368,0.071-0.698,0.214-0.989c0.143-0.291,0.344-0.514,0.606-0.671c0.261-0.158,0.559-0.236,0.893-0.236
		c0.502,0,0.898,0.159,1.186,0.475c0.288,0.317,0.432,0.765,0.432,1.347v0.4h-2.337c0.032,0.24,0.127,0.432,0.287,0.577
		c0.159,0.145,0.361,0.217,0.605,0.217c0.377,0,0.673-0.137,0.886-0.411l0.481,0.539c-0.147,0.208-0.345,0.371-0.597,0.487
		C27.329,12.794,27.051,12.852,26.746,12.852z M26.634,9.836c-0.194,0-0.353,0.066-0.474,0.198s-0.198,0.32-0.232,0.566h1.364
		v-0.079c-0.004-0.218-0.064-0.387-0.176-0.506C27.002,9.895,26.842,9.836,26.634,9.836z"/>
	<path class="st1" d="M29.541,9.113l0.031,0.424c0.262-0.328,0.614-0.492,1.056-0.492c0.389,0,0.679,0.115,0.868,0.343
		c0.19,0.229,0.287,0.57,0.292,1.025v2.372h-0.98v-2.353c0-0.208-0.045-0.36-0.136-0.454s-0.241-0.141-0.452-0.141
		c-0.276,0-0.483,0.118-0.622,0.354v2.595h-0.98V9.113H29.541z"/>
	<path class="st1" d="M34.045,12.852c-0.538,0-0.977-0.164-1.314-0.495c-0.338-0.33-0.508-0.771-0.508-1.32v-0.095
		c0-0.368,0.071-0.698,0.214-0.989s0.344-0.514,0.606-0.671c0.261-0.158,0.559-0.236,0.893-0.236c0.502,0,0.898,0.159,1.186,0.475
		c0.288,0.317,0.432,0.765,0.432,1.347v0.4h-2.337c0.032,0.24,0.127,0.432,0.287,0.577c0.159,0.145,0.361,0.217,0.605,0.217
		c0.377,0,0.673-0.137,0.886-0.411l0.481,0.539c-0.147,0.208-0.345,0.371-0.597,0.487C34.629,12.794,34.351,12.852,34.045,12.852z
		 M33.934,9.836c-0.194,0-0.353,0.066-0.474,0.198s-0.198,0.32-0.232,0.566h1.364v-0.079c-0.004-0.218-0.064-0.387-0.176-0.506
		S34.142,9.836,33.934,9.836z"/>
	<path class="st1" d="M38.001,10.032c-0.134-0.018-0.251-0.026-0.353-0.026c-0.371,0-0.614,0.125-0.73,0.376v2.402h-0.98V9.113
		h0.926l0.027,0.438c0.197-0.338,0.469-0.506,0.818-0.506c0.109,0,0.21,0.015,0.305,0.045L38.001,10.032z"/>
	<path class="st1" d="M40.325,12.784c-0.046-0.089-0.078-0.198-0.099-0.329c-0.237,0.264-0.546,0.397-0.926,0.397
		c-0.36,0-0.658-0.104-0.893-0.312c-0.236-0.208-0.355-0.47-0.355-0.787c0-0.389,0.145-0.688,0.433-0.896s0.705-0.314,1.251-0.316
		h0.452v-0.209c0-0.17-0.044-0.306-0.13-0.408c-0.088-0.102-0.225-0.152-0.412-0.152c-0.164,0-0.295,0.039-0.388,0.118
		c-0.094,0.079-0.141,0.189-0.141,0.326h-0.98c0-0.213,0.066-0.409,0.197-0.591c0.132-0.181,0.317-0.322,0.557-0.425
		c0.24-0.103,0.509-0.155,0.807-0.155c0.453,0,0.811,0.114,1.078,0.341c0.265,0.228,0.399,0.547,0.399,0.958v1.592
		c0.002,0.349,0.05,0.612,0.146,0.79v0.058C41.318,12.784,40.325,12.784,40.325,12.784z M39.513,12.102
		c0.145,0,0.278-0.032,0.4-0.096s0.213-0.151,0.272-0.26v-0.631h-0.367c-0.491,0-0.752,0.17-0.784,0.509l-0.003,0.058
		c0,0.122,0.044,0.223,0.129,0.301C39.246,12.063,39.363,12.102,39.513,12.102z"/>
	<path class="st1" d="M42.923,8.21v0.902h0.628v0.719h-0.628v1.832c0,0.136,0.026,0.233,0.078,0.292s0.151,0.088,0.298,0.088
		c0.109,0,0.205-0.008,0.288-0.023v0.742c-0.192,0.059-0.39,0.089-0.594,0.089c-0.687,0-1.038-0.348-1.052-1.041V9.831h-0.537V9.113
		h0.536V8.21H42.923z"/>
	<path class="st1" d="M45.612,12.852c-0.538,0-0.977-0.164-1.314-0.495c-0.338-0.33-0.508-0.771-0.508-1.32v-0.095
		c0-0.368,0.071-0.698,0.214-0.989s0.344-0.514,0.606-0.671c0.261-0.158,0.559-0.236,0.893-0.236c0.502,0,0.898,0.159,1.186,0.475
		c0.288,0.317,0.432,0.765,0.432,1.347v0.4h-2.337c0.032,0.24,0.127,0.432,0.287,0.577c0.159,0.145,0.361,0.217,0.605,0.217
		c0.377,0,0.673-0.137,0.886-0.411l0.481,0.539c-0.147,0.208-0.345,0.371-0.597,0.487C46.196,12.794,45.917,12.852,45.612,12.852z
		 M45.5,9.836c-0.194,0-0.353,0.066-0.474,0.198s-0.198,0.32-0.232,0.566h1.364v-0.079c-0.004-0.218-0.064-0.387-0.176-0.506
		C45.869,9.895,45.708,9.836,45.5,9.836z"/>
	<path class="st1" d="M53.035,12.16c-0.184,0.219-0.443,0.389-0.777,0.511c-0.335,0.121-0.706,0.181-1.114,0.181
		c-0.428,0-0.802-0.093-1.125-0.28c-0.323-0.186-0.571-0.457-0.747-0.812c-0.175-0.355-0.265-0.773-0.27-1.252v-0.335
		c0-0.493,0.083-0.92,0.249-1.28c0.167-0.361,0.406-0.637,0.719-0.829c0.314-0.191,0.681-0.286,1.101-0.286
		c0.585,0,1.045,0.139,1.375,0.419c0.331,0.28,0.526,0.686,0.588,1.22h-0.991c-0.045-0.283-0.145-0.49-0.3-0.622
		c-0.156-0.132-0.368-0.197-0.639-0.197c-0.346,0-0.61,0.13-0.79,0.39c-0.181,0.26-0.273,0.647-0.275,1.16v0.316
		c0,0.517,0.099,0.909,0.296,1.174c0.197,0.264,0.485,0.397,0.865,0.397c0.383,0,0.656-0.081,0.819-0.244v-0.852h-0.927v-0.75h1.945
		C53.035,10.188,53.035,12.16,53.035,12.16z"/>
	<path class="st1" d="M53.468,10.915c0-0.365,0.069-0.69,0.209-0.973c0.14-0.285,0.342-0.506,0.606-0.662
		c0.263-0.157,0.569-0.235,0.918-0.235c0.495,0,0.9,0.151,1.212,0.455c0.314,0.304,0.488,0.715,0.525,1.235l0.007,0.251
		c0,0.563-0.158,1.015-0.472,1.355c-0.314,0.341-0.736,0.511-1.265,0.511s-0.952-0.17-1.267-0.509
		c-0.315-0.34-0.472-0.801-0.472-1.385C53.468,10.959,53.468,10.915,53.468,10.915z M54.448,10.985c0,0.349,0.065,0.615,0.196,0.8
		c0.132,0.184,0.319,0.276,0.563,0.276c0.237,0,0.423-0.091,0.557-0.273c0.134-0.183,0.2-0.474,0.2-0.875
		c0-0.342-0.066-0.607-0.2-0.795c-0.134-0.189-0.321-0.283-0.563-0.283c-0.24,0-0.425,0.093-0.557,0.281
		C54.513,10.303,54.448,10.593,54.448,10.985z"/>
	<path class="st1" d="M59.574,12.411c-0.242,0.294-0.577,0.441-1.004,0.441c-0.394,0-0.694-0.113-0.9-0.34
		c-0.207-0.226-0.314-0.557-0.317-0.994V9.113h0.98v2.374c0,0.383,0.174,0.573,0.523,0.573c0.332,0,0.561-0.115,0.685-0.346V9.113
		h0.983v3.671h-0.923L59.574,12.411z"/>
	<path class="st1" d="M64.394,10.983c0,0.566-0.128,1.018-0.385,1.358c-0.257,0.341-0.604,0.511-1.04,0.511
		c-0.371,0-0.67-0.129-0.899-0.387v1.73h-0.98V9.113h0.909l0.034,0.36c0.237-0.285,0.546-0.428,0.929-0.428
		c0.453,0,0.805,0.168,1.056,0.502s0.376,0.796,0.376,1.383V10.983L64.394,10.983z M63.414,10.908c0-0.343-0.06-0.607-0.181-0.794
		c-0.121-0.186-0.297-0.278-0.528-0.278c-0.307,0-0.52,0.118-0.635,0.354v1.507c0.119,0.242,0.334,0.364,0.641,0.364
		C63.181,12.062,63.414,11.677,63.414,10.908z"/>
	<path class="st1" d="M68.275,11.559l1.12-3.715h1.131l-1.718,4.94h-1.063l-1.713-4.94h1.129L68.275,11.559z"/>
	<path class="st1" d="M70.748,8.163c0-0.147,0.049-0.269,0.148-0.363c0.099-0.095,0.231-0.143,0.401-0.143
		c0.168,0,0.301,0.047,0.4,0.143c0.1,0.094,0.149,0.216,0.149,0.363c0,0.149-0.05,0.272-0.151,0.366
		c-0.101,0.095-0.232,0.143-0.398,0.143s-0.298-0.047-0.398-0.143C70.797,8.435,70.748,8.312,70.748,8.163z M71.79,12.784h-0.983
		V9.113h0.983V12.784z"/>
	<path class="st1" d="M74.114,12.852c-0.538,0-0.977-0.164-1.314-0.495c-0.339-0.33-0.508-0.771-0.508-1.32v-0.095
		c0-0.368,0.072-0.698,0.214-0.989c0.143-0.291,0.344-0.514,0.606-0.671c0.261-0.158,0.56-0.236,0.895-0.236
		c0.502,0,0.898,0.159,1.185,0.475c0.288,0.317,0.433,0.765,0.433,1.347v0.4h-2.338c0.032,0.24,0.128,0.432,0.287,0.577
		c0.16,0.145,0.362,0.217,0.606,0.217c0.377,0,0.672-0.137,0.886-0.411l0.481,0.539c-0.147,0.208-0.345,0.371-0.596,0.487
		C74.697,12.794,74.419,12.852,74.114,12.852z M74.002,9.836c-0.195,0-0.353,0.066-0.474,0.198s-0.198,0.32-0.232,0.566h1.365
		v-0.079c-0.004-0.218-0.064-0.387-0.176-0.506C74.37,9.895,74.209,9.836,74.002,9.836z"/>
	<path class="st1" d="M79.199,11.451l0.481-2.337h0.947l-0.936,3.671H78.87l-0.696-2.311l-0.695,2.311h-0.818l-0.936-3.671h0.947
		l0.478,2.335l0.672-2.335h0.709L79.199,11.451z"/>
	<path class="st1" d="M86.437,11.138c-0.038,0.532-0.235,0.95-0.589,1.255s-0.82,0.458-1.4,0.458c-0.634,0-1.131-0.214-1.494-0.639
		c-0.363-0.426-0.544-1.012-0.544-1.756v-0.303c0-0.475,0.083-0.893,0.251-1.255c0.168-0.362,0.406-0.64,0.718-0.833
		c0.31-0.193,0.672-0.289,1.084-0.289c0.57,0,1.029,0.152,1.377,0.458c0.349,0.305,0.55,0.734,0.605,1.286h-1.017
		c-0.025-0.319-0.114-0.55-0.267-0.694c-0.152-0.144-0.385-0.216-0.697-0.216c-0.339,0-0.593,0.122-0.762,0.365
		c-0.168,0.243-0.254,0.62-0.259,1.131v0.373c0,0.534,0.081,0.924,0.242,1.171c0.162,0.247,0.418,0.371,0.765,0.371
		c0.315,0,0.549-0.072,0.704-0.216c0.156-0.144,0.244-0.366,0.267-0.667C85.422,11.138,86.437,11.138,86.437,11.138z"/>
	<path class="st1" d="M86.715,10.915c0-0.365,0.071-0.69,0.212-0.973c0.14-0.285,0.342-0.506,0.606-0.662
		c0.262-0.157,0.569-0.235,0.918-0.235c0.495,0,0.9,0.151,1.212,0.455c0.314,0.304,0.488,0.715,0.525,1.235l0.007,0.251
		c0,0.563-0.158,1.015-0.472,1.355c-0.314,0.341-0.736,0.511-1.265,0.511s-0.952-0.17-1.267-0.509
		c-0.315-0.34-0.474-0.801-0.474-1.385v-0.044L86.715,10.915L86.715,10.915z M87.696,10.985c0,0.349,0.065,0.615,0.196,0.8
		c0.132,0.184,0.319,0.276,0.563,0.276c0.237,0,0.423-0.091,0.557-0.273c0.134-0.183,0.2-0.474,0.2-0.875
		c0-0.342-0.066-0.607-0.2-0.795c-0.134-0.189-0.321-0.283-0.563-0.283c-0.24,0-0.425,0.093-0.557,0.281
		C87.762,10.303,87.696,10.593,87.696,10.985z"/>
	<path class="st1" d="M90.469,10.921c0-0.572,0.129-1.028,0.386-1.367c0.257-0.34,0.608-0.51,1.053-0.51
		c0.357,0,0.652,0.134,0.886,0.4V7.572h0.984v5.211h-0.886l-0.048-0.39c-0.244,0.305-0.559,0.458-0.944,0.458
		c-0.431,0-0.778-0.17-1.039-0.511C90.601,12.001,90.469,11.528,90.469,10.921z M91.45,10.992c0,0.345,0.059,0.61,0.179,0.794
		c0.119,0.184,0.295,0.276,0.523,0.276c0.304,0,0.516-0.128,0.641-0.385v-1.456c-0.122-0.257-0.333-0.385-0.635-0.385
		C91.687,9.836,91.45,10.221,91.45,10.992z"/>
	<path class="st1" d="M96.053,12.852c-0.538,0-0.977-0.164-1.314-0.495c-0.339-0.33-0.508-0.771-0.508-1.32v-0.095
		c0-0.368,0.072-0.698,0.214-0.989c0.143-0.291,0.344-0.514,0.606-0.671c0.261-0.158,0.56-0.236,0.895-0.236
		c0.502,0,0.898,0.159,1.185,0.475c0.288,0.317,0.433,0.765,0.433,1.347v0.4h-2.338c0.032,0.24,0.128,0.432,0.287,0.577
		c0.16,0.145,0.362,0.217,0.606,0.217c0.377,0,0.672-0.137,0.886-0.411l0.481,0.539c-0.147,0.208-0.345,0.371-0.596,0.487
		C96.638,12.794,96.359,12.852,96.053,12.852z M95.942,9.836c-0.195,0-0.353,0.066-0.474,0.198c-0.121,0.133-0.198,0.32-0.232,0.566
		h1.365v-0.079c-0.004-0.218-0.064-0.387-0.176-0.506S96.15,9.836,95.942,9.836z"/>
</g>
</svg>
