<?xml version="1.0" encoding="utf-8"?>
<!-- Generator: Adobe Illustrator 21.1.0, SVG Export Plug-In . SVG Version: 6.00 Build 0)  -->
<svg version="1.1" id="Layer_1" xmlns="http://www.w3.org/2000/svg" xmlns:xlink="http://www.w3.org/1999/xlink" x="0px" y="0px"
	 viewBox="0 0 70 20" style="enable-background:new 0 0 70 20;" xml:space="preserve">
<style type="text/css">
	.st0{fill:#3C4852;}
</style>
<g>
	<path class="st0" d="M6.452,11.159c0.338,0.255,0.694,0.499,1.066,0.732c0.373,0.233,0.768,0.408,1.186,0.525
		c0.418,0.117,0.865,0.151,1.343,0.103c0.477-0.048,0.994-0.231,1.551-0.549c-0.626,0.679-1.221,1.125-1.782,1.338
		c-0.562,0.212-1.099,0.284-1.611,0.215c-0.512-0.069-0.997-0.236-1.454-0.501c-0.458-0.266-0.895-0.541-1.313-0.828
		c-0.338,0.287-0.686,0.528-1.044,0.724c-0.358,0.196-0.726,0.321-1.104,0.374c-0.607,0.096-1.109,0.072-1.507-0.072
		c-0.398-0.143-0.699-0.345-0.903-0.605c-0.204-0.26-0.313-0.555-0.328-0.884c-0.015-0.329,0.062-0.642,0.231-0.939
		c0.169-0.297,0.43-0.549,0.783-0.756C1.92,9.83,2.36,9.716,2.887,9.695c0.527-0.01,1.004,0.064,1.432,0.223
		c0.427,0.159,0.83,0.361,1.208,0.605l0.03-0.032c-0.268-0.17-0.525-0.324-0.768-0.462C4.545,9.891,4.324,9.796,4.125,9.742
		C4.284,9.721,4.498,9.78,4.767,9.918c0.268,0.138,0.547,0.297,0.835,0.478C5.9,9.928,6.204,9.39,6.512,8.779
		c0.308-0.61,0.612-1.242,0.91-1.895c0.298-0.653,0.579-1.303,0.843-1.95c0.263-0.648,0.497-1.239,0.701-1.775
		c0.204-0.536,0.37-1,0.5-1.393C9.595,1.373,9.675,1.108,9.704,0.97c0.02,0.064,0.027,0.154,0.022,0.271s-0.015,0.236-0.03,0.358
		C9.682,1.721,9.662,1.84,9.637,1.957C9.612,2.074,9.585,2.169,9.555,2.244c0.109-0.287,0.196-0.565,0.261-0.836
		c0.064-0.271,0.102-0.454,0.112-0.549c0.06,0.011,0.147,0.069,0.261,0.175c0.114,0.106,0.224,0.247,0.328,0.422
		c0.104,0.175,0.181,0.377,0.231,0.605c0.05,0.228,0.04,0.47-0.03,0.724c-0.04,0.127-0.114,0.356-0.224,0.685
		c-0.11,0.329-0.256,0.724-0.44,1.186C9.871,5.117,9.657,5.622,9.413,6.168C9.17,6.715,8.899,7.272,8.601,7.84
		C8.302,8.408,7.981,8.968,7.638,9.52c-0.343,0.552-0.704,1.056-1.081,1.512c0.069,0.053,0.134,0.098,0.194,0.135
		c0.06,0.037,0.114,0.077,0.164,0.12c0.189,0.127,0.418,0.263,0.686,0.406c0.269,0.143,0.537,0.276,0.806,0.398
		c0.268,0.122,0.522,0.217,0.761,0.287c0.239,0.069,0.422,0.093,0.552,0.072c-0.139,0.042-0.318,0.045-0.537,0.008
		c-0.219-0.037-0.458-0.103-0.716-0.199c-0.259-0.096-0.527-0.218-0.805-0.366c-0.279-0.149-0.542-0.313-0.791-0.494
		c-0.07-0.042-0.134-0.085-0.194-0.127c-0.06-0.042-0.125-0.09-0.194-0.143L6.452,11.159z M3.543,10.14
		c-0.179-0.085-0.375-0.138-0.589-0.159C2.74,9.96,2.529,9.971,2.32,10.013c-0.209,0.043-0.398,0.112-0.567,0.207
		c-0.169,0.096-0.298,0.212-0.388,0.35c0.049-0.053,0.144-0.119,0.283-0.199c0.139-0.08,0.306-0.149,0.5-0.207
		c0.194-0.058,0.41-0.096,0.649-0.111C3.036,10.037,3.285,10.066,3.543,10.14z M3.111,12.735c0.258-0.032,0.52-0.138,0.783-0.318
		c0.263-0.181,0.524-0.425,0.783-0.732c-0.378-0.233-0.763-0.417-1.156-0.549c-0.393-0.133-0.803-0.14-1.231-0.024
		c-0.318,0.085-0.547,0.231-0.686,0.438C1.465,11.756,1.43,11.961,1.5,12.162c-0.01-0.096-0.003-0.181,0.022-0.255
		c0.025-0.074,0.047-0.127,0.067-0.159c-0.04,0.276,0.022,0.496,0.186,0.661s0.361,0.273,0.589,0.326
		C2.574,12.767,2.822,12.767,3.111,12.735z M2.141,10.475c0.06-0.021,0.196-0.05,0.41-0.087c0.214-0.037,0.45-0.024,0.708,0.04
		c-0.03-0.032-0.085-0.061-0.164-0.088c-0.08-0.026-0.171-0.045-0.276-0.056c-0.104-0.01-0.219-0.003-0.343,0.024
		C2.352,10.334,2.24,10.39,2.141,10.475z M3.051,10.841c-0.08-0.032-0.202-0.048-0.366-0.048c-0.164,0-0.286,0.043-0.365,0.127
		c0.08-0.021,0.184-0.045,0.313-0.072C2.763,10.822,2.902,10.82,3.051,10.841z M9.421,2.721C9.371,2.88,9.289,3.122,9.175,3.446
		C9.06,3.769,8.921,4.136,8.757,4.544C8.593,4.953,8.412,5.388,8.213,5.85C8.013,6.311,7.81,6.755,7.601,7.179
		c0.07-0.127,0.162-0.302,0.276-0.525c0.114-0.223,0.236-0.475,0.366-0.756C8.372,5.616,8.501,5.322,8.63,5.014
		c0.129-0.308,0.248-0.607,0.358-0.9c0.109-0.292,0.204-0.56,0.283-0.804C9.351,3.066,9.401,2.87,9.421,2.721z"/>
	<path class="st0" d="M10.569,10.077c-0.06,0.127-0.045,0.398-0.045,0.525c0,0.159,0.045,0.764,0.254,0.764
		c0.313,0,0.552-0.223,0.656-0.509l0.015-0.016v0.048c0,0.143-0.119,0.255-0.164,0.382c0.164-0.08,0.194-0.239,0.283-0.382
		c0.015,0.032,0.03,0.064,0.03,0.08c0,0.111-0.089,0.175-0.104,0.271l0.104,0.016l-0.015,0.048l0.03,0.016v-0.016h0.045
		l-0.015-0.032h0.015l0.015-0.064h0.015l0.03-0.064v0.064c0.045-0.048,0.06-0.096,0.06-0.159l0.06-0.08
		c-0.03,0.461-0.433,0.764-0.85,0.764c-0.91,0-1.447-0.668-1.447-1.608c0-0.764,0.298-1.528,0.716-2.149
		c0.328-0.494,0.791-0.764,1.357-0.764c0.134,0,0.268,0.032,0.403,0.064l-0.298-0.589l0.119-0.032
		c0.597,0.207,0.999,0.732,0.999,1.433C12.836,9.249,11.554,10.077,10.569,10.077z M10.092,8.835c-0.015,0-0.015,0-0.015,0.016
		h0.015V8.835z M10.166,8.597l-0.045,0.08l0.03,0.016L10.166,8.597z M10.182,8.565l-0.015,0.016h0.015V8.565z M10.42,8.135
		l0.045-0.016C10.45,8.119,10.435,8.119,10.42,8.135l-0.074,0.127l-0.03,0.048v0.016c-0.03,0.048-0.075,0.096-0.104,0.159
		c0.074-0.032,0.089-0.096,0.104-0.159l0.03-0.064l0.06-0.048C10.405,8.183,10.42,8.167,10.42,8.135z M10.375,9.329
		c-0.015,0.016-0.015,0.048-0.015,0.08h0.015V9.329z M10.927,8.23c-0.209,0.223-0.492,0.669-0.492,1.003
		C10.54,8.883,10.793,8.581,10.927,8.23z M10.435,8.644V8.66c0-0.016,0-0.016,0-0.032V8.644z M10.495,8.501
		c0.015-0.016,0.015-0.032,0.015-0.064C10.495,8.469,10.495,8.485,10.495,8.501z M10.554,8.405h0.015
		c0.015-0.016,0.03-0.048,0.03-0.064C10.584,8.358,10.569,8.405,10.554,8.405z M10.718,9.44c0.537-0.064,1.327-1.003,1.327-1.576
		V7.801C11.375,7.96,10.838,8.74,10.718,9.44z M10.942,8.215l0.06-0.032V8.167l-0.015,0.016C10.957,8.183,10.957,8.199,10.942,8.215
		z M11.956,8.676c-0.015,0.016-0.015,0.048-0.015,0.064l-0.045,0.032l0.045-0.016V8.74L11.956,8.676z M12.061,8.501l-0.03,0.064
		v0.016C12.046,8.549,12.061,8.533,12.061,8.501z M12.105,8.405c0.015,0,0.03-0.016,0.03-0.032h-0.03V8.405z M12.165,9.042
		c0.015-0.016,0.03-0.016,0.03-0.032L12.165,9.042z M12.195,8.676h0.015l0.015-0.048L12.195,8.676z M12.255,8.995
		c-0.015,0-0.03,0-0.045,0.016C12.225,9.01,12.24,9.01,12.255,8.995z M12.255,8.979c0.149-0.159,0.239-0.366,0.298-0.573
		C12.493,8.517,12.255,8.883,12.255,8.979z"/>
	<path class="st0" d="M17.326,9.934c-0.328,0.828-1.059,2.244-1.715,2.802c-0.328-0.127-0.567-0.159-0.567-0.605
		c0-0.86,0.179-1.703,0.343-2.547l-0.507,0.557c-0.313,0.35-0.746,1.019-1.268,1.019c-0.373,0-0.925-0.366-0.925-0.812
		c0-0.939,0.94-2.642,1.656-3.184c0.298-0.223,0.671-0.446,1.044-0.446c0.373,0,0.686,0.223,0.955,0.493
		c0.03,0.032,0.06,0.08,0.06,0.127c0,0.032-0.015,0.064-0.03,0.096l-0.432-0.127c-1.074,0.398-1.611,1.687-2.043,2.722l0.03,0.032
		l0.239-0.191l1.432-1.369c0.268-0.255,0.313-0.589,0.656-0.732l0.015,0.159l-0.045,0.016c-0.03,0.064,0,0.048-0.06,0.111
		l0.045-0.016l0.015-0.08l0.045-0.032c0.015-0.032,0.045-0.064,0.089-0.064c0.03,0,0.06,0.032,0.074,0.048l-0.015,0.111l0.06-0.032
		V7.976l0.075,0.032c-0.12,0.398-0.254,0.78-0.388,1.162l-0.015,0.016c0.015,0,0.015,0,0.015-0.016
		c0.015-0.016,0.045-0.032,0.045-0.064c0.149-0.35,0.269-0.716,0.433-1.051c0.074,0.016,0.134,0.064,0.134,0.143
		c0,0.111-0.045,0.223-0.075,0.318c-0.194,0.573-0.85,2.547-0.85,3.056c0.194-0.127,0.343-0.35,0.492-0.525h0.03
		c-0.194,0.302-0.462,0.557-0.597,0.891H15.76v0.016c0.015,0,0.015,0,0.015-0.016c0.269-0.286,0.507-0.637,0.746-0.955
		c0.06-0.08,0.119-0.207,0.194-0.286l0.075-0.08c-0.313,0.573-0.805,1.099-1.074,1.687l0.477-0.589l-0.134,0.271l0.104-0.08
		l0.015,0.064c0.015-0.08,0.09-0.175,0.134-0.255h0.015v-0.016l-0.015,0.016h-0.03c0.045-0.127,0.06-0.207,0.164-0.287v0.064
		l0.03-0.064l0.045-0.032l0.03-0.064c0.03-0.127,0.149-0.223,0.194-0.35c0.03-0.08,0.09-0.159,0.134-0.239h-0.015l0.03-0.064h-0.015
		l0.089-0.175l0.015,0.064c0.015-0.08,0.06-0.143,0.089-0.207h-0.015l0.045-0.032c0.03-0.048,0.045-0.096,0.06-0.143v0.016
		C17.207,10.109,17.267,10.029,17.326,9.934z M13.18,9.424c0,0.016-0.015,0.032-0.015,0.048h0.015V9.424z M13.269,9.233
		c0.194-0.35,0.373-0.732,0.582-1.067c0.045-0.064,0.179-0.239,0.179-0.318L14,7.912c-0.209,0.223-0.671,1.082-0.776,1.385
		c-0.015,0.016-0.03,0.048-0.03,0.08l0.03-0.08C13.24,9.281,13.269,9.265,13.269,9.233z M13.419,9.552l0.045-0.111
		c-0.03,0.016-0.03,0.08-0.06,0.111H13.419z M13.448,10.3c-0.015,0.016-0.015,0.048-0.015,0.064h0.015V10.3z M14.686,7.88
		c-0.388,0.255-0.955,1.385-1.104,1.846c-0.06,0.175-0.089,0.366-0.134,0.541c0.03-0.032,0.045-0.064,0.06-0.111
		C13.791,9.361,14.179,8.533,14.686,7.88z M13.508,9.297c0.149-0.302,0.328-0.573,0.492-0.86V8.405
		C13.806,8.692,13.642,8.963,13.508,9.297z M14.075,7.801l0.045-0.032h-0.015L14.075,7.801z M14.149,8.183h0.03V8.167
		C14.164,8.183,14.164,8.183,14.149,8.183z M14.224,8.071h0.015V8.055C14.224,8.055,14.224,8.055,14.224,8.071z M15.716,10.905
		h0.015v-0.032h-0.015V10.905z M15.775,12.401c-0.015,0-0.03,0.016-0.03,0.032L15.775,12.401z M15.775,10.586l0.015,0.032V10.57
		L15.775,10.586z M15.894,12.242l-0.104,0.143C15.835,12.337,15.894,12.322,15.894,12.242z M15.85,10.316h0.015v-0.08
		C15.85,10.268,15.85,10.284,15.85,10.316z M15.865,10.172l0.03-0.064H15.88L15.865,10.172z M15.894,10.093
		c0.075-0.096,0.089-0.207,0.104-0.318C15.954,9.886,15.924,9.982,15.894,10.093z M15.924,12.29c-0.015,0-0.015,0.016-0.03,0.016
		C15.909,12.306,15.924,12.306,15.924,12.29z M15.984,12.178c0-0.032,0.015-0.064,0.015-0.095l-0.089,0.143L15.984,12.178z
		 M15.984,8.39l0.12-0.239C16.058,8.199,15.999,8.31,15.984,8.39z M16.014,12.146l-0.015,0.016
		C16.014,12.162,16.014,12.162,16.014,12.146z M16.029,9.647c-0.015,0.016-0.015,0.032-0.015,0.048L16.029,9.647z M16.074,12.13
		c-0.015,0-0.015,0.016-0.03,0.016h0.03V12.13z M16.074,9.488c-0.015,0.016-0.015,0.048-0.015,0.08l0.015-0.032V9.488z
		 M16.178,11.987h-0.015l-0.045,0.032h0.015L16.178,11.987z M16.223,8.358c0,0,0.015,0.032,0.015,0.048l0.06-0.127
		C16.252,8.294,16.223,8.31,16.223,8.358z M16.297,8.262c0.015-0.032,0.015-0.048,0.015-0.08C16.297,8.215,16.297,8.23,16.297,8.262
		z M16.446,11.51c-0.015,0.016-0.015,0.048-0.015,0.063C16.446,11.557,16.446,11.526,16.446,11.51z"/>
	<path class="st0" d="M16.999,11.016c-0.179,0.255-0.373,0.509-0.641,0.669l-0.522-0.191l0.03-0.048
		c0.254-0.271,0.447-0.557,0.641-0.876c0.746-1.274,1.238-2.626,1.491-4.107c-0.567-0.414-1.357-0.876-1.357-1.719
		c0-0.43,0.358-0.955,0.79-0.955c0.134,0,0.254,0.032,0.373,0.096c0.492,0.223,0.791,0.716,0.85,1.274
		c0.03,0.35,0.074,0.7,0.089,1.051c0.507,0.318,1.059,0.637,1.491,1.066c0.239,0.239,0.358,0.509,0.358,0.86
		c0,0.478-0.283,1.274-0.433,1.751c-0.268,0.844-0.746,2.165-0.746,3.04c0,0.207,0.03,0.43,0.104,0.621l0.417,0.111l-0.015,0.127
		l0.015,0.016l0.075-0.096h0.119c0.03,0.064,0.045,0.127,0.045,0.191c0,0.302-0.447,0.398-0.671,0.398
		c-0.97,0-1.357-1.114-1.357-1.99c0-1.066,0.626-2.802,0.984-3.82c0.089-0.239,0.254-0.748,0.254-0.987
		c0-0.382-0.418-0.541-0.686-0.668C18.52,8.39,17.849,9.759,16.999,11.016z M16.924,4.41l0.03,0.032
		c0.015-0.063,0.03-0.127,0.06-0.175L16.924,4.41z M17.014,10.618l-0.015,0.016h0.015V10.618z M17.118,9.79
		c0.075-0.048,0.104-0.159,0.119-0.255L17.118,9.79z M17.401,4.426c-0.045,0.048-0.089,0.111-0.089,0.191
		c0,0.032,0,0.048,0.015,0.08C17.357,4.617,17.372,4.521,17.401,4.426z M18.013,5.62c0-0.302-0.075-0.987-0.239-1.21
		c-0.149,0.143-0.239,0.334-0.239,0.541c0,0.334,0.194,0.716,0.462,0.875C17.998,5.763,18.013,5.683,18.013,5.62z M18.356,7.387
		c-0.224,0.78-0.477,1.528-0.79,2.276c0.313-0.366,0.776-1.846,0.835-2.356C18.371,7.323,18.371,7.355,18.356,7.387z M17.655,8.549
		c0.075-0.159,0.134-0.302,0.164-0.461l-0.03,0.016L17.655,8.549z M17.864,7.848c-0.045,0.064-0.06,0.143-0.045,0.207L17.864,7.848z
		 M17.894,7.769c0.015-0.016,0.015-0.032,0.015-0.048L17.894,7.769z M17.924,7.642c0,0.016,0,0.048-0.015,0.064
		c0.015-0.016,0.03-0.048,0.03-0.064H17.924z M17.968,7.45l0.045-0.064h-0.015L17.968,7.45z M18.043,7.259l-0.015-0.032v0.048
		L18.043,7.259z M18.431,7.132h-0.015v0.064h0.015V7.132z M18.46,6.957h-0.015v0.048h0.015V6.957z M19.326,8.883l-0.716,2.324
		l-0.164,0.637c0.134-0.286,0.224-0.621,0.313-0.939c0.254-0.844,0.537-1.671,0.761-2.531C19.415,8.501,19.37,8.724,19.326,8.883z
		 M18.789,12.146c0-0.032-0.015-0.048-0.015-0.08c-0.015,0.032-0.015,0.048-0.015,0.08H18.789z M19.743,8.644l-0.731,2.292
		c-0.104,0.35-0.149,0.732-0.224,1.082l0.03-0.032c0.134-0.478,0.239-0.971,0.388-1.449c0.194-0.637,0.477-1.273,0.582-1.942
		L19.743,8.644z M19.132,12.114c0.149-0.796,0.418-1.576,0.671-2.356c0.149-0.478,0.343-0.971,0.388-1.481h-0.03
		c-0.358,1.067-0.686,2.165-0.999,3.247c-0.089,0.318-0.149,0.637-0.149,0.971c0,0.095,0,0.191,0.015,0.286
		C19.072,12.56,19.087,12.337,19.132,12.114z M19.102,11.366V11.35l-0.015,0.016H19.102z M19.251,10.793l0.015-0.016h-0.015V10.793z
		 M19.281,10.666l0.015,0.016v-0.016H19.281z M19.296,12.194h-0.015c0,0.016,0,0.016,0.015,0.032V12.194z M19.311,10.57l0.015,0.016
		V10.57H19.311z M19.326,12.035h-0.015v0.032h0.015V12.035z M19.415,11.685h0.015v-0.048h-0.015V11.685z M19.46,11.494h-0.015v0.048
		h0.015V11.494z M19.52,9.934L19.504,9.95h0.015V9.934z M19.52,11.287c-0.015,0-0.015,0.016-0.015,0.032h0.015V11.287z
		 M19.534,8.278v0.064c0.015-0.016,0.015-0.048,0.015-0.064H19.534z M19.549,11.175l-0.015,0.016h0.015V11.175z M19.564,11.064
		l0.03,0.016c0-0.016,0-0.032-0.015-0.048L19.564,11.064z M19.624,10.921h-0.015v0.048h0.015V10.921z M19.713,10.618h-0.015
		c0,0.016,0,0.016,0.015,0.016V10.618z M19.743,9.249l-0.015,0.016h0.015V9.249z M19.743,10.523c-0.015,0-0.015,0-0.015,0.016
		L19.743,10.523z M19.818,8.517h-0.03v0.048L19.818,8.517z M19.803,10.332l0.015-0.016h-0.015V10.332z M19.833,10.236
		c0.015,0,0.015-0.016,0.015-0.032h-0.015V10.236z M19.862,10.125h0.015v-0.032h-0.015V10.125z M20.041,9.615h-0.015v0.032h0.015
		V9.615z M20.056,9.536h0.015V9.52h-0.015V9.536z M20.086,9.408l0.015,0.016V9.408H20.086z M20.295,8.787V8.772L20.28,8.787H20.295z
		"/>
	<path class="st0" d="M20.862,11.366c0-0.86,0.522-2.754,0.761-3.629c0.119-0.398,0.254-0.876,0.254-1.305
		c0-0.08-0.03-0.159-0.045-0.239c0.03-0.08,0.089-0.08,0.149-0.08c0.03,0,0.179,0.08,0.209,0.096
		c0.358,0.191,0.612,0.605,0.612,1.05c0,0.923-0.582,2.881-0.88,3.805l0.03,0.016c0.835-1.226,1.626-2.467,2.551-3.613
		c0.358-0.446,0.716-0.892,1.089-1.321c0.12-0.127,0.224-0.255,0.388-0.302c0.283,0.048,0.835,0.366,0.835,0.732
		c0,0.207-0.239,0.86-0.313,1.082c-0.403,1.114-1.477,4.346-1.477,5.412c0,0.159,0.045,0.302,0.179,0.382
		c0,0.096-0.06,0.159-0.149,0.159c-0.85,0-1.014-0.764-1.014-1.512c0-1.003,0.463-2.372,0.746-3.343
		c0.134-0.478,0.328-0.923,0.492-1.385c-0.045,0.032-0.089,0.048-0.134,0.096c-0.656,0.716-1.208,1.592-1.7,2.435
		c-0.313,0.541-1.074,1.91-1.462,2.276c-0.089,0.08-0.134,0.096-0.239,0.096C21.31,12.274,20.862,11.844,20.862,11.366z
		 M22.235,11.478c-0.015,0.016-0.03,0.032-0.03,0.064L22.235,11.478z M22.473,10.57c0.09-0.111,0.149-0.223,0.224-0.334
		C22.607,10.332,22.533,10.459,22.473,10.57z M22.637,10.905c0.015-0.048,0.045-0.08,0.06-0.111
		c-0.045,0.048-0.104,0.127-0.119,0.191L22.637,10.905z M22.652,10.698c0.015,0,0.015,0,0.015-0.016L22.652,10.698z M22.831,10.045
		c0.03-0.096,0.089-0.127,0.149-0.207c0.12-0.143,0.194-0.318,0.298-0.478c0.671-1.066,1.536-1.974,2.297-2.977L25.62,6.32
		l-0.03-0.032c-0.761,0.86-1.491,1.751-2.133,2.722c-0.239,0.366-0.507,0.716-0.686,1.114L22.831,10.045z M22.801,10.491v-0.016
		l-0.015,0.016H22.801z M23.085,10.172c-0.104,0.127-0.194,0.255-0.254,0.398C22.921,10.443,23.01,10.316,23.085,10.172z
		 M23.055,9.997H23.01c0,0.016-0.015,0.048-0.03,0.064h0.075l0.015-0.048L23.055,9.997z M23.085,10.157
		c0.075-0.096,0.149-0.207,0.194-0.334C23.219,9.934,23.13,10.029,23.085,10.157z M23.115,9.854v0.048c0,0.016,0,0.032,0.015,0.048
		c0.015-0.016,0.015-0.048,0.015-0.064h0.06c-0.015-0.016-0.045-0.016-0.06-0.016L23.115,9.854z M23.115,10.268V10.3l0.015-0.016
		L23.115,10.268z M23.174,9.759V9.79c0,0,0.03,0.08,0.03,0.096V9.79c0.015,0,0.03,0,0.045-0.016c-0.015,0-0.045-0.016-0.045-0.016
		H23.174z M23.249,9.647v0.048c0,0.016,0,0.048,0.015,0.064c0-0.048,0.015-0.08,0.06-0.08c-0.015-0.016-0.03-0.016-0.045-0.016
		L23.249,9.647z M23.308,9.552v0.032c0.015,0.032,0.015,0.064,0.015,0.096c0.015-0.032,0.015-0.064,0.015-0.096l0.03-0.016
		c-0.015,0-0.045-0.016-0.045-0.016H23.308z M23.383,9.695l0.015-0.064l-0.045,0.096L23.383,9.695z M24.084,8.692l0.06-0.096h0.03
		l0.075-0.08c0.015-0.048,0.149-0.239,0.194-0.27c0.03-0.096,0.388-0.557,0.477-0.605l-0.03-0.016V7.562
		c-0.164,0.191-0.298,0.398-0.492,0.541c0.075-0.191,0.805-1.035,0.969-1.258c-0.746,0.796-1.402,1.671-1.999,2.595v0.048
		l0.015,0.064c0.134-0.223,0.239-0.366,0.403-0.573c-0.015,0.064-0.03,0.111-0.06,0.159l0.104-0.064h0.03
		c0.06-0.08,0.119-0.159,0.149-0.255l0.045-0.032c0.015-0.032,0.03-0.063,0.06-0.08L24.084,8.692z M23.502,9.488
		c0.03-0.032,0.06-0.048,0.089-0.064V9.408c0.015-0.016,0.03-0.08,0.03-0.112L23.502,9.488z M23.607,9.424v0.032
		c0.015-0.016,0.015-0.032,0.015-0.048L23.607,9.424z M24.8,12.035h0.015v-0.048H24.8V12.035z M24.815,11.876l0.045,0.016
		c0.03-0.143,0.045-0.271,0.06-0.414L24.815,11.876z M26.485,6.591c-0.626,1.337-1.223,3.391-1.566,4.855
		c0.03-0.032,0.045-0.064,0.06-0.096c0.254-0.716,0.403-1.481,0.641-2.197c0.284-0.86,0.627-1.687,0.91-2.547L26.485,6.591z
		 M25.218,7.275c0.03-0.08,0.119-0.111,0.119-0.207l0.164-0.239l-0.582,0.684c0.045-0.032,0.075-0.064,0.134-0.064
		C25.113,7.387,25.143,7.323,25.218,7.275z M25.292,8.183l0.015-0.016h-0.015V8.183z M25.397,7.88c0,0.016-0.015,0.016-0.015,0.032
		h0.015V7.88z M25.456,7.673l-0.045,0.111l0.045,0.016V7.673z M25.501,7.642c0.134-0.319,0.298-0.637,0.447-0.955v-0.08
		c-0.194,0.334-0.343,0.701-0.492,1.067L25.501,7.642z M25.904,7.419c0.074-0.175,0.164-0.35,0.224-0.525
		C26.023,7.052,25.963,7.228,25.904,7.419z M26.232,6.639l-0.015-0.016v0.064L26.232,6.639z"/>
	<path class="st0" d="M30.037,9.982c-0.119,0.048-0.656,0.255-0.746,0.255c-0.045,0-0.09-0.032-0.119-0.064l0.015-0.08l-0.149-0.032
		l0.224-0.271l-0.358,0.143V9.902l0.074-0.111l-0.119-0.016l0.045-0.096c-0.104-0.016-0.135-0.143-0.149-0.223l0.045-0.096
		c-0.045-0.048-0.06-0.095-0.06-0.159c0-0.127,0.03-0.159,0.119-0.239c0.328-0.287,1.536-0.573,1.999-0.685
		c0.194-0.493,0.462-0.955,0.671-1.448c0.194-0.43,0.403-0.828,0.612-1.242l1.328-2.626c0.328-0.653,0.671-1.417,1.148-1.974
		c0.269-0.302,0.642-0.287,0.999-0.287l0.03,0.112c0.03-0.032,0.06-0.048,0.104-0.048l0.044,0.08c0.03-0.032,0.06-0.064,0.075-0.112
		l0.03,0.048l-0.074,0.637c-0.03,0.271-0.134,0.541-0.194,0.812c-0.135,0.573-0.254,1.162-0.373,1.735
		c-0.313,1.449-0.522,2.913-0.716,4.394c-0.134,1.019-0.194,2.038-0.283,3.056c-0.015,0.127-0.015,0.239-0.015,0.366
		c0,0.239,0.03,0.891,0.089,1.082c0-4.027,0.851-7.959,1.671-11.875c0.015-0.064,0.015-0.127,0.074-0.175l0.09,0.175l0.045-0.096
		c0.074,0.016,0.134,0.08,0.134,0.159c0,0.637-0.239,1.273-0.373,1.894c-0.149,0.637-0.254,1.289-0.373,1.942
		c-0.283,1.592-0.597,3.184-0.731,4.791c-0.06,0.748-0.164,1.48-0.164,2.228c0,0.701,0.09,1.385,0.164,2.085l-0.045,0.111
		l-0.089-0.111l-0.045,0.048c-0.045,0-0.075-0.032-0.104-0.048l-0.074,0.064h-0.06c-0.239,0-0.344-0.032-0.522-0.207
		c-0.582-0.525-0.612-1.433-0.612-2.181c0-0.286,0.03-0.573,0.045-0.86c0.03-0.478,0-0.971,0.104-1.449
		c-0.149-0.016-0.313-0.032-0.462-0.032c-0.373,0-0.746,0.064-1.119,0.127c-0.135,0.223-0.224,0.478-0.328,0.716
		c-0.209,0.462-0.417,0.939-0.656,1.385c-0.149,0.286-0.149,0.255-0.432,0.334l-0.015-0.191c-0.06,0.08-0.089,0.175-0.119,0.271
		L30.29,11.86l-0.104,0.048c0-0.095,0-0.191,0.03-0.271h-0.03l-0.104,0.271l-0.045-0.08l-0.134,0.032l-0.015-0.239l-0.089,0.143
		c-0.06-0.032-0.194-0.127-0.194-0.207c0-0.478,0.283-1.146,0.462-1.576V9.95L30.037,9.982z M29.887,8.899
		c-0.269,0.08-0.552,0.143-0.805,0.286C29.231,9.186,29.753,8.979,29.887,8.899z M29.276,9.488c0.09-0.032,0.179-0.08,0.269-0.127
		c0.045,0,0.09-0.032,0.104-0.064c-0.134,0.032-0.269,0.08-0.403,0.143C29.276,9.456,29.276,9.456,29.276,9.488z M30.29,9.408
		c-0.194,0-0.82,0.255-0.999,0.366h0.104c0.149,0,0.776-0.239,0.925-0.334L30.29,9.408z M29.723,9.297V9.281
		c-0.015,0-0.015,0-0.03,0.016H29.723z M29.694,9.854V9.87l0.03-0.016H29.694z M29.887,11.494l0.015,0.032
		c0-0.032,0.015-0.064,0.03-0.08C29.903,11.462,29.903,11.462,29.887,11.494z M32.527,8.039c0.358,0,0.746,0.016,1.059,0.223
		c0.045-0.43,0.119-0.86,0.179-1.289c0.104-0.828,0.224-1.656,0.358-2.483C33.87,4.999,32.557,7.689,32.527,8.039z M33.81,9.408
		h-0.015c-0.104,0.748-0.135,1.496-0.135,2.244L33.81,9.408z M34.735,3.121c-0.03,0.191-0.09,0.366-0.12,0.557l-0.462,2.754
		c-0.119,0.684-0.283,1.417-0.283,2.117v0.048h0.06c0.224-1.831,0.507-3.661,0.865-5.476H34.735z M33.959,11.542
		c0,0.095,0,0.191,0.015,0.286c0.045-0.796,0.104-1.576,0.179-2.372C34.019,9.727,33.959,11.175,33.959,11.542z M34.183,9.186
		c0.164-0.923,0.253-1.863,0.388-2.802l0.164-1.13c0.074-0.509,0.194-1.019,0.268-1.528c0.06-0.414,0.149-0.812,0.254-1.21
		c-0.03,0.048-0.06,0.096-0.074,0.143c-0.12,0.334-0.135,0.701-0.194,1.051c-0.104,0.669-0.283,1.321-0.373,1.99l-0.432,2.993
		c-0.03,0.159-0.03,0.318-0.03,0.493H34.183z M34.302,9.52h-0.03v0.048h0.03V9.52z M34.302,9.329h0.03V9.217h-0.03V9.329z
		 M34.407,8.533h0.015c0-0.032,0-0.048-0.015-0.08V8.533z M34.422,8.31h0.015V8.199h-0.015V8.31z M34.541,11.239h-0.03v0.286h0.03
		V11.239z M34.541,7.387h0.03V7.323h-0.03V7.387z M34.541,10.777v0.111c0.03-0.032,0.03-0.064,0.03-0.111H34.541z M34.586,7.164
		h-0.015l0.015,0.016V7.164z M34.571,10.395v0.191h0.015v-0.191H34.571z M34.586,10.22h0.03v-0.175h-0.03V10.22z M34.66,9.615h0.03
		V9.456h-0.03V9.615z M34.69,9.329h0.03V9.217h-0.03V9.329z M34.735,8.947H34.72V9.09h0.015V8.947z M34.839,8.262h-0.015v0.08h0.015
		V8.262z M34.869,5.46V5.397c-0.015,0.016-0.03,0.048-0.03,0.063H34.869z M34.869,7.992h-0.03v0.096h0.03V7.992z M34.899,7.785
		h-0.03l0.03,0.048V7.785z M34.914,7.673h0.03l-0.03-0.048V7.673z M34.974,7.355h-0.03v0.112h0.03V7.355z M34.988,7.18h-0.015v0.064
		h0.015V7.18z M35.078,6.607h-0.03V6.67h0.03V6.607z M35.108,6.432h-0.03v0.08h0.03V6.432z M35.122,6.272l-0.015,0.032l0.015,0.016
		V6.272z M35.212,5.906h-0.03v0.048L35.212,5.906z M35.227,5.731h-0.015v0.048h0.015V5.731z M35.257,5.54h-0.03
		c0,0.032,0,0.048,0.03,0.08V5.54z M35.286,5.349h-0.03l0.03,0.048V5.349z M35.361,5.047V5.015c-0.015,0-0.03,0.016-0.03,0.032
		H35.361z M35.376,1.911l-0.015,0.032l0.015,0.016V1.911z M35.361,4.935h0.015v-0.08h-0.015V4.935z M35.481,4.378h-0.03V4.41h0.03
		V4.378z M35.54,4.123V4.092h-0.03L35.54,4.123z M35.6,3.678h0.015V3.614H35.6V3.678z M35.719,3.073l0.03-0.032h-0.03V3.073z
		 M35.749,2.945l0.015-0.032l-0.015-0.032V2.945z"/>
	<path class="st0" d="M35.556,11.366c0-0.86,0.522-2.754,0.761-3.629c0.119-0.398,0.253-0.876,0.253-1.305
		c0-0.08-0.03-0.159-0.045-0.239c0.03-0.08,0.09-0.08,0.149-0.08c0.03,0,0.179,0.08,0.209,0.096c0.358,0.191,0.612,0.605,0.612,1.05
		c0,0.923-0.582,2.881-0.88,3.805l0.03,0.016c0.835-1.226,1.626-2.467,2.551-3.613c0.358-0.446,0.716-0.892,1.089-1.321
		c0.119-0.127,0.224-0.255,0.388-0.302c0.283,0.048,0.835,0.366,0.835,0.732c0,0.207-0.239,0.86-0.313,1.082
		c-0.403,1.114-1.476,4.346-1.476,5.412c0,0.159,0.045,0.302,0.179,0.382c0,0.096-0.06,0.159-0.149,0.159
		c-0.851,0-1.014-0.764-1.014-1.512c0-1.003,0.462-2.372,0.746-3.343c0.134-0.478,0.328-0.923,0.492-1.385
		c-0.045,0.032-0.09,0.048-0.135,0.096c-0.656,0.716-1.208,1.592-1.7,2.435c-0.313,0.541-1.074,1.91-1.462,2.276
		c-0.09,0.08-0.134,0.096-0.239,0.096C36.004,12.274,35.556,11.844,35.556,11.366z M36.928,11.478
		c-0.015,0.016-0.03,0.032-0.03,0.064L36.928,11.478z M37.167,10.57c0.089-0.111,0.149-0.223,0.224-0.334
		C37.301,10.332,37.227,10.459,37.167,10.57z M37.331,10.905c0.015-0.048,0.044-0.08,0.06-0.111
		c-0.045,0.048-0.104,0.127-0.119,0.191L37.331,10.905z M37.346,10.698c0.015,0,0.015,0,0.015-0.016L37.346,10.698z M37.525,10.045
		c0.03-0.096,0.09-0.127,0.149-0.207c0.119-0.143,0.194-0.318,0.298-0.478c0.671-1.066,1.536-1.974,2.297-2.977l0.045-0.064
		l-0.03-0.032c-0.76,0.86-1.491,1.751-2.133,2.722c-0.239,0.366-0.507,0.716-0.686,1.114L37.525,10.045z M37.495,10.491v-0.016
		l-0.015,0.016H37.495z M37.779,10.172c-0.104,0.127-0.194,0.255-0.254,0.398C37.614,10.443,37.704,10.316,37.779,10.172z
		 M37.749,9.997h-0.045c0,0.016-0.015,0.048-0.03,0.064h0.074l0.015-0.048L37.749,9.997z M37.779,10.157
		c0.074-0.096,0.149-0.207,0.194-0.334C37.913,9.934,37.823,10.029,37.779,10.157z M37.808,9.854v0.048c0,0.016,0,0.032,0.015,0.048
		c0.015-0.016,0.015-0.048,0.015-0.064h0.06c-0.015-0.016-0.045-0.016-0.06-0.016L37.808,9.854z M37.808,10.268V10.3l0.015-0.016
		L37.808,10.268z M37.868,9.759V9.79c0,0,0.03,0.08,0.03,0.096V9.79c0.015,0,0.03,0,0.045-0.016c-0.015,0-0.045-0.016-0.045-0.016
		H37.868z M37.943,9.647v0.048c0,0.016,0,0.048,0.015,0.064c0-0.048,0.015-0.08,0.06-0.08c-0.015-0.016-0.03-0.016-0.045-0.016
		L37.943,9.647z M38.002,9.552v0.032c0.015,0.032,0.015,0.064,0.015,0.096c0.015-0.032,0.015-0.064,0.015-0.096l0.03-0.016
		c-0.015,0-0.045-0.016-0.045-0.016H38.002z M38.077,9.695l0.015-0.064l-0.045,0.096L38.077,9.695z M38.778,8.692l0.06-0.096h0.03
		l0.074-0.08c0.015-0.048,0.149-0.239,0.194-0.27c0.03-0.096,0.388-0.557,0.477-0.605l-0.03-0.016V7.562
		c-0.164,0.191-0.299,0.398-0.492,0.541c0.074-0.191,0.805-1.035,0.969-1.258c-0.746,0.796-1.402,1.671-1.998,2.595v0.048
		l0.015,0.064c0.134-0.223,0.239-0.366,0.403-0.573c-0.015,0.064-0.03,0.111-0.06,0.159l0.104-0.064h0.03
		c0.06-0.08,0.12-0.159,0.149-0.255l0.045-0.032c0.015-0.032,0.03-0.063,0.06-0.08L38.778,8.692z M38.196,9.488
		c0.03-0.032,0.06-0.048,0.09-0.064V9.408c0.015-0.016,0.03-0.08,0.03-0.112L38.196,9.488z M38.3,9.424v0.032
		c0.015-0.016,0.015-0.032,0.015-0.048L38.3,9.424z M39.494,12.035h0.015v-0.048h-0.015V12.035z M39.508,11.876l0.045,0.016
		c0.03-0.143,0.045-0.271,0.06-0.414L39.508,11.876z M41.179,6.591c-0.626,1.337-1.223,3.391-1.566,4.855
		c0.03-0.032,0.045-0.064,0.06-0.096c0.254-0.716,0.403-1.481,0.642-2.197c0.283-0.86,0.626-1.687,0.91-2.547L41.179,6.591z
		 M39.911,7.275c0.03-0.08,0.119-0.111,0.119-0.207l0.164-0.239l-0.582,0.684c0.045-0.032,0.075-0.064,0.135-0.064
		C39.807,7.387,39.837,7.323,39.911,7.275z M39.986,8.183l0.015-0.016h-0.015V8.183z M40.09,7.88c0,0.016-0.015,0.016-0.015,0.032
		h0.015V7.88z M40.15,7.673l-0.045,0.111l0.045,0.016V7.673z M40.195,7.642c0.134-0.319,0.298-0.637,0.447-0.955v-0.08
		c-0.194,0.334-0.344,0.701-0.492,1.067L40.195,7.642z M40.597,7.419c0.074-0.175,0.164-0.35,0.224-0.525
		C40.717,7.052,40.657,7.228,40.597,7.419z M40.926,6.639L40.91,6.623v0.064L40.926,6.639z"/>
	<path class="st0" d="M46.012,6.941L45.893,7.61c-0.045,0.207-0.09,0.414-0.119,0.621c-0.104,0.573-0.149,1.162-0.194,1.735
		c-0.06,0.701-0.104,1.385-0.179,2.085c-0.06,0.668-0.134,1.353-0.253,2.006c-0.269,1.48-0.895,3.39-1.984,4.425
		c-0.283,0.271-0.626,0.493-1.014,0.493c-0.313,0-0.641-0.143-0.895-0.318c-0.388-0.271-0.477-0.716-0.477-1.178
		c0-0.35,0.03-0.748,0.119-1.082c0.149-0.573,1.089-3.168,1.7-3.168c0.135,0,0.447,0.175,0.552,0.271
		c-0.433,0.287-0.626,0.748-0.821,1.226c-0.298,0.716-0.537,1.305-0.686,2.069c0,0.016-0.015,0.032-0.015,0.048
		c-0.045,0.207-0.074,0.398-0.074,0.605c0,0.35,0.134,0.589,0.208,0.907l0.328-0.286c0.418-0.382,0.79-1.178,0.999-1.703
		c0.686-1.719,0.88-3.534,1.178-5.349c0.06-0.334,0.09-0.669,0.09-1.003c-0.284,0.493-1.238,2.038-1.805,2.038
		c-0.104,0-0.134-0.032-0.224-0.08l-0.149-0.08c-0.478-0.255-0.821-0.446-0.821-1.146c0-0.653,0.283-1.464,0.462-2.101
		c0.149-0.525,0.373-1.114,0.373-1.671c0-0.191-0.045-0.398-0.045-0.589c0.686,0.143,0.969,0.971,0.969,1.64
		c0,0.923-0.283,1.783-0.477,2.674v0.175c0.94-1.067,1.596-2.261,2.162-3.566c0.12-0.287,0.299-0.605,0.492-0.844l0.179-0.175
		l0.03,0.255C45.46,6.559,45.46,6.575,45.46,6.607c0.015-0.048,0.03-0.048,0.045-0.064c0.045-0.016,0.104-0.032,0.134-0.08
		C45.758,6.623,45.893,6.766,46.012,6.941z M41.045,16.667c0-0.016,0-0.048-0.015-0.063v0.111
		C41.045,16.699,41.045,16.683,41.045,16.667z M41.075,16.428c0-0.016-0.015-0.016-0.015-0.048v0.096
		C41.06,16.46,41.075,16.444,41.075,16.428z M41.239,15.967c0,0.016-0.03,0.048-0.045,0.096c-0.03,0-0.03,0.032-0.03,0.064
		c0.03-0.016,0.03-0.032,0.03-0.064h0.015C41.224,16.031,41.239,15.999,41.239,15.967z M41.254,15.903c0-0.064,0-0.08-0.015-0.096
		C41.239,15.839,41.239,15.871,41.254,15.903z M41.329,15.648l-0.015,0.08C41.329,15.712,41.329,15.68,41.329,15.648z
		 M41.358,15.505l-0.015,0.127C41.358,15.585,41.358,15.537,41.358,15.505z M41.478,15.298c0.015-0.032,0.015-0.048,0.015-0.08
		c-0.015,0.032-0.045,0.096-0.075,0.143L41.478,15.298z M41.448,16.54c0-0.016-0.015-0.032-0.015-0.048v0.064
		C41.448,16.54,41.448,16.54,41.448,16.54z M41.493,15.187c0.044-0.096,0.119-0.175,0.179-0.271
		C41.508,14.948,41.493,15.028,41.493,15.187z M41.537,16.174c0-0.016-0.015-0.048-0.015-0.08c-0.015,0.032-0.03,0.08-0.03,0.127
		C41.522,16.221,41.537,16.206,41.537,16.174z M41.672,14.821c0-0.032,0.015-0.064,0.015-0.08c0.015-0.032,0.03-0.08,0.03-0.112
		c-0.015,0.032-0.03,0.064-0.03,0.112C41.672,14.757,41.672,14.789,41.672,14.821z M41.687,15.712
		c-0.015,0.016-0.015,0.048-0.015,0.064C41.687,15.76,41.687,15.728,41.687,15.712z M41.791,15.362l-0.03,0.08
		c0,0.048-0.015,0.112-0.06,0.207l0.045-0.048L41.791,15.362z M41.731,14.614c0.015,0,0.045,0,0.06-0.016
		C41.776,14.598,41.746,14.598,41.731,14.614z M41.776,14.518c0,0.016,0,0.048,0.015,0.064l0.089-0.175
		C41.821,14.407,41.776,14.439,41.776,14.518z M41.865,15.251c0,0-0.015,0-0.03,0.016L41.865,15.251z M41.955,14.184
		c0.03,0,0.045-0.016,0.074-0.016l0.03-0.111C42.015,14.104,42.015,14.136,41.955,14.184z M41.985,15.012
		c0-0.016-0.015-0.032-0.015-0.048v0.064C41.985,15.012,41.985,15.012,41.985,15.012z M42.134,13.897l0.015-0.048
		C42.134,13.866,42.134,13.881,42.134,13.897z M42.149,13.802c0,0,0.015,0,0.03-0.016c0-0.016,0.015-0.032,0.03-0.032
		c-0.015,0-0.045,0.016-0.06,0.032C42.149,13.802,42.149,13.802,42.149,13.802z M42.313,14.232c0.045,0,0.045-0.032,0.074-0.032
		c0-0.048,0.03-0.08,0.03-0.127l-0.045,0.111C42.358,14.2,42.328,14.2,42.313,14.232z M42.567,13.786c0.015,0,0.03,0.016,0.03,0.032
		c0-0.048,0.015-0.064,0.015-0.064C42.596,13.754,42.582,13.754,42.567,13.786z M43.148,10.634c-0.015,0.016-0.03,0.032-0.03,0.048
		L43.148,10.634z M43.342,11.112c-0.015,0.016-0.044,0.016-0.074,0.032C43.298,11.144,43.312,11.144,43.342,11.112z M43.342,16.556
		c-0.015,0.016-0.03,0.016-0.03,0.064l0.015-0.016C43.327,16.588,43.327,16.572,43.342,16.556z M43.61,10.666
		c-0.015,0.048-0.03,0.08-0.149,0.191c0,0-0.03,0.016-0.045,0.064c0-0.016,0.045-0.048,0.06-0.064c0.015,0,0.045,0,0.06-0.016
		l0.045-0.048C43.596,10.762,43.61,10.698,43.61,10.666z M43.536,10.061l0.015-0.064C43.536,10.013,43.536,10.045,43.536,10.061z
		 M43.641,15.808c-0.03,0.048-0.09,0.143-0.104,0.239C43.581,15.967,43.61,15.887,43.641,15.808z M43.789,9.663l0.06-0.032
		c-0.015,0-0.044,0-0.06,0.016l-0.03,0.111L43.7,9.79c-0.045,0.048-0.06,0.111-0.075,0.175c0.015-0.064,0.09-0.191,0.149-0.191
		C43.775,9.743,43.789,9.695,43.789,9.663z M43.819,15.091l-0.149,0.525c-0.015,0.016-0.03,0.048-0.03,0.08
		c0-0.032,0.015-0.048,0.03-0.064l0.045-0.016C43.76,15.441,43.789,15.266,43.819,15.091z M43.715,17.017
		C43.7,17.049,43.7,17.081,43.7,17.113C43.715,17.081,43.715,17.049,43.715,17.017z M43.745,10.459
		c-0.015,0.032-0.015,0.064-0.015,0.08C43.73,10.523,43.745,10.491,43.745,10.459z M43.864,10.379c-0.03,0-0.045,0.032-0.06,0.048
		C43.834,10.411,43.849,10.411,43.864,10.379z M44.684,14.264c-0.089,0.143-0.551,1.767-0.671,2.101
		c-0.06,0.143-0.104,0.302-0.179,0.446C44.192,16.604,44.61,14.614,44.684,14.264z M43.998,9.361l0.045-0.032
		c-0.015,0.016-0.045,0.016-0.074,0.032c0,0.032-0.015,0.08-0.015,0.112c-0.03,0-0.06,0.016-0.089,0.016
		c-0.015,0.032-0.015,0.064-0.015,0.096c0-0.016,0.015-0.048,0.015-0.08c0.03-0.016,0.074-0.016,0.089-0.032
		C43.969,9.44,43.969,9.392,43.998,9.361z M43.969,10.22l-0.075,0.032c-0.015,0.032-0.03,0.08-0.03,0.111
		c0-0.016,0.03-0.048,0.03-0.096C43.909,10.252,43.953,10.252,43.969,10.22z M43.909,14.821c0,0.016,0,0.032,0.015,0.048
		c0.015-0.032,0.015-0.064,0.015-0.096C43.909,14.805,43.909,14.805,43.909,14.821z M43.969,14.646c0,0.016,0,0.016,0.015,0.016
		v-0.063C43.984,14.614,43.969,14.646,43.969,14.646z M44.103,9.966c0,0.016-0.015,0.032-0.015,0.064c-0.06,0-0.06,0.016-0.06,0.032
		v0.016c0.015-0.032,0.044-0.032,0.06-0.048L44.103,9.966z M44.252,9.026c-0.06,0-0.075,0.032-0.09,0.048
		c-0.015,0.032-0.015,0.048-0.06,0.096c0.015,0,0.03,0,0.045,0c0-0.032,0.015-0.064,0.015-0.096
		C44.192,9.058,44.237,9.058,44.252,9.026z M44.103,15.282l0.045-0.064v-0.08C44.133,15.155,44.133,15.187,44.103,15.282z
		 M44.237,9.759c-0.044,0.032-0.044,0.064-0.06,0.096C44.237,9.822,44.237,9.79,44.237,9.759z M44.312,8.819
		c0.015-0.032,0.015-0.048,0.06-0.095l-0.09,0.08c0,0.032-0.015,0.08-0.015,0.111L44.312,8.819z M44.401,9.488l0.015-0.016
		l0.03-0.112c-0.015,0.032-0.03,0.064-0.03,0.112l-0.075,0.016v0.048C44.357,9.52,44.371,9.504,44.401,9.488z M44.401,8.676
		c0.015-0.048,0.015-0.08,0.045-0.127V8.485l-0.03,0.063C44.416,8.597,44.401,8.628,44.401,8.676z M44.505,8.39l0.09-0.064
		C44.55,8.342,44.52,8.374,44.505,8.39z M44.595,8.31c0.015-0.063,0.045-0.143,0.089-0.175c0-0.048,0.015-0.096,0.015-0.143
		C44.7,8.103,44.595,8.183,44.595,8.31z M44.744,14.072c-0.044,0-0.074,0.016-0.074,0.064c0,0.032,0.015,0.064,0.015,0.096
		C44.7,14.168,44.714,14.12,44.744,14.072z M44.744,14.057l-0.03-0.159C44.714,13.945,44.714,14.009,44.744,14.057z"/>
	<path class="st0" d="M52.233,6.893c0,1.289-0.716,5.396-2.297,5.396c-0.06,0-0.104,0-0.149-0.016
		c-0.701-0.175-0.776-0.605-0.776-1.289c0-0.557,0.06-1.098,0.06-1.656c-0.403,0.621-0.82,1.258-1.282,1.831
		c-0.179,0.239-0.403,0.382-0.701,0.382c-0.462,0-1.014-0.398-1.014-0.939c0-0.669,0.656-2.308,0.865-3.041
		c0.06-0.191,0.075-0.398,0.075-0.589c0-0.08-0.045-0.207-0.06-0.286c0.044,0,0.104-0.016,0.149-0.016
		c0.179,0,0.447,0.239,0.582,0.366c0.224,0.239,0.313,0.446,0.313,0.78c0,0.764-0.373,1.449-0.567,2.165
		c-0.015,0.064-0.03,0.127-0.06,0.191v0.032c0.224-0.223,0.462-0.525,0.656-0.78C48.146,9.265,49.1,7.88,49.13,7.801l-0.164-0.223
		c0-0.111,0.089-0.111,0.164-0.111c0.463,0,0.88,0.461,0.94,0.923c0.045,0.302,0.045,0.605,0.045,0.907
		c0,0.414-0.03,0.844-0.09,1.258c-0.044,0.334-0.104,0.653-0.104,0.987v0.095c0.955-0.78,1.625-3.964,1.625-5.221
		c0-0.478-0.104-0.971-0.313-1.401c-0.045-0.08-0.074-0.159-0.104-0.239V4.728C52.038,4.951,52.233,6.05,52.233,6.893z M47.385,9.01
		l-0.044-0.016c-0.149,0.478-0.299,0.955-0.463,1.417C47.042,10.236,47.281,9.297,47.385,9.01z M49.115,8.819H49.1
		c-0.373,0.525-0.716,1.082-1.074,1.608C48.236,10.188,49.056,9.026,49.115,8.819z M48.28,9.727l0.015,0.016
		C48.295,9.727,48.295,9.727,48.28,9.727z M48.474,9.456c0.015-0.016,0.015-0.048,0.015-0.064
		C48.474,9.408,48.474,9.44,48.474,9.456z M48.548,9.01l0.045-0.064C48.579,8.963,48.548,8.979,48.548,9.01z M48.638,9.233h0.015
		V9.217L48.638,9.233z M48.981,9.281l-0.015,0.016h0.015V9.281z M49.13,8.183L49.1,8.167c-0.015,0.048-0.06,0.08-0.06,0.127
		C49.056,8.246,49.1,8.215,49.13,8.183z M49.772,10.204h-0.03l-0.089,0.716c0,0.08,0,0.159-0.015,0.239h0.045l-0.03-0.239
		l0.045-0.032L49.772,10.204z M50.756,10.762l-0.015-0.016v0.048L50.756,10.762z M50.965,10.22c-0.03,0.048-0.045,0.095-0.06,0.143
		L50.965,10.22z M51.069,9.886c0.074-0.191,0.119-0.398,0.194-0.589l0.015-0.127C51.218,9.408,51.114,9.647,51.069,9.886z
		 M51.934,7.848l-0.03,0.032c-0.179,1.035-0.447,2.053-0.821,3.04c0.164-0.191,0.418-1.114,0.507-1.401
		C51.755,8.979,51.89,8.422,51.934,7.848z M51.293,9.806h0.015c0-0.016,0-0.016-0.015-0.016V9.806z M51.367,8.835l0.03-0.127
		C51.383,8.756,51.367,8.787,51.367,8.835z M51.427,9.329h0.015V9.265l0.03-0.016V9.233l-0.045,0.032V9.329z M51.442,8.485
		l0.089-0.271l0.03-0.175c-0.03,0.016-0.045,0.032-0.045,0.064s0.015,0.08,0.015,0.112C51.442,8.278,51.457,8.39,51.442,8.485z
		 M51.487,9.09v0.016c0.015,0,0.015,0,0.015-0.016H51.487z M51.546,7.912c0,0.032,0,0.064,0.015,0.096V7.912H51.546z M51.576,7.689
		c0.015,0.016,0.015,0.032,0.015,0.048h0.015l-0.015-0.048H51.576z M51.636,9.806L51.621,9.79v0.016H51.636z M51.696,9.552
		l-0.015,0.016h0.015V9.552z M51.964,7.625h-0.03v0.175C51.949,7.737,51.964,7.689,51.964,7.625z M51.994,7.466v-0.08h-0.03
		c0.015,0.016,0.015,0.048,0.015,0.08H51.994z"/>
	<path class="st0" d="M56.931,8.979c-0.224,1.305-0.552,2.643-0.552,3.98c0,0.207,0.015,0.414,0.075,0.621
		c0,0.016,0.015,0.032,0.015,0.048c0,0.032-0.015,0.064-0.015,0.096c-0.06,0.016-0.119,0.016-0.179,0.016
		c-0.418,0-0.835-0.366-0.88-0.812c-0.015-0.191-0.015-0.398-0.015-0.589c0-0.366,0-0.732,0.044-1.098
		c0.164-1.433,0.313-2.722,0.701-4.107L56.096,7.1l-0.462,0.414c-0.269,0.255-0.582,0.732-0.76,1.066
		c-0.552,1.003-0.955,2.069-1.164,3.216c-0.015,0.096-0.03,0.175-0.06,0.271c-1.029-0.111-1.119-0.828-1.119-1.767
		c0-1.671,0.358-3.327,0.701-4.951c0.135-0.653,0.269-1.321,0.463-1.958c0.179-0.605,0.417-1.21,0.641-1.799
		c0.06-0.143,0.104-0.319,0.209-0.446c0.089,0.064,0.134,0.096,0.239,0.096c0.134,0,0.343,0.191,0.447,0.287
		s0.119,0.143,0.134,0.286v0.127c0,0.605-0.388,1.799-0.551,2.436c-0.209,0.86-0.418,1.703-0.612,2.563
		c-0.075,0.334-0.328,1.258-0.328,1.544c0,0.016,0.015,0.048,0.015,0.063c0.582-0.955,1.014-1.464,1.909-2.101
		c0.119-0.08,0.209-0.127,0.343-0.127c0.283,0,0.567,0.191,0.776,0.366C57.125,6.862,57.2,7.005,57.2,7.291
		C57.2,7.848,57.021,8.437,56.931,8.979z M53.232,6.83h-0.015v0.032h0.015V6.83z M53.277,6.607l-0.045,0.08l0.03,0.016
		C53.262,6.67,53.277,6.639,53.277,6.607z M53.292,6.511h-0.015v0.08C53.292,6.559,53.292,6.543,53.292,6.511z M53.307,6.368h0.03
		c-0.015-0.016-0.015-0.048-0.015-0.08C53.307,6.32,53.307,6.336,53.307,6.368z M53.337,9.838c0-0.032-0.015-0.048-0.015-0.08
		c-0.015,0.032-0.015,0.048-0.015,0.08H53.337z M53.367,9.408c-0.015,0.064-0.03,0.127-0.03,0.191h0.03V9.408z M53.367,9.392
		c0.149-0.493,0.239-1.305,0.343-1.846c0.328-1.656,0.776-3.295,1.178-4.935l-0.03,0.016c-0.208,0.716-0.432,1.417-0.612,2.133
		c-0.208,0.844-0.387,1.687-0.551,2.531C53.56,7.992,53.426,8.692,53.367,9.392z M53.411,5.906h0.015V5.843
		C53.411,5.859,53.411,5.89,53.411,5.906z M53.426,5.827c0.015-0.016,0.03-0.048,0.03-0.064l-0.03-0.016V5.827z M53.471,5.604
		l0.03,0.016c0-0.08,0.015-0.175,0.015-0.255l0.03-0.016c0.06-0.223,0.104-0.43,0.149-0.653c-0.09,0.207-0.135,0.446-0.179,0.669
		L53.471,5.604z M53.531,6.686V6.75h0.015V6.686H53.531z M53.635,6.241c0,0.032-0.015,0.064-0.015,0.096l-0.03,0.112h0.03
		l0.045-0.191L53.635,6.241z M54.605,8.533c-0.343,0.366-0.865,1.767-0.969,2.292c-0.015,0.048,0,0.112-0.015,0.159
		c0.045-0.048,0.06-0.096,0.075-0.143c0.164-0.509,0.313-1.019,0.537-1.512l0.373-0.764V8.533z M53.665,6.113
		c0,0.016,0,0.016,0.015,0.032V6.113H53.665z M53.665,10.125h0.015v-0.016L53.665,10.125z M53.695,5.986l0.03,0.016
		C53.71,5.97,53.71,5.938,53.71,5.906C53.695,5.938,53.695,5.954,53.695,5.986z M53.739,9.329h0.03l0.134-0.302L53.739,9.329z
		 M53.814,5.492c0.074-0.095,0.328-1.273,0.358-1.48l0.03-0.096l0.015-0.064c-0.015,0.016-0.015,0.048-0.015,0.064
		c-0.015,0.032-0.03,0.064-0.03,0.096C54.038,4.505,53.903,4.999,53.814,5.492z M54.008,10.22l-0.015-0.016v0.016H54.008z
		 M54.008,3.391c0.015,0,0.015,0,0.03-0.016V3.359L54.008,3.391z M54.082,3.153h0.015V3.137L54.082,3.153z M54.127,9.838h-0.015
		l0.015,0.016V9.838z M54.232,8.835c0-0.016,0-0.016,0.015-0.032h-0.015V8.835z M54.246,3.757l0.015-0.048h-0.015V3.757z
		 M54.262,5.795l-0.015,0.016h0.015V5.795z M54.276,3.614h0.015V3.582h-0.015V3.614z M54.306,3.471h0.015V3.455L54.306,3.471z
		 M54.426,5.142H54.41v0.032C54.41,5.158,54.41,5.158,54.426,5.142z M54.59,4.521h-0.015v0.016L54.59,4.521z M54.649,4.267h-0.015
		v0.016L54.649,4.267z M54.679,8.405c-0.015,0.032-0.045,0.064-0.045,0.096C54.649,8.469,54.679,8.437,54.679,8.405z M54.679,4.155
		c-0.015,0-0.015,0-0.015,0.016h0.015V4.155z M54.888,2.595c0.045-0.096,0.089-0.191,0.089-0.302l-0.03-0.016
		C54.917,2.388,54.903,2.484,54.888,2.595z M54.992,2.165h0.015c0-0.016,0-0.048-0.015-0.063l0.045-0.064l-0.015-0.016
		c0,0.032-0.015,0.048-0.03,0.08V2.165z M56.23,11.016h-0.015v0.064l0.015-0.016V11.016z M56.29,10.539h-0.015
		c0,0.016,0.015,0.016,0.015,0.032V10.539z M56.364,10.029l-0.03,0.111h0.03V10.029z M56.827,7.642
		c-0.194,0.716-0.313,1.433-0.432,2.165c0.104-0.255,0.134-0.589,0.194-0.843C56.678,8.517,56.767,8.087,56.827,7.642z
		 M56.857,7.514h-0.03v0.08L56.857,7.514z"/>
	<path class="st0" d="M58.244,10.077c-0.06,0.127-0.045,0.398-0.045,0.525c0,0.159,0.045,0.764,0.254,0.764
		c0.313,0,0.551-0.223,0.656-0.509l0.015-0.016v0.048c0,0.143-0.119,0.255-0.164,0.382c0.164-0.08,0.194-0.239,0.283-0.382
		c0.015,0.032,0.03,0.064,0.03,0.08c0,0.111-0.089,0.175-0.104,0.271l0.104,0.016l-0.015,0.048l0.03,0.016v-0.016h0.045
		l-0.015-0.032h0.015l0.015-0.064h0.015l0.03-0.064v0.064c0.045-0.048,0.06-0.096,0.06-0.159l0.06-0.08
		c-0.03,0.461-0.432,0.764-0.85,0.764c-0.91,0-1.447-0.668-1.447-1.608c0-0.764,0.299-1.528,0.716-2.149
		c0.328-0.494,0.79-0.764,1.357-0.764c0.135,0,0.269,0.032,0.403,0.064l-0.299-0.589l0.119-0.032
		c0.597,0.207,0.999,0.732,0.999,1.433C60.511,9.249,59.229,10.077,58.244,10.077z M57.767,8.835c-0.015,0-0.015,0-0.015,0.016
		h0.015V8.835z M57.842,8.597l-0.045,0.08l0.03,0.016L57.842,8.597z M57.857,8.565l-0.015,0.016h0.015V8.565z M58.095,8.135
		l0.045-0.016C58.125,8.119,58.11,8.119,58.095,8.135l-0.074,0.127l-0.03,0.048v0.016c-0.03,0.048-0.074,0.096-0.104,0.159
		c0.075-0.032,0.09-0.096,0.104-0.159l0.03-0.064l0.06-0.048C58.08,8.183,58.095,8.167,58.095,8.135z M58.05,9.329
		c-0.015,0.016-0.015,0.048-0.015,0.08h0.015V9.329z M58.602,8.23c-0.209,0.223-0.492,0.669-0.492,1.003
		C58.214,8.883,58.468,8.581,58.602,8.23z M58.11,8.644V8.66c0-0.016,0-0.016,0-0.032V8.644z M58.17,8.501
		c0.015-0.016,0.015-0.032,0.015-0.064C58.17,8.469,58.17,8.485,58.17,8.501z M58.23,8.405h0.015c0.015-0.016,0.03-0.048,0.03-0.064
		C58.259,8.358,58.244,8.405,58.23,8.405z M58.393,9.44c0.537-0.064,1.328-1.003,1.328-1.576V7.801
		C59.05,7.96,58.513,8.74,58.393,9.44z M58.617,8.215l0.06-0.032V8.167l-0.015,0.016C58.632,8.183,58.632,8.199,58.617,8.215z
		 M59.631,8.676c-0.015,0.016-0.015,0.048-0.015,0.064l-0.045,0.032l0.045-0.016V8.74L59.631,8.676z M59.736,8.501l-0.03,0.064
		v0.016C59.721,8.549,59.736,8.533,59.736,8.501z M59.781,8.405c0.015,0,0.03-0.016,0.03-0.032h-0.03V8.405z M59.84,9.042
		c0.015-0.016,0.03-0.016,0.03-0.032L59.84,9.042z M59.87,8.676h0.015L59.9,8.628L59.87,8.676z M59.93,8.995
		c-0.015,0-0.03,0-0.045,0.016C59.9,9.01,59.915,9.01,59.93,8.995z M59.93,8.979c0.149-0.159,0.239-0.366,0.298-0.573
		C60.168,8.517,59.93,8.883,59.93,8.979z"/>
	<path class="st0" d="M60.423,11.016c-0.179,0.255-0.373,0.509-0.642,0.669l-0.522-0.191l0.03-0.048
		c0.253-0.271,0.447-0.557,0.641-0.876c0.746-1.274,1.238-2.626,1.492-4.107c-0.567-0.414-1.357-0.876-1.357-1.719
		c0-0.43,0.358-0.955,0.79-0.955c0.134,0,0.253,0.032,0.373,0.096c0.492,0.223,0.79,0.716,0.85,1.274
		c0.03,0.35,0.075,0.7,0.09,1.051c0.507,0.318,1.059,0.637,1.492,1.066c0.239,0.239,0.358,0.509,0.358,0.86
		c0,0.478-0.283,1.274-0.433,1.751c-0.269,0.844-0.746,2.165-0.746,3.04c0,0.207,0.03,0.43,0.104,0.621l0.417,0.111l-0.015,0.127
		l0.015,0.016l0.075-0.096h0.119c0.03,0.064,0.044,0.127,0.044,0.191c0,0.302-0.447,0.398-0.671,0.398
		c-0.97,0-1.358-1.114-1.358-1.99c0-1.066,0.627-2.802,0.985-3.82c0.089-0.239,0.253-0.748,0.253-0.987
		c0-0.382-0.417-0.541-0.686-0.668C61.944,8.39,61.273,9.759,60.423,11.016z M60.348,4.41l0.03,0.032
		c0.015-0.063,0.03-0.127,0.06-0.175L60.348,4.41z M60.437,10.618l-0.015,0.016h0.015V10.618z M60.542,9.79
		c0.074-0.048,0.104-0.159,0.119-0.255L60.542,9.79z M60.825,4.426c-0.045,0.048-0.09,0.111-0.09,0.191c0,0.032,0,0.048,0.015,0.08
		C60.78,4.617,60.796,4.521,60.825,4.426z M61.437,5.62c0-0.302-0.074-0.987-0.239-1.21c-0.149,0.143-0.239,0.334-0.239,0.541
		c0,0.334,0.194,0.716,0.463,0.875C61.422,5.763,61.437,5.683,61.437,5.62z M61.78,7.387c-0.224,0.78-0.477,1.528-0.79,2.276
		c0.313-0.366,0.776-1.846,0.835-2.356C61.795,7.323,61.795,7.355,61.78,7.387z M61.079,8.549c0.074-0.159,0.134-0.302,0.164-0.461
		l-0.03,0.016L61.079,8.549z M61.288,7.848c-0.045,0.064-0.06,0.143-0.045,0.207L61.288,7.848z M61.318,7.769
		c0.015-0.016,0.015-0.032,0.015-0.048L61.318,7.769z M61.347,7.642c0,0.016,0,0.048-0.015,0.064c0.015-0.016,0.03-0.048,0.03-0.064
		H61.347z M61.392,7.45l0.045-0.064h-0.015L61.392,7.45z M61.466,7.259l-0.015-0.032v0.048L61.466,7.259z M61.854,7.132H61.84v0.064
		h0.015V7.132z M61.884,6.957H61.87v0.048h0.015V6.957z M62.749,8.883l-0.716,2.324l-0.164,0.637
		c0.134-0.286,0.224-0.621,0.313-0.939c0.254-0.844,0.537-1.671,0.761-2.531C62.839,8.501,62.794,8.724,62.749,8.883z
		 M62.213,12.146c0-0.032-0.015-0.048-0.015-0.08c-0.015,0.032-0.015,0.048-0.015,0.08H62.213z M63.167,8.644l-0.731,2.292
		c-0.104,0.35-0.149,0.732-0.224,1.082l0.03-0.032c0.135-0.478,0.239-0.971,0.388-1.449c0.194-0.637,0.478-1.273,0.582-1.942
		L63.167,8.644z M62.556,12.114c0.149-0.796,0.417-1.576,0.671-2.356c0.149-0.478,0.343-0.971,0.388-1.481h-0.03
		c-0.358,1.067-0.686,2.165-0.999,3.247c-0.089,0.318-0.149,0.637-0.149,0.971c0,0.095,0,0.191,0.015,0.286
		C62.496,12.56,62.511,12.337,62.556,12.114z M62.525,11.366V11.35l-0.015,0.016H62.525z M62.675,10.793l0.015-0.016h-0.015V10.793z
		 M62.705,10.666l0.015,0.016v-0.016H62.705z M62.72,12.194h-0.015c0,0.016,0,0.016,0.015,0.032V12.194z M62.734,10.57l0.015,0.016
		V10.57H62.734z M62.749,12.035h-0.015v0.032h0.015V12.035z M62.839,11.685h0.015v-0.048h-0.015V11.685z M62.884,11.494h-0.015
		v0.048h0.015V11.494z M62.943,9.934L62.929,9.95h0.015V9.934z M62.943,11.287c-0.015,0-0.015,0.016-0.015,0.032h0.015V11.287z
		 M62.958,8.278v0.064c0.015-0.016,0.015-0.048,0.015-0.064H62.958z M62.973,11.175l-0.015,0.016h0.015V11.175z M62.988,11.064
		l0.03,0.016c0-0.016,0-0.032-0.015-0.048L62.988,11.064z M63.048,10.921h-0.015v0.048h0.015V10.921z M63.137,10.618h-0.015
		c0,0.016,0,0.016,0.015,0.016V10.618z M63.167,9.249l-0.015,0.016h0.015V9.249z M63.167,10.523c-0.015,0-0.015,0-0.015,0.016
		L63.167,10.523z M63.242,8.517h-0.03v0.048L63.242,8.517z M63.227,10.332l0.015-0.016h-0.015V10.332z M63.256,10.236
		c0.015,0,0.015-0.016,0.015-0.032h-0.015V10.236z M63.286,10.125h0.015v-0.032h-0.015V10.125z M63.465,9.615H63.45v0.032h0.015
		V9.615z M63.48,9.536h0.015V9.52H63.48V9.536z M63.51,9.408l0.015,0.016V9.408H63.51z M63.719,8.787V8.772l-0.015,0.016H63.719z"/>
	<path class="st0" d="M65.285,10.077c-0.06,0.127-0.045,0.398-0.045,0.525c0,0.159,0.045,0.764,0.254,0.764
		c0.313,0,0.551-0.223,0.656-0.509l0.015-0.016v0.048c0,0.143-0.119,0.255-0.164,0.382c0.164-0.08,0.194-0.239,0.283-0.382
		c0.015,0.032,0.03,0.064,0.03,0.08c0,0.111-0.089,0.175-0.104,0.271l0.104,0.016l-0.015,0.048l0.03,0.016v-0.016h0.045
		l-0.015-0.032h0.015l0.015-0.064h0.015l0.03-0.064v0.064c0.045-0.048,0.06-0.096,0.06-0.159l0.06-0.08
		c-0.03,0.461-0.432,0.764-0.85,0.764c-0.91,0-1.447-0.668-1.447-1.608c0-0.764,0.299-1.528,0.716-2.149
		c0.328-0.494,0.79-0.764,1.357-0.764c0.135,0,0.269,0.032,0.403,0.064l-0.299-0.589l0.119-0.032
		c0.597,0.207,0.999,0.732,0.999,1.433C67.552,9.249,66.269,10.077,65.285,10.077z M64.808,8.835c-0.015,0-0.015,0-0.015,0.016
		h0.015V8.835z M64.883,8.597l-0.045,0.08l0.03,0.016L64.883,8.597z M64.897,8.565l-0.015,0.016h0.015V8.565z M65.136,8.135
		l0.045-0.016C65.166,8.119,65.151,8.119,65.136,8.135l-0.074,0.127l-0.03,0.048v0.016c-0.03,0.048-0.074,0.096-0.104,0.159
		c0.075-0.032,0.09-0.096,0.104-0.159l0.03-0.064l0.06-0.048C65.121,8.183,65.136,8.167,65.136,8.135z M65.091,9.329
		c-0.015,0.016-0.015,0.048-0.015,0.08h0.015V9.329z M65.643,8.23c-0.209,0.223-0.492,0.669-0.492,1.003
		C65.255,8.883,65.509,8.581,65.643,8.23z M65.151,8.644V8.66c0-0.016,0-0.016,0-0.032V8.644z M65.21,8.501
		c0.015-0.016,0.015-0.032,0.015-0.064C65.21,8.469,65.21,8.485,65.21,8.501z M65.27,8.405h0.015c0.015-0.016,0.03-0.048,0.03-0.064
		C65.3,8.358,65.285,8.405,65.27,8.405z M65.434,9.44c0.537-0.064,1.328-1.003,1.328-1.576V7.801
		C66.09,7.96,65.554,8.74,65.434,9.44z M65.658,8.215l0.06-0.032V8.167l-0.015,0.016C65.673,8.183,65.673,8.199,65.658,8.215z
		 M66.672,8.676c-0.015,0.016-0.015,0.048-0.015,0.064l-0.045,0.032l0.045-0.016V8.74L66.672,8.676z M66.776,8.501l-0.03,0.064
		v0.016C66.762,8.549,66.776,8.533,66.776,8.501z M66.821,8.405c0.015,0,0.03-0.016,0.03-0.032h-0.03V8.405z M66.881,9.042
		c0.015-0.016,0.03-0.016,0.03-0.032L66.881,9.042z M66.911,8.676h0.015l0.015-0.048L66.911,8.676z M66.971,8.995
		c-0.015,0-0.03,0-0.045,0.016C66.941,9.01,66.956,9.01,66.971,8.995z M66.971,8.979c0.149-0.159,0.239-0.366,0.298-0.573
		C67.209,8.517,66.971,8.883,66.971,8.979z"/>
	<path class="st0" d="M68.373,10.538c0.099-0.096,0.216-0.154,0.351-0.175c0.134-0.021,0.261-0.008,0.38,0.04
		c0.119,0.048,0.221,0.13,0.306,0.247c0.085,0.117,0.122,0.265,0.112,0.446c-0.01,0.255-0.087,0.443-0.231,0.565
		c-0.144,0.122-0.304,0.18-0.478,0.175s-0.328-0.072-0.462-0.199c-0.135-0.127-0.201-0.302-0.201-0.525v-0.016V11.08
		c0-0.053,0.01-0.111,0.03-0.175c0.02-0.096,0.052-0.196,0.097-0.302c0.044-0.106,0.121-0.18,0.231-0.223
		C68.448,10.443,68.403,10.496,68.373,10.538z M69,11.717c0.119-0.032,0.214-0.093,0.283-0.183c0.07-0.09,0.117-0.188,0.142-0.295
		c0.025-0.106,0.028-0.212,0.008-0.318c-0.02-0.106-0.05-0.186-0.09-0.239c0.099,0.223,0.11,0.438,0.03,0.645
		C69.293,11.533,69.169,11.664,69,11.717z M69.149,10.921c0.02,0.043,0.027,0.117,0.022,0.223c-0.005,0.106-0.047,0.186-0.127,0.239
		c0.08-0.021,0.129-0.09,0.149-0.207C69.214,11.059,69.198,10.974,69.149,10.921z"/>
</g>
</svg>
