<?xml version="1.0" encoding="utf-8"?>
<!-- Generator: Adobe Illustrator 21.1.0, SVG Export Plug-In . SVG Version: 6.00 Build 0)  -->
<svg version="1.1" id="Layer_1" xmlns="http://www.w3.org/2000/svg" xmlns:xlink="http://www.w3.org/1999/xlink" x="0px" y="0px"
	 viewBox="0 0 50 15" style="enable-background:new 0 0 50 15;" xml:space="preserve">
<style type="text/css">
	.st0{fill:#A2D184;}
</style>
<g>
	<path class="st0" d="M30.043,12.187c-0.028-0.296-0.037-0.594-0.074-0.889c-0.153-1.234-0.573-2.365-1.315-3.369
		c-0.288-0.389-0.614-0.742-1.004-1.032c-1.41,1.648-3.911,1.645-5.318-0.009c-0.14,0.126-0.274,0.235-0.397,0.358
		c-1.345,1.358-1.917,3.028-1.984,4.904c-0.005,0.153,0.042,0.214,0.187,0.257c1.429,0.419,2.888,0.633,4.375,0.67
		c0.912,0.022,1.821-0.023,2.727-0.143c0.898-0.118,1.782-0.29,2.651-0.544C30.009,12.359,30.055,12.309,30.043,12.187z"/>
	<path class="st0" d="M24.969,7.495c1.563,0.005,2.809-1.225,2.816-2.778c0.006-1.54-1.241-2.796-2.78-2.8
		C23.47,1.912,22.21,3.162,22.2,4.7C22.191,6.221,23.448,7.489,24.969,7.495z"/>
</g>
</svg>
