<?xml version="1.0" encoding="utf-8"?>
<!-- Generator: Adobe Illustrator 21.1.0, SVG Export Plug-In . SVG Version: 6.00 Build 0)  -->
<svg version="1.1" id="Layer_1" xmlns="http://www.w3.org/2000/svg" xmlns:xlink="http://www.w3.org/1999/xlink" x="0px" y="0px"
	 viewBox="0 0 50 30" style="enable-background:new 0 0 50 30;" xml:space="preserve">
<style type="text/css">
	.st0{fill:#A2D184;}
</style>
<g>
	<path class="st0" d="M35.496,27.275c-0.058-0.616-0.077-1.236-0.153-1.849c-0.317-2.567-1.192-4.921-2.736-7.01
		c-0.598-0.809-1.278-1.543-2.089-2.147c-2.935,3.429-8.137,3.423-11.065-0.018c-0.291,0.262-0.571,0.49-0.825,0.745
		c-2.799,2.825-3.989,6.3-4.129,10.204c-0.011,0.317,0.088,0.446,0.388,0.534c2.972,0.873,6.01,1.318,9.103,1.394
		c1.898,0.046,3.789-0.049,5.674-0.297c1.867-0.245,3.708-0.604,5.516-1.132C35.424,27.631,35.52,27.528,35.496,27.275z"/>
	<path class="st0" d="M24.938,17.511c3.252,0.01,5.846-2.549,5.859-5.781c0.013-3.203-2.582-5.816-5.785-5.826
		c-3.193-0.01-5.814,2.592-5.835,5.79C19.157,14.861,21.772,17.5,24.938,17.511z"/>
</g>
</svg>
