<?xml version="1.0" encoding="utf-8"?>
<!-- Generator: Adobe Illustrator 21.1.0, SVG Export Plug-In . SVG Version: 6.00 Build 0)  -->
<svg version="1.1" id="Layer_1" xmlns="http://www.w3.org/2000/svg" xmlns:xlink="http://www.w3.org/1999/xlink" x="0px" y="0px"
	 viewBox="0 0 50 30" style="enable-background:new 0 0 50 30;" xml:space="preserve">
<style type="text/css">
	.st0{fill:#4FC5DD;}
</style>
<g id="RXveeK_1_">
	<g>
		<path class="st0" d="M20.699,18.987c2.258,2.653,6.268,2.658,8.53,0.014c0.625,0.466,1.149,1.031,1.61,1.655
			c1.19,1.61,1.865,3.425,2.109,5.404c0.058,0.473,0.073,0.951,0.118,1.426c0.019,0.195-0.056,0.274-0.243,0.329
			c-1.394,0.407-2.813,0.683-4.253,0.872c-1.453,0.191-2.911,0.264-4.375,0.229c-2.384-0.059-4.726-0.401-7.017-1.075
			c-0.232-0.068-0.308-0.167-0.299-0.412c0.109-3.01,1.025-5.689,3.183-7.867C20.259,19.365,20.475,19.189,20.699,18.987z"/>
		<path class="st0" d="M30.401,14.88c2.288,0.523,4.195-0.073,5.771-1.798c0.628,0.481,1.162,1.051,1.628,1.685
			c1.155,1.571,1.822,3.338,2.074,5.264c0.068,0.521,0.079,1.05,0.124,1.574c0.015,0.172-0.053,0.238-0.216,0.287
			c-1.546,0.46-3.124,0.759-4.726,0.933c-0.484,0.052-0.973,0.065-1.454,0.131c-0.278,0.038-0.372-0.076-0.464-0.312
			c-0.611-1.568-1.475-2.982-2.737-4.105c-0.449-0.4-0.581-0.697-0.305-1.264c0.318-0.656,0.359-1.398,0.306-2.132
			C30.396,15.065,30.401,14.987,30.401,14.88z"/>
		<path class="st0" d="M13.825,13.046c1.578,1.727,3.467,2.326,5.727,1.833c-0.086,0.745-0.013,1.452,0.195,2.141
			c0.083,0.274,0.213,0.535,0.295,0.81c0.025,0.084-0.002,0.235-0.064,0.287c-1.478,1.249-2.51,2.808-3.206,4.599
			c-0.078,0.2-0.176,0.244-0.369,0.232c-2.119-0.13-4.202-0.465-6.235-1.09c-0.047-0.015-0.09-0.041-0.17-0.079
			C10.085,18.361,11.139,15.369,13.825,13.046z"/>
		<path class="st0" d="M29.444,15.502c-0.01,2.491-2.011,4.464-4.517,4.456c-2.441-0.008-4.457-2.043-4.441-4.484
			c0.016-2.466,2.036-4.471,4.498-4.464C27.453,11.018,29.454,13.033,29.444,15.502z"/>
		<path class="st0" d="M27.424,9.576c0.005-2.363,1.84-4.314,4.222-4.473c2.272-0.152,4.376,1.549,4.697,3.795
			c0.408,2.853-1.867,5.319-4.744,5.14c-0.188-0.012-0.374-0.05-0.561-0.076c-0.582-0.081-0.979-0.32-1.229-0.927
			c-0.378-0.918-1.079-1.617-1.93-2.138c-0.236-0.144-0.369-0.304-0.382-0.58C27.487,10.069,27.45,9.823,27.424,9.576z"/>
		<path class="st0" d="M22.575,9.594c-0.005,0.105-0.013,0.254-0.019,0.403c-0.015,0.414-0.137,0.718-0.54,0.962
			c-0.961,0.583-1.623,1.447-2.068,2.481c-0.054,0.126-0.186,0.259-0.313,0.306c-2.722,1.019-5.707-0.848-5.982-3.731
			c-0.27-2.84,2.04-5.165,4.885-4.917C20.8,5.296,22.581,7.261,22.575,9.594z"/>
	</g>
</g>
</svg>
