<?xml version="1.0" encoding="utf-8"?>
<!-- Generator: Adobe Illustrator 21.1.0, SVG Export Plug-In . SVG Version: 6.00 Build 0)  -->
<svg version="1.1" id="Layer_1" xmlns="http://www.w3.org/2000/svg" xmlns:xlink="http://www.w3.org/1999/xlink" x="0px" y="0px"
	 viewBox="0 0 50 30" style="enable-background:new 0 0 50 30;" xml:space="preserve">
<style type="text/css">
	.st0{fill:#4FC5DD;}
</style>
<g id="RXveeK_1_">
	<g>
		<path class="st0" d="M21.38,21.161c1.901,2.233,5.276,2.237,7.179,0.012c0.526,0.392,0.967,0.868,1.355,1.393
			c1.002,1.355,1.57,2.883,1.775,4.548c0.049,0.398,0.061,0.8,0.099,1.2c0.016,0.164-0.047,0.231-0.205,0.277
			c-1.173,0.343-2.368,0.575-3.58,0.734c-1.223,0.161-2.45,0.222-3.682,0.193c-2.007-0.05-3.978-0.338-5.906-0.905
			c-0.195-0.057-0.259-0.141-0.252-0.347c0.092-2.533,0.863-4.788,2.679-6.621C21.009,21.479,21.191,21.331,21.38,21.161z"/>
		<path class="st0" d="M29.546,17.704c1.926,0.44,3.531-0.061,4.857-1.513c0.529,0.405,0.978,0.885,1.37,1.418
			c0.972,1.322,1.534,2.81,1.746,4.431c0.057,0.439,0.066,0.884,0.104,1.325c0.013,0.145-0.045,0.2-0.182,0.242
			c-1.301,0.387-2.629,0.639-3.978,0.785c-0.407,0.044-0.819,0.055-1.224,0.11c-0.234,0.032-0.313-0.064-0.391-0.263
			c-0.514-1.32-1.241-2.51-2.304-3.455c-0.378-0.337-0.489-0.587-0.257-1.064c0.268-0.552,0.302-1.177,0.258-1.794
			C29.542,17.86,29.546,17.794,29.546,17.704z"/>
		<path class="st0" d="M15.594,16.16c1.328,1.454,2.918,1.958,4.82,1.543c-0.072,0.627-0.011,1.222,0.164,1.802
			c0.07,0.231,0.179,0.45,0.248,0.682c0.021,0.071-0.002,0.198-0.054,0.242c-1.244,1.051-2.113,2.363-2.698,3.871
			c-0.066,0.168-0.148,0.205-0.311,0.195c-1.784-0.109-3.537-0.391-5.248-0.917c-0.04-0.013-0.076-0.035-0.143-0.066
			C12.446,20.634,13.333,18.115,15.594,16.16z"/>
		<path class="st0" d="M28.74,18.227c-0.008,2.097-1.693,3.757-3.802,3.751c-2.055-0.007-3.751-1.72-3.738-3.774
			c0.013-2.076,1.714-3.763,3.786-3.757C27.064,14.453,28.749,16.149,28.74,18.227z"/>
		<path class="st0" d="M27.04,13.24c0.004-1.989,1.549-3.631,3.554-3.765c1.912-0.128,3.683,1.304,3.953,3.194
			c0.343,2.401-1.571,4.477-3.993,4.326c-0.158-0.01-0.315-0.042-0.472-0.064c-0.49-0.068-0.824-0.269-1.034-0.78
			c-0.318-0.773-0.908-1.361-1.624-1.8c-0.199-0.121-0.311-0.256-0.322-0.488C27.093,13.655,27.062,13.448,27.04,13.24z"/>
		<path class="st0" d="M22.959,13.255c-0.004,0.088-0.011,0.214-0.016,0.339c-0.013,0.348-0.115,0.604-0.455,0.81
			c-0.809,0.491-1.366,1.218-1.741,2.088c-0.045,0.106-0.157,0.218-0.263,0.258c-2.291,0.858-4.803-0.714-5.035-3.14
			c-0.227-2.39,1.717-4.347,4.112-4.139C21.465,9.637,22.964,11.291,22.959,13.255z"/>
	</g>
</g>
</svg>
