<?xml version="1.0" encoding="utf-8"?>
<!-- Generator: Adobe Illustrator 21.1.0, SVG Export Plug-In . SVG Version: 6.00 Build 0)  -->
<svg version="1.1" id="Layer_1" xmlns="http://www.w3.org/2000/svg" xmlns:xlink="http://www.w3.org/1999/xlink" x="0px" y="0px"
	 viewBox="0 0 50 30" style="enable-background:new 0 0 50 30;" xml:space="preserve">
<style type="text/css">
	.st0{fill:#A2D184;}
</style>
<g>
	<path class="st0" d="M32.997,27.703c-0.044-0.469-0.059-0.942-0.117-1.409c-0.242-1.956-0.908-3.75-2.085-5.341
		c-0.456-0.616-0.974-1.176-1.592-1.636c-2.236,2.613-6.2,2.608-8.431-0.014c-0.222,0.2-0.435,0.373-0.629,0.568
		c-2.133,2.153-3.039,4.8-3.146,7.775c-0.008,0.242,0.067,0.34,0.296,0.407c2.265,0.665,4.579,1.004,6.936,1.062
		c1.446,0.035,2.887-0.037,4.323-0.226c1.423-0.187,2.825-0.46,4.203-0.863C32.942,27.975,33.016,27.896,32.997,27.703z"/>
	<path class="st0" d="M24.952,20.264c2.478,0.008,4.454-1.942,4.464-4.405c0.01-2.441-1.967-4.432-4.408-4.439
		c-2.433-0.008-4.43,1.975-4.446,4.412C20.548,18.244,22.54,20.255,24.952,20.264z"/>
</g>
</svg>
