<?xml version="1.0" encoding="utf-8"?>
<!-- Generator: Adobe Illustrator 21.1.0, SVG Export Plug-In . SVG Version: 6.00 Build 0)  -->
<svg version="1.1" id="Layer_1" xmlns="http://www.w3.org/2000/svg" xmlns:xlink="http://www.w3.org/1999/xlink" x="0px" y="0px"
	 viewBox="0 0 50 15" style="enable-background:new 0 0 50 15;" xml:space="preserve">
<style type="text/css">
	.st0{fill:#4FC5DD;}
</style>
<g id="RXveeK_1_">
	<g>
		<path class="st0" d="M22.376,8.711c1.378,1.618,3.824,1.621,5.203,0.009c0.381,0.284,0.701,0.629,0.982,1.01
			c0.726,0.982,1.138,2.09,1.286,3.296c0.036,0.288,0.044,0.58,0.072,0.87c0.012,0.119-0.034,0.167-0.149,0.201
			c-0.85,0.249-1.716,0.417-2.595,0.532c-0.886,0.117-1.776,0.161-2.669,0.14c-1.455-0.036-2.883-0.245-4.28-0.656
			c-0.141-0.041-0.188-0.102-0.183-0.251c0.067-1.836,0.625-3.47,1.942-4.799C22.107,8.941,22.239,8.834,22.376,8.711z"/>
		<path class="st0" d="M28.294,6.205c1.396,0.319,2.559-0.044,3.52-1.097c0.383,0.294,0.709,0.641,0.993,1.028
			c0.704,0.958,1.112,2.037,1.265,3.211c0.041,0.318,0.048,0.641,0.075,0.96c0.009,0.105-0.033,0.145-0.132,0.175
			c-0.943,0.28-1.905,0.463-2.883,0.569c-0.295,0.032-0.594,0.04-0.887,0.08c-0.17,0.023-0.227-0.046-0.283-0.191
			c-0.373-0.957-0.899-1.819-1.67-2.504c-0.274-0.244-0.354-0.425-0.186-0.771c0.194-0.4,0.219-0.853,0.187-1.3
			C28.291,6.318,28.294,6.271,28.294,6.205z"/>
		<path class="st0" d="M18.182,5.086c0.962,1.054,2.115,1.419,3.493,1.118c-0.052,0.454-0.008,0.886,0.119,1.306
			c0.051,0.167,0.13,0.326,0.18,0.494c0.015,0.051-0.001,0.144-0.039,0.175c-0.902,0.762-1.531,1.713-1.955,2.806
			c-0.048,0.122-0.107,0.149-0.225,0.141c-1.293-0.079-2.563-0.283-3.804-0.665c-0.029-0.009-0.055-0.025-0.104-0.048
			C15.901,8.329,16.544,6.503,18.182,5.086z"/>
		<path class="st0" d="M27.71,6.584c-0.006,1.52-1.227,2.723-2.756,2.719c-1.489-0.005-2.719-1.247-2.709-2.735
			c0.009-1.505,1.242-2.727,2.744-2.723C26.495,3.849,27.717,5.078,27.71,6.584z"/>
		<path class="st0" d="M26.478,2.97c0.003-1.442,1.123-2.632,2.576-2.729c1.386-0.093,2.669,0.945,2.865,2.315
			c0.249,1.74-1.139,3.245-2.894,3.135c-0.115-0.007-0.228-0.03-0.342-0.046c-0.355-0.049-0.597-0.195-0.749-0.565
			c-0.23-0.56-0.658-0.986-1.177-1.305c-0.144-0.088-0.225-0.186-0.233-0.354C26.516,3.271,26.494,3.121,26.478,2.97z"/>
		<path class="st0" d="M23.52,2.981c-0.003,0.064-0.008,0.155-0.012,0.246c-0.009,0.252-0.083,0.438-0.33,0.587
			c-0.586,0.356-0.99,0.883-1.262,1.513c-0.033,0.077-0.114,0.158-0.191,0.187c-1.66,0.622-3.481-0.517-3.649-2.276
			c-0.165-1.732,1.244-3.151,2.98-3C22.438,0.359,23.524,1.557,23.52,2.981z"/>
	</g>
</g>
</svg>
