<?xml version="1.0" encoding="utf-8"?>
<!-- Generator: Adobe Illustrator 21.1.0, SVG Export Plug-In . SVG Version: 6.00 Build 0)  -->
<svg version="1.1" id="Layer_1" xmlns="http://www.w3.org/2000/svg" xmlns:xlink="http://www.w3.org/1999/xlink" x="0px" y="0px"
	 viewBox="0 0 150 50" style="enable-background:new 0 0 150 50;" xml:space="preserve">
<style type="text/css">
	.st0{fill:#FFFFFF;}
</style>
<g>
	<path class="st0" d="M4.333,24.268c4.78,0,9.559,0,14.338,0c0.001-4.78,0-9.559,0.001-14.339H4.333V24.268z"/>
	<path class="st0" d="M20.137,24.268c4.779,0,9.558-0.001,14.337,0c0.002-4.78,0.001-9.559,0.001-14.339H20.136
		C20.136,14.709,20.135,19.488,20.137,24.268z"/>
	<path class="st0" d="M145.479,23.599v-2.518c-1.023,0.003-2.046-0.008-3.068,0.007c-0.023-1.294-0.003-2.589-0.011-3.882
		c-1.023,0.308-2.04,0.636-3.068,0.929c-0.025,0.982-0.002,1.964-0.013,2.946c-1.512-0.001-3.024,0.002-4.537-0.002
		c0.019-0.773-0.053-1.553,0.058-2.322c0.092-0.606,0.444-1.213,1.034-1.447c0.745-0.306,1.578-0.102,2.286,0.209
		c-0.004-0.886,0.007-1.772-0.006-2.658c-1.49-0.41-3.198-0.33-4.519,0.53c-0.853,0.546-1.471,1.419-1.749,2.387
		c-0.329,1.072-0.161,2.205-0.214,3.305c-0.717-0.005-1.434-0.012-2.149,0.004c0.008,0.828,0.004,1.657,0.002,2.484
		c0.719,0.015,1.439-0.003,2.158,0.011c-0.006,3.486-0.002,6.971-0.002,10.457c1.033,0,2.068,0,3.101,0
		c0-3.487-0.001-6.974,0.001-10.461c1.512-0.003,3.025-0.002,4.538-0.001c0.004,2.223-0.004,4.445,0.003,6.666
		c0.014,1.035,0.19,2.142,0.876,2.959c0.593,0.723,1.535,1.054,2.445,1.121c0.958,0.068,1.949-0.049,2.835-0.434V31.35
		c-0.679,0.455-1.618,0.636-2.358,0.221c-0.442-0.244-0.613-0.766-0.67-1.237c-0.094-0.799-0.034-1.605-0.051-2.407
		c-0.001-1.448,0.003-2.896-0.002-4.344C143.426,23.588,144.453,23.557,145.479,23.599z"/>
	<path class="st0" d="M67.239,15.574c-0.861,0.098-1.596,0.881-1.572,1.759c-0.036,0.834,0.635,1.583,1.44,1.728
		c0.776,0.17,1.666-0.158,2.064-0.865c0.36-0.626,0.27-1.479-0.215-2.014C68.541,15.692,67.865,15.479,67.239,15.574z"/>
	<path class="st0" d="M58.708,15.968c-1.792,4.46-3.624,8.903-5.43,13.357c-0.376-0.884-0.712-1.786-1.071-2.677
		c-1.405-3.564-2.819-7.125-4.223-10.69c-1.504,0-3.006,0-4.51,0c-0.002,6.028-0.001,12.056,0,18.085
		c0.983-0.001,1.968,0.002,2.952-0.001c-0.003-2.699,0-5.398-0.001-8.097c0.01-1.949-0.022-3.899,0.016-5.848
		c0.056,0.089,0.108,0.181,0.156,0.276c1.839,4.556,3.665,9.12,5.514,13.673c0.743-0.012,1.486,0.013,2.229-0.014
		c1.782-4.557,3.608-9.097,5.4-13.65c0.047-0.1,0.102-0.196,0.163-0.289c0.014,0.2,0.021,0.4,0.019,0.599
		c-0.006,4.449,0.006,8.897-0.005,13.345c1.043,0.015,2.086,0.003,3.13,0.006c-0.001-6.027-0.003-12.055,0.001-18.082
		C61.6,15.963,60.154,15.945,58.708,15.968z"/>
	<path class="st0" d="M80.38,21.083c-1.496-0.423-3.11-0.44-4.606-0.014c-1.374,0.396-2.634,1.239-3.44,2.43
		c-0.962,1.396-1.302,3.14-1.226,4.811c0.075,1.608,0.709,3.213,1.876,4.339c1.075,1.044,2.555,1.606,4.04,1.684
		c1.451,0.071,2.971-0.123,4.239-0.878c-0.011-0.936,0.002-1.872-0.007-2.808c-0.817,0.598-1.771,1.026-2.782,1.142
		c-1.023,0.078-2.119-0.169-2.901-0.864c-0.753-0.642-1.153-1.609-1.253-2.577c-0.133-1.237,0.046-2.579,0.822-3.59
		c0.604-0.816,1.566-1.339,2.576-1.43c1.271-0.16,2.54,0.324,3.539,1.088c0.009-0.989-0.008-1.977,0.009-2.965
		C80.987,21.288,80.688,21.169,80.38,21.083z"/>
	<path class="st0" d="M112.491,26.977c-0.911-0.527-1.96-0.777-2.839-1.365c-0.514-0.326-0.66-1.041-0.45-1.586
		c0.264-0.551,0.902-0.797,1.481-0.819c1.151-0.04,2.309,0.31,3.257,0.962c-0.001-0.95,0.001-1.9-0.001-2.85
		c-1.357-0.514-2.858-0.699-4.292-0.447c-1.212,0.216-2.401,0.846-3.086,1.895c-0.599,0.901-0.677,2.063-0.429,3.093
		c0.167,0.699,0.594,1.319,1.158,1.759c0.803,0.616,1.763,0.959,2.677,1.37c0.487,0.229,1.002,0.462,1.354,0.886
		c0.375,0.549,0.262,1.448-0.37,1.762c-0.661,0.317-1.431,0.312-2.14,0.196c-1.018-0.176-1.98-0.609-2.813-1.214
		c-0.011,0.999-0.001,1.998-0.005,2.998c0.991,0.441,2.075,0.654,3.153,0.723c1.518,0.057,3.169-0.239,4.315-1.311
		c1.2-1.061,1.49-2.941,0.807-4.364C113.905,27.907,113.209,27.38,112.491,26.977z"/>
	<path class="st0" d="M88.199,21.28c-0.778,0.44-1.271,1.224-1.603,2.031c0.003-0.742-0.002-1.484,0.003-2.225
		c-1.02-0.005-2.041-0.01-3.061,0.003c0.006,4.318,0,8.637,0.003,12.955c1.019,0,2.038,0,3.057,0c0.001-2.066,0-4.132,0-6.198
		c-0.025-0.897,0.049-1.826,0.442-2.646c0.362-0.775,1.059-1.451,1.939-1.551c0.722-0.073,1.485,0.096,2.096,0.493
		c0.003-1.034-0.002-2.069,0.003-3.103C90.142,20.723,89.055,20.766,88.199,21.28z"/>
	<path class="st0" d="M65.948,21.085c0.003,4.32-0.001,8.638,0.002,12.957c1.026,0,2.052,0,3.079,0
		c0.004-4.317-0.007-8.635,0.005-12.952C68.006,21.07,66.977,21.081,65.948,21.085z"/>
	<path class="st0" d="M101.223,21.369c-1.381-0.629-2.951-0.713-4.439-0.524c-1.563,0.197-3.085,0.933-4.077,2.179
		c-0.906,1.113-1.347,2.542-1.431,3.961c-0.125,1.672,0.154,3.446,1.136,4.841c0.836,1.204,2.156,2.032,3.582,2.336
		c1.192,0.251,2.439,0.251,3.631,0.003c1.394-0.287,2.696-1.058,3.56-2.197c0.844-1.072,1.268-2.424,1.363-3.774
		c0.097-1.382-0.042-2.813-0.617-4.088C103.393,22.91,102.422,21.91,101.223,21.369z M100.936,30.056
		c-0.296,0.667-0.839,1.23-1.523,1.497c-0.801,0.307-1.701,0.326-2.528,0.111c-0.841-0.221-1.555-0.829-1.944-1.604
		c-0.499-0.997-0.574-2.15-0.471-3.244c0.094-0.995,0.44-2.018,1.198-2.704c0.549-0.513,1.299-0.764,2.04-0.805
		c0.932-0.061,1.924,0.202,2.594,0.88c0.716,0.704,0.994,1.727,1.07,2.701C101.428,27.956,101.384,29.067,100.936,30.056z"/>
	<path class="st0" d="M126.103,21.467c-1.412-0.713-3.055-0.817-4.603-0.625c-1.248,0.16-2.474,0.634-3.427,1.47
		c-1.163,1.002-1.845,2.474-2.045,3.98c-0.191,1.506-0.127,3.092,0.487,4.502c0.589,1.383,1.752,2.506,3.15,3.056
		c1.38,0.543,2.915,0.605,4.368,0.369c1.486-0.245,2.893-1.027,3.812-2.229c0.983-1.242,1.405-2.849,1.403-4.414
		c0.022-1.048-0.109-2.111-0.482-3.095C128.29,23.195,127.335,22.082,126.103,21.467z M125.97,28.875
		c-0.119,0.682-0.355,1.362-0.802,1.902c-0.45,0.543-1.12,0.873-1.812,0.975c-0.742,0.111-1.524,0.058-2.218-0.241
		c-0.749-0.317-1.33-0.965-1.635-1.711c-0.368-0.889-0.441-1.873-0.368-2.824c0.071-0.921,0.332-1.865,0.94-2.581
		c0.555-0.668,1.405-1.038,2.263-1.086c0.876-0.061,1.811,0.141,2.484,0.733c0.621,0.515,0.965,1.287,1.122,2.063
		C126.121,27.017,126.119,27.96,125.97,28.875z"/>
	<path class="st0" d="M4.333,40.071h14.339c0-4.78,0.001-9.558,0-14.338c-4.78-0.003-9.559,0-14.339-0.002V40.071z"/>
	<path class="st0" d="M20.136,40.071h14.339c0-4.78,0-9.559,0-14.339c-4.78,0-9.559-0.001-14.338,0.001
		C20.135,30.512,20.137,35.291,20.136,40.071z"/>
</g>
</svg>
