<?xml version="1.0" encoding="utf-8"?>
<!-- Generator: Adobe Illustrator 21.1.0, SVG Export Plug-In . SVG Version: 6.00 Build 0)  -->
<svg version="1.1" id="Layer_1" xmlns="http://www.w3.org/2000/svg" xmlns:xlink="http://www.w3.org/1999/xlink" x="0px" y="0px"
	 viewBox="0 0 40 23" style="enable-background:new 0 0 40 23;" xml:space="preserve">
<style type="text/css">
	.st0{fill:url(#SVGID_1_);}
	.st1{fill:url(#SVGID_2_);}
	.st2{fill:url(#SVGID_3_);}
	.st3{opacity:0.44;fill:#FFFFFF;enable-background:new    ;}
	.st4{fill:#8DC56F;}
	.st5{fill:#6CB048;}
	.st6{opacity:0.33;fill:#FFFFFF;enable-background:new    ;}
</style>
<g>
	<g>
		
			<linearGradient id="SVGID_1_" gradientUnits="userSpaceOnUse" x1="6.8404" y1="-9.1809" x2="6.8404" y2="-14.9349" gradientTransform="matrix(1 0 0 -1 0 -2)">
			<stop  offset="0" style="stop-color:#FFFFFF"/>
			<stop  offset="0.3126" style="stop-color:#E2E1E0"/>
			<stop  offset="0.4767" style="stop-color:#E0E0DF"/>
			<stop  offset="0.7198" style="stop-color:#C8C8C8"/>
		</linearGradient>
		<path class="st0" d="M5.946,7.285l0.058,0.663c0.389-0.512,0.927-0.767,1.612-0.767c0.588,0,1.027,0.176,1.318,0.528
			C9.225,8.061,9.375,8.59,9.385,9.296v3.639H7.62V9.368c0-0.285-0.058-0.495-0.173-0.629C7.332,8.605,7.124,8.537,6.821,8.537
			c-0.345,0-0.6,0.136-0.767,0.408v3.988H4.296V7.285H5.946z"/>
		
			<linearGradient id="SVGID_2_" gradientUnits="userSpaceOnUse" x1="22.5384" y1="-9.2839" x2="22.5384" y2="-14.9329" gradientTransform="matrix(1 0 0 -1 0 -2)">
			<stop  offset="0" style="stop-color:#FFFFFF"/>
			<stop  offset="0.3126" style="stop-color:#E2E1E0"/>
			<stop  offset="0.4767" style="stop-color:#E0E0DF"/>
			<stop  offset="0.7198" style="stop-color:#C8C8C8"/>
		</linearGradient>
		<path class="st1" d="M24.04,10.615l0.568-3.331h1.686l-1.331,5.649h-1.488l-0.934-3.351l-0.94,3.351h-1.488l-1.33-5.649h1.686
			l0.558,3.409l0.899-3.409h1.227L24.04,10.615z"/>
	</g>
	
		<linearGradient id="SVGID_3_" gradientUnits="userSpaceOnUse" x1="14.4369" y1="27.8759" x2="14.4369" y2="37.1199" gradientTransform="matrix(1 0 0 1 0 -22.55)">
		<stop  offset="0" style="stop-color:#FFFFFF"/>
		<stop  offset="0.3126" style="stop-color:#E2E1E0"/>
		<stop  offset="0.4767" style="stop-color:#E0E0DF"/>
		<stop  offset="0.7198" style="stop-color:#C8C8C8"/>
	</linearGradient>
	<path class="st2" d="M13.447,7.453c0.333,0,3.627,1.904,3.627,2.506s-3.205,2.506-3.627,2.506
		C13.027,12.466,13.116,7.453,13.447,7.453z M14.437,5.326c2.51,0,4.543,2.069,4.543,4.622s-2.034,4.622-4.543,4.622
		S9.894,12.5,9.894,9.947S11.928,5.326,14.437,5.326z"/>
	<path class="st3" d="M14.437,5.326c-1.977,0-3.658,1.285-4.283,3.079c0.784,0.568,1.834,0.97,3.019,1.124
		c0.03-1.094,0.128-2.076,0.275-2.076c0.246,0,2.111,1.042,3.067,1.828c0.837-0.247,1.564-0.626,2.12-1.097
		C17.955,6.506,16.331,5.326,14.437,5.326z"/>
	<path class="st4" d="M13.447,7.453c0.333,0,3.627,1.904,3.627,2.506s-3.205,2.506-3.627,2.506
		C13.027,12.466,13.116,7.453,13.447,7.453z"/>
	<g>
		<path class="st5" d="M13.447,7.453c-0.042,0-0.081,0.081-0.113,0.223c0.423,0.061,3.606,1.911,3.606,2.503
			c0,0.022-0.007,0.047-0.014,0.074c0.096-0.115,0.15-0.216,0.15-0.294C17.074,9.357,13.779,7.453,13.447,7.453z"/>
	</g>
	<path class="st6" d="M13.173,9.529c0.35,0.046,0.711,0.07,1.081,0.07c0.805,0,1.571-0.113,2.261-0.318
		c-0.956-0.786-2.821-1.827-3.067-1.827C13.302,7.453,13.202,8.435,13.173,9.529z"/>
</g>
<path class="st4" d="M39.354,6.713h-9.901c-0.241,0-0.439,0.197-0.439,0.439v5.622c0,0.241,0.197,0.439,0.439,0.439h1.784l0.49,1.37
	c0.012,0.064,0.032,0.125,0.064,0.178l0.003,0.006c0,0,0.002,0.001,0.003,0.001c0.109,0.182,0.319,0.293,0.543,0.266
	c0.114-0.014,0.217-0.062,0.297-0.132c0.001,0,0.004,0,0.005,0c0.044-0.007,0.867-0.874,1.632-1.686h5.079
	c0.241,0,0.439-0.197,0.439-0.439V7.151C39.793,6.911,39.596,6.713,39.354,6.713z"/>
</svg>
