<?xml version="1.0" encoding="utf-8"?>
<!-- Generator: Adobe Illustrator 22.1.0, SVG Export Plug-In . SVG Version: 6.00 Build 0)  -->
<svg version="1.1" id="Layer_1" xmlns="http://www.w3.org/2000/svg" xmlns:xlink="http://www.w3.org/1999/xlink" x="0px" y="0px"
	 viewBox="0 0 82.083 23" style="enable-background:new 0 0 82.083 23;" xml:space="preserve">
<style type="text/css">
	.st0{opacity:0.33;enable-background:new    ;}
	.st1{opacity:0.33;fill:#5C6A75;enable-background:new    ;}
	.st2{fill:url(#SVGID_1_);}
	.st3{fill:url(#SVGID_2_);}
	.st4{fill:url(#SVGID_3_);}
	.st5{fill:#50C5DD;}
	.st6{fill:#2EA8D6;}
	.st7{fill:#FFFFFF;}
	.st8{opacity:0.33;fill:#FFFFFF;enable-background:new    ;}
</style>
<g>
	<g class="st0">
		<path class="st1" d="M16.53,8.487l-0.12-1.514h-3.444v11.794h3.673v-7.466c0.327-0.726,1.068-1.09,2.224-1.09l1.21,0.087
			l0.065-3.411c-0.29-0.087-0.632-0.131-1.025-0.131C18.009,6.755,17.148,7.332,16.53,8.487z"/>
		<path class="st1" d="M28.614,14.408c-0.489,0.876-1.38,1.464-2.397,1.464c-1.541,0-2.795-1.35-2.795-3.009
			c0-1.659,1.253-3.007,2.795-3.007c1.017,0,1.907,0.588,2.397,1.464h3.324c-0.651-2.697-2.964-4.693-5.72-4.693
			c-3.26,0-5.904,2.792-5.904,6.236s2.644,6.238,5.904,6.238c2.754,0,5.07-1.995,5.72-4.693H28.614z"/>
		<path class="st1" d="M11.354,8.91c-0.002-0.002-0.003-0.004-0.004-0.005c-0.024-0.037-0.048-0.073-0.074-0.109
			c-0.008-0.012-0.017-0.024-0.026-0.037c-0.019-0.026-0.037-0.052-0.056-0.077c-0.012-0.015-0.023-0.03-0.035-0.046
			c-0.017-0.022-0.033-0.045-0.05-0.067c-0.013-0.016-0.026-0.032-0.039-0.048C11.053,8.5,11.037,8.48,11.02,8.459
			c-0.013-0.016-0.028-0.032-0.042-0.048c-0.017-0.02-0.034-0.04-0.052-0.06c-0.014-0.016-0.029-0.032-0.044-0.048
			c-0.018-0.02-0.036-0.039-0.054-0.058c-0.015-0.016-0.03-0.031-0.046-0.048c-0.019-0.019-0.037-0.038-0.055-0.056
			c-0.016-0.016-0.032-0.031-0.048-0.048c-0.019-0.019-0.038-0.037-0.057-0.055c-0.017-0.015-0.034-0.03-0.051-0.047
			c-0.02-0.018-0.039-0.036-0.059-0.053c-0.018-0.015-0.036-0.03-0.054-0.046c-0.02-0.017-0.04-0.034-0.061-0.051
			c-0.019-0.015-0.037-0.03-0.056-0.045C10.32,7.78,10.3,7.763,10.279,7.747c-0.02-0.014-0.039-0.029-0.058-0.044
			c-0.021-0.016-0.044-0.032-0.065-0.048c-0.02-0.014-0.04-0.028-0.061-0.042c-0.022-0.015-0.045-0.03-0.068-0.046
			C10.006,7.554,9.987,7.54,9.965,7.527c-0.023-0.014-0.047-0.03-0.07-0.045C9.874,7.469,9.852,7.455,9.83,7.443
			C9.806,7.429,9.782,7.414,9.758,7.4C9.736,7.387,9.712,7.374,9.69,7.362C9.664,7.349,9.64,7.336,9.614,7.323
			C9.592,7.31,9.568,7.299,9.545,7.286C9.519,7.273,9.493,7.26,9.468,7.247C9.444,7.235,9.419,7.224,9.395,7.212
			C9.369,7.2,9.342,7.187,9.315,7.175C9.291,7.163,9.266,7.153,9.241,7.142C9.214,7.129,9.186,7.119,9.159,7.107
			c-0.025-0.011-0.051-0.021-0.077-0.03C9.054,7.065,9.026,7.056,8.997,7.045c-0.026-0.01-0.053-0.02-0.079-0.029
			c-0.029-0.011-0.059-0.02-0.089-0.03C8.802,6.976,8.775,6.967,8.747,6.959c-0.03-0.01-0.061-0.02-0.092-0.028
			C8.628,6.922,8.6,6.913,8.572,6.905C8.541,6.896,8.509,6.887,8.477,6.879C8.448,6.872,8.421,6.864,8.391,6.857
			C8.359,6.849,8.326,6.841,8.292,6.834c-0.029-0.007-0.058-0.013-0.087-0.02C8.171,6.806,8.138,6.799,8.104,6.792
			c-0.03-0.006-0.06-0.012-0.09-0.019c-0.035-0.006-0.07-0.013-0.106-0.02C7.878,6.75,7.847,6.745,7.817,6.74
			c-0.037-0.005-0.074-0.012-0.11-0.017C7.676,6.719,7.645,6.715,7.615,6.71C7.576,6.706,7.537,6.7,7.498,6.697
			c-0.03-0.004-0.061-0.008-0.092-0.012c-0.04-0.004-0.082-0.007-0.123-0.012c-0.03-0.003-0.061-0.005-0.092-0.008
			C7.148,6.662,7.104,6.66,7.06,6.658C7.03,6.655,7.002,6.653,6.971,6.652c-0.049-0.003-0.1-0.004-0.15-0.005
			C6.796,6.646,6.771,6.644,6.745,6.643C6.669,6.642,6.592,6.64,6.513,6.64c-0.083,0-0.164,0.001-0.245,0.004
			C6.24,6.644,6.214,6.646,6.186,6.647C6.134,6.649,6.081,6.651,6.029,6.653C5.998,6.655,5.966,6.658,5.935,6.659
			c-0.046,0.004-0.092,0.005-0.137,0.01c-0.033,0.004-0.065,0.006-0.099,0.01C5.656,6.683,5.614,6.687,5.572,6.692
			C5.539,6.696,5.506,6.7,5.472,6.705c-0.04,0.005-0.08,0.011-0.12,0.016c-0.033,0.004-0.066,0.01-0.099,0.015
			C5.215,6.742,5.177,6.748,5.139,6.755C5.106,6.76,5.073,6.766,5.04,6.772C5.004,6.78,4.968,6.787,4.933,6.794
			C4.9,6.801,4.867,6.808,4.835,6.815C4.8,6.824,4.765,6.831,4.731,6.839C4.699,6.847,4.666,6.855,4.634,6.863
			C4.601,6.872,4.568,6.881,4.535,6.89C4.503,6.899,4.471,6.908,4.44,6.918C4.409,6.926,4.377,6.935,4.347,6.945
			c-0.031,0.009-0.063,0.02-0.094,0.03c-0.03,0.01-0.06,0.02-0.089,0.03C4.132,7.015,4.101,7.027,4.07,7.039
			C4.041,7.049,4.014,7.059,3.985,7.07C3.954,7.082,3.923,7.094,3.893,7.106C3.866,7.117,3.84,7.128,3.813,7.139
			c-0.03,0.013-0.061,0.026-0.091,0.039c-0.025,0.011-0.05,0.022-0.075,0.034C3.617,7.226,3.587,7.241,3.557,7.255
			C3.534,7.267,3.511,7.278,3.487,7.29c-0.029,0.015-0.061,0.03-0.09,0.046C3.375,7.347,3.354,7.359,3.333,7.371
			c-0.03,0.017-0.061,0.033-0.091,0.05c-0.02,0.011-0.039,0.022-0.059,0.034C3.153,7.473,3.122,7.491,3.092,7.51
			c-0.017,0.01-0.034,0.021-0.052,0.032c-0.031,0.02-0.062,0.039-0.093,0.06c-0.014,0.01-0.028,0.02-0.044,0.029
			C2.872,7.652,2.84,7.674,2.808,7.697C2.798,7.705,2.787,7.712,2.775,7.72C2.742,7.745,2.707,7.77,2.673,7.795
			C2.669,7.8,2.662,7.804,2.657,7.809c-0.466,0.356-0.84,0.769-1.141,1.205l0,0l0,0c-0.959,1.387-1.167,2.991-1.167,3.65v0.32
			c0,1.814,0.607,3.288,1.821,4.42c1.214,1.132,2.804,1.697,4.767,1.697c1.049,0,2.029-0.196,2.94-0.588s1.615-0.921,2.112-1.584
			l-1.821-2.081c-0.71,0.855-1.696,1.28-2.957,1.28c-2.527,0-2.804-1.536-2.945-2.23h8.068V12.4
			C12.333,11.466,12.127,10.086,11.354,8.91L11.354,8.91z"/>
	</g>
	
		<linearGradient id="SVGID_1_" gradientUnits="userSpaceOnUse" x1="16.3217" y1="24.4759" x2="16.3217" y2="12.4645" gradientTransform="matrix(1 0 0 -1 0 31)">
		<stop  offset="0" style="stop-color:#FFFFFF"/>
		<stop  offset="0.3126" style="stop-color:#E2E1E0"/>
		<stop  offset="0.7198" style="stop-color:#C8C8C8"/>
		<stop  offset="0.9324" style="stop-color:#AFB0B1"/>
	</linearGradient>
	<path class="st2" d="M19.843,10.067l-1.21-0.087c-1.156,0-1.896,0.363-2.224,1.09v7.466h-3.673V6.742h3.444l0.12,1.514
		c0.618-1.156,1.479-1.732,2.583-1.732c0.393,0,0.734,0.044,1.025,0.131L19.843,10.067z"/>
	<g>
		
			<linearGradient id="SVGID_2_" gradientUnits="userSpaceOnUse" x1="25.8961" y1="24.6032" x2="25.8961" y2="12.1288" gradientTransform="matrix(1 0 0 -1 0 31)">
			<stop  offset="0" style="stop-color:#FFFFFF"/>
			<stop  offset="0.3126" style="stop-color:#E2E1E0"/>
			<stop  offset="0.7198" style="stop-color:#C8C8C8"/>
			<stop  offset="0.9324" style="stop-color:#AFB0B1"/>
		</linearGradient>
		<path class="st3" d="M25.987,15.642c-1.541,0-2.795-1.35-2.795-3.009c0-1.659,1.253-3.007,2.795-3.007
			c1.017,0,1.907,0.588,2.397,1.464h3.324c-0.651-2.697-2.964-4.693-5.72-4.693c-3.26,0-5.904,2.792-5.904,6.236
			s2.644,6.238,5.904,6.238c2.754,0,5.07-1.995,5.72-4.693h-3.324C27.894,15.055,27.004,15.642,25.987,15.642z"/>
	</g>
	<g>
		
			<linearGradient id="SVGID_3_" gradientUnits="userSpaceOnUse" x1="6.1122" y1="24.5908" x2="6.1122" y2="12.1288" gradientTransform="matrix(1 0 0 -1 0 31)">
			<stop  offset="0" style="stop-color:#FFFFFF"/>
			<stop  offset="0.3126" style="stop-color:#E2E1E0"/>
			<stop  offset="0.7198" style="stop-color:#C8C8C8"/>
			<stop  offset="0.9324" style="stop-color:#AFB0B1"/>
		</linearGradient>
		<path class="st4" d="M6.709,18.871c-1.964,0-3.553-0.566-4.767-1.698c-1.214-1.132-1.821-2.606-1.821-4.42v-0.32
			c0-1.265,0.764-6.024,6.164-6.024c4.943,0,5.821,3.831,5.821,5.76v1.497H4.035c0.142,0.694,0.419,2.23,2.945,2.23
			c1.262,0,2.248-0.427,2.957-1.28l1.821,2.081c-0.497,0.663-1.201,1.191-2.112,1.584C8.738,18.675,7.757,18.871,6.709,18.871z"/>
		<g>
			<path class="st5" d="M5.46,7.74c0.31,0,3.386,1.777,3.386,2.34c0,0.562-2.992,2.34-3.386,2.34C5.067,12.42,5.151,7.74,5.46,7.74z
				"/>
			<g>
				<path class="st6" d="M5.46,7.74c-0.039,0-0.075,0.076-0.107,0.208c0.394,0.057,3.365,1.783,3.365,2.337
					c0,0.021-0.005,0.045-0.013,0.069c0.089-0.108,0.141-0.202,0.141-0.274C8.845,9.517,5.769,7.74,5.46,7.74z"/>
			</g>
			<g>
				<path class="st7" d="M8.713,10.346c-0.003,0.003-0.004,0.004-0.006,0.007c0,0.001,0,0.001-0.001,0.002
					C8.708,10.351,8.71,10.349,8.713,10.346z"/>
				<path class="st7" d="M8.713,10.243c-0.6,0.733-2.966,2.113-3.316,2.113c-0.004,0-0.008-0.002-0.012-0.003
					c0.022,0.042,0.048,0.065,0.075,0.065c0.343,0,2.653-1.347,3.247-2.066c0.007-0.024,0.013-0.047,0.013-0.068
					C8.719,10.272,8.716,10.258,8.713,10.243z"/>
			</g>
		</g>
		<path class="st8" d="M6.283,6.41c-2.59,0-4.113,1.095-4.997,2.373c1.408,0.759,3.059,1.196,4.825,1.196
			c1.845,0,3.564-0.477,5.012-1.299C10.299,7.429,8.831,6.41,6.283,6.41z"/>
	</g>
</g>
<g>
	<polygon class="st7" points="36.565,12.533 34.249,12.533 34.249,10.776 36.263,10.776 36.263,10.468 34.249,10.468 34.249,8.842 
		36.55,8.842 36.55,8.534 33.884,8.534 33.884,12.84 36.565,12.84 	"/>
	<rect x="37.137" y="8.297" class="st7" width="0.356" height="4.543"/>
	<path class="st7" d="M38.804,12.698c0.22,0.134,0.465,0.201,0.738,0.201c0.496,0,0.872-0.188,1.134-0.565l-0.222-0.169
		c-0.119,0.152-0.25,0.263-0.395,0.331c-0.145,0.07-0.313,0.104-0.501,0.104c-0.315,0-0.577-0.121-0.785-0.362
		c-0.208-0.241-0.313-0.543-0.313-0.907v-0.068h2.283v-0.198c0-0.459-0.113-0.822-0.342-1.087c-0.228-0.265-0.536-0.398-0.924-0.398
		c-0.248,0-0.479,0.071-0.692,0.212c-0.213,0.141-0.38,0.335-0.498,0.581c-0.119,0.246-0.18,0.523-0.18,0.831v0.127
		c0,0.297,0.062,0.566,0.184,0.806C38.413,12.377,38.584,12.564,38.804,12.698z M38.804,10.175c0.182-0.196,0.406-0.293,0.673-0.293
		c0.268,0,0.485,0.096,0.651,0.289c0.166,0.193,0.253,0.444,0.264,0.751v0.038h-1.92C38.51,10.633,38.621,10.371,38.804,10.175z"/>
	<path class="st7" d="M43.693,11.853h-0.34c-0.014,0.222-0.105,0.401-0.271,0.54c-0.166,0.138-0.373,0.209-0.62,0.209
		c-0.322,0-0.57-0.114-0.747-0.343c-0.177-0.229-0.264-0.547-0.264-0.956v-0.104c0-0.416,0.088-0.74,0.264-0.97
		c0.177-0.23,0.424-0.346,0.744-0.346c0.251,0,0.458,0.077,0.623,0.23c0.164,0.155,0.255,0.356,0.271,0.607h0.34
		c-0.015-0.341-0.138-0.616-0.365-0.825C43.1,9.686,42.811,9.581,42.46,9.581c-0.275,0-0.517,0.066-0.724,0.197
		c-0.206,0.133-0.364,0.32-0.475,0.563c-0.11,0.242-0.166,0.522-0.166,0.837v0.106c0,0.493,0.123,0.885,0.369,1.177
		c0.246,0.292,0.579,0.438,0.998,0.438c0.213,0,0.413-0.046,0.599-0.137c0.186-0.09,0.336-0.216,0.447-0.377
		C43.622,12.225,43.683,12.047,43.693,11.853z"/>
	<path class="st7" d="M44.444,12.065c0,0.274,0.055,0.481,0.166,0.623c0.11,0.141,0.287,0.212,0.53,0.212
		c0.159,0,0.286-0.017,0.378-0.05l-0.014-0.288c-0.133,0.019-0.228,0.029-0.287,0.029c-0.149,0-0.257-0.043-0.321-0.13
		c-0.064-0.087-0.096-0.219-0.096-0.397V9.93h0.663v-0.29h-0.663v-0.82h-0.356V9.64h-0.589v0.289h0.589V12.065L44.444,12.065z"/>
	<path class="st7" d="M47.282,9.921c0.085,0,0.164,0.007,0.24,0.021L47.53,9.62c-0.057-0.026-0.135-0.038-0.233-0.038
		c-0.414,0-0.715,0.189-0.902,0.568l-0.006-0.508h-0.346v3.2h0.352v-2.198c0.066-0.234,0.173-0.414,0.327-0.536
		C46.875,9.982,47.062,9.921,47.282,9.921z"/>
	<path class="st7" d="M50.354,12.125c0.119-0.247,0.18-0.525,0.18-0.835v-0.074c0-0.493-0.133-0.889-0.397-1.188
		c-0.264-0.299-0.609-0.447-1.035-0.447c-0.276,0-0.523,0.068-0.74,0.205c-0.218,0.137-0.387,0.329-0.505,0.575
		c-0.119,0.246-0.18,0.523-0.18,0.831v0.071c0,0.493,0.133,0.889,0.398,1.188c0.265,0.299,0.61,0.447,1.034,0.447
		c0.278,0,0.525-0.067,0.741-0.201C50.066,12.564,50.234,12.374,50.354,12.125z M49.107,12.6c-0.322,0-0.581-0.123-0.779-0.368
		c-0.197-0.246-0.297-0.559-0.297-0.942v-0.064c0-0.4,0.099-0.724,0.299-0.972c0.2-0.247,0.456-0.371,0.772-0.371
		c0.211,0,0.398,0.055,0.563,0.167c0.163,0.112,0.291,0.269,0.381,0.472c0.09,0.204,0.137,0.427,0.137,0.671v0.068
		c0,0.403-0.099,0.726-0.297,0.972C49.684,12.477,49.426,12.6,49.107,12.6z"/>
	<path class="st7" d="M52.991,10.098c0.119,0.14,0.18,0.353,0.182,0.639v2.103h0.352v-2.1c-0.003-0.387-0.087-0.677-0.255-0.87
		c-0.168-0.193-0.423-0.289-0.766-0.289c-0.217,0-0.415,0.052-0.594,0.155c-0.18,0.104-0.33,0.254-0.449,0.451L51.45,9.639h-0.338
		v3.2h0.352V10.65c0.081-0.233,0.205-0.417,0.374-0.554C52.007,9.958,52.2,9.89,52.419,9.89
		C52.681,9.889,52.871,9.959,52.991,10.098z"/>
	<rect x="54.328" y="9.64" class="st7" width="0.356" height="3.2"/>
	<path class="st7" d="M54.508,8.477c-0.075,0-0.134,0.023-0.177,0.07c-0.043,0.046-0.066,0.103-0.066,0.169s0.021,0.122,0.066,0.167
		c0.043,0.046,0.103,0.068,0.177,0.068s0.135-0.022,0.18-0.068c0.045-0.046,0.066-0.101,0.066-0.167
		c0-0.066-0.021-0.123-0.066-0.169C54.643,8.501,54.584,8.477,54.508,8.477z"/>
	<path class="st7" d="M55.929,10.228c0.177-0.23,0.424-0.346,0.744-0.346c0.251,0,0.458,0.077,0.623,0.23
		c0.164,0.155,0.255,0.356,0.271,0.607h0.34c-0.015-0.341-0.138-0.616-0.365-0.825c-0.228-0.209-0.517-0.313-0.868-0.313
		c-0.275,0-0.517,0.066-0.724,0.197c-0.206,0.133-0.364,0.32-0.475,0.563c-0.11,0.242-0.166,0.522-0.166,0.837v0.106
		c0,0.493,0.123,0.885,0.369,1.177c0.246,0.292,0.579,0.438,0.998,0.438c0.213,0,0.413-0.046,0.599-0.137
		c0.186-0.09,0.336-0.216,0.447-0.377c0.113-0.161,0.173-0.339,0.183-0.534h-0.34c-0.014,0.222-0.105,0.401-0.271,0.54
		c-0.166,0.139-0.373,0.209-0.62,0.209c-0.322,0-0.57-0.114-0.747-0.343c-0.177-0.229-0.264-0.547-0.264-0.956v-0.103
		C55.663,10.783,55.753,10.459,55.929,10.228z"/>
	<path class="st7" d="M36.885,15.978c0.127-0.197,0.191-0.441,0.191-0.735c0-0.414-0.138-0.734-0.414-0.961
		c-0.275-0.226-0.668-0.34-1.177-0.34h-1.6v4.306h0.887v-1.576h0.706l0.807,1.576h0.952v-0.041l-0.931-1.76
		C36.565,16.33,36.757,16.173,36.885,15.978z M36.005,15.781c-0.122,0.113-0.295,0.17-0.518,0.17h-0.716v-1.293h0.713
		c0.239,0,0.416,0.059,0.532,0.174c0.115,0.116,0.173,0.275,0.173,0.479C36.188,15.512,36.126,15.668,36.005,15.781z"/>
	<path class="st7" d="M38.92,14.988c-0.292,0-0.551,0.068-0.779,0.205c-0.228,0.137-0.403,0.332-0.528,0.585
		c-0.124,0.253-0.186,0.54-0.186,0.862v0.082c0,0.479,0.147,0.863,0.442,1.15c0.295,0.289,0.677,0.431,1.146,0.431
		c0.266,0,0.508-0.05,0.727-0.153c0.219-0.101,0.392-0.243,0.521-0.424l-0.42-0.47c-0.186,0.239-0.442,0.358-0.772,0.358
		c-0.213,0-0.389-0.063-0.528-0.189c-0.139-0.126-0.222-0.293-0.25-0.503h2.037v-0.349c0-0.507-0.126-0.898-0.377-1.174
		C39.703,15.126,39.358,14.988,38.92,14.988z M39.491,16.342h-1.189c0.029-0.214,0.097-0.378,0.202-0.493
		c0.105-0.114,0.243-0.172,0.413-0.172c0.181,0,0.322,0.052,0.42,0.155c0.099,0.105,0.149,0.251,0.154,0.44V16.342L39.491,16.342z"
		/>
	<path class="st7" d="M42.55,16.466c-0.146-0.053-0.325-0.101-0.539-0.144c-0.213-0.042-0.364-0.093-0.454-0.151
		c-0.09-0.059-0.135-0.135-0.135-0.229c0-0.1,0.039-0.184,0.119-0.248c0.079-0.066,0.19-0.097,0.334-0.097
		c0.167,0,0.29,0.039,0.37,0.12c0.079,0.08,0.119,0.18,0.119,0.303h0.855c0-0.306-0.121-0.554-0.365-0.745
		c-0.244-0.191-0.568-0.287-0.974-0.287c-0.38,0-0.688,0.095-0.924,0.285c-0.236,0.19-0.353,0.427-0.353,0.711
		c0,0.487,0.38,0.811,1.142,0.97c0.229,0.047,0.395,0.101,0.498,0.162c0.104,0.06,0.155,0.142,0.155,0.246
		c0,0.101-0.042,0.182-0.126,0.244C42.187,17.669,42.064,17.7,41.9,17.7c-0.175,0-0.315-0.04-0.42-0.121s-0.161-0.197-0.169-0.349
		h-0.811c0,0.193,0.059,0.373,0.177,0.54c0.119,0.168,0.281,0.297,0.49,0.394c0.208,0.096,0.447,0.144,0.715,0.144
		c0.397,0,0.719-0.09,0.97-0.271s0.375-0.416,0.375-0.708C43.228,16.919,43.002,16.633,42.55,16.466z"/>
	<path class="st7" d="M46.063,15.384c-0.273-0.264-0.625-0.397-1.058-0.397c-0.304,0-0.57,0.068-0.799,0.204
		c-0.23,0.137-0.406,0.329-0.528,0.577c-0.122,0.248-0.183,0.532-0.183,0.849v0.038c0,0.508,0.138,0.911,0.413,1.207
		c0.275,0.296,0.643,0.444,1.105,0.444c0.461,0,0.829-0.148,1.103-0.445s0.411-0.69,0.411-1.181l-0.006-0.219
		C46.488,16.007,46.336,15.648,46.063,15.384z M45.496,17.378c-0.116,0.159-0.278,0.239-0.485,0.239c-0.213,0-0.377-0.08-0.49-0.241
		c-0.114-0.161-0.172-0.394-0.172-0.698c0-0.342,0.057-0.593,0.172-0.757c0.114-0.163,0.276-0.244,0.485-0.244
		c0.211,0,0.374,0.081,0.49,0.246c0.116,0.163,0.174,0.395,0.174,0.693C45.67,16.966,45.612,17.219,45.496,17.378z"/>
	<path class="st7" d="M48.787,17.315c-0.108,0.202-0.307,0.302-0.598,0.302c-0.304,0-0.456-0.166-0.456-0.501v-2.07h-0.855v2.097
		c0.004,0.38,0.096,0.67,0.276,0.866c0.18,0.197,0.442,0.296,0.785,0.296c0.373,0,0.665-0.129,0.875-0.385l0.023,0.325h0.804v-3.2
		h-0.857L48.787,17.315L48.787,17.315z"/>
	<path class="st7" d="M50.969,15.429l-0.023-0.381h-0.806v3.2h0.855v-2.094c0.101-0.219,0.313-0.329,0.636-0.329
		c0.088,0,0.191,0.008,0.307,0.023l0.012-0.822c-0.082-0.026-0.172-0.038-0.266-0.038C51.378,14.988,51.141,15.135,50.969,15.429z"
		/>
	<path class="st7" d="M53.014,15.895c0.101-0.145,0.251-0.218,0.451-0.218c0.162,0,0.292,0.052,0.39,0.155
		c0.099,0.105,0.149,0.24,0.154,0.406h0.801c-0.004-0.378-0.127-0.681-0.369-0.909c-0.241-0.228-0.563-0.342-0.962-0.342
		c-0.457,0-0.817,0.147-1.079,0.44c-0.263,0.293-0.394,0.687-0.394,1.18v0.056c0,0.512,0.133,0.914,0.397,1.205
		c0.264,0.29,0.625,0.436,1.083,0.436c0.244,0,0.468-0.05,0.67-0.149c0.202-0.099,0.362-0.24,0.477-0.42
		c0.116-0.18,0.175-0.38,0.177-0.596h-0.801c-0.004,0.144-0.055,0.26-0.154,0.346c-0.099,0.087-0.226,0.13-0.385,0.13
		c-0.205,0-0.358-0.071-0.458-0.216c-0.1-0.144-0.151-0.381-0.151-0.711v-0.088C52.861,16.275,52.913,16.039,53.014,15.895z"/>
	<path class="st7" d="M56.525,14.988c-0.292,0-0.551,0.068-0.779,0.205c-0.228,0.137-0.403,0.332-0.528,0.585
		c-0.124,0.253-0.186,0.54-0.186,0.862v0.082c0,0.479,0.147,0.863,0.442,1.15c0.295,0.289,0.677,0.431,1.146,0.431
		c0.266,0,0.508-0.05,0.727-0.153c0.219-0.101,0.392-0.243,0.521-0.424l-0.42-0.47c-0.186,0.239-0.442,0.358-0.772,0.358
		c-0.213,0-0.389-0.063-0.528-0.189c-0.139-0.126-0.222-0.293-0.25-0.503h2.037v-0.349c0-0.507-0.126-0.898-0.377-1.174
		C57.308,15.126,56.963,14.988,56.525,14.988z M57.096,16.342h-1.189c0.029-0.214,0.097-0.378,0.202-0.493
		c0.105-0.114,0.243-0.172,0.413-0.172c0.181,0,0.322,0.052,0.42,0.155c0.099,0.105,0.149,0.251,0.155,0.44L57.096,16.342
		L57.096,16.342L57.096,16.342z"/>
	<path class="st7" d="M60.678,14.927c0.147-0.212,0.369-0.318,0.665-0.318c0.272,0,0.475,0.063,0.607,0.188
		c0.133,0.126,0.211,0.327,0.232,0.605h0.887c-0.047-0.481-0.222-0.855-0.526-1.121c-0.304-0.266-0.704-0.399-1.201-0.399
		c-0.359,0-0.673,0.084-0.944,0.253c-0.271,0.168-0.48,0.41-0.625,0.726c-0.146,0.315-0.219,0.681-0.219,1.094v0.264
		c0,0.648,0.158,1.159,0.475,1.53c0.316,0.371,0.75,0.557,1.303,0.557c0.505,0,0.911-0.133,1.22-0.399
		c0.308-0.266,0.48-0.631,0.514-1.094h-0.887c-0.02,0.263-0.097,0.456-0.232,0.581c-0.135,0.126-0.339,0.188-0.614,0.188
		c-0.304,0-0.525-0.107-0.666-0.322c-0.141-0.215-0.212-0.556-0.212-1.02v-0.325C60.454,15.468,60.53,15.139,60.678,14.927z"/>
	<path class="st7" d="M64.816,14.988c-0.292,0-0.551,0.068-0.779,0.205c-0.228,0.137-0.403,0.332-0.528,0.585
		c-0.124,0.253-0.186,0.54-0.186,0.862v0.082c0,0.479,0.147,0.863,0.442,1.15c0.295,0.289,0.677,0.431,1.146,0.431
		c0.267,0,0.508-0.05,0.727-0.153c0.219-0.101,0.392-0.243,0.521-0.424l-0.42-0.47c-0.186,0.239-0.442,0.358-0.772,0.358
		c-0.213,0-0.389-0.063-0.528-0.189c-0.139-0.126-0.222-0.293-0.25-0.503h2.037v-0.349c0-0.507-0.126-0.898-0.377-1.174
		C65.598,15.126,65.254,14.988,64.816,14.988z M65.387,16.342h-1.189c0.029-0.214,0.097-0.378,0.202-0.493
		c0.105-0.114,0.243-0.172,0.413-0.172c0.181,0,0.322,0.052,0.42,0.155c0.099,0.105,0.149,0.251,0.155,0.44L65.387,16.342
		L65.387,16.342L65.387,16.342z"/>
	<path class="st7" d="M68.293,14.988c-0.385,0-0.691,0.144-0.92,0.429l-0.027-0.37h-0.804v3.2h0.855v-2.262
		c0.12-0.205,0.3-0.308,0.541-0.308c0.183,0,0.314,0.041,0.394,0.123c0.079,0.081,0.119,0.214,0.119,0.396v2.051h0.855v-2.068
		c-0.004-0.397-0.088-0.694-0.255-0.893C68.885,15.087,68.633,14.988,68.293,14.988z"/>
	<path class="st7" d="M70.893,17.525c-0.046-0.052-0.068-0.137-0.068-0.255v-1.597h0.547v-0.627h-0.547v-0.786h-0.855v0.786h-0.467
		v0.627h0.467v1.724c0.012,0.605,0.318,0.907,0.916,0.907c0.177,0,0.349-0.026,0.518-0.077v-0.648
		c-0.073,0.014-0.156,0.021-0.251,0.021C71.024,17.603,70.939,17.577,70.893,17.525z"/>
	<path class="st7" d="M73.074,14.988c-0.292,0-0.551,0.068-0.779,0.205c-0.228,0.137-0.403,0.332-0.528,0.585
		c-0.124,0.253-0.186,0.54-0.186,0.862v0.082c0,0.479,0.147,0.863,0.442,1.15c0.296,0.289,0.677,0.431,1.146,0.431
		c0.267,0,0.508-0.05,0.727-0.153c0.219-0.101,0.392-0.243,0.521-0.424l-0.42-0.47c-0.186,0.239-0.442,0.358-0.772,0.358
		c-0.213,0-0.389-0.063-0.528-0.189c-0.139-0.126-0.222-0.293-0.25-0.503h2.037v-0.349c0-0.507-0.126-0.898-0.377-1.174
		C73.857,15.126,73.512,14.988,73.074,14.988z M73.645,16.342h-1.189c0.029-0.214,0.097-0.378,0.202-0.493
		c0.105-0.114,0.243-0.172,0.413-0.172c0.181,0,0.322,0.052,0.42,0.155c0.099,0.105,0.149,0.251,0.155,0.44L73.645,16.342
		L73.645,16.342L73.645,16.342z"/>
	<path class="st7" d="M76.363,14.988c-0.304,0-0.541,0.147-0.713,0.44l-0.023-0.381H74.82v3.2h0.855v-2.094
		c0.1-0.219,0.313-0.329,0.636-0.329c0.088,0,0.191,0.008,0.307,0.023l0.012-0.822C76.545,15.001,76.457,14.988,76.363,14.988z"/>
</g>
</svg>
