<?xml version="1.0" encoding="utf-8"?>
<!-- Generator: Adobe Illustrator 21.1.0, SVG Export Plug-In . SVG Version: 6.00 Build 0)  -->
<svg version="1.1" id="Layer_1" xmlns="http://www.w3.org/2000/svg" xmlns:xlink="http://www.w3.org/1999/xlink" x="0px" y="0px"
	 viewBox="0 0 100 23" style="enable-background:new 0 0 100 23;" xml:space="preserve">
<style type="text/css">
	.st0{fill:#50C5DD;}
	.st1{opacity:0.46;}
	.st2{opacity:0.33;fill:#5C6A75;enable-background:new    ;}
	.st3{fill:url(#SVGID_1_);}
	.st4{fill:url(#SVGID_2_);}
	.st5{fill:url(#SVGID_3_);}
	.st6{opacity:0.44;fill:#FFFFFF;enable-background:new    ;}
	.st7{fill:#2EA8D6;}
	.st8{opacity:0.33;fill:#FFFFFF;enable-background:new    ;}
	.st9{fill:#FFFFFF;}
</style>
<g>
	<path class="st0" d="M13.732,5.547H0.717c-0.188,0-0.342,0.154-0.342,0.342v1.842c0,0.188,0.154,0.342,0.342,0.342h13.015
		c0.188,0,0.342-0.154,0.342-0.342V5.89C14.075,5.702,13.921,5.547,13.732,5.547z"/>
	<path class="st0" d="M13.732,9.51H0.717c-0.188,0-0.342,0.154-0.342,0.342v1.84c0,0.188,0.154,0.342,0.342,0.342h13.015
		c0.188,0,0.342-0.154,0.342-0.342v-1.84C14.075,9.664,13.921,9.51,13.732,9.51z"/>
	<path class="st0" d="M13.732,13.559H0.717c-0.188,0-0.342,0.154-0.342,0.342v1.84c0,0.188,0.154,0.342,0.342,0.342h13.015
		c0.188,0,0.342-0.154,0.342-0.342v-1.84C14.075,13.713,13.921,13.559,13.732,13.559z"/>
</g>
<g>
	<g class="st1">
		<path class="st2" d="M39.972,5.349v2.883c-0.522-0.279-1.116-0.438-1.748-0.438c-2.061,0-3.731,1.685-3.731,3.764
			s1.67,3.764,3.731,3.764c0.632,0,1.226-0.159,1.748-0.438v0.438h1.983V5.349H39.972z M38.267,13.328
			c-0.942,0-1.706-0.771-1.706-1.723c0.001-0.952,0.765-1.723,1.706-1.723c0.942,0,1.706,0.771,1.706,1.723
			C39.972,12.556,39.208,13.328,38.267,13.328z"/>
		<path class="st2" d="M30.677,8.066c-0.632,0-1.226,0.159-1.748,0.438V8.066h-1.983v9.973h1.983v-2.883
			c0.522,0.279,1.116,0.438,1.748,0.438c2.061,0,3.731-1.685,3.731-3.764S32.738,8.066,30.677,8.066z M30.636,13.504
			c-0.942,0-1.706-0.771-1.706-1.722c0-0.95,0.765-1.722,1.706-1.722c0.942,0,1.706,0.771,1.706,1.722
			C32.342,12.733,31.578,13.504,30.636,13.504z"/>
		<path class="st2" d="M26.411,9.419c-0.002-0.004-0.004-0.009-0.006-0.013c-0.018-0.044-0.04-0.088-0.059-0.132
			c-0.044-0.099-0.09-0.196-0.139-0.293c-0.028-0.053-0.056-0.107-0.087-0.16c-0.049-0.088-0.102-0.175-0.155-0.26
			c-0.029-0.046-0.057-0.093-0.088-0.138c-0.084-0.123-0.169-0.241-0.262-0.356c-0.025-0.031-0.052-0.06-0.077-0.09
			c-0.073-0.088-0.15-0.173-0.228-0.256c-0.039-0.041-0.078-0.079-0.119-0.119c-0.074-0.072-0.151-0.144-0.229-0.211
			c-0.039-0.033-0.076-0.068-0.116-0.101c-0.115-0.096-0.234-0.187-0.357-0.272c-0.021-0.015-0.045-0.028-0.067-0.043
			c-0.106-0.07-0.214-0.138-0.325-0.2c-0.044-0.025-0.09-0.048-0.134-0.072c-0.098-0.052-0.196-0.1-0.297-0.146
			c-0.044-0.02-0.087-0.041-0.131-0.058c-0.142-0.06-0.287-0.115-0.435-0.161c-0.013-0.004-0.025-0.006-0.038-0.01
			c-0.138-0.042-0.278-0.078-0.42-0.111c-0.047-0.01-0.096-0.019-0.142-0.028c-0.115-0.021-0.23-0.04-0.347-0.053
			c-0.048-0.006-0.096-0.012-0.144-0.017c-0.163-0.017-0.325-0.028-0.49-0.028c-0.166,0-0.331,0.01-0.493,0.025
			c-0.051,0.005-0.101,0.013-0.15,0.018c-0.114,0.014-0.226,0.03-0.337,0.051c-0.053,0.01-0.107,0.021-0.16,0.033
			c-0.115,0.026-0.227,0.056-0.337,0.089c-0.042,0.013-0.086,0.023-0.128,0.037c-0.15,0.048-0.297,0.103-0.44,0.163
			c-0.028,0.012-0.055,0.026-0.083,0.038c-0.116,0.052-0.228,0.107-0.34,0.167c-0.048,0.025-0.095,0.053-0.141,0.079
			c-0.091,0.052-0.179,0.107-0.266,0.164c-0.047,0.031-0.094,0.062-0.14,0.095c-0.092,0.065-0.18,0.134-0.268,0.204
			c-0.033,0.028-0.069,0.053-0.103,0.083c-0.115,0.097-0.224,0.199-0.33,0.305C17.77,7.68,17.735,7.719,17.7,7.758
			c-0.07,0.074-0.139,0.151-0.204,0.228c-0.041,0.049-0.079,0.099-0.12,0.15c-0.057,0.073-0.113,0.15-0.166,0.227
			c-0.037,0.052-0.073,0.104-0.109,0.158c-0.059,0.092-0.115,0.186-0.168,0.282c-0.029,0.051-0.059,0.103-0.088,0.155
			c-0.062,0.12-0.121,0.243-0.174,0.369c-0.025,0.059-0.048,0.121-0.071,0.181c-0.021,0.056-0.045,0.111-0.065,0.167
			c0.002,0.001,0.002,0.002,0.004,0.002c-0.196,0.561-0.308,1.163-0.308,1.794c0,2.971,2.368,5.381,5.289,5.381
			s5.289-2.409,5.289-5.381C26.811,10.745,26.668,10.052,26.411,9.419C26.41,9.419,26.411,9.419,26.411,9.419z"/>
	</g>
	<g>
		
			<linearGradient id="SVGID_1_" gradientUnits="userSpaceOnUse" x1="21.4369" y1="64.7216" x2="21.4369" y2="75.4833" gradientTransform="matrix(1 0 0 1 0 -58.8)">
			<stop  offset="0" style="stop-color:#FFFFFF"/>
			<stop  offset="0.3126" style="stop-color:#E2E1E0"/>
			<stop  offset="0.4767" style="stop-color:#E0E0DF"/>
			<stop  offset="0.7198" style="stop-color:#C8C8C8"/>
		</linearGradient>
		<path class="st3" d="M20.286,8.398c0.386,0,4.223,2.217,4.223,2.918c0,0.7-3.733,2.918-4.223,2.918
			C19.796,14.235,19.9,8.398,20.286,8.398z M21.437,5.922c2.921,0,5.289,2.41,5.289,5.381s-2.368,5.381-5.289,5.381
			s-5.289-2.41-5.289-5.382S18.516,5.922,21.437,5.922z"/>
		
			<linearGradient id="SVGID_2_" gradientUnits="userSpaceOnUse" x1="38.1399" y1="-70.0209" x2="38.1399" y2="-51.3526" gradientTransform="matrix(1 0 0 1 0 75.2)">
			<stop  offset="0" style="stop-color:#FFFFFF"/>
			<stop  offset="0.1656" style="stop-color:#EAEAEA"/>
			<stop  offset="0.6628" style="stop-color:#B6B8B8"/>
		</linearGradient>
		<path class="st4" d="M38.181,9.713c0.942,0,1.706,0.771,1.706,1.723s-0.764,1.723-1.706,1.723s-1.706-0.771-1.706-1.723
			C36.476,10.483,37.239,9.713,38.181,9.713z M39.888,5.179v2.883c-0.522-0.279-1.116-0.438-1.748-0.438
			c-2.061,0-3.731,1.685-3.731,3.764s1.67,3.764,3.731,3.764c0.632,0,1.225-0.159,1.748-0.438v0.438h1.983V5.179H39.888z"/>
		
			<linearGradient id="SVGID_3_" gradientUnits="userSpaceOnUse" x1="30.5928" y1="-67.3033" x2="30.5928" y2="-50.8418" gradientTransform="matrix(1 0 0 1 0 75.2)">
			<stop  offset="0" style="stop-color:#FFFFFF"/>
			<stop  offset="0.2611" style="stop-color:#D4D5D5"/>
			<stop  offset="0.6575" style="stop-color:#B9BBBB"/>
			<stop  offset="0.8092" style="stop-color:#B6B8B8"/>
		</linearGradient>
		<path class="st5" d="M30.551,9.891c0.942,0,1.706,0.771,1.706,1.722s-0.764,1.722-1.706,1.722s-1.706-0.771-1.706-1.722
			S29.61,9.891,30.551,9.891z M30.593,7.897c-0.632,0-1.226,0.159-1.748,0.438V7.897h-1.983v9.974h1.983v-2.883
			c0.522,0.279,1.116,0.438,1.748,0.438c2.061,0,3.731-1.685,3.731-3.764S32.653,7.897,30.593,7.897z"/>
		<path class="st6" d="M21.437,5.922c-2.302,0-4.259,1.496-4.986,3.585c0.914,0.66,2.135,1.128,3.514,1.309
			c0.034-1.275,0.15-2.417,0.32-2.417c0.286,0,2.459,1.213,3.571,2.128c0.974-0.288,1.821-0.728,2.469-1.277
			C25.533,7.296,23.643,5.922,21.437,5.922z"/>
		<path class="st0" d="M20.286,8.398c0.386,0,4.223,2.217,4.223,2.918c0,0.7-3.733,2.918-4.223,2.918
			C19.796,14.235,19.9,8.398,20.286,8.398z"/>
		<g>
			<path class="st7" d="M20.286,8.398c-0.048,0-0.094,0.095-0.133,0.26c0.491,0.071,4.199,2.225,4.199,2.915
				c0,0.026-0.007,0.055-0.017,0.087c0.111-0.134,0.175-0.252,0.175-0.342C24.509,10.614,20.671,8.398,20.286,8.398z"/>
		</g>
		<path class="st8" d="M19.966,10.816c0.407,0.053,0.828,0.081,1.259,0.081c0.938,0,1.828-0.133,2.632-0.37
			C22.745,9.612,20.572,8.4,20.286,8.4C20.116,8.398,20,9.542,19.966,10.816z"/>
	</g>
	<g>
		<path class="st9" d="M47.686,6.818h-1.228v3.326h-0.303V6.818h-1.225V6.563h2.756v0.256H47.686z"/>
		<path class="st9" d="M48.361,7.933c0.097-0.159,0.221-0.282,0.371-0.369c0.151-0.088,0.316-0.13,0.494-0.13
			c0.286,0,0.498,0.08,0.637,0.241c0.14,0.161,0.21,0.401,0.211,0.723v1.747h-0.293V8.395c-0.001-0.237-0.051-0.415-0.151-0.532
			c-0.099-0.117-0.258-0.174-0.477-0.174c-0.182,0-0.343,0.057-0.484,0.171c-0.141,0.114-0.243,0.268-0.311,0.462v1.823h-0.293
			v-3.78h0.293v1.568L48.361,7.933L48.361,7.933z"/>
		<path class="st9" d="M51.74,10.194c-0.226,0-0.431-0.056-0.614-0.168C50.943,9.914,50.801,9.759,50.7,9.56
			c-0.102-0.199-0.153-0.423-0.153-0.67V8.784c0-0.256,0.049-0.487,0.149-0.691c0.099-0.205,0.237-0.366,0.415-0.484
			c0.177-0.118,0.369-0.176,0.576-0.176c0.323,0,0.58,0.111,0.769,0.331c0.189,0.221,0.284,0.522,0.284,0.905v0.165h-1.899v0.057
			c0,0.302,0.087,0.552,0.259,0.755c0.172,0.2,0.39,0.302,0.653,0.302c0.157,0,0.297-0.029,0.417-0.087
			c0.12-0.057,0.229-0.149,0.329-0.276l0.184,0.14C52.465,10.038,52.151,10.194,51.74,10.194z M51.686,7.684
			c-0.221,0-0.408,0.081-0.559,0.243c-0.151,0.162-0.243,0.38-0.277,0.654h1.597V8.55c-0.009-0.256-0.082-0.464-0.219-0.625
			C52.09,7.765,51.909,7.684,51.686,7.684z"/>
		<path class="st9" d="M56.328,8.469h-1.671v1.676h-0.303V6.563h2.22v0.256h-1.917v1.397h1.671L56.328,8.469L56.328,8.469z"/>
		<path class="st9" d="M58.652,9.808c-0.177,0.257-0.461,0.385-0.848,0.385c-0.284,0-0.499-0.083-0.647-0.248
			c-0.147-0.165-0.223-0.409-0.226-0.731V7.483h0.293v1.695c0,0.507,0.205,0.76,0.616,0.76c0.427,0,0.696-0.176,0.809-0.529V7.484
			h0.296v2.662h-0.285L58.652,9.808z"/>
		<path class="st9" d="M61.176,9.468c0-0.146-0.059-0.264-0.176-0.352c-0.117-0.089-0.295-0.158-0.531-0.207
			c-0.235-0.049-0.419-0.107-0.549-0.172c-0.13-0.065-0.226-0.144-0.291-0.237c-0.063-0.093-0.095-0.206-0.095-0.339
			c0-0.21,0.088-0.384,0.264-0.52c0.175-0.137,0.399-0.205,0.674-0.205c0.298,0,0.535,0.073,0.714,0.22
			c0.18,0.147,0.27,0.338,0.27,0.575H61.16c0-0.155-0.065-0.286-0.196-0.387c-0.13-0.104-0.295-0.155-0.493-0.155
			c-0.194,0-0.349,0.043-0.466,0.129c-0.118,0.087-0.176,0.198-0.176,0.336c0,0.133,0.049,0.235,0.146,0.309
			c0.097,0.073,0.277,0.14,0.534,0.199c0.258,0.061,0.452,0.126,0.581,0.195c0.129,0.068,0.225,0.151,0.286,0.249
			c0.063,0.097,0.093,0.214,0.093,0.352c0,0.225-0.092,0.404-0.273,0.538c-0.181,0.134-0.418,0.201-0.709,0.201
			c-0.31,0-0.561-0.075-0.755-0.225c-0.193-0.15-0.29-0.34-0.29-0.569h0.296c0.011,0.172,0.084,0.306,0.217,0.401
			c0.134,0.096,0.31,0.145,0.531,0.145c0.205,0,0.371-0.045,0.497-0.136C61.113,9.72,61.176,9.607,61.176,9.468z"/>
		<path class="st9" d="M61.99,6.714c0-0.055,0.018-0.103,0.054-0.141c0.036-0.038,0.086-0.057,0.147-0.057
			c0.063,0,0.113,0.019,0.149,0.057c0.037,0.038,0.055,0.086,0.055,0.141s-0.018,0.102-0.054,0.139
			c-0.037,0.038-0.087,0.056-0.149,0.056c-0.063,0-0.112-0.018-0.147-0.056C62.009,6.816,61.99,6.77,61.99,6.714z M62.338,10.144
			h-0.296V7.483h0.296V10.144z"/>
		<path class="st9" d="M62.848,8.775c0-0.256,0.049-0.487,0.149-0.691c0.099-0.205,0.239-0.365,0.421-0.479
			c0.181-0.115,0.386-0.171,0.617-0.171c0.354,0,0.641,0.124,0.86,0.373c0.221,0.249,0.331,0.579,0.331,0.988v0.061
			c0,0.257-0.049,0.49-0.149,0.695c-0.099,0.205-0.239,0.364-0.419,0.476c-0.18,0.112-0.385,0.168-0.618,0.168
			c-0.353,0-0.64-0.124-0.86-0.373c-0.221-0.249-0.331-0.578-0.331-0.988L62.848,8.775L62.848,8.775z M63.143,8.856
			c0,0.318,0.083,0.58,0.248,0.784c0.165,0.203,0.381,0.306,0.649,0.306c0.266,0,0.481-0.103,0.646-0.306
			c0.165-0.204,0.248-0.474,0.248-0.808V8.774c0-0.203-0.038-0.389-0.114-0.558c-0.075-0.169-0.181-0.3-0.317-0.391
			c-0.136-0.093-0.292-0.14-0.467-0.14c-0.263,0-0.477,0.103-0.643,0.308c-0.166,0.206-0.249,0.475-0.249,0.808
			C63.143,8.801,63.143,8.856,63.143,8.856z"/>
		<path class="st9" d="M65.988,7.483l0.01,0.456c0.1-0.165,0.225-0.29,0.374-0.375c0.149-0.087,0.314-0.13,0.494-0.13
			c0.286,0,0.498,0.08,0.637,0.241c0.14,0.161,0.21,0.401,0.211,0.723v1.747h-0.293V8.395c-0.002-0.237-0.052-0.415-0.151-0.532
			c-0.099-0.117-0.258-0.174-0.477-0.174c-0.182,0-0.343,0.057-0.484,0.171c-0.141,0.114-0.243,0.268-0.311,0.462v1.823h-0.293
			V7.482C65.706,7.483,65.988,7.483,65.988,7.483z"/>
		<path class="st9" d="M69.285,8.775c0-0.256,0.049-0.487,0.149-0.691c0.099-0.205,0.239-0.365,0.421-0.479
			c0.181-0.115,0.386-0.171,0.617-0.171c0.354,0,0.641,0.124,0.861,0.373c0.219,0.249,0.33,0.578,0.33,0.988v0.061
			c0,0.257-0.049,0.49-0.148,0.695c-0.099,0.205-0.239,0.364-0.42,0.476c-0.18,0.112-0.385,0.168-0.618,0.168
			c-0.353,0-0.64-0.124-0.86-0.373c-0.221-0.249-0.331-0.578-0.331-0.988V8.775H69.285z M69.581,8.856
			c0,0.318,0.083,0.58,0.248,0.784c0.165,0.203,0.381,0.306,0.649,0.306c0.266,0,0.481-0.103,0.647-0.306
			c0.165-0.204,0.248-0.474,0.248-0.808V8.774c0-0.203-0.038-0.389-0.114-0.558s-0.18-0.3-0.317-0.391
			c-0.137-0.093-0.292-0.14-0.467-0.14c-0.263,0-0.477,0.103-0.643,0.308c-0.166,0.206-0.249,0.475-0.249,0.808L69.581,8.856
			C69.582,8.856,69.581,8.856,69.581,8.856z"/>
		<path class="st9" d="M72.356,10.144V7.724h-0.44V7.482h0.44V7.159c0-0.273,0.068-0.481,0.207-0.627s0.332-0.219,0.581-0.219
			c0.112,0,0.216,0.014,0.312,0.041l-0.022,0.243c-0.081-0.019-0.171-0.03-0.269-0.03c-0.162,0-0.289,0.051-0.378,0.151
			c-0.09,0.101-0.136,0.244-0.136,0.431V7.48h0.635v0.241h-0.634v2.422h-0.296C72.356,10.142,72.356,10.144,72.356,10.144z"/>
	</g>
	<g>
		<path class="st9" d="M47.682,11.636h-1.228v3.326h-0.303v-3.326h-1.226v-0.255h2.756L47.682,11.636L47.682,11.636z"/>
		<path class="st9" d="M48.853,15.011c-0.226,0-0.432-0.056-0.614-0.168c-0.183-0.112-0.326-0.267-0.427-0.466
			c-0.102-0.199-0.152-0.423-0.152-0.67v-0.107c0-0.256,0.049-0.487,0.149-0.691c0.1-0.204,0.237-0.366,0.415-0.484
			c0.177-0.118,0.369-0.176,0.576-0.176c0.323,0,0.58,0.111,0.769,0.331c0.189,0.221,0.284,0.522,0.284,0.905v0.165h-1.9v0.057
			c0,0.302,0.088,0.552,0.26,0.755c0.173,0.2,0.39,0.302,0.653,0.302c0.158,0,0.297-0.029,0.417-0.087
			c0.12-0.057,0.229-0.149,0.329-0.276l0.184,0.14C49.579,14.855,49.265,15.011,48.853,15.011z M48.799,12.502
			c-0.222,0-0.408,0.081-0.559,0.243c-0.151,0.162-0.244,0.38-0.277,0.654h1.597v-0.032c-0.009-0.256-0.081-0.464-0.219-0.625
			C49.203,12.581,49.021,12.502,48.799,12.502z"/>
		<path class="st9" d="M51.284,14.764c0.205,0,0.377-0.058,0.516-0.174c0.139-0.116,0.213-0.265,0.225-0.449h0.283
			c-0.008,0.162-0.059,0.31-0.152,0.444c-0.094,0.134-0.218,0.237-0.373,0.314c-0.155,0.075-0.321,0.114-0.498,0.114
			c-0.35,0-0.626-0.121-0.83-0.364c-0.204-0.242-0.306-0.569-0.306-0.98v-0.089c0-0.263,0.046-0.494,0.138-0.696
			c0.092-0.202,0.223-0.357,0.394-0.467c0.171-0.111,0.372-0.165,0.602-0.165c0.292,0,0.532,0.088,0.722,0.261
			c0.19,0.174,0.29,0.403,0.304,0.686h-0.283c-0.013-0.208-0.089-0.376-0.225-0.504c-0.137-0.128-0.309-0.192-0.517-0.192
			c-0.266,0-0.472,0.096-0.619,0.288c-0.147,0.192-0.221,0.462-0.221,0.808v0.087c0,0.339,0.073,0.604,0.221,0.795
			C50.809,14.668,51.016,14.764,51.284,14.764z"/>
		<path class="st9" d="M53.061,12.75c0.097-0.159,0.221-0.282,0.371-0.369c0.151-0.088,0.316-0.13,0.494-0.13
			c0.286,0,0.498,0.08,0.638,0.241c0.14,0.161,0.209,0.401,0.211,0.723v1.747h-0.294v-1.75c-0.001-0.237-0.052-0.415-0.151-0.532
			c-0.099-0.117-0.257-0.174-0.476-0.174c-0.182,0-0.344,0.057-0.484,0.171c-0.14,0.114-0.244,0.268-0.311,0.462v1.823h-0.293
			v-3.779h0.293L53.061,12.75L53.061,12.75z"/>
		<path class="st9" d="M55.688,12.301l0.01,0.456c0.101-0.165,0.225-0.29,0.374-0.375c0.149-0.087,0.315-0.13,0.494-0.13
			c0.286,0,0.498,0.08,0.638,0.241s0.209,0.401,0.211,0.723v1.747h-0.293v-1.75c-0.002-0.237-0.052-0.415-0.151-0.532
			c-0.099-0.117-0.257-0.174-0.476-0.174c-0.182,0-0.344,0.057-0.484,0.171c-0.14,0.114-0.244,0.268-0.311,0.462v1.823h-0.293V12.3
			C55.408,12.301,55.688,12.301,55.688,12.301z"/>
		<path class="st9" d="M57.887,13.592c0-0.256,0.049-0.487,0.149-0.691c0.099-0.205,0.239-0.365,0.421-0.479
			c0.181-0.115,0.386-0.171,0.617-0.171c0.354,0,0.641,0.124,0.861,0.373c0.219,0.249,0.33,0.578,0.33,0.988v0.061
			c0,0.257-0.049,0.49-0.149,0.695c-0.099,0.205-0.239,0.364-0.42,0.476c-0.18,0.112-0.385,0.168-0.618,0.168
			c-0.353,0-0.64-0.124-0.86-0.373c-0.22-0.25-0.331-0.578-0.331-0.988V13.592L57.887,13.592z M58.183,13.673
			c0,0.318,0.083,0.58,0.248,0.784c0.165,0.203,0.381,0.306,0.649,0.306c0.266,0,0.481-0.103,0.647-0.306
			c0.165-0.204,0.248-0.474,0.248-0.808v-0.057c0-0.203-0.038-0.389-0.114-0.558c-0.075-0.169-0.18-0.3-0.317-0.391
			c-0.137-0.093-0.292-0.14-0.467-0.14c-0.263,0-0.477,0.103-0.643,0.308c-0.166,0.206-0.249,0.475-0.249,0.808L58.183,13.673
			L58.183,13.673z"/>
		<path class="st9" d="M61.077,14.962h-0.296v-3.779h0.296V14.962z"/>
		<path class="st9" d="M61.589,13.592c0-0.256,0.049-0.487,0.149-0.691c0.099-0.205,0.239-0.365,0.421-0.479
			c0.181-0.115,0.386-0.171,0.617-0.171c0.354,0,0.641,0.124,0.861,0.373c0.219,0.249,0.33,0.578,0.33,0.988v0.061
			c0,0.257-0.049,0.49-0.149,0.695c-0.099,0.205-0.239,0.364-0.42,0.476c-0.18,0.112-0.385,0.168-0.618,0.168
			c-0.353,0-0.64-0.124-0.86-0.373c-0.221-0.249-0.331-0.578-0.331-0.988L61.589,13.592L61.589,13.592z M61.883,13.673
			c0,0.318,0.083,0.58,0.248,0.784c0.165,0.203,0.381,0.306,0.649,0.306c0.266,0,0.481-0.103,0.647-0.306
			c0.165-0.204,0.248-0.474,0.248-0.808v-0.057c0-0.203-0.038-0.389-0.114-0.558c-0.075-0.169-0.18-0.3-0.317-0.391
			c-0.137-0.093-0.292-0.14-0.467-0.14c-0.263,0-0.477,0.103-0.643,0.308c-0.166,0.206-0.249,0.475-0.249,0.808L61.883,13.673
			L61.883,13.673z"/>
		<path class="st9" d="M64.328,13.608c0-0.417,0.093-0.747,0.277-0.991c0.184-0.243,0.436-0.365,0.753-0.365
			c0.362,0,0.638,0.145,0.827,0.434l0.014-0.384h0.277v2.608c0,0.343-0.096,0.615-0.288,0.814c-0.192,0.199-0.452,0.3-0.78,0.3
			c-0.186,0-0.362-0.041-0.531-0.124c-0.168-0.084-0.301-0.194-0.397-0.331l0.165-0.177c0.208,0.256,0.456,0.384,0.744,0.384
			c0.246,0,0.438-0.072,0.576-0.218c0.138-0.146,0.209-0.346,0.214-0.604V14.62c-0.189,0.263-0.464,0.393-0.824,0.393
			c-0.308,0-0.556-0.123-0.744-0.369c-0.187-0.247-0.28-0.579-0.28-0.996L64.328,13.608L64.328,13.608z M64.626,13.659
			c0,0.34,0.068,0.608,0.204,0.804c0.136,0.196,0.328,0.294,0.576,0.294c0.362,0,0.619-0.163,0.77-0.488v-1.238
			c-0.068-0.171-0.169-0.302-0.298-0.389c-0.13-0.09-0.286-0.134-0.467-0.134c-0.248,0-0.44,0.097-0.579,0.292
			S64.626,13.281,64.626,13.659z"/>
		<path class="st9" d="M67.959,14.539l0.778-2.239h0.318l-1.137,3.115l-0.059,0.138c-0.146,0.324-0.371,0.485-0.676,0.485
			c-0.07,0-0.146-0.012-0.226-0.034l-0.002-0.243l0.152,0.014c0.145,0,0.261-0.036,0.35-0.107c0.09-0.071,0.165-0.194,0.228-0.368
			l0.13-0.359l-1.004-2.64h0.322L67.959,14.539z"/>
		<path class="st9" d="M72.163,14.962c-0.03-0.084-0.048-0.207-0.056-0.371c-0.104,0.134-0.234,0.237-0.394,0.311
			c-0.16,0.072-0.33,0.11-0.508,0.11c-0.256,0-0.464-0.071-0.622-0.214s-0.237-0.323-0.237-0.542c0-0.259,0.107-0.464,0.323-0.616
			c0.216-0.151,0.516-0.226,0.903-0.226h0.534V13.11c0-0.19-0.059-0.34-0.176-0.45c-0.117-0.109-0.288-0.164-0.514-0.164
			c-0.205,0-0.375,0.053-0.51,0.158c-0.135,0.105-0.201,0.231-0.201,0.379l-0.296-0.003c0-0.211,0.098-0.394,0.296-0.549
			c0.197-0.155,0.439-0.231,0.726-0.231c0.297,0,0.531,0.074,0.702,0.223c0.171,0.149,0.259,0.356,0.265,0.622v1.259
			c0,0.257,0.027,0.451,0.081,0.579v0.03C72.477,14.962,72.163,14.962,72.163,14.962z M71.238,14.752
			c0.197,0,0.373-0.047,0.528-0.143c0.155-0.095,0.268-0.223,0.338-0.382v-0.586h-0.526c-0.294,0.003-0.523,0.057-0.688,0.161
			c-0.166,0.104-0.249,0.248-0.249,0.43c0,0.149,0.055,0.274,0.166,0.372C70.918,14.701,71.062,14.752,71.238,14.752z"/>
		<path class="st9" d="M73.337,12.301l0.01,0.456c0.101-0.165,0.225-0.29,0.374-0.375c0.149-0.087,0.315-0.13,0.494-0.13
			c0.286,0,0.498,0.08,0.638,0.241s0.209,0.401,0.211,0.723v1.747h-0.293v-1.75c-0.001-0.237-0.052-0.415-0.151-0.532
			c-0.099-0.117-0.257-0.174-0.476-0.174c-0.182,0-0.344,0.057-0.484,0.171c-0.14,0.114-0.244,0.268-0.311,0.462v1.823h-0.293V12.3
			C73.057,12.301,73.337,12.301,73.337,12.301z"/>
		<path class="st9" d="M75.579,13.608c0-0.414,0.093-0.743,0.277-0.988c0.184-0.245,0.436-0.368,0.753-0.368
			c0.359,0,0.633,0.142,0.822,0.426v-1.494h0.293v3.779h-0.277l-0.012-0.354c-0.189,0.269-0.466,0.403-0.832,0.403
			c-0.307,0-0.554-0.123-0.743-0.37c-0.188-0.248-0.282-0.581-0.282-1L75.579,13.608L75.579,13.608z M75.878,13.659
			c0,0.34,0.068,0.608,0.204,0.804c0.136,0.196,0.328,0.294,0.576,0.294c0.362,0,0.62-0.16,0.772-0.48v-1.251
			c-0.152-0.346-0.408-0.519-0.768-0.519c-0.248,0-0.44,0.097-0.579,0.292C75.947,12.994,75.878,13.281,75.878,13.659z"/>
		<path class="st9" d="M79.845,14.706h1.769v0.256h-2.074V11.38h0.305L79.845,14.706L79.845,14.706z"/>
		<path class="st9" d="M83.032,15.011c-0.225,0-0.432-0.056-0.614-0.168c-0.183-0.112-0.326-0.267-0.427-0.466
			c-0.102-0.199-0.152-0.423-0.152-0.67v-0.107c0-0.256,0.049-0.487,0.148-0.691c0.099-0.204,0.237-0.366,0.415-0.484
			c0.177-0.118,0.369-0.176,0.576-0.176c0.323,0,0.58,0.111,0.769,0.331c0.189,0.22,0.284,0.522,0.284,0.905v0.165h-1.9v0.057
			c0,0.302,0.088,0.552,0.26,0.755c0.173,0.2,0.39,0.302,0.653,0.302c0.158,0,0.297-0.029,0.417-0.087s0.229-0.149,0.329-0.276
			l0.184,0.14C83.757,14.855,83.442,15.011,83.032,15.011z M82.977,12.502c-0.222,0-0.408,0.081-0.559,0.243
			c-0.152,0.162-0.244,0.38-0.277,0.654h1.597v-0.032c-0.009-0.256-0.081-0.464-0.219-0.625
			C83.381,12.582,83.201,12.502,82.977,12.502z"/>
		<path class="st9" d="M86.158,14.962c-0.03-0.084-0.048-0.207-0.056-0.371c-0.104,0.134-0.234,0.237-0.394,0.311
			c-0.16,0.072-0.33,0.11-0.508,0.11c-0.256,0-0.464-0.071-0.622-0.214s-0.237-0.323-0.237-0.542c0-0.259,0.107-0.464,0.323-0.616
			c0.216-0.151,0.516-0.226,0.903-0.226H86.1V13.11c0-0.19-0.059-0.34-0.176-0.45c-0.117-0.109-0.288-0.164-0.514-0.164
			c-0.205,0-0.375,0.053-0.51,0.158c-0.135,0.105-0.201,0.231-0.201,0.379l-0.296-0.003c0-0.211,0.098-0.394,0.296-0.549
			c0.197-0.155,0.439-0.231,0.726-0.231c0.297,0,0.531,0.074,0.702,0.223c0.171,0.149,0.259,0.356,0.265,0.622v1.259
			c0,0.257,0.027,0.451,0.081,0.579v0.03C86.473,14.962,86.158,14.962,86.158,14.962z M85.233,14.752
			c0.197,0,0.373-0.047,0.528-0.143c0.155-0.095,0.268-0.223,0.338-0.382v-0.586h-0.526c-0.294,0.003-0.523,0.057-0.688,0.161
			c-0.166,0.104-0.249,0.248-0.249,0.43c0,0.149,0.055,0.274,0.166,0.372C84.912,14.701,85.055,14.752,85.233,14.752z"/>
		<path class="st9" d="M88.281,12.551c-0.063-0.011-0.129-0.017-0.199-0.017c-0.184,0-0.34,0.051-0.466,0.154
			c-0.127,0.103-0.218,0.252-0.273,0.446v1.828H87.05V12.3h0.288l0.005,0.423c0.155-0.315,0.406-0.472,0.751-0.472
			c0.081,0,0.147,0.011,0.195,0.032L88.281,12.551z"/>
		<path class="st9" d="M88.901,12.301l0.01,0.456c0.101-0.165,0.225-0.29,0.374-0.375c0.149-0.087,0.315-0.13,0.494-0.13
			c0.286,0,0.498,0.08,0.638,0.241s0.209,0.401,0.211,0.723v1.747h-0.293v-1.75c-0.001-0.237-0.052-0.415-0.151-0.532
			c-0.099-0.117-0.257-0.174-0.476-0.174c-0.182,0-0.344,0.057-0.484,0.171c-0.14,0.114-0.244,0.268-0.311,0.462v1.823h-0.293V12.3
			C88.621,12.301,88.901,12.301,88.901,12.301z"/>
		<path class="st9" d="M91.245,11.532c0-0.055,0.018-0.103,0.054-0.141c0.036-0.038,0.086-0.057,0.147-0.057
			s0.113,0.019,0.149,0.057c0.037,0.038,0.055,0.086,0.055,0.141s-0.018,0.102-0.055,0.14s-0.088,0.056-0.149,0.056
			c-0.063,0-0.112-0.018-0.147-0.056C91.262,11.634,91.245,11.587,91.245,11.532z M91.592,14.962h-0.296V12.3h0.296V14.962z"/>
		<path class="st9" d="M92.546,12.301l0.01,0.456c0.101-0.165,0.225-0.29,0.374-0.375c0.149-0.087,0.315-0.13,0.494-0.13
			c0.286,0,0.498,0.08,0.638,0.241s0.209,0.401,0.211,0.723v1.747h-0.293v-1.75c-0.002-0.237-0.052-0.415-0.151-0.532
			c-0.099-0.117-0.257-0.174-0.476-0.174c-0.182,0-0.344,0.057-0.484,0.171c-0.14,0.114-0.244,0.268-0.311,0.462v1.823h-0.293V12.3
			C92.265,12.301,92.546,12.301,92.546,12.301z"/>
		<path class="st9" d="M94.79,13.608c0-0.417,0.093-0.747,0.277-0.991c0.184-0.243,0.436-0.365,0.753-0.365
			c0.362,0,0.638,0.145,0.827,0.434l0.014-0.384h0.277v2.608c0,0.343-0.096,0.615-0.288,0.814c-0.192,0.199-0.452,0.3-0.78,0.3
			c-0.186,0-0.362-0.041-0.531-0.124c-0.168-0.084-0.301-0.194-0.397-0.331l0.165-0.177c0.208,0.256,0.456,0.384,0.744,0.384
			c0.246,0,0.438-0.072,0.576-0.218c0.138-0.146,0.209-0.346,0.214-0.604V14.62c-0.189,0.263-0.464,0.393-0.824,0.393
			c-0.308,0-0.556-0.123-0.744-0.369c-0.187-0.247-0.28-0.579-0.28-0.996L94.79,13.608L94.79,13.608z M95.087,13.659
			c0,0.34,0.068,0.608,0.204,0.804c0.136,0.196,0.328,0.294,0.576,0.294c0.362,0,0.619-0.163,0.77-0.488v-1.238
			c-0.068-0.171-0.169-0.302-0.298-0.389c-0.13-0.09-0.286-0.134-0.467-0.134c-0.248,0-0.44,0.097-0.579,0.292
			C95.156,12.994,95.087,13.281,95.087,13.659z"/>
	</g>
</g>
</svg>
