<?xml version="1.0" encoding="utf-8"?>
<!-- Generator: Adobe Illustrator 21.1.0, SVG Export Plug-In . SVG Version: 6.00 Build 0)  -->
<svg version="1.1" id="Layer_1" xmlns="http://www.w3.org/2000/svg" xmlns:xlink="http://www.w3.org/1999/xlink" x="0px" y="0px"
	 viewBox="0 0 15.667 23" style="enable-background:new 0 0 15.667 23;" xml:space="preserve">
<style type="text/css">
	.st0{fill:#50C5DD;}
</style>
<g>
	<path class="st0" d="M12.5,9.78H0.664c-0.198,0-0.361,0.162-0.361,0.361v1.943c0,0.198,0.162,0.361,0.361,0.361H12.5
		c0.198,0,0.361-0.162,0.361-0.361v-1.942C12.862,9.943,12.699,9.78,12.5,9.78z"/>
	<path class="st0" d="M12.5,13.959H0.664c-0.198,0-0.361,0.162-0.361,0.361v1.94c0,0.198,0.162,0.361,0.361,0.361H12.5
		c0.198,0,0.361-0.162,0.361-0.361v-1.94C12.862,14.122,12.699,13.959,12.5,13.959z"/>
	<path class="st0" d="M12.5,18.229H0.664c-0.198,0-0.361,0.162-0.361,0.361v1.94c0,0.198,0.162,0.361,0.361,0.361H12.5
		c0.198,0,0.361-0.162,0.361-0.361v-1.94C12.862,18.392,12.699,18.229,12.5,18.229z"/>
</g>
</svg>
