<?xml version="1.0" encoding="utf-8"?>
<!-- Generator: Adobe Illustrator 21.1.0, SVG Export Plug-In . SVG Version: 6.00 Build 0)  -->
<svg version="1.1" id="Layer_1" xmlns="http://www.w3.org/2000/svg" xmlns:xlink="http://www.w3.org/1999/xlink" x="0px" y="0px"
	 viewBox="0 0 82.083 23" style="enable-background:new 0 0 82.083 23;" xml:space="preserve">
<style type="text/css">
	.st0{opacity:0.46;}
	.st1{opacity:0.33;fill:#5C6A75;enable-background:new    ;}
	.st2{fill:url(#SVGID_1_);}
	.st3{fill:url(#SVGID_2_);}
	.st4{fill:url(#SVGID_3_);}
	.st5{opacity:0.44;fill:#FFFFFF;enable-background:new    ;}
	.st6{fill:#50C5DD;}
	.st7{fill:#2EA8D6;}
	.st8{opacity:0.33;fill:#FFFFFF;enable-background:new    ;}
	.st9{fill:#FFFFFF;}
</style>
<g>
	<g class="st0">
		<path class="st1" d="M23.824,5.349v2.883c-0.522-0.279-1.116-0.438-1.748-0.438c-2.061,0-3.731,1.685-3.731,3.764
			s1.67,3.764,3.731,3.764c0.632,0,1.226-0.159,1.748-0.438v0.438h1.983V5.349H23.824z M22.119,13.328
			c-0.942,0-1.706-0.771-1.706-1.723c0.001-0.952,0.765-1.723,1.706-1.723c0.942,0,1.706,0.771,1.706,1.723
			C23.824,12.556,23.06,13.328,22.119,13.328z"/>
		<path class="st1" d="M14.529,8.066c-0.632,0-1.226,0.159-1.748,0.438V8.066h-1.983v9.973h1.983v-2.883
			c0.522,0.279,1.116,0.438,1.748,0.438c2.061,0,3.731-1.685,3.731-3.764S16.59,8.066,14.529,8.066z M14.488,13.504
			c-0.942,0-1.706-0.771-1.706-1.722c0-0.95,0.765-1.722,1.706-1.722c0.942,0,1.706,0.771,1.706,1.722S15.43,13.504,14.488,13.504z"
			/>
		<path class="st1" d="M10.263,9.419c-0.002-0.004-0.004-0.009-0.006-0.013c-0.018-0.044-0.04-0.088-0.059-0.132
			c-0.044-0.099-0.09-0.196-0.139-0.293c-0.028-0.053-0.056-0.107-0.087-0.16C9.923,8.733,9.87,8.646,9.817,8.561
			C9.788,8.515,9.76,8.468,9.729,8.423C9.645,8.3,9.56,8.182,9.467,8.067c-0.025-0.031-0.052-0.06-0.077-0.09
			C9.317,7.889,9.24,7.804,9.162,7.721C9.123,7.68,9.084,7.642,9.043,7.602C8.969,7.53,8.892,7.458,8.814,7.391
			C8.775,7.358,8.738,7.323,8.698,7.29C8.583,7.194,8.464,7.103,8.341,7.018C8.32,7.003,8.296,6.99,8.274,6.975
			c-0.106-0.07-0.214-0.138-0.325-0.2C7.905,6.75,7.859,6.727,7.815,6.703c-0.098-0.052-0.196-0.1-0.297-0.146
			c-0.044-0.02-0.087-0.041-0.131-0.058C7.245,6.439,7.1,6.384,6.952,6.338c-0.013-0.004-0.025-0.006-0.038-0.01
			C6.776,6.286,6.636,6.25,6.494,6.217c-0.047-0.01-0.096-0.019-0.142-0.028c-0.115-0.021-0.23-0.04-0.347-0.053
			C5.957,6.13,5.909,6.124,5.861,6.119c-0.163-0.017-0.325-0.028-0.49-0.028c-0.166,0-0.331,0.01-0.493,0.025
			c-0.051,0.005-0.101,0.013-0.15,0.018c-0.114,0.014-0.226,0.03-0.337,0.051c-0.053,0.01-0.107,0.021-0.16,0.033
			C4.116,6.244,4.004,6.274,3.894,6.307C3.852,6.32,3.808,6.33,3.766,6.344c-0.15,0.048-0.297,0.103-0.44,0.163
			C3.298,6.519,3.271,6.533,3.243,6.545c-0.116,0.052-0.228,0.107-0.34,0.167C2.855,6.737,2.808,6.765,2.762,6.791
			C2.671,6.843,2.583,6.898,2.496,6.955C2.449,6.986,2.402,7.017,2.356,7.05c-0.092,0.065-0.18,0.134-0.268,0.204
			C2.055,7.282,2.019,7.307,1.985,7.337C1.87,7.434,1.761,7.536,1.655,7.642C1.622,7.68,1.587,7.719,1.552,7.758
			c-0.07,0.074-0.139,0.151-0.204,0.228c-0.041,0.049-0.079,0.099-0.12,0.15c-0.057,0.073-0.113,0.15-0.166,0.227
			C1.025,8.415,0.989,8.467,0.953,8.521C0.894,8.613,0.838,8.707,0.785,8.803C0.756,8.854,0.726,8.906,0.697,8.958
			c-0.062,0.12-0.121,0.243-0.174,0.369C0.498,9.386,0.475,9.448,0.452,9.508C0.431,9.564,0.407,9.619,0.387,9.675
			c0.002,0.001,0.002,0.002,0.004,0.002c-0.196,0.561-0.308,1.163-0.308,1.794c0,2.971,2.368,5.381,5.289,5.381
			s5.289-2.409,5.289-5.381C10.663,10.745,10.52,10.052,10.263,9.419C10.262,9.419,10.263,9.419,10.263,9.419z"/>
	</g>
	<g>
		
			<linearGradient id="SVGID_1_" gradientUnits="userSpaceOnUse" x1="5.289" y1="290.722" x2="5.289" y2="301.484" gradientTransform="matrix(1 0 0 1 0 -284.8)">
			<stop  offset="0" style="stop-color:#FFFFFF"/>
			<stop  offset="0.3126" style="stop-color:#E2E1E0"/>
			<stop  offset="0.4767" style="stop-color:#E0E0DF"/>
			<stop  offset="0.7198" style="stop-color:#C8C8C8"/>
		</linearGradient>
		<path class="st2" d="M4.138,8.398c0.386,0,4.223,2.217,4.223,2.918c0,0.7-3.733,2.918-4.223,2.918
			C3.648,14.235,3.752,8.398,4.138,8.398z M5.289,5.922c2.921,0,5.289,2.41,5.289,5.381s-2.368,5.381-5.289,5.381S0,14.274,0,11.302
			S2.368,5.922,5.289,5.922z"/>
		
			<linearGradient id="SVGID_2_" gradientUnits="userSpaceOnUse" x1="21.992" y1="155.979" x2="21.992" y2="174.6473" gradientTransform="matrix(1 0 0 1 0 -150.8)">
			<stop  offset="0" style="stop-color:#FFFFFF"/>
			<stop  offset="0.1656" style="stop-color:#EAEAEA"/>
			<stop  offset="0.6628" style="stop-color:#B6B8B8"/>
		</linearGradient>
		<path class="st3" d="M22.033,9.713c0.942,0,1.706,0.771,1.706,1.723s-0.764,1.723-1.706,1.723s-1.706-0.771-1.706-1.723
			C20.328,10.483,21.091,9.713,22.033,9.713z M23.74,5.179v2.883c-0.522-0.279-1.116-0.438-1.748-0.438
			c-2.061,0-3.731,1.685-3.731,3.764s1.67,3.764,3.731,3.764c0.632,0,1.225-0.159,1.748-0.438v0.438h1.983V5.179H23.74z"/>
		
			<linearGradient id="SVGID_3_" gradientUnits="userSpaceOnUse" x1="14.445" y1="158.697" x2="14.445" y2="175.1585" gradientTransform="matrix(1 0 0 1 0 -150.8)">
			<stop  offset="0" style="stop-color:#FFFFFF"/>
			<stop  offset="0.2611" style="stop-color:#D4D5D5"/>
			<stop  offset="0.6575" style="stop-color:#B9BBBB"/>
			<stop  offset="0.8092" style="stop-color:#B6B8B8"/>
		</linearGradient>
		<path class="st4" d="M14.403,9.891c0.942,0,1.706,0.771,1.706,1.722s-0.764,1.722-1.706,1.722s-1.706-0.771-1.706-1.722
			S13.462,9.891,14.403,9.891z M14.445,7.897c-0.632,0-1.226,0.159-1.748,0.438V7.897h-1.983v9.974h1.983v-2.883
			c0.522,0.279,1.116,0.438,1.748,0.438c2.061,0,3.731-1.685,3.731-3.764S16.505,7.897,14.445,7.897z"/>
		<path class="st5" d="M5.289,5.922c-2.302,0-4.259,1.496-4.986,3.585c0.914,0.66,2.135,1.128,3.514,1.309
			c0.034-1.275,0.15-2.417,0.32-2.417c0.286,0,2.459,1.213,3.571,2.128c0.974-0.288,1.821-0.728,2.469-1.277
			C9.385,7.296,7.495,5.922,5.289,5.922z"/>
		<path class="st6" d="M4.138,8.398c0.386,0,4.223,2.217,4.223,2.918c0,0.7-3.733,2.918-4.223,2.918
			C3.648,14.235,3.752,8.398,4.138,8.398z"/>
		<g>
			<path class="st7" d="M4.138,8.398c-0.048,0-0.094,0.095-0.133,0.26c0.491,0.071,4.199,2.225,4.199,2.915
				c0,0.026-0.007,0.055-0.017,0.087c0.111-0.134,0.175-0.252,0.175-0.342C8.361,10.614,4.523,8.398,4.138,8.398z"/>
		</g>
		<path class="st8" d="M3.818,10.816c0.407,0.053,0.828,0.081,1.259,0.081c0.938,0,1.828-0.133,2.632-0.37
			C6.597,9.612,4.424,8.4,4.138,8.4C3.968,8.398,3.852,9.542,3.818,10.816z"/>
	</g>
	<g>
		<path class="st9" d="M31.538,6.818H30.31v3.326h-0.303V6.818h-1.225V6.563h2.756v0.256l0,0V6.818z"/>
		<path class="st9" d="M32.213,7.933c0.097-0.159,0.221-0.282,0.371-0.369c0.151-0.088,0.316-0.13,0.494-0.13
			c0.286,0,0.498,0.08,0.637,0.241c0.14,0.161,0.21,0.401,0.211,0.723v1.747h-0.293v-1.75c-0.001-0.237-0.051-0.415-0.151-0.532
			c-0.099-0.117-0.258-0.174-0.477-0.174c-0.182,0-0.343,0.057-0.484,0.171s-0.243,0.268-0.311,0.462v1.823h-0.293v-3.78h0.293
			v1.568L32.213,7.933L32.213,7.933z"/>
		<path class="st9" d="M35.592,10.194c-0.226,0-0.431-0.056-0.614-0.168s-0.325-0.267-0.426-0.466
			c-0.102-0.199-0.153-0.423-0.153-0.67V8.784c0-0.256,0.049-0.487,0.149-0.691c0.099-0.205,0.237-0.366,0.415-0.484
			c0.177-0.118,0.369-0.176,0.576-0.176c0.323,0,0.58,0.111,0.769,0.331c0.189,0.221,0.284,0.522,0.284,0.905v0.165h-1.899v0.057
			c0,0.302,0.087,0.552,0.259,0.755c0.172,0.2,0.39,0.302,0.653,0.302c0.157,0,0.297-0.029,0.417-0.087
			c0.12-0.057,0.229-0.149,0.329-0.276l0.184,0.14C36.317,10.038,36.003,10.194,35.592,10.194z M35.538,7.684
			c-0.221,0-0.408,0.081-0.559,0.243c-0.151,0.162-0.243,0.38-0.277,0.654h1.597V8.55c-0.009-0.256-0.082-0.464-0.219-0.625
			C35.942,7.765,35.761,7.684,35.538,7.684z"/>
		<path class="st9" d="M40.18,8.469h-1.671v1.676h-0.303V6.563h2.22v0.256h-1.917v1.397h1.671V8.469L40.18,8.469z"/>
		<path class="st9" d="M42.504,9.808c-0.177,0.257-0.461,0.385-0.848,0.385c-0.284,0-0.499-0.083-0.647-0.248
			c-0.147-0.165-0.223-0.409-0.226-0.731V7.483h0.293v1.695c0,0.507,0.205,0.76,0.616,0.76c0.427,0,0.696-0.176,0.809-0.529V7.484
			h0.296v2.662h-0.285L42.504,9.808z"/>
		<path class="st9" d="M45.028,9.468c0-0.146-0.059-0.264-0.176-0.352c-0.117-0.089-0.295-0.158-0.531-0.207
			c-0.235-0.049-0.419-0.107-0.549-0.172S43.546,8.593,43.481,8.5c-0.063-0.093-0.095-0.206-0.095-0.339
			c0-0.21,0.088-0.384,0.264-0.52c0.175-0.137,0.399-0.205,0.674-0.205c0.298,0,0.535,0.073,0.714,0.22
			c0.18,0.147,0.27,0.338,0.27,0.575h-0.296c0-0.155-0.065-0.286-0.196-0.387c-0.13-0.104-0.295-0.155-0.493-0.155
			c-0.194,0-0.349,0.043-0.466,0.129c-0.118,0.087-0.176,0.198-0.176,0.336c0,0.133,0.049,0.235,0.146,0.309
			c0.097,0.073,0.277,0.14,0.534,0.199c0.258,0.061,0.452,0.126,0.581,0.195c0.129,0.068,0.225,0.151,0.286,0.249
			c0.063,0.097,0.093,0.214,0.093,0.352c0,0.225-0.092,0.404-0.273,0.538s-0.418,0.201-0.709,0.201c-0.31,0-0.561-0.075-0.755-0.225
			c-0.193-0.15-0.29-0.34-0.29-0.569h0.296c0.011,0.172,0.084,0.306,0.217,0.401c0.134,0.096,0.31,0.145,0.531,0.145
			c0.205,0,0.371-0.045,0.497-0.136C44.965,9.72,45.028,9.607,45.028,9.468z"/>
		<path class="st9" d="M45.842,6.714c0-0.055,0.018-0.103,0.054-0.141c0.036-0.038,0.086-0.057,0.147-0.057
			c0.063,0,0.113,0.019,0.149,0.057c0.037,0.038,0.055,0.086,0.055,0.141s-0.018,0.102-0.054,0.139
			c-0.037,0.038-0.087,0.056-0.149,0.056c-0.063,0-0.112-0.018-0.147-0.056C45.861,6.816,45.842,6.77,45.842,6.714z M46.19,10.144
			h-0.296V7.483h0.296V10.144z"/>
		<path class="st9" d="M46.7,8.775c0-0.256,0.049-0.487,0.149-0.691c0.099-0.205,0.239-0.365,0.421-0.479
			c0.181-0.115,0.386-0.171,0.617-0.171c0.354,0,0.641,0.124,0.86,0.373c0.221,0.249,0.331,0.579,0.331,0.988v0.061
			c0,0.257-0.049,0.49-0.149,0.695c-0.099,0.205-0.239,0.364-0.419,0.476c-0.18,0.112-0.385,0.168-0.618,0.168
			c-0.353,0-0.64-0.124-0.86-0.373c-0.221-0.249-0.331-0.578-0.331-0.988L46.7,8.775L46.7,8.775z M46.995,8.856
			c0,0.318,0.083,0.58,0.248,0.784c0.165,0.203,0.381,0.306,0.649,0.306c0.266,0,0.481-0.103,0.646-0.306
			c0.165-0.204,0.248-0.474,0.248-0.808V8.774c0-0.203-0.038-0.389-0.114-0.558c-0.075-0.169-0.181-0.3-0.317-0.391
			c-0.136-0.093-0.292-0.14-0.467-0.14c-0.263,0-0.477,0.103-0.643,0.308c-0.166,0.206-0.249,0.475-0.249,0.808
			C46.995,8.801,46.995,8.856,46.995,8.856z"/>
		<path class="st9" d="M49.84,7.483l0.01,0.456c0.1-0.165,0.225-0.29,0.374-0.375c0.149-0.087,0.314-0.13,0.494-0.13
			c0.286,0,0.498,0.08,0.637,0.241c0.14,0.161,0.21,0.401,0.211,0.723v1.747h-0.293v-1.75c-0.002-0.237-0.052-0.415-0.151-0.532
			s-0.258-0.174-0.477-0.174c-0.182,0-0.343,0.057-0.484,0.171s-0.243,0.268-0.311,0.462v1.823h-0.293V7.482
			C49.558,7.483,49.84,7.483,49.84,7.483z"/>
		<path class="st9" d="M53.137,8.775c0-0.256,0.049-0.487,0.149-0.691c0.099-0.205,0.239-0.365,0.421-0.479
			c0.181-0.115,0.386-0.171,0.617-0.171c0.354,0,0.641,0.124,0.861,0.373c0.219,0.249,0.33,0.578,0.33,0.988v0.061
			c0,0.257-0.049,0.49-0.148,0.695s-0.239,0.364-0.42,0.476c-0.18,0.112-0.385,0.168-0.618,0.168c-0.353,0-0.64-0.124-0.86-0.373
			c-0.221-0.249-0.331-0.578-0.331-0.988L53.137,8.775L53.137,8.775z M53.433,8.856c0,0.318,0.083,0.58,0.248,0.784
			c0.165,0.203,0.381,0.306,0.649,0.306c0.266,0,0.481-0.103,0.647-0.306c0.165-0.204,0.248-0.474,0.248-0.808V8.774
			c0-0.203-0.038-0.389-0.114-0.558s-0.18-0.3-0.317-0.391c-0.137-0.093-0.292-0.14-0.467-0.14c-0.263,0-0.477,0.103-0.643,0.308
			c-0.166,0.206-0.249,0.475-0.249,0.808L53.433,8.856C53.434,8.856,53.433,8.856,53.433,8.856z"/>
		<path class="st9" d="M56.208,10.144v-2.42h-0.44V7.482h0.44V7.159c0-0.273,0.068-0.481,0.207-0.627s0.332-0.219,0.581-0.219
			c0.112,0,0.216,0.014,0.312,0.041l-0.022,0.243c-0.081-0.019-0.171-0.03-0.269-0.03c-0.162,0-0.289,0.051-0.378,0.151
			c-0.09,0.101-0.136,0.244-0.136,0.431V7.48h0.635v0.241h-0.634v2.422h-0.296C56.208,10.142,56.208,10.144,56.208,10.144z"/>
	</g>
	<g>
		<path class="st9" d="M31.534,11.636h-1.228v3.326h-0.303v-3.326h-1.226v-0.255h2.756L31.534,11.636L31.534,11.636z"/>
		<path class="st9" d="M32.705,15.011c-0.226,0-0.432-0.056-0.614-0.168c-0.183-0.112-0.326-0.267-0.427-0.466
			c-0.102-0.199-0.152-0.423-0.152-0.67V13.6c0-0.256,0.049-0.487,0.149-0.691s0.237-0.366,0.415-0.484
			c0.177-0.118,0.369-0.176,0.576-0.176c0.323,0,0.58,0.111,0.769,0.331c0.189,0.221,0.284,0.522,0.284,0.905v0.165h-1.9v0.057
			c0,0.302,0.088,0.552,0.26,0.755c0.173,0.2,0.39,0.302,0.653,0.302c0.158,0,0.297-0.029,0.417-0.087
			c0.12-0.057,0.229-0.149,0.329-0.276l0.184,0.14C33.431,14.855,33.117,15.011,32.705,15.011z M32.651,12.502
			c-0.222,0-0.408,0.081-0.559,0.243c-0.151,0.162-0.244,0.38-0.277,0.654h1.597v-0.032c-0.009-0.256-0.081-0.464-0.219-0.625
			S32.873,12.502,32.651,12.502z"/>
		<path class="st9" d="M35.136,14.764c0.205,0,0.377-0.058,0.516-0.174s0.213-0.265,0.225-0.449h0.283
			c-0.008,0.162-0.059,0.31-0.152,0.444c-0.094,0.134-0.218,0.237-0.373,0.314c-0.155,0.075-0.321,0.114-0.498,0.114
			c-0.35,0-0.626-0.121-0.83-0.364c-0.204-0.242-0.306-0.569-0.306-0.98V13.58c0-0.263,0.046-0.494,0.138-0.696
			s0.223-0.357,0.394-0.467c0.171-0.111,0.372-0.165,0.602-0.165c0.292,0,0.532,0.088,0.722,0.261
			c0.19,0.174,0.29,0.403,0.304,0.686h-0.283c-0.013-0.208-0.089-0.376-0.225-0.504c-0.137-0.128-0.309-0.192-0.517-0.192
			c-0.266,0-0.472,0.096-0.619,0.288s-0.221,0.462-0.221,0.808v0.087c0,0.339,0.073,0.604,0.221,0.795
			C34.661,14.668,34.868,14.764,35.136,14.764z"/>
		<path class="st9" d="M36.913,12.75c0.097-0.159,0.221-0.282,0.371-0.369c0.151-0.088,0.316-0.13,0.494-0.13
			c0.286,0,0.498,0.08,0.638,0.241s0.209,0.401,0.211,0.723v1.747h-0.294v-1.75c-0.001-0.237-0.052-0.415-0.151-0.532
			s-0.257-0.174-0.476-0.174c-0.182,0-0.344,0.057-0.484,0.171s-0.244,0.268-0.311,0.462v1.823h-0.293v-3.779h0.293L36.913,12.75
			L36.913,12.75z"/>
		<path class="st9" d="M39.54,12.301l0.01,0.456c0.101-0.165,0.225-0.29,0.374-0.375c0.149-0.087,0.315-0.13,0.494-0.13
			c0.286,0,0.498,0.08,0.638,0.241s0.209,0.401,0.211,0.723v1.747h-0.293v-1.75c-0.002-0.237-0.052-0.415-0.151-0.532
			s-0.257-0.174-0.476-0.174c-0.182,0-0.344,0.057-0.484,0.171c-0.14,0.114-0.244,0.268-0.311,0.462v1.823h-0.293V12.3
			C39.26,12.301,39.54,12.301,39.54,12.301z"/>
		<path class="st9" d="M41.739,13.592c0-0.256,0.049-0.487,0.149-0.691c0.099-0.205,0.239-0.365,0.421-0.479
			c0.181-0.115,0.386-0.171,0.617-0.171c0.354,0,0.641,0.124,0.861,0.373c0.219,0.249,0.33,0.578,0.33,0.988v0.061
			c0,0.257-0.049,0.49-0.149,0.695c-0.099,0.205-0.239,0.364-0.42,0.476c-0.18,0.112-0.385,0.168-0.618,0.168
			c-0.353,0-0.64-0.124-0.86-0.373c-0.22-0.25-0.331-0.578-0.331-0.988L41.739,13.592L41.739,13.592z M42.035,13.673
			c0,0.318,0.083,0.58,0.248,0.784c0.165,0.203,0.381,0.306,0.649,0.306c0.266,0,0.481-0.103,0.647-0.306
			c0.165-0.204,0.248-0.474,0.248-0.808v-0.057c0-0.203-0.038-0.389-0.114-0.558c-0.075-0.169-0.18-0.3-0.317-0.391
			c-0.137-0.093-0.292-0.14-0.467-0.14c-0.263,0-0.477,0.103-0.643,0.308c-0.166,0.206-0.249,0.475-0.249,0.808L42.035,13.673
			L42.035,13.673z"/>
		<path class="st9" d="M44.929,14.962h-0.296v-3.779h0.296V14.962z"/>
		<path class="st9" d="M45.441,13.592c0-0.256,0.049-0.487,0.149-0.691c0.099-0.205,0.239-0.365,0.421-0.479
			c0.181-0.115,0.386-0.171,0.617-0.171c0.354,0,0.641,0.124,0.861,0.373c0.219,0.249,0.33,0.578,0.33,0.988v0.061
			c0,0.257-0.049,0.49-0.149,0.695c-0.099,0.205-0.239,0.364-0.42,0.476c-0.18,0.112-0.385,0.168-0.618,0.168
			c-0.353,0-0.64-0.124-0.86-0.373c-0.221-0.249-0.331-0.578-0.331-0.988L45.441,13.592L45.441,13.592z M45.735,13.673
			c0,0.318,0.083,0.58,0.248,0.784c0.165,0.203,0.381,0.306,0.649,0.306c0.266,0,0.481-0.103,0.647-0.306
			c0.165-0.204,0.248-0.474,0.248-0.808v-0.057c0-0.203-0.038-0.389-0.114-0.558c-0.075-0.169-0.18-0.3-0.317-0.391
			c-0.137-0.093-0.292-0.14-0.467-0.14c-0.263,0-0.477,0.103-0.643,0.308c-0.166,0.206-0.249,0.475-0.249,0.808L45.735,13.673
			L45.735,13.673z"/>
		<path class="st9" d="M48.18,13.608c0-0.417,0.093-0.747,0.277-0.991c0.184-0.243,0.436-0.365,0.753-0.365
			c0.362,0,0.638,0.145,0.827,0.434l0.014-0.384h0.277v2.608c0,0.343-0.096,0.615-0.288,0.814s-0.452,0.3-0.78,0.3
			c-0.186,0-0.362-0.041-0.531-0.124c-0.168-0.084-0.301-0.194-0.397-0.331l0.165-0.177c0.208,0.256,0.456,0.384,0.744,0.384
			c0.246,0,0.438-0.072,0.576-0.218c0.138-0.146,0.209-0.346,0.214-0.604V14.62c-0.189,0.263-0.464,0.393-0.824,0.393
			c-0.308,0-0.556-0.123-0.744-0.369c-0.187-0.247-0.28-0.579-0.28-0.996L48.18,13.608L48.18,13.608z M48.478,13.659
			c0,0.34,0.068,0.608,0.204,0.804s0.328,0.294,0.576,0.294c0.362,0,0.619-0.163,0.77-0.488v-1.238
			c-0.068-0.171-0.169-0.302-0.298-0.389c-0.13-0.09-0.286-0.134-0.467-0.134c-0.248,0-0.44,0.097-0.579,0.292
			S48.478,13.281,48.478,13.659z"/>
		<path class="st9" d="M51.811,14.539l0.778-2.239h0.318l-1.137,3.115l-0.059,0.138c-0.146,0.324-0.371,0.485-0.676,0.485
			c-0.07,0-0.146-0.012-0.226-0.034l-0.002-0.243l0.152,0.014c0.145,0,0.261-0.036,0.35-0.107c0.09-0.071,0.165-0.194,0.228-0.368
			l0.13-0.359l-1.004-2.64h0.322L51.811,14.539z"/>
		<path class="st9" d="M56.015,14.962c-0.03-0.084-0.048-0.207-0.056-0.371c-0.104,0.134-0.234,0.237-0.394,0.311
			c-0.16,0.072-0.33,0.11-0.508,0.11c-0.256,0-0.464-0.071-0.622-0.214s-0.237-0.323-0.237-0.542c0-0.259,0.107-0.464,0.323-0.616
			c0.216-0.151,0.516-0.226,0.903-0.226h0.534V13.11c0-0.19-0.059-0.34-0.176-0.45c-0.117-0.109-0.288-0.164-0.514-0.164
			c-0.205,0-0.375,0.053-0.51,0.158s-0.201,0.231-0.201,0.379l-0.296-0.003c0-0.211,0.098-0.394,0.296-0.549
			c0.197-0.155,0.439-0.231,0.726-0.231c0.297,0,0.531,0.074,0.702,0.223c0.171,0.149,0.259,0.356,0.265,0.622v1.259
			c0,0.257,0.027,0.451,0.081,0.579v0.03C56.329,14.962,56.015,14.962,56.015,14.962z M55.09,14.752
			c0.197,0,0.373-0.047,0.528-0.143c0.155-0.095,0.268-0.223,0.338-0.382v-0.586H55.43c-0.294,0.003-0.523,0.057-0.688,0.161
			c-0.166,0.104-0.249,0.248-0.249,0.43c0,0.149,0.055,0.274,0.166,0.372C54.77,14.701,54.914,14.752,55.09,14.752z"/>
		<path class="st9" d="M57.189,12.301l0.01,0.456c0.101-0.165,0.225-0.29,0.374-0.375c0.149-0.087,0.315-0.13,0.494-0.13
			c0.286,0,0.498,0.08,0.638,0.241s0.209,0.401,0.211,0.723v1.747h-0.293v-1.75c-0.001-0.237-0.052-0.415-0.151-0.532
			s-0.257-0.174-0.476-0.174c-0.182,0-0.344,0.057-0.484,0.171c-0.14,0.114-0.244,0.268-0.311,0.462v1.823h-0.293V12.3
			C56.909,12.301,57.189,12.301,57.189,12.301z"/>
		<path class="st9" d="M59.431,13.608c0-0.414,0.093-0.743,0.277-0.988s0.436-0.368,0.753-0.368c0.359,0,0.633,0.142,0.822,0.426
			v-1.494h0.293v3.779h-0.277l-0.012-0.354c-0.189,0.269-0.466,0.403-0.832,0.403c-0.307,0-0.554-0.123-0.743-0.37
			c-0.188-0.248-0.282-0.581-0.282-1L59.431,13.608L59.431,13.608z M59.73,13.659c0,0.34,0.068,0.608,0.204,0.804
			s0.328,0.294,0.576,0.294c0.362,0,0.62-0.16,0.772-0.48v-1.251c-0.152-0.346-0.408-0.519-0.768-0.519
			c-0.248,0-0.44,0.097-0.579,0.292C59.799,12.994,59.73,13.281,59.73,13.659z"/>
		<path class="st9" d="M63.697,14.706h1.769v0.256h-2.074V11.38h0.305L63.697,14.706L63.697,14.706z"/>
		<path class="st9" d="M66.884,15.011c-0.225,0-0.432-0.056-0.614-0.168c-0.183-0.112-0.326-0.267-0.427-0.466
			c-0.102-0.199-0.152-0.423-0.152-0.67V13.6c0-0.256,0.049-0.487,0.148-0.691s0.237-0.366,0.415-0.484
			c0.177-0.118,0.369-0.176,0.576-0.176c0.323,0,0.58,0.111,0.769,0.331c0.189,0.22,0.284,0.522,0.284,0.905v0.165h-1.9v0.057
			c0,0.302,0.088,0.552,0.26,0.755c0.173,0.2,0.39,0.302,0.653,0.302c0.158,0,0.297-0.029,0.417-0.087s0.229-0.149,0.329-0.276
			l0.184,0.14C67.609,14.855,67.294,15.011,66.884,15.011z M66.829,12.502c-0.222,0-0.408,0.081-0.559,0.243
			c-0.152,0.162-0.244,0.38-0.277,0.654h1.597v-0.032c-0.009-0.256-0.081-0.464-0.219-0.625
			C67.233,12.582,67.053,12.502,66.829,12.502z"/>
		<path class="st9" d="M70.01,14.962c-0.03-0.084-0.048-0.207-0.056-0.371c-0.104,0.134-0.234,0.237-0.394,0.311
			c-0.16,0.072-0.33,0.11-0.508,0.11c-0.256,0-0.464-0.071-0.622-0.214s-0.237-0.323-0.237-0.542c0-0.259,0.107-0.464,0.323-0.616
			c0.216-0.151,0.516-0.226,0.903-0.226h0.533V13.11c0-0.19-0.059-0.34-0.176-0.45c-0.117-0.109-0.288-0.164-0.514-0.164
			c-0.205,0-0.375,0.053-0.51,0.158s-0.201,0.231-0.201,0.379l-0.296-0.003c0-0.211,0.098-0.394,0.296-0.549
			c0.197-0.155,0.439-0.231,0.726-0.231c0.297,0,0.531,0.074,0.702,0.223c0.171,0.149,0.259,0.356,0.265,0.622v1.259
			c0,0.257,0.027,0.451,0.081,0.579v0.03C70.325,14.962,70.01,14.962,70.01,14.962z M69.085,14.752c0.197,0,0.373-0.047,0.528-0.143
			c0.155-0.095,0.268-0.223,0.338-0.382v-0.586h-0.526c-0.294,0.003-0.523,0.057-0.688,0.161c-0.166,0.104-0.249,0.248-0.249,0.43
			c0,0.149,0.055,0.274,0.166,0.372C68.764,14.701,68.907,14.752,69.085,14.752z"/>
		<path class="st9" d="M72.133,12.551c-0.063-0.011-0.129-0.017-0.199-0.017c-0.184,0-0.34,0.051-0.466,0.154
			c-0.127,0.103-0.218,0.252-0.273,0.446v1.828h-0.293V12.3h0.288l0.005,0.423c0.155-0.315,0.406-0.472,0.751-0.472
			c0.081,0,0.147,0.011,0.195,0.032L72.133,12.551z"/>
		<path class="st9" d="M72.753,12.301l0.01,0.456c0.101-0.165,0.225-0.29,0.374-0.375c0.149-0.087,0.315-0.13,0.494-0.13
			c0.286,0,0.498,0.08,0.638,0.241s0.209,0.401,0.211,0.723v1.747h-0.293v-1.75c-0.001-0.237-0.052-0.415-0.151-0.532
			s-0.257-0.174-0.476-0.174c-0.182,0-0.344,0.057-0.484,0.171c-0.14,0.114-0.244,0.268-0.311,0.462v1.823h-0.293V12.3
			C72.473,12.301,72.753,12.301,72.753,12.301z"/>
		<path class="st9" d="M75.097,11.532c0-0.055,0.018-0.103,0.054-0.141s0.086-0.057,0.147-0.057s0.113,0.019,0.149,0.057
			c0.037,0.038,0.055,0.086,0.055,0.141s-0.018,0.102-0.055,0.14s-0.088,0.056-0.149,0.056c-0.063,0-0.112-0.018-0.147-0.056
			C75.114,11.634,75.097,11.587,75.097,11.532z M75.444,14.962h-0.296V12.3h0.296V14.962z"/>
		<path class="st9" d="M76.398,12.301l0.01,0.456c0.101-0.165,0.225-0.29,0.374-0.375c0.149-0.087,0.315-0.13,0.494-0.13
			c0.286,0,0.498,0.08,0.638,0.241s0.209,0.401,0.211,0.723v1.747h-0.293v-1.75c-0.002-0.237-0.052-0.415-0.151-0.532
			s-0.257-0.174-0.476-0.174c-0.182,0-0.344,0.057-0.484,0.171c-0.14,0.114-0.244,0.268-0.311,0.462v1.823h-0.293V12.3
			C76.117,12.301,76.398,12.301,76.398,12.301z"/>
		<path class="st9" d="M78.642,13.608c0-0.417,0.093-0.747,0.277-0.991c0.184-0.243,0.436-0.365,0.753-0.365
			c0.362,0,0.638,0.145,0.827,0.434l0.014-0.384h0.277v2.608c0,0.343-0.096,0.615-0.288,0.814s-0.452,0.3-0.78,0.3
			c-0.186,0-0.362-0.041-0.531-0.124c-0.168-0.084-0.301-0.194-0.397-0.331l0.165-0.177c0.208,0.256,0.456,0.384,0.744,0.384
			c0.246,0,0.438-0.072,0.576-0.218c0.138-0.146,0.209-0.346,0.214-0.604V14.62c-0.189,0.263-0.464,0.393-0.824,0.393
			c-0.308,0-0.556-0.123-0.744-0.369c-0.187-0.247-0.28-0.579-0.28-0.996L78.642,13.608L78.642,13.608z M78.939,13.659
			c0,0.34,0.068,0.608,0.204,0.804s0.328,0.294,0.576,0.294c0.362,0,0.619-0.163,0.77-0.488v-1.238
			c-0.068-0.171-0.169-0.302-0.298-0.389c-0.13-0.09-0.286-0.134-0.467-0.134c-0.248,0-0.44,0.097-0.579,0.292
			C79.008,12.994,78.939,13.281,78.939,13.659z"/>
	</g>
</g>
<g>
	<path class="st9" d="M26.381,5.766V5.219h-0.204V5.146h0.491v0.073h-0.205v0.546L26.381,5.766L26.381,5.766z"/>
	<path class="st9" d="M26.75,5.766v-0.62h0.123l0.147,0.438c0.014,0.041,0.023,0.072,0.029,0.092
		c0.007-0.022,0.018-0.056,0.033-0.099l0.148-0.431h0.11v0.62h-0.079V5.247l-0.18,0.519h-0.074l-0.18-0.527v0.527
		C26.827,5.766,26.75,5.766,26.75,5.766z"/>
</g>
</svg>
