<?xml version="1.0" encoding="utf-8"?>
<!-- Generator: Adobe Illustrator 21.1.0, SVG Export Plug-In . SVG Version: 6.00 Build 0)  -->
<svg version="1.1" id="Layer_1" xmlns="http://www.w3.org/2000/svg" xmlns:xlink="http://www.w3.org/1999/xlink" x="0px" y="0px"
	 viewBox="0 0 45 60" style="enable-background:new 0 0 45 60;" xml:space="preserve">
<style type="text/css">
	.st0{fill:url(#SVGID_1_);}
	.st1{fill:url(#SVGID_2_);}
	.st2{fill:url(#SVGID_3_);}
	.st3{opacity:0.44;fill:#FFFFFF;enable-background:new    ;}
	.st4{fill:#8DC56F;}
	.st5{fill:#6CB048;}
	.st6{opacity:0.33;fill:#FFFFFF;enable-background:new    ;}
	.st7{fill:#FFFFFF;}
</style>
<g>
	<g>
		
			<linearGradient id="SVGID_1_" gradientUnits="userSpaceOnUse" x1="6.1925" y1="7.359" x2="6.1925" y2="17.372" gradientTransform="matrix(1 0 0 1 0 10)">
			<stop  offset="0" style="stop-color:#FFFFFF"/>
			<stop  offset="0.3126" style="stop-color:#E2E1E0"/>
			<stop  offset="0.4767" style="stop-color:#E0E0DF"/>
			<stop  offset="0.7198" style="stop-color:#C8C8C8"/>
		</linearGradient>
		<path class="st0" d="M4.635,17.541l0.1,1.154c0.678-0.89,1.614-1.336,2.807-1.336c1.023,0,1.788,0.306,2.294,0.918
			s0.768,1.532,0.786,2.762v6.333H7.551v-6.205c0-0.497-0.1-0.862-0.3-1.095s-0.563-0.35-1.09-0.35c-0.6,0-1.045,0.236-1.336,0.709
			v6.941H1.763v-9.831C1.763,17.541,4.635,17.541,4.635,17.541z"/>
		
			<linearGradient id="SVGID_2_" gradientUnits="userSpaceOnUse" x1="33.5115" y1="7.541" x2="33.5115" y2="17.372" gradientTransform="matrix(1 0 0 1 0 10)">
			<stop  offset="0" style="stop-color:#FFFFFF"/>
			<stop  offset="0.3126" style="stop-color:#E2E1E0"/>
			<stop  offset="0.4767" style="stop-color:#E0E0DF"/>
			<stop  offset="0.7198" style="stop-color:#C8C8C8"/>
		</linearGradient>
		<path class="st1" d="M36.124,23.338l0.99-5.797h2.934l-2.317,9.831h-2.589l-1.626-5.833l-1.636,5.833h-2.589l-2.316-9.831h2.934
			l0.972,5.933l1.564-5.933h2.135L36.124,23.338z"/>
	</g>
	
		<linearGradient id="SVGID_3_" gradientUnits="userSpaceOnUse" x1="19.4105" y1="49.318" x2="19.4105" y2="33.232" gradientTransform="matrix(1 0 0 -1 0 63.45)">
		<stop  offset="0" style="stop-color:#FFFFFF"/>
		<stop  offset="0.3126" style="stop-color:#E2E1E0"/>
		<stop  offset="0.4767" style="stop-color:#E0E0DF"/>
		<stop  offset="0.7198" style="stop-color:#C8C8C8"/>
	</linearGradient>
	<path class="st2" d="M17.69,17.834c0.578,0,6.313,3.313,6.313,4.362c0,1.048-5.579,4.362-6.313,4.362
		C16.957,26.559,17.113,17.834,17.69,17.834z M19.411,14.132c4.367,0,7.906,3.602,7.906,8.043c0,4.442-3.54,8.043-7.906,8.043
		s-7.907-3.602-7.907-8.045S15.044,14.132,19.411,14.132z"/>
	<path class="st3" d="M19.411,14.132c-3.441,0-6.366,2.237-7.453,5.358c1.365,0.987,3.192,1.687,5.254,1.956
		c0.051-1.905,0.223-3.613,0.478-3.613c0.428,0,3.675,1.814,5.338,3.181c1.456-0.43,2.722-1.089,3.691-1.909
		C25.534,16.186,22.709,14.132,19.411,14.132z"/>
	<path class="st4" d="M17.69,17.834c0.578,0,6.313,3.313,6.313,4.362c0,1.048-5.579,4.362-6.313,4.362
		C16.957,26.559,17.113,17.834,17.69,17.834z"/>
	<g>
		<path class="st5" d="M17.69,17.834c-0.073,0-0.14,0.141-0.198,0.388c0.735,0.107,6.276,3.325,6.276,4.357
			c0,0.039-0.011,0.082-0.025,0.129c0.166-0.201,0.262-0.376,0.262-0.511C24.002,21.147,18.267,17.834,17.69,17.834z"/>
	</g>
	<path class="st6" d="M17.212,21.447c0.609,0.08,1.237,0.122,1.881,0.122c1.402,0,2.733-0.198,3.934-0.553
		c-1.663-1.368-4.91-3.18-5.338-3.18C17.435,17.834,17.263,19.543,17.212,21.447z"/>
</g>
<g>
	<path class="st7" d="M2.126,38.76H1.743v-4.609h0.383V38.76z"/>
	<path class="st7" d="M5.9,38.76H5.52l-2.058-3.859l-0.019,0.003v3.856H3.06v-4.609h0.383l2.058,3.859l0.019-0.003v-3.856H5.9
		C5.9,34.151,5.9,38.76,5.9,38.76z"/>
	<path class="st7" d="M8.922,37.633c0-0.252-0.073-0.457-0.22-0.615S8.297,36.721,7.928,36.6c-0.42-0.129-0.738-0.295-0.954-0.498
		c-0.216-0.204-0.325-0.476-0.325-0.818c0-0.352,0.121-0.641,0.363-0.864c0.242-0.224,0.553-0.335,0.936-0.335
		c0.401,0,0.723,0.132,0.967,0.396s0.363,0.586,0.356,0.965l-0.01,0.019H8.903c0-0.306-0.085-0.557-0.255-0.752
		S8.244,34.42,7.947,34.42c-0.289,0-0.514,0.081-0.674,0.244s-0.241,0.366-0.241,0.611c0,0.228,0.078,0.42,0.233,0.575
		c0.155,0.155,0.418,0.291,0.79,0.407c0.409,0.127,0.72,0.298,0.932,0.514s0.318,0.501,0.318,0.853c0,0.369-0.125,0.662-0.375,0.879
		c-0.25,0.216-0.572,0.325-0.964,0.325c-0.386,0-0.722-0.116-1.008-0.348s-0.424-0.569-0.413-1.01l0.006-0.019h0.354
		c0,0.361,0.104,0.627,0.312,0.798s0.458,0.256,0.749,0.256c0.287,0,0.518-0.079,0.693-0.238S8.922,37.895,8.922,37.633z"/>
	<path class="st7" d="M12.489,34.486h-1.288v4.274h-0.38v-4.274H9.536V34.15h2.954v0.336H12.489z"/>
	<path class="st7" d="M13.359,36.673v2.086h-0.38v-4.606h1.323c0.414,0,0.73,0.109,0.95,0.326s0.329,0.533,0.329,0.949
		c0,0.245-0.058,0.462-0.174,0.653c-0.116,0.191-0.281,0.331-0.494,0.422c0.234,0.072,0.403,0.201,0.505,0.387
		s0.154,0.417,0.154,0.694v0.434c0,0.144,0.014,0.273,0.041,0.387c0.027,0.114,0.074,0.207,0.139,0.279v0.076h-0.389
		c-0.065-0.076-0.11-0.182-0.135-0.318c-0.024-0.135-0.036-0.279-0.036-0.432v-0.422c0-0.279-0.071-0.502-0.212-0.667
		s-0.336-0.248-0.583-0.248H13.359z M13.359,36.351h0.899c0.325,0,0.563-0.083,0.714-0.249c0.151-0.166,0.226-0.391,0.226-0.676
		c0-0.302-0.074-0.534-0.222-0.696c-0.148-0.163-0.372-0.244-0.674-0.244h-0.943C13.359,34.486,13.359,36.351,13.359,36.351z"/>
	<path class="st7" d="M19.022,34.15v3.226c0,0.471-0.126,0.83-0.377,1.078c-0.251,0.248-0.578,0.372-0.981,0.372
		c-0.395,0-0.714-0.124-0.959-0.372c-0.245-0.248-0.367-0.607-0.367-1.078V34.15h0.374v3.231c0,0.361,0.088,0.639,0.264,0.832
		s0.406,0.29,0.689,0.29c0.298,0,0.536-0.092,0.714-0.277s0.267-0.467,0.267-0.845V34.15H19.022z"/>
	<path class="st7" d="M22.32,37.421l0.009,0.019c-0.004,0.45-0.122,0.793-0.354,1.03c-0.232,0.238-0.552,0.356-0.959,0.356
		c-0.424,0-0.761-0.15-1.01-0.45s-0.374-0.727-0.374-1.282v-1.276c0-0.551,0.125-0.978,0.375-1.281
		c0.25-0.303,0.586-0.454,1.008-0.454c0.411,0,0.732,0.116,0.962,0.348s0.347,0.578,0.351,1.038l-0.009,0.019h-0.351
		c-0.011-0.365-0.095-0.635-0.253-0.809s-0.392-0.261-0.7-0.261c-0.317,0-0.564,0.119-0.741,0.358
		c-0.177,0.239-0.266,0.583-0.266,1.034v1.287c0,0.459,0.089,0.808,0.266,1.046c0.177,0.239,0.424,0.358,0.741,0.358
		c0.308,0,0.541-0.085,0.7-0.256c0.158-0.171,0.243-0.446,0.253-0.826h0.352C22.32,37.419,22.32,37.421,22.32,37.421z"/>
	<path class="st7" d="M25.482,34.486h-1.288v4.274h-0.38v-4.274h-1.285V34.15h2.954L25.482,34.486L25.482,34.486z"/>
	<path class="st7" d="M26.415,38.76h-0.383v-4.609h0.383V38.76z"/>
	<path class="st7" d="M30.055,37.104c0,0.559-0.13,0.986-0.391,1.281s-0.618,0.442-1.072,0.442c-0.445,0-0.795-0.147-1.049-0.442
		c-0.254-0.294-0.381-0.721-0.381-1.281v-1.292c0-0.559,0.127-0.987,0.38-1.284c0.253-0.296,0.602-0.445,1.048-0.445
		c0.454,0,0.812,0.149,1.073,0.446c0.262,0.298,0.393,0.725,0.393,1.282L30.055,37.104L30.055,37.104z M29.679,35.803
		c0-0.456-0.094-0.799-0.282-1.029s-0.457-0.345-0.807-0.345c-0.34,0-0.6,0.115-0.782,0.345s-0.272,0.573-0.272,1.029v1.301
		c0,0.462,0.091,0.808,0.272,1.039c0.182,0.23,0.443,0.345,0.785,0.345c0.35,0,0.619-0.115,0.806-0.345s0.28-0.576,0.28-1.039
		C29.679,37.104,29.679,35.803,29.679,35.803z"/>
	<path class="st7" d="M33.585,38.76h-0.38l-2.058-3.859l-0.019,0.003v3.856h-0.383v-4.609h0.383l2.058,3.859l0.019-0.003v-3.856
		h0.38V38.76z"/>
	<path class="st7" d="M36.576,37.481h-1.681l-0.393,1.279h-0.393l1.459-4.609h0.345l1.444,4.609h-0.392L36.576,37.481z
		 M35.002,37.132h1.469l-0.722-2.371H35.73L35.002,37.132z"/>
	<path class="st7" d="M38.208,38.437h1.862v0.323h-2.245v-4.609h0.383V38.437z"/>
	<path class="st7" d="M11.937,44.031c0-0.252-0.073-0.457-0.22-0.615c-0.147-0.157-0.405-0.297-0.774-0.417
		c-0.42-0.129-0.738-0.295-0.954-0.499c-0.216-0.203-0.325-0.476-0.325-0.818c0-0.352,0.121-0.64,0.363-0.864
		s0.553-0.336,0.936-0.336c0.401,0,0.723,0.132,0.967,0.396s0.363,0.586,0.356,0.965l-0.01,0.019h-0.358
		c0-0.306-0.085-0.556-0.255-0.752c-0.17-0.195-0.404-0.293-0.701-0.293c-0.289,0-0.514,0.081-0.674,0.244
		c-0.16,0.162-0.241,0.366-0.241,0.611c0,0.228,0.078,0.42,0.233,0.574c0.155,0.155,0.418,0.291,0.79,0.407
		c0.409,0.126,0.72,0.298,0.932,0.514s0.318,0.501,0.318,0.853c0,0.369-0.125,0.662-0.375,0.878s-0.572,0.325-0.964,0.325
		c-0.386,0-0.722-0.116-1.008-0.348s-0.424-0.569-0.413-1.01l0.006-0.019H9.92c0,0.361,0.104,0.627,0.312,0.798
		S10.69,44.9,10.981,44.9c0.287,0,0.518-0.079,0.693-0.238C11.849,44.504,11.937,44.294,11.937,44.031z"/>
	<path class="st7" d="M15.533,40.548v3.226c0,0.471-0.126,0.83-0.377,1.078c-0.251,0.248-0.578,0.372-0.981,0.372
		c-0.395,0-0.714-0.124-0.959-0.372s-0.367-0.607-0.367-1.078v-3.226h0.374v3.231c0,0.362,0.088,0.639,0.264,0.832
		s0.406,0.29,0.689,0.29c0.298,0,0.536-0.093,0.714-0.278c0.178-0.185,0.267-0.467,0.267-0.845v-3.231L15.533,40.548L15.533,40.548z
		"/>
	<path class="st7" d="M16.694,43.249v1.909h-0.38v-4.609h1.364c0.403,0,0.716,0.123,0.937,0.37c0.222,0.247,0.332,0.573,0.332,0.978
		c0,0.409-0.111,0.737-0.332,0.983c-0.222,0.246-0.534,0.369-0.937,0.369H16.694z M16.694,42.916h0.985
		c0.296,0,0.517-0.097,0.665-0.29s0.222-0.434,0.222-0.723c0-0.293-0.074-0.537-0.222-0.73s-0.369-0.29-0.665-0.29h-0.985V42.916z"
		/>
	<path class="st7" d="M19.951,43.249v1.909h-0.38v-4.609h1.364c0.403,0,0.716,0.123,0.937,0.37c0.222,0.247,0.332,0.573,0.332,0.978
		c0,0.409-0.111,0.737-0.332,0.983c-0.222,0.246-0.534,0.369-0.937,0.369H19.951z M19.951,42.916h0.985
		c0.296,0,0.517-0.097,0.665-0.29s0.222-0.434,0.222-0.723c0-0.293-0.074-0.537-0.222-0.73s-0.369-0.29-0.665-0.29h-0.985V42.916z"
		/>
	<path class="st7" d="M25.535,43.502c0,0.559-0.13,0.986-0.391,1.28c-0.261,0.295-0.618,0.442-1.072,0.442
		c-0.445,0-0.795-0.147-1.049-0.442c-0.254-0.294-0.381-0.721-0.381-1.28V42.21c0-0.559,0.127-0.987,0.38-1.283
		c0.253-0.296,0.602-0.445,1.048-0.445c0.454,0,0.812,0.149,1.073,0.446c0.262,0.298,0.393,0.725,0.393,1.282L25.535,43.502
		L25.535,43.502z M25.158,42.201c0-0.456-0.094-0.799-0.282-1.029s-0.457-0.345-0.807-0.345c-0.34,0-0.6,0.115-0.782,0.345
		s-0.272,0.573-0.272,1.029v1.301c0,0.462,0.091,0.808,0.272,1.038c0.182,0.23,0.443,0.345,0.785,0.345
		c0.35,0,0.619-0.115,0.806-0.345s0.28-0.576,0.28-1.038C25.158,43.502,25.158,42.201,25.158,42.201z"/>
	<path class="st7" d="M26.598,43.072v2.086h-0.38v-4.606h1.323c0.414,0,0.73,0.108,0.95,0.326c0.22,0.217,0.329,0.533,0.329,0.948
		c0,0.245-0.058,0.462-0.174,0.653c-0.116,0.191-0.281,0.332-0.494,0.422c0.234,0.072,0.403,0.201,0.505,0.387
		s0.154,0.417,0.154,0.694v0.434c0,0.144,0.014,0.273,0.041,0.387c0.027,0.114,0.074,0.207,0.139,0.279v0.076h-0.389
		c-0.065-0.076-0.11-0.182-0.135-0.318c-0.024-0.135-0.036-0.279-0.036-0.432v-0.422c0-0.279-0.071-0.502-0.212-0.667
		s-0.336-0.247-0.583-0.247H26.598z M26.598,42.749h0.899c0.325,0,0.563-0.083,0.714-0.249s0.226-0.391,0.226-0.676
		c0-0.302-0.074-0.534-0.222-0.696s-0.372-0.244-0.674-0.244h-0.943V42.749z"/>
	<path class="st7" d="M31.978,40.884H30.69v4.274h-0.38v-4.274h-1.285v-0.336h2.954L31.978,40.884L31.978,40.884z"/>
</g>
</svg>
