<?xml version="1.0" encoding="utf-8"?>
<!-- Generator: Adobe Illustrator 21.1.0, SVG Export Plug-In . SVG Version: 6.00 Build 0)  -->
<svg version="1.1" id="Layer_1" xmlns="http://www.w3.org/2000/svg" xmlns:xlink="http://www.w3.org/1999/xlink" x="0px" y="0px"
	 viewBox="0 0 60 60" style="enable-background:new 0 0 60 60;" xml:space="preserve">
<style type="text/css">
	.st0{fill:#ECEEEF;}
	.st1{fill:url(#SVGID_1_);}
	.st2{fill:url(#SVGID_2_);}
	.st3{fill:url(#SVGID_3_);}
	.st4{fill:#FFFFFF;}
	.st5{fill:url(#SVGID_4_);}
	.st6{fill:url(#SVGID_5_);}
	.st7{fill:url(#SVGID_6_);}
	.st8{opacity:0.44;fill:#FFFFFF;enable-background:new    ;}
	.st9{fill:#8DC56F;}
	.st10{fill:#6CB048;}
	.st11{opacity:0.33;fill:#FFFFFF;enable-background:new    ;}
</style>
<circle class="st0" cx="33.444" cy="30.106" r="26.06"/>
<linearGradient id="SVGID_1_" gradientUnits="userSpaceOnUse" x1="33.4437" y1="86.3833" x2="33.4437" y2="137.8293" gradientTransform="matrix(1 0 0 1 0 -82)">
	<stop  offset="0" style="stop-color:#FFFFFF"/>
	<stop  offset="0.1974" style="stop-color:#B9BBBE"/>
	<stop  offset="0.3879" style="stop-color:#AEB0B3"/>
	<stop  offset="0.5756" style="stop-color:#9A9C9F"/>
	<stop  offset="0.7616" style="stop-color:#7F8184"/>
	<stop  offset="0.9447" style="stop-color:#5C5E61"/>
	<stop  offset="1" style="stop-color:#505255"/>
</linearGradient>
<circle class="st1" cx="33.444" cy="30.106" r="25.723"/>
<linearGradient id="SVGID_2_" gradientUnits="userSpaceOnUse" x1="33.4437" y1="136.8727" x2="33.4437" y2="87.4375" gradientTransform="matrix(1 0 0 1 0 -82)">
	<stop  offset="0" style="stop-color:#620302"/>
	<stop  offset="0.1663" style="stop-color:#690505"/>
	<stop  offset="0.6215" style="stop-color:#78090A"/>
	<stop  offset="1" style="stop-color:#7D0A0C"/>
</linearGradient>
<circle class="st2" cx="33.444" cy="30.199" r="24.674"/>
<linearGradient id="SVGID_3_" gradientUnits="userSpaceOnUse" x1="33.4437" y1="88.0787" x2="33.4437" y2="136.3186" gradientTransform="matrix(1 0 0 1 0 -82)">
	<stop  offset="0" style="stop-color:#BF1000"/>
	<stop  offset="0.2938" style="stop-color:#BB1001"/>
	<stop  offset="0.5772" style="stop-color:#B01006"/>
	<stop  offset="0.8555" style="stop-color:#9C0F0D"/>
	<stop  offset="1" style="stop-color:#8F0F12"/>
</linearGradient>
<circle class="st3" cx="33.444" cy="30.199" r="24.12"/>
<g>
	<g>
		<path class="st4" d="M18.226,37.851h-0.314v-3.77h0.314V37.851z"/>
		<path class="st4" d="M21.313,37.851h-0.311l-1.683-3.158l-0.017,0.003v3.154h-0.314v-3.77h0.314l1.683,3.158l0.017-0.003v-3.154
			h0.311C21.313,34.081,21.313,37.851,21.313,37.851z"/>
		<path class="st4" d="M23.786,36.93c0-0.206-0.06-0.374-0.181-0.503c-0.121-0.129-0.332-0.242-0.633-0.342
			c-0.343-0.105-0.603-0.24-0.781-0.407c-0.177-0.167-0.266-0.389-0.266-0.67c0-0.289,0.099-0.524,0.297-0.706
			c0.197-0.184,0.451-0.274,0.765-0.274c0.328,0,0.591,0.108,0.79,0.323c0.199,0.215,0.297,0.48,0.291,0.789l-0.008,0.017h-0.293
			c0-0.251-0.07-0.457-0.209-0.615c-0.139-0.158-0.331-0.239-0.573-0.239c-0.237,0-0.421,0.065-0.552,0.199
			c-0.131,0.134-0.196,0.3-0.196,0.501c0,0.187,0.064,0.343,0.19,0.471c0.127,0.127,0.342,0.238,0.646,0.333
			c0.334,0.104,0.59,0.243,0.763,0.421c0.172,0.177,0.26,0.409,0.26,0.698c0,0.302-0.103,0.542-0.307,0.719
			c-0.205,0.177-0.468,0.266-0.789,0.266c-0.315,0-0.59-0.095-0.824-0.284c-0.233-0.19-0.346-0.465-0.339-0.826l0.004-0.017h0.29
			c0,0.296,0.085,0.513,0.255,0.653c0.17,0.14,0.375,0.209,0.613,0.209c0.235,0,0.424-0.064,0.567-0.195
			C23.713,37.319,23.786,37.144,23.786,36.93z"/>
		<path class="st4" d="M26.702,34.356h-1.054v3.496h-0.311v-3.496h-1.05v-0.274h2.416L26.702,34.356L26.702,34.356z"/>
		<path class="st4" d="M27.415,36.145v1.705h-0.311v-3.767h1.082c0.339,0,0.597,0.089,0.777,0.267
			c0.181,0.178,0.27,0.437,0.27,0.777c0,0.2-0.047,0.378-0.143,0.533c-0.095,0.156-0.23,0.272-0.404,0.345
			c0.191,0.06,0.331,0.165,0.413,0.316c0.084,0.152,0.126,0.341,0.126,0.568v0.355c0,0.118,0.012,0.222,0.034,0.316
			c0.022,0.093,0.061,0.169,0.113,0.228v0.063h-0.319c-0.052-0.063-0.09-0.148-0.11-0.26c-0.02-0.11-0.029-0.228-0.029-0.354V36.89
			c0-0.228-0.059-0.41-0.173-0.547c-0.115-0.134-0.274-0.203-0.477-0.203h-0.85L27.415,36.145L27.415,36.145L27.415,36.145z
			 M27.415,35.881h0.736c0.266,0,0.46-0.068,0.583-0.204c0.123-0.135,0.185-0.32,0.185-0.553c0-0.247-0.061-0.437-0.181-0.57
			c-0.122-0.134-0.304-0.199-0.552-0.199h-0.771L27.415,35.881L27.415,35.881z"/>
		<path class="st4" d="M32.047,34.081v2.639c0,0.385-0.103,0.679-0.309,0.883c-0.205,0.203-0.472,0.304-0.802,0.304
			c-0.322,0-0.583-0.102-0.784-0.304c-0.2-0.203-0.3-0.496-0.3-0.883v-2.639h0.305v2.642c0,0.296,0.071,0.523,0.215,0.681
			c0.145,0.157,0.332,0.238,0.565,0.238c0.243,0,0.439-0.076,0.583-0.227c0.146-0.152,0.218-0.382,0.218-0.691v-2.642
			C31.738,34.081,32.047,34.081,32.047,34.081z"/>
		<path class="st4" d="M34.744,36.757l0.007,0.017c-0.003,0.367-0.1,0.649-0.29,0.843c-0.19,0.195-0.451,0.291-0.784,0.291
			c-0.346,0-0.623-0.123-0.826-0.367c-0.204-0.247-0.305-0.595-0.305-1.049v-1.043c0-0.45,0.103-0.8,0.307-1.048
			c0.205-0.248,0.48-0.371,0.824-0.371c0.336,0,0.599,0.095,0.787,0.284c0.189,0.19,0.283,0.472,0.288,0.849l-0.007,0.017h-0.288
			c-0.009-0.298-0.079-0.519-0.207-0.662c-0.128-0.143-0.321-0.214-0.573-0.214c-0.259,0-0.461,0.097-0.607,0.293
			c-0.146,0.196-0.217,0.477-0.217,0.845v1.053c0,0.376,0.072,0.661,0.217,0.855c0.146,0.196,0.346,0.293,0.607,0.293
			c0.252,0,0.443-0.07,0.573-0.209c0.129-0.14,0.198-0.364,0.207-0.676h0.289C34.744,36.755,34.744,36.757,34.744,36.757z"/>
		<path class="st4" d="M37.33,34.356h-1.053v3.496h-0.311v-3.496h-1.05v-0.274h2.416L37.33,34.356L37.33,34.356z"/>
		<path class="st4" d="M38.095,37.851h-0.314v-3.77h0.314V37.851z"/>
		<path class="st4" d="M41.071,36.498c0,0.458-0.106,0.808-0.32,1.048s-0.507,0.362-0.876,0.362c-0.364,0-0.651-0.122-0.857-0.362
			c-0.208-0.239-0.312-0.59-0.312-1.048v-1.058c0-0.458,0.104-0.808,0.311-1.05c0.207-0.241,0.492-0.364,0.857-0.364
			c0.371,0,0.664,0.122,0.877,0.364c0.215,0.243,0.321,0.593,0.321,1.049L41.071,36.498L41.071,36.498z M40.764,35.433
			c0-0.373-0.077-0.654-0.23-0.842c-0.154-0.189-0.374-0.282-0.659-0.282c-0.278,0-0.49,0.094-0.639,0.282
			c-0.148,0.189-0.221,0.469-0.221,0.842v1.064c0,0.378,0.075,0.661,0.221,0.85c0.148,0.189,0.363,0.282,0.642,0.282
			c0.286,0,0.507-0.094,0.658-0.282c0.153-0.189,0.229-0.471,0.229-0.85C40.764,36.498,40.764,35.433,40.764,35.433z"/>
		<path class="st4" d="M43.959,37.851h-0.311l-1.683-3.158l-0.017,0.003v3.154h-0.313v-3.77h0.314l1.683,3.158l0.017-0.003v-3.154
			h0.311L43.959,37.851L43.959,37.851z"/>
		<path class="st4" d="M46.406,36.806h-1.375l-0.321,1.046h-0.321l1.193-3.77h0.282l1.182,3.77h-0.321L46.406,36.806z M45.117,36.52
			h1.202l-0.59-1.939h-0.017L45.117,36.52z"/>
		<path class="st4" d="M47.741,37.588h1.523v0.263h-1.836v-3.77h0.314V37.588L47.741,37.588z"/>
		<path class="st4" d="M26.251,42.164c0-0.206-0.06-0.374-0.181-0.503c-0.122-0.128-0.332-0.242-0.633-0.341
			c-0.343-0.105-0.603-0.24-0.781-0.408c-0.177-0.166-0.266-0.389-0.266-0.67c0-0.289,0.099-0.523,0.297-0.706
			c0.197-0.184,0.451-0.274,0.765-0.274c0.328,0,0.591,0.108,0.79,0.323c0.199,0.215,0.297,0.48,0.291,0.789l-0.008,0.017h-0.292
			c0-0.251-0.07-0.455-0.209-0.615c-0.139-0.158-0.331-0.239-0.573-0.239c-0.237,0-0.421,0.065-0.552,0.199
			c-0.131,0.133-0.196,0.299-0.196,0.5c0,0.187,0.064,0.343,0.19,0.47c0.127,0.127,0.342,0.238,0.646,0.333
			c0.334,0.103,0.59,0.243,0.763,0.421c0.172,0.177,0.26,0.409,0.26,0.698c0,0.302-0.103,0.542-0.307,0.718
			c-0.205,0.177-0.468,0.266-0.789,0.266c-0.315,0-0.59-0.095-0.824-0.284c-0.233-0.19-0.346-0.465-0.339-0.826l0.004-0.017h0.29
			c0,0.296,0.085,0.513,0.255,0.653c0.17,0.139,0.375,0.209,0.613,0.209c0.235,0,0.424-0.064,0.567-0.195
			C26.18,42.55,26.251,42.378,26.251,42.164z"/>
		<path class="st4" d="M29.192,39.315v2.639c0,0.385-0.103,0.679-0.309,0.883c-0.205,0.203-0.472,0.304-0.802,0.304
			c-0.322,0-0.583-0.102-0.784-0.304c-0.2-0.203-0.3-0.496-0.3-0.883v-2.639h0.305v2.642c0,0.297,0.071,0.523,0.215,0.681
			c0.145,0.157,0.332,0.238,0.565,0.238c0.243,0,0.439-0.076,0.583-0.228c0.146-0.152,0.218-0.382,0.218-0.691v-2.642L29.192,39.315
			L29.192,39.315z"/>
		<path class="st4" d="M30.142,41.523v1.562h-0.311v-3.768h1.116c0.331,0,0.586,0.101,0.766,0.302
			c0.181,0.203,0.272,0.469,0.272,0.8c0,0.334-0.09,0.602-0.272,0.804c-0.181,0.201-0.437,0.302-0.766,0.302L30.142,41.523
			L30.142,41.523z M30.142,41.251h0.807c0.241,0,0.423-0.08,0.544-0.238c0.122-0.157,0.181-0.355,0.181-0.591
			c0-0.239-0.061-0.439-0.181-0.597c-0.122-0.157-0.302-0.238-0.544-0.238h-0.807V41.251z"/>
		<path class="st4" d="M32.807,41.523v1.562h-0.311v-3.768h1.116c0.331,0,0.586,0.101,0.766,0.302
			c0.181,0.203,0.272,0.469,0.272,0.8c0,0.334-0.09,0.602-0.272,0.804c-0.181,0.201-0.437,0.302-0.766,0.302L32.807,41.523
			L32.807,41.523z M32.807,41.251h0.807c0.241,0,0.423-0.08,0.544-0.238c0.122-0.157,0.181-0.355,0.181-0.591
			c0-0.239-0.061-0.439-0.181-0.597c-0.122-0.157-0.302-0.238-0.544-0.238h-0.807V41.251z"/>
		<path class="st4" d="M37.374,41.73c0,0.458-0.106,0.808-0.32,1.047c-0.214,0.24-0.507,0.362-0.876,0.362
			c-0.364,0-0.651-0.122-0.857-0.362c-0.208-0.239-0.312-0.59-0.312-1.047v-1.057c0-0.458,0.104-0.808,0.311-1.05
			c0.207-0.241,0.492-0.364,0.857-0.364c0.371,0,0.664,0.122,0.877,0.364c0.215,0.243,0.321,0.593,0.321,1.049L37.374,41.73
			L37.374,41.73z M37.066,40.667c0-0.373-0.077-0.654-0.23-0.842c-0.153-0.188-0.374-0.282-0.659-0.282
			c-0.278,0-0.49,0.094-0.639,0.282c-0.149,0.188-0.221,0.469-0.221,0.842v1.064c0,0.378,0.075,0.661,0.221,0.849
			c0.148,0.189,0.363,0.282,0.642,0.282c0.286,0,0.507-0.094,0.658-0.282c0.153-0.189,0.229-0.471,0.229-0.849L37.066,40.667
			L37.066,40.667z"/>
		<path class="st4" d="M38.244,41.378v1.705h-0.311v-3.767h1.082c0.339,0,0.597,0.088,0.777,0.267
			c0.179,0.178,0.27,0.437,0.27,0.776c0,0.2-0.047,0.378-0.143,0.533c-0.096,0.155-0.23,0.272-0.404,0.345
			c0.191,0.06,0.331,0.165,0.413,0.316c0.084,0.153,0.126,0.341,0.126,0.568v0.355c0,0.118,0.012,0.222,0.034,0.316
			c0.021,0.093,0.061,0.169,0.113,0.228v0.063h-0.319c-0.052-0.063-0.09-0.148-0.11-0.26c-0.02-0.11-0.029-0.228-0.029-0.354v-0.345
			c0-0.228-0.059-0.41-0.173-0.547c-0.115-0.134-0.274-0.203-0.477-0.203h-0.85L38.244,41.378L38.244,41.378L38.244,41.378z
			 M38.244,41.115h0.736c0.266,0,0.46-0.068,0.583-0.204c0.123-0.135,0.185-0.32,0.185-0.553c0-0.247-0.061-0.437-0.181-0.57
			c-0.122-0.133-0.304-0.199-0.552-0.199h-0.772L38.244,41.115L38.244,41.115z"/>
		<path class="st4" d="M42.644,39.589H41.59v3.496H41.28v-3.496h-1.05v-0.274h2.416L42.644,39.589L42.644,39.589z"/>
	</g>
	<g>
		<g>
			<g>
				
					<linearGradient id="SVGID_4_" gradientUnits="userSpaceOnUse" x1="21.5547" y1="-34.0657" x2="21.5547" y2="-42.2564" gradientTransform="matrix(1 0 0 -1 0 -12)">
					<stop  offset="0" style="stop-color:#FFFFFF"/>
					<stop  offset="0.3126" style="stop-color:#E2E1E0"/>
					<stop  offset="0.4767" style="stop-color:#E0E0DF"/>
					<stop  offset="0.7198" style="stop-color:#C8C8C8"/>
				</linearGradient>
				<path class="st5" d="M20.28,22.214l0.082,0.944c0.554-0.727,1.32-1.092,2.297-1.092c0.836,0,1.462,0.251,1.876,0.751
					c0.413,0.501,0.628,1.253,0.643,2.259v5.18h-2.512v-5.075c0-0.406-0.082-0.705-0.247-0.895C22.256,24.096,21.96,24,21.529,24
					c-0.49,0-0.855,0.193-1.092,0.58v5.676h-2.505v-8.041L20.28,22.214L20.28,22.214L20.28,22.214z"/>
				
					<linearGradient id="SVGID_5_" gradientUnits="userSpaceOnUse" x1="43.8991" y1="-34.2115" x2="43.8991" y2="-42.2522" gradientTransform="matrix(1 0 0 -1 0 -12)">
					<stop  offset="0" style="stop-color:#FFFFFF"/>
					<stop  offset="0.3126" style="stop-color:#E2E1E0"/>
					<stop  offset="0.4767" style="stop-color:#E0E0DF"/>
					<stop  offset="0.7198" style="stop-color:#C8C8C8"/>
				</linearGradient>
				<path class="st6" d="M46.037,26.954l0.809-4.742h2.4l-1.895,8.041h-2.118l-1.331-4.772l-1.338,4.772h-2.118l-1.894-8.041h2.4
					l0.794,4.854l1.279-4.854h1.746L46.037,26.954z"/>
			</g>
			
				<linearGradient id="SVGID_6_" gradientUnits="userSpaceOnUse" x1="32.367" y1="87.9743" x2="32.367" y2="101.134" gradientTransform="matrix(1 0 0 1 0 -68.55)">
				<stop  offset="0" style="stop-color:#FFFFFF"/>
				<stop  offset="0.3126" style="stop-color:#E2E1E0"/>
				<stop  offset="0.4767" style="stop-color:#E0E0DF"/>
				<stop  offset="0.7198" style="stop-color:#C8C8C8"/>
			</linearGradient>
			<path class="st7" d="M30.959,22.453c0.472,0,5.164,2.71,5.164,3.569c0,0.857-4.564,3.569-5.164,3.569
				C30.358,29.59,30.485,22.453,30.959,22.453z M32.367,19.424c3.571,0,6.468,2.946,6.468,6.58s-2.895,6.58-6.468,6.58
				s-6.468-2.946-6.468-6.581S28.793,19.424,32.367,19.424z"/>
			<path class="st8" d="M32.367,19.424c-2.816,0-5.208,1.83-6.095,4.382c1.117,0.808,2.611,1.38,4.297,1.6
				c0.041-1.558,0.183-2.955,0.39-2.955c0.351,0,3.007,1.485,4.367,2.603c1.192-0.353,2.227-0.891,3.019-1.562
				C37.374,21.105,35.063,19.424,32.367,19.424z"/>
			<path class="st9" d="M30.959,22.453c0.472,0,5.164,2.71,5.164,3.569c0,0.857-4.564,3.569-5.164,3.569
				C30.358,29.59,30.485,22.453,30.959,22.453z"/>
			<g>
				<path class="st10" d="M30.959,22.453c-0.06,0-0.114,0.115-0.163,0.318c0.601,0.087,5.134,2.72,5.134,3.564
					c0,0.031-0.009,0.066-0.021,0.105c0.135-0.165,0.215-0.309,0.215-0.418C36.121,25.162,31.43,22.453,30.959,22.453z"/>
			</g>
			<path class="st11" d="M30.567,25.409c0.497,0.065,1.012,0.1,1.538,0.1c1.147,0,2.235-0.163,3.218-0.451
				c-1.36-1.12-4.016-2.602-4.367-2.602C30.75,22.453,30.609,23.851,30.567,25.409z"/>
		</g>
		<g>
			<path class="st4" d="M51.153,21.67h-0.375v1.04h-0.154v-1.04h-0.373v-0.126h0.901C51.153,21.544,51.153,21.67,51.153,21.67z"/>
			<path class="st4" d="M51.524,21.544l0.381,0.95l0.381-0.95h0.199v1.166H52.33v-0.453l0.015-0.49l-0.382,0.943h-0.118
				l-0.381-0.941l0.015,0.488v0.454h-0.154v-1.166L51.524,21.544L51.524,21.544z"/>
		</g>
	</g>
</g>
</svg>
