<?xml version="1.0" encoding="utf-8"?>
<!-- Generator: Adobe Illustrator 21.1.0, SVG Export Plug-In . SVG Version: 6.00 Build 0)  -->
<svg version="1.1" id="Layer_1" xmlns="http://www.w3.org/2000/svg" xmlns:xlink="http://www.w3.org/1999/xlink" x="0px" y="0px"
	 viewBox="0 0 45 60" style="enable-background:new 0 0 45 60;" xml:space="preserve">
<style type="text/css">
	.st0{fill:#8DC56F;}
	.st1{fill:#FFFFFF;}
</style>
<g>
	<g>
		<path class="st0" d="M19.021,14.737c0.847,0,9.244,4.852,9.244,6.388c0,1.534-8.17,6.388-9.244,6.388
			C17.949,27.515,18.176,14.737,19.021,14.737z M21.542,9.317c6.395,0,11.577,5.275,11.577,11.779
			c0,6.505-5.184,11.779-11.577,11.779S9.963,27.6,9.963,21.095S15.147,9.317,21.542,9.317z"/>
		<path class="st1" d="M18.472,14.737c0.847,0,9.244,4.852,9.244,6.388c0,1.534-8.17,6.388-9.244,6.388
			C17.4,27.515,17.627,14.737,18.472,14.737z"/>
	</g>
	<g>
		<path class="st1" d="M6.384,48.152h2.741v0.396H5.911v-5.55h0.473V48.152z"/>
		<path class="st1" d="M9.696,43.233c0-0.086,0.027-0.158,0.083-0.218c0.056-0.059,0.132-0.09,0.229-0.09s0.174,0.03,0.231,0.09
			c0.057,0.059,0.086,0.131,0.086,0.218c0,0.086-0.029,0.158-0.086,0.216c-0.058,0.058-0.135,0.086-0.231,0.086
			s-0.173-0.029-0.229-0.086C9.723,43.391,9.696,43.319,9.696,43.233z M10.233,48.549H9.776v-4.125h0.457V48.549z"/>
		<path class="st1" d="M12.561,47.92l1.255-3.496h0.468l-1.54,4.125h-0.369l-1.548-4.125h0.468L12.561,47.92z"/>
		<path class="st1" d="M16.385,48.625c-0.351,0-0.668-0.086-0.951-0.259c-0.284-0.173-0.504-0.413-0.662-0.723
			c-0.158-0.308-0.236-0.655-0.236-1.039v-0.163c0-0.396,0.077-0.754,0.23-1.072s0.368-0.568,0.643-0.749
			c0.274-0.182,0.571-0.273,0.891-0.273c0.501,0,0.898,0.171,1.192,0.513c0.293,0.342,0.44,0.809,0.44,1.401v0.256h-2.943v0.087
			c0,0.468,0.134,0.857,0.402,1.168c0.269,0.312,0.606,0.468,1.012,0.468c0.244,0,0.459-0.045,0.646-0.134
			c0.186-0.089,0.357-0.231,0.509-0.427l0.285,0.217C17.509,48.383,17.022,48.625,16.385,48.625z M16.3,44.737
			c-0.342,0-0.632,0.125-0.867,0.378c-0.235,0.251-0.379,0.59-0.429,1.013h2.474v-0.049c-0.013-0.396-0.126-0.719-0.34-0.968
			C16.925,44.861,16.646,44.737,16.3,44.737z"/>
		<path class="st1" d="M22.108,47.863l0.03,0.119l0.035-0.119l1.746-4.864h0.514l-2.065,5.55h-0.45l-2.067-5.55h0.512L22.108,47.863
			z"/>
		<path class="st1" d="M24.92,43.233c0-0.086,0.028-0.158,0.085-0.218c0.055-0.059,0.131-0.09,0.229-0.09
			c0.096,0,0.173,0.03,0.23,0.09c0.057,0.059,0.086,0.131,0.086,0.218c0,0.086-0.029,0.158-0.086,0.216
			c-0.058,0.058-0.135,0.086-0.23,0.086c-0.097,0-0.174-0.029-0.229-0.086C24.948,43.391,24.92,43.319,24.92,43.233z M25.458,48.549
			h-0.457v-4.125h0.457V48.549z"/>
		<path class="st1" d="M26.319,46.448c0-0.64,0.143-1.15,0.429-1.53c0.286-0.38,0.674-0.57,1.165-0.57
			c0.557,0,0.981,0.22,1.273,0.66v-2.314h0.454v5.855h-0.427L29.193,48c-0.292,0.417-0.722,0.625-1.288,0.625
			c-0.475,0-0.858-0.191-1.15-0.573c-0.291-0.383-0.436-0.899-0.436-1.549V46.448z M26.78,46.528c0,0.526,0.106,0.941,0.317,1.244
			c0.211,0.304,0.508,0.456,0.892,0.456c0.562,0,0.961-0.247,1.197-0.744v-1.937c-0.236-0.535-0.633-0.804-1.189-0.804
			c-0.384,0-0.683,0.151-0.896,0.452C26.886,45.497,26.78,45.941,26.78,46.528z"/>
		<path class="st1" d="M32.243,48.625c-0.351,0-0.668-0.086-0.951-0.259c-0.284-0.173-0.504-0.413-0.662-0.723
			c-0.158-0.308-0.236-0.655-0.236-1.039v-0.163c0-0.396,0.077-0.754,0.23-1.072c0.154-0.318,0.368-0.568,0.643-0.749
			c0.274-0.182,0.571-0.273,0.891-0.273c0.501,0,0.898,0.171,1.192,0.513c0.293,0.342,0.44,0.809,0.44,1.401v0.256h-2.943v0.087
			c0,0.468,0.135,0.857,0.402,1.168c0.269,0.312,0.606,0.468,1.012,0.468c0.244,0,0.459-0.045,0.646-0.134
			c0.186-0.089,0.357-0.231,0.509-0.427l0.285,0.217C33.367,48.383,32.88,48.625,32.243,48.625z M32.158,44.737
			c-0.342,0-0.632,0.125-0.867,0.378c-0.235,0.251-0.379,0.59-0.429,1.013h2.474v-0.049c-0.013-0.396-0.126-0.719-0.34-0.968
			C32.783,44.861,32.504,44.737,32.158,44.737z"/>
		<path class="st1" d="M34.231,46.426c0-0.396,0.077-0.754,0.23-1.072c0.154-0.318,0.371-0.565,0.652-0.741
			c0.28-0.177,0.599-0.265,0.955-0.265c0.549,0,0.994,0.192,1.334,0.578c0.341,0.385,0.511,0.895,0.511,1.531v0.095
			c0,0.399-0.077,0.758-0.23,1.077c-0.154,0.319-0.371,0.565-0.651,0.738c-0.28,0.173-0.598,0.259-0.956,0.259
			c-0.546,0-0.99-0.192-1.333-0.578c-0.341-0.385-0.513-0.895-0.513-1.53L34.231,46.426L34.231,46.426z M34.688,46.551
			c0,0.493,0.128,0.898,0.383,1.214c0.256,0.317,0.59,0.475,1.005,0.475c0.412,0,0.745-0.158,1-0.475
			c0.256-0.316,0.383-0.734,0.383-1.252v-0.087c0-0.315-0.058-0.604-0.175-0.866c-0.118-0.262-0.281-0.464-0.492-0.608
			c-0.211-0.143-0.452-0.215-0.724-0.215c-0.407,0-0.739,0.159-0.995,0.479c-0.258,0.319-0.385,0.736-0.385,1.252
			C34.688,46.468,34.688,46.551,34.688,46.551z"/>
	</g>
</g>
</svg>
