<?xml version="1.0" encoding="utf-8"?>
<!-- Generator: Adobe Illustrator 21.1.0, SVG Export Plug-In . SVG Version: 6.00 Build 0)  -->
<svg version="1.1" id="Layer_1" xmlns="http://www.w3.org/2000/svg" xmlns:xlink="http://www.w3.org/1999/xlink" x="0px" y="0px"
	 viewBox="0 0 45 60" style="enable-background:new 0 0 45 60;" xml:space="preserve">
<style type="text/css">
	.st0{display:none;}
	.st1{display:inline;}
	.st2{fill:#8DC56F;}
	.st3{fill:#FFFFFF;}
	.st4{display:inline;fill:#8DC56F;}
	.st5{display:none;fill:#8DC56F;}
	.st6{display:inline;fill:#FFFFFF;}
	.st7{display:none;fill:#FFFFFF;}
</style>
<g class="st0">
	<g class="st1">
		<path class="st2" d="M76.847,14.737c0.847,0,9.244,4.852,9.244,6.388c0,1.534-8.17,6.388-9.244,6.388
			C75.774,27.515,76.002,14.737,76.847,14.737z M79.367,9.317c6.395,0,11.577,5.275,11.577,11.779
			c0,6.505-5.184,11.779-11.577,11.779S67.788,27.6,67.788,21.095S72.972,9.317,79.367,9.317z"/>
		<path class="st3" d="M76.298,14.737c0.847,0,9.244,4.852,9.244,6.388c0,1.534-8.17,6.388-9.244,6.388
			C75.225,27.515,75.453,14.737,76.298,14.737z"/>
	</g>
	<g class="st1">
		<path class="st3" d="M64.209,48.152h2.741v0.396h-3.214v-5.55h0.473V48.152z"/>
		<path class="st3" d="M67.521,43.233c0-0.086,0.027-0.158,0.083-0.218c0.056-0.059,0.132-0.09,0.229-0.09s0.174,0.03,0.231,0.09
			c0.057,0.059,0.086,0.131,0.086,0.218c0,0.086-0.029,0.158-0.086,0.216c-0.058,0.058-0.135,0.086-0.231,0.086
			s-0.173-0.029-0.229-0.086C67.548,43.391,67.521,43.319,67.521,43.233z M68.058,48.549h-0.457v-4.125h0.457V48.549z"/>
		<path class="st3" d="M70.386,47.92l1.255-3.496h0.468l-1.54,4.125H70.2l-1.548-4.125h0.468L70.386,47.92z"/>
		<path class="st3" d="M74.21,48.625c-0.351,0-0.668-0.086-0.951-0.259c-0.284-0.173-0.504-0.413-0.662-0.723
			c-0.158-0.308-0.236-0.655-0.236-1.039v-0.163c0-0.396,0.077-0.754,0.23-1.072s0.368-0.568,0.643-0.749
			c0.274-0.182,0.571-0.273,0.891-0.273c0.501,0,0.898,0.171,1.192,0.513c0.293,0.342,0.44,0.809,0.44,1.401v0.256h-2.943v0.087
			c0,0.468,0.134,0.857,0.402,1.168c0.269,0.312,0.606,0.468,1.012,0.468c0.244,0,0.459-0.045,0.646-0.134
			c0.186-0.089,0.357-0.231,0.509-0.427l0.285,0.217C75.334,48.383,74.847,48.625,74.21,48.625z M74.125,44.737
			c-0.342,0-0.632,0.125-0.867,0.378c-0.235,0.251-0.379,0.59-0.429,1.013h2.474v-0.049c-0.013-0.396-0.126-0.719-0.34-0.968
			C74.751,44.861,74.471,44.737,74.125,44.737z"/>
		<path class="st3" d="M79.933,47.863l0.03,0.119l0.035-0.119l1.746-4.864h0.514l-2.065,5.55h-0.45l-2.067-5.55h0.512L79.933,47.863
			z"/>
		<path class="st3" d="M82.746,43.233c0-0.086,0.028-0.158,0.085-0.218c0.055-0.059,0.131-0.09,0.229-0.09
			c0.096,0,0.173,0.03,0.23,0.09c0.057,0.059,0.086,0.131,0.086,0.218c0,0.086-0.029,0.158-0.086,0.216
			c-0.058,0.058-0.135,0.086-0.23,0.086c-0.097,0-0.174-0.029-0.229-0.086C82.774,43.391,82.746,43.319,82.746,43.233z
			 M83.284,48.549h-0.457v-4.125h0.457V48.549z"/>
		<path class="st3" d="M84.144,46.448c0-0.64,0.143-1.15,0.429-1.53c0.286-0.38,0.674-0.57,1.165-0.57
			c0.557,0,0.981,0.22,1.273,0.66v-2.314h0.454v5.855h-0.427L87.019,48c-0.292,0.417-0.722,0.625-1.288,0.625
			c-0.475,0-0.858-0.191-1.15-0.573c-0.291-0.383-0.436-0.899-0.436-1.549L84.144,46.448L84.144,46.448z M84.605,46.528
			c0,0.526,0.106,0.941,0.317,1.244c0.211,0.304,0.508,0.456,0.892,0.456c0.562,0,0.961-0.247,1.197-0.744v-1.937
			c-0.236-0.535-0.633-0.804-1.189-0.804c-0.384,0-0.683,0.151-0.896,0.452C84.712,45.497,84.605,45.941,84.605,46.528z"/>
		<path class="st3" d="M90.068,48.625c-0.351,0-0.668-0.086-0.951-0.259c-0.284-0.173-0.504-0.413-0.662-0.723
			c-0.158-0.308-0.236-0.655-0.236-1.039v-0.163c0-0.396,0.077-0.754,0.23-1.072c0.154-0.318,0.368-0.568,0.643-0.749
			c0.274-0.182,0.571-0.273,0.891-0.273c0.501,0,0.898,0.171,1.192,0.513c0.293,0.342,0.44,0.809,0.44,1.401v0.256h-2.943v0.087
			c0,0.468,0.135,0.857,0.402,1.168c0.269,0.312,0.606,0.468,1.012,0.468c0.244,0,0.459-0.045,0.646-0.134
			c0.186-0.089,0.357-0.231,0.509-0.427l0.285,0.217C91.192,48.383,90.705,48.625,90.068,48.625z M89.983,44.737
			c-0.342,0-0.632,0.125-0.867,0.378c-0.235,0.251-0.379,0.59-0.429,1.013h2.474v-0.049c-0.013-0.396-0.126-0.719-0.34-0.968
			C90.609,44.861,90.329,44.737,89.983,44.737z"/>
		<path class="st3" d="M92.056,46.426c0-0.396,0.077-0.754,0.23-1.072c0.154-0.318,0.371-0.565,0.652-0.741
			c0.28-0.177,0.599-0.265,0.955-0.265c0.549,0,0.994,0.192,1.334,0.578c0.341,0.385,0.511,0.895,0.511,1.531v0.095
			c0,0.399-0.077,0.758-0.23,1.077c-0.154,0.319-0.371,0.565-0.651,0.738s-0.598,0.259-0.956,0.259c-0.546,0-0.99-0.192-1.333-0.578
			c-0.341-0.385-0.513-0.895-0.513-1.53L92.056,46.426L92.056,46.426z M92.514,46.551c0,0.493,0.128,0.898,0.383,1.214
			c0.256,0.317,0.59,0.475,1.005,0.475c0.412,0,0.745-0.158,1-0.475c0.256-0.316,0.383-0.734,0.383-1.252v-0.087
			c0-0.315-0.058-0.604-0.175-0.866c-0.118-0.262-0.281-0.464-0.492-0.608c-0.211-0.143-0.452-0.215-0.724-0.215
			c-0.407,0-0.739,0.159-0.995,0.479c-0.258,0.319-0.385,0.736-0.385,1.252V46.551z"/>
	</g>
</g>
<path class="st0" d="M170.923,17.589c-0.164-0.01-0.29-0.022-0.346,0.105c-0.029,0.066-0.011,0.156-0.004,0.234
	c0.001,0.008,0.07,0.01,0.119,0.017c-0.02-0.142,0.002-0.231,0.152-0.231C170.865,17.715,170.887,17.65,170.923,17.589z"/>
<g class="st0">
	<g class="st1">
		<path class="st3" d="M121.125,47.184c0-0.308-0.108-0.551-0.324-0.73c-0.217-0.179-0.612-0.349-1.186-0.511
			c-0.574-0.161-0.994-0.337-1.258-0.528c-0.376-0.269-0.564-0.623-0.564-1.06c0-0.424,0.174-0.769,0.524-1.035
			c0.349-0.265,0.796-0.398,1.34-0.398c0.368,0,0.698,0.071,0.989,0.213c0.291,0.142,0.517,0.341,0.677,0.595
			s0.241,0.537,0.241,0.851h-0.473c0-0.38-0.13-0.685-0.39-0.916c-0.259-0.231-0.607-0.346-1.044-0.346
			c-0.425,0-0.762,0.095-1.015,0.285c-0.251,0.19-0.377,0.437-0.377,0.742c0,0.283,0.113,0.513,0.34,0.691
			c0.225,0.179,0.588,0.335,1.086,0.472c0.498,0.136,0.876,0.277,1.132,0.424c0.258,0.146,0.451,0.321,0.579,0.524
			c0.13,0.203,0.195,0.443,0.195,0.72c0,0.437-0.175,0.788-0.524,1.052c-0.35,0.264-0.81,0.396-1.382,0.396
			c-0.391,0-0.751-0.07-1.077-0.21c-0.327-0.139-0.575-0.335-0.744-0.586c-0.169-0.252-0.253-0.54-0.253-0.866h0.469
			c0,0.391,0.146,0.701,0.438,0.927c0.292,0.226,0.681,0.339,1.166,0.339c0.432,0,0.779-0.095,1.04-0.286
			C120.995,47.752,121.125,47.499,121.125,47.184z"/>
		<path class="st3" d="M123.831,48.24c0.318,0,0.584-0.09,0.799-0.269c0.214-0.179,0.331-0.411,0.348-0.695h0.439
			c-0.013,0.252-0.091,0.481-0.236,0.688c-0.145,0.208-0.337,0.369-0.578,0.486c-0.24,0.117-0.497,0.175-0.772,0.175
			c-0.541,0-0.97-0.188-1.287-0.564c-0.316-0.376-0.474-0.882-0.474-1.517v-0.137c0-0.407,0.071-0.767,0.213-1.078
			c0.142-0.313,0.346-0.554,0.612-0.725c0.265-0.169,0.577-0.255,0.933-0.255c0.452,0,0.825,0.135,1.118,0.404
			c0.294,0.269,0.451,0.624,0.471,1.064h-0.439c-0.02-0.323-0.136-0.584-0.348-0.782c-0.213-0.198-0.48-0.297-0.802-0.297
			c-0.412,0-0.732,0.149-0.959,0.446c-0.228,0.298-0.341,0.715-0.341,1.25v0.134c0,0.526,0.114,0.937,0.341,1.232
			C123.095,48.093,123.417,48.24,123.831,48.24z"/>
		<path class="st3" d="M126.586,45.121c0.151-0.246,0.342-0.436,0.576-0.571c0.234-0.135,0.49-0.202,0.766-0.202
			c0.442,0,0.772,0.125,0.988,0.374s0.325,0.623,0.328,1.121v2.707h-0.453v-2.711c-0.003-0.368-0.081-0.642-0.235-0.823
			c-0.154-0.18-0.4-0.27-0.738-0.27c-0.282,0-0.532,0.088-0.749,0.265c-0.218,0.176-0.378,0.415-0.483,0.715v2.824h-0.453v-5.855
			h0.453V45.121L126.586,45.121z"/>
		<path class="st3" d="M131.819,48.625c-0.351,0-0.668-0.086-0.95-0.259c-0.284-0.173-0.504-0.413-0.662-0.723
			c-0.158-0.308-0.236-0.655-0.236-1.039v-0.163c0-0.396,0.076-0.754,0.23-1.072s0.368-0.568,0.642-0.749
			c0.274-0.182,0.573-0.273,0.893-0.273c0.5,0,0.897,0.171,1.191,0.513c0.293,0.342,0.441,0.809,0.441,1.401v0.256h-2.943v0.087
			c0,0.468,0.134,0.857,0.402,1.168c0.268,0.312,0.606,0.468,1.012,0.468c0.244,0,0.459-0.045,0.646-0.134
			c0.186-0.089,0.356-0.231,0.508-0.427l0.286,0.217C132.944,48.383,132.458,48.625,131.819,48.625z M131.736,44.737
			c-0.344,0-0.633,0.125-0.867,0.378c-0.236,0.251-0.378,0.59-0.429,1.013h2.474v-0.049c-0.013-0.396-0.125-0.719-0.339-0.968
			C132.361,44.861,132.082,44.737,131.736,44.737z"/>
		<path class="st3" d="M133.878,46.448c0-0.64,0.142-1.15,0.429-1.53c0.286-0.38,0.674-0.57,1.164-0.57
			c0.557,0,0.981,0.22,1.274,0.66v-2.314h0.453v5.855h-0.427L136.751,48c-0.291,0.417-0.722,0.625-1.288,0.625
			c-0.476,0-0.859-0.191-1.15-0.573c-0.291-0.383-0.435-0.899-0.435-1.549L133.878,46.448L133.878,46.448z M134.338,46.528
			c0,0.526,0.105,0.941,0.317,1.244c0.21,0.304,0.508,0.456,0.891,0.456c0.562,0,0.961-0.247,1.198-0.744v-1.937
			c-0.237-0.535-0.634-0.804-1.189-0.804c-0.385,0-0.683,0.151-0.896,0.452C134.445,45.497,134.338,45.941,134.338,46.528z"/>
		<path class="st3" d="M140.856,48.027c-0.274,0.399-0.713,0.598-1.315,0.598c-0.441,0-0.774-0.128-1.003-0.383
			c-0.229-0.256-0.346-0.634-0.351-1.134v-2.684h0.454v2.627c0,0.784,0.317,1.177,0.952,1.177c0.661,0,1.079-0.273,1.255-0.82
			v-2.984h0.457v4.125h-0.442L140.856,48.027z"/>
		<path class="st3" d="M142.807,48.549h-0.457v-5.855h0.457V48.549z"/>
		<path class="st3" d="M145.448,48.625c-0.351,0-0.668-0.086-0.951-0.259c-0.284-0.173-0.504-0.413-0.662-0.723
			c-0.158-0.308-0.236-0.655-0.236-1.039v-0.163c0-0.396,0.077-0.754,0.23-1.072c0.154-0.318,0.368-0.568,0.643-0.749
			c0.274-0.182,0.571-0.273,0.891-0.273c0.501,0,0.898,0.171,1.192,0.513c0.293,0.342,0.44,0.809,0.44,1.401v0.256h-2.943v0.087
			c0,0.468,0.135,0.857,0.402,1.168c0.269,0.312,0.606,0.468,1.012,0.468c0.244,0,0.459-0.045,0.646-0.134
			c0.186-0.089,0.357-0.231,0.509-0.427l0.285,0.217C146.572,48.383,146.085,48.625,145.448,48.625z M145.364,44.737
			c-0.342,0-0.632,0.125-0.867,0.378c-0.236,0.251-0.379,0.59-0.429,1.013h2.474v-0.049c-0.013-0.396-0.126-0.719-0.34-0.968
			C145.989,44.861,145.709,44.737,145.364,44.737z"/>
		<path class="st3" d="M153.429,46.818c-0.064,0.585-0.273,1.032-0.628,1.342c-0.354,0.31-0.827,0.465-1.416,0.465
			c-0.412,0-0.776-0.103-1.093-0.308c-0.316-0.207-0.561-0.498-0.734-0.875c-0.173-0.378-0.261-0.809-0.263-1.294v-0.721
			c0-0.492,0.086-0.93,0.259-1.311c0.172-0.381,0.421-0.675,0.745-0.882c0.324-0.208,0.697-0.311,1.119-0.311
			c0.595,0,1.064,0.16,1.409,0.48c0.344,0.32,0.544,0.764,0.601,1.331h-0.473c-0.118-0.943-0.629-1.415-1.537-1.415
			c-0.503,0-0.904,0.188-1.203,0.565c-0.298,0.376-0.447,0.896-0.447,1.56v0.679c0,0.641,0.145,1.152,0.436,1.534
			c0.291,0.381,0.684,0.572,1.18,0.572c0.49,0,0.86-0.118,1.109-0.352c0.249-0.236,0.402-0.588,0.462-1.058L153.429,46.818
			L153.429,46.818z"/>
		<path class="st3" d="M156.871,48.549c-0.046-0.13-0.075-0.321-0.088-0.576c-0.16,0.209-0.364,0.369-0.612,0.483
			c-0.248,0.113-0.511,0.169-0.788,0.169c-0.396,0-0.717-0.11-0.962-0.332c-0.245-0.22-0.368-0.5-0.368-0.839
			c0-0.401,0.167-0.718,0.501-0.952s0.8-0.351,1.397-0.351h0.828v-0.469c0-0.295-0.091-0.527-0.273-0.695
			c-0.182-0.169-0.447-0.253-0.795-0.253c-0.319,0-0.581,0.081-0.79,0.244c-0.208,0.163-0.313,0.357-0.313,0.586l-0.457-0.003
			c0-0.328,0.152-0.612,0.457-0.852c0.305-0.24,0.679-0.36,1.124-0.36c0.46,0,0.823,0.115,1.089,0.345s0.402,0.551,0.41,0.962v1.952
			c0,0.4,0.042,0.698,0.126,0.896v0.046L156.871,48.549L156.871,48.549z M155.437,48.221c0.305,0,0.577-0.074,0.817-0.221
			s0.414-0.344,0.524-0.591v-0.906h-0.817c-0.455,0.005-0.811,0.088-1.067,0.249c-0.257,0.162-0.385,0.383-0.385,0.666
			c0,0.231,0.086,0.423,0.258,0.575C154.939,48.145,155.163,48.221,155.437,48.221z"/>
		<path class="st3" d="M158.764,48.549h-0.457v-5.855h0.457V48.549z"/>
		<path class="st3" d="M160.318,48.549h-0.457v-5.855h0.457V48.549z"/>
	</g>
	<path class="st4" d="M149.515,20.627c-0.197-0.589-0.48-1.128-0.867-1.613c-0.245-0.307-0.525-0.575-0.847-0.8
		c-0.047-0.033-0.099-0.093-0.105-0.146c-0.034-0.28-0.045-0.564-0.082-0.843c-0.075-0.563-0.159-1.126-0.247-1.687
		c-0.026-0.165-0.086-0.325-0.123-0.489c-0.045-0.202-0.071-0.408-0.125-0.608c-0.093-0.345-0.197-0.688-0.303-1.029
		c-0.196-0.626-0.454-1.226-0.762-1.804c-0.035-0.066-0.04-0.118-0.011-0.191c0.118-0.298,0.117-0.608-0.058-0.872
		c-0.271-0.41-0.561-0.811-0.878-1.186c-0.7-0.826-1.542-1.481-2.498-1.991c-0.659-0.351-1.348-0.623-2.07-0.81
		c-0.213-0.055-0.433-0.083-0.648-0.129c-0.184-0.04-0.364-0.104-0.549-0.13c-0.479-0.067-0.959-0.133-1.441-0.173
		c-0.998-0.083-1.996-0.061-2.987,0.075c-0.606,0.083-1.209,0.199-1.804,0.339c-0.539,0.127-1.059,0.325-1.566,0.554
		c-0.712,0.321-1.371,0.725-1.978,1.215c-0.733,0.591-1.34,1.295-1.866,2.072c-0.221,0.327-0.296,0.673-0.153,1.053
		c0.017,0.045,0.015,0.109-0.005,0.153c-0.165,0.366-0.353,0.723-0.502,1.095c-0.331,0.822-0.585,1.669-0.747,2.542
		c-0.089,0.479-0.177,0.959-0.248,1.441c-0.057,0.387-0.104,0.777-0.124,1.167c-0.011,0.217-0.103,0.34-0.272,0.46
		c-0.669,0.478-1.117,1.136-1.446,1.876c-0.309,0.696-0.454,1.434-0.483,2.194c-0.032,0.847,0.086,1.671,0.387,2.468
		c0.3,0.795,0.744,1.491,1.405,2.032c0.571,0.468,1.222,0.741,1.973,0.766c0.318,0.011,0.551-0.114,0.746-0.345
		c0.216-0.256,0.352-0.557,0.461-0.867c0.243-0.688,0.364-1.404,0.435-2.126c0.092-0.934,0.121-1.871,0.04-2.808
		c-0.036-0.414-0.08-0.828-0.14-1.238c-0.043-0.294-0.112-0.585-0.18-0.875c-0.105-0.448-0.254-0.881-0.515-1.265
		c-0.192-0.283-0.434-0.496-0.809-0.482c-0.221,0.008-0.232,0.002-0.206-0.218c0.052-0.436,0.109-0.872,0.178-1.306
		c0.049-0.306,0.107-0.612,0.186-0.911c0.143-0.54,0.279-1.084,0.468-1.608c0.176-0.488,0.412-0.955,0.632-1.426
		c0.033-0.071,0.119-0.119,0.183-0.173c0.129-0.11,0.281-0.201,0.387-0.33c0.208-0.253,0.381-0.535,0.586-0.791
		c0.516-0.643,1.143-1.159,1.858-1.566c0.531-0.302,1.093-0.537,1.683-0.697c0.349-0.095,0.701-0.194,1.058-0.245
		c0.547-0.077,1.098-0.127,1.649-0.164c0.8-0.054,1.599-0.021,2.393,0.088c0.399,0.055,0.797,0.127,1.187,0.223
		c0.645,0.159,1.266,0.387,1.856,0.7c1.035,0.549,1.865,1.317,2.505,2.293c0.146,0.223,0.31,0.419,0.568,0.518
		c0.031,0.012,0.065,0.04,0.078,0.07c0.22,0.472,0.465,0.935,0.645,1.422c0.193,0.522,0.331,1.066,0.48,1.604
		c0.075,0.273,0.132,0.552,0.179,0.832c0.069,0.418,0.123,0.838,0.182,1.257c0.02,0.146,0.034,0.293,0.052,0.451
		c-0.06-0.006-0.099-0.011-0.139-0.014c-0.182-0.013-0.362-0.017-0.53,0.075c-0.325,0.178-0.498,0.48-0.644,0.8
		c-0.23,0.505-0.351,1.041-0.45,1.586c-0.117,0.65-0.172,1.305-0.197,1.962c-0.025,0.662-0.004,1.324,0.056,1.985
		c0.052,0.58,0.128,1.154,0.262,1.719c0.115,0.486,0.262,0.962,0.545,1.383c0.212,0.315,0.478,0.534,0.89,0.484
		c0.054-0.006,0.109-0.001,0.183-0.001c-0.487,1.398-1.243,2.588-2.375,3.544c-0.029-0.033-0.048-0.05-0.059-0.07
		c-0.261-0.44-0.787-0.635-1.29-0.486c-0.578,0.172-1.15,0.363-1.724,0.544c-0.345,0.109-0.687,0.226-1.036,0.32
		c-0.586,0.158-0.992,0.62-0.909,1.226c0.047,0.342,0.162,0.682,0.297,1.002c0.196,0.462,0.785,0.715,1.268,0.572
		c0.559-0.165,1.113-0.346,1.669-0.52c0.341-0.107,0.683-0.21,1.024-0.319c0.24-0.077,0.489-0.138,0.681-0.319
		c0.268-0.252,0.399-0.56,0.365-0.929c-0.007-0.081,0.019-0.131,0.082-0.18c0.145-0.114,0.284-0.234,0.423-0.354
		c0.412-0.353,0.771-0.755,1.095-1.19c0.47-0.63,0.853-1.309,1.142-2.039c0.12-0.302,0.215-0.614,0.308-0.925
		c0.031-0.102,0.065-0.179,0.165-0.229c0.593-0.293,1.056-0.739,1.427-1.275c0.633-0.914,0.937-1.942,0.99-3.046
		C149.865,22.159,149.768,21.384,149.515,20.627z"/>
</g>
<path class="st5" d="M-185.276,10.874h-25.612c-2.681,0-4.874,2.193-4.874,4.874v11.577c0,2.681,2.193,4.874,4.874,4.874l0,0
	c1.451,0,2.745,0.912,3.234,2.278l0.792,2.216c0.039,0.21,0.106,0.408,0.208,0.584l0.008,0.022c0,0,0.007,0.002,0.008,0.002
	c0.359,0.596,1.046,0.96,1.781,0.87c0.376-0.047,0.71-0.205,0.975-0.435c0.005,0,0.013,0,0.017,0
	c0.124-0.02,2.165-2.154,4.339-4.456c0.649-0.687,1.553-1.077,2.497-1.077h11.75c2.681,0,4.874-2.193,4.874-4.874V15.747
	C-180.403,13.067-182.596,10.874-185.276,10.874z"/>
<g class="st0">
	<path class="st6" d="M-166.274,16.932c-0.061,0.841-0.372,1.504-0.932,1.987c-0.56,0.483-1.299,0.725-2.215,0.725
		c-1.002,0-1.792-0.337-2.366-1.013c-0.575-0.675-0.862-1.601-0.862-2.779v-0.478c0-0.752,0.132-1.415,0.397-1.987
		s0.644-1.012,1.136-1.319c0.493-0.306,1.064-0.459,1.716-0.459c0.902,0,1.629,0.242,2.181,0.725s0.87,1.162,0.956,2.036h-1.611
		c-0.04-0.505-0.18-0.871-0.421-1.099c-0.242-0.227-0.61-0.341-1.104-0.341c-0.537,0-0.939,0.192-1.206,0.577
		c-0.267,0.385-0.404,0.982-0.411,1.792v0.591c0,0.845,0.128,1.463,0.384,1.853c0.256,0.39,0.66,0.585,1.211,0.585
		c0.498,0,0.869-0.114,1.115-0.341c0.245-0.227,0.386-0.579,0.421-1.055H-166.274z"/>
	<path class="st6" d="M-164.078,14.359c0.412-0.494,0.929-0.741,1.552-0.741c1.26,0,1.899,0.732,1.917,2.197v3.722h-1.552V15.85
		c0-0.334-0.072-0.581-0.215-0.74s-0.381-0.24-0.714-0.24c-0.455,0-0.784,0.176-0.988,0.527v4.14h-1.552v-8.25h1.552V14.359z"/>
	<path class="st6" d="M-156.345,19.537c-0.072-0.14-0.124-0.313-0.156-0.521c-0.376,0.419-0.865,0.628-1.466,0.628
		c-0.569,0-1.041-0.165-1.415-0.494c-0.375-0.33-0.562-0.745-0.562-1.246c0-0.616,0.229-1.088,0.685-1.418
		c0.457-0.33,1.117-0.496,1.979-0.5h0.714v-0.333c0-0.269-0.069-0.483-0.207-0.645c-0.138-0.161-0.355-0.242-0.653-0.242
		c-0.261,0-0.466,0.062-0.615,0.188c-0.149,0.125-0.223,0.297-0.223,0.516h-1.552c0-0.336,0.104-0.648,0.312-0.935
		s0.501-0.511,0.881-0.674c0.379-0.163,0.806-0.244,1.278-0.244c0.716,0,1.285,0.18,1.705,0.54c0.421,0.359,0.631,0.865,0.631,1.517
		v2.519c0.003,0.551,0.081,0.969,0.231,1.251v0.091h-1.567L-156.345,19.537L-156.345,19.537z M-157.628,18.457
		c0.229,0,0.44-0.051,0.634-0.153c0.193-0.103,0.336-0.239,0.43-0.411v-0.999h-0.58c-0.777,0-1.19,0.269-1.241,0.806l-0.005,0.091
		c0,0.193,0.068,0.353,0.204,0.478S-157.865,18.457-157.628,18.457z"/>
	<path class="st6" d="M-152.232,12.297v1.429h0.994v1.139h-0.994v2.9c0,0.215,0.041,0.369,0.124,0.462s0.24,0.14,0.473,0.14
		c0.172,0,0.324-0.013,0.457-0.038v1.176c-0.304,0.093-0.618,0.14-0.94,0.14c-1.088,0-1.644-0.55-1.665-1.649v-3.131h-0.849v-1.139
		h0.849v-1.429C-153.783,12.297-152.232,12.297-152.232,12.297z"/>
	<path class="st6" d="M-146.755,13.725l0.048,0.671c0.416-0.519,0.972-0.779,1.67-0.779c0.616,0,1.074,0.181,1.375,0.542
		s0.455,0.902,0.462,1.622v3.754h-1.552v-3.726c0-0.33-0.072-0.569-0.215-0.718s-0.381-0.224-0.714-0.224
		c-0.437,0-0.765,0.187-0.983,0.56v4.107h-1.552v-5.812h1.461V13.725z"/>
	<path class="st6" d="M-135.772,15.804c0,0.77-0.136,1.445-0.408,2.025s-0.662,1.028-1.168,1.343
		c-0.507,0.315-1.088,0.473-1.743,0.473c-0.648,0-1.227-0.156-1.735-0.467s-0.902-0.756-1.182-1.334
		c-0.279-0.579-0.421-1.244-0.424-1.996V15.46c0-0.77,0.139-1.448,0.416-2.033c0.278-0.586,0.67-1.035,1.177-1.349
		c0.506-0.313,1.085-0.47,1.737-0.47s1.231,0.157,1.737,0.47c0.507,0.313,0.899,0.763,1.177,1.349
		c0.277,0.585,0.416,1.261,0.416,2.027V15.804z M-137.405,15.45c0-0.82-0.147-1.443-0.44-1.869s-0.712-0.639-1.257-0.639
		c-0.541,0-0.958,0.21-1.251,0.631c-0.293,0.421-0.442,1.038-0.446,1.851v0.381c0,0.798,0.147,1.418,0.44,1.858
		s0.716,0.661,1.268,0.661c0.541,0,0.956-0.212,1.246-0.637c0.29-0.424,0.437-1.042,0.44-1.855V15.45z"/>
	<path class="st6" d="M-129.924,17.426l0.763-3.701h1.499l-1.482,5.812h-1.3l-1.101-3.658l-1.101,3.658h-1.294l-1.482-5.812h1.499
		l0.757,3.695l1.063-3.695h1.123L-129.924,17.426z"/>
	<path class="st6" d="M-124.883,16.545c0-0.559,0.108-1.062,0.325-1.509c0.216-0.448,0.522-0.796,0.918-1.045
		c0.396-0.249,0.844-0.373,1.346-0.373c0.773,0,1.4,0.271,1.88,0.813c0.48,0.543,0.72,1.262,0.72,2.157v0.134
		c0,0.562-0.108,1.068-0.325,1.518c-0.216,0.449-0.521,0.795-0.916,1.039s-0.843,0.365-1.348,0.365c-0.77,0-1.396-0.271-1.877-0.813
		c-0.482-0.543-0.723-1.262-0.723-2.157V16.545z M-124.239,16.723c0,0.695,0.18,1.265,0.54,1.711
		c0.359,0.445,0.832,0.668,1.415,0.668c0.58,0,1.05-0.223,1.41-0.668c0.359-0.446,0.54-1.034,0.54-1.765v-0.124
		c0-0.444-0.083-0.851-0.247-1.219s-0.396-0.654-0.693-0.856c-0.297-0.203-0.637-0.304-1.021-0.304c-0.573,0-1.04,0.225-1.402,0.674
		c-0.362,0.45-0.542,1.038-0.542,1.765V16.723z"/>
	<path class="st6" d="M-115.958,14.273c-0.136-0.025-0.281-0.038-0.435-0.038c-0.401,0-0.74,0.112-1.018,0.335
		c-0.277,0.224-0.475,0.549-0.593,0.975v3.991h-0.639v-5.812h0.628l0.011,0.924c0.34-0.688,0.886-1.031,1.638-1.031
		c0.179,0,0.32,0.023,0.424,0.07L-115.958,14.273z"/>
	<path class="st6" d="M-110.669,19.102c0.448,0,0.823-0.126,1.125-0.378c0.303-0.253,0.467-0.58,0.492-0.98h0.618
		c-0.018,0.354-0.129,0.678-0.333,0.97s-0.476,0.52-0.813,0.685c-0.339,0.165-0.701,0.247-1.088,0.247
		c-0.763,0-1.367-0.265-1.812-0.795c-0.446-0.53-0.669-1.243-0.669-2.138V16.52c0-0.573,0.1-1.08,0.301-1.52
		s0.488-0.781,0.862-1.021s0.812-0.36,1.313-0.36c0.637,0,1.163,0.19,1.577,0.569c0.413,0.379,0.634,0.879,0.663,1.499h-0.618
		c-0.029-0.455-0.192-0.822-0.492-1.101c-0.299-0.279-0.676-0.419-1.13-0.419c-0.58,0-1.03,0.209-1.351,0.628
		c-0.32,0.419-0.48,1.006-0.48,1.762v0.188c0,0.741,0.16,1.319,0.48,1.735C-111.705,18.894-111.252,19.102-110.669,19.102z"/>
	<path class="st6" d="M-107.781,16.545c0-0.559,0.108-1.062,0.325-1.509c0.216-0.448,0.522-0.796,0.918-1.045
		c0.396-0.249,0.844-0.373,1.346-0.373c0.773,0,1.4,0.271,1.88,0.813c0.48,0.543,0.72,1.262,0.72,2.157v0.134
		c0,0.562-0.108,1.068-0.325,1.518c-0.216,0.449-0.521,0.795-0.916,1.039s-0.843,0.365-1.348,0.365c-0.77,0-1.396-0.271-1.877-0.813
		c-0.482-0.543-0.723-1.262-0.723-2.157V16.545z M-107.136,16.723c0,0.695,0.18,1.265,0.54,1.711
		c0.359,0.445,0.832,0.668,1.415,0.668c0.58,0,1.05-0.223,1.41-0.668c0.359-0.446,0.54-1.034,0.54-1.765v-0.124
		c0-0.444-0.083-0.851-0.247-1.219s-0.396-0.654-0.693-0.856c-0.297-0.203-0.637-0.304-1.021-0.304c-0.573,0-1.04,0.225-1.402,0.674
		c-0.362,0.45-0.542,1.038-0.542,1.765V16.723z"/>
	<path class="st6" d="M-100.928,13.725l0.021,0.994c0.218-0.358,0.491-0.631,0.816-0.819c0.326-0.188,0.686-0.282,1.08-0.282
		c0.623,0,1.087,0.175,1.391,0.526s0.458,0.877,0.462,1.579v3.813h-0.639v-3.819c-0.003-0.519-0.114-0.906-0.331-1.16
		c-0.216-0.254-0.563-0.381-1.039-0.381c-0.397,0-0.749,0.125-1.056,0.373c-0.306,0.249-0.532,0.585-0.679,1.007v3.98h-0.639v-5.812
		L-100.928,13.725L-100.928,13.725z"/>
	<path class="st6" d="M-95.161,13.725l0.021,0.994c0.218-0.358,0.491-0.631,0.816-0.819c0.326-0.188,0.686-0.282,1.08-0.282
		c0.623,0,1.087,0.175,1.391,0.526s0.458,0.877,0.462,1.579v3.813h-0.639v-3.819c-0.003-0.519-0.114-0.906-0.331-1.16
		c-0.216-0.254-0.563-0.381-1.039-0.381c-0.397,0-0.749,0.125-1.056,0.373c-0.306,0.249-0.532,0.585-0.679,1.007v3.98h-0.639v-5.812
		L-95.161,13.725L-95.161,13.725z"/>
	<path class="st6" d="M-87.755,19.644c-0.494,0-0.941-0.122-1.34-0.365c-0.399-0.244-0.709-0.583-0.932-1.018
		c-0.222-0.436-0.333-0.923-0.333-1.464v-0.231c0-0.559,0.108-1.062,0.325-1.509c0.216-0.448,0.518-0.799,0.905-1.056
		c0.387-0.256,0.806-0.384,1.257-0.384c0.706,0,1.265,0.241,1.678,0.723c0.414,0.481,0.621,1.139,0.621,1.974v0.36h-4.146v0.124
		c0,0.659,0.189,1.208,0.567,1.646c0.377,0.438,0.853,0.658,1.426,0.658c0.344,0,0.647-0.062,0.91-0.188
		c0.264-0.125,0.502-0.326,0.717-0.602l0.403,0.306C-86.17,19.303-86.856,19.644-87.755,19.644z M-87.873,14.166
		c-0.483,0-0.891,0.177-1.222,0.532c-0.331,0.354-0.532,0.831-0.604,1.429h3.486v-0.07c-0.018-0.559-0.177-1.013-0.478-1.364
		S-87.386,14.166-87.873,14.166z"/>
	<path class="st6" d="M-82.449,19.102c0.448,0,0.823-0.126,1.125-0.378c0.303-0.253,0.467-0.58,0.492-0.98h0.618
		c-0.018,0.354-0.129,0.678-0.333,0.97s-0.476,0.52-0.813,0.685c-0.339,0.165-0.701,0.247-1.088,0.247
		c-0.763,0-1.367-0.265-1.812-0.795c-0.446-0.53-0.669-1.243-0.669-2.138V16.52c0-0.573,0.1-1.08,0.301-1.52
		s0.488-0.781,0.862-1.021s0.812-0.36,1.313-0.36c0.637,0,1.163,0.19,1.577,0.569c0.413,0.379,0.634,0.879,0.663,1.499h-0.618
		c-0.029-0.455-0.192-0.822-0.492-1.101c-0.299-0.279-0.676-0.419-1.13-0.419c-0.58,0-1.03,0.209-1.351,0.628
		c-0.32,0.419-0.48,1.006-0.48,1.762v0.188c0,0.741,0.16,1.319,0.48,1.735C-83.485,18.894-83.033,19.102-82.449,19.102z"/>
	<path class="st6" d="M-78.208,12.238v1.488h1.203v0.526h-1.203v3.877c0,0.323,0.058,0.563,0.175,0.72
		c0.116,0.158,0.311,0.237,0.583,0.237c0.107,0,0.281-0.018,0.521-0.054l0.027,0.522c-0.168,0.06-0.397,0.09-0.688,0.09
		c-0.44,0-0.761-0.128-0.961-0.384c-0.201-0.256-0.301-0.633-0.301-1.131v-3.878h-1.069v-0.526h1.069v-1.488h0.644V12.238z"/>
	<path class="st6" d="M-71.737,18.651l1.767-4.925h0.661l-2.17,5.812H-72l-2.181-5.812h0.661L-71.737,18.651z"/>
	<path class="st6" d="M-68.569,12.047c0-0.121,0.04-0.223,0.118-0.307c0.078-0.084,0.186-0.125,0.322-0.125s0.245,0.042,0.325,0.125
		c0.081,0.083,0.121,0.186,0.121,0.307s-0.04,0.223-0.121,0.305c-0.08,0.082-0.188,0.123-0.325,0.123
		c-0.137,0-0.244-0.041-0.322-0.123C-68.53,12.269-68.569,12.168-68.569,12.047z M-67.812,19.537h-0.645v-5.812h0.645V19.537z"/>
	<path class="st6" d="M-62.673,19.537c-0.064-0.183-0.105-0.453-0.124-0.811c-0.226,0.293-0.513,0.52-0.862,0.679
		c-0.349,0.16-0.719,0.239-1.109,0.239c-0.559,0-1.011-0.156-1.356-0.467c-0.346-0.312-0.519-0.706-0.519-1.182
		c0-0.566,0.235-1.013,0.706-1.343s1.127-0.494,1.969-0.494h1.166v-0.661c0-0.416-0.128-0.742-0.384-0.98
		c-0.256-0.238-0.629-0.357-1.12-0.357c-0.448,0-0.818,0.115-1.112,0.344s-0.44,0.505-0.44,0.827l-0.645-0.005
		c0-0.462,0.215-0.862,0.645-1.2c0.43-0.339,0.958-0.508,1.584-0.508c0.648,0,1.159,0.162,1.534,0.486
		c0.374,0.324,0.566,0.776,0.577,1.356v2.75c0,0.562,0.059,0.983,0.177,1.262v0.064h-0.687
		C-62.673,19.536-62.673,19.537-62.673,19.537z M-64.692,19.075c0.43,0,0.814-0.104,1.152-0.312
		c0.339-0.208,0.585-0.485,0.739-0.833v-1.278h-1.149c-0.641,0.007-1.142,0.125-1.504,0.352s-0.542,0.54-0.542,0.937
		c0,0.326,0.121,0.596,0.362,0.811C-65.393,18.968-65.079,19.075-64.692,19.075z"/>
	<path class="st6" d="M-172.628,27.545c0-0.559,0.108-1.062,0.325-1.51c0.216-0.447,0.522-0.796,0.918-1.045
		c0.396-0.248,0.844-0.373,1.346-0.373c0.773,0,1.4,0.271,1.88,0.813c0.48,0.543,0.72,1.262,0.72,2.157v0.134
		c0,0.562-0.108,1.068-0.325,1.518c-0.216,0.449-0.521,0.796-0.916,1.039c-0.394,0.244-0.843,0.365-1.348,0.365
		c-0.77,0-1.396-0.271-1.877-0.813c-0.482-0.543-0.723-1.262-0.723-2.156L-172.628,27.545L-172.628,27.545z M-171.983,27.722
		c0,0.695,0.18,1.265,0.54,1.711c0.359,0.445,0.832,0.669,1.415,0.669c0.58,0,1.05-0.224,1.41-0.669
		c0.359-0.446,0.54-1.034,0.54-1.765v-0.123c0-0.444-0.083-0.851-0.247-1.22c-0.165-0.368-0.396-0.654-0.693-0.856
		s-0.637-0.304-1.021-0.304c-0.573,0-1.04,0.225-1.402,0.674c-0.362,0.45-0.542,1.038-0.542,1.765V27.722z"/>
	<path class="st6" d="M-165.775,24.725l0.021,0.994c0.218-0.358,0.491-0.632,0.816-0.819c0.326-0.188,0.686-0.282,1.08-0.282
		c0.623,0,1.087,0.175,1.391,0.526c0.304,0.352,0.458,0.878,0.462,1.579v3.813h-0.639v-3.818c-0.003-0.52-0.114-0.906-0.331-1.16
		c-0.216-0.255-0.563-0.382-1.039-0.382c-0.397,0-0.749,0.125-1.056,0.373c-0.306,0.249-0.532,0.585-0.679,1.008v3.979h-0.639
		v-5.811C-166.388,24.725-165.775,24.725-165.775,24.725z"/>
	<path class="st6" d="M-158.37,30.644c-0.494,0-0.941-0.121-1.34-0.365c-0.399-0.243-0.709-0.583-0.932-1.018
		c-0.222-0.436-0.333-0.923-0.333-1.464v-0.23c0-0.559,0.108-1.062,0.325-1.51c0.216-0.447,0.518-0.799,0.905-1.056
		c0.387-0.256,0.806-0.383,1.257-0.383c0.706,0,1.265,0.241,1.678,0.722c0.414,0.481,0.621,1.14,0.621,1.974v0.36h-4.146v0.123
		c0,0.659,0.189,1.208,0.567,1.646c0.377,0.438,0.853,0.658,1.426,0.658c0.344,0,0.647-0.062,0.91-0.188
		c0.264-0.125,0.502-0.325,0.717-0.602l0.403,0.307C-156.785,30.302-157.471,30.644-158.37,30.644z M-158.488,25.165
		c-0.483,0-0.891,0.178-1.222,0.532s-0.532,0.83-0.604,1.429h3.486v-0.07c-0.018-0.559-0.177-1.013-0.478-1.364
		C-157.607,25.341-158.001,25.165-158.488,25.165z"/>
	<path class="st6" d="M-153.167,27.545c0-0.559,0.108-1.062,0.325-1.51c0.216-0.447,0.522-0.796,0.918-1.045
		c0.396-0.248,0.844-0.373,1.346-0.373c0.773,0,1.4,0.271,1.88,0.813c0.48,0.543,0.72,1.262,0.72,2.157v0.134
		c0,0.562-0.108,1.068-0.325,1.518c-0.216,0.449-0.521,0.796-0.916,1.039c-0.394,0.244-0.843,0.365-1.348,0.365
		c-0.77,0-1.396-0.271-1.877-0.813c-0.482-0.543-0.723-1.262-0.723-2.156L-153.167,27.545L-153.167,27.545z M-152.523,27.722
		c0,0.695,0.18,1.265,0.54,1.711c0.359,0.445,0.832,0.669,1.415,0.669c0.58,0,1.05-0.224,1.41-0.669
		c0.359-0.446,0.54-1.034,0.54-1.765v-0.123c0-0.444-0.083-0.851-0.247-1.22c-0.165-0.368-0.396-0.654-0.693-0.856
		s-0.637-0.304-1.021-0.304c-0.573,0-1.04,0.225-1.402,0.674c-0.362,0.45-0.542,1.038-0.542,1.765V27.722z"/>
	<path class="st6" d="M-146.465,30.537v-5.285h-0.961v-0.526h0.961v-0.704c0-0.594,0.151-1.051,0.454-1.37
		c0.302-0.319,0.724-0.478,1.265-0.478c0.244,0,0.471,0.03,0.682,0.09l-0.048,0.533c-0.179-0.043-0.374-0.064-0.585-0.064
		c-0.354,0-0.63,0.11-0.827,0.331c-0.197,0.221-0.295,0.534-0.295,0.94v0.722h1.386v0.526h-1.386v5.285
		C-145.819,30.537-146.465,30.537-146.465,30.537z"/>
	<path class="st6" d="M-141.515,27.545c0-0.559,0.108-1.062,0.325-1.51c0.216-0.447,0.522-0.796,0.918-1.045
		c0.396-0.248,0.844-0.373,1.346-0.373c0.773,0,1.4,0.271,1.88,0.813c0.48,0.543,0.72,1.262,0.72,2.157v0.134
		c0,0.562-0.108,1.068-0.325,1.518c-0.216,0.449-0.521,0.796-0.916,1.039c-0.394,0.244-0.843,0.365-1.348,0.365
		c-0.77,0-1.396-0.271-1.877-0.813c-0.482-0.543-0.723-1.262-0.723-2.156L-141.515,27.545L-141.515,27.545z M-140.871,27.722
		c0,0.695,0.18,1.265,0.54,1.711c0.359,0.445,0.832,0.669,1.415,0.669c0.58,0,1.05-0.224,1.41-0.669
		c0.359-0.446,0.54-1.034,0.54-1.765v-0.123c0-0.444-0.083-0.851-0.247-1.22c-0.165-0.368-0.396-0.654-0.693-0.856
		s-0.637-0.304-1.021-0.304c-0.573,0-1.04,0.225-1.402,0.674c-0.362,0.45-0.542,1.038-0.542,1.765V27.722z"/>
	<path class="st6" d="M-131.537,29.801c-0.387,0.562-1.004,0.843-1.853,0.843c-0.62,0-1.09-0.18-1.413-0.54
		c-0.322-0.359-0.487-0.892-0.494-1.598v-3.781h0.639v3.701c0,1.106,0.448,1.659,1.343,1.659c0.931,0,1.52-0.385,1.767-1.154v-4.206
		h0.645v5.811h-0.623L-131.537,29.801z"/>
	<path class="st6" d="M-126.822,25.273c-0.136-0.024-0.281-0.037-0.435-0.037c-0.401,0-0.74,0.111-1.018,0.335
		c-0.277,0.225-0.475,0.549-0.593,0.976v3.99h-0.639v-5.811h0.628l0.011,0.923c0.34-0.688,0.886-1.031,1.638-1.031
		c0.179,0,0.32,0.023,0.424,0.07L-126.822,25.273z"/>
	<path class="st6" d="M-124.037,27.545c0-0.559,0.108-1.062,0.325-1.51c0.216-0.447,0.522-0.796,0.918-1.045
		c0.396-0.248,0.844-0.373,1.346-0.373c0.773,0,1.4,0.271,1.88,0.813c0.48,0.543,0.72,1.262,0.72,2.157v0.134
		c0,0.562-0.108,1.068-0.325,1.518c-0.216,0.449-0.521,0.796-0.916,1.039c-0.394,0.244-0.843,0.365-1.348,0.365
		c-0.77,0-1.396-0.271-1.877-0.813c-0.482-0.543-0.723-1.262-0.723-2.156V27.545z M-123.392,27.722c0,0.695,0.18,1.265,0.54,1.711
		c0.359,0.445,0.832,0.669,1.415,0.669c0.58,0,1.05-0.224,1.41-0.669c0.359-0.446,0.54-1.034,0.54-1.765v-0.123
		c0-0.444-0.083-0.851-0.247-1.22c-0.165-0.368-0.396-0.654-0.693-0.856s-0.637-0.304-1.021-0.304c-0.573,0-1.04,0.225-1.402,0.674
		c-0.362,0.45-0.542,1.038-0.542,1.765V27.722z"/>
	<path class="st6" d="M-116.797,23.238v1.488h1.203v0.526h-1.203v3.877c0,0.323,0.058,0.563,0.175,0.721
		c0.116,0.158,0.311,0.236,0.583,0.236c0.107,0,0.281-0.018,0.521-0.054l0.027,0.522c-0.168,0.06-0.397,0.09-0.688,0.09
		c-0.44,0-0.761-0.128-0.961-0.384s-0.301-0.633-0.301-1.131v-3.878h-1.069v-0.526h1.069v-1.488L-116.797,23.238L-116.797,23.238z"
		/>
	<path class="st6" d="M-113.898,25.708c0.211-0.348,0.481-0.616,0.811-0.806c0.33-0.19,0.689-0.285,1.08-0.285
		c0.623,0,1.087,0.175,1.391,0.526c0.304,0.352,0.458,0.878,0.462,1.579v3.813h-0.639v-3.818c-0.003-0.52-0.114-0.906-0.331-1.16
		c-0.216-0.255-0.563-0.382-1.039-0.382c-0.397,0-0.749,0.125-1.056,0.373c-0.306,0.249-0.532,0.585-0.679,1.008v3.979h-0.639v-8.25
		h0.639C-113.898,22.285-113.898,25.708-113.898,25.708z"/>
	<path class="st6" d="M-106.525,30.644c-0.494,0-0.941-0.121-1.34-0.365c-0.399-0.243-0.709-0.583-0.932-1.018
		c-0.222-0.436-0.333-0.923-0.333-1.464v-0.23c0-0.559,0.108-1.062,0.325-1.51c0.216-0.447,0.518-0.799,0.905-1.056
		c0.387-0.256,0.806-0.383,1.257-0.383c0.706,0,1.265,0.241,1.678,0.722c0.414,0.481,0.621,1.14,0.621,1.974v0.36h-4.146v0.123
		c0,0.659,0.189,1.208,0.567,1.646c0.377,0.438,0.853,0.658,1.426,0.658c0.344,0,0.647-0.062,0.91-0.188
		c0.264-0.125,0.502-0.325,0.717-0.602l0.403,0.307C-104.94,30.302-105.626,30.644-106.525,30.644z M-106.643,25.165
		c-0.483,0-0.891,0.178-1.222,0.532s-0.532,0.83-0.604,1.429h3.486v-0.07c-0.018-0.559-0.177-1.013-0.478-1.364
		C-105.762,25.341-106.156,25.165-106.643,25.165z"/>
	<path class="st6" d="M-100.682,25.273c-0.136-0.024-0.281-0.037-0.435-0.037c-0.401,0-0.74,0.111-1.018,0.335
		c-0.277,0.225-0.475,0.549-0.593,0.976v3.99h-0.639v-5.811h0.628l0.011,0.923c0.34-0.688,0.886-1.031,1.638-1.031
		c0.179,0,0.32,0.023,0.424,0.07L-100.682,25.273z"/>
	<path class="st6" d="M-97.896,27.545c0-0.559,0.108-1.062,0.325-1.51c0.216-0.447,0.522-0.796,0.918-1.045
		c0.396-0.248,0.844-0.373,1.346-0.373c0.773,0,1.4,0.271,1.88,0.813c0.48,0.543,0.72,1.262,0.72,2.157v0.134
		c0,0.562-0.108,1.068-0.325,1.518c-0.216,0.449-0.521,0.796-0.916,1.039c-0.394,0.244-0.843,0.365-1.348,0.365
		c-0.77,0-1.396-0.271-1.877-0.813c-0.482-0.543-0.723-1.262-0.723-2.156V27.545z M-97.252,27.722c0,0.695,0.18,1.265,0.54,1.711
		c0.359,0.445,0.832,0.669,1.415,0.669c0.58,0,1.05-0.224,1.41-0.669c0.359-0.446,0.54-1.034,0.54-1.765v-0.123
		c0-0.444-0.083-0.851-0.247-1.22c-0.165-0.368-0.396-0.654-0.693-0.856s-0.637-0.304-1.021-0.304c-0.573,0-1.04,0.225-1.402,0.674
		c-0.362,0.45-0.542,1.038-0.542,1.765V27.722z"/>
	<path class="st6" d="M-86.984,27.69c0,0.906-0.201,1.625-0.602,2.156c-0.401,0.532-0.938,0.798-1.611,0.798
		c-0.795,0-1.404-0.279-1.826-0.838v2.965h-0.639v-8.045h0.596l0.032,0.822c0.419-0.62,1.026-0.929,1.821-0.929
		c0.695,0,1.24,0.263,1.635,0.79c0.396,0.526,0.594,1.257,0.594,2.191C-86.984,27.6-86.984,27.69-86.984,27.69z M-87.628,27.578
		c0-0.741-0.152-1.327-0.457-1.757s-0.729-0.645-1.273-0.645c-0.394,0-0.732,0.095-1.015,0.285c-0.283,0.189-0.5,0.465-0.65,0.827
		v2.787c0.154,0.333,0.374,0.588,0.661,0.763c0.287,0.176,0.625,0.264,1.015,0.264c0.541,0,0.962-0.216,1.265-0.647
		C-87.78,29.023-87.628,28.397-87.628,27.578z"/>
	<path class="st6" d="M-84.836,23.238v1.488h1.203v0.526h-1.203v3.877c0,0.323,0.058,0.563,0.175,0.721
		c0.116,0.158,0.311,0.236,0.583,0.236c0.107,0,0.281-0.018,0.521-0.054l0.027,0.522c-0.168,0.06-0.397,0.09-0.688,0.09
		c-0.44,0-0.761-0.128-0.961-0.384s-0.301-0.633-0.301-1.131v-3.878h-1.069v-0.526h1.069v-1.488L-84.836,23.238L-84.836,23.238z"/>
	<path class="st6" d="M-82.614,23.047c0-0.121,0.04-0.223,0.118-0.307s0.186-0.125,0.322-0.125s0.245,0.042,0.325,0.125
		c0.081,0.083,0.121,0.186,0.121,0.307c0,0.121-0.04,0.223-0.121,0.305c-0.08,0.082-0.188,0.123-0.325,0.123
		s-0.244-0.041-0.322-0.123C-82.574,23.269-82.614,23.168-82.614,23.047z M-81.856,30.537h-0.645v-5.811h0.645V30.537z"/>
	<path class="st6" d="M-80.74,27.545c0-0.559,0.108-1.062,0.325-1.51c0.216-0.447,0.522-0.796,0.918-1.045
		c0.396-0.248,0.844-0.373,1.346-0.373c0.773,0,1.4,0.271,1.88,0.813c0.48,0.543,0.72,1.262,0.72,2.157v0.134
		c0,0.562-0.108,1.068-0.325,1.518c-0.216,0.449-0.521,0.796-0.916,1.039c-0.394,0.244-0.843,0.365-1.348,0.365
		c-0.77,0-1.396-0.271-1.877-0.813c-0.482-0.543-0.723-1.262-0.723-2.156V27.545z M-80.096,27.722c0,0.695,0.18,1.265,0.54,1.711
		c0.359,0.445,0.832,0.669,1.415,0.669c0.58,0,1.05-0.224,1.41-0.669c0.359-0.446,0.54-1.034,0.54-1.765v-0.123
		c0-0.444-0.083-0.851-0.247-1.22c-0.165-0.368-0.396-0.654-0.693-0.856s-0.637-0.304-1.021-0.304c-0.573,0-1.04,0.225-1.402,0.674
		c-0.362,0.45-0.542,1.038-0.542,1.765V27.722z"/>
	<path class="st6" d="M-73.888,24.725l0.021,0.994c0.218-0.358,0.491-0.632,0.816-0.819c0.326-0.188,0.686-0.282,1.08-0.282
		c0.623,0,1.087,0.175,1.391,0.526c0.304,0.352,0.458,0.878,0.462,1.579v3.813h-0.639v-3.818c-0.003-0.52-0.114-0.906-0.331-1.16
		c-0.216-0.255-0.563-0.382-1.039-0.382c-0.397,0-0.749,0.125-1.056,0.373c-0.306,0.249-0.532,0.585-0.679,1.008v3.979H-74.5v-5.811
		C-74.5,24.725-73.888,24.725-73.888,24.725z"/>
	<path class="st6" d="M-65.252,29.06c0-0.319-0.128-0.575-0.384-0.769c-0.256-0.193-0.642-0.345-1.158-0.454
		c-0.516-0.108-0.916-0.234-1.201-0.376c-0.284-0.141-0.496-0.313-0.634-0.518c-0.138-0.204-0.207-0.451-0.207-0.741
		c0-0.459,0.191-0.837,0.575-1.137c0.383-0.299,0.874-0.448,1.472-0.448c0.648,0,1.168,0.16,1.561,0.48
		c0.392,0.321,0.588,0.739,0.588,1.255h-0.645c0-0.341-0.143-0.623-0.427-0.849c-0.285-0.226-0.644-0.339-1.077-0.339
		c-0.422,0-0.762,0.094-1.018,0.282s-0.384,0.433-0.384,0.733c0,0.29,0.106,0.515,0.32,0.674c0.213,0.159,0.602,0.306,1.165,0.438
		c0.564,0.133,0.987,0.274,1.268,0.425c0.281,0.15,0.49,0.331,0.626,0.542c0.136,0.212,0.204,0.468,0.204,0.769
		c0,0.49-0.198,0.883-0.594,1.176c-0.396,0.294-0.912,0.44-1.549,0.44c-0.677,0-1.226-0.164-1.646-0.491
		c-0.421-0.328-0.631-0.742-0.631-1.243h0.645c0.025,0.376,0.184,0.668,0.475,0.878c0.292,0.209,0.678,0.314,1.158,0.314
		c0.448,0,0.809-0.099,1.085-0.296C-65.39,29.61-65.252,29.361-65.252,29.06z"/>
</g>
<path class="st7" d="M-33.875,21.433l-6.596-6.596c-0.74-0.74-1.952-0.74-2.693,0l0,0c-0.74,0.74-0.74,1.952,0,2.693l3.346,3.346
	h-13.734c-1.047,0-1.904,0.857-1.904,1.904c0,1.047,0.857,1.904,1.904,1.904h13.734l-3.346,3.346c-0.74,0.74-0.74,1.952,0,2.693l0,0
	c0.74,0.74,1.952,0.74,2.693,0l6.596-6.596l0,0C-33.135,23.385-33.135,22.173-33.875,21.433z"/>
<g>
	<path class="st3" d="M11.258,46.827c-0.063,0.582-0.272,1.026-0.623,1.335c-0.353,0.309-0.822,0.463-1.409,0.463
		c-0.41,0-0.771-0.102-1.086-0.308c-0.315-0.204-0.558-0.494-0.73-0.87c-0.171-0.375-0.259-0.804-0.261-1.287v-0.716
		c0-0.491,0.086-0.925,0.258-1.305c0.171-0.379,0.418-0.673,0.741-0.879c0.321-0.206,0.693-0.309,1.113-0.309
		c0.591,0,1.059,0.159,1.401,0.477c0.343,0.319,0.542,0.759,0.597,1.323h-0.47c-0.117-0.937-0.626-1.406-1.528-1.406
		c-0.501,0-0.899,0.188-1.196,0.561c-0.297,0.375-0.446,0.892-0.446,1.552v0.676c0,0.637,0.145,1.145,0.434,1.525
		c0.29,0.379,0.681,0.569,1.174,0.569c0.488,0,0.855-0.117,1.103-0.351c0.248-0.234,0.401-0.584,0.459-1.052h0.471V46.827z"/>
	<path class="st3" d="M12.543,45.14c0.149-0.246,0.34-0.435,0.573-0.57c0.232-0.133,0.486-0.201,0.762-0.201
		c0.44,0,0.767,0.123,0.982,0.371c0.215,0.248,0.323,0.62,0.326,1.114v2.693h-0.451v-2.695c-0.003-0.367-0.081-0.64-0.233-0.819
		c-0.153-0.18-0.397-0.27-0.734-0.27c-0.28,0-0.529,0.087-0.746,0.263c-0.215,0.176-0.376,0.413-0.479,0.711v2.81h-0.451v-5.824
		h0.451V45.14z"/>
	<path class="st3" d="M18.748,48.549c-0.045-0.129-0.075-0.32-0.087-0.572c-0.159,0.207-0.362,0.366-0.609,0.479
		c-0.246,0.112-0.507,0.169-0.783,0.169c-0.394,0-0.713-0.111-0.958-0.329c-0.244-0.221-0.366-0.498-0.366-0.834
		c0-0.399,0.166-0.716,0.498-0.949c0.333-0.231,0.795-0.349,1.39-0.349h0.823v-0.465c0-0.293-0.091-0.525-0.272-0.693
		c-0.18-0.168-0.444-0.252-0.79-0.252c-0.315,0-0.578,0.081-0.785,0.243c-0.207,0.163-0.311,0.357-0.311,0.585l-0.455-0.004
		c0-0.326,0.152-0.609,0.455-0.847c0.305-0.241,0.678-0.36,1.12-0.36c0.458,0,0.819,0.115,1.083,0.344
		c0.264,0.229,0.399,0.548,0.407,0.958v1.942c0,0.397,0.042,0.693,0.125,0.891v0.045C19.234,48.549,18.748,48.549,18.748,48.549z
		 M17.323,48.223c0.303,0,0.574-0.074,0.813-0.22c0.239-0.147,0.413-0.342,0.522-0.587v-0.904h-0.812
		c-0.453,0.005-0.807,0.089-1.062,0.249c-0.255,0.16-0.383,0.381-0.383,0.661c0,0.231,0.086,0.422,0.255,0.573
		C16.828,48.147,17.05,48.223,17.323,48.223z"/>
	<path class="st3" d="M20.83,43.396v1.05h0.849v0.371H20.83v2.736c0,0.229,0.041,0.398,0.123,0.509
		c0.081,0.111,0.219,0.167,0.411,0.167c0.075,0,0.198-0.013,0.368-0.038l0.019,0.369c-0.118,0.042-0.28,0.064-0.485,0.064
		c-0.311,0-0.537-0.09-0.679-0.271c-0.141-0.181-0.213-0.447-0.213-0.798v-2.738H19.62v-0.371h0.754v-1.05L20.83,43.396
		L20.83,43.396z"/>
	<path class="st3" d="M24.552,44.446l0.015,0.701c0.154-0.252,0.346-0.445,0.576-0.578c0.231-0.133,0.484-0.2,0.762-0.2
		c0.44,0,0.767,0.123,0.982,0.371c0.215,0.248,0.323,0.62,0.326,1.114v2.693h-0.451v-2.695c-0.003-0.367-0.081-0.64-0.233-0.819
		c-0.153-0.18-0.397-0.27-0.734-0.27c-0.28,0-0.529,0.087-0.746,0.263c-0.215,0.176-0.376,0.413-0.479,0.711v2.81H24.12v-4.103
		L24.552,44.446L24.552,44.446z"/>
	<path class="st3" d="M32.377,46.088c0,0.509-0.087,0.954-0.263,1.339c-0.176,0.385-0.427,0.681-0.753,0.887
		c-0.326,0.207-0.703,0.311-1.13,0.311c-0.645,0-1.165-0.231-1.562-0.693c-0.397-0.462-0.595-1.084-0.595-1.867v-0.57
		c0-0.502,0.089-0.948,0.267-1.336c0.179-0.387,0.43-0.687,0.757-0.895c0.326-0.209,0.701-0.313,1.126-0.313
		c0.424,0,0.8,0.102,1.125,0.308c0.325,0.204,0.575,0.494,0.753,0.868c0.177,0.374,0.269,0.807,0.277,1.301v0.659H32.377z
		 M31.911,45.489c0-0.665-0.151-1.186-0.451-1.562c-0.301-0.377-0.713-0.566-1.236-0.566c-0.513,0-0.922,0.189-1.227,0.567
		c-0.305,0.378-0.457,0.906-0.457,1.582v0.576c0,0.656,0.152,1.174,0.455,1.557c0.303,0.383,0.716,0.575,1.236,0.575
		c0.528,0,0.94-0.189,1.236-0.567s0.444-0.904,0.444-1.58L31.911,45.489L31.911,45.489z"/>
	<path class="st3" d="M34.234,47.604l0.069,0.353l0.091-0.371l0.986-3.14h0.387l0.975,3.113l0.106,0.434l0.087-0.399l0.842-3.147
		h0.47l-1.194,4.103h-0.387l-1.054-3.253l-0.05-0.225l-0.05,0.227l-1.036,3.25h-0.387l-1.191-4.103h0.466L34.234,47.604z"/>
</g>
<path class="st2" d="M34.626,12.95H10.375c-0.591,0-1.076,0.483-1.076,1.076v13.772c0,0.591,0.483,1.076,1.076,1.076h4.371
	l1.2,3.356c0.029,0.157,0.079,0.305,0.155,0.436l0.006,0.016c0,0,0.005,0.001,0.006,0.001c0.268,0.445,0.78,0.717,1.33,0.649
	c0.281-0.035,0.53-0.153,0.728-0.325c0.003,0,0.01,0,0.013,0c0.106-0.018,2.125-2.141,3.999-4.131h12.444
	c0.591,0,1.076-0.483,1.076-1.076V14.024C35.7,13.433,35.217,12.95,34.626,12.95z"/>
</svg>
