<?xml version="1.0" encoding="utf-8"?>
<!-- Generator: Adobe Illustrator 21.1.0, SVG Export Plug-In . SVG Version: 6.00 Build 0)  -->
<svg version="1.1" id="Layer_1" xmlns="http://www.w3.org/2000/svg" xmlns:xlink="http://www.w3.org/1999/xlink" x="0px" y="0px"
	 viewBox="0 0 60 60" style="enable-background:new 0 0 60 60;" xml:space="preserve">
<style type="text/css">
	.st0{opacity:0.36;}
	.st1{fill:#3C4852;}
	.st2{fill:#ECEEEF;}
	.st3{fill:url(#SVGID_1_);}
	.st4{fill:#FFFFFF;}
	.st5{fill:url(#SVGID_2_);}
	.st6{fill:url(#SVGID_3_);}
	.st7{fill:url(#SVGID_4_);}
	.st8{opacity:0.44;fill:#FFFFFF;enable-background:new    ;}
	.st9{fill:#8DC56F;}
	.st10{fill:#6CB048;}
	.st11{opacity:0.33;fill:#FFFFFF;enable-background:new    ;}
</style>
<g class="st0">
	<path class="st1" d="M18.118,52.737c-0.316,0-0.63-0.04-0.934-0.118c-1.149-0.299-2.095-1.136-2.53-2.239l-2.604-6.604H3.827
		c-2.053,0-3.724-1.671-3.724-3.724V9.375c0-2.053,1.67-3.724,3.724-3.724h51.969c2.053,0,3.724,1.67,3.724,3.724v30.677
		c0,2.053-1.671,3.724-3.724,3.724H30.365l-9.884,8.116C19.818,52.437,18.978,52.737,18.118,52.737z"/>
</g>
<g>
	<path class="st2" d="M18.118,49.987c-0.316,0-0.63-0.04-0.934-0.118c-1.149-0.299-2.095-1.136-2.53-2.239l-2.604-6.604H3.827
		c-2.053,0-3.724-1.671-3.724-3.724V6.625c0-2.053,1.67-3.724,3.724-3.724h51.969c2.053,0,3.724,1.67,3.724,3.724v30.677
		c0,2.053-1.671,3.724-3.724,3.724H30.365l-9.884,8.116C19.818,49.687,18.978,49.987,18.118,49.987z"/>
</g>
<linearGradient id="SVGID_1_" gradientUnits="userSpaceOnUse" x1="29.8115" y1="56.474" x2="29.8115" y2="10.637" gradientTransform="matrix(1 0 0 -1 0 60)">
	<stop  offset="0" style="stop-color:#405575"/>
	<stop  offset="1" style="stop-color:#31425D"/>
</linearGradient>
<path class="st3" d="M55.796,3.526H3.827c-1.711,0-3.099,1.387-3.099,3.099v30.677c0,1.711,1.387,3.099,3.099,3.099h8.649l2.76,7
	c0.363,0.922,1.146,1.614,2.104,1.863c0.257,0.067,0.518,0.099,0.778,0.099c0.709,0,1.406-0.244,1.967-0.704l10.056-8.258h25.655
	c1.711,0,3.099-1.387,3.099-3.099V6.625C58.895,4.913,57.507,3.526,55.796,3.526L55.796,3.526z"/>
<g>
	<g>
		<path class="st4" d="M14.013,28.059h-0.326v-3.916h0.326C14.013,24.143,14.013,28.059,14.013,28.059z"/>
		<path class="st4" d="M17.22,28.059h-0.323l-1.749-3.28l-0.017,0.003v3.276h-0.326v-3.916h0.326l1.749,3.28l0.017-0.003v-3.276
			h0.323C17.22,24.142,17.22,28.059,17.22,28.059z"/>
		<path class="st4" d="M19.788,27.102c0-0.214-0.062-0.388-0.187-0.522c-0.125-0.134-0.344-0.252-0.657-0.355
			c-0.357-0.109-0.627-0.25-0.811-0.423c-0.184-0.173-0.276-0.404-0.276-0.695c0-0.3,0.103-0.544,0.309-0.734
			c0.205-0.191,0.469-0.284,0.795-0.284c0.341,0,0.614,0.112,0.821,0.336s0.309,0.498,0.302,0.82l-0.009,0.017h-0.304
			c0-0.26-0.073-0.474-0.217-0.639c-0.144-0.165-0.343-0.249-0.595-0.249c-0.246,0-0.437,0.068-0.573,0.207
			c-0.136,0.139-0.204,0.312-0.204,0.52c0,0.194,0.066,0.357,0.197,0.489c0.132,0.132,0.355,0.248,0.671,0.346
			c0.347,0.108,0.613,0.253,0.792,0.437c0.179,0.184,0.27,0.425,0.27,0.725c0,0.314-0.107,0.562-0.319,0.747
			c-0.213,0.184-0.486,0.276-0.82,0.276c-0.327,0-0.613-0.099-0.856-0.295c-0.242-0.197-0.36-0.483-0.352-0.858l0.004-0.017h0.301
			c0,0.307,0.088,0.533,0.265,0.678c0.177,0.145,0.389,0.217,0.637,0.217c0.244,0,0.44-0.067,0.589-0.203
			C19.713,27.506,19.788,27.324,19.788,27.102z"/>
		<path class="st4" d="M22.818,24.428h-1.094v3.631h-0.323v-3.631H20.31v-0.285h2.509L22.818,24.428L22.818,24.428z"/>
		<path class="st4" d="M23.558,26.286v1.772h-0.323v-3.914h1.124c0.352,0,0.62,0.093,0.807,0.277c0.187,0.185,0.28,0.453,0.28,0.807
			c0,0.208-0.049,0.392-0.148,0.554c-0.099,0.162-0.239,0.282-0.42,0.359c0.198,0.062,0.343,0.171,0.43,0.328
			c0.087,0.158,0.131,0.354,0.131,0.59v0.369c0,0.122,0.012,0.231,0.035,0.328c0.023,0.097,0.063,0.176,0.118,0.237v0.065h-0.331
			c-0.055-0.065-0.094-0.154-0.115-0.27c-0.021-0.115-0.03-0.237-0.03-0.367v-0.359c0-0.237-0.061-0.426-0.18-0.568
			c-0.12-0.14-0.285-0.21-0.496-0.21h-0.883v0.001H23.558z M23.558,26.012h0.764c0.276,0,0.478-0.071,0.606-0.212
			c0.128-0.141,0.192-0.333,0.192-0.574c0-0.256-0.063-0.454-0.188-0.592c-0.126-0.139-0.316-0.207-0.573-0.207h-0.801V26.012
			L23.558,26.012z"/>
		<path class="st4" d="M28.37,24.142v2.742c0,0.4-0.107,0.705-0.321,0.917c-0.213,0.21-0.491,0.316-0.833,0.316
			c-0.335,0-0.606-0.106-0.814-0.316c-0.208-0.21-0.312-0.516-0.312-0.917v-2.742h0.317v2.745c0,0.307,0.074,0.543,0.224,0.707
			c0.15,0.164,0.345,0.247,0.586,0.247c0.253,0,0.456-0.078,0.606-0.236c0.152-0.158,0.227-0.397,0.227-0.717v-2.745
			C28.05,24.142,28.37,24.142,28.37,24.142z"/>
		<path class="st4" d="M31.172,26.922l0.008,0.017c-0.003,0.382-0.104,0.674-0.301,0.875c-0.197,0.203-0.469,0.302-0.814,0.302
			c-0.36,0-0.647-0.127-0.858-0.382c-0.212-0.256-0.317-0.618-0.317-1.09V25.56c0-0.468,0.107-0.831,0.319-1.089
			c0.213-0.257,0.498-0.386,0.856-0.386c0.349,0,0.622,0.099,0.818,0.295c0.196,0.197,0.294,0.491,0.299,0.882l-0.008,0.017h-0.299
			c-0.01-0.31-0.082-0.54-0.215-0.688s-0.334-0.222-0.595-0.222c-0.269,0-0.479,0.1-0.63,0.304s-0.226,0.496-0.226,0.878v1.093
			c0,0.39,0.075,0.687,0.226,0.889c0.151,0.204,0.36,0.304,0.63,0.304c0.262,0,0.46-0.073,0.595-0.217
			c0.134-0.145,0.206-0.378,0.215-0.702h0.3C31.172,26.92,31.172,26.922,31.172,26.922z"/>
		<path class="st4" d="M33.858,24.428h-1.094v3.631h-0.323v-3.631H31.35v-0.285h2.509L33.858,24.428L33.858,24.428z"/>
		<path class="st4" d="M34.652,28.059h-0.326v-3.916h0.326V28.059z"/>
		<path class="st4" d="M37.744,26.653c0,0.475-0.11,0.839-0.333,1.089c-0.222,0.25-0.526,0.376-0.91,0.376
			c-0.378,0-0.676-0.126-0.891-0.376c-0.216-0.249-0.324-0.613-0.324-1.089v-1.099c0-0.475,0.108-0.839,0.323-1.091
			c0.215-0.251,0.511-0.378,0.891-0.378c0.386,0,0.69,0.126,0.911,0.378c0.223,0.253,0.334,0.616,0.334,1.09L37.744,26.653
			L37.744,26.653z M37.426,25.547c0-0.387-0.08-0.679-0.239-0.874c-0.16-0.196-0.388-0.293-0.685-0.293
			c-0.289,0-0.509,0.098-0.664,0.293c-0.154,0.196-0.23,0.487-0.23,0.874v1.105c0,0.392,0.077,0.687,0.23,0.883
			c0.154,0.196,0.377,0.293,0.667,0.293c0.298,0,0.526-0.098,0.684-0.293c0.159-0.196,0.238-0.489,0.238-0.883
			C37.426,26.653,37.426,25.547,37.426,25.547z"/>
		<path class="st4" d="M40.744,28.059h-0.323l-1.749-3.28l-0.017,0.003v3.276H38.33v-3.916h0.326l1.749,3.28l0.017-0.003v-3.276
			h0.323V28.059z"/>
		<path class="st4" d="M43.286,26.973h-1.428l-0.334,1.087h-0.334l1.24-3.916h0.293l1.228,3.916h-0.334L43.286,26.973z
			 M41.948,26.676h1.248l-0.613-2.015h-0.017L41.948,26.676z"/>
		<path class="st4" d="M44.673,27.785h1.582v0.274h-1.908v-3.916h0.326L44.673,27.785L44.673,27.785z"/>
		<path class="st4" d="M22.349,32.539c0-0.214-0.062-0.388-0.187-0.522c-0.126-0.133-0.344-0.252-0.657-0.354
			c-0.357-0.109-0.627-0.25-0.811-0.424c-0.184-0.172-0.276-0.404-0.276-0.695c0-0.3,0.103-0.543,0.309-0.734
			c0.205-0.191,0.469-0.285,0.795-0.285c0.341,0,0.614,0.112,0.821,0.336s0.309,0.498,0.302,0.82l-0.009,0.017h-0.304
			c0-0.26-0.073-0.473-0.217-0.639c-0.144-0.165-0.343-0.249-0.595-0.249c-0.246,0-0.437,0.068-0.573,0.207
			c-0.136,0.138-0.204,0.311-0.204,0.519c0,0.194,0.066,0.357,0.197,0.488c0.132,0.132,0.355,0.248,0.671,0.346
			c0.347,0.107,0.613,0.253,0.792,0.437c0.179,0.184,0.27,0.425,0.27,0.725c0,0.314-0.107,0.562-0.319,0.746
			c-0.213,0.184-0.486,0.276-0.82,0.276c-0.327,0-0.613-0.099-0.856-0.295c-0.242-0.197-0.36-0.483-0.352-0.858l0.004-0.017h0.301
			c0,0.307,0.088,0.533,0.265,0.678c0.177,0.144,0.389,0.217,0.637,0.217c0.244,0,0.44-0.067,0.589-0.203
			C22.275,32.94,22.349,32.762,22.349,32.539z"/>
		<path class="st4" d="M25.405,29.579v2.742c0,0.4-0.107,0.705-0.321,0.917c-0.213,0.21-0.491,0.316-0.833,0.316
			c-0.335,0-0.606-0.106-0.814-0.316c-0.208-0.21-0.312-0.516-0.312-0.917v-2.742h0.317v2.745c0,0.309,0.074,0.543,0.224,0.707
			c0.15,0.164,0.345,0.247,0.586,0.247c0.253,0,0.456-0.079,0.606-0.237c0.152-0.158,0.227-0.397,0.227-0.717v-2.745L25.405,29.579
			L25.405,29.579z"/>
		<path class="st4" d="M26.391,31.873v1.622h-0.323V29.58h1.159c0.343,0,0.608,0.105,0.796,0.314
			c0.188,0.21,0.282,0.487,0.282,0.831c0,0.347-0.094,0.626-0.282,0.835c-0.188,0.209-0.454,0.314-0.796,0.314L26.391,31.873
			L26.391,31.873z M26.391,31.591h0.838c0.251,0,0.439-0.083,0.565-0.247c0.126-0.164,0.188-0.369,0.188-0.614
			c0-0.249-0.063-0.456-0.188-0.62c-0.126-0.163-0.314-0.247-0.565-0.247h-0.838V31.591z"/>
		<path class="st4" d="M29.159,31.873v1.622h-0.323V29.58h1.159c0.343,0,0.608,0.105,0.796,0.314
			c0.188,0.21,0.282,0.487,0.282,0.831c0,0.347-0.094,0.626-0.282,0.835c-0.188,0.209-0.454,0.314-0.796,0.314L29.159,31.873
			L29.159,31.873z M29.159,31.591h0.838c0.251,0,0.439-0.083,0.565-0.247c0.126-0.164,0.188-0.369,0.188-0.614
			c0-0.249-0.063-0.456-0.188-0.62c-0.126-0.163-0.314-0.247-0.565-0.247h-0.838V31.591z"/>
		<path class="st4" d="M33.904,32.088c0,0.475-0.11,0.839-0.333,1.088c-0.222,0.25-0.526,0.376-0.91,0.376
			c-0.378,0-0.676-0.126-0.891-0.376c-0.216-0.249-0.324-0.613-0.324-1.088V30.99c0-0.475,0.108-0.839,0.323-1.091
			c0.215-0.251,0.511-0.378,0.891-0.378c0.386,0,0.69,0.126,0.911,0.378c0.223,0.253,0.334,0.616,0.334,1.09L33.904,32.088
			L33.904,32.088z M33.584,30.983c0-0.387-0.08-0.679-0.239-0.874s-0.388-0.293-0.685-0.293c-0.289,0-0.509,0.098-0.664,0.293
			s-0.23,0.487-0.23,0.874v1.105c0,0.392,0.077,0.687,0.23,0.882c0.154,0.196,0.377,0.293,0.667,0.293
			c0.298,0,0.526-0.098,0.684-0.293c0.159-0.196,0.238-0.489,0.238-0.882L33.584,30.983L33.584,30.983z"/>
		<path class="st4" d="M34.807,31.723v1.772h-0.323v-3.914h1.124c0.352,0,0.62,0.092,0.807,0.277c0.187,0.185,0.28,0.453,0.28,0.806
			c0,0.208-0.049,0.392-0.148,0.554c-0.099,0.162-0.239,0.282-0.42,0.359c0.198,0.062,0.343,0.171,0.43,0.328
			c0.087,0.159,0.131,0.354,0.131,0.59v0.369c0,0.122,0.012,0.231,0.035,0.328c0.022,0.097,0.063,0.176,0.118,0.237v0.065H36.51
			c-0.055-0.065-0.094-0.154-0.115-0.27c-0.021-0.115-0.03-0.237-0.03-0.367v-0.359c0-0.237-0.061-0.426-0.18-0.568
			c-0.12-0.14-0.285-0.21-0.496-0.21h-0.883v0.002H34.807z M34.807,31.449h0.764c0.276,0,0.478-0.071,0.606-0.212
			c0.128-0.141,0.192-0.333,0.192-0.574c0-0.256-0.063-0.454-0.188-0.592c-0.126-0.138-0.316-0.207-0.573-0.207h-0.802
			L34.807,31.449L34.807,31.449z"/>
		<path class="st4" d="M39.378,29.864h-1.094v3.631h-0.323v-3.631H36.87v-0.285h2.509L39.378,29.864L39.378,29.864z"/>
	</g>
	<g>
		<g>
			<g>
				
					<linearGradient id="SVGID_2_" gradientUnits="userSpaceOnUse" x1="17.4693" y1="58.3395" x2="17.4693" y2="49.8313" gradientTransform="matrix(1 0 0 -1 0 70)">
					<stop  offset="0" style="stop-color:#FFFFFF"/>
					<stop  offset="0.3126" style="stop-color:#E2E1E0"/>
					<stop  offset="0.4767" style="stop-color:#E0E0DF"/>
					<stop  offset="0.7198" style="stop-color:#C8C8C8"/>
				</linearGradient>
				<path class="st5" d="M16.146,11.815l0.085,0.981c0.576-0.756,1.371-1.135,2.386-1.135c0.869,0,1.519,0.26,1.949,0.78
					c0.43,0.52,0.652,1.302,0.668,2.347v5.381h-2.61v-5.272c0-0.422-0.085-0.733-0.256-0.93c-0.17-0.197-0.478-0.298-0.926-0.298
					c-0.509,0-0.888,0.201-1.135,0.603v5.897h-2.602v-8.353L16.146,11.815L16.146,11.815L16.146,11.815z"/>
				
					<linearGradient id="SVGID_3_" gradientUnits="userSpaceOnUse" x1="40.6831" y1="58.187" x2="40.6831" y2="49.834" gradientTransform="matrix(1 0 0 -1 0 70)">
					<stop  offset="0" style="stop-color:#FFFFFF"/>
					<stop  offset="0.3126" style="stop-color:#E2E1E0"/>
					<stop  offset="0.4767" style="stop-color:#E0E0DF"/>
					<stop  offset="0.7198" style="stop-color:#C8C8C8"/>
				</linearGradient>
				<path class="st6" d="M42.903,16.739l0.841-4.926h2.493l-1.969,8.353h-2.2l-1.382-4.957l-1.39,4.957h-2.2l-1.968-8.353h2.493
					l0.825,5.042l1.329-5.042h1.814L42.903,16.739z"/>
			</g>
			
				<linearGradient id="SVGID_4_" gradientUnits="userSpaceOnUse" x1="28.7011" y1="-4.5328" x2="28.7011" y2="9.1365" gradientTransform="matrix(1 0 0 1 0 13.45)">
				<stop  offset="0" style="stop-color:#FFFFFF"/>
				<stop  offset="0.3126" style="stop-color:#E2E1E0"/>
				<stop  offset="0.4767" style="stop-color:#E0E0DF"/>
				<stop  offset="0.7198" style="stop-color:#C8C8C8"/>
			</linearGradient>
			<path class="st7" d="M27.239,12.063c0.491,0,5.365,2.815,5.365,3.707c0,0.891-4.741,3.707-5.365,3.707
				C26.616,19.477,26.748,12.063,27.239,12.063z M28.702,8.917c3.71,0,6.718,3.06,6.718,6.835s-3.008,6.835-6.718,6.835
				s-6.719-3.06-6.719-6.836S24.99,8.917,28.702,8.917z"/>
			<path class="st8" d="M28.702,8.917c-2.925,0-5.41,1.901-6.332,4.552c1.16,0.839,2.712,1.434,4.464,1.662
				c0.043-1.619,0.19-3.07,0.406-3.07c0.364,0,3.123,1.542,4.536,2.703c1.238-0.366,2.313-0.926,3.136-1.622
				C33.904,10.663,31.503,8.917,28.702,8.917z"/>
			<path class="st9" d="M27.239,12.063c0.491,0,5.365,2.815,5.365,3.707c0,0.891-4.741,3.707-5.365,3.707
				C26.616,19.477,26.748,12.063,27.239,12.063z"/>
			<g>
				<path class="st10" d="M27.239,12.063c-0.062,0-0.119,0.12-0.169,0.33c0.625,0.091,5.333,2.826,5.333,3.702
					c0,0.033-0.01,0.069-0.022,0.109c0.141-0.171,0.223-0.32,0.223-0.434C32.602,14.878,27.729,12.063,27.239,12.063z"/>
			</g>
			<path class="st11" d="M26.833,15.134c0.517,0.068,1.051,0.104,1.598,0.104c1.191,0,2.322-0.169,3.342-0.469
				c-1.413-1.163-4.172-2.702-4.536-2.702C27.023,12.063,26.876,13.515,26.833,15.134z"/>
		</g>
		<g>
			<path class="st4" d="M48.217,11.25h-0.389v1.08h-0.16v-1.08h-0.387v-0.131h0.936V11.25z"/>
			<path class="st4" d="M48.603,11.119l0.396,0.987l0.396-0.987h0.207v1.211h-0.161v-0.471l0.015-0.509l-0.397,0.98h-0.122
				l-0.396-0.978l0.015,0.507v0.472h-0.16v-1.211H48.603z"/>
		</g>
	</g>
</g>
</svg>
