<?xml version="1.0" encoding="utf-8"?>
<!-- Generator: Adobe Illustrator 21.1.0, SVG Export Plug-In . SVG Version: 6.00 Build 0)  -->
<svg version="1.1" id="Layer_1" xmlns="http://www.w3.org/2000/svg" xmlns:xlink="http://www.w3.org/1999/xlink" x="0px" y="0px"
	 viewBox="0 0 45 45" style="enable-background:new 0 0 45 45;" xml:space="preserve">
<style type="text/css">
	.st0{fill:#8DC56F;}
	.st1{fill:#FFFFFF;}
	.st2{display:none;}
	.st3{display:inline;}
	.st4{display:inline;fill:#8DC56F;}
	.st5{display:none;fill:#8DC56F;}
	.st6{display:inline;fill:#FFFFFF;}
	.st7{display:none;fill:#FFFFFF;}
</style>
<g id="DZG0YK_1_">
	<g>
		<path class="st0" d="M24.121,21.425c-0.864-0.948-1.725-1.899-2.594-2.843c-0.362-0.393-0.549-0.418-1.05-0.196
			c-1.219,0.54-2.438,1.082-3.658,1.616c-0.485,0.213-0.686,0.134-0.896-0.361c-1.3-3.07-2.596-6.14-3.892-9.211
			c-0.49-1.16-0.978-2.321-1.463-3.482c-0.058-0.14-0.188-0.285-0.034-0.441c0.146-0.146,0.302-0.05,0.45-0.004
			c2.834,0.898,5.668,1.8,8.502,2.698c3.693,1.171,7.386,2.342,11.079,3.511c0.059,0.018,0.121,0.03,0.176,0.054
			c0.12,0.054,0.277,0.07,0.288,0.246c0.011,0.154-0.118,0.208-0.222,0.268c-1.629,0.932-3.258,1.863-4.89,2.789
			c-0.327,0.185-0.665,0.17-0.981-0.038c-0.938-0.62-1.872-1.244-2.807-1.867c-0.101-0.067-0.246-0.124-0.206-0.271
			c0.04-0.149,0.198-0.118,0.317-0.13c1.277-0.121,2.553-0.241,3.83-0.358c1.178-0.109,2.355-0.215,3.531-0.378
			c-0.228,0-0.457,0-0.686,0c-2.522,0.003-5.043-0.006-7.564,0.016c-0.646,0.006-1.199-0.163-1.734-0.523
			c-2.347-1.576-8.296-5.449-8.296-5.449s6.773,5.703,7.238,6.108c0.27,0.234,0.324,0.547,0.195,0.877
			c-0.604,1.538-1.213,3.074-1.822,4.611c-0.038,0.098-0.161,0.217-0.032,0.29c0.134,0.076,0.175-0.093,0.229-0.179
			c0.769-1.235,1.535-2.473,2.302-3.71c0.046-0.074,0.091-0.146,0.14-0.218c0.254-0.383,0.462-0.426,0.817-0.138
			c0.508,0.412,1.003,0.838,1.503,1.259c0.207,0.175,0.398,0.374,0.622,0.524c0.571,0.385,0.843,0.926,0.985,1.586
			c0.212,0.987,0.478,1.962,0.728,2.942c0.034,0.134,0.047,0.266,0.04,0.402C24.22,21.425,24.17,21.425,24.121,21.425z"/>
	</g>
</g>
<g>
	<path class="st1" d="M14.495,31.832h-1.869v1.63h2.149v0.285h-2.487v-3.996h2.474v0.285h-2.135v1.51h1.869v0.286H14.495z"/>
	<path class="st1" d="M15.568,30.778l0.011,0.483c0.11-0.179,0.247-0.314,0.412-0.403c0.165-0.09,0.348-0.134,0.549-0.134
		c0.469,0,0.766,0.192,0.892,0.577c0.106-0.185,0.248-0.327,0.426-0.427c0.178-0.099,0.373-0.15,0.587-0.15
		c0.637,0,0.962,0.348,0.974,1.043v1.982H19.09v-1.957c-0.002-0.265-0.059-0.462-0.171-0.59c-0.113-0.128-0.296-0.192-0.55-0.192
		c-0.236,0.004-0.436,0.08-0.598,0.23c-0.162,0.149-0.254,0.33-0.271,0.544v1.965h-0.33v-1.982c-0.002-0.254-0.062-0.444-0.18-0.57
		s-0.299-0.188-0.544-0.188c-0.206,0-0.385,0.059-0.533,0.177s-0.258,0.293-0.329,0.526v2.037h-0.329v-2.97L15.568,30.778
		L15.568,30.778z"/>
	<path class="st1" d="M21.985,33.748c-0.033-0.094-0.054-0.231-0.063-0.414c-0.115,0.15-0.262,0.266-0.441,0.348
		c-0.178,0.082-0.367,0.122-0.566,0.122c-0.285,0-0.517-0.079-0.694-0.239c-0.177-0.158-0.265-0.36-0.265-0.604
		c0-0.289,0.12-0.517,0.361-0.686c0.241-0.169,0.576-0.253,1.006-0.253h0.595v-0.338c0-0.212-0.066-0.379-0.196-0.5
		c-0.131-0.122-0.322-0.182-0.572-0.182c-0.229,0-0.418,0.058-0.568,0.176c-0.15,0.118-0.226,0.257-0.226,0.422l-0.329-0.002
		c0-0.236,0.11-0.441,0.329-0.614c0.219-0.173,0.49-0.259,0.81-0.259c0.331,0,0.593,0.083,0.783,0.249
		c0.191,0.166,0.29,0.397,0.295,0.693v1.406c0,0.288,0.03,0.502,0.09,0.645v0.033L21.985,33.748L21.985,33.748z M20.952,33.511
		c0.219,0,0.415-0.054,0.589-0.159c0.173-0.106,0.299-0.248,0.378-0.426v-0.652h-0.587c-0.328,0.004-0.584,0.063-0.768,0.179
		c-0.185,0.117-0.278,0.276-0.278,0.479c0,0.166,0.062,0.305,0.186,0.414C20.594,33.457,20.755,33.511,20.952,33.511z"/>
	<path class="st1" d="M22.961,29.92c0-0.062,0.02-0.114,0.061-0.157c0.039-0.042,0.094-0.065,0.165-0.065
		c0.069,0,0.125,0.022,0.166,0.065c0.041,0.042,0.062,0.094,0.062,0.157c0,0.062-0.021,0.114-0.062,0.155
		c-0.042,0.042-0.098,0.062-0.166,0.062c-0.07,0-0.126-0.021-0.165-0.062C22.981,30.034,22.961,29.982,22.961,29.92z M23.348,33.748
		h-0.329v-2.97h0.329V33.748z"/>
	<path class="st1" d="M24.467,33.748h-0.329v-4.215h0.329V33.748z"/>
	<path class="st1" d="M29.275,29.751v2.728c-0.002,0.27-0.062,0.503-0.178,0.702c-0.118,0.199-0.282,0.353-0.495,0.46
		c-0.213,0.106-0.458,0.161-0.734,0.161c-0.422,0-0.758-0.114-1.012-0.345c-0.254-0.23-0.386-0.547-0.394-0.954V29.75h0.334v2.703
		c0,0.337,0.097,0.598,0.288,0.784c0.193,0.186,0.453,0.278,0.782,0.278s0.59-0.094,0.781-0.28s0.287-0.446,0.287-0.78V29.75
		L29.275,29.751L29.275,29.751z"/>
	<path class="st1" d="M31.777,32.993c0-0.162-0.066-0.293-0.197-0.392c-0.13-0.098-0.328-0.176-0.592-0.232
		c-0.263-0.056-0.468-0.12-0.613-0.192c-0.146-0.073-0.254-0.162-0.324-0.265c-0.07-0.105-0.106-0.23-0.106-0.379
		c0-0.234,0.098-0.428,0.294-0.58c0.196-0.154,0.446-0.23,0.752-0.23c0.331,0,0.597,0.082,0.797,0.246
		c0.201,0.163,0.301,0.378,0.301,0.64H31.76c0-0.174-0.073-0.318-0.218-0.433c-0.146-0.116-0.329-0.174-0.55-0.174
		c-0.216,0-0.389,0.048-0.521,0.144c-0.13,0.097-0.197,0.221-0.197,0.374c0,0.149,0.054,0.263,0.163,0.345
		c0.11,0.082,0.307,0.156,0.596,0.224c0.288,0.068,0.504,0.14,0.648,0.218c0.143,0.077,0.25,0.169,0.32,0.277
		c0.07,0.108,0.105,0.239,0.105,0.393c0,0.25-0.102,0.45-0.303,0.601c-0.202,0.15-0.466,0.226-0.792,0.226
		c-0.345,0-0.626-0.083-0.841-0.251c-0.214-0.167-0.322-0.378-0.322-0.636h0.329c0.013,0.193,0.094,0.342,0.243,0.449
		c0.149,0.107,0.346,0.162,0.591,0.162c0.229,0,0.414-0.05,0.555-0.151C31.706,33.274,31.777,33.146,31.777,32.993z"/>
</g>
<g class="st2">
	<g class="st3">
		<path class="st0" d="M76.847,7.237c0.847,0,9.244,4.852,9.244,6.388c0,1.534-8.17,6.388-9.244,6.388
			C75.774,20.015,76.002,7.237,76.847,7.237z M79.367,1.817c6.395,0,11.577,5.275,11.577,11.779c0,6.505-5.184,11.779-11.577,11.779
			S67.788,20.1,67.788,13.595S72.972,1.817,79.367,1.817z"/>
		<path class="st1" d="M76.298,7.237c0.847,0,9.244,4.852,9.244,6.388c0,1.534-8.17,6.388-9.244,6.388
			C75.225,20.015,75.453,7.237,76.298,7.237z"/>
	</g>
	<g class="st3">
		<path class="st1" d="M64.209,40.652h2.741v0.396h-3.214v-5.55h0.473V40.652z"/>
		<path class="st1" d="M67.521,35.733c0-0.086,0.027-0.158,0.083-0.218c0.056-0.059,0.132-0.09,0.229-0.09s0.174,0.03,0.231,0.09
			c0.057,0.059,0.086,0.131,0.086,0.218c0,0.086-0.029,0.158-0.086,0.216c-0.058,0.058-0.135,0.086-0.231,0.086
			s-0.173-0.029-0.229-0.086C67.548,35.891,67.521,35.819,67.521,35.733z M68.058,41.049h-0.457v-4.125h0.457V41.049z"/>
		<path class="st1" d="M70.386,40.42l1.255-3.496h0.468l-1.54,4.125H70.2l-1.548-4.125h0.468L70.386,40.42z"/>
		<path class="st1" d="M74.21,41.125c-0.351,0-0.668-0.086-0.951-0.259c-0.284-0.173-0.504-0.413-0.662-0.723
			c-0.158-0.308-0.236-0.655-0.236-1.039v-0.163c0-0.396,0.077-0.754,0.23-1.072s0.368-0.568,0.643-0.749
			c0.274-0.182,0.571-0.273,0.891-0.273c0.501,0,0.898,0.171,1.192,0.513c0.293,0.342,0.44,0.809,0.44,1.401v0.256h-2.943v0.087
			c0,0.468,0.134,0.857,0.402,1.168c0.269,0.312,0.606,0.468,1.012,0.468c0.244,0,0.459-0.045,0.646-0.134
			c0.186-0.089,0.357-0.231,0.509-0.427l0.285,0.217C75.334,40.883,74.847,41.125,74.21,41.125z M74.125,37.237
			c-0.342,0-0.632,0.125-0.867,0.378c-0.235,0.251-0.379,0.59-0.429,1.013h2.474v-0.049c-0.013-0.396-0.126-0.719-0.34-0.968
			C74.751,37.361,74.471,37.237,74.125,37.237z"/>
		<path class="st1" d="M79.933,40.363l0.03,0.119l0.035-0.119l1.746-4.864h0.514l-2.065,5.55h-0.45l-2.067-5.55h0.512L79.933,40.363
			z"/>
		<path class="st1" d="M82.746,35.733c0-0.086,0.028-0.158,0.085-0.218c0.055-0.059,0.131-0.09,0.229-0.09
			c0.096,0,0.173,0.03,0.23,0.09c0.057,0.059,0.086,0.131,0.086,0.218c0,0.086-0.029,0.158-0.086,0.216
			c-0.058,0.058-0.135,0.086-0.23,0.086c-0.097,0-0.174-0.029-0.229-0.086C82.774,35.891,82.746,35.819,82.746,35.733z
			 M83.284,41.049h-0.457v-4.125h0.457V41.049z"/>
		<path class="st1" d="M84.144,38.948c0-0.64,0.143-1.15,0.429-1.53c0.286-0.38,0.674-0.57,1.165-0.57
			c0.557,0,0.981,0.22,1.273,0.66v-2.314h0.454v5.855h-0.427L87.019,40.5c-0.292,0.417-0.722,0.625-1.288,0.625
			c-0.475,0-0.858-0.191-1.15-0.573c-0.291-0.383-0.436-0.899-0.436-1.549L84.144,38.948L84.144,38.948z M84.605,39.028
			c0,0.526,0.106,0.941,0.317,1.244c0.211,0.304,0.508,0.456,0.892,0.456c0.562,0,0.961-0.247,1.197-0.744v-1.937
			c-0.236-0.535-0.633-0.804-1.189-0.804c-0.384,0-0.683,0.151-0.896,0.452C84.712,37.997,84.605,38.441,84.605,39.028z"/>
		<path class="st1" d="M90.068,41.125c-0.351,0-0.668-0.086-0.951-0.259c-0.284-0.173-0.504-0.413-0.662-0.723
			c-0.158-0.308-0.236-0.655-0.236-1.039v-0.163c0-0.396,0.077-0.754,0.23-1.072c0.154-0.318,0.368-0.568,0.643-0.749
			c0.274-0.182,0.571-0.273,0.891-0.273c0.501,0,0.898,0.171,1.192,0.513c0.293,0.342,0.44,0.809,0.44,1.401v0.256h-2.943v0.087
			c0,0.468,0.135,0.857,0.402,1.168c0.269,0.312,0.606,0.468,1.012,0.468c0.244,0,0.459-0.045,0.646-0.134
			c0.186-0.089,0.357-0.231,0.509-0.427l0.285,0.217C91.192,40.883,90.705,41.125,90.068,41.125z M89.983,37.237
			c-0.342,0-0.632,0.125-0.867,0.378c-0.235,0.251-0.379,0.59-0.429,1.013h2.474v-0.049c-0.013-0.396-0.126-0.719-0.34-0.968
			C90.609,37.361,90.329,37.237,89.983,37.237z"/>
		<path class="st1" d="M92.056,38.926c0-0.396,0.077-0.754,0.23-1.072c0.154-0.318,0.371-0.565,0.652-0.741
			c0.28-0.177,0.599-0.265,0.955-0.265c0.549,0,0.994,0.192,1.334,0.578c0.341,0.385,0.511,0.895,0.511,1.531v0.095
			c0,0.399-0.077,0.758-0.23,1.077c-0.154,0.319-0.371,0.565-0.651,0.738s-0.598,0.259-0.956,0.259c-0.546,0-0.99-0.192-1.333-0.578
			c-0.341-0.385-0.513-0.895-0.513-1.53L92.056,38.926L92.056,38.926z M92.514,39.051c0,0.493,0.128,0.898,0.383,1.214
			c0.256,0.317,0.59,0.475,1.005,0.475c0.412,0,0.745-0.158,1-0.475c0.256-0.316,0.383-0.734,0.383-1.252v-0.087
			c0-0.315-0.058-0.604-0.175-0.866c-0.118-0.262-0.281-0.464-0.492-0.608c-0.211-0.143-0.452-0.215-0.724-0.215
			c-0.407,0-0.739,0.159-0.995,0.479c-0.258,0.319-0.385,0.736-0.385,1.252V39.051z"/>
	</g>
</g>
<path class="st2" d="M170.923,10.089c-0.164-0.01-0.29-0.022-0.346,0.105c-0.029,0.066-0.011,0.156-0.004,0.234
	c0.001,0.008,0.07,0.01,0.119,0.017c-0.02-0.142,0.002-0.231,0.152-0.231C170.865,10.215,170.887,10.15,170.923,10.089z"/>
<g class="st2">
	<g class="st3">
		<path class="st1" d="M121.125,39.684c0-0.308-0.108-0.551-0.324-0.73c-0.217-0.179-0.612-0.349-1.186-0.511
			c-0.574-0.161-0.994-0.337-1.258-0.528c-0.376-0.269-0.564-0.623-0.564-1.06c0-0.424,0.174-0.769,0.524-1.035
			c0.349-0.265,0.796-0.398,1.34-0.398c0.368,0,0.698,0.071,0.989,0.213c0.291,0.142,0.517,0.341,0.677,0.595
			s0.241,0.537,0.241,0.851h-0.473c0-0.38-0.13-0.685-0.39-0.916c-0.259-0.231-0.607-0.346-1.044-0.346
			c-0.425,0-0.762,0.095-1.015,0.285c-0.251,0.19-0.377,0.437-0.377,0.742c0,0.283,0.113,0.513,0.34,0.691
			c0.225,0.179,0.588,0.335,1.086,0.472c0.498,0.136,0.876,0.277,1.132,0.424c0.258,0.146,0.451,0.321,0.579,0.524
			c0.13,0.203,0.195,0.443,0.195,0.72c0,0.437-0.175,0.788-0.524,1.052c-0.35,0.264-0.81,0.396-1.382,0.396
			c-0.391,0-0.751-0.07-1.077-0.21c-0.327-0.139-0.575-0.335-0.744-0.586c-0.169-0.252-0.253-0.54-0.253-0.866h0.469
			c0,0.391,0.146,0.701,0.438,0.927c0.292,0.226,0.681,0.339,1.166,0.339c0.432,0,0.779-0.095,1.04-0.286
			C120.995,40.252,121.125,39.999,121.125,39.684z"/>
		<path class="st1" d="M123.831,40.74c0.318,0,0.584-0.09,0.799-0.269c0.214-0.179,0.331-0.411,0.348-0.695h0.439
			c-0.013,0.252-0.091,0.481-0.236,0.688c-0.145,0.208-0.337,0.369-0.578,0.486c-0.24,0.117-0.497,0.175-0.772,0.175
			c-0.541,0-0.97-0.188-1.287-0.564c-0.316-0.376-0.474-0.882-0.474-1.517v-0.137c0-0.407,0.071-0.767,0.213-1.078
			c0.142-0.313,0.346-0.554,0.612-0.725c0.265-0.169,0.577-0.255,0.933-0.255c0.452,0,0.825,0.135,1.118,0.404
			c0.294,0.269,0.451,0.624,0.471,1.064h-0.439c-0.02-0.323-0.136-0.584-0.348-0.782c-0.213-0.198-0.48-0.297-0.802-0.297
			c-0.412,0-0.732,0.149-0.959,0.446c-0.228,0.298-0.341,0.715-0.341,1.25v0.134c0,0.526,0.114,0.937,0.341,1.232
			C123.095,40.593,123.417,40.74,123.831,40.74z"/>
		<path class="st1" d="M126.586,37.621c0.151-0.246,0.342-0.436,0.576-0.571c0.234-0.135,0.49-0.202,0.766-0.202
			c0.442,0,0.772,0.125,0.988,0.374s0.325,0.623,0.328,1.121v2.707h-0.453v-2.711c-0.003-0.368-0.081-0.642-0.235-0.823
			c-0.154-0.18-0.4-0.27-0.738-0.27c-0.282,0-0.532,0.088-0.749,0.265c-0.218,0.176-0.378,0.415-0.483,0.715v2.824h-0.453v-5.855
			h0.453V37.621L126.586,37.621z"/>
		<path class="st1" d="M131.819,41.125c-0.351,0-0.668-0.086-0.95-0.259c-0.284-0.173-0.504-0.413-0.662-0.723
			c-0.158-0.308-0.236-0.655-0.236-1.039v-0.163c0-0.396,0.076-0.754,0.23-1.072s0.368-0.568,0.642-0.749
			c0.274-0.182,0.573-0.273,0.893-0.273c0.5,0,0.897,0.171,1.191,0.513c0.293,0.342,0.441,0.809,0.441,1.401v0.256h-2.943v0.087
			c0,0.468,0.134,0.857,0.402,1.168c0.268,0.312,0.606,0.468,1.012,0.468c0.244,0,0.459-0.045,0.646-0.134
			c0.186-0.089,0.356-0.231,0.508-0.427l0.286,0.217C132.944,40.883,132.458,41.125,131.819,41.125z M131.736,37.237
			c-0.344,0-0.633,0.125-0.867,0.378c-0.236,0.251-0.378,0.59-0.429,1.013h2.474v-0.049c-0.013-0.396-0.125-0.719-0.339-0.968
			C132.361,37.361,132.082,37.237,131.736,37.237z"/>
		<path class="st1" d="M133.878,38.948c0-0.64,0.142-1.15,0.429-1.53c0.286-0.38,0.674-0.57,1.164-0.57
			c0.557,0,0.981,0.22,1.274,0.66v-2.314h0.453v5.855h-0.427l-0.02-0.549c-0.291,0.417-0.722,0.625-1.288,0.625
			c-0.476,0-0.859-0.191-1.15-0.573c-0.291-0.383-0.435-0.899-0.435-1.549L133.878,38.948L133.878,38.948z M134.338,39.028
			c0,0.526,0.105,0.941,0.317,1.244c0.21,0.304,0.508,0.456,0.891,0.456c0.562,0,0.961-0.247,1.198-0.744v-1.937
			c-0.237-0.535-0.634-0.804-1.189-0.804c-0.385,0-0.683,0.151-0.896,0.452C134.445,37.997,134.338,38.441,134.338,39.028z"/>
		<path class="st1" d="M140.856,40.527c-0.274,0.399-0.713,0.598-1.315,0.598c-0.441,0-0.774-0.128-1.003-0.383
			c-0.229-0.256-0.346-0.634-0.351-1.134v-2.684h0.454v2.627c0,0.784,0.317,1.177,0.952,1.177c0.661,0,1.079-0.273,1.255-0.82
			v-2.984h0.457v4.125h-0.442L140.856,40.527z"/>
		<path class="st1" d="M142.807,41.049h-0.457v-5.855h0.457V41.049z"/>
		<path class="st1" d="M145.448,41.125c-0.351,0-0.668-0.086-0.951-0.259c-0.284-0.173-0.504-0.413-0.662-0.723
			c-0.158-0.308-0.236-0.655-0.236-1.039v-0.163c0-0.396,0.077-0.754,0.23-1.072c0.154-0.318,0.368-0.568,0.643-0.749
			c0.274-0.182,0.571-0.273,0.891-0.273c0.501,0,0.898,0.171,1.192,0.513c0.293,0.342,0.44,0.809,0.44,1.401v0.256h-2.943v0.087
			c0,0.468,0.135,0.857,0.402,1.168c0.269,0.312,0.606,0.468,1.012,0.468c0.244,0,0.459-0.045,0.646-0.134
			c0.186-0.089,0.357-0.231,0.509-0.427l0.285,0.217C146.572,40.883,146.085,41.125,145.448,41.125z M145.364,37.237
			c-0.342,0-0.632,0.125-0.867,0.378c-0.236,0.251-0.379,0.59-0.429,1.013h2.474v-0.049c-0.013-0.396-0.126-0.719-0.34-0.968
			C145.989,37.361,145.709,37.237,145.364,37.237z"/>
		<path class="st1" d="M153.429,39.318c-0.064,0.585-0.273,1.032-0.628,1.342c-0.354,0.31-0.827,0.465-1.416,0.465
			c-0.412,0-0.776-0.103-1.093-0.308c-0.316-0.207-0.561-0.498-0.734-0.875c-0.173-0.378-0.261-0.809-0.263-1.294v-0.721
			c0-0.492,0.086-0.93,0.259-1.311c0.172-0.381,0.421-0.675,0.745-0.882c0.324-0.208,0.697-0.311,1.119-0.311
			c0.595,0,1.064,0.16,1.409,0.48c0.344,0.32,0.544,0.764,0.601,1.331h-0.473c-0.118-0.943-0.629-1.415-1.537-1.415
			c-0.503,0-0.904,0.188-1.203,0.565c-0.298,0.376-0.447,0.896-0.447,1.56v0.679c0,0.641,0.145,1.152,0.436,1.534
			c0.291,0.381,0.684,0.572,1.18,0.572c0.49,0,0.86-0.118,1.109-0.352c0.249-0.236,0.402-0.588,0.462-1.058L153.429,39.318
			L153.429,39.318z"/>
		<path class="st1" d="M156.871,41.049c-0.046-0.13-0.075-0.321-0.088-0.576c-0.16,0.209-0.364,0.369-0.612,0.483
			c-0.248,0.113-0.511,0.169-0.788,0.169c-0.396,0-0.717-0.11-0.962-0.332c-0.245-0.22-0.368-0.5-0.368-0.839
			c0-0.401,0.167-0.718,0.501-0.952s0.8-0.351,1.397-0.351h0.828v-0.469c0-0.295-0.091-0.527-0.273-0.695
			c-0.182-0.169-0.447-0.253-0.795-0.253c-0.319,0-0.581,0.081-0.79,0.244c-0.208,0.163-0.313,0.357-0.313,0.586l-0.457-0.003
			c0-0.328,0.152-0.612,0.457-0.852c0.305-0.24,0.679-0.36,1.124-0.36c0.46,0,0.823,0.115,1.089,0.345s0.402,0.551,0.41,0.962v1.952
			c0,0.4,0.042,0.698,0.126,0.896v0.046L156.871,41.049L156.871,41.049z M155.437,40.721c0.305,0,0.577-0.074,0.817-0.221
			s0.414-0.344,0.524-0.591v-0.906h-0.817c-0.455,0.005-0.811,0.088-1.067,0.249c-0.257,0.162-0.385,0.383-0.385,0.666
			c0,0.231,0.086,0.423,0.258,0.575C154.939,40.645,155.163,40.721,155.437,40.721z"/>
		<path class="st1" d="M158.764,41.049h-0.457v-5.855h0.457V41.049z"/>
		<path class="st1" d="M160.318,41.049h-0.457v-5.855h0.457V41.049z"/>
	</g>
	<path class="st4" d="M149.515,13.127c-0.197-0.589-0.48-1.128-0.867-1.613c-0.245-0.307-0.525-0.575-0.847-0.8
		c-0.047-0.033-0.099-0.093-0.105-0.146c-0.034-0.28-0.045-0.564-0.082-0.843c-0.075-0.563-0.159-1.126-0.247-1.687
		c-0.026-0.165-0.086-0.325-0.123-0.489c-0.045-0.202-0.071-0.408-0.125-0.608c-0.093-0.345-0.197-0.688-0.303-1.029
		c-0.196-0.626-0.454-1.226-0.762-1.804c-0.035-0.066-0.04-0.118-0.011-0.191c0.118-0.298,0.117-0.608-0.058-0.872
		c-0.271-0.41-0.561-0.811-0.878-1.186c-0.7-0.826-1.542-1.481-2.498-1.991c-0.659-0.351-1.348-0.623-2.07-0.81
		c-0.213-0.055-0.433-0.083-0.648-0.129c-0.184-0.04-0.364-0.104-0.549-0.13c-0.479-0.067-0.959-0.133-1.441-0.173
		c-0.998-0.083-1.996-0.061-2.987,0.075c-0.606,0.083-1.209,0.199-1.804,0.339c-0.539,0.127-1.059,0.325-1.566,0.554
		c-0.712,0.321-1.371,0.725-1.978,1.215c-0.733,0.591-1.34,1.295-1.866,2.072c-0.221,0.327-0.296,0.673-0.153,1.053
		c0.017,0.045,0.015,0.109-0.005,0.153c-0.165,0.366-0.353,0.723-0.502,1.095c-0.331,0.822-0.585,1.669-0.747,2.542
		c-0.089,0.479-0.177,0.959-0.248,1.441c-0.057,0.387-0.104,0.777-0.124,1.167c-0.011,0.217-0.103,0.34-0.272,0.46
		c-0.669,0.478-1.117,1.136-1.446,1.876c-0.309,0.696-0.454,1.434-0.483,2.194c-0.032,0.847,0.086,1.671,0.387,2.468
		c0.3,0.795,0.744,1.491,1.405,2.032c0.571,0.468,1.222,0.741,1.973,0.766c0.318,0.011,0.551-0.114,0.746-0.345
		c0.216-0.256,0.352-0.557,0.461-0.867c0.243-0.688,0.364-1.404,0.435-2.126c0.092-0.934,0.121-1.871,0.04-2.808
		c-0.036-0.414-0.08-0.828-0.14-1.238c-0.043-0.294-0.112-0.585-0.18-0.875c-0.105-0.448-0.254-0.881-0.515-1.265
		c-0.192-0.283-0.434-0.496-0.809-0.482c-0.221,0.008-0.232,0.002-0.206-0.218c0.052-0.436,0.109-0.872,0.178-1.306
		c0.049-0.306,0.107-0.612,0.186-0.911c0.143-0.54,0.279-1.084,0.468-1.608c0.176-0.488,0.412-0.955,0.632-1.426
		c0.033-0.071,0.119-0.119,0.183-0.173c0.129-0.11,0.281-0.201,0.387-0.33c0.208-0.253,0.381-0.535,0.586-0.791
		c0.516-0.643,1.143-1.159,1.858-1.566c0.531-0.302,1.093-0.537,1.683-0.697c0.349-0.095,0.701-0.194,1.058-0.245
		c0.547-0.077,1.098-0.127,1.649-0.164c0.8-0.054,1.599-0.021,2.393,0.088c0.399,0.055,0.797,0.127,1.187,0.223
		c0.645,0.159,1.266,0.387,1.856,0.7c1.035,0.549,1.865,1.317,2.505,2.293c0.146,0.223,0.31,0.419,0.568,0.518
		c0.031,0.012,0.065,0.04,0.078,0.07c0.22,0.472,0.465,0.935,0.645,1.422c0.193,0.522,0.331,1.066,0.48,1.604
		c0.075,0.273,0.132,0.552,0.179,0.832c0.069,0.418,0.123,0.838,0.182,1.257c0.02,0.146,0.034,0.293,0.052,0.451
		c-0.06-0.006-0.099-0.011-0.139-0.014c-0.182-0.013-0.362-0.017-0.53,0.075c-0.325,0.178-0.498,0.48-0.644,0.8
		c-0.23,0.505-0.351,1.041-0.45,1.586c-0.117,0.65-0.172,1.305-0.197,1.962c-0.025,0.662-0.004,1.324,0.056,1.985
		c0.052,0.58,0.128,1.154,0.262,1.719c0.115,0.486,0.262,0.962,0.545,1.383c0.212,0.315,0.478,0.534,0.89,0.484
		c0.054-0.006,0.109-0.001,0.183-0.001c-0.487,1.398-1.243,2.588-2.375,3.544c-0.029-0.033-0.048-0.05-0.059-0.07
		c-0.261-0.44-0.787-0.635-1.29-0.486c-0.578,0.172-1.15,0.363-1.724,0.544c-0.345,0.109-0.687,0.226-1.036,0.32
		c-0.586,0.158-0.992,0.62-0.909,1.226c0.047,0.342,0.162,0.682,0.297,1.002c0.196,0.462,0.785,0.715,1.268,0.572
		c0.559-0.165,1.113-0.346,1.669-0.52c0.341-0.107,0.683-0.21,1.024-0.319c0.24-0.077,0.489-0.138,0.681-0.319
		c0.268-0.252,0.399-0.56,0.365-0.929c-0.007-0.081,0.019-0.131,0.082-0.18c0.145-0.114,0.284-0.234,0.423-0.354
		c0.412-0.353,0.771-0.755,1.095-1.19c0.47-0.63,0.853-1.309,1.142-2.039c0.12-0.302,0.215-0.614,0.308-0.925
		c0.031-0.102,0.065-0.179,0.165-0.229c0.593-0.293,1.056-0.739,1.427-1.275c0.633-0.914,0.937-1.942,0.99-3.046
		C149.865,14.659,149.768,13.884,149.515,13.127z"/>
</g>
<path class="st5" d="M-185.276,3.374h-25.612c-2.681,0-4.874,2.193-4.874,4.874v11.577c0,2.681,2.193,4.874,4.874,4.874l0,0
	c1.451,0,2.745,0.912,3.234,2.278l0.792,2.216c0.039,0.21,0.106,0.408,0.208,0.584l0.008,0.022c0,0,0.007,0.002,0.008,0.002
	c0.359,0.596,1.046,0.96,1.781,0.87c0.376-0.047,0.71-0.205,0.975-0.435c0.005,0,0.013,0,0.017,0
	c0.124-0.02,2.165-2.154,4.339-4.456c0.649-0.687,1.553-1.077,2.497-1.077h11.75c2.681,0,4.874-2.193,4.874-4.874V8.247
	C-180.403,5.567-182.596,3.374-185.276,3.374z"/>
<g class="st2">
	<path class="st6" d="M-166.274,9.432c-0.061,0.841-0.372,1.504-0.932,1.987c-0.56,0.483-1.299,0.725-2.215,0.725
		c-1.002,0-1.792-0.337-2.366-1.013c-0.575-0.675-0.862-1.601-0.862-2.779V7.874c0-0.752,0.132-1.415,0.397-1.987
		s0.644-1.012,1.136-1.319c0.493-0.306,1.064-0.459,1.716-0.459c0.902,0,1.629,0.242,2.181,0.725s0.87,1.162,0.956,2.036h-1.611
		c-0.04-0.505-0.18-0.871-0.421-1.099c-0.242-0.227-0.61-0.341-1.104-0.341c-0.537,0-0.939,0.192-1.206,0.577
		c-0.267,0.385-0.404,0.982-0.411,1.792V8.39c0,0.845,0.128,1.463,0.384,1.853c0.256,0.39,0.66,0.585,1.211,0.585
		c0.498,0,0.869-0.114,1.115-0.341c0.245-0.227,0.386-0.579,0.421-1.055H-166.274z"/>
	<path class="st6" d="M-164.078,6.859c0.412-0.494,0.929-0.741,1.552-0.741c1.26,0,1.899,0.732,1.917,2.197v3.722h-1.552V8.35
		c0-0.334-0.072-0.581-0.215-0.74s-0.381-0.24-0.714-0.24c-0.455,0-0.784,0.176-0.988,0.527v4.14h-1.552v-8.25h1.552V6.859z"/>
	<path class="st6" d="M-156.345,12.037c-0.072-0.14-0.124-0.313-0.156-0.521c-0.376,0.419-0.865,0.628-1.466,0.628
		c-0.569,0-1.041-0.165-1.415-0.494c-0.375-0.33-0.562-0.745-0.562-1.246c0-0.616,0.229-1.088,0.685-1.418
		c0.457-0.33,1.117-0.496,1.979-0.5h0.714V8.153c0-0.269-0.069-0.483-0.207-0.645c-0.138-0.161-0.355-0.242-0.653-0.242
		c-0.261,0-0.466,0.062-0.615,0.188c-0.149,0.125-0.223,0.297-0.223,0.516h-1.552c0-0.336,0.104-0.648,0.312-0.935
		s0.501-0.511,0.881-0.674c0.379-0.163,0.806-0.244,1.278-0.244c0.716,0,1.285,0.18,1.705,0.54c0.421,0.359,0.631,0.865,0.631,1.517
		v2.519c0.003,0.551,0.081,0.969,0.231,1.251v0.091h-1.567L-156.345,12.037L-156.345,12.037z M-157.628,10.957
		c0.229,0,0.44-0.051,0.634-0.153c0.193-0.103,0.336-0.239,0.43-0.411V9.394h-0.58c-0.777,0-1.19,0.269-1.241,0.806l-0.005,0.091
		c0,0.193,0.068,0.353,0.204,0.478S-157.865,10.957-157.628,10.957z"/>
	<path class="st6" d="M-152.232,4.797v1.429h0.994v1.139h-0.994v2.9c0,0.215,0.041,0.369,0.124,0.462s0.24,0.14,0.473,0.14
		c0.172,0,0.324-0.013,0.457-0.038v1.176c-0.304,0.093-0.618,0.14-0.94,0.14c-1.088,0-1.644-0.55-1.665-1.649V7.365h-0.849V6.226
		h0.849V4.797C-153.783,4.797-152.232,4.797-152.232,4.797z"/>
	<path class="st6" d="M-146.755,6.225l0.048,0.671c0.416-0.519,0.972-0.779,1.67-0.779c0.616,0,1.074,0.181,1.375,0.542
		s0.455,0.902,0.462,1.622v3.754h-1.552V8.309c0-0.33-0.072-0.569-0.215-0.718s-0.381-0.224-0.714-0.224
		c-0.437,0-0.765,0.187-0.983,0.56v4.107h-1.552V6.222h1.461V6.225z"/>
	<path class="st6" d="M-135.772,8.304c0,0.77-0.136,1.445-0.408,2.025s-0.662,1.028-1.168,1.343
		c-0.507,0.315-1.088,0.473-1.743,0.473c-0.648,0-1.227-0.156-1.735-0.467s-0.902-0.756-1.182-1.334
		c-0.279-0.579-0.421-1.244-0.424-1.996V7.96c0-0.77,0.139-1.448,0.416-2.033c0.278-0.586,0.67-1.035,1.177-1.349
		c0.506-0.313,1.085-0.47,1.737-0.47s1.231,0.157,1.737,0.47c0.507,0.313,0.899,0.763,1.177,1.349
		c0.277,0.585,0.416,1.261,0.416,2.027V8.304z M-137.405,7.95c0-0.82-0.147-1.443-0.44-1.869s-0.712-0.639-1.257-0.639
		c-0.541,0-0.958,0.21-1.251,0.631c-0.293,0.421-0.442,1.038-0.446,1.851v0.381c0,0.798,0.147,1.418,0.44,1.858
		s0.716,0.661,1.268,0.661c0.541,0,0.956-0.212,1.246-0.637c0.29-0.424,0.437-1.042,0.44-1.855V7.95z"/>
	<path class="st6" d="M-129.924,9.926l0.763-3.701h1.499l-1.482,5.812h-1.3l-1.101-3.658l-1.101,3.658h-1.294l-1.482-5.812h1.499
		l0.757,3.695l1.063-3.695h1.123L-129.924,9.926z"/>
	<path class="st6" d="M-124.883,9.045c0-0.559,0.108-1.062,0.325-1.509c0.216-0.448,0.522-0.796,0.918-1.045
		c0.396-0.249,0.844-0.373,1.346-0.373c0.773,0,1.4,0.271,1.88,0.813c0.48,0.543,0.72,1.262,0.72,2.157v0.134
		c0,0.562-0.108,1.068-0.325,1.518c-0.216,0.449-0.521,0.795-0.916,1.039s-0.843,0.365-1.348,0.365c-0.77,0-1.396-0.271-1.877-0.813
		c-0.482-0.543-0.723-1.262-0.723-2.157V9.045z M-124.239,9.223c0,0.695,0.18,1.265,0.54,1.711c0.359,0.445,0.832,0.668,1.415,0.668
		c0.58,0,1.05-0.223,1.41-0.668c0.359-0.446,0.54-1.034,0.54-1.765V9.045c0-0.444-0.083-0.851-0.247-1.219s-0.396-0.654-0.693-0.856
		c-0.297-0.203-0.637-0.304-1.021-0.304c-0.573,0-1.04,0.225-1.402,0.674c-0.362,0.45-0.542,1.038-0.542,1.765V9.223z"/>
	<path class="st6" d="M-115.958,6.773c-0.136-0.025-0.281-0.038-0.435-0.038c-0.401,0-0.74,0.112-1.018,0.335
		c-0.277,0.224-0.475,0.549-0.593,0.975v3.991h-0.639V6.224h0.628l0.011,0.924c0.34-0.688,0.886-1.031,1.638-1.031
		c0.179,0,0.32,0.023,0.424,0.07L-115.958,6.773z"/>
	<path class="st6" d="M-110.669,11.602c0.448,0,0.823-0.126,1.125-0.378c0.303-0.253,0.467-0.58,0.492-0.98h0.618
		c-0.018,0.354-0.129,0.678-0.333,0.97s-0.476,0.52-0.813,0.685c-0.339,0.165-0.701,0.247-1.088,0.247
		c-0.763,0-1.367-0.265-1.812-0.795c-0.446-0.53-0.669-1.243-0.669-2.138V9.02c0-0.573,0.1-1.08,0.301-1.52s0.488-0.781,0.862-1.021
		s0.812-0.36,1.313-0.36c0.637,0,1.163,0.19,1.577,0.569c0.413,0.379,0.634,0.879,0.663,1.499h-0.618
		c-0.029-0.455-0.192-0.822-0.492-1.101c-0.299-0.279-0.676-0.419-1.13-0.419c-0.58,0-1.03,0.209-1.351,0.628
		c-0.32,0.419-0.48,1.006-0.48,1.762v0.188c0,0.741,0.16,1.319,0.48,1.735C-111.705,11.394-111.252,11.602-110.669,11.602z"/>
	<path class="st6" d="M-107.781,9.045c0-0.559,0.108-1.062,0.325-1.509c0.216-0.448,0.522-0.796,0.918-1.045
		c0.396-0.249,0.844-0.373,1.346-0.373c0.773,0,1.4,0.271,1.88,0.813c0.48,0.543,0.72,1.262,0.72,2.157v0.134
		c0,0.562-0.108,1.068-0.325,1.518c-0.216,0.449-0.521,0.795-0.916,1.039s-0.843,0.365-1.348,0.365c-0.77,0-1.396-0.271-1.877-0.813
		c-0.482-0.543-0.723-1.262-0.723-2.157V9.045z M-107.136,9.223c0,0.695,0.18,1.265,0.54,1.711c0.359,0.445,0.832,0.668,1.415,0.668
		c0.58,0,1.05-0.223,1.41-0.668c0.359-0.446,0.54-1.034,0.54-1.765V9.045c0-0.444-0.083-0.851-0.247-1.219s-0.396-0.654-0.693-0.856
		c-0.297-0.203-0.637-0.304-1.021-0.304c-0.573,0-1.04,0.225-1.402,0.674c-0.362,0.45-0.542,1.038-0.542,1.765V9.223z"/>
	<path class="st6" d="M-100.928,6.225l0.021,0.994c0.218-0.358,0.491-0.631,0.816-0.819c0.326-0.188,0.686-0.282,1.08-0.282
		c0.623,0,1.087,0.175,1.391,0.526s0.458,0.877,0.462,1.579v3.813h-0.639V8.217c-0.003-0.519-0.114-0.906-0.331-1.16
		c-0.216-0.254-0.563-0.381-1.039-0.381c-0.397,0-0.749,0.125-1.056,0.373c-0.306,0.249-0.532,0.585-0.679,1.007v3.98h-0.639V6.224
		L-100.928,6.225L-100.928,6.225z"/>
	<path class="st6" d="M-95.161,6.225l0.021,0.994c0.218-0.358,0.491-0.631,0.816-0.819c0.326-0.188,0.686-0.282,1.08-0.282
		c0.623,0,1.087,0.175,1.391,0.526s0.458,0.877,0.462,1.579v3.813h-0.639V8.217c-0.003-0.519-0.114-0.906-0.331-1.16
		c-0.216-0.254-0.563-0.381-1.039-0.381c-0.397,0-0.749,0.125-1.056,0.373c-0.306,0.249-0.532,0.585-0.679,1.007v3.98h-0.639V6.224
		L-95.161,6.225L-95.161,6.225z"/>
	<path class="st6" d="M-87.755,12.144c-0.494,0-0.941-0.122-1.34-0.365c-0.399-0.244-0.709-0.583-0.932-1.018
		c-0.222-0.436-0.333-0.923-0.333-1.464V9.066c0-0.559,0.108-1.062,0.325-1.509c0.216-0.448,0.518-0.799,0.905-1.056
		c0.387-0.256,0.806-0.384,1.257-0.384c0.706,0,1.265,0.241,1.678,0.723c0.414,0.481,0.621,1.139,0.621,1.974v0.36h-4.146v0.124
		c0,0.659,0.189,1.208,0.567,1.646c0.377,0.438,0.853,0.658,1.426,0.658c0.344,0,0.647-0.062,0.91-0.188
		c0.264-0.125,0.502-0.326,0.717-0.602l0.403,0.306C-86.17,11.803-86.856,12.144-87.755,12.144z M-87.873,6.666
		c-0.483,0-0.891,0.177-1.222,0.532c-0.331,0.354-0.532,0.831-0.604,1.429h3.486v-0.07c-0.018-0.559-0.177-1.013-0.478-1.364
		S-87.386,6.666-87.873,6.666z"/>
	<path class="st6" d="M-82.449,11.602c0.448,0,0.823-0.126,1.125-0.378c0.303-0.253,0.467-0.58,0.492-0.98h0.618
		c-0.018,0.354-0.129,0.678-0.333,0.97s-0.476,0.52-0.813,0.685c-0.339,0.165-0.701,0.247-1.088,0.247
		c-0.763,0-1.367-0.265-1.812-0.795c-0.446-0.53-0.669-1.243-0.669-2.138V9.02c0-0.573,0.1-1.08,0.301-1.52s0.488-0.781,0.862-1.021
		s0.812-0.36,1.313-0.36c0.637,0,1.163,0.19,1.577,0.569c0.413,0.379,0.634,0.879,0.663,1.499h-0.618
		c-0.029-0.455-0.192-0.822-0.492-1.101c-0.299-0.279-0.676-0.419-1.13-0.419c-0.58,0-1.03,0.209-1.351,0.628
		c-0.32,0.419-0.48,1.006-0.48,1.762v0.188c0,0.741,0.16,1.319,0.48,1.735C-83.485,11.394-83.033,11.602-82.449,11.602z"/>
	<path class="st6" d="M-78.208,4.738v1.488h1.203v0.526h-1.203v3.877c0,0.323,0.058,0.563,0.175,0.72
		c0.116,0.158,0.311,0.237,0.583,0.237c0.107,0,0.281-0.018,0.521-0.054l0.027,0.522c-0.168,0.06-0.397,0.09-0.688,0.09
		c-0.44,0-0.761-0.128-0.961-0.384c-0.201-0.256-0.301-0.633-0.301-1.131V6.751h-1.069V6.225h1.069V4.737h0.644V4.738z"/>
	<path class="st6" d="M-71.737,11.151l1.767-4.925h0.661l-2.17,5.812H-72l-2.181-5.812h0.661L-71.737,11.151z"/>
	<path class="st6" d="M-68.569,4.547c0-0.121,0.04-0.223,0.118-0.307c0.078-0.084,0.186-0.125,0.322-0.125s0.245,0.042,0.325,0.125
		c0.081,0.083,0.121,0.186,0.121,0.307s-0.04,0.223-0.121,0.305c-0.08,0.082-0.188,0.123-0.325,0.123
		c-0.137,0-0.244-0.041-0.322-0.123C-68.53,4.769-68.569,4.668-68.569,4.547z M-67.812,12.037h-0.645V6.225h0.645V12.037z"/>
	<path class="st6" d="M-62.673,12.037c-0.064-0.183-0.105-0.453-0.124-0.811c-0.226,0.293-0.513,0.52-0.862,0.679
		c-0.349,0.16-0.719,0.239-1.109,0.239c-0.559,0-1.011-0.156-1.356-0.467c-0.346-0.312-0.519-0.706-0.519-1.182
		c0-0.566,0.235-1.013,0.706-1.343s1.127-0.494,1.969-0.494h1.166V7.997c0-0.416-0.128-0.742-0.384-0.98
		c-0.256-0.238-0.629-0.357-1.12-0.357c-0.448,0-0.818,0.115-1.112,0.344s-0.44,0.505-0.44,0.827l-0.645-0.005
		c0-0.462,0.215-0.862,0.645-1.2c0.43-0.339,0.958-0.508,1.584-0.508c0.648,0,1.159,0.162,1.534,0.486
		c0.374,0.324,0.566,0.776,0.577,1.356v2.75c0,0.562,0.059,0.983,0.177,1.262v0.064h-0.687
		C-62.673,12.036-62.673,12.037-62.673,12.037z M-64.692,11.575c0.43,0,0.814-0.104,1.152-0.312
		c0.339-0.208,0.585-0.485,0.739-0.833V9.152h-1.149c-0.641,0.007-1.142,0.125-1.504,0.352s-0.542,0.54-0.542,0.937
		c0,0.326,0.121,0.596,0.362,0.811C-65.393,11.468-65.079,11.575-64.692,11.575z"/>
	<path class="st6" d="M-172.628,20.045c0-0.559,0.108-1.062,0.325-1.51c0.216-0.447,0.522-0.796,0.918-1.045
		c0.396-0.248,0.844-0.373,1.346-0.373c0.773,0,1.4,0.271,1.88,0.813c0.48,0.543,0.72,1.262,0.72,2.157v0.134
		c0,0.562-0.108,1.068-0.325,1.518c-0.216,0.449-0.521,0.796-0.916,1.039c-0.394,0.244-0.843,0.365-1.348,0.365
		c-0.77,0-1.396-0.271-1.877-0.813c-0.482-0.543-0.723-1.262-0.723-2.156L-172.628,20.045L-172.628,20.045z M-171.983,20.222
		c0,0.695,0.18,1.265,0.54,1.711c0.359,0.445,0.832,0.669,1.415,0.669c0.58,0,1.05-0.224,1.41-0.669
		c0.359-0.446,0.54-1.034,0.54-1.765v-0.123c0-0.444-0.083-0.851-0.247-1.22c-0.165-0.368-0.396-0.654-0.693-0.856
		s-0.637-0.304-1.021-0.304c-0.573,0-1.04,0.225-1.402,0.674c-0.362,0.45-0.542,1.038-0.542,1.765V20.222z"/>
	<path class="st6" d="M-165.775,17.225l0.021,0.994c0.218-0.358,0.491-0.632,0.816-0.819c0.326-0.188,0.686-0.282,1.08-0.282
		c0.623,0,1.087,0.175,1.391,0.526c0.304,0.352,0.458,0.878,0.462,1.579v3.813h-0.639v-3.818c-0.003-0.52-0.114-0.906-0.331-1.16
		c-0.216-0.255-0.563-0.382-1.039-0.382c-0.397,0-0.749,0.125-1.056,0.373c-0.306,0.249-0.532,0.585-0.679,1.008v3.979h-0.639
		v-5.811C-166.388,17.225-165.775,17.225-165.775,17.225z"/>
	<path class="st6" d="M-158.37,23.144c-0.494,0-0.941-0.121-1.34-0.365c-0.399-0.243-0.709-0.583-0.932-1.018
		c-0.222-0.436-0.333-0.923-0.333-1.464v-0.23c0-0.559,0.108-1.062,0.325-1.51c0.216-0.447,0.518-0.799,0.905-1.056
		c0.387-0.256,0.806-0.383,1.257-0.383c0.706,0,1.265,0.241,1.678,0.722c0.414,0.481,0.621,1.14,0.621,1.974v0.36h-4.146v0.123
		c0,0.659,0.189,1.208,0.567,1.646c0.377,0.438,0.853,0.658,1.426,0.658c0.344,0,0.647-0.062,0.91-0.188
		c0.264-0.125,0.502-0.325,0.717-0.602l0.403,0.307C-156.785,22.802-157.471,23.144-158.37,23.144z M-158.488,17.665
		c-0.483,0-0.891,0.178-1.222,0.532s-0.532,0.83-0.604,1.429h3.486v-0.07c-0.018-0.559-0.177-1.013-0.478-1.364
		C-157.607,17.841-158.001,17.665-158.488,17.665z"/>
	<path class="st6" d="M-153.167,20.045c0-0.559,0.108-1.062,0.325-1.51c0.216-0.447,0.522-0.796,0.918-1.045
		c0.396-0.248,0.844-0.373,1.346-0.373c0.773,0,1.4,0.271,1.88,0.813c0.48,0.543,0.72,1.262,0.72,2.157v0.134
		c0,0.562-0.108,1.068-0.325,1.518c-0.216,0.449-0.521,0.796-0.916,1.039c-0.394,0.244-0.843,0.365-1.348,0.365
		c-0.77,0-1.396-0.271-1.877-0.813c-0.482-0.543-0.723-1.262-0.723-2.156L-153.167,20.045L-153.167,20.045z M-152.523,20.222
		c0,0.695,0.18,1.265,0.54,1.711c0.359,0.445,0.832,0.669,1.415,0.669c0.58,0,1.05-0.224,1.41-0.669
		c0.359-0.446,0.54-1.034,0.54-1.765v-0.123c0-0.444-0.083-0.851-0.247-1.22c-0.165-0.368-0.396-0.654-0.693-0.856
		s-0.637-0.304-1.021-0.304c-0.573,0-1.04,0.225-1.402,0.674c-0.362,0.45-0.542,1.038-0.542,1.765V20.222z"/>
	<path class="st6" d="M-146.465,23.037v-5.285h-0.961v-0.526h0.961v-0.704c0-0.594,0.151-1.051,0.454-1.37
		c0.302-0.319,0.724-0.478,1.265-0.478c0.244,0,0.471,0.03,0.682,0.09l-0.048,0.533c-0.179-0.043-0.374-0.064-0.585-0.064
		c-0.354,0-0.63,0.11-0.827,0.331c-0.197,0.221-0.295,0.534-0.295,0.94v0.722h1.386v0.526h-1.386v5.285
		C-145.819,23.037-146.465,23.037-146.465,23.037z"/>
	<path class="st6" d="M-141.515,20.045c0-0.559,0.108-1.062,0.325-1.51c0.216-0.447,0.522-0.796,0.918-1.045
		c0.396-0.248,0.844-0.373,1.346-0.373c0.773,0,1.4,0.271,1.88,0.813c0.48,0.543,0.72,1.262,0.72,2.157v0.134
		c0,0.562-0.108,1.068-0.325,1.518c-0.216,0.449-0.521,0.796-0.916,1.039c-0.394,0.244-0.843,0.365-1.348,0.365
		c-0.77,0-1.396-0.271-1.877-0.813c-0.482-0.543-0.723-1.262-0.723-2.156L-141.515,20.045L-141.515,20.045z M-140.871,20.222
		c0,0.695,0.18,1.265,0.54,1.711c0.359,0.445,0.832,0.669,1.415,0.669c0.58,0,1.05-0.224,1.41-0.669
		c0.359-0.446,0.54-1.034,0.54-1.765v-0.123c0-0.444-0.083-0.851-0.247-1.22c-0.165-0.368-0.396-0.654-0.693-0.856
		s-0.637-0.304-1.021-0.304c-0.573,0-1.04,0.225-1.402,0.674c-0.362,0.45-0.542,1.038-0.542,1.765V20.222z"/>
	<path class="st6" d="M-131.537,22.301c-0.387,0.562-1.004,0.843-1.853,0.843c-0.62,0-1.09-0.18-1.413-0.54
		c-0.322-0.359-0.487-0.892-0.494-1.598v-3.781h0.639v3.701c0,1.106,0.448,1.659,1.343,1.659c0.931,0,1.52-0.385,1.767-1.154v-4.206
		h0.645v5.811h-0.623L-131.537,22.301z"/>
	<path class="st6" d="M-126.822,17.773c-0.136-0.024-0.281-0.037-0.435-0.037c-0.401,0-0.74,0.111-1.018,0.335
		c-0.277,0.225-0.475,0.549-0.593,0.976v3.99h-0.639v-5.811h0.628l0.011,0.923c0.34-0.688,0.886-1.031,1.638-1.031
		c0.179,0,0.32,0.023,0.424,0.07L-126.822,17.773z"/>
	<path class="st6" d="M-124.037,20.045c0-0.559,0.108-1.062,0.325-1.51c0.216-0.447,0.522-0.796,0.918-1.045
		c0.396-0.248,0.844-0.373,1.346-0.373c0.773,0,1.4,0.271,1.88,0.813c0.48,0.543,0.72,1.262,0.72,2.157v0.134
		c0,0.562-0.108,1.068-0.325,1.518c-0.216,0.449-0.521,0.796-0.916,1.039c-0.394,0.244-0.843,0.365-1.348,0.365
		c-0.77,0-1.396-0.271-1.877-0.813c-0.482-0.543-0.723-1.262-0.723-2.156V20.045z M-123.392,20.222c0,0.695,0.18,1.265,0.54,1.711
		c0.359,0.445,0.832,0.669,1.415,0.669c0.58,0,1.05-0.224,1.41-0.669c0.359-0.446,0.54-1.034,0.54-1.765v-0.123
		c0-0.444-0.083-0.851-0.247-1.22c-0.165-0.368-0.396-0.654-0.693-0.856s-0.637-0.304-1.021-0.304c-0.573,0-1.04,0.225-1.402,0.674
		c-0.362,0.45-0.542,1.038-0.542,1.765V20.222z"/>
	<path class="st6" d="M-116.797,15.738v1.488h1.203v0.526h-1.203v3.877c0,0.323,0.058,0.563,0.175,0.721
		c0.116,0.158,0.311,0.236,0.583,0.236c0.107,0,0.281-0.018,0.521-0.054l0.027,0.522c-0.168,0.06-0.397,0.09-0.688,0.09
		c-0.44,0-0.761-0.128-0.961-0.384s-0.301-0.633-0.301-1.131v-3.878h-1.069v-0.526h1.069v-1.488L-116.797,15.738L-116.797,15.738z"
		/>
	<path class="st6" d="M-113.898,18.208c0.211-0.348,0.481-0.616,0.811-0.806c0.33-0.19,0.689-0.285,1.08-0.285
		c0.623,0,1.087,0.175,1.391,0.526c0.304,0.352,0.458,0.878,0.462,1.579v3.813h-0.639v-3.818c-0.003-0.52-0.114-0.906-0.331-1.16
		c-0.216-0.255-0.563-0.382-1.039-0.382c-0.397,0-0.749,0.125-1.056,0.373c-0.306,0.249-0.532,0.585-0.679,1.008v3.979h-0.639v-8.25
		h0.639C-113.898,14.785-113.898,18.208-113.898,18.208z"/>
	<path class="st6" d="M-106.525,23.144c-0.494,0-0.941-0.121-1.34-0.365c-0.399-0.243-0.709-0.583-0.932-1.018
		c-0.222-0.436-0.333-0.923-0.333-1.464v-0.23c0-0.559,0.108-1.062,0.325-1.51c0.216-0.447,0.518-0.799,0.905-1.056
		c0.387-0.256,0.806-0.383,1.257-0.383c0.706,0,1.265,0.241,1.678,0.722c0.414,0.481,0.621,1.14,0.621,1.974v0.36h-4.146v0.123
		c0,0.659,0.189,1.208,0.567,1.646c0.377,0.438,0.853,0.658,1.426,0.658c0.344,0,0.647-0.062,0.91-0.188
		c0.264-0.125,0.502-0.325,0.717-0.602l0.403,0.307C-104.94,22.802-105.626,23.144-106.525,23.144z M-106.643,17.665
		c-0.483,0-0.891,0.178-1.222,0.532s-0.532,0.83-0.604,1.429h3.486v-0.07c-0.018-0.559-0.177-1.013-0.478-1.364
		C-105.762,17.841-106.156,17.665-106.643,17.665z"/>
	<path class="st6" d="M-100.682,17.773c-0.136-0.024-0.281-0.037-0.435-0.037c-0.401,0-0.74,0.111-1.018,0.335
		c-0.277,0.225-0.475,0.549-0.593,0.976v3.99h-0.639v-5.811h0.628l0.011,0.923c0.34-0.688,0.886-1.031,1.638-1.031
		c0.179,0,0.32,0.023,0.424,0.07L-100.682,17.773z"/>
	<path class="st6" d="M-97.896,20.045c0-0.559,0.108-1.062,0.325-1.51c0.216-0.447,0.522-0.796,0.918-1.045
		c0.396-0.248,0.844-0.373,1.346-0.373c0.773,0,1.4,0.271,1.88,0.813c0.48,0.543,0.72,1.262,0.72,2.157v0.134
		c0,0.562-0.108,1.068-0.325,1.518c-0.216,0.449-0.521,0.796-0.916,1.039c-0.394,0.244-0.843,0.365-1.348,0.365
		c-0.77,0-1.396-0.271-1.877-0.813c-0.482-0.543-0.723-1.262-0.723-2.156V20.045z M-97.252,20.222c0,0.695,0.18,1.265,0.54,1.711
		c0.359,0.445,0.832,0.669,1.415,0.669c0.58,0,1.05-0.224,1.41-0.669c0.359-0.446,0.54-1.034,0.54-1.765v-0.123
		c0-0.444-0.083-0.851-0.247-1.22c-0.165-0.368-0.396-0.654-0.693-0.856s-0.637-0.304-1.021-0.304c-0.573,0-1.04,0.225-1.402,0.674
		c-0.362,0.45-0.542,1.038-0.542,1.765V20.222z"/>
	<path class="st6" d="M-86.984,20.19c0,0.906-0.201,1.625-0.602,2.156c-0.401,0.532-0.938,0.798-1.611,0.798
		c-0.795,0-1.404-0.279-1.826-0.838v2.965h-0.639v-8.045h0.596l0.032,0.822c0.419-0.62,1.026-0.929,1.821-0.929
		c0.695,0,1.24,0.263,1.635,0.79c0.396,0.526,0.594,1.257,0.594,2.191C-86.984,20.1-86.984,20.19-86.984,20.19z M-87.628,20.078
		c0-0.741-0.152-1.327-0.457-1.757s-0.729-0.645-1.273-0.645c-0.394,0-0.732,0.095-1.015,0.285c-0.283,0.189-0.5,0.465-0.65,0.827
		v2.787c0.154,0.333,0.374,0.588,0.661,0.763c0.287,0.176,0.625,0.264,1.015,0.264c0.541,0,0.962-0.216,1.265-0.647
		C-87.78,21.523-87.628,20.897-87.628,20.078z"/>
	<path class="st6" d="M-84.836,15.738v1.488h1.203v0.526h-1.203v3.877c0,0.323,0.058,0.563,0.175,0.721
		c0.116,0.158,0.311,0.236,0.583,0.236c0.107,0,0.281-0.018,0.521-0.054l0.027,0.522c-0.168,0.06-0.397,0.09-0.688,0.09
		c-0.44,0-0.761-0.128-0.961-0.384s-0.301-0.633-0.301-1.131v-3.878h-1.069v-0.526h1.069v-1.488L-84.836,15.738L-84.836,15.738z"/>
	<path class="st6" d="M-82.614,15.547c0-0.121,0.04-0.223,0.118-0.307s0.186-0.125,0.322-0.125s0.245,0.042,0.325,0.125
		c0.081,0.083,0.121,0.186,0.121,0.307c0,0.121-0.04,0.223-0.121,0.305c-0.08,0.082-0.188,0.123-0.325,0.123
		s-0.244-0.041-0.322-0.123C-82.574,15.769-82.614,15.668-82.614,15.547z M-81.856,23.037h-0.645v-5.811h0.645V23.037z"/>
	<path class="st6" d="M-80.74,20.045c0-0.559,0.108-1.062,0.325-1.51c0.216-0.447,0.522-0.796,0.918-1.045
		c0.396-0.248,0.844-0.373,1.346-0.373c0.773,0,1.4,0.271,1.88,0.813c0.48,0.543,0.72,1.262,0.72,2.157v0.134
		c0,0.562-0.108,1.068-0.325,1.518c-0.216,0.449-0.521,0.796-0.916,1.039c-0.394,0.244-0.843,0.365-1.348,0.365
		c-0.77,0-1.396-0.271-1.877-0.813c-0.482-0.543-0.723-1.262-0.723-2.156V20.045z M-80.096,20.222c0,0.695,0.18,1.265,0.54,1.711
		c0.359,0.445,0.832,0.669,1.415,0.669c0.58,0,1.05-0.224,1.41-0.669c0.359-0.446,0.54-1.034,0.54-1.765v-0.123
		c0-0.444-0.083-0.851-0.247-1.22c-0.165-0.368-0.396-0.654-0.693-0.856s-0.637-0.304-1.021-0.304c-0.573,0-1.04,0.225-1.402,0.674
		c-0.362,0.45-0.542,1.038-0.542,1.765V20.222z"/>
	<path class="st6" d="M-73.888,17.225l0.021,0.994c0.218-0.358,0.491-0.632,0.816-0.819c0.326-0.188,0.686-0.282,1.08-0.282
		c0.623,0,1.087,0.175,1.391,0.526c0.304,0.352,0.458,0.878,0.462,1.579v3.813h-0.639v-3.818c-0.003-0.52-0.114-0.906-0.331-1.16
		c-0.216-0.255-0.563-0.382-1.039-0.382c-0.397,0-0.749,0.125-1.056,0.373c-0.306,0.249-0.532,0.585-0.679,1.008v3.979H-74.5v-5.811
		C-74.5,17.225-73.888,17.225-73.888,17.225z"/>
	<path class="st6" d="M-65.252,21.56c0-0.319-0.128-0.575-0.384-0.769c-0.256-0.193-0.642-0.345-1.158-0.454
		c-0.516-0.108-0.916-0.234-1.201-0.376c-0.284-0.141-0.496-0.313-0.634-0.518c-0.138-0.204-0.207-0.451-0.207-0.741
		c0-0.459,0.191-0.837,0.575-1.137c0.383-0.299,0.874-0.448,1.472-0.448c0.648,0,1.168,0.16,1.561,0.48
		c0.392,0.321,0.588,0.739,0.588,1.255h-0.645c0-0.341-0.143-0.623-0.427-0.849c-0.285-0.226-0.644-0.339-1.077-0.339
		c-0.422,0-0.762,0.094-1.018,0.282s-0.384,0.433-0.384,0.733c0,0.29,0.106,0.515,0.32,0.674c0.213,0.159,0.602,0.306,1.165,0.438
		c0.564,0.133,0.987,0.274,1.268,0.425c0.281,0.15,0.49,0.331,0.626,0.542c0.136,0.212,0.204,0.468,0.204,0.769
		c0,0.49-0.198,0.883-0.594,1.176c-0.396,0.294-0.912,0.44-1.549,0.44c-0.677,0-1.226-0.164-1.646-0.491
		c-0.421-0.328-0.631-0.742-0.631-1.243h0.645c0.025,0.376,0.184,0.668,0.475,0.878c0.292,0.209,0.678,0.314,1.158,0.314
		c0.448,0,0.809-0.099,1.085-0.296C-65.39,22.11-65.252,21.861-65.252,21.56z"/>
</g>
<path class="st7" d="M-33.875,13.933l-6.596-6.596c-0.74-0.74-1.952-0.74-2.693,0l0,0c-0.74,0.74-0.74,1.952,0,2.693l3.346,3.346
	h-13.734c-1.047,0-1.904,0.857-1.904,1.904c0,1.047,0.857,1.904,1.904,1.904h13.734l-3.346,3.346c-0.74,0.74-0.74,1.952,0,2.693l0,0
	c0.74,0.74,1.952,0.74,2.693,0l6.596-6.596l0,0C-33.135,15.885-33.135,14.673-33.875,13.933z"/>
</svg>
