<?xml version="1.0" encoding="utf-8"?>
<!-- Generator: Adobe Illustrator 21.1.0, SVG Export Plug-In . SVG Version: 6.00 Build 0)  -->
<svg version="1.1" id="Layer_1" xmlns="http://www.w3.org/2000/svg" xmlns:xlink="http://www.w3.org/1999/xlink" x="0px" y="0px"
	 viewBox="0 0 120 60" style="enable-background:new 0 0 120 60;" xml:space="preserve">
<style type="text/css">
	.st0{fill:#FFFFFF;}
	.st1{fill:#8DC56F;}
</style>
<path class="st0" d="M119.248,43.742l-3.08-3.08c-0.383-0.383-1.003-0.383-1.385,0c-0.382,0.383-0.383,1.003,0,1.385l1.407,1.407
	h-4.513c-0.542,0-0.979,0.438-0.979,0.979c0,0.541,0.438,0.979,0.979,0.979h4.513l-1.407,1.407c-0.383,0.383-0.383,1.003,0,1.385
	c0.191,0.191,0.442,0.287,0.694,0.287c0.251,0,0.502-0.095,0.694-0.287l3.08-3.08C119.63,44.746,119.63,44.125,119.248,43.742z"/>
<g>
	<path class="st0" d="M17.896,41.867c-0.074,0.679-0.317,1.197-0.727,1.557c-0.412,0.36-0.959,0.54-1.644,0.54
		c-0.478,0-0.9-0.119-1.267-0.359c-0.368-0.238-0.651-0.576-0.852-1.015c-0.2-0.437-0.302-0.938-0.305-1.501v-0.835
		c0-0.573,0.1-1.079,0.301-1.522c0.2-0.442,0.488-0.785,0.865-1.025c0.375-0.24,0.808-0.36,1.298-0.36
		c0.69,0,1.235,0.186,1.634,0.557c0.4,0.372,0.632,0.886,0.697,1.543h-0.548c-0.136-1.093-0.73-1.64-1.783-1.64
		c-0.584,0-1.049,0.219-1.395,0.655c-0.347,0.437-0.52,1.041-0.52,1.811v0.789c0,0.743,0.169,1.336,0.506,1.779
		c0.338,0.442,0.794,0.664,1.369,0.664c0.569,0,0.998-0.136,1.287-0.409c0.289-0.273,0.468-0.681,0.535-1.227H17.896z"/>
	<path class="st0" d="M19.395,39.899c0.174-0.287,0.397-0.508,0.668-0.665C20.334,39.079,20.63,39,20.952,39
		c0.513,0,0.895,0.144,1.146,0.433c0.251,0.289,0.377,0.723,0.38,1.3v3.141h-0.526v-3.144c-0.003-0.428-0.094-0.747-0.272-0.955
		c-0.178-0.21-0.463-0.315-0.856-0.315c-0.327,0-0.617,0.102-0.87,0.307c-0.251,0.205-0.439,0.482-0.559,0.829v3.278h-0.526v-6.794
		h0.526V39.899z"/>
	<path class="st0" d="M26.634,43.875c-0.053-0.15-0.087-0.373-0.102-0.667c-0.186,0.241-0.422,0.427-0.71,0.559
		c-0.287,0.131-0.591,0.197-0.913,0.197c-0.46,0-0.832-0.129-1.117-0.384c-0.285-0.258-0.427-0.581-0.427-0.973
		c0-0.466,0.194-0.835,0.581-1.107c0.388-0.27,0.928-0.407,1.621-0.407h0.96v-0.543c0-0.342-0.106-0.612-0.317-0.808
		c-0.21-0.196-0.518-0.294-0.922-0.294c-0.368,0-0.674,0.095-0.916,0.283c-0.242,0.19-0.363,0.417-0.363,0.682l-0.531-0.005
		c0-0.38,0.177-0.71,0.531-0.988C24.365,39.139,24.8,39,25.316,39c0.534,0,0.955,0.134,1.263,0.401
		c0.308,0.267,0.466,0.639,0.475,1.117v2.265c0,0.463,0.049,0.809,0.146,1.039v0.053H26.634z M24.971,43.495
		c0.354,0,0.67-0.086,0.948-0.257c0.279-0.171,0.482-0.399,0.609-0.685v-1.054h-0.947c-0.528,0.006-0.941,0.104-1.239,0.291
		c-0.298,0.187-0.447,0.445-0.447,0.771c0,0.269,0.1,0.492,0.298,0.669C24.394,43.406,24.653,43.495,24.971,43.495z"/>
	<path class="st0" d="M29.062,37.864v1.225h0.991v0.433h-0.991v3.192c0,0.267,0.048,0.464,0.144,0.594
		c0.095,0.13,0.255,0.195,0.48,0.195c0.088,0,0.231-0.015,0.429-0.044l0.022,0.43c-0.138,0.049-0.327,0.075-0.566,0.075
		c-0.363,0-0.627-0.105-0.792-0.316c-0.165-0.211-0.248-0.522-0.248-0.931v-3.194h-0.88v-0.433h0.88v-1.225H29.062z"/>
	<path class="st0" d="M33.404,39.089l0.018,0.818c0.18-0.294,0.404-0.519,0.672-0.674C34.363,39.078,34.659,39,34.983,39
		c0.513,0,0.895,0.144,1.146,0.433c0.251,0.289,0.377,0.723,0.38,1.3v3.141h-0.526v-3.144c-0.003-0.428-0.094-0.747-0.272-0.955
		c-0.178-0.21-0.463-0.315-0.856-0.315c-0.327,0-0.617,0.102-0.87,0.307c-0.251,0.205-0.439,0.482-0.559,0.829v3.278H32.9v-4.786
		H33.404z"/>
	<path class="st0" d="M42.533,41.004c0,0.594-0.102,1.113-0.307,1.562c-0.205,0.449-0.498,0.794-0.878,1.035
		c-0.38,0.241-0.82,0.363-1.318,0.363c-0.752,0-1.359-0.269-1.822-0.808s-0.694-1.264-0.694-2.178v-0.665
		c0-0.586,0.104-1.106,0.312-1.558c0.209-0.452,0.502-0.801,0.883-1.044c0.38-0.244,0.818-0.365,1.314-0.365
		c0.495,0,0.933,0.119,1.312,0.359c0.379,0.238,0.671,0.576,0.878,1.012c0.207,0.436,0.314,0.942,0.323,1.518V41.004z
		 M41.989,40.306c0-0.776-0.176-1.384-0.526-1.822c-0.351-0.44-0.832-0.66-1.442-0.66c-0.598,0-1.076,0.22-1.431,0.661
		c-0.356,0.441-0.533,1.057-0.533,1.846v0.672c0,0.765,0.177,1.37,0.531,1.816c0.354,0.447,0.835,0.671,1.442,0.671
		c0.616,0,1.097-0.221,1.442-0.662s0.518-1.054,0.518-1.843V40.306z"/>
	<path class="st0" d="M44.699,42.773l0.08,0.412l0.106-0.433l1.15-3.663h0.451l1.137,3.631l0.124,0.506l0.102-0.465l0.982-3.671
		h0.548l-1.393,4.786h-0.451l-1.23-3.795l-0.058-0.262l-0.058,0.265l-1.208,3.791h-0.451l-1.389-4.786h0.544L44.699,42.773z"/>
	<path class="st0" d="M51.841,41.411c0-0.46,0.089-0.873,0.268-1.242c0.178-0.369,0.43-0.656,0.756-0.861
		C53.191,39.103,53.561,39,53.973,39c0.637,0,1.153,0.224,1.548,0.67c0.395,0.447,0.593,1.039,0.593,1.776v0.111
		c0,0.463-0.089,0.88-0.268,1.25c-0.178,0.37-0.43,0.655-0.754,0.856s-0.694,0.301-1.11,0.301c-0.634,0-1.149-0.224-1.546-0.67
		c-0.397-0.447-0.595-1.039-0.595-1.777V41.411z M52.372,41.557c0,0.573,0.148,1.041,0.445,1.409c0.296,0.367,0.684,0.55,1.165,0.55
		c0.478,0,0.864-0.183,1.161-0.55c0.296-0.368,0.444-0.852,0.444-1.453v-0.102c0-0.365-0.068-0.7-0.203-1.003
		c-0.136-0.303-0.326-0.538-0.571-0.705s-0.525-0.25-0.84-0.25c-0.472,0-0.857,0.185-1.154,0.555
		c-0.298,0.37-0.447,0.854-0.447,1.453V41.557z"/>
	<path class="st0" d="M59.192,39.54c-0.112-0.02-0.231-0.03-0.358-0.03c-0.33,0-0.61,0.091-0.839,0.276
		c-0.228,0.185-0.391,0.452-0.488,0.804v3.286H56.98v-4.786h0.518l0.009,0.761c0.28-0.566,0.73-0.849,1.349-0.849
		c0.147,0,0.264,0.019,0.349,0.057L59.192,39.54z"/>
	<path class="st0" d="M63.547,43.516c0.368,0,0.677-0.104,0.926-0.311c0.25-0.209,0.384-0.478,0.405-0.808h0.509
		c-0.015,0.292-0.106,0.559-0.274,0.799c-0.168,0.24-0.392,0.428-0.67,0.564c-0.279,0.135-0.578,0.203-0.896,0.203
		c-0.628,0-1.126-0.219-1.493-0.655c-0.368-0.436-0.551-1.024-0.551-1.76v-0.159c0-0.471,0.083-0.888,0.248-1.252
		c0.165-0.361,0.402-0.642,0.71-0.839C62.769,39.099,63.13,39,63.543,39c0.525,0,0.957,0.157,1.299,0.469
		c0.34,0.312,0.523,0.724,0.546,1.233h-0.509c-0.023-0.374-0.159-0.676-0.405-0.906c-0.246-0.23-0.556-0.345-0.931-0.345
		c-0.478,0-0.849,0.172-1.113,0.518c-0.264,0.344-0.396,0.828-0.396,1.451v0.154c0,0.61,0.132,1.087,0.396,1.428
		C62.694,43.345,63.066,43.516,63.547,43.516z"/>
	<path class="st0" d="M65.926,41.411c0-0.46,0.09-0.873,0.268-1.242c0.179-0.369,0.431-0.656,0.756-0.861
		C67.276,39.103,67.646,39,68.059,39c0.637,0,1.153,0.224,1.547,0.67c0.396,0.447,0.594,1.039,0.594,1.776v0.111
		c0,0.463-0.09,0.88-0.268,1.25c-0.179,0.37-0.43,0.655-0.755,0.856c-0.325,0.201-0.694,0.301-1.111,0.301
		c-0.633,0-1.149-0.224-1.544-0.67c-0.397-0.447-0.597-1.039-0.597-1.777V41.411z M66.457,41.557c0,0.573,0.149,1.041,0.445,1.409
		c0.296,0.367,0.685,0.55,1.165,0.55c0.478,0,0.864-0.183,1.163-0.55c0.296-0.368,0.444-0.852,0.444-1.453v-0.102
		c0-0.365-0.067-0.7-0.203-1.003c-0.136-0.303-0.326-0.538-0.571-0.705c-0.244-0.167-0.524-0.25-0.839-0.25
		c-0.473,0-0.857,0.185-1.155,0.555c-0.298,0.37-0.447,0.854-0.447,1.453V41.557z"/>
	<path class="st0" d="M71.57,39.089l0.018,0.818c0.179-0.294,0.403-0.519,0.672-0.674C72.528,39.078,72.824,39,73.148,39
		c0.513,0,0.895,0.144,1.146,0.433c0.25,0.289,0.377,0.723,0.379,1.3v3.141h-0.526v-3.144c-0.003-0.428-0.094-0.747-0.273-0.955
		c-0.177-0.21-0.463-0.315-0.854-0.315c-0.329,0-0.617,0.102-0.87,0.307s-0.44,0.482-0.56,0.829v3.278h-0.527v-4.786H71.57z"/>
	<path class="st0" d="M76.319,39.089l0.018,0.818c0.179-0.294,0.404-0.519,0.672-0.674C77.277,39.078,77.574,39,77.899,39
		c0.513,0,0.895,0.144,1.145,0.433c0.25,0.289,0.377,0.723,0.38,1.3v3.141h-0.527v-3.144c-0.003-0.428-0.094-0.747-0.272-0.955
		c-0.178-0.21-0.464-0.315-0.856-0.315c-0.327,0-0.617,0.102-0.87,0.307c-0.252,0.205-0.439,0.482-0.559,0.829v3.278h-0.527v-4.786
		H76.319z"/>
	<path class="st0" d="M82.419,43.963c-0.407,0-0.775-0.1-1.105-0.301c-0.329-0.201-0.584-0.48-0.766-0.838
		c-0.183-0.359-0.276-0.761-0.276-1.206v-0.191c0-0.46,0.09-0.873,0.268-1.242c0.179-0.369,0.427-0.658,0.746-0.87
		C81.605,39.105,81.95,39,82.321,39c0.58,0,1.043,0.198,1.381,0.595c0.341,0.397,0.512,0.938,0.512,1.625v0.296H80.8v0.102
		c0,0.542,0.155,0.995,0.466,1.356c0.311,0.361,0.703,0.541,1.175,0.541c0.283,0,0.533-0.051,0.748-0.154
		c0.217-0.104,0.415-0.268,0.591-0.495l0.331,0.253C83.723,43.682,83.159,43.963,82.419,43.963z M82.321,39.452
		c-0.398,0-0.734,0.147-1.007,0.437c-0.272,0.293-0.437,0.685-0.497,1.178h2.87v-0.058c-0.014-0.46-0.145-0.834-0.393-1.124
		C83.047,39.596,82.722,39.452,82.321,39.452z"/>
	<path class="st0" d="M86.788,43.516c0.368,0,0.677-0.104,0.926-0.311c0.25-0.209,0.384-0.478,0.404-0.808h0.509
		c-0.015,0.292-0.106,0.559-0.274,0.799c-0.168,0.24-0.392,0.428-0.67,0.564c-0.279,0.135-0.578,0.203-0.896,0.203
		c-0.628,0-1.126-0.219-1.493-0.655c-0.368-0.436-0.551-1.024-0.551-1.76v-0.159c0-0.471,0.083-0.888,0.248-1.252
		c0.164-0.361,0.402-0.642,0.71-0.839C86.01,39.099,86.371,39,86.784,39c0.524,0,0.957,0.157,1.298,0.469
		c0.34,0.312,0.522,0.724,0.546,1.233h-0.509c-0.023-0.374-0.158-0.676-0.404-0.906c-0.245-0.23-0.556-0.345-0.93-0.345
		c-0.478,0-0.849,0.172-1.113,0.518c-0.264,0.344-0.396,0.828-0.396,1.451v0.154c0,0.61,0.131,1.087,0.396,1.428
		C85.935,43.345,86.306,43.516,86.788,43.516z"/>
	<path class="st0" d="M90.281,37.864v1.225h0.991v0.433h-0.991v3.192c0,0.267,0.048,0.464,0.144,0.594
		c0.096,0.13,0.255,0.195,0.479,0.195c0.088,0,0.233-0.015,0.43-0.044l0.023,0.43c-0.139,0.049-0.329,0.075-0.566,0.075
		c-0.364,0-0.627-0.105-0.792-0.316c-0.166-0.211-0.248-0.522-0.248-0.931v-3.194h-0.881v-0.433h0.881v-1.225H90.281z"/>
	<path class="st0" d="M95.61,43.145l1.455-4.056h0.545l-1.787,4.786h-0.43l-1.796-4.786h0.545L95.61,43.145z"/>
	<path class="st0" d="M98.219,37.706c0-0.1,0.032-0.183,0.096-0.253c0.066-0.068,0.154-0.102,0.265-0.102
		c0.112,0,0.202,0.034,0.268,0.102c0.067,0.07,0.1,0.153,0.1,0.253s-0.033,0.183-0.1,0.25c-0.066,0.068-0.155,0.102-0.268,0.102
		c-0.111,0-0.2-0.034-0.265-0.102C98.25,37.89,98.219,37.806,98.219,37.706z M98.842,43.875h-0.531v-4.786h0.531V43.875z"/>
	<path class="st0" d="M103.074,43.875c-0.053-0.15-0.086-0.373-0.101-0.667c-0.186,0.241-0.422,0.427-0.71,0.559
		c-0.287,0.131-0.591,0.197-0.912,0.197c-0.46,0-0.833-0.129-1.117-0.384c-0.284-0.258-0.427-0.581-0.427-0.973
		c0-0.466,0.193-0.835,0.581-1.107c0.388-0.27,0.929-0.407,1.621-0.407h0.959v-0.543c0-0.342-0.105-0.612-0.316-0.808
		s-0.518-0.294-0.923-0.294c-0.368,0-0.674,0.095-0.915,0.283c-0.241,0.19-0.363,0.417-0.363,0.682l-0.531-0.005
		c0-0.38,0.177-0.71,0.531-0.988c0.354-0.279,0.789-0.418,1.306-0.418c0.533,0,0.954,0.134,1.263,0.401
		c0.308,0.267,0.466,0.639,0.475,1.117v2.265c0,0.463,0.049,0.809,0.145,1.039v0.053H103.074z M101.411,43.495
		c0.354,0,0.671-0.086,0.949-0.257c0.279-0.171,0.482-0.399,0.608-0.685v-1.054h-0.945c-0.528,0.006-0.942,0.104-1.239,0.291
		c-0.298,0.187-0.447,0.445-0.447,0.771c0,0.269,0.1,0.492,0.298,0.669C100.835,43.406,101.093,43.495,101.411,43.495z"/>
	<path class="st0" d="M19.959,51.512c0-0.46,0.089-0.873,0.268-1.242c0.178-0.369,0.43-0.656,0.756-0.861
		c0.326-0.205,0.696-0.307,1.108-0.307c0.637,0,1.153,0.224,1.548,0.67c0.395,0.447,0.593,1.039,0.593,1.776v0.111
		c0,0.463-0.089,0.88-0.268,1.25c-0.178,0.37-0.43,0.655-0.754,0.856s-0.694,0.301-1.11,0.301c-0.634,0-1.149-0.224-1.546-0.67
		c-0.397-0.447-0.595-1.039-0.595-1.777V51.512z M20.489,51.659c0,0.573,0.148,1.041,0.445,1.409c0.296,0.367,0.684,0.55,1.165,0.55
		c0.478,0,0.864-0.183,1.161-0.55c0.296-0.368,0.444-0.852,0.444-1.453v-0.102c0-0.365-0.068-0.7-0.203-1.003
		c-0.136-0.303-0.326-0.538-0.571-0.705c-0.245-0.167-0.525-0.25-0.84-0.25c-0.472,0-0.857,0.185-1.154,0.555
		c-0.298,0.37-0.447,0.854-0.447,1.453V51.659z"/>
	<path class="st0" d="M25.601,49.191l0.018,0.818c0.18-0.294,0.404-0.519,0.672-0.674c0.269-0.155,0.565-0.233,0.889-0.233
		c0.513,0,0.895,0.144,1.146,0.433c0.251,0.289,0.377,0.723,0.38,1.3v3.141H28.18v-3.144c-0.003-0.428-0.094-0.747-0.272-0.955
		c-0.178-0.21-0.463-0.315-0.856-0.315c-0.327,0-0.617,0.102-0.87,0.307c-0.251,0.205-0.439,0.482-0.559,0.829v3.278h-0.526v-4.786
		H25.601z"/>
	<path class="st0" d="M31.701,54.065c-0.407,0-0.775-0.1-1.104-0.301c-0.329-0.201-0.585-0.48-0.767-0.838
		c-0.183-0.359-0.274-0.761-0.274-1.206V51.53c0-0.46,0.089-0.873,0.268-1.242c0.178-0.369,0.427-0.658,0.745-0.87
		c0.318-0.211,0.664-0.316,1.035-0.316c0.581,0,1.042,0.198,1.382,0.595c0.341,0.397,0.511,0.938,0.511,1.625v0.296h-3.415v0.102
		c0,0.542,0.155,0.995,0.467,1.356c0.311,0.361,0.702,0.541,1.174,0.541c0.283,0,0.533-0.051,0.749-0.154
		c0.217-0.104,0.414-0.268,0.591-0.495l0.332,0.253C33.006,53.783,32.441,54.065,31.701,54.065z M31.603,49.553
		c-0.398,0-0.734,0.147-1.007,0.437c-0.272,0.293-0.439,0.685-0.497,1.178h2.871V51.11c-0.015-0.46-0.146-0.834-0.394-1.124
		S32.005,49.553,31.603,49.553z"/>
	<path class="st0" d="M35.985,51.512c0-0.46,0.09-0.873,0.268-1.242c0.178-0.369,0.431-0.656,0.756-0.861
		c0.326-0.205,0.696-0.307,1.108-0.307c0.637,0,1.153,0.224,1.548,0.67c0.396,0.447,0.593,1.039,0.593,1.776v0.111
		c0,0.463-0.088,0.88-0.268,1.25c-0.178,0.37-0.43,0.655-0.753,0.856c-0.325,0.201-0.695,0.301-1.111,0.301
		c-0.633,0-1.149-0.224-1.546-0.67c-0.397-0.447-0.595-1.039-0.595-1.777V51.512z M36.516,51.659c0,0.573,0.148,1.041,0.445,1.409
		c0.296,0.367,0.684,0.55,1.165,0.55c0.478,0,0.864-0.183,1.161-0.55c0.296-0.368,0.445-0.852,0.445-1.453v-0.102
		c0-0.365-0.068-0.7-0.205-1.003c-0.135-0.303-0.326-0.538-0.57-0.705c-0.244-0.167-0.524-0.25-0.84-0.25
		c-0.473,0-0.857,0.185-1.155,0.555c-0.297,0.37-0.446,0.854-0.446,1.453V51.659z"/>
	<path class="st0" d="M41.504,53.977v-4.353h-0.791v-0.433h0.791v-0.58c0-0.489,0.125-0.864,0.374-1.127
		c0.25-0.263,0.597-0.394,1.041-0.394c0.201,0,0.389,0.025,0.562,0.075l-0.039,0.439c-0.148-0.035-0.308-0.053-0.483-0.053
		c-0.292,0-0.518,0.091-0.681,0.273c-0.163,0.182-0.244,0.44-0.244,0.775v0.594h1.142v0.433h-1.142v4.353H41.504z"/>
	<path class="st0" d="M45.581,51.512c0-0.46,0.088-0.873,0.268-1.242c0.178-0.369,0.43-0.656,0.756-0.861s0.695-0.307,1.108-0.307
		c0.637,0,1.154,0.224,1.548,0.67c0.394,0.447,0.593,1.039,0.593,1.776v0.111c0,0.463-0.09,0.88-0.268,1.25
		c-0.178,0.37-0.43,0.655-0.754,0.856c-0.324,0.201-0.694,0.301-1.11,0.301c-0.634,0-1.15-0.224-1.546-0.67
		c-0.397-0.447-0.595-1.039-0.595-1.777V51.512z M46.112,51.659c0,0.573,0.148,1.041,0.445,1.409c0.296,0.367,0.685,0.55,1.165,0.55
		c0.478,0,0.864-0.183,1.161-0.55c0.296-0.368,0.444-0.852,0.444-1.453v-0.102c0-0.365-0.067-0.7-0.202-1.003
		c-0.136-0.303-0.326-0.538-0.571-0.705c-0.245-0.167-0.526-0.25-0.84-0.25c-0.471,0-0.857,0.185-1.154,0.555
		c-0.298,0.37-0.447,0.854-0.447,1.453V51.659z"/>
	<path class="st0" d="M53.798,53.37c-0.318,0.464-0.827,0.695-1.527,0.695c-0.509,0-0.897-0.148-1.163-0.445
		c-0.265-0.296-0.402-0.734-0.407-1.316v-3.114h0.526v3.047c0,0.912,0.369,1.367,1.107,1.367c0.766,0,1.251-0.317,1.455-0.95v-3.464
		h0.531v4.786h-0.513L53.798,53.37z"/>
	<path class="st0" d="M57.681,49.642c-0.111-0.02-0.23-0.03-0.358-0.03c-0.33,0-0.61,0.091-0.838,0.276
		c-0.229,0.185-0.392,0.452-0.489,0.804v3.286h-0.527v-4.786h0.518l0.009,0.761c0.279-0.566,0.729-0.849,1.348-0.849
		c0.149,0,0.265,0.019,0.349,0.057L57.681,49.642z"/>
	<path class="st0" d="M59.976,51.512c0-0.46,0.09-0.873,0.268-1.242c0.178-0.369,0.43-0.656,0.756-0.861s0.695-0.307,1.108-0.307
		c0.637,0,1.153,0.224,1.548,0.67c0.396,0.447,0.593,1.039,0.593,1.776v0.111c0,0.463-0.09,0.88-0.268,1.25
		c-0.178,0.37-0.43,0.655-0.753,0.856c-0.325,0.201-0.695,0.301-1.111,0.301c-0.634,0-1.149-0.224-1.546-0.67
		c-0.397-0.447-0.595-1.039-0.595-1.777V51.512z M60.507,51.659c0,0.573,0.148,1.041,0.445,1.409c0.296,0.367,0.685,0.55,1.165,0.55
		c0.478,0,0.864-0.183,1.161-0.55c0.296-0.368,0.445-0.852,0.445-1.453v-0.102c0-0.365-0.068-0.7-0.205-1.003
		c-0.135-0.303-0.325-0.538-0.57-0.705c-0.245-0.167-0.524-0.25-0.84-0.25c-0.471,0-0.857,0.185-1.155,0.555
		c-0.297,0.37-0.446,0.854-0.446,1.453V51.659z"/>
	<path class="st0" d="M65.937,47.966v1.225h0.991v0.433h-0.991v3.192c0,0.267,0.048,0.464,0.144,0.594
		c0.096,0.13,0.255,0.195,0.479,0.195c0.088,0,0.233-0.015,0.43-0.044l0.023,0.43c-0.139,0.049-0.329,0.075-0.566,0.075
		c-0.364,0-0.627-0.105-0.792-0.316c-0.166-0.211-0.248-0.522-0.248-0.931v-3.194h-0.881v-0.433h0.881v-1.225H65.937z"/>
	<path class="st0" d="M68.325,50.001c0.174-0.287,0.397-0.508,0.669-0.665c0.272-0.155,0.567-0.234,0.888-0.234
		c0.513,0,0.896,0.144,1.146,0.433c0.25,0.289,0.378,0.723,0.38,1.3v3.141h-0.526v-3.144c-0.004-0.428-0.095-0.747-0.273-0.955
		c-0.178-0.21-0.464-0.315-0.856-0.315c-0.327,0-0.617,0.102-0.87,0.307c-0.252,0.205-0.439,0.482-0.56,0.829v3.278h-0.526v-6.794
		h0.526V50.001z"/>
	<path class="st0" d="M74.397,54.065c-0.407,0-0.775-0.1-1.103-0.301s-0.584-0.48-0.767-0.838c-0.183-0.359-0.274-0.761-0.274-1.206
		V51.53c0-0.46,0.09-0.873,0.268-1.242c0.178-0.369,0.426-0.658,0.744-0.87c0.318-0.211,0.665-0.316,1.036-0.316
		c0.58,0,1.041,0.198,1.381,0.595c0.341,0.397,0.512,0.938,0.512,1.625v0.296H72.78v0.102c0,0.542,0.155,0.995,0.466,1.356
		c0.311,0.361,0.703,0.541,1.174,0.541c0.283,0,0.533-0.051,0.749-0.154c0.217-0.104,0.413-0.268,0.59-0.495l0.332,0.253
		C75.703,53.783,75.138,54.065,74.397,54.065z M74.301,49.553c-0.399,0-0.734,0.147-1.007,0.437
		c-0.273,0.293-0.439,0.685-0.497,1.178h2.87V51.11c-0.015-0.46-0.145-0.834-0.393-1.124C75.027,49.697,74.702,49.553,74.301,49.553
		z"/>
	<path class="st0" d="M79.209,49.642c-0.112-0.02-0.231-0.03-0.359-0.03c-0.33,0-0.609,0.091-0.838,0.276s-0.391,0.452-0.489,0.804
		v3.286h-0.526v-4.786h0.518l0.008,0.761c0.281-0.566,0.73-0.849,1.35-0.849c0.148,0,0.264,0.019,0.349,0.057L79.209,49.642z"/>
	<path class="st0" d="M81.503,51.512c0-0.46,0.09-0.873,0.268-1.242c0.178-0.369,0.43-0.656,0.756-0.861s0.695-0.307,1.108-0.307
		c0.637,0,1.153,0.224,1.548,0.67c0.396,0.447,0.593,1.039,0.593,1.776v0.111c0,0.463-0.09,0.88-0.268,1.25
		c-0.178,0.37-0.43,0.655-0.753,0.856c-0.325,0.201-0.695,0.301-1.111,0.301c-0.634,0-1.149-0.224-1.546-0.67
		c-0.397-0.447-0.595-1.039-0.595-1.777V51.512z M82.033,51.659c0,0.573,0.148,1.041,0.445,1.409c0.296,0.367,0.685,0.55,1.165,0.55
		c0.478,0,0.864-0.183,1.161-0.55c0.296-0.368,0.445-0.852,0.445-1.453v-0.102c0-0.365-0.068-0.7-0.205-1.003
		c-0.135-0.303-0.325-0.538-0.57-0.705c-0.245-0.167-0.524-0.25-0.84-0.25c-0.471,0-0.857,0.185-1.155,0.555
		c-0.297,0.37-0.446,0.854-0.446,1.453V51.659z"/>
	<path class="st0" d="M90.491,51.632c0,0.746-0.166,1.338-0.495,1.776c-0.33,0.439-0.772,0.657-1.327,0.657
		c-0.655,0-1.156-0.23-1.504-0.69v2.442h-0.527v-6.626h0.492l0.027,0.676c0.345-0.509,0.844-0.765,1.499-0.765
		c0.573,0,1.021,0.216,1.347,0.651c0.326,0.432,0.489,1.034,0.489,1.805V51.632z M89.96,51.54c0-0.612-0.125-1.093-0.375-1.447
		c-0.252-0.354-0.6-0.531-1.049-0.531c-0.325,0-0.603,0.078-0.837,0.234c-0.233,0.157-0.411,0.384-0.535,0.682v2.295
		c0.126,0.274,0.308,0.484,0.545,0.628c0.235,0.144,0.514,0.216,0.835,0.216c0.445,0,0.792-0.177,1.041-0.532
		C89.835,52.73,89.96,52.215,89.96,51.54z"/>
	<path class="st0" d="M92.26,47.966v1.225h0.991v0.433H92.26v3.192c0,0.267,0.048,0.464,0.144,0.594
		c0.096,0.13,0.255,0.195,0.479,0.195c0.088,0,0.233-0.015,0.43-0.044l0.023,0.43c-0.139,0.049-0.329,0.075-0.566,0.075
		c-0.364,0-0.627-0.105-0.792-0.316c-0.166-0.211-0.248-0.522-0.248-0.931v-3.194h-0.881v-0.433h0.881v-1.225H92.26z"/>
	<path class="st0" d="M94.09,47.808c0-0.1,0.032-0.183,0.096-0.253c0.066-0.068,0.154-0.102,0.265-0.102
		c0.112,0,0.202,0.034,0.268,0.102c0.067,0.07,0.1,0.153,0.1,0.253c0,0.1-0.033,0.183-0.1,0.25
		c-0.066,0.068-0.155,0.102-0.268,0.102c-0.111,0-0.2-0.034-0.265-0.102C94.122,47.991,94.09,47.908,94.09,47.808z M94.713,53.977
		h-0.531v-4.786h0.531V53.977z"/>
	<path class="st0" d="M95.633,51.512c0-0.46,0.09-0.873,0.268-1.242c0.178-0.369,0.43-0.656,0.756-0.861s0.695-0.307,1.108-0.307
		c0.637,0,1.153,0.224,1.548,0.67c0.396,0.447,0.593,1.039,0.593,1.776v0.111c0,0.463-0.09,0.88-0.268,1.25
		c-0.178,0.37-0.43,0.655-0.753,0.856c-0.325,0.201-0.695,0.301-1.111,0.301c-0.634,0-1.149-0.224-1.546-0.67
		c-0.397-0.447-0.595-1.039-0.595-1.777V51.512z M96.164,51.659c0,0.573,0.148,1.041,0.445,1.409c0.296,0.367,0.685,0.55,1.165,0.55
		c0.478,0,0.864-0.183,1.161-0.55c0.296-0.368,0.445-0.852,0.445-1.453v-0.102c0-0.365-0.068-0.7-0.205-1.003
		c-0.135-0.303-0.325-0.538-0.57-0.705c-0.245-0.167-0.524-0.25-0.84-0.25c-0.471,0-0.857,0.185-1.155,0.555
		c-0.297,0.37-0.446,0.854-0.446,1.453V51.659z"/>
	<path class="st0" d="M101.276,49.191l0.018,0.818c0.179-0.294,0.404-0.519,0.672-0.674c0.268-0.155,0.565-0.233,0.888-0.233
		c0.513,0,0.896,0.144,1.146,0.433c0.25,0.289,0.378,0.723,0.38,1.3v3.141h-0.526v-3.144c-0.004-0.428-0.095-0.747-0.273-0.955
		c-0.178-0.21-0.464-0.315-0.856-0.315c-0.327,0-0.617,0.102-0.87,0.307c-0.252,0.205-0.439,0.482-0.56,0.829v3.278h-0.526v-4.786
		H101.276z"/>
	<path class="st0" d="M108.389,52.761c0-0.263-0.105-0.474-0.316-0.633c-0.211-0.159-0.528-0.284-0.953-0.374
		c-0.425-0.09-0.755-0.193-0.99-0.31c-0.234-0.116-0.408-0.258-0.522-0.427c-0.114-0.167-0.169-0.372-0.169-0.609
		c0-0.378,0.157-0.69,0.473-0.936s0.719-0.369,1.212-0.369c0.533,0,0.962,0.131,1.285,0.396c0.322,0.264,0.484,0.609,0.484,1.034
		h-0.531c0-0.281-0.118-0.513-0.351-0.7c-0.235-0.185-0.531-0.278-0.887-0.278c-0.348,0-0.627,0.077-0.838,0.233
		c-0.211,0.154-0.316,0.356-0.316,0.604c0,0.238,0.087,0.423,0.263,0.555c0.176,0.131,0.495,0.251,0.959,0.36
		c0.465,0.109,0.813,0.225,1.044,0.349c0.231,0.124,0.403,0.273,0.516,0.447c0.112,0.174,0.168,0.384,0.168,0.632
		c0,0.404-0.163,0.728-0.489,0.969c-0.326,0.241-0.751,0.363-1.275,0.363c-0.559,0-1.01-0.135-1.356-0.404
		c-0.346-0.27-0.519-0.612-0.519-1.024h0.531c0.02,0.308,0.15,0.55,0.391,0.723c0.24,0.172,0.559,0.258,0.954,0.258
		c0.368,0,0.666-0.081,0.892-0.243C108.275,53.213,108.389,53.008,108.389,52.761z"/>
</g>
<path class="st1" d="M62.227,10.251H33.485c-0.701,0-1.275,0.573-1.275,1.275v16.322c0,0.701,0.573,1.275,1.275,1.275h5.18
	l1.422,3.977c0.034,0.186,0.094,0.361,0.184,0.517l0.007,0.019c0,0,0.006,0.001,0.007,0.001c0.318,0.527,0.925,0.85,1.576,0.769
	c0.333-0.042,0.628-0.181,0.863-0.385c0.004,0,0.012,0,0.015,0c0.126-0.021,2.518-2.537,4.739-4.896h14.748
	c0.701,0,1.275-0.573,1.275-1.275V11.524C63.5,10.824,62.927,10.251,62.227,10.251z"/>
</svg>
