<?xml version="1.0" encoding="utf-8"?>
<!-- Generator: Adobe Illustrator 21.1.0, SVG Export Plug-In . SVG Version: 6.00 Build 0)  -->
<svg version="1.1" id="Layer_1" xmlns="http://www.w3.org/2000/svg" xmlns:xlink="http://www.w3.org/1999/xlink" x="0px" y="0px"
	 viewBox="0 0 60 60" style="enable-background:new 0 0 60 60;" xml:space="preserve">
<style type="text/css">
	.st0{opacity:0.36;}
	.st1{fill:#3C4852;}
	.st2{fill:#ECEEEF;}
	.st3{fill:url(#SVGID_1_);}
	.st4{fill:#FFFFFF;}
	.st5{fill:url(#SVGID_2_);}
	.st6{fill:url(#SVGID_3_);}
	.st7{fill:url(#SVGID_4_);}
	.st8{opacity:0.44;fill:#FFFFFF;enable-background:new    ;}
	.st9{fill:#8DC56F;}
	.st10{fill:#6CB048;}
	.st11{opacity:0.33;fill:#FFFFFF;enable-background:new    ;}
</style>
<g class="st0">
	<path class="st1" d="M18.118,52.737c-0.316,0-0.63-0.04-0.934-0.118c-1.149-0.299-2.095-1.136-2.53-2.239l-2.604-6.604H3.827
		c-2.053,0-3.724-1.671-3.724-3.724V9.375c0-2.053,1.67-3.724,3.724-3.724h51.969c2.053,0,3.724,1.67,3.724,3.724v30.677
		c0,2.053-1.671,3.724-3.724,3.724H30.365l-9.884,8.116C19.818,52.437,18.978,52.737,18.118,52.737z"/>
</g>
<g>
	<path class="st2" d="M18.118,49.987c-0.316,0-0.63-0.04-0.934-0.118c-1.149-0.299-2.095-1.136-2.53-2.239l-2.604-6.604H3.827
		c-2.053,0-3.724-1.671-3.724-3.724V6.625c0-2.053,1.67-3.724,3.724-3.724h51.969c2.053,0,3.724,1.67,3.724,3.724v30.677
		c0,2.053-1.671,3.724-3.724,3.724H30.365l-9.884,8.116C19.818,49.687,18.978,49.987,18.118,49.987z"/>
</g>
<linearGradient id="SVGID_1_" gradientUnits="userSpaceOnUse" x1="29.8114" y1="3.5262" x2="29.8114" y2="49.3626">
	<stop  offset="0" style="stop-color:#405575"/>
	<stop  offset="1" style="stop-color:#31425D"/>
</linearGradient>
<path class="st3" d="M55.796,3.526H3.827c-1.711,0-3.099,1.387-3.099,3.099v30.677c0,1.711,1.387,3.099,3.099,3.099h8.649l2.76,7
	c0.363,0.922,1.146,1.614,2.104,1.863c0.257,0.067,0.518,0.099,0.778,0.099c0.709,0,1.406-0.244,1.967-0.704l10.056-8.258h25.655
	c1.711,0,3.099-1.387,3.099-3.099V6.625C58.895,4.913,57.507,3.526,55.796,3.526L55.796,3.526z"/>
<g>
	<g>
		<path class="st4" d="M11.984,28.844h-0.363v-4.367h0.363C11.984,24.478,11.984,28.844,11.984,28.844z"/>
		<path class="st4" d="M15.56,28.844H15.2l-1.95-3.657l-0.019,0.003v3.653h-0.363v-4.367h0.363l1.95,3.657l0.019-0.003v-3.653h0.36
			V28.844z"/>
		<path class="st4" d="M18.424,27.777c0-0.239-0.069-0.433-0.208-0.582s-0.384-0.281-0.733-0.396
			c-0.398-0.122-0.699-0.279-0.904-0.472s-0.308-0.451-0.308-0.775c0-0.334,0.115-0.607,0.344-0.819
			c0.229-0.213,0.523-0.317,0.887-0.317c0.38,0,0.685,0.125,0.916,0.375c0.231,0.25,0.344,0.555,0.337,0.914l-0.01,0.019h-0.339
			c0-0.29-0.081-0.528-0.242-0.712c-0.161-0.184-0.383-0.278-0.664-0.278c-0.274,0-0.487,0.076-0.639,0.231
			c-0.152,0.155-0.227,0.348-0.227,0.58c0,0.216,0.074,0.398,0.22,0.545c0.147,0.147,0.396,0.276,0.748,0.386
			c0.387,0.12,0.683,0.282,0.883,0.487s0.301,0.474,0.301,0.808c0,0.35-0.119,0.627-0.356,0.833
			c-0.237,0.205-0.542,0.308-0.914,0.308c-0.365,0-0.684-0.11-0.955-0.329c-0.27-0.22-0.401-0.539-0.392-0.957l0.005-0.019h0.336
			c0,0.342,0.098,0.594,0.296,0.756c0.197,0.162,0.434,0.242,0.71,0.242c0.272,0,0.491-0.075,0.657-0.226
			C18.34,28.227,18.424,28.025,18.424,27.777z"/>
		<path class="st4" d="M21.803,24.795h-1.22v4.049h-0.36v-4.049h-1.217v-0.318h2.798L21.803,24.795L21.803,24.795z"/>
		<path class="st4" d="M22.628,26.867v1.976h-0.36v-4.364h1.253c0.393,0,0.691,0.104,0.9,0.309c0.208,0.206,0.312,0.505,0.312,0.9
			c0,0.232-0.055,0.437-0.165,0.618s-0.266,0.314-0.468,0.4c0.221,0.069,0.382,0.191,0.479,0.366
			c0.097,0.176,0.146,0.395,0.146,0.658v0.411c0,0.136,0.013,0.258,0.039,0.366c0.026,0.108,0.07,0.196,0.132,0.264v0.072h-0.369
			c-0.061-0.072-0.105-0.172-0.128-0.301c-0.023-0.128-0.034-0.264-0.034-0.409v-0.4c0-0.264-0.068-0.475-0.201-0.633
			c-0.134-0.156-0.318-0.234-0.553-0.234h-0.985V26.867z M22.628,26.562h0.852c0.308,0,0.533-0.079,0.676-0.236
			s0.214-0.371,0.214-0.64c0-0.286-0.07-0.506-0.21-0.66c-0.141-0.155-0.352-0.231-0.639-0.231h-0.893v1.767H22.628z"/>
		<path class="st4" d="M27.993,24.477v3.057c0,0.446-0.119,0.786-0.358,1.022c-0.238,0.234-0.547,0.352-0.929,0.352
			c-0.374,0-0.676-0.118-0.908-0.352c-0.232-0.234-0.348-0.575-0.348-1.022v-3.057h0.354v3.061c0,0.342,0.083,0.605,0.25,0.788
			c0.167,0.183,0.385,0.275,0.653,0.275c0.282,0,0.508-0.087,0.676-0.263c0.169-0.176,0.253-0.443,0.253-0.8v-3.061
			C27.637,24.477,27.993,24.477,27.993,24.477z"/>
		<path class="st4" d="M31.118,27.576l0.009,0.019c-0.003,0.426-0.116,0.751-0.336,0.976c-0.22,0.226-0.523,0.337-0.908,0.337
			c-0.401,0-0.721-0.142-0.957-0.426c-0.236-0.285-0.354-0.689-0.354-1.215v-1.209c0-0.522,0.119-0.927,0.356-1.214
			c0.237-0.287,0.555-0.43,0.955-0.43c0.389,0,0.694,0.11,0.912,0.329c0.218,0.22,0.328,0.547,0.333,0.984l-0.009,0.019h-0.333
			c-0.011-0.346-0.091-0.602-0.24-0.767s-0.372-0.248-0.663-0.248c-0.3,0-0.534,0.112-0.702,0.339
			c-0.168,0.227-0.252,0.553-0.252,0.979v1.219c0,0.435,0.084,0.766,0.252,0.991c0.168,0.227,0.401,0.339,0.702,0.339
			c0.292,0,0.513-0.081,0.663-0.242c0.149-0.162,0.23-0.422,0.24-0.783h0.334C31.118,27.574,31.118,27.576,31.118,27.576z"/>
		<path class="st4" d="M34.113,24.795h-1.22v4.049h-0.36v-4.049h-1.217v-0.318h2.798L34.113,24.795L34.113,24.795z"/>
		<path class="st4" d="M34.998,28.844h-0.363v-4.367h0.363V28.844z"/>
		<path class="st4" d="M38.446,27.276c0,0.53-0.123,0.935-0.371,1.214c-0.248,0.279-0.586,0.419-1.015,0.419
			c-0.422,0-0.754-0.14-0.993-0.419c-0.241-0.278-0.361-0.683-0.361-1.214v-1.225c0-0.53,0.12-0.936,0.36-1.217
			c0.24-0.28,0.57-0.422,0.993-0.422c0.43,0,0.769,0.141,1.016,0.422c0.249,0.282,0.372,0.687,0.372,1.215L38.446,27.276
			L38.446,27.276z M38.091,26.043c0-0.432-0.089-0.757-0.267-0.975c-0.178-0.218-0.433-0.327-0.764-0.327
			c-0.322,0-0.568,0.109-0.74,0.327c-0.172,0.218-0.257,0.543-0.257,0.975v1.232c0,0.437,0.086,0.766,0.257,0.985
			c0.172,0.218,0.42,0.327,0.744,0.327c0.332,0,0.587-0.109,0.763-0.327c0.177-0.218,0.265-0.545,0.265-0.985
			C38.091,27.276,38.091,26.043,38.091,26.043z"/>
		<path class="st4" d="M41.791,28.844h-0.36l-1.95-3.657l-0.019,0.003v3.653h-0.363v-4.367h0.363l1.95,3.657l0.019-0.003v-3.653
			h0.36V28.844z"/>
		<path class="st4" d="M44.625,27.633h-1.592l-0.372,1.212h-0.372l1.383-4.367h0.327l1.369,4.367h-0.372L44.625,27.633z
			 M43.133,27.302h1.392l-0.684-2.247h-0.019L43.133,27.302z"/>
		<path class="st4" d="M46.172,28.539h1.764v0.306h-2.128v-4.367h0.363V28.539z"/>
		<path class="st4" d="M21.28,33.839c0-0.239-0.069-0.433-0.208-0.582c-0.14-0.148-0.384-0.281-0.733-0.395
			c-0.398-0.122-0.699-0.279-0.904-0.473c-0.205-0.192-0.308-0.451-0.308-0.775c0-0.334,0.115-0.606,0.344-0.819
			c0.229-0.213,0.523-0.318,0.887-0.318c0.38,0,0.685,0.125,0.916,0.375c0.231,0.25,0.344,0.555,0.337,0.914l-0.01,0.019h-0.339
			c0-0.29-0.081-0.527-0.242-0.712c-0.161-0.184-0.383-0.278-0.664-0.278c-0.274,0-0.487,0.076-0.639,0.231
			c-0.152,0.154-0.228,0.347-0.228,0.579c0,0.216,0.074,0.398,0.22,0.544c0.147,0.147,0.396,0.276,0.748,0.386
			c0.387,0.119,0.683,0.282,0.883,0.487s0.301,0.474,0.301,0.808c0,0.35-0.119,0.627-0.356,0.832
			c-0.237,0.205-0.542,0.308-0.914,0.308c-0.365,0-0.684-0.11-0.955-0.329c-0.27-0.22-0.401-0.539-0.392-0.957l0.005-0.019h0.336
			c0,0.342,0.098,0.594,0.296,0.756c0.197,0.161,0.434,0.242,0.71,0.242c0.272,0,0.491-0.075,0.657-0.226
			C21.197,34.287,21.28,34.088,21.28,33.839z"/>
		<path class="st4" d="M24.687,30.539v3.057c0,0.446-0.119,0.786-0.358,1.022c-0.238,0.234-0.547,0.352-0.929,0.352
			c-0.374,0-0.676-0.118-0.908-0.352c-0.232-0.234-0.348-0.575-0.348-1.022v-3.057h0.354V33.6c0,0.344,0.083,0.605,0.25,0.788
			c0.167,0.183,0.385,0.275,0.653,0.275c0.282,0,0.508-0.088,0.676-0.264c0.169-0.176,0.253-0.443,0.253-0.8v-3.061L24.687,30.539
			L24.687,30.539z"/>
		<path class="st4" d="M25.787,33.097v1.809h-0.36V30.54h1.292c0.382,0,0.678,0.117,0.888,0.35c0.21,0.234,0.314,0.543,0.314,0.927
			c0,0.387-0.105,0.698-0.314,0.931c-0.21,0.233-0.506,0.35-0.888,0.35h-0.932V33.097z M25.787,32.782h0.934
			c0.28,0,0.49-0.092,0.63-0.275c0.141-0.183,0.21-0.411,0.21-0.685c0-0.278-0.07-0.509-0.21-0.691
			c-0.141-0.182-0.35-0.275-0.63-0.275h-0.934V32.782z"/>
		<path class="st4" d="M28.873,33.097v1.809h-0.36V30.54h1.292c0.382,0,0.678,0.117,0.888,0.35c0.21,0.234,0.314,0.543,0.314,0.927
			c0,0.387-0.105,0.698-0.314,0.931c-0.21,0.233-0.506,0.35-0.888,0.35h-0.932V33.097z M28.873,32.782h0.934
			c0.28,0,0.49-0.092,0.63-0.275s0.21-0.411,0.21-0.685c0-0.278-0.07-0.509-0.21-0.691c-0.141-0.182-0.35-0.275-0.63-0.275h-0.934
			V32.782z"/>
		<path class="st4" d="M34.164,33.337c0,0.53-0.123,0.935-0.371,1.213c-0.248,0.279-0.586,0.419-1.015,0.419
			c-0.422,0-0.754-0.14-0.993-0.419c-0.241-0.278-0.361-0.683-0.361-1.213v-1.225c0-0.53,0.12-0.936,0.36-1.216
			c0.24-0.28,0.57-0.422,0.993-0.422c0.43,0,0.769,0.141,1.016,0.422c0.249,0.282,0.372,0.687,0.372,1.215L34.164,33.337
			L34.164,33.337z M33.807,32.105c0-0.432-0.089-0.757-0.267-0.975c-0.178-0.218-0.433-0.327-0.764-0.327
			c-0.322,0-0.568,0.109-0.74,0.327c-0.172,0.218-0.257,0.543-0.257,0.975v1.232c0,0.437,0.086,0.766,0.257,0.984
			c0.172,0.218,0.42,0.327,0.744,0.327c0.332,0,0.587-0.109,0.763-0.327c0.177-0.218,0.265-0.545,0.265-0.984V32.105z"/>
		<path class="st4" d="M35.171,32.93v1.976h-0.36v-4.364h1.253c0.393,0,0.691,0.103,0.9,0.309c0.208,0.206,0.312,0.505,0.312,0.899
			c0,0.232-0.055,0.437-0.165,0.618s-0.266,0.314-0.468,0.4c0.221,0.069,0.382,0.191,0.479,0.366
			c0.097,0.177,0.146,0.395,0.146,0.658v0.411c0,0.136,0.013,0.258,0.039,0.366c0.025,0.108,0.07,0.196,0.132,0.264v0.072h-0.369
			c-0.061-0.072-0.105-0.172-0.128-0.301c-0.023-0.128-0.034-0.264-0.034-0.409v-0.4c0-0.264-0.068-0.475-0.201-0.633
			c-0.134-0.156-0.318-0.234-0.553-0.234h-0.985V32.93z M35.171,32.624h0.852c0.308,0,0.533-0.079,0.676-0.236
			c0.143-0.157,0.214-0.371,0.214-0.64c0-0.286-0.07-0.506-0.21-0.66c-0.141-0.154-0.352-0.231-0.639-0.231H35.17v1.767H35.171z"/>
		<path class="st4" d="M40.268,30.857h-1.22v4.049h-0.36v-4.049h-1.217v-0.318h2.798L40.268,30.857L40.268,30.857z"/>
	</g>
	<g>
		<g>
			<g>
				
					<linearGradient id="SVGID_2_" gradientUnits="userSpaceOnUse" x1="15.8388" y1="0.5582" x2="15.8388" y2="10.0459" gradientTransform="matrix(1 0 0 1 0 10)">
					<stop  offset="0" style="stop-color:#FFFFFF"/>
					<stop  offset="0.3126" style="stop-color:#E2E1E0"/>
					<stop  offset="0.4767" style="stop-color:#E0E0DF"/>
					<stop  offset="0.7198" style="stop-color:#C8C8C8"/>
				</linearGradient>
				<path class="st5" d="M14.363,10.731l0.095,1.094c0.642-0.843,1.529-1.266,2.66-1.266c0.969,0,1.694,0.29,2.173,0.87
					c0.48,0.58,0.727,1.452,0.745,2.617v6h-2.91v-5.879c0-0.471-0.095-0.817-0.285-1.037c-0.19-0.22-0.533-0.332-1.033-0.332
					c-0.568,0-0.99,0.224-1.266,0.672v6.576h-2.901v-9.314h2.721V10.731z"/>
				
					<linearGradient id="SVGID_3_" gradientUnits="userSpaceOnUse" x1="41.7227" y1="0.7294" x2="41.7227" y2="10.0437" gradientTransform="matrix(1 0 0 1 0 10)">
					<stop  offset="0" style="stop-color:#FFFFFF"/>
					<stop  offset="0.3126" style="stop-color:#E2E1E0"/>
					<stop  offset="0.4767" style="stop-color:#E0E0DF"/>
					<stop  offset="0.7198" style="stop-color:#C8C8C8"/>
				</linearGradient>
				<path class="st6" d="M44.198,16.222l0.938-5.493h2.78l-2.195,9.314h-2.453l-1.541-5.527l-1.55,5.527h-2.453l-2.194-9.314h2.78
					l0.92,5.622l1.482-5.622h2.023L44.198,16.222z"/>
			</g>
			
				<linearGradient id="SVGID_4_" gradientUnits="userSpaceOnUse" x1="28.3625" y1="55.9497" x2="28.3625" y2="40.7083" gradientTransform="matrix(1 0 0 -1 0 63.45)">
				<stop  offset="0" style="stop-color:#FFFFFF"/>
				<stop  offset="0.3126" style="stop-color:#E2E1E0"/>
				<stop  offset="0.4767" style="stop-color:#E0E0DF"/>
				<stop  offset="0.7198" style="stop-color:#C8C8C8"/>
			</linearGradient>
			<path class="st7" d="M26.732,11.008c0.547,0,5.982,3.139,5.982,4.133c0,0.993-5.286,4.133-5.982,4.133
				C26.037,19.275,26.185,11.008,26.732,11.008z M28.363,7.5c4.137,0,7.491,3.412,7.491,7.621s-3.354,7.621-7.491,7.621
				s-7.492-3.412-7.492-7.623S24.224,7.5,28.363,7.5z"/>
			<path class="st8" d="M28.363,7.5c-3.261,0-6.032,2.12-7.061,5.076c1.293,0.936,3.024,1.599,4.978,1.853
				c0.048-1.805,0.212-3.423,0.453-3.423c0.406,0,3.482,1.719,5.058,3.014c1.38-0.408,2.579-1.032,3.497-1.809
				C34.164,9.447,31.487,7.5,28.363,7.5z"/>
			<path class="st9" d="M26.732,11.008c0.547,0,5.982,3.139,5.982,4.133c0,0.993-5.286,4.133-5.982,4.133
				C26.037,19.275,26.185,11.008,26.732,11.008z"/>
			<g>
				<path class="st10" d="M26.732,11.008c-0.069,0-0.133,0.134-0.188,0.368c0.697,0.101,5.947,3.151,5.947,4.128
					c0,0.037-0.011,0.077-0.024,0.122c0.157-0.191,0.249-0.357,0.249-0.484C32.712,14.147,27.279,11.008,26.732,11.008z"/>
			</g>
			<path class="st11" d="M26.279,14.432c0.577,0.076,1.172,0.116,1.782,0.116c1.328,0,2.589-0.188,3.727-0.523
				c-1.576-1.297-4.652-3.013-5.058-3.013C26.491,11.008,26.327,12.627,26.279,14.432z"/>
		</g>
		<g>
			<path class="st4" d="M50.124,10.101H49.69v1.204h-0.178v-1.204H49.08V9.955h1.044V10.101z"/>
			<path class="st4" d="M50.554,9.955l0.441,1.101l0.442-1.101h0.231v1.35h-0.179V10.78l0.017-0.568l-0.443,1.093h-0.136
				l-0.442-1.091l0.017,0.565v0.526h-0.178v-1.35H50.554z"/>
		</g>
	</g>
</g>
</svg>
