<?xml version="1.0" encoding="utf-8"?>
<!-- Generator: Adobe Illustrator 21.1.0, SVG Export Plug-In . SVG Version: 6.00 Build 0)  -->
<svg version="1.1" id="Layer_1" xmlns="http://www.w3.org/2000/svg" xmlns:xlink="http://www.w3.org/1999/xlink" x="0px" y="0px"
	 viewBox="0 0 45 45" style="enable-background:new 0 0 45 45;" xml:space="preserve">
<style type="text/css">
	.st0{fill:#FFFFFF;}
	.st1{fill:#8DC56F;}
</style>
<g>
	<g>
		<path class="st0" d="M9.17,32.626c0-0.221-0.078-0.397-0.234-0.526s-0.441-0.251-0.854-0.368c-0.414-0.116-0.716-0.242-0.906-0.38
			c-0.27-0.194-0.406-0.449-0.406-0.763c0-0.306,0.126-0.554,0.378-0.745c0.251-0.191,0.573-0.286,0.965-0.286
			c0.265,0,0.502,0.051,0.712,0.154c0.21,0.102,0.372,0.246,0.487,0.429s0.174,0.386,0.174,0.613h-0.34
			c0-0.274-0.094-0.494-0.281-0.659c-0.186-0.166-0.437-0.249-0.752-0.249c-0.306,0-0.549,0.068-0.73,0.206
			c-0.181,0.137-0.271,0.314-0.271,0.534c0,0.204,0.082,0.37,0.245,0.498c0.162,0.129,0.423,0.242,0.782,0.34
			c0.358,0.098,0.63,0.199,0.815,0.306c0.186,0.105,0.325,0.231,0.417,0.378c0.094,0.146,0.141,0.319,0.141,0.518
			c0,0.314-0.126,0.567-0.378,0.758c-0.252,0.19-0.583,0.285-0.995,0.285c-0.282,0-0.541-0.05-0.775-0.151
			c-0.235-0.1-0.414-0.241-0.536-0.422c-0.122-0.182-0.182-0.389-0.182-0.623h0.338c0,0.282,0.105,0.505,0.315,0.667
			s0.49,0.241,0.84,0.241c0.311,0,0.561-0.069,0.749-0.206C9.075,33.036,9.17,32.854,9.17,32.626z"/>
		<path class="st0" d="M11.118,33.388c0.229,0,0.421-0.065,0.575-0.194s0.238-0.296,0.25-0.5h0.316
			c-0.01,0.182-0.066,0.346-0.17,0.495c-0.104,0.15-0.242,0.266-0.416,0.35c-0.173,0.084-0.358,0.126-0.556,0.126
			c-0.39,0-0.698-0.135-0.926-0.406c-0.227-0.27-0.342-0.635-0.342-1.092v-0.098c0-0.293,0.051-0.552,0.154-0.776
			c0.102-0.226,0.249-0.399,0.441-0.522c0.191-0.122,0.415-0.183,0.672-0.183c0.326,0,0.594,0.097,0.805,0.291
			c0.212,0.194,0.325,0.45,0.339,0.766h-0.317c-0.014-0.233-0.098-0.421-0.25-0.563c-0.154-0.143-0.346-0.214-0.578-0.214
			c-0.297,0-0.527,0.107-0.69,0.321c-0.164,0.214-0.246,0.515-0.246,0.9v0.097c0,0.378,0.082,0.674,0.246,0.887
			C10.588,33.281,10.819,33.388,11.118,33.388z"/>
		<path class="st0" d="M13.101,31.141c0.109-0.177,0.246-0.314,0.414-0.411c0.169-0.097,0.353-0.146,0.551-0.146
			c0.318,0,0.556,0.09,0.711,0.27c0.155,0.179,0.234,0.449,0.236,0.807v1.949h-0.326v-1.952c-0.002-0.265-0.058-0.462-0.169-0.593
			c-0.111-0.13-0.288-0.194-0.531-0.194c-0.203,0-0.383,0.063-0.539,0.19c-0.157,0.126-0.272,0.299-0.348,0.515v2.034h-0.326v-4.216
			H13.1L13.101,31.141C13.1,31.141,13.101,31.141,13.101,31.141z"/>
		<path class="st0" d="M16.87,33.664c-0.253,0-0.481-0.062-0.684-0.186c-0.205-0.125-0.363-0.298-0.477-0.521
			c-0.114-0.222-0.17-0.472-0.17-0.748v-0.118c0-0.285,0.054-0.543,0.166-0.772c0.111-0.229,0.265-0.409,0.462-0.539
			c0.198-0.131,0.413-0.197,0.643-0.197c0.36,0,0.646,0.123,0.858,0.37c0.211,0.246,0.318,0.582,0.318,1.009v0.184h-2.119v0.062
			c0,0.337,0.097,0.617,0.29,0.841c0.193,0.225,0.436,0.337,0.729,0.337c0.176,0,0.33-0.033,0.465-0.097
			c0.134-0.064,0.256-0.166,0.366-0.307l0.206,0.156C17.679,33.489,17.329,33.664,16.87,33.664z M16.81,30.865
			c-0.248,0-0.456,0.09-0.624,0.272c-0.169,0.181-0.272,0.425-0.309,0.73h1.782v-0.035c-0.01-0.285-0.09-0.518-0.244-0.697
			C17.26,30.954,17.059,30.865,16.81,30.865z"/>
		<path class="st0" d="M18.351,32.097c0-0.461,0.102-0.828,0.309-1.102c0.206-0.274,0.486-0.41,0.838-0.41
			c0.401,0,0.706,0.158,0.918,0.475v-1.666h0.326v4.215h-0.307l-0.014-0.395c-0.21,0.3-0.52,0.45-0.927,0.45
			c-0.342,0-0.618-0.138-0.828-0.413c-0.21-0.276-0.314-0.647-0.314-1.115L18.351,32.097C18.352,32.097,18.351,32.097,18.351,32.097
			z M18.683,32.155c0,0.378,0.075,0.678,0.228,0.896c0.151,0.219,0.366,0.328,0.642,0.328c0.405,0,0.692-0.178,0.862-0.536v-1.394
			c-0.17-0.385-0.457-0.579-0.856-0.579c-0.278,0-0.492,0.109-0.645,0.326C18.76,31.413,18.683,31.732,18.683,32.155z"/>
		<path class="st0" d="M23.376,33.233c-0.198,0.287-0.514,0.43-0.947,0.43c-0.318,0-0.558-0.092-0.722-0.276
			c-0.165-0.184-0.249-0.457-0.253-0.817v-1.933h0.327v1.891c0,0.565,0.228,0.847,0.686,0.847c0.476,0,0.777-0.197,0.903-0.59
			v-2.149h0.329v2.97H23.38L23.376,33.233z"/>
		<path class="st0" d="M24.781,33.609h-0.329v-4.216h0.329V33.609z"/>
		<path class="st0" d="M26.683,33.664c-0.253,0-0.481-0.062-0.685-0.186c-0.205-0.125-0.363-0.298-0.477-0.521
			c-0.114-0.222-0.17-0.472-0.17-0.748v-0.118c0-0.285,0.055-0.543,0.166-0.772s0.265-0.409,0.463-0.539
			c0.198-0.131,0.411-0.197,0.642-0.197c0.361,0,0.646,0.123,0.858,0.37c0.211,0.246,0.317,0.582,0.317,1.009v0.184h-2.119v0.062
			c0,0.337,0.098,0.617,0.29,0.841c0.194,0.225,0.436,0.337,0.729,0.337c0.176,0,0.33-0.033,0.465-0.097
			c0.134-0.064,0.257-0.166,0.366-0.307l0.206,0.156C27.492,33.489,27.141,33.664,26.683,33.664z M26.621,30.865
			c-0.246,0-0.455,0.09-0.624,0.272c-0.17,0.181-0.273,0.425-0.309,0.73h1.782v-0.035c-0.01-0.285-0.09-0.518-0.245-0.697
			C27.071,30.954,26.87,30.865,26.621,30.865z"/>
		<path class="st0" d="M32.429,32.364c-0.046,0.422-0.197,0.743-0.452,0.966c-0.255,0.223-0.595,0.334-1.019,0.334
			c-0.297,0-0.558-0.074-0.787-0.222c-0.227-0.149-0.404-0.358-0.529-0.63s-0.188-0.582-0.19-0.932v-0.519
			c0-0.354,0.062-0.67,0.186-0.944c0.124-0.274,0.303-0.486,0.537-0.635c0.234-0.15,0.502-0.224,0.806-0.224
			c0.428,0,0.766,0.115,1.014,0.346c0.248,0.23,0.392,0.55,0.433,0.958h-0.341c-0.085-0.679-0.453-1.018-1.106-1.018
			c-0.362,0-0.651,0.135-0.866,0.406c-0.214,0.27-0.322,0.645-0.322,1.123v0.489c0,0.462,0.105,0.83,0.314,1.105
			c0.21,0.274,0.493,0.412,0.85,0.412c0.353,0,0.619-0.085,0.798-0.254c0.179-0.169,0.29-0.423,0.333-0.762L32.429,32.364
			L32.429,32.364z"/>
		<path class="st0" d="M34.907,33.609c-0.033-0.094-0.054-0.231-0.063-0.414c-0.115,0.15-0.262,0.266-0.441,0.348
			c-0.178,0.082-0.368,0.122-0.567,0.122c-0.285,0-0.516-0.079-0.693-0.239c-0.176-0.158-0.265-0.36-0.265-0.604
			c0-0.289,0.12-0.517,0.361-0.686c0.241-0.169,0.576-0.253,1.006-0.253h0.596v-0.337c0-0.212-0.066-0.379-0.197-0.5
			c-0.131-0.122-0.322-0.182-0.572-0.182c-0.23,0-0.418,0.058-0.569,0.176c-0.15,0.118-0.226,0.257-0.226,0.422l-0.329-0.002
			c0-0.236,0.11-0.441,0.329-0.614c0.22-0.173,0.489-0.259,0.81-0.259c0.331,0,0.593,0.083,0.784,0.249s0.29,0.397,0.295,0.693
			v1.406c0,0.288,0.03,0.502,0.09,0.645v0.033h-0.35C34.906,33.611,34.906,33.609,34.907,33.609z M33.875,33.373
			c0.22,0,0.415-0.054,0.588-0.159c0.173-0.106,0.298-0.248,0.378-0.426v-0.652h-0.587c-0.328,0.004-0.584,0.063-0.768,0.179
			c-0.185,0.117-0.277,0.276-0.277,0.479c0,0.166,0.062,0.305,0.186,0.414C33.516,33.318,33.677,33.373,33.875,33.373z"/>
		<path class="st0" d="M36.269,33.609H35.94v-4.216h0.329C36.269,29.393,36.269,33.609,36.269,33.609z"/>
		<path class="st0" d="M37.389,33.609H37.06v-4.216h0.329V33.609z"/>
	</g>
	<path class="st1" d="M31.236,15.399c-0.142-0.424-0.346-0.812-0.624-1.162c-0.177-0.221-0.378-0.414-0.61-0.576
		c-0.034-0.024-0.071-0.067-0.075-0.105c-0.025-0.202-0.032-0.406-0.059-0.607c-0.054-0.406-0.114-0.81-0.178-1.214
		c-0.018-0.119-0.062-0.234-0.089-0.352c-0.032-0.146-0.051-0.294-0.09-0.438c-0.067-0.248-0.142-0.495-0.218-0.741
		c-0.141-0.45-0.327-0.882-0.549-1.299c-0.025-0.047-0.029-0.085-0.008-0.138c0.085-0.214,0.084-0.438-0.042-0.628
		c-0.195-0.295-0.404-0.584-0.632-0.854c-0.504-0.594-1.11-1.066-1.798-1.434c-0.474-0.253-0.97-0.449-1.49-0.583
		c-0.154-0.04-0.312-0.06-0.466-0.093c-0.133-0.029-0.262-0.075-0.395-0.094c-0.345-0.048-0.69-0.096-1.038-0.125
		c-0.719-0.06-1.438-0.044-2.151,0.054c-0.436,0.06-0.87,0.143-1.299,0.244c-0.388,0.091-0.762,0.234-1.127,0.399
		c-0.513,0.231-0.987,0.522-1.424,0.875c-0.528,0.426-0.965,0.932-1.343,1.492c-0.159,0.235-0.213,0.485-0.11,0.758
		c0.012,0.032,0.011,0.078-0.004,0.11c-0.119,0.263-0.254,0.521-0.362,0.789c-0.238,0.592-0.421,1.202-0.538,1.83
		c-0.064,0.345-0.127,0.69-0.178,1.038c-0.041,0.278-0.075,0.559-0.09,0.84c-0.008,0.156-0.074,0.245-0.196,0.331
		c-0.482,0.344-0.805,0.818-1.041,1.35c-0.222,0.501-0.327,1.033-0.348,1.58c-0.023,0.61,0.062,1.203,0.278,1.777
		c0.216,0.572,0.536,1.074,1.011,1.463c0.411,0.337,0.88,0.534,1.421,0.551c0.229,0.008,0.397-0.082,0.537-0.248
		c0.155-0.184,0.254-0.401,0.332-0.624c0.175-0.495,0.262-1.011,0.313-1.53c0.066-0.673,0.087-1.347,0.029-2.022
		c-0.026-0.298-0.058-0.596-0.101-0.891c-0.031-0.212-0.081-0.422-0.13-0.63c-0.076-0.324-0.183-0.636-0.371-0.913
		c-0.138-0.204-0.313-0.357-0.582-0.347c-0.159,0.006-0.167,0.002-0.148-0.157c0.038-0.314,0.078-0.628,0.128-0.94
		c0.035-0.22,0.077-0.441,0.134-0.656c0.103-0.389,0.201-0.781,0.337-1.158c0.126-0.351,0.297-0.687,0.455-1.026
		c0.024-0.051,0.086-0.086,0.132-0.125c0.093-0.079,0.202-0.145,0.278-0.238c0.15-0.182,0.274-0.385,0.422-0.57
		c0.371-0.463,0.823-0.834,1.338-1.127c0.382-0.218,0.787-0.386,1.212-0.502c0.251-0.068,0.505-0.14,0.762-0.176
		c0.394-0.055,0.79-0.091,1.187-0.118c0.576-0.039,1.151-0.015,1.723,0.063c0.287,0.039,0.574,0.091,0.854,0.161
		c0.464,0.114,0.911,0.278,1.336,0.504c0.745,0.395,1.342,0.948,1.803,1.651c0.105,0.161,0.223,0.302,0.409,0.373
		c0.022,0.009,0.047,0.029,0.056,0.05c0.158,0.34,0.335,0.673,0.465,1.024c0.139,0.376,0.238,0.767,0.346,1.155
		c0.054,0.197,0.095,0.398,0.129,0.599c0.05,0.301,0.089,0.603,0.131,0.905c0.014,0.105,0.025,0.211,0.038,0.325
		c-0.043-0.004-0.071-0.008-0.1-0.01c-0.131-0.01-0.261-0.012-0.382,0.054c-0.234,0.128-0.358,0.346-0.464,0.576
		c-0.166,0.363-0.253,0.75-0.324,1.142c-0.084,0.468-0.124,0.939-0.142,1.413c-0.018,0.477-0.003,0.954,0.04,1.43
		c0.038,0.418,0.092,0.831,0.189,1.238c0.083,0.35,0.189,0.693,0.392,0.996c0.153,0.227,0.344,0.385,0.641,0.349
		c0.039-0.004,0.078-0.001,0.132-0.001c-0.35,1.006-0.895,1.863-1.71,2.552c-0.021-0.024-0.034-0.036-0.042-0.05
		c-0.188-0.317-0.566-0.457-0.929-0.35c-0.416,0.124-0.828,0.262-1.242,0.392c-0.248,0.078-0.494,0.162-0.746,0.23
		c-0.422,0.114-0.714,0.446-0.654,0.882c0.034,0.246,0.117,0.491,0.214,0.722c0.141,0.333,0.565,0.515,0.913,0.412
		c0.402-0.119,0.802-0.249,1.202-0.374c0.246-0.077,0.492-0.151,0.738-0.23c0.173-0.055,0.352-0.099,0.49-0.23
		c0.193-0.182,0.287-0.403,0.262-0.669c-0.005-0.058,0.014-0.094,0.059-0.13c0.105-0.082,0.205-0.169,0.305-0.255
		c0.297-0.254,0.555-0.544,0.789-0.857c0.338-0.454,0.614-0.942,0.822-1.468c0.086-0.218,0.155-0.442,0.222-0.666
		c0.022-0.074,0.046-0.129,0.119-0.165c0.427-0.211,0.76-0.532,1.027-0.918c0.456-0.658,0.674-1.398,0.713-2.193
		C31.488,16.501,31.418,15.943,31.236,15.399z"/>
</g>
</svg>
