<?xml version="1.0" encoding="utf-8"?>
<!-- Generator: Adobe Illustrator 21.1.0, SVG Export Plug-In . SVG Version: 6.00 Build 0)  -->
<svg version="1.1" id="Layer_1" xmlns="http://www.w3.org/2000/svg" xmlns:xlink="http://www.w3.org/1999/xlink" x="0px" y="0px"
	 viewBox="0 0 60 60" style="enable-background:new 0 0 60 60;" xml:space="preserve">
<style type="text/css">
	.st0{fill:#ECEEEF;}
	.st1{fill:url(#SVGID_1_);}
	.st2{fill:url(#SVGID_2_);}
	.st3{fill:url(#SVGID_3_);}
	.st4{fill:url(#SVGID_4_);}
	.st5{fill:url(#SVGID_5_);}
	.st6{opacity:0.44;fill:#FFFFFF;enable-background:new    ;}
	.st7{fill:#8DC56F;}
	.st8{fill:#6CB048;}
	.st9{opacity:0.33;fill:#FFFFFF;enable-background:new    ;}
</style>
<circle class="st0" cx="33.444" cy="30.106" r="26.06"/>
<linearGradient id="SVGID_1_" gradientUnits="userSpaceOnUse" x1="33.444" y1="124.383" x2="33.444" y2="175.829" gradientTransform="matrix(1 0 0 1 0 -120)">
	<stop  offset="0" style="stop-color:#FFFFFF"/>
	<stop  offset="0.2156" style="stop-color:#FCFCFD"/>
	<stop  offset="0.3832" style="stop-color:#F2F3F6"/>
	<stop  offset="0.5345" style="stop-color:#E2E3EA"/>
	<stop  offset="0.6764" style="stop-color:#CACDDA"/>
	<stop  offset="0.8116" style="stop-color:#ACB1C5"/>
	<stop  offset="0.9401" style="stop-color:#888FAC"/>
	<stop  offset="1" style="stop-color:#747C9E"/>
</linearGradient>
<circle class="st1" cx="33.444" cy="30.106" r="25.723"/>
<linearGradient id="SVGID_2_" gradientUnits="userSpaceOnUse" x1="33.444" y1="127.276" x2="33.444" y2="173.122" gradientTransform="matrix(1 0 0 1 0 -120)">
	<stop  offset="8.851601e-04" style="stop-color:#C50F3C"/>
	<stop  offset="0.838" style="stop-color:#680030"/>
</linearGradient>
<circle class="st2" cx="33.444" cy="30.199" r="22.923"/>
<g>
	<g>
		<g>
			<g>
				
					<linearGradient id="SVGID_3_" gradientUnits="userSpaceOnUse" x1="19.085" y1="-75.101" x2="19.085" y2="-84.972" gradientTransform="matrix(1 0 0 -1 0 -50)">
					<stop  offset="0" style="stop-color:#FFFFFF"/>
					<stop  offset="0.3126" style="stop-color:#E2E1E0"/>
					<stop  offset="0.4767" style="stop-color:#E0E0DF"/>
					<stop  offset="0.7198" style="stop-color:#C8C8C8"/>
				</linearGradient>
				<path class="st3" d="M17.549,25.279l0.099,1.138c0.668-0.876,1.591-1.316,2.768-1.316c1.008,0,1.762,0.303,2.261,0.905
					c0.498,0.604,0.757,1.51,0.775,2.723v6.243h-3.028v-6.117c0-0.489-0.099-0.85-0.298-1.079c-0.196-0.229-0.553-0.345-1.073-0.345
					c-0.591,0-1.03,0.233-1.316,0.699v6.841h-3.019V25.28L17.549,25.279L17.549,25.279L17.549,25.279z"/>
				
					<linearGradient id="SVGID_4_" gradientUnits="userSpaceOnUse" x1="46.015" y1="-75.277" x2="46.015" y2="-84.968" gradientTransform="matrix(1 0 0 -1 0 -50)">
					<stop  offset="0" style="stop-color:#FFFFFF"/>
					<stop  offset="0.3126" style="stop-color:#E2E1E0"/>
					<stop  offset="0.4767" style="stop-color:#E0E0DF"/>
					<stop  offset="0.7198" style="stop-color:#C8C8C8"/>
				</linearGradient>
				<path class="st4" d="M48.592,30.992l0.975-5.715h2.893l-2.284,9.691h-2.553l-1.604-5.751l-1.613,5.751h-2.553l-2.283-9.691
					h2.893l0.957,5.85l1.541-5.85h2.104L48.592,30.992z"/>
			</g>
			
				<linearGradient id="SVGID_5_" gradientUnits="userSpaceOnUse" x1="32.116" y1="128.467" x2="32.116" y2="144.327" gradientTransform="matrix(1 0 0 1 0 -106.55)">
				<stop  offset="0" style="stop-color:#FFFFFF"/>
				<stop  offset="0.3126" style="stop-color:#E2E1E0"/>
				<stop  offset="0.4767" style="stop-color:#E0E0DF"/>
				<stop  offset="0.7198" style="stop-color:#C8C8C8"/>
			</linearGradient>
			<path class="st5" d="M30.419,25.567c0.569,0,6.224,3.266,6.224,4.301c0,1.033-5.501,4.301-6.224,4.301
				C29.695,34.169,29.848,25.567,30.419,25.567z M32.116,21.917c4.304,0,7.795,3.551,7.795,7.93s-3.489,7.93-7.795,7.93
				s-7.795-3.551-7.795-7.932S27.809,21.917,32.116,21.917z"/>
			<path class="st6" d="M32.116,21.917c-3.394,0-6.277,2.206-7.346,5.281c1.346,0.974,3.147,1.663,5.179,1.928
				c0.049-1.878,0.221-3.561,0.47-3.561c0.423,0,3.624,1.79,5.263,3.137c1.437-0.425,2.684-1.074,3.639-1.883
				C38.151,23.943,35.366,21.917,32.116,21.917z"/>
			<path class="st7" d="M30.419,25.567c0.569,0,6.224,3.266,6.224,4.301c0,1.033-5.501,4.301-6.224,4.301
				C29.695,34.169,29.848,25.567,30.419,25.567z"/>
			<g>
				<path class="st8" d="M30.419,25.567c-0.072,0-0.137,0.139-0.196,0.383c0.724,0.105,6.188,3.278,6.188,4.295
					c0,0.037-0.011,0.08-0.025,0.127c0.163-0.199,0.259-0.372,0.259-0.504C36.641,28.832,30.987,25.567,30.419,25.567z"/>
			</g>
			<path class="st9" d="M29.947,29.13c0.599,0.078,1.22,0.121,1.854,0.121c1.382,0,2.694-0.196,3.878-0.544
				c-1.639-1.35-4.84-3.136-5.263-3.136C30.167,25.567,29.997,27.252,29.947,29.13z"/>
		</g>
	</g>
</g>
</svg>
