<?xml version="1.0" encoding="utf-8"?>
<!-- Generator: Adobe Illustrator 21.1.0, SVG Export Plug-In . SVG Version: 6.00 Build 0)  -->
<svg version="1.1" id="Layer_1" xmlns="http://www.w3.org/2000/svg" xmlns:xlink="http://www.w3.org/1999/xlink" x="0px" y="0px"
	 viewBox="0 0 45 45" style="enable-background:new 0 0 45 45;" xml:space="preserve">
<style type="text/css">
	.st0{fill:url(#SVGID_1_);}
	.st1{fill:url(#SVGID_2_);}
	.st2{fill:url(#SVGID_3_);}
	.st3{opacity:0.44;fill:#FFFFFF;enable-background:new    ;}
	.st4{fill:#8DC56F;}
	.st5{fill:#6CB048;}
	.st6{opacity:0.33;fill:#FFFFFF;enable-background:new    ;}
	.st7{fill:#FFFFFF;}
</style>
<g>
	<g>
		
			<linearGradient id="SVGID_1_" gradientUnits="userSpaceOnUse" x1="4.0505" y1="6.235" x2="4.0505" y2="-2.011" gradientTransform="matrix(1 0 0 -1 0 16)">
			<stop  offset="0" style="stop-color:#FFFFFF"/>
			<stop  offset="0.3126" style="stop-color:#E2E1E0"/>
			<stop  offset="0.4767" style="stop-color:#E0E0DF"/>
			<stop  offset="0.7198" style="stop-color:#C8C8C8"/>
		</linearGradient>
		<path class="st0" d="M2.768,9.915l0.082,0.95c0.558-0.733,1.329-1.1,2.312-1.1c0.842,0,1.472,0.252,1.889,0.756
			s0.632,1.262,0.647,2.274v5.215H5.17v-5.109c0-0.409-0.082-0.71-0.247-0.902c-0.165-0.192-0.464-0.288-0.898-0.288
			c-0.494,0-0.861,0.194-1.1,0.584v5.716H0.403V9.915H2.768z"/>
		
			<linearGradient id="SVGID_2_" gradientUnits="userSpaceOnUse" x1="26.5475" y1="6.085" x2="26.5475" y2="-2.011" gradientTransform="matrix(1 0 0 -1 0 16)">
			<stop  offset="0" style="stop-color:#FFFFFF"/>
			<stop  offset="0.3126" style="stop-color:#E2E1E0"/>
			<stop  offset="0.4767" style="stop-color:#E0E0DF"/>
			<stop  offset="0.7198" style="stop-color:#C8C8C8"/>
		</linearGradient>
		<path class="st1" d="M28.699,14.689l0.815-4.774h2.416l-1.908,8.096H27.89l-1.339-4.803l-1.347,4.803h-2.132l-1.907-8.096h2.416
			l0.8,4.886l1.288-4.886h1.758L28.699,14.689z"/>
	</g>
	
		<linearGradient id="SVGID_3_" gradientUnits="userSpaceOnUse" x1="14.9355" y1="46.658" x2="14.9355" y2="59.904" gradientTransform="matrix(1 0 0 1 0 -39.55)">
		<stop  offset="0" style="stop-color:#FFFFFF"/>
		<stop  offset="0.3126" style="stop-color:#E2E1E0"/>
		<stop  offset="0.4767" style="stop-color:#E0E0DF"/>
		<stop  offset="0.7198" style="stop-color:#C8C8C8"/>
	</linearGradient>
	<path class="st2" d="M13.519,10.156c0.476,0,5.199,2.728,5.199,3.592c0,0.863-4.594,3.592-5.199,3.592
		C12.915,17.341,13.044,10.156,13.519,10.156z M14.936,7.108c3.596,0,6.51,2.966,6.51,6.623c0,3.658-2.915,6.623-6.51,6.623
		s-6.511-2.966-6.511-6.625S11.34,7.108,14.936,7.108z"/>
	<path class="st3" d="M14.936,7.108c-2.834,0-5.242,1.842-6.137,4.412c1.124,0.813,2.629,1.389,4.327,1.611
		c0.042-1.569,0.184-2.975,0.394-2.975c0.352,0,3.026,1.494,4.396,2.619c1.199-0.354,2.242-0.897,3.039-1.572
		C19.978,8.8,17.652,7.108,14.936,7.108z"/>
	<path class="st4" d="M13.519,10.156c0.476,0,5.199,2.728,5.199,3.592c0,0.863-4.594,3.592-5.199,3.592
		C12.915,17.341,13.044,10.156,13.519,10.156z"/>
	<g>
		<path class="st5" d="M13.519,10.156c-0.06,0-0.115,0.116-0.163,0.32c0.605,0.088,5.168,2.738,5.168,3.588
			c0,0.032-0.009,0.068-0.021,0.106c0.137-0.166,0.216-0.31,0.216-0.421C18.717,12.884,13.994,10.156,13.519,10.156z"/>
	</g>
	<path class="st6" d="M13.125,13.132c0.502,0.066,1.019,0.1,1.549,0.1c1.155,0,2.251-0.163,3.24-0.455
		c-1.369-1.127-4.043-2.619-4.396-2.619C13.309,10.156,13.167,11.563,13.125,13.132z"/>
</g>
<g>
	<path class="st7" d="M0.702,27.388H0.387v-3.795h0.315V27.388z"/>
	<path class="st7" d="M3.81,27.388H3.497l-1.695-3.177l-0.016,0.002v3.175H1.471v-3.795h0.315l1.695,3.178l0.016-0.002v-3.175H3.81
		C3.81,23.594,3.81,27.388,3.81,27.388z"/>
	<path class="st7" d="M6.299,26.46c0-0.208-0.06-0.376-0.181-0.506c-0.121-0.13-0.334-0.245-0.637-0.344
		c-0.346-0.106-0.608-0.243-0.786-0.41c-0.178-0.168-0.268-0.392-0.268-0.674c0-0.29,0.1-0.528,0.299-0.711
		c0.199-0.184,0.455-0.276,0.771-0.276c0.33,0,0.595,0.109,0.796,0.326c0.201,0.217,0.299,0.483,0.293,0.795l-0.008,0.016H6.283
		c0-0.252-0.07-0.459-0.21-0.619c-0.14-0.161-0.333-0.241-0.577-0.241c-0.238,0-0.423,0.067-0.555,0.201s-0.198,0.301-0.198,0.503
		c0,0.188,0.064,0.346,0.192,0.474s0.344,0.24,0.651,0.335c0.337,0.105,0.593,0.245,0.767,0.423s0.262,0.413,0.262,0.702
		c0,0.304-0.103,0.545-0.309,0.724c-0.206,0.178-0.471,0.268-0.794,0.268c-0.318,0-0.595-0.096-0.83-0.287
		c-0.236-0.191-0.349-0.469-0.34-0.832l0.005-0.016h0.292c0,0.297,0.086,0.516,0.257,0.657c0.171,0.141,0.377,0.211,0.617,0.211
		c0.236,0,0.427-0.065,0.571-0.196C6.226,26.852,6.299,26.676,6.299,26.46z"/>
	<path class="st7" d="M9.236,23.87H8.175v3.52H7.862v-3.52H6.804v-0.277h2.433L9.236,23.87L9.236,23.87z"/>
	<path class="st7" d="M9.952,25.67v1.718H9.639v-3.792h1.089c0.341,0,0.601,0.09,0.782,0.268c0.181,0.179,0.271,0.439,0.271,0.781
		c0,0.202-0.048,0.38-0.143,0.538c-0.096,0.157-0.231,0.273-0.407,0.348c0.193,0.059,0.332,0.166,0.416,0.319
		c0.084,0.153,0.127,0.343,0.127,0.571v0.357c0,0.119,0.012,0.225,0.034,0.319s0.061,0.17,0.114,0.23v0.063h-0.32
		c-0.054-0.063-0.091-0.15-0.111-0.262c-0.02-0.111-0.03-0.23-0.03-0.356v-0.348c0-0.23-0.058-0.413-0.175-0.549
		c-0.116-0.136-0.277-0.204-0.48-0.204L9.952,25.67L9.952,25.67z M9.952,25.405h0.74c0.268,0,0.464-0.068,0.588-0.205
		c0.124-0.137,0.186-0.322,0.186-0.557c0-0.249-0.061-0.44-0.183-0.573c-0.122-0.134-0.306-0.201-0.555-0.201H9.952
		C9.952,23.87,9.952,25.405,9.952,25.405z"/>
	<path class="st7" d="M14.616,23.593v2.657c0,0.388-0.104,0.683-0.31,0.888c-0.207,0.204-0.476,0.306-0.808,0.306
		c-0.325,0-0.588-0.102-0.79-0.306s-0.302-0.5-0.302-0.888v-2.657h0.308v2.661c0,0.297,0.072,0.526,0.217,0.685
		c0.145,0.159,0.334,0.239,0.567,0.239c0.245,0,0.441-0.076,0.588-0.228s0.22-0.385,0.22-0.696v-2.661H14.616z"/>
	<path class="st7" d="M17.332,26.286l0.007,0.016c-0.003,0.371-0.1,0.653-0.292,0.848c-0.191,0.196-0.455,0.293-0.79,0.293
		c-0.349,0-0.627-0.124-0.832-0.371s-0.308-0.599-0.308-1.056v-1.051c0-0.454,0.103-0.805,0.309-1.055s0.483-0.374,0.83-0.374
		c0.338,0,0.603,0.096,0.792,0.287s0.286,0.476,0.289,0.855l-0.007,0.016h-0.289c-0.009-0.301-0.078-0.523-0.208-0.666
		c-0.13-0.143-0.323-0.215-0.576-0.215c-0.261,0-0.464,0.098-0.61,0.295s-0.219,0.48-0.219,0.851v1.06
		c0,0.378,0.073,0.665,0.219,0.861c0.146,0.197,0.349,0.295,0.61,0.295c0.254,0,0.446-0.07,0.576-0.211
		c0.13-0.141,0.2-0.367,0.208-0.68h0.29C17.332,26.285,17.332,26.286,17.332,26.286z"/>
	<path class="st7" d="M19.935,23.87h-1.061v3.52h-0.313v-3.52h-1.058v-0.277h2.433L19.935,23.87L19.935,23.87z"/>
	<path class="st7" d="M20.704,27.388h-0.315v-3.795h0.315V27.388z"/>
	<path class="st7" d="M23.701,26.025c0,0.46-0.107,0.812-0.322,1.055s-0.509,0.364-0.883,0.364c-0.366,0-0.655-0.121-0.864-0.364
		c-0.209-0.242-0.314-0.594-0.314-1.055v-1.064c0-0.46,0.105-0.813,0.313-1.057s0.496-0.366,0.863-0.366
		c0.374,0,0.669,0.123,0.884,0.367c0.216,0.245,0.324,0.597,0.324,1.056L23.701,26.025L23.701,26.025z M23.392,24.954
		c0-0.376-0.077-0.658-0.232-0.847s-0.376-0.284-0.665-0.284c-0.28,0-0.494,0.095-0.644,0.284c-0.15,0.189-0.224,0.472-0.224,0.847
		v1.071c0,0.38,0.075,0.665,0.224,0.856c0.15,0.189,0.365,0.284,0.646,0.284c0.288,0,0.51-0.095,0.664-0.284
		s0.231-0.474,0.231-0.856C23.392,26.025,23.392,24.954,23.392,24.954z"/>
	<path class="st7" d="M26.608,27.388h-0.313L24.6,24.211l-0.016,0.002v3.175h-0.315v-3.795h0.315l1.695,3.178l0.016-0.002v-3.175
		h0.313V27.388z"/>
	<path class="st7" d="M29.071,26.335h-1.384l-0.324,1.053H27.04l1.201-3.795h0.284l1.189,3.795h-0.323L29.071,26.335z
		 M27.775,26.048h1.21l-0.595-1.952h-0.016L27.775,26.048z"/>
	<path class="st7" d="M30.415,27.122h1.533v0.266H30.1v-3.795h0.315V27.122z"/>
	<path class="st7" d="M8.781,31.729c0-0.208-0.06-0.376-0.181-0.506c-0.121-0.129-0.334-0.245-0.637-0.343
		c-0.346-0.106-0.608-0.243-0.786-0.411c-0.178-0.168-0.267-0.393-0.267-0.674c0-0.29,0.1-0.527,0.299-0.711
		s0.455-0.277,0.771-0.277c0.33,0,0.595,0.109,0.796,0.326c0.201,0.217,0.299,0.483,0.293,0.795l-0.008,0.016H8.766
		c0-0.252-0.07-0.458-0.21-0.619s-0.333-0.241-0.577-0.241c-0.238,0-0.423,0.067-0.555,0.201c-0.132,0.133-0.198,0.301-0.198,0.503
		c0,0.188,0.064,0.346,0.192,0.473c0.128,0.128,0.344,0.24,0.651,0.335c0.337,0.104,0.593,0.245,0.767,0.423
		s0.262,0.413,0.262,0.702c0,0.304-0.103,0.545-0.309,0.723c-0.207,0.177-0.472,0.267-0.795,0.267c-0.318,0-0.595-0.096-0.83-0.287
		c-0.236-0.191-0.349-0.469-0.34-0.832l0.005-0.016H7.12c0,0.297,0.086,0.516,0.257,0.657c0.171,0.141,0.377,0.211,0.617,0.211
		c0.236,0,0.427-0.065,0.571-0.196C8.709,32.118,8.781,31.946,8.781,31.729z"/>
	<path class="st7" d="M11.743,28.861v2.657c0,0.388-0.104,0.683-0.31,0.888c-0.207,0.204-0.476,0.306-0.808,0.306
		c-0.325,0-0.588-0.102-0.79-0.306c-0.202-0.204-0.302-0.5-0.302-0.888v-2.657H9.84v2.661c0,0.298,0.072,0.526,0.217,0.685
		s0.334,0.239,0.567,0.239c0.245,0,0.441-0.077,0.588-0.229s0.22-0.385,0.22-0.696V28.86L11.743,28.861L11.743,28.861z"/>
	<path class="st7" d="M12.699,31.086v1.572h-0.313v-3.795h1.123c0.332,0,0.59,0.101,0.772,0.305
		c0.183,0.203,0.273,0.472,0.273,0.805c0,0.337-0.091,0.607-0.273,0.809c-0.183,0.203-0.44,0.304-0.772,0.304
		C13.509,31.086,12.699,31.086,12.699,31.086z M12.699,30.812h0.811c0.244,0,0.426-0.08,0.548-0.239
		c0.122-0.159,0.183-0.357,0.183-0.595c0-0.241-0.061-0.442-0.183-0.601s-0.304-0.239-0.548-0.239h-0.811V30.812z"/>
	<path class="st7" d="M15.381,31.086v1.572h-0.313v-3.795h1.123c0.332,0,0.59,0.101,0.772,0.305
		c0.183,0.203,0.273,0.472,0.273,0.805c0,0.337-0.091,0.607-0.273,0.809c-0.183,0.203-0.44,0.304-0.772,0.304
		C16.191,31.086,15.381,31.086,15.381,31.086z M15.381,30.812h0.811c0.244,0,0.426-0.08,0.548-0.239s0.183-0.357,0.183-0.595
		c0-0.241-0.061-0.442-0.183-0.601s-0.304-0.239-0.548-0.239h-0.811V30.812z"/>
	<path class="st7" d="M19.979,31.294c0,0.46-0.107,0.812-0.322,1.054c-0.215,0.243-0.509,0.364-0.883,0.364
		c-0.366,0-0.655-0.121-0.864-0.364c-0.209-0.242-0.314-0.594-0.314-1.054V30.23c0-0.46,0.105-0.813,0.313-1.057
		s0.496-0.366,0.863-0.366c0.374,0,0.669,0.123,0.884,0.367c0.216,0.245,0.324,0.597,0.324,1.056L19.979,31.294L19.979,31.294z
		 M19.669,30.222c0-0.376-0.077-0.658-0.232-0.847c-0.155-0.189-0.376-0.284-0.665-0.284c-0.28,0-0.494,0.095-0.644,0.284
		c-0.15,0.189-0.224,0.472-0.224,0.847v1.071c0,0.38,0.075,0.665,0.224,0.855c0.15,0.189,0.365,0.284,0.646,0.284
		c0.288,0,0.51-0.095,0.664-0.284c0.154-0.189,0.231-0.474,0.231-0.855C19.669,31.294,19.669,30.222,19.669,30.222z"/>
	<path class="st7" d="M20.854,30.94v1.718h-0.313v-3.793h1.089c0.341,0,0.601,0.089,0.782,0.268
		c0.181,0.179,0.271,0.439,0.271,0.781c0,0.202-0.048,0.38-0.143,0.538c-0.096,0.157-0.231,0.273-0.407,0.348
		c0.193,0.059,0.332,0.166,0.416,0.319s0.127,0.343,0.127,0.571v0.357c0,0.119,0.012,0.225,0.034,0.319
		c0.022,0.094,0.061,0.17,0.114,0.23v0.063h-0.32c-0.054-0.063-0.091-0.15-0.111-0.262c-0.02-0.111-0.03-0.23-0.03-0.356v-0.348
		c0-0.23-0.058-0.413-0.175-0.549c-0.116-0.136-0.277-0.203-0.48-0.203h-0.854V30.94z M20.854,30.674h0.74
		c0.268,0,0.464-0.068,0.588-0.205c0.124-0.137,0.186-0.322,0.186-0.557c0-0.249-0.061-0.44-0.183-0.573s-0.306-0.201-0.555-0.201
		h-0.777v1.536H20.854z"/>
	<path class="st7" d="M25.285,29.137h-1.061v3.52h-0.313v-3.52h-1.058v-0.276h2.433L25.285,29.137L25.285,29.137z"/>
</g>
<g>
	<g>
		<path class="st7" d="M33.203,9.363h-0.329v0.916h-0.135V9.363H32.41v-0.11h0.794L33.203,9.363L33.203,9.363z"/>
		<path class="st7" d="M33.53,9.252l0.335,0.837l0.336-0.837h0.175v1.026H34.24V9.879l0.013-0.432l-0.337,0.831h-0.104l-0.336-0.829
			l0.013,0.43v0.399h-0.135V9.252H33.53z"/>
	</g>
</g>
</svg>
