<?xml version="1.0" encoding="utf-8"?>
<!-- Generator: Adobe Illustrator 21.1.0, SVG Export Plug-In . SVG Version: 6.00 Build 0)  -->
<svg version="1.1" id="Layer_1" xmlns="http://www.w3.org/2000/svg" xmlns:xlink="http://www.w3.org/1999/xlink" x="0px" y="0px"
	 viewBox="0 0 45 45" style="enable-background:new 0 0 45 45;" xml:space="preserve">
<style type="text/css">
	.st0{fill:#8DC56F;}
	.st1{fill:#FFFFFF;}
</style>
<g>
	<g>
		<path class="st0" d="M19.83,9.222c0.61,0,6.656,3.494,6.656,4.599s-5.882,4.599-6.656,4.599
			C19.059,18.423,19.222,9.222,19.83,9.222z M21.646,5.32c4.605,0,8.335,3.798,8.335,8.481s-3.733,8.481-8.335,8.481
			s-8.337-3.798-8.337-8.482S17.042,5.32,21.646,5.32z"/>
		<path class="st1" d="M19.435,9.222c0.61,0,6.656,3.494,6.656,4.599s-5.882,4.599-6.656,4.599
			C18.663,18.423,18.827,9.222,19.435,9.222z"/>
	</g>
	<g>
		<path class="st1" d="M10.732,33.282h1.974v0.285h-2.314V29.57h0.341C10.732,29.57,10.732,33.282,10.732,33.282z"/>
		<path class="st1" d="M13.117,29.74c0-0.062,0.019-0.114,0.06-0.157c0.04-0.042,0.095-0.065,0.165-0.065s0.126,0.022,0.166,0.065
			c0.041,0.042,0.062,0.094,0.062,0.157c0,0.062-0.021,0.114-0.062,0.155c-0.042,0.042-0.098,0.062-0.166,0.062
			s-0.125-0.021-0.165-0.062C13.136,29.854,13.117,29.801,13.117,29.74z M13.503,33.567h-0.329v-2.97h0.329V33.567z"/>
		<path class="st1" d="M15.179,33.114l0.903-2.517h0.337l-1.109,2.97h-0.266l-1.114-2.97h0.337L15.179,33.114z"/>
		<path class="st1" d="M17.933,33.622c-0.253,0-0.481-0.062-0.685-0.186c-0.205-0.125-0.363-0.298-0.477-0.521
			c-0.114-0.222-0.17-0.472-0.17-0.748v-0.118c0-0.285,0.055-0.543,0.166-0.772c0.11-0.229,0.265-0.409,0.463-0.539
			c0.198-0.131,0.411-0.197,0.642-0.197c0.361,0,0.646,0.123,0.858,0.37c0.211,0.246,0.317,0.582,0.317,1.009v0.184h-2.119v0.062
			c0,0.337,0.097,0.617,0.29,0.841c0.194,0.225,0.436,0.337,0.729,0.337c0.176,0,0.33-0.033,0.465-0.097
			c0.134-0.064,0.257-0.166,0.366-0.307l0.206,0.156C18.742,33.448,18.391,33.622,17.933,33.622z M17.871,30.822
			c-0.246,0-0.455,0.09-0.624,0.272c-0.17,0.181-0.273,0.425-0.309,0.73h1.782v-0.035c-0.01-0.285-0.09-0.518-0.245-0.697
			C18.322,30.912,18.121,30.822,17.871,30.822z"/>
		<path class="st1" d="M22.053,33.073l0.022,0.086l0.025-0.086l1.257-3.502h0.37l-1.486,3.996h-0.324l-1.488-3.996h0.369
			L22.053,33.073z"/>
		<path class="st1" d="M24.078,29.74c0-0.062,0.02-0.114,0.061-0.157c0.039-0.042,0.094-0.065,0.165-0.065
			c0.069,0,0.125,0.022,0.166,0.065c0.041,0.042,0.062,0.094,0.062,0.157c0,0.062-0.021,0.114-0.062,0.155
			c-0.042,0.042-0.098,0.062-0.166,0.062c-0.07,0-0.126-0.021-0.165-0.062C24.098,29.854,24.078,29.801,24.078,29.74z
			 M24.465,33.567h-0.329v-2.97h0.329V33.567z"/>
		<path class="st1" d="M25.085,32.054c0-0.461,0.103-0.828,0.309-1.102c0.206-0.274,0.486-0.41,0.839-0.41
			c0.401,0,0.706,0.158,0.917,0.475v-1.666h0.327v4.215H27.17l-0.014-0.395c-0.21,0.3-0.52,0.45-0.927,0.45
			c-0.342,0-0.618-0.138-0.828-0.413c-0.21-0.276-0.314-0.647-0.314-1.115v-0.038L25.085,32.054L25.085,32.054z M25.417,32.112
			c0,0.378,0.076,0.678,0.228,0.896c0.152,0.219,0.366,0.328,0.642,0.328c0.405,0,0.692-0.178,0.862-0.536v-1.394
			c-0.17-0.385-0.456-0.579-0.856-0.579c-0.277,0-0.492,0.109-0.645,0.326C25.494,31.37,25.417,31.689,25.417,32.112z"/>
		<path class="st1" d="M29.351,33.622c-0.253,0-0.481-0.062-0.685-0.186c-0.205-0.125-0.363-0.298-0.477-0.521
			c-0.114-0.222-0.17-0.472-0.17-0.748v-0.118c0-0.285,0.055-0.543,0.166-0.772s0.265-0.409,0.463-0.539
			c0.198-0.131,0.411-0.197,0.642-0.197c0.361,0,0.646,0.123,0.858,0.37c0.211,0.246,0.317,0.582,0.317,1.009v0.184h-2.119v0.062
			c0,0.337,0.098,0.617,0.29,0.841c0.194,0.225,0.436,0.337,0.729,0.337c0.176,0,0.33-0.033,0.465-0.097
			c0.134-0.064,0.257-0.166,0.366-0.307l0.206,0.156C30.16,33.448,29.809,33.622,29.351,33.622z M29.289,30.822
			c-0.246,0-0.455,0.09-0.624,0.272c-0.17,0.181-0.273,0.425-0.309,0.73h1.782v-0.035c-0.01-0.285-0.09-0.518-0.245-0.697
			C29.739,30.912,29.538,30.822,29.289,30.822z"/>
		<path class="st1" d="M30.782,32.039c0-0.285,0.055-0.543,0.166-0.772s0.267-0.406,0.47-0.534c0.202-0.127,0.431-0.19,0.688-0.19
			c0.395,0,0.716,0.138,0.961,0.416c0.246,0.278,0.368,0.645,0.368,1.102v0.069c0,0.287-0.055,0.546-0.166,0.775
			c-0.111,0.23-0.267,0.406-0.469,0.531c-0.202,0.125-0.43,0.186-0.688,0.186c-0.393,0-0.713-0.138-0.96-0.416
			c-0.246-0.277-0.37-0.645-0.37-1.102L30.782,32.039L30.782,32.039z M31.111,32.129c0,0.355,0.092,0.646,0.276,0.874
			s0.425,0.342,0.723,0.342c0.297,0,0.537-0.114,0.72-0.342c0.184-0.227,0.276-0.529,0.276-0.902v-0.062
			c0-0.227-0.042-0.435-0.126-0.623c-0.085-0.189-0.202-0.334-0.354-0.438c-0.152-0.103-0.326-0.155-0.522-0.155
			c-0.293,0-0.532,0.114-0.717,0.345c-0.186,0.23-0.277,0.53-0.277,0.902C31.111,32.069,31.111,32.129,31.111,32.129z"/>
	</g>
</g>
</svg>
