<?xml version="1.0" encoding="utf-8"?>
<!-- Generator: Adobe Illustrator 21.1.0, SVG Export Plug-In . SVG Version: 6.00 Build 0)  -->
<svg version="1.1" id="Layer_1" xmlns="http://www.w3.org/2000/svg" xmlns:xlink="http://www.w3.org/1999/xlink" x="0px" y="0px"
	 viewBox="0 0 45 60" style="enable-background:new 0 0 45 60;" xml:space="preserve">
<style type="text/css">
	.st0{fill:url(#SVGID_1_);}
	.st1{fill:url(#SVGID_2_);}
	.st2{fill:url(#SVGID_3_);}
	.st3{opacity:0.44;fill:#FFFFFF;enable-background:new    ;}
	.st4{fill:#8DC56F;}
	.st5{fill:#6CB048;}
	.st6{opacity:0.33;fill:#FFFFFF;enable-background:new    ;}
	.st7{fill:#FFFFFF;}
</style>
<g>
	<g>
		
			<linearGradient id="SVGID_1_" gradientUnits="userSpaceOnUse" x1="8.4375" y1="42.641" x2="8.4375" y2="32.628" gradientTransform="matrix(1 0 0 -1 0 60)">
			<stop  offset="0" style="stop-color:#FFFFFF"/>
			<stop  offset="0.3126" style="stop-color:#E2E1E0"/>
			<stop  offset="0.4767" style="stop-color:#E0E0DF"/>
			<stop  offset="0.7198" style="stop-color:#C8C8C8"/>
		</linearGradient>
		<path class="st0" d="M6.88,17.541l0.1,1.154c0.678-0.89,1.614-1.336,2.807-1.336c1.023,0,1.788,0.306,2.294,0.918
			s0.768,1.532,0.786,2.762v6.333H9.796v-6.205c0-0.497-0.1-0.862-0.3-1.095c-0.2-0.233-0.563-0.35-1.09-0.35
			c-0.6,0-1.045,0.236-1.336,0.709v6.941H4.008v-9.831H6.88z"/>
		
			<linearGradient id="SVGID_2_" gradientUnits="userSpaceOnUse" x1="35.7565" y1="42.459" x2="35.7565" y2="32.628" gradientTransform="matrix(1 0 0 -1 0 60)">
			<stop  offset="0" style="stop-color:#FFFFFF"/>
			<stop  offset="0.3126" style="stop-color:#E2E1E0"/>
			<stop  offset="0.4767" style="stop-color:#E0E0DF"/>
			<stop  offset="0.7198" style="stop-color:#C8C8C8"/>
		</linearGradient>
		<path class="st1" d="M38.369,23.338l0.99-5.797h2.934l-2.317,9.831h-2.589l-1.626-5.833l-1.636,5.833h-2.589l-2.316-9.831h2.934
			l0.972,5.933l1.564-5.933h2.135L38.369,23.338z"/>
	</g>
	
		<linearGradient id="SVGID_3_" gradientUnits="userSpaceOnUse" x1="21.6555" y1="10.682" x2="21.6555" y2="26.768" gradientTransform="matrix(1 0 0 1 0 3.45)">
		<stop  offset="0" style="stop-color:#FFFFFF"/>
		<stop  offset="0.3126" style="stop-color:#E2E1E0"/>
		<stop  offset="0.4767" style="stop-color:#E0E0DF"/>
		<stop  offset="0.7198" style="stop-color:#C8C8C8"/>
	</linearGradient>
	<path class="st2" d="M19.935,17.834c0.578,0,6.313,3.313,6.313,4.362c0,1.048-5.579,4.362-6.313,4.362
		C19.202,26.559,19.358,17.834,19.935,17.834z M21.656,14.132c4.367,0,7.906,3.602,7.906,8.043c0,4.442-3.54,8.043-7.906,8.043
		s-7.907-3.602-7.907-8.045S17.289,14.132,21.656,14.132z"/>
	<path class="st3" d="M21.656,14.132c-3.441,0-6.366,2.237-7.453,5.358c1.365,0.987,3.192,1.687,5.254,1.956
		c0.051-1.905,0.223-3.613,0.478-3.613c0.428,0,3.675,1.814,5.338,3.181c1.456-0.43,2.722-1.089,3.691-1.909
		C27.779,16.186,24.954,14.132,21.656,14.132z"/>
	<path class="st4" d="M19.935,17.834c0.578,0,6.313,3.313,6.313,4.362c0,1.048-5.579,4.362-6.313,4.362
		C19.202,26.559,19.358,17.834,19.935,17.834z"/>
	<g>
		<path class="st5" d="M19.935,17.834c-0.073,0-0.14,0.141-0.198,0.388c0.735,0.107,6.276,3.325,6.276,4.357
			c0,0.039-0.011,0.082-0.025,0.129c0.166-0.201,0.262-0.376,0.262-0.511C26.247,21.147,20.512,17.834,19.935,17.834z"/>
	</g>
	<path class="st6" d="M19.457,21.447c0.609,0.08,1.237,0.122,1.881,0.122c1.402,0,2.733-0.198,3.934-0.553
		c-1.663-1.368-4.91-3.18-5.338-3.18C19.68,17.834,19.508,19.543,19.457,21.447z"/>
</g>
<g>
	<path class="st7" d="M4.371,38.76H3.988v-4.609h0.383V38.76z"/>
	<path class="st7" d="M8.145,38.76h-0.38l-2.058-3.859l-0.019,0.003v3.856H5.305v-4.609h0.383l2.058,3.859l0.019-0.003v-3.856h0.38
		V38.76z"/>
	<path class="st7" d="M11.167,37.633c0-0.252-0.073-0.457-0.22-0.615c-0.147-0.158-0.405-0.297-0.774-0.418
		c-0.42-0.129-0.738-0.295-0.954-0.498c-0.216-0.204-0.325-0.476-0.325-0.818c0-0.352,0.121-0.641,0.363-0.864
		c0.242-0.224,0.553-0.335,0.936-0.335c0.401,0,0.723,0.132,0.967,0.396c0.244,0.264,0.363,0.586,0.356,0.965l-0.01,0.019h-0.358
		c0-0.306-0.085-0.557-0.255-0.752s-0.404-0.293-0.701-0.293c-0.289,0-0.514,0.081-0.674,0.244c-0.16,0.163-0.241,0.366-0.241,0.611
		c0,0.228,0.078,0.42,0.233,0.575c0.155,0.155,0.418,0.291,0.79,0.407c0.409,0.127,0.72,0.298,0.932,0.514s0.318,0.501,0.318,0.853
		c0,0.369-0.125,0.662-0.375,0.879c-0.25,0.216-0.572,0.325-0.964,0.325c-0.386,0-0.722-0.116-1.008-0.348
		c-0.286-0.232-0.424-0.569-0.413-1.01l0.006-0.019H9.15c0,0.361,0.104,0.627,0.312,0.798c0.208,0.171,0.458,0.256,0.749,0.256
		c0.287,0,0.518-0.079,0.693-0.238S11.167,37.895,11.167,37.633z"/>
	<path class="st7" d="M14.734,34.486h-1.288v4.274h-0.38v-4.274h-1.285V34.15h2.954v0.336H14.734z"/>
	<path class="st7" d="M15.604,36.673v2.086h-0.38v-4.606h1.323c0.414,0,0.73,0.109,0.95,0.326s0.329,0.533,0.329,0.949
		c0,0.245-0.058,0.462-0.174,0.653c-0.116,0.191-0.281,0.331-0.494,0.422c0.234,0.072,0.403,0.201,0.505,0.387
		s0.154,0.417,0.154,0.694v0.434c0,0.144,0.014,0.273,0.041,0.387c0.027,0.114,0.074,0.207,0.139,0.279v0.076h-0.389
		c-0.065-0.076-0.11-0.182-0.135-0.318c-0.024-0.135-0.036-0.279-0.036-0.432v-0.422c0-0.279-0.071-0.502-0.212-0.667
		c-0.141-0.165-0.336-0.248-0.583-0.248H15.604z M15.604,36.351h0.899c0.325,0,0.563-0.083,0.714-0.249
		c0.151-0.166,0.226-0.391,0.226-0.676c0-0.302-0.074-0.534-0.222-0.696c-0.148-0.163-0.372-0.244-0.674-0.244h-0.943V36.351z"/>
	<path class="st7" d="M21.267,34.15v3.226c0,0.471-0.126,0.83-0.377,1.078c-0.251,0.248-0.578,0.372-0.981,0.372
		c-0.395,0-0.714-0.124-0.959-0.372c-0.245-0.248-0.367-0.607-0.367-1.078V34.15h0.374v3.231c0,0.361,0.088,0.639,0.264,0.832
		s0.406,0.29,0.689,0.29c0.298,0,0.536-0.092,0.714-0.277s0.267-0.467,0.267-0.845V34.15H21.267z"/>
	<path class="st7" d="M24.565,37.421l0.009,0.019c-0.004,0.45-0.122,0.793-0.354,1.03c-0.232,0.238-0.552,0.356-0.959,0.356
		c-0.424,0-0.761-0.15-1.01-0.45c-0.249-0.3-0.374-0.727-0.374-1.282v-1.276c0-0.551,0.125-0.978,0.375-1.281
		c0.25-0.303,0.586-0.454,1.008-0.454c0.411,0,0.732,0.116,0.962,0.348s0.347,0.578,0.351,1.038l-0.009,0.019h-0.351
		c-0.011-0.365-0.095-0.635-0.253-0.809c-0.158-0.174-0.392-0.261-0.7-0.261c-0.317,0-0.564,0.119-0.741,0.358
		c-0.177,0.239-0.266,0.583-0.266,1.034v1.287c0,0.459,0.089,0.808,0.266,1.046c0.177,0.239,0.424,0.358,0.741,0.358
		c0.308,0,0.541-0.085,0.7-0.256c0.158-0.171,0.243-0.446,0.253-0.826h0.352V37.421z"/>
	<path class="st7" d="M27.727,34.486h-1.288v4.274h-0.38v-4.274h-1.285V34.15h2.954L27.727,34.486L27.727,34.486z"/>
	<path class="st7" d="M28.66,38.76h-0.383v-4.609h0.383V38.76z"/>
	<path class="st7" d="M32.3,37.104c0,0.559-0.13,0.986-0.391,1.281s-0.618,0.442-1.072,0.442c-0.445,0-0.795-0.147-1.049-0.442
		c-0.254-0.294-0.381-0.721-0.381-1.281v-1.292c0-0.559,0.127-0.987,0.38-1.284c0.253-0.296,0.602-0.445,1.048-0.445
		c0.454,0,0.812,0.149,1.073,0.446c0.262,0.298,0.393,0.725,0.393,1.282v1.293H32.3z M31.924,35.803
		c0-0.456-0.094-0.799-0.282-1.029c-0.188-0.23-0.457-0.345-0.807-0.345c-0.34,0-0.6,0.115-0.782,0.345
		c-0.182,0.23-0.272,0.573-0.272,1.029v1.301c0,0.462,0.091,0.808,0.272,1.039c0.182,0.23,0.443,0.345,0.785,0.345
		c0.35,0,0.619-0.115,0.806-0.345s0.28-0.576,0.28-1.039C31.924,37.104,31.924,35.803,31.924,35.803z"/>
	<path class="st7" d="M35.83,38.76h-0.38l-2.058-3.859l-0.019,0.003v3.856H32.99v-4.609h0.383l2.058,3.859l0.019-0.003v-3.856h0.38
		V38.76z"/>
	<path class="st7" d="M38.821,37.481H37.14l-0.393,1.279h-0.393l1.459-4.609h0.345l1.444,4.609H39.21L38.821,37.481z M37.247,37.132
		h1.469l-0.722-2.371h-0.019L37.247,37.132z"/>
	<path class="st7" d="M40.453,38.437h1.862v0.323H40.07v-4.609h0.383V38.437z"/>
	<path class="st7" d="M14.182,44.031c0-0.252-0.073-0.457-0.22-0.615c-0.147-0.157-0.405-0.297-0.774-0.417
		c-0.42-0.129-0.738-0.295-0.954-0.499c-0.216-0.203-0.325-0.476-0.325-0.818c0-0.352,0.121-0.64,0.363-0.864
		c0.242-0.224,0.553-0.336,0.936-0.336c0.401,0,0.723,0.132,0.967,0.396s0.363,0.586,0.356,0.965l-0.01,0.019h-0.358
		c0-0.306-0.085-0.556-0.255-0.752c-0.17-0.195-0.404-0.293-0.701-0.293c-0.289,0-0.514,0.081-0.674,0.244
		c-0.16,0.162-0.241,0.366-0.241,0.611c0,0.228,0.078,0.42,0.233,0.574c0.155,0.155,0.418,0.291,0.79,0.407
		c0.409,0.126,0.72,0.298,0.932,0.514s0.318,0.501,0.318,0.853c0,0.369-0.125,0.662-0.375,0.878s-0.572,0.325-0.964,0.325
		c-0.386,0-0.722-0.116-1.008-0.348s-0.424-0.569-0.413-1.01l0.006-0.019h0.354c0,0.361,0.104,0.627,0.312,0.798
		s0.458,0.256,0.749,0.256c0.287,0,0.518-0.079,0.693-0.238C14.094,44.504,14.182,44.294,14.182,44.031z"/>
	<path class="st7" d="M17.778,40.548v3.226c0,0.471-0.126,0.83-0.377,1.078c-0.251,0.248-0.578,0.372-0.981,0.372
		c-0.395,0-0.714-0.124-0.959-0.372c-0.245-0.248-0.367-0.607-0.367-1.078v-3.226h0.374v3.231c0,0.362,0.088,0.639,0.264,0.832
		s0.406,0.29,0.689,0.29c0.298,0,0.536-0.093,0.714-0.278c0.178-0.185,0.267-0.467,0.267-0.845v-3.231L17.778,40.548L17.778,40.548z
		"/>
	<path class="st7" d="M18.939,43.249v1.909h-0.38v-4.609h1.364c0.403,0,0.716,0.123,0.937,0.37c0.222,0.247,0.332,0.573,0.332,0.978
		c0,0.409-0.111,0.737-0.332,0.983c-0.222,0.246-0.534,0.369-0.937,0.369H18.939z M18.939,42.916h0.985
		c0.296,0,0.517-0.097,0.665-0.29s0.222-0.434,0.222-0.723c0-0.293-0.074-0.537-0.222-0.73s-0.369-0.29-0.665-0.29h-0.985V42.916z"
		/>
	<path class="st7" d="M22.196,43.249v1.909h-0.38v-4.609h1.364c0.403,0,0.716,0.123,0.937,0.37c0.222,0.247,0.332,0.573,0.332,0.978
		c0,0.409-0.111,0.737-0.332,0.983c-0.222,0.246-0.534,0.369-0.937,0.369H22.196z M22.196,42.916h0.985
		c0.296,0,0.517-0.097,0.665-0.29s0.222-0.434,0.222-0.723c0-0.293-0.074-0.537-0.222-0.73s-0.369-0.29-0.665-0.29h-0.985V42.916z"
		/>
	<path class="st7" d="M27.78,43.502c0,0.559-0.13,0.986-0.391,1.28c-0.261,0.295-0.618,0.442-1.072,0.442
		c-0.445,0-0.795-0.147-1.049-0.442c-0.254-0.294-0.381-0.721-0.381-1.28V42.21c0-0.559,0.127-0.987,0.38-1.283
		c0.253-0.296,0.602-0.445,1.048-0.445c0.454,0,0.812,0.149,1.073,0.446c0.262,0.298,0.393,0.725,0.393,1.282v1.292H27.78z
		 M27.403,42.201c0-0.456-0.094-0.799-0.282-1.029s-0.457-0.345-0.807-0.345c-0.34,0-0.6,0.115-0.782,0.345
		c-0.182,0.23-0.272,0.573-0.272,1.029v1.301c0,0.462,0.091,0.808,0.272,1.038c0.182,0.23,0.443,0.345,0.785,0.345
		c0.35,0,0.619-0.115,0.806-0.345s0.28-0.576,0.28-1.038C27.403,43.502,27.403,42.201,27.403,42.201z"/>
	<path class="st7" d="M28.843,43.072v2.086h-0.38v-4.606h1.323c0.414,0,0.73,0.108,0.95,0.326c0.22,0.217,0.329,0.533,0.329,0.948
		c0,0.245-0.058,0.462-0.174,0.653c-0.116,0.191-0.281,0.332-0.494,0.422c0.234,0.072,0.403,0.201,0.505,0.387
		s0.154,0.417,0.154,0.694v0.434c0,0.144,0.014,0.273,0.041,0.387c0.027,0.114,0.074,0.207,0.139,0.279v0.076h-0.389
		c-0.065-0.076-0.11-0.182-0.135-0.318c-0.024-0.135-0.036-0.279-0.036-0.432v-0.422c0-0.279-0.071-0.502-0.212-0.667
		c-0.141-0.165-0.336-0.247-0.583-0.247H28.843z M28.843,42.749h0.899c0.325,0,0.563-0.083,0.714-0.249s0.226-0.391,0.226-0.676
		c0-0.302-0.074-0.534-0.222-0.696s-0.372-0.244-0.674-0.244h-0.943V42.749z"/>
	<path class="st7" d="M34.223,40.884h-1.288v4.274h-0.38v-4.274H31.27v-0.336h2.954L34.223,40.884L34.223,40.884z"/>
</g>
</svg>
