<?xml version="1.0" encoding="utf-8"?>
<!-- Generator: Adobe Illustrator 21.1.0, SVG Export Plug-In . SVG Version: 6.00 Build 0)  -->
<svg version="1.1" id="Layer_1" xmlns="http://www.w3.org/2000/svg" xmlns:xlink="http://www.w3.org/1999/xlink" x="0px" y="0px"
	 viewBox="0 0 60 60" style="enable-background:new 0 0 60 60;" xml:space="preserve">
<style type="text/css">
	.st0{fill:url(#SVGID_1_);}
	.st1{fill:url(#SVGID_2_);}
	.st2{fill:url(#SVGID_3_);}
	.st3{opacity:0.44;fill:#FFFFFF;enable-background:new    ;}
	.st4{fill:#8DC56F;}
	.st5{fill:#6CB048;}
	.st6{opacity:0.33;fill:#FFFFFF;enable-background:new    ;}
	.st7{fill:#FFFFFF;}
</style>
<g>
	<g>
		
			<linearGradient id="SVGID_1_" gradientUnits="userSpaceOnUse" x1="17.217" y1="49.0132" x2="17.217" y2="40.3137" gradientTransform="matrix(1 0 0 -1 0 60)">
			<stop  offset="0" style="stop-color:#FFFFFF"/>
			<stop  offset="0.3126" style="stop-color:#E2E1E0"/>
			<stop  offset="0.4767" style="stop-color:#E0E0DF"/>
			<stop  offset="0.7198" style="stop-color:#C8C8C8"/>
		</linearGradient>
		<path class="st0" d="M15.864,11.145l0.087,1.003c0.589-0.773,1.402-1.161,2.439-1.161c0.889,0,1.553,0.266,1.993,0.798
			c0.44,0.532,0.667,1.331,0.683,2.4v5.502h-2.668v-5.391c0-0.432-0.087-0.749-0.261-0.951c-0.174-0.202-0.489-0.304-0.947-0.304
			c-0.521,0-0.908,0.205-1.161,0.616v6.03h-2.66v-8.541H15.864z"/>
		
			<linearGradient id="SVGID_2_" gradientUnits="userSpaceOnUse" x1="40.9524" y1="48.8551" x2="40.9524" y2="40.3137" gradientTransform="matrix(1 0 0 -1 0 60)">
			<stop  offset="0" style="stop-color:#FFFFFF"/>
			<stop  offset="0.3126" style="stop-color:#E2E1E0"/>
			<stop  offset="0.4767" style="stop-color:#E0E0DF"/>
			<stop  offset="0.7198" style="stop-color:#C8C8C8"/>
		</linearGradient>
		<path class="st1" d="M43.222,16.181l0.86-5.037h2.549l-2.013,8.541h-2.249l-1.413-5.068l-1.421,5.068h-2.249l-2.012-8.541h2.549
			l0.844,5.155l1.359-5.155h1.855L43.222,16.181z"/>
	</g>
	
		<linearGradient id="SVGID_3_" gradientUnits="userSpaceOnUse" x1="28.7011" y1="4.7331" x2="28.7011" y2="18.709" gradientTransform="matrix(1 0 0 1 0 3.45)">
		<stop  offset="0" style="stop-color:#FFFFFF"/>
		<stop  offset="0.3126" style="stop-color:#E2E1E0"/>
		<stop  offset="0.4767" style="stop-color:#E0E0DF"/>
		<stop  offset="0.7198" style="stop-color:#C8C8C8"/>
	</linearGradient>
	<path class="st2" d="M27.206,11.399c0.502,0,5.485,2.878,5.485,3.79c0,0.911-4.847,3.79-5.485,3.79
		C26.569,18.98,26.705,11.399,27.206,11.399z M28.702,8.183c3.794,0,6.869,3.129,6.869,6.988c0,3.859-3.076,6.988-6.869,6.988
		s-6.87-3.129-6.87-6.99S24.907,8.183,28.702,8.183z"/>
	<path class="st3" d="M28.702,8.183c-2.99,0-5.531,1.944-6.475,4.655c1.186,0.858,2.773,1.466,4.565,1.699
		c0.044-1.655,0.194-3.139,0.415-3.139c0.372,0,3.193,1.576,4.638,2.764c1.265-0.374,2.365-0.946,3.207-1.659
		C34.021,9.968,31.567,8.183,28.702,8.183z"/>
	<path class="st4" d="M27.206,11.399c0.502,0,5.485,2.878,5.485,3.79c0,0.911-4.847,3.79-5.485,3.79
		C26.569,18.98,26.705,11.399,27.206,11.399z"/>
	<g>
		<path class="st5" d="M27.206,11.399c-0.063,0-0.122,0.123-0.172,0.337c0.639,0.093,5.453,2.889,5.453,3.785
			c0,0.034-0.01,0.071-0.022,0.112c0.144-0.175,0.228-0.327,0.228-0.444C32.69,14.278,27.708,11.399,27.206,11.399z"/>
	</g>
	<path class="st6" d="M26.791,14.539c0.529,0.07,1.075,0.106,1.634,0.106c1.218,0,2.374-0.172,3.418-0.48
		c-1.445-1.189-4.266-2.763-4.638-2.763C26.985,11.399,26.835,12.884,26.791,14.539z"/>
</g>
<g>
	<path class="st7" d="M13.683,29.24H13.35v-4.004h0.333V29.24z"/>
	<path class="st7" d="M16.962,29.24h-0.33l-1.788-3.353l-0.017,0.003v3.35h-0.333v-4.004h0.333l1.788,3.353l0.017-0.003v-3.35h0.33
		V29.24z"/>
	<path class="st7" d="M19.588,28.261c0-0.219-0.063-0.397-0.191-0.534s-0.352-0.258-0.672-0.363
		c-0.365-0.112-0.641-0.256-0.829-0.433c-0.188-0.177-0.282-0.414-0.282-0.711c0-0.306,0.105-0.557,0.315-0.751
		c0.21-0.195,0.48-0.291,0.813-0.291c0.348,0,0.628,0.115,0.84,0.344c0.212,0.229,0.315,0.509,0.309,0.838l-0.009,0.017h-0.311
		c0-0.266-0.074-0.484-0.222-0.653c-0.148-0.169-0.351-0.255-0.609-0.255c-0.251,0-0.447,0.07-0.586,0.212S17.946,26,17.946,26.213
		c0,0.198,0.068,0.365,0.202,0.5c0.135,0.135,0.363,0.253,0.686,0.354c0.355,0.11,0.626,0.259,0.81,0.447s0.276,0.435,0.276,0.741
		c0,0.321-0.109,0.575-0.326,0.764c-0.217,0.188-0.497,0.282-0.838,0.282c-0.335,0-0.627-0.101-0.876-0.302
		c-0.248-0.202-0.368-0.494-0.359-0.878l0.005-0.017h0.308c0,0.314,0.09,0.545,0.271,0.693c0.181,0.149,0.398,0.222,0.651,0.222
		c0.249,0,0.45-0.069,0.602-0.207C19.511,28.674,19.588,28.489,19.588,28.261z"/>
	<path class="st7" d="M22.687,25.527h-1.119v3.713h-0.33v-3.713h-1.116v-0.292h2.566L22.687,25.527L22.687,25.527z"/>
	<path class="st7" d="M23.443,27.427v1.812h-0.33v-4.002h1.149c0.36,0,0.634,0.095,0.825,0.283c0.191,0.189,0.286,0.463,0.286,0.825
		c0,0.213-0.05,0.401-0.151,0.567c-0.101,0.166-0.244,0.288-0.429,0.367c0.203,0.063,0.35,0.175,0.439,0.336
		s0.134,0.362,0.134,0.603v0.377c0,0.125,0.012,0.237,0.036,0.336s0.064,0.18,0.121,0.242v0.066h-0.338
		c-0.056-0.066-0.096-0.158-0.117-0.276c-0.021-0.117-0.031-0.242-0.031-0.375v-0.367c0-0.242-0.062-0.436-0.184-0.58
		c-0.123-0.143-0.292-0.215-0.507-0.215H23.443z M23.443,27.147h0.781c0.282,0,0.489-0.072,0.62-0.216
		c0.131-0.144,0.196-0.34,0.196-0.587c0-0.262-0.064-0.464-0.193-0.605c-0.129-0.142-0.323-0.212-0.586-0.212h-0.819V27.147z"/>
	<path class="st7" d="M28.363,25.235v2.803c0,0.409-0.109,0.721-0.328,0.937c-0.218,0.215-0.502,0.323-0.852,0.323
		c-0.343,0-0.62-0.108-0.833-0.323c-0.213-0.215-0.319-0.527-0.319-0.937v-2.803h0.325v2.807c0,0.314,0.076,0.555,0.229,0.723
		c0.153,0.168,0.353,0.252,0.599,0.252c0.259,0,0.466-0.08,0.62-0.241c0.155-0.161,0.232-0.406,0.232-0.734v-2.807H28.363z"/>
	<path class="st7" d="M31.228,28.077l0.008,0.017c-0.003,0.391-0.106,0.689-0.308,0.895c-0.202,0.207-0.48,0.309-0.833,0.309
		c-0.368,0-0.661-0.13-0.878-0.391c-0.216-0.261-0.325-0.632-0.325-1.114v-1.109c0-0.479,0.109-0.85,0.326-1.113
		c0.217-0.263,0.509-0.394,0.876-0.394c0.357,0,0.636,0.101,0.836,0.302c0.2,0.202,0.301,0.502,0.305,0.902l-0.008,0.017h-0.305
		c-0.01-0.317-0.083-0.552-0.22-0.703c-0.137-0.151-0.341-0.227-0.608-0.227c-0.275,0-0.49,0.103-0.644,0.311
		c-0.154,0.208-0.231,0.507-0.231,0.898v1.118c0,0.399,0.077,0.702,0.231,0.909c0.154,0.208,0.368,0.311,0.644,0.311
		c0.268,0,0.47-0.074,0.608-0.222c0.137-0.149,0.211-0.387,0.22-0.718h0.306V28.077z"/>
	<path class="st7" d="M33.975,25.527h-1.119v3.713h-0.33v-3.713H31.41v-0.292h2.566L33.975,25.527L33.975,25.527z"/>
	<path class="st7" d="M34.786,29.24h-0.333v-4.004h0.333V29.24z"/>
	<path class="st7" d="M37.948,27.802c0,0.486-0.113,0.857-0.34,1.113s-0.537,0.384-0.931,0.384c-0.387,0-0.691-0.128-0.911-0.384
		c-0.221-0.255-0.331-0.626-0.331-1.113v-1.123c0-0.486,0.11-0.858,0.33-1.116c0.22-0.257,0.523-0.387,0.911-0.387
		c0.394,0,0.705,0.129,0.932,0.387c0.228,0.259,0.341,0.63,0.341,1.114L37.948,27.802L37.948,27.802z M37.622,26.671
		c0-0.396-0.082-0.694-0.245-0.894c-0.163-0.2-0.397-0.3-0.701-0.3c-0.295,0-0.521,0.1-0.679,0.3
		c-0.158,0.2-0.236,0.498-0.236,0.894v1.13c0,0.401,0.079,0.702,0.236,0.903c0.158,0.2,0.385,0.3,0.682,0.3
		c0.304,0,0.538-0.1,0.7-0.3c0.162-0.2,0.243-0.5,0.243-0.903C37.622,27.802,37.622,26.671,37.622,26.671z"/>
	<path class="st7" d="M41.015,29.24h-0.33l-1.788-3.353l-0.017,0.003v3.35h-0.333v-4.004h0.333l1.788,3.353l0.017-0.003v-3.35h0.33
		V29.24z"/>
	<path class="st7" d="M43.614,28.129h-1.46l-0.341,1.111h-0.341l1.268-4.004h0.3l1.255,4.004h-0.341L43.614,28.129z M42.246,27.826
		h1.276l-0.627-2.06h-0.017L42.246,27.826z"/>
	<path class="st7" d="M45.032,28.96h1.618v0.281h-1.951v-4.004h0.333V28.96z"/>
	<path class="st7" d="M22.207,33.82c0-0.219-0.063-0.397-0.191-0.534c-0.128-0.136-0.352-0.258-0.672-0.362
		c-0.365-0.112-0.641-0.256-0.829-0.434c-0.188-0.176-0.282-0.414-0.282-0.711c0-0.306,0.105-0.556,0.315-0.751
		c0.21-0.195,0.48-0.292,0.813-0.292c0.348,0,0.628,0.115,0.84,0.344c0.212,0.229,0.315,0.509,0.309,0.838l-0.009,0.017h-0.311
		c0-0.266-0.074-0.483-0.222-0.653c-0.148-0.169-0.351-0.255-0.609-0.255c-0.251,0-0.447,0.07-0.586,0.212
		c-0.139,0.141-0.209,0.318-0.209,0.531c0,0.198,0.068,0.365,0.202,0.499c0.135,0.135,0.363,0.253,0.686,0.354
		c0.355,0.109,0.626,0.259,0.81,0.447c0.184,0.188,0.276,0.435,0.276,0.741c0,0.321-0.109,0.575-0.326,0.763
		c-0.217,0.188-0.497,0.282-0.838,0.282c-0.335,0-0.627-0.101-0.876-0.302c-0.248-0.202-0.368-0.494-0.359-0.878l0.005-0.017h0.308
		c0,0.314,0.09,0.545,0.271,0.693s0.398,0.222,0.651,0.222c0.249,0,0.45-0.069,0.602-0.207
		C22.131,34.231,22.207,34.048,22.207,33.82z"/>
	<path class="st7" d="M25.331,30.794v2.803c0,0.409-0.109,0.721-0.328,0.937c-0.218,0.215-0.502,0.323-0.852,0.323
		c-0.343,0-0.62-0.108-0.833-0.323c-0.213-0.215-0.319-0.527-0.319-0.937v-2.803h0.325v2.807c0,0.315,0.076,0.555,0.229,0.723
		c0.153,0.168,0.353,0.252,0.599,0.252c0.259,0,0.466-0.081,0.62-0.242c0.155-0.161,0.232-0.406,0.232-0.734v-2.807L25.331,30.794
		L25.331,30.794z"/>
	<path class="st7" d="M26.34,33.14v1.659h-0.33v-4.004h1.185c0.35,0,0.622,0.107,0.814,0.321c0.193,0.215,0.288,0.498,0.288,0.85
		c0,0.355-0.096,0.64-0.288,0.854c-0.193,0.214-0.464,0.321-0.814,0.321H26.34z M26.34,32.851h0.856
		c0.257,0,0.449-0.084,0.578-0.252s0.193-0.377,0.193-0.628c0-0.255-0.064-0.467-0.193-0.634s-0.321-0.252-0.578-0.252H26.34V32.851
		z"/>
	<path class="st7" d="M29.17,33.14v1.659h-0.33v-4.004h1.185c0.35,0,0.622,0.107,0.814,0.321c0.193,0.215,0.288,0.498,0.288,0.85
		c0,0.355-0.096,0.64-0.288,0.854c-0.193,0.214-0.464,0.321-0.814,0.321H29.17z M29.17,32.851h0.856
		c0.257,0,0.449-0.084,0.578-0.252s0.193-0.377,0.193-0.628c0-0.255-0.064-0.467-0.193-0.634s-0.321-0.252-0.578-0.252H29.17V32.851
		z"/>
	<path class="st7" d="M34.021,33.36c0,0.486-0.113,0.857-0.34,1.112c-0.227,0.256-0.537,0.384-0.931,0.384
		c-0.387,0-0.691-0.128-0.911-0.384c-0.221-0.255-0.331-0.626-0.331-1.112v-1.123c0-0.486,0.11-0.858,0.33-1.115
		c0.22-0.257,0.523-0.387,0.911-0.387c0.394,0,0.705,0.129,0.932,0.387c0.228,0.259,0.341,0.63,0.341,1.114L34.021,33.36
		L34.021,33.36z M33.694,32.23c0-0.396-0.082-0.694-0.245-0.894c-0.163-0.2-0.397-0.3-0.701-0.3c-0.295,0-0.521,0.1-0.679,0.3
		c-0.158,0.2-0.236,0.498-0.236,0.894v1.13c0,0.401,0.079,0.702,0.236,0.902c0.158,0.2,0.385,0.3,0.682,0.3
		c0.304,0,0.538-0.1,0.7-0.3c0.162-0.2,0.243-0.5,0.243-0.902C33.694,33.36,33.694,32.23,33.694,32.23z"/>
	<path class="st7" d="M34.945,32.987v1.812h-0.33v-4.002h1.149c0.36,0,0.634,0.094,0.825,0.283c0.191,0.189,0.286,0.463,0.286,0.824
		c0,0.213-0.05,0.401-0.151,0.567c-0.101,0.166-0.244,0.288-0.429,0.367c0.203,0.063,0.35,0.175,0.439,0.336
		c0.089,0.162,0.134,0.362,0.134,0.603v0.377c0,0.125,0.012,0.237,0.036,0.336c0.023,0.099,0.064,0.18,0.121,0.242v0.066h-0.338
		c-0.056-0.066-0.096-0.158-0.117-0.276c-0.021-0.117-0.031-0.242-0.031-0.375v-0.367c0-0.242-0.062-0.436-0.184-0.58
		c-0.123-0.143-0.292-0.215-0.507-0.215H34.945z M34.945,32.706h0.781c0.282,0,0.489-0.072,0.62-0.216
		c0.131-0.144,0.196-0.34,0.196-0.587c0-0.262-0.064-0.464-0.193-0.605c-0.129-0.141-0.323-0.212-0.586-0.212h-0.819V32.706z"/>
	<path class="st7" d="M39.619,31.086H38.5v3.713h-0.33v-3.713h-1.116v-0.292h2.566L39.619,31.086L39.619,31.086z"/>
</g>
<path class="st7" d="M37.722,39.078H22.279c-0.377,0-0.685,0.308-0.685,0.685v8.77c0,0.377,0.308,0.685,0.685,0.685h2.783
	l0.764,2.137c0.018,0.1,0.05,0.194,0.099,0.278l0.004,0.01c0,0,0.003,0.001,0.004,0.001c0.171,0.283,0.497,0.457,0.847,0.413
	c0.179-0.022,0.338-0.097,0.464-0.207c0.002,0,0.006,0,0.008,0c0.068-0.011,1.353-1.363,2.546-2.631h7.924
	c0.377,0,0.685-0.308,0.685-0.685v-8.772C38.406,39.387,38.098,39.078,37.722,39.078z"/>
</svg>
