<?xml version="1.0" encoding="utf-8"?>
<!-- Generator: Adobe Illustrator 21.1.0, SVG Export Plug-In . SVG Version: 6.00 Build 0)  -->
<svg version="1.1" id="Layer_1" xmlns="http://www.w3.org/2000/svg" xmlns:xlink="http://www.w3.org/1999/xlink" x="0px" y="0px"
	 viewBox="0 0 120 40" style="enable-background:new 0 0 120 40;" xml:space="preserve">
<style type="text/css">
	.st0{fill:#8DC56F;}
</style>
<path class="st0" d="M62.227,13.042H33.485c-0.701,0-1.275,0.573-1.275,1.275v16.322c0,0.701,0.573,1.275,1.275,1.275h5.18
	l1.422,3.977c0.034,0.186,0.094,0.361,0.184,0.517l0.007,0.019c0,0,0.006,0.001,0.007,0.001c0.318,0.527,0.925,0.85,1.576,0.769
	c0.333-0.042,0.628-0.181,0.863-0.385c0.004,0,0.012,0,0.015,0c0.126-0.021,2.518-2.537,4.739-4.896h14.748
	c0.701,0,1.275-0.573,1.275-1.275V14.315C63.5,13.615,62.927,13.042,62.227,13.042z"/>
</svg>
