<?xml version="1.0" encoding="utf-8"?>
<!-- Generator: Adobe Illustrator 21.1.0, SVG Export Plug-In . SVG Version: 6.00 Build 0)  -->
<svg version="1.1" id="Layer_1" xmlns="http://www.w3.org/2000/svg" xmlns:xlink="http://www.w3.org/1999/xlink" x="0px" y="0px"
	 viewBox="0 0 45 60" style="enable-background:new 0 0 45 60;" xml:space="preserve">
<style type="text/css">
	.st0{fill:#FFFFFF;}
	.st1{fill:#8DC56F;}
</style>
<g>
	<g>
		<path class="st0" d="M4.174,47.311c0-0.307-0.108-0.551-0.324-0.73c-0.217-0.179-0.612-0.349-1.186-0.511
			c-0.574-0.161-0.994-0.337-1.258-0.528c-0.376-0.269-0.564-0.623-0.564-1.06c0-0.424,0.175-0.769,0.524-1.035
			c0.349-0.265,0.796-0.398,1.34-0.398c0.368,0,0.698,0.071,0.989,0.213s0.517,0.341,0.677,0.595s0.241,0.537,0.241,0.851H4.14
			c0-0.38-0.13-0.685-0.39-0.916c-0.259-0.231-0.607-0.346-1.044-0.346c-0.425,0-0.762,0.095-1.015,0.285
			c-0.251,0.19-0.377,0.437-0.377,0.742c0,0.283,0.113,0.513,0.34,0.691c0.225,0.179,0.588,0.335,1.086,0.472
			c0.498,0.136,0.876,0.277,1.132,0.424c0.258,0.146,0.451,0.321,0.579,0.524c0.13,0.203,0.195,0.443,0.195,0.72
			c0,0.437-0.175,0.788-0.524,1.052c-0.35,0.264-0.81,0.396-1.382,0.396c-0.391,0-0.751-0.07-1.077-0.21
			c-0.327-0.139-0.575-0.335-0.744-0.586c-0.169-0.252-0.253-0.54-0.253-0.866h0.469c0,0.391,0.146,0.701,0.438,0.927
			c0.292,0.226,0.681,0.339,1.166,0.339c0.432,0,0.779-0.095,1.04-0.286C4.043,47.88,4.174,47.627,4.174,47.311z"/>
		<path class="st0" d="M6.879,48.368c0.318,0,0.584-0.09,0.799-0.269c0.214-0.179,0.331-0.411,0.348-0.695h0.439
			c-0.013,0.252-0.091,0.481-0.236,0.688c-0.145,0.208-0.337,0.369-0.578,0.486c-0.24,0.117-0.497,0.175-0.772,0.175
			c-0.541,0-0.97-0.188-1.287-0.564c-0.316-0.376-0.474-0.882-0.474-1.517v-0.137c0-0.407,0.071-0.767,0.213-1.078
			c0.142-0.313,0.346-0.554,0.612-0.725c0.265-0.169,0.577-0.255,0.933-0.255c0.452,0,0.825,0.135,1.118,0.404
			c0.294,0.269,0.451,0.624,0.471,1.064H8.026c-0.02-0.323-0.136-0.584-0.348-0.782c-0.213-0.198-0.48-0.297-0.802-0.297
			c-0.412,0-0.732,0.149-0.959,0.446c-0.228,0.298-0.341,0.715-0.341,1.25v0.134c0,0.526,0.114,0.937,0.341,1.232
			C6.144,48.22,6.465,48.368,6.879,48.368z"/>
		<path class="st0" d="M9.634,45.249c0.151-0.246,0.342-0.436,0.576-0.571s0.49-0.202,0.766-0.202c0.442,0,0.772,0.125,0.988,0.374
			s0.325,0.623,0.328,1.121v2.707h-0.453v-2.711c-0.003-0.368-0.081-0.642-0.235-0.823c-0.154-0.18-0.4-0.27-0.738-0.27
			c-0.282,0-0.532,0.088-0.749,0.265c-0.218,0.176-0.378,0.415-0.483,0.715v2.824H9.181v-5.855h0.453V45.249z"/>
		<path class="st0" d="M14.868,48.752c-0.351,0-0.668-0.086-0.95-0.259c-0.284-0.173-0.504-0.413-0.662-0.723
			c-0.158-0.308-0.236-0.655-0.236-1.039v-0.163c0-0.396,0.076-0.754,0.23-1.072c0.154-0.318,0.368-0.568,0.642-0.749
			c0.274-0.182,0.573-0.273,0.893-0.273c0.5,0,0.897,0.171,1.191,0.513c0.293,0.342,0.441,0.809,0.441,1.401v0.256h-2.943v0.087
			c0,0.468,0.134,0.857,0.402,1.168c0.268,0.312,0.606,0.468,1.012,0.468c0.244,0,0.459-0.045,0.646-0.134
			c0.186-0.089,0.356-0.231,0.508-0.427l0.286,0.217C15.993,48.51,15.506,48.752,14.868,48.752z M14.785,44.864
			c-0.344,0-0.633,0.125-0.867,0.378c-0.235,0.251-0.378,0.59-0.429,1.013h2.474v-0.049c-0.013-0.396-0.125-0.719-0.339-0.968
			C15.41,44.989,15.13,44.864,14.785,44.864z"/>
		<path class="st0" d="M16.926,46.575c0-0.64,0.142-1.15,0.429-1.53c0.286-0.38,0.674-0.57,1.164-0.57
			c0.557,0,0.981,0.22,1.274,0.66v-2.314h0.453v5.855h-0.427L19.8,48.127c-0.291,0.417-0.722,0.625-1.288,0.625
			c-0.476,0-0.859-0.191-1.15-0.573c-0.291-0.383-0.435-0.899-0.435-1.549v-0.055H16.926z M17.387,46.656
			c0,0.526,0.105,0.941,0.317,1.244c0.21,0.304,0.508,0.456,0.891,0.456c0.562,0,0.961-0.247,1.198-0.744v-1.937
			c-0.237-0.535-0.634-0.804-1.189-0.804c-0.385,0-0.683,0.151-0.896,0.452C17.494,45.625,17.387,46.069,17.387,46.656z"/>
		<path class="st0" d="M23.905,48.154c-0.274,0.399-0.713,0.598-1.315,0.598c-0.441,0-0.774-0.128-1.003-0.383
			c-0.229-0.256-0.346-0.634-0.351-1.134v-2.684h0.454v2.627c0,0.784,0.317,1.177,0.952,1.177c0.661,0,1.079-0.273,1.255-0.82
			v-2.984h0.457v4.125h-0.442L23.905,48.154z"/>
		<path class="st0" d="M25.856,48.676h-0.457v-5.855h0.457V48.676z"/>
		<path class="st0" d="M28.497,48.752c-0.351,0-0.668-0.086-0.951-0.259c-0.284-0.173-0.504-0.413-0.662-0.723
			c-0.158-0.308-0.236-0.655-0.236-1.039v-0.163c0-0.396,0.077-0.754,0.23-1.072c0.154-0.318,0.368-0.568,0.643-0.749
			c0.274-0.182,0.571-0.273,0.891-0.273c0.501,0,0.898,0.171,1.192,0.513c0.293,0.342,0.44,0.809,0.44,1.401v0.256h-2.943v0.087
			c0,0.468,0.135,0.857,0.402,1.168c0.269,0.312,0.606,0.468,1.012,0.468c0.244,0,0.459-0.045,0.646-0.134
			c0.186-0.089,0.357-0.231,0.509-0.427l0.285,0.217C29.621,48.51,29.134,48.752,28.497,48.752z M28.412,44.864
			c-0.342,0-0.632,0.125-0.867,0.378c-0.235,0.251-0.379,0.59-0.429,1.013h2.474v-0.049c-0.013-0.396-0.126-0.719-0.34-0.968
			C29.037,44.989,28.758,44.864,28.412,44.864z"/>
		<path class="st0" d="M36.478,46.946c-0.064,0.585-0.273,1.032-0.628,1.342c-0.354,0.31-0.827,0.465-1.416,0.465
			c-0.412,0-0.776-0.103-1.093-0.308c-0.316-0.207-0.561-0.498-0.734-0.875c-0.173-0.378-0.261-0.809-0.263-1.294v-0.721
			c0-0.492,0.086-0.93,0.259-1.311c0.172-0.381,0.421-0.675,0.745-0.882c0.324-0.208,0.697-0.311,1.119-0.311
			c0.595,0,1.064,0.16,1.409,0.48c0.344,0.32,0.544,0.764,0.601,1.331h-0.473c-0.118-0.943-0.629-1.415-1.537-1.415
			c-0.503,0-0.904,0.188-1.203,0.565c-0.298,0.376-0.447,0.896-0.447,1.56v0.679c0,0.641,0.145,1.152,0.436,1.534
			c0.291,0.381,0.684,0.572,1.18,0.572c0.49,0,0.86-0.118,1.109-0.352c0.249-0.235,0.402-0.588,0.462-1.058L36.478,46.946
			L36.478,46.946z"/>
		<path class="st0" d="M39.919,48.676c-0.046-0.13-0.075-0.321-0.088-0.576c-0.16,0.209-0.364,0.369-0.612,0.483
			c-0.248,0.113-0.511,0.169-0.788,0.169c-0.396,0-0.717-0.11-0.962-0.332c-0.245-0.22-0.368-0.5-0.368-0.839
			c0-0.401,0.167-0.718,0.501-0.952s0.8-0.351,1.397-0.351h0.828V45.81c0-0.295-0.091-0.527-0.273-0.695
			c-0.182-0.169-0.447-0.253-0.795-0.253c-0.319,0-0.581,0.081-0.79,0.244c-0.208,0.163-0.313,0.357-0.313,0.586l-0.457-0.003
			c0-0.328,0.152-0.612,0.457-0.852s0.679-0.36,1.124-0.36c0.46,0,0.823,0.115,1.089,0.345s0.402,0.551,0.41,0.962v1.952
			c0,0.4,0.042,0.698,0.126,0.896v0.046h-0.486V48.676z M38.486,48.348c0.305,0,0.577-0.074,0.817-0.221s0.414-0.344,0.524-0.591
			V46.63h-0.816c-0.455,0.005-0.811,0.088-1.067,0.249c-0.257,0.162-0.385,0.383-0.385,0.666c0,0.231,0.086,0.423,0.258,0.575
			C37.988,48.272,38.212,48.348,38.486,48.348z"/>
		<path class="st0" d="M41.812,48.676h-0.457v-5.855h0.457V48.676z"/>
		<path class="st0" d="M43.367,48.676H42.91v-5.855h0.457V48.676z"/>
	</g>
	<path class="st1" d="M34.821,23.384c-0.197-0.589-0.48-1.128-0.867-1.613c-0.245-0.307-0.525-0.575-0.847-0.8
		c-0.047-0.033-0.099-0.093-0.105-0.146c-0.034-0.28-0.045-0.564-0.082-0.843c-0.075-0.563-0.159-1.126-0.247-1.687
		c-0.026-0.165-0.086-0.325-0.123-0.489c-0.045-0.202-0.071-0.408-0.125-0.608c-0.093-0.345-0.197-0.688-0.303-1.029
		c-0.196-0.626-0.454-1.226-0.762-1.804c-0.035-0.066-0.04-0.118-0.011-0.191c0.118-0.298,0.117-0.608-0.058-0.872
		c-0.271-0.41-0.561-0.811-0.878-1.186c-0.7-0.826-1.542-1.481-2.498-1.991c-0.659-0.351-1.348-0.623-2.07-0.81
		c-0.213-0.055-0.433-0.083-0.648-0.129c-0.184-0.04-0.364-0.104-0.549-0.13c-0.479-0.067-0.959-0.133-1.441-0.173
		C22.208,8.8,21.21,8.822,20.219,8.958c-0.606,0.083-1.209,0.199-1.804,0.339c-0.539,0.127-1.059,0.325-1.566,0.554
		c-0.712,0.321-1.371,0.725-1.978,1.215c-0.733,0.591-1.34,1.295-1.866,2.072c-0.221,0.327-0.296,0.673-0.153,1.053
		c0.017,0.045,0.015,0.109-0.005,0.153c-0.165,0.366-0.353,0.723-0.502,1.095c-0.331,0.822-0.585,1.669-0.747,2.542
		c-0.089,0.479-0.177,0.959-0.248,1.441c-0.057,0.387-0.104,0.777-0.124,1.167c-0.011,0.217-0.103,0.34-0.272,0.46
		c-0.669,0.478-1.118,1.136-1.446,1.876c-0.309,0.696-0.454,1.434-0.483,2.194c-0.032,0.847,0.086,1.671,0.387,2.468
		c0.3,0.795,0.744,1.491,1.405,2.032c0.571,0.468,1.222,0.741,1.973,0.766c0.318,0.011,0.551-0.114,0.746-0.345
		c0.216-0.256,0.352-0.557,0.461-0.867c0.243-0.688,0.364-1.404,0.435-2.126c0.092-0.934,0.121-1.871,0.04-2.808
		c-0.036-0.414-0.08-0.828-0.14-1.238c-0.043-0.294-0.112-0.585-0.18-0.875c-0.105-0.448-0.254-0.881-0.515-1.265
		c-0.192-0.283-0.434-0.496-0.809-0.482c-0.221,0.008-0.232,0.002-0.206-0.218c0.052-0.436,0.109-0.872,0.178-1.306
		c0.049-0.306,0.107-0.612,0.186-0.911c0.143-0.54,0.279-1.084,0.468-1.608c0.176-0.488,0.412-0.955,0.632-1.426
		c0.033-0.071,0.119-0.119,0.183-0.173c0.129-0.11,0.281-0.201,0.387-0.33c0.208-0.253,0.381-0.535,0.586-0.791
		c0.516-0.643,1.143-1.159,1.858-1.566c0.531-0.302,1.093-0.537,1.683-0.697c0.349-0.095,0.701-0.194,1.058-0.245
		c0.547-0.077,1.098-0.127,1.649-0.164c0.8-0.054,1.599-0.021,2.393,0.088c0.399,0.055,0.797,0.127,1.187,0.223
		c0.645,0.159,1.266,0.387,1.856,0.7c1.035,0.549,1.865,1.317,2.505,2.293c0.146,0.223,0.31,0.419,0.568,0.518
		c0.031,0.012,0.065,0.04,0.078,0.07c0.22,0.472,0.465,0.935,0.645,1.422c0.193,0.522,0.331,1.066,0.48,1.604
		c0.075,0.273,0.132,0.552,0.179,0.832c0.069,0.418,0.123,0.838,0.182,1.257c0.02,0.146,0.034,0.293,0.052,0.451
		c-0.06-0.006-0.099-0.011-0.139-0.014c-0.182-0.013-0.362-0.017-0.53,0.075c-0.325,0.178-0.498,0.48-0.644,0.8
		c-0.23,0.505-0.351,1.041-0.45,1.586c-0.117,0.65-0.172,1.305-0.197,1.962c-0.025,0.662-0.004,1.324,0.056,1.985
		c0.052,0.58,0.128,1.154,0.262,1.719c0.115,0.486,0.262,0.962,0.545,1.383c0.212,0.315,0.478,0.534,0.89,0.484
		c0.054-0.006,0.109-0.001,0.183-0.001c-0.487,1.398-1.243,2.588-2.375,3.544c-0.029-0.033-0.048-0.05-0.059-0.07
		c-0.261-0.44-0.787-0.635-1.29-0.486c-0.578,0.172-1.15,0.363-1.724,0.544c-0.345,0.109-0.687,0.226-1.036,0.32
		c-0.586,0.158-0.992,0.62-0.909,1.226c0.047,0.342,0.162,0.682,0.297,1.002c0.196,0.462,0.785,0.715,1.268,0.572
		c0.559-0.165,1.113-0.346,1.669-0.52c0.341-0.107,0.683-0.21,1.024-0.319c0.24-0.077,0.489-0.138,0.681-0.319
		c0.268-0.252,0.399-0.56,0.365-0.929c-0.007-0.081,0.019-0.131,0.082-0.18c0.145-0.114,0.284-0.234,0.423-0.354
		c0.412-0.353,0.771-0.755,1.095-1.19c0.47-0.63,0.853-1.309,1.142-2.039c0.12-0.302,0.215-0.614,0.308-0.925
		c0.031-0.102,0.065-0.179,0.165-0.229c0.593-0.293,1.056-0.739,1.427-1.275c0.633-0.914,0.937-1.942,0.99-3.046
		C35.171,24.915,35.074,24.14,34.821,23.384z"/>
</g>
</svg>
