<?xml version="1.0" encoding="utf-8"?>
<!-- Generator: Adobe Illustrator 21.1.0, SVG Export Plug-In . SVG Version: 6.00 Build 0)  -->
<svg version="1.1" id="Layer_1" xmlns="http://www.w3.org/2000/svg" xmlns:xlink="http://www.w3.org/1999/xlink" x="0px" y="0px"
	 viewBox="0 0 60 12" style="enable-background:new 0 0 60 12;" xml:space="preserve">
<style type="text/css">
	.st0{fill:url(#SVGID_1_);}
	.st1{fill:url(#SVGID_2_);}
	.st2{fill:url(#SVGID_3_);}
	.st3{opacity:0.44;fill:#FFFFFF;enable-background:new    ;}
	.st4{fill:#8DC56F;}
	.st5{fill:#6CB048;}
	.st6{opacity:0.33;fill:#FFFFFF;enable-background:new    ;}
	.st7{fill:#FFFFFF;}
	.st8{fill:#A1D784;}
</style>
<g>
	<g>
		
			<linearGradient id="SVGID_1_" gradientUnits="userSpaceOnUse" x1="15.9334" y1="-17.6046" x2="15.9334" y2="-10.1257" gradientTransform="matrix(1 0 0 1 0 20)">
			<stop  offset="0" style="stop-color:#FFFFFF"/>
			<stop  offset="0.3126" style="stop-color:#E2E1E0"/>
			<stop  offset="0.4767" style="stop-color:#E0E0DF"/>
			<stop  offset="0.7198" style="stop-color:#C8C8C8"/>
		</linearGradient>
		<path class="st0" d="M14.77,2.531l0.075,0.862c0.506-0.665,1.206-0.998,2.097-0.998c0.764,0,1.335,0.229,1.713,0.686
			c0.378,0.457,0.574,1.144,0.587,2.063v4.73h-2.294V5.24c0-0.371-0.075-0.644-0.224-0.818C16.575,4.248,16.304,4.16,15.91,4.16
			c-0.448,0-0.781,0.176-0.998,0.53v5.184h-2.287V2.531C12.625,2.531,14.77,2.531,14.77,2.531z"/>
		
			<linearGradient id="SVGID_2_" gradientUnits="userSpaceOnUse" x1="36.3384" y1="-17.4686" x2="36.3384" y2="-10.1257" gradientTransform="matrix(1 0 0 1 0 20)">
			<stop  offset="0" style="stop-color:#FFFFFF"/>
			<stop  offset="0.3126" style="stop-color:#E2E1E0"/>
			<stop  offset="0.4767" style="stop-color:#E0E0DF"/>
			<stop  offset="0.7198" style="stop-color:#C8C8C8"/>
		</linearGradient>
		<path class="st1" d="M38.29,6.861l0.739-4.33h2.191L39.49,9.874h-1.934l-1.214-4.357L35.12,9.874h-1.934l-1.73-7.343h2.191
			l0.726,4.431l1.168-4.431h1.595L38.29,6.861z"/>
	</g>
	
		<linearGradient id="SVGID_3_" gradientUnits="userSpaceOnUse" x1="25.8061" y1="25.4648" x2="25.8061" y2="13.45" gradientTransform="matrix(1 0 0 -1 0 25.45)">
		<stop  offset="0" style="stop-color:#FFFFFF"/>
		<stop  offset="0.3126" style="stop-color:#E2E1E0"/>
		<stop  offset="0.4767" style="stop-color:#E0E0DF"/>
		<stop  offset="0.7198" style="stop-color:#C8C8C8"/>
	</linearGradient>
	<path class="st2" d="M24.521,2.75c0.432,0,4.715,2.475,4.715,3.258c0,0.783-4.167,3.258-4.715,3.258
		C23.974,9.267,24.09,2.75,24.521,2.75z M25.807-0.015c3.262,0,5.905,2.69,5.905,6.007c0,3.318-2.644,6.007-5.905,6.007
		s-5.906-2.69-5.906-6.009S22.545-0.015,25.807-0.015z"/>
	<path class="st3" d="M25.807-0.015c-2.57,0-4.755,1.671-5.567,4.002c1.02,0.737,2.384,1.26,3.924,1.461
		c0.038-1.423,0.167-2.699,0.357-2.699c0.32,0,2.745,1.355,3.987,2.376c1.088-0.321,2.033-0.813,2.757-1.426
		C30.38,1.52,28.27-0.015,25.807-0.015z"/>
	<path class="st4" d="M24.521,2.75c0.432,0,4.715,2.475,4.715,3.258c0,0.783-4.167,3.258-4.715,3.258
		C23.974,9.267,24.09,2.75,24.521,2.75z"/>
	<g>
		<path class="st5" d="M24.521,2.75c-0.055,0-0.105,0.105-0.148,0.29c0.549,0.08,4.688,2.483,4.688,3.254
			c0,0.029-0.008,0.061-0.019,0.096c0.124-0.15,0.196-0.281,0.196-0.382C29.236,5.225,24.952,2.75,24.521,2.75z"/>
	</g>
	<path class="st6" d="M24.164,5.45c0.455,0.06,0.924,0.091,1.405,0.091c1.047,0,2.041-0.148,2.938-0.413
		c-1.242-1.022-3.667-2.375-3.987-2.375C24.331,2.75,24.202,4.027,24.164,5.45z"/>
</g>
<g>
	<g>
		<path class="st7" d="M42.375,2.031h-0.299v0.831h-0.122V2.031h-0.298v-0.1h0.72L42.375,2.031L42.375,2.031z"/>
		<path class="st7" d="M42.672,1.93l0.304,0.76l0.305-0.76h0.159v0.931h-0.123V2.499l0.012-0.391l-0.305,0.754h-0.094l-0.305-0.752
			l0.012,0.39v0.362h-0.122V1.93H42.672z"/>
	</g>
</g>
<path class="st8" d="M58.495,1.042H46.152c-0.301,0-0.548,0.246-0.548,0.548v7.009c0,0.301,0.246,0.548,0.548,0.548h2.224
	l0.611,1.708c0.015,0.08,0.04,0.155,0.079,0.222l0.003,0.008c0,0,0.003,0,0.003,0c0.137,0.226,0.397,0.365,0.677,0.33
	c0.143-0.018,0.27-0.078,0.371-0.165c0.002,0,0.005,0,0.006,0c0.054-0.009,1.081-1.089,2.035-2.102h6.333
	c0.301,0,0.548-0.246,0.548-0.548V1.588C59.041,1.288,58.795,1.042,58.495,1.042z"/>
</svg>
