<?xml version="1.0" encoding="utf-8"?>
<!-- Generator: Adobe Illustrator 21.1.0, SVG Export Plug-In . SVG Version: 6.00 Build 0)  -->
<svg version="1.1" id="Layer_1" xmlns="http://www.w3.org/2000/svg" xmlns:xlink="http://www.w3.org/1999/xlink" x="0px" y="0px"
	 viewBox="0 0 70 30" style="enable-background:new 0 0 70 30;" xml:space="preserve">
<style type="text/css">
	.st0{opacity:0.66;}
	.st1{fill:#FFFFFF;}
</style>
<g id="sQBKPf_1_" class="st0">
	<g>
		<path class="st1" d="M45.387,13.051c0.032,0,0.064,0,0.096-0.001c-0.004-0.004-0.008-0.008-0.012-0.012
			c0.058-0.015,0.114-0.032,0.174-0.045c0.057-0.012,0.124-0.018,0.174-0.033c0.085-0.025,0.149-0.032,0.21-0.001
			c-0.081,0.062-0.247,0.022-0.335,0.071c0.014,0.01,0.037,0.026,0.066,0.048c0.028-0.008,0.055-0.015,0.08-0.023
			c0.118-0.036,0.29-0.015,0.321,0.032c0.028,0.041,0.092,0.076,0.139,0.113c0.018,0.015,0.059,0.032,0.046,0.044
			c-0.018,0.018-0.075,0.04-0.121,0.046c-0.301,0.043-0.603,0.085-0.906,0.122c-0.126,0.015-0.163,0.041-0.161,0.083
			c0.005,0.081-0.021,0.093-0.237,0.106c-0.18,0.011-0.36,0.017-0.54,0.028c-0.051,0.003-0.103,0.015-0.164,0.024
			c0.144,0.073,0.123,0.157,0.073,0.247c-0.223,0.001-0.433-0.002-0.647,0.005c-0.254,0.008-0.511,0.025-0.766,0.033
			c-0.062,0.002-0.118-0.019-0.177-0.015c-0.136,0.011-0.274,0.03-0.412,0.046c0,0.008,0,0.016,0,0.025
			c0.149-0.005,0.297-0.01,0.445-0.014c0.061-0.002,0.12-0.001,0.18,0.002c0.117,0.003,0.176,0.017,0.15,0.076
			c-0.035,0.079-0.023,0.157-0.035,0.236c-0.003,0.023-0.017,0.047-0.029,0.077c-0.208-0.008-0.443,0.005-0.59-0.029
			c-0.163-0.037-0.328-0.009-0.493-0.006c-0.187,0.004-0.378,0.018-0.569,0.029c-0.1,0.006-0.215,0.036-0.272-0.015
			c-0.011-0.009-0.114,0.002-0.216,0.006c0.083-0.012,0.128-0.018,0.163-0.024c-0.029-0.021-0.056-0.041-0.09-0.066
			c-0.512,0.036-1.039,0.074-1.588,0.113c0.022-0.008,0.05-0.025,0.076-0.027c0.277-0.022,0.553-0.041,0.829-0.061
			c0.314-0.022,0.628-0.045,0.944-0.08c-0.133,0.005-0.266,0.008-0.399,0.018c-0.549,0.039-1.097,0.08-1.645,0.119
			c-0.045,0.003-0.089-0.005-0.126-0.02c-0.009,0.001-0.023,0-0.027,0.002c-0.129,0.061-0.281,0.066-0.446,0.073
			c-0.218,0.01-0.441,0.032-0.663,0.039c0.191-0.019,0.382-0.039,0.574-0.058c0-0.005,0-0.012,0-0.017
			c-0.17,0.013-0.341,0.023-0.51,0.039c-0.504,0.047-1.008,0.098-1.512,0.146c-0.228,0.022-0.458,0.035-0.685,0.06
			c-0.194,0.022-0.386,0.055-0.58,0.082c-0.07,0.01-0.142,0.017-0.213,0.025c-0.365,0.038-0.729,0.073-1.094,0.113
			c-0.285,0.032-0.57,0.068-0.855,0.103c-0.195,0.025-0.398,0.069-0.581,0.071c-0.175,0.002-0.294,0.05-0.442,0.066
			c-0.133,0.015-0.267,0.028-0.403,0.032c0.22-0.064,0.451-0.102,0.696-0.122c0.074-0.006,0.149-0.022,0.223-0.033
			c0.027-0.005,0.059-0.017,0.078-0.015c0.154,0.01,0.286-0.038,0.428-0.058c0.193-0.027,0.385-0.058,0.58-0.079
			c0.733-0.08,1.467-0.156,2.2-0.237c0.198-0.022,0.394-0.055,0.592-0.077c0.173-0.019,0.347-0.029,0.52-0.043
			c0.415-0.035,0.831-0.069,1.246-0.108c0.49-0.045,0.98-0.094,1.47-0.142c0.051-0.005,0.102-0.015,0.153-0.022
			c0-0.007,0-0.013,0-0.02c-0.227,0.018-0.455,0.036-0.682,0.055c-0.005,0-0.009,0.002-0.014,0.002
			c-0.208,0.009-0.42,0.049-0.627,0.031c-0.096-0.008-0.225,0.003-0.336,0.017c-0.325,0.039-0.644,0.049-0.966,0.064
			c-0.019,0.001-0.045-0.002-0.055,0.002c-0.201,0.078-0.405,0.039-0.606,0.056c-0.296,0.026-0.593,0.056-0.889,0.086
			c-0.314,0.032-0.631,0.056-0.941,0.098c-0.294,0.04-0.575,0.025-0.869,0.065c-0.288,0.039-0.583,0.058-0.873,0.091
			c-0.357,0.04-0.713,0.086-1.07,0.129c-0.052,0.006-0.106,0.007-0.156,0.015c-0.04,0.007-0.083,0.02-0.109,0.034
			c-0.055,0.03-0.106,0.047-0.193,0.034c-0.048-0.007-0.102-0.022-0.16,0.021c-0.027,0.019-0.138,0.03-0.213,0.04
			c-0.412,0.055-0.825,0.106-1.237,0.163c-0.064,0.008-0.119,0.038-0.182,0.054c-0.093,0.024-0.188,0.051-0.287,0.066
			c-0.285,0.042-0.573,0.079-0.878,0.121c0.015-0.032,0.023-0.047,0.028-0.056c-0.122-0.025-0.233-0.049-0.344-0.072
			c0.126-0.06,0.261-0.082,0.432-0.093c0.227-0.016,0.456-0.052,0.684-0.082c0.435-0.058,0.87-0.118,1.305-0.176
			c0.497-0.067,0.994-0.134,1.491-0.201c0.028-0.004,0.054-0.009,0.079-0.022c-0.441,0.045-0.882,0.086-1.322,0.135
			c-0.202,0.022-0.403,0.059-0.602,0.092c-0.086,0.015-0.166,0.045-0.252,0.055c-0.099,0.012-0.207,0.019-0.263-0.023
			c-0.015-0.012-0.106-0.007-0.164-0.004c-0.193,0.01-0.388,0.025-0.581,0.032c-0.082,0.003-0.156-0.012-0.237-0.027
			c0.163-0.044,0.019-0.135,0.29-0.156c-0.059-0.076-0.113-0.145-0.175-0.225c0.248,0.022,0.271,0.018,0.446-0.056
			c-0.169-0.018-0.341-0.04-0.177-0.127c-0.082-0.025-0.173-0.042-0.227-0.071c-0.064-0.035-0.014-0.066,0.116-0.084
			c0.794-0.112,1.585-0.229,2.381-0.334c0.586-0.077,1.176-0.139,1.765-0.207c0.055-0.006,0.113-0.005,0.168-0.005
			c0.059,0,0.092-0.002,0.155-0.025c0.072-0.027,0.204-0.032,0.311-0.042c0.106-0.01,0.232-0.002,0.313-0.025
			c0.189-0.054,0.383-0.049,0.573-0.076c0.088-0.013,0.178-0.018,0.278-0.018c-0.051,0.016-0.102,0.032-0.185,0.058
			c0.312-0.032,0.585-0.059,0.858-0.087c0.004,0.002,0.007,0.004,0.011,0.006c-0.05,0.012-0.1,0.026-0.152,0.033
			c-0.903,0.113-1.806,0.225-2.709,0.335c-0.221,0.027-0.445,0.045-0.69,0.07c0.042-0.015,0.069-0.023,0.096-0.032
			c-0.002-0.003-0.003-0.006-0.005-0.009c-0.294,0.039-0.587,0.079-0.881,0.118c0,0.003,0,0.005,0,0.008
			c0.122-0.012,0.244-0.025,0.366-0.037c0.002,0.005,0.005,0.011,0.007,0.016c-0.382,0.057-0.764,0.114-1.147,0.17
			c-0.001,0.003-0.002,0.006-0.002,0.009c0.278-0.024,0.557-0.049,0.835-0.07c0.293-0.023,0.577-0.066,0.865-0.11
			c0.284-0.045,0.576-0.07,0.868-0.101c-0.146,0.024-0.294,0.048-0.44,0.072c0.001,0.004,0.002,0.008,0.002,0.011
			c0.048-0.005,0.096-0.011,0.144-0.015c0.267-0.022,0.533-0.043,0.8-0.068c0.129-0.012,0.257-0.036,0.385-0.047
			c0.263-0.022,0.526-0.039,0.788-0.058c0.043-0.003,0.086-0.004,0.129-0.008c0.496-0.049,0.993-0.099,1.489-0.15
			c0.449-0.046,0.896-0.092,1.344-0.141c0.077-0.008,0.153-0.027,0.23-0.039c0.041-0.007,0.088-0.016,0.125-0.015
			c0.325,0.008,0.653-0.049,0.979-0.079c0.156-0.014,0.313-0.037,0.469-0.05c0.087-0.007,0.175,0.005,0.261-0.003
			c0.304-0.029,0.601-0.033,0.901-0.049c0.304-0.015,0.61-0.039,0.912-0.053c0.531-0.025,1.064-0.055,1.591-0.069
			c0.67-0.019,1.336-0.026,2.003-0.037c0.085-0.002,0.165,0.007,0.267,0.012c-0.024-0.017-0.035-0.025-0.046-0.033L45.387,13.051z
			 M40.023,14.021c0.066,0.002,0.133,0.011,0.196,0.003c0.141-0.018,0.279-0.044,0.455-0.072c-0.079,0.002-0.124,0-0.17,0.003
			C40.34,13.965,40.194,14.028,40.023,14.021c0.03-0.013,0.061-0.027,0.101-0.045c-0.412,0.028-0.412,0.028-0.437,0.007
			c0.186-0.018,0.368-0.037,0.55-0.055c-0.281,0.015-0.561,0.035-0.841,0.058c-0.039,0.003-0.078,0.018-0.117,0.027
			c0.004,0.004,0.008,0.008,0.012,0.012c0.074-0.013,0.147-0.025,0.221-0.039c0.003,0.005,0.007,0.012,0.01,0.017
			c-0.129,0.069-0.311,0.052-0.477,0.079c0.002-0.021,0.004-0.035,0.007-0.06c-0.519,0.052-1.029,0.104-1.538,0.156
			c-0.001-0.005-0.002-0.011-0.003-0.016c0.133-0.017,0.265-0.033,0.398-0.05c-0.002-0.005-0.002-0.01-0.004-0.015
			c-1.102,0.123-2.204,0.246-3.306,0.369c0.002,0.007,0.002,0.015,0.004,0.022c0.515-0.058,1.03-0.116,1.553-0.175
			c0.001,0.011,0.002,0.022,0.004,0.036c0.069-0.005,0.13-0.008,0.191-0.014c0.348-0.031,0.696-0.066,1.043-0.091
			c0.371-0.028,0.742-0.041,1.113-0.073c0.165-0.015,0.317-0.03,0.484-0.029c0.194,0.002,0.41-0.03,0.616-0.048
			c0.001-0.005,0.001-0.008,0.002-0.013c-0.081,0.004-0.163,0.008-0.244,0.012c0.125-0.019,0.247-0.025,0.369-0.035
			C39.83,14.048,39.927,14.033,40.023,14.021z M40.391,14.044c0,0.006-0.001,0.012-0.001,0.018c0.128-0.005,0.256-0.008,0.385-0.015
			c0.234-0.012,0.469,0.003,0.705-0.06c0.019-0.005,0.069,0.001,0.089,0.008c0.069,0.026,0.232,0.027,0.318,0.004
			c-0.026-0.017-0.051-0.033-0.079-0.052c-0.025,0.011-0.055,0.025-0.064,0.029c-0.096-0.008-0.173-0.015-0.224-0.02
			c0.042-0.018,0.1-0.045,0.159-0.071c-0.011-0.005-0.022-0.01-0.032-0.015c-0.078,0.004-0.156,0.008-0.242,0.013
			c0.028-0.007,0.05-0.012,0.085-0.021c-0.244-0.033-0.455,0.036-0.673,0.074c-0.008,0.002-0.011,0.01-0.021,0.012
			c-0.067,0.019-0.066,0.066-0.189,0.066C40.539,14.015,40.462,14.034,40.391,14.044z M32.255,13.853
			c0.002,0.007,0.004,0.013,0.005,0.02c0.116-0.015,0.23-0.031,0.346-0.044c0.183-0.022,0.368-0.038,0.55-0.062
			c0.216-0.028,0.43-0.061,0.645-0.092c0.009-0.002,0.017-0.007,0.055-0.024C33.291,13.696,32.778,13.792,32.255,13.853z
			 M29.062,14.66c-0.003,0.005-0.005,0.01-0.008,0.015c0.294,0.036,0.766,0.019,1.044-0.039c-0.187,0.012-0.367,0.029-0.541,0.032
			C29.389,14.673,29.227,14.664,29.062,14.66z M34.637,13.559c-0.216,0.022-0.448,0.045-0.68,0.069
			C34.075,13.659,34.541,13.599,34.637,13.559z M41.263,14.288c-0.002,0.005-0.004,0.011-0.005,0.017
			c0.113,0.016,0.223,0.069,0.339-0.024C41.489,14.284,41.375,14.286,41.263,14.288z M36.544,14.112
			c-0.001-0.004-0.002-0.008-0.002-0.012c-0.25,0.025-0.499,0.051-0.749,0.076c0.001,0.004,0.001,0.008,0.002,0.012
			C36.044,14.162,36.294,14.136,36.544,14.112z M42.847,13.894c0.002-0.005,0.002-0.011,0.004-0.017
			c-0.136,0.006-0.273,0.012-0.409,0.018c-0.002,0.008-0.004,0.016-0.005,0.025C42.573,13.912,42.71,13.903,42.847,13.894z
			 M35.51,14.18c0-0.002-0.001-0.005-0.001-0.008c-0.23,0.023-0.461,0.047-0.692,0.07c0,0.002,0.001,0.005,0.001,0.008
			C35.049,14.226,35.28,14.203,35.51,14.18z M31.217,14.246c0.002,0.005,0.004,0.01,0.005,0.015
			c0.119-0.012,0.239-0.024,0.358-0.036c-0.001-0.005-0.002-0.011-0.002-0.015C31.458,14.221,31.338,14.234,31.217,14.246z
			 M36.728,14.056c0-0.003-0.001-0.006-0.001-0.009c-0.138,0.014-0.276,0.028-0.414,0.042c0,0.003,0.001,0.006,0.001,0.009
			C36.452,14.083,36.59,14.069,36.728,14.056z M42.601,13.818c-0.149,0.02-0.305-0.027-0.454,0.046
			C42.302,13.849,42.451,13.834,42.601,13.818z"/>
		<path class="st1" d="M31.453,15.119c-0.032,0.011-0.061,0.026-0.095,0.031c-0.169,0.025-0.34,0.045-0.508,0.071
			c-0.073,0.012-0.176,0.015-0.186,0.064c-0.002,0.008-0.083,0.022-0.129,0.033c-0.069,0.016-0.14,0.032-0.21,0.047
			c0.005,0.005,0.008,0.011,0.013,0.016c0.087-0.012,0.174-0.024,0.262-0.036c0.002,0.005,0.005,0.01,0.008,0.015
			c-0.129,0.029-0.257,0.059-0.389,0.086c-0.029,0.006-0.089,0.002-0.103-0.006c-0.069-0.04-0.126-0.082-0.2-0.133
			c0.472-0.102,0.993-0.139,1.501-0.206C31.429,15.107,31.441,15.113,31.453,15.119z"/>
		<path class="st1" d="M45.379,13.055c-0.159-0.005-0.347,0.014-0.447-0.045c0.185-0.022,0.361-0.044,0.537-0.062
			c0.049-0.005,0.1,0.003,0.145,0.016c-0.098,0.01-0.196,0.02-0.321,0.032c0.039,0.022,0.066,0.039,0.093,0.055
			C45.387,13.051,45.379,13.055,45.379,13.055z"/>
		<path class="st1" d="M39.228,14.392c-0.267,0.027-0.534,0.054-0.801,0.081c-0.002-0.004-0.002-0.008-0.004-0.012
			c0.129-0.014,0.259-0.03,0.389-0.042c0.135-0.012,0.269-0.019,0.404-0.029C39.22,14.391,39.224,14.391,39.228,14.392z"/>
		<path class="st1" d="M33.761,14.653c0.159-0.016,0.318-0.032,0.476-0.049c-0.159,0.036-0.317,0.072-0.48,0.069
			C33.758,14.667,33.759,14.66,33.761,14.653z"/>
		<path class="st1" d="M40.383,14.384c-0.131,0.013-0.262,0.026-0.392,0.04c-0.001-0.003-0.002-0.007-0.002-0.01
			c0.13-0.013,0.261-0.026,0.391-0.039C40.381,14.377,40.381,14.381,40.383,14.384z"/>
		<path class="st1" d="M35.868,13.436c0.092-0.009,0.183-0.018,0.274-0.028c-0.09,0.032-0.182,0.058-0.279,0.047
			C35.865,13.449,35.867,13.443,35.868,13.436z"/>
		<path class="st1" d="M40.968,14.019c0.055-0.079,0.172-0.089,0.389-0.076C41.211,13.972,41.094,13.995,40.968,14.019z"/>
	</g>
</g>
<g>
	<path class="st1" d="M14.249,7.304c0.225,0,0.803-0.225,1.038-0.304c-0.558,0.764-1.381,2.969-1.381,3.919
		c0,0.47,0.235,0.803,0.695,0.911c0.039,0.01,0.088,0.019,0.127,0.019c0.206,0,0.715-0.578,0.862-0.744
		c0.147-0.166,1.048-1.235,1.156-1.303c-0.059,0.264-0.137,0.529-0.206,0.794c-0.068,0.255-0.127,0.519-0.205,0.774
		c-0.088,0.314-0.216,0.617-0.323,0.921c-0.069,0.186-0.127,0.382-0.225,0.549l-0.099,0.019v-0.029c0-0.01,0.019-0.039,0.029-0.049
		l-0.088,0.039l0.01-0.108l-0.137,0.049l0.049-0.108c-0.206,0.088-0.46,0.304-0.627,0.46c-0.558,0.519-1.067,1.244-1.067,2.038
		c0,0.206,0.01,0.382,0.166,0.529c0.176,0.166,0.402,0.274,0.647,0.274c0.764,0,1.273-1.067,1.567-1.655
		c0.118-0.235,0.196-0.48,0.284-0.725c0.147-0.431,0.294-0.852,0.431-1.283c0.097-0.313,0.195-0.626,0.273-0.949
		c0.079-0.294,0.137-0.588,0.216-0.872l0.451-1.655c0.146-0.549,0.343-1.078,0.539-1.607c0.029-0.088,0.166-0.422,0.166-0.48
		c0-0.049-0.019-0.098-0.059-0.127l-0.049,0.01l0.01-0.098l-0.089-0.03c0.029-0.049-0.029-0.079-0.069-0.098l-0.088,0.049
		c0-0.029,0.029-0.069,0.049-0.088c-0.02-0.02-0.059-0.059-0.089-0.059c-0.029,0-0.039,0.02-0.059,0.039
		c-0.343,0.372-0.588,0.901-0.764,1.372c-0.059,0.156-0.117,0.313-0.196,0.46c-0.059,0.108-0.137,0.196-0.216,0.284
		c-0.705,0.852-1.43,1.675-2.214,2.458c0-0.539,0.647-2.135,0.882-2.684c0.127-0.294,0.264-0.588,0.412-0.882
		c0.099-0.196,0.304-0.499,0.304-0.724c0-0.206-0.304-0.431-0.441-0.568c-0.206,0.019-0.568,0.205-0.774,0.294
		c-0.284,0.127-0.912,0.412-1.205,0.412c-0.069,0-0.118-0.039-0.186-0.039c-0.049,0-0.079,0.049-0.079,0.088
		C13.681,7.04,14.014,7.304,14.249,7.304z M15.895,13.309h-0.029l-0.01-0.019L15.895,13.309z M16.041,13.494
		c-0.049,0.118-0.079,0.235-0.127,0.353l-0.069,0.059C15.895,13.769,15.943,13.593,16.041,13.494z M14.69,13.935
		c-0.01,0.039-0.039,0.098-0.069,0.127C14.641,14.024,14.66,13.975,14.69,13.935z M14.592,14.122
		c-0.118,0.264-0.186,0.578-0.304,0.832C14.288,14.631,14.435,14.386,14.592,14.122z M14.034,14.798l-0.019-0.019
		c0.01,0,0.029,0,0.039-0.01L14.034,14.798z M14.161,14.357c0.019-0.019,0.029-0.059,0.049-0.079c0,0.029-0.108,0.225-0.127,0.294
		C14.102,14.494,14.151,14.425,14.161,14.357z M14.22,14.65l-0.029-0.019h0.029V14.65z M14.278,15.013c0-0.01,0-0.039,0.01-0.049
		l0.01,0.059C14.288,15.023,14.288,15.013,14.278,15.013z M14.484,15.336c-0.01-0.059-0.019-0.127-0.019-0.186
		c0-0.088,0.019-0.186,0.039-0.274c0.176-0.764,0.647-1.342,1.225-1.842C15.405,13.847,15.091,14.68,14.484,15.336z M15.542,14.103
		v-0.049l0.294-0.676c-0.049,0.245-0.176,0.47-0.264,0.705L15.542,14.103z M15.65,14.817l-0.01,0.01c0-0.01,0-0.01,0.01-0.019
		V14.817z M15.708,14.758l0.01-0.088c0.206-0.372,0.343-0.774,0.519-1.166c0.019-0.039,0.039-0.088,0.069-0.118
		C16.208,13.877,15.933,14.318,15.708,14.758z M16.952,8.959h0.01c-0.01,0.01-0.019,0.01-0.029,0.01
		C16.943,8.969,16.943,8.969,16.952,8.959z M16.276,9.508h0.019c-0.009,0.029-0.029,0.049-0.049,0.069L16.276,9.508z M16.081,10.223
		c0.156-0.235,0.559-0.666,0.754-0.901c0.01-0.01,0.019-0.02,0.039-0.02c-0.353,0.461-0.744,0.882-1.107,1.322
		c-0.059,0.069-0.137,0.108-0.196,0.176C15.698,10.615,15.983,10.37,16.081,10.223z M15.434,10.938
		c0.029-0.01,0.039-0.039,0.069-0.059l-0.01,0.029l-0.068,0.059L15.434,10.938z M15.082,11.3l0.01,0.019l-0.02,0.01h-0.019
		L15.082,11.3z M14.827,9.606l-0.01-0.009h0.01V9.606z M14.945,9.263l-0.02-0.009l0.029-0.039
		C14.954,9.234,14.954,9.244,14.945,9.263z M15.053,8.969V8.94l0.01,0.01L15.053,8.969z M15.091,8.832v-0.01l0.01,0.01H15.091z
		 M15.16,8.646c0,0.01,0,0.01-0.01,0.01c0-0.01,0-0.01,0.01-0.019V8.646z M15.542,7.774l0.01,0.01h-0.01V7.774z M15.395,8.088
		l0.01-0.01v0.01l-0.01,0.01V8.088z M15.386,8.156v0.01l-0.01-0.01H15.386z"/>
	<path class="st1" d="M17.785,10.87v0.118c0,0.607,0.451,1.117,1.067,1.117c0.069,0,0.137-0.01,0.206-0.019
		c0.235-0.039,0.391-0.166,0.559-0.323c0.559-0.519,1.185-1.44,1.185-2.233c0-0.422-0.499-0.94-0.921-0.94
		c-0.431,0-0.803,0.568-1.038,0.872l-0.176-0.079C18.196,9.381,17.785,10.468,17.785,10.87z M18.402,10.35v-0.019h0.019
		C18.412,10.341,18.412,10.35,18.402,10.35z M20.185,10.958h-0.01l0.01-0.01V10.958z M19.626,11.487
		c0.01-0.039,0.039-0.069,0.059-0.098c0.245-0.314,0.48-0.627,0.666-0.979C20.362,10.713,19.822,11.261,19.626,11.487z
		 M19.646,10.997c0-0.039,0.166-0.235,0.216-0.304C19.803,10.811,19.734,10.919,19.646,10.997z M20.019,10.743
		c-0.059,0.108-0.147,0.206-0.216,0.314h-0.01v-0.01L20.019,10.743z M19.734,9.116c0.01,0,0.01-0.01,0.019-0.01h0.01v0.01
		c-0.225,0.225-0.402,0.48-0.597,0.734C19.215,9.597,19.529,9.263,19.734,9.116z M19.225,9.469c0-0.039,0.127-0.166,0.166-0.206
		C19.343,9.331,19.274,9.391,19.225,9.469z M19.518,8.911h0.019c-0.088,0.078-0.411,0.402-0.44,0.48L19.068,9.41
		C19.196,9.224,19.343,9.057,19.518,8.911z M19.274,10.507c0.039,0,0.079-0.029,0.098-0.059c-0.079-0.059-0.137-0.138-0.137-0.236
		c0-0.314,0.676-1.127,1-1.127c0.019,0.039,0.029,0.088,0.029,0.127c0,0.069-0.019,0.127-0.029,0.196
		c-0.156,0.872-0.852,1.988-1.744,2.233c-0.039-0.136-0.049-0.274-0.049-0.411c0-0.391,0.137-0.764,0.284-1.127
		C18.872,10.292,19,10.507,19.274,10.507z M18.726,9.733l-0.01,0.02c-0.01,0.069-0.206,0.372-0.254,0.441
		C18.52,10.027,18.598,9.861,18.726,9.733z M18.588,9.684c-0.01,0.049-0.049,0.108-0.089,0.137L18.588,9.684z M18.49,9.606
		l-0.157,0.176C18.373,9.714,18.412,9.645,18.49,9.606z"/>
	<path class="st1" d="M20.899,11.918c0.127,0.088,0.274,0.137,0.431,0.137c0.118,0,0.196-0.029,0.274-0.108
		c0.284-0.264,0.519-0.588,0.744-0.911c0,0.206-0.019,0.422-0.019,0.627c0,0.343,0.206,0.559,0.549,0.559
		c0.47,0,0.813-0.647,1.029-1c0.079-0.127,0.156-0.255,0.225-0.391l-0.039-0.029c-0.039,0.039-0.049,0.069-0.049,0.118l-0.039,0.069
		h0.01v0.01l-0.01-0.01c-0.039,0.059-0.088,0.108-0.147,0.147c0.069-0.098,0.147-0.186,0.196-0.294
		c-0.008,0.008-0.022,0.007-0.035,0.01c0.352-0.596,0.614-1.236,0.701-1.94c0.176,0.079,0.451,0.176,0.451,0.412
		c0,0.147-0.108,0.46-0.166,0.607c-0.235,0.627-0.647,1.695-0.647,2.351c0,0.539,0.254,1.225,0.892,1.225
		c0.147,0,0.441-0.059,0.441-0.245c0-0.039-0.01-0.079-0.029-0.118h-0.079l-0.049,0.059l-0.01-0.01l0.01-0.079l-0.274-0.069
		c-0.049-0.118-0.069-0.255-0.069-0.382c0-0.539,0.314-1.352,0.49-1.871c0.098-0.294,0.284-0.784,0.284-1.077
		c0-0.216-0.079-0.382-0.235-0.529c-0.284-0.264-0.647-0.46-0.979-0.657c-0.01-0.216-0.039-0.431-0.059-0.647
		c-0.039-0.343-0.235-0.647-0.559-0.784c-0.079-0.039-0.156-0.059-0.245-0.059c-0.284,0-0.519,0.323-0.519,0.588
		c0,0.519,0.519,0.803,0.892,1.058c-0.166,0.911-0.49,1.744-0.979,2.527c-0.082,0.127-0.17,0.244-0.263,0.357
		c0.002-0.016,0.028-0.093,0.028-0.102c0.166-0.617,0.284-1.264,0.499-1.871c0.059-0.156,0.186-0.391,0.186-0.549
		c0,0-0.01-0.019-0.01-0.029l-0.029,0.039c-0.019,0-0.039-0.01-0.049-0.029h-0.019l-0.069,0.069l0.029-0.108
		c-0.088-0.019-0.186-0.098-0.264-0.098c-0.059,0-0.176,0.079-0.216,0.127c-0.264,0.323-0.343,0.764-0.588,1.087
		c-0.353,0.47-0.695,0.94-1.127,1.352c0.059-0.499,0.137-1.009,0.294-1.489c0.049-0.137,0.314-0.862,0.314-0.931
		c0-0.019-0.01-0.049-0.019-0.069l-0.079-0.039L21.81,8.968c0,0.039,0.01,0.079-0.01,0.118c-0.235,0.559-0.441,1.097-0.558,1.695
		c0,0.019-0.01,0.029-0.019,0.039c0.049-0.559,0.323-1.362,0.588-1.851l0.029-0.108c-0.029,0.01-0.098,0-0.118,0.039V8.813
		c-0.079-0.01-0.176-0.059-0.196-0.059c-0.039,0-0.069,0.029-0.098,0.059c-0.47,0.49-0.774,1.822-0.774,2.468
		C20.655,11.536,20.674,11.761,20.899,11.918z M25.768,10.105v0.01h-0.01L25.768,10.105z M24.759,12.182c0-0.019,0-0.029,0.01-0.049
		c0,0.019,0.01,0.029,0.01,0.049H24.759z M25.112,12.231c-0.01-0.01-0.01-0.01-0.01-0.019h0.01V12.231z M25.131,12.134h-0.009
		v-0.019h0.01L25.131,12.134L25.131,12.134z M25.2,11.898h-0.01v-0.029h0.01V11.898z M25.22,11.81h-0.01v-0.029h0.01V11.81z
		 M25.258,11.673h-0.01c0-0.01,0-0.019,0.01-0.019V11.673z M25.278,11.595h-0.01l0.01-0.01
		C25.278,11.585,25.278,11.595,25.278,11.595z M25.288,11.516l0.01-0.019c0.01,0.01,0.01,0.019,0.01,0.029L25.288,11.516z
		 M25.327,11.458h-0.01v-0.03h0.01V11.458z M25.386,11.252c-0.01,0-0.01,0-0.01-0.01h0.01V11.252z M25.445,11.065v-0.01h0.01
		L25.445,11.065z M25.464,11.007v-0.02h0.01C25.474,10.997,25.474,11.007,25.464,11.007z M25.494,10.938h-0.01v-0.019h0.01V10.938z
		 M25.601,10.645h-0.009v-0.02h0.01L25.601,10.645L25.601,10.645z M25.621,10.576h-0.01v-0.01h0.01V10.576z M25.64,10.507
		l-0.01-0.01h0.01V10.507z M25.699,9.802c-0.029,0.314-0.156,0.617-0.255,0.911c-0.166,0.48-0.343,0.96-0.441,1.45
		c-0.029,0.137-0.039,0.274-0.069,0.412c-0.01-0.059-0.01-0.118-0.01-0.176c0-0.206,0.039-0.402,0.098-0.597
		c0.206-0.666,0.422-1.342,0.657-1.998C25.679,9.802,25.699,9.802,25.699,9.802z M24.975,11.702l0.01-0.01v0.01H24.975z
		 M25.083,11.35v-0.01h0.01L25.083,11.35z M25.102,11.271h0.01v0.01L25.102,11.271z M25.122,11.213h0.01v0.01L25.122,11.213z
		 M25.249,10.83l0.01-0.01v0.01H25.249z M25.395,10.41l0.01-0.01v0.01H25.395z M25.435,9.949h0.019l-0.019,0.029V9.949z
		 M25.435,9.998c-0.069,0.412-0.255,0.803-0.382,1.195c-0.098,0.294-0.166,0.597-0.255,0.892l-0.019,0.019
		c0.049-0.216,0.079-0.451,0.147-0.666l0.48-1.41L25.435,9.998z M25.268,9.802h0.01c0,0.01,0,0.029-0.01,0.039V9.802z
		 M24.759,11.418c-0.059,0.196-0.118,0.402-0.206,0.578l0.108-0.391l0.47-1.43c0.029-0.098,0.059-0.235,0.127-0.314
		C25.112,10.39,24.925,10.899,24.759,11.418z M23.574,7.441l-0.019-0.019l0.059-0.088C23.594,7.362,23.584,7.402,23.574,7.441z
		 M23.819,7.598c-0.01-0.019-0.01-0.029-0.01-0.049c0-0.049,0.029-0.088,0.059-0.118C23.848,7.49,23.838,7.549,23.819,7.598z
		 M23.584,9.234h0.01l-0.01,0.01V9.234z M23.77,11.281h-0.01l0.01-0.01V11.281z M24.553,8.989h0.01v0.029h-0.01V8.989z
		 M24.534,9.096h0.01v0.039h-0.01V9.096z M24.279,9.155l0.01,0.019l-0.01,0.01V9.155z M23.956,7.755
		c0-0.127,0.059-0.245,0.156-0.333c0.108,0.137,0.156,0.558,0.156,0.744c0,0.039-0.01,0.088-0.01,0.127
		C24.083,8.196,23.956,7.96,23.956,7.755z M24.259,9.254h0.01L24.24,9.293L24.259,9.254z M24.21,9.41h0.01
		c0,0.01-0.01,0.029-0.019,0.039C24.21,9.439,24.21,9.42,24.21,9.41z M24.122,9.694l0.019-0.01
		c-0.019,0.098-0.059,0.186-0.108,0.284L24.122,9.694z M24.495,9.254c0.01-0.019,0.01-0.039,0.029-0.049
		c-0.039,0.314-0.343,1.225-0.549,1.45C24.181,10.194,24.347,9.733,24.495,9.254z M23.76,10.576
		c-0.01,0.059-0.029,0.127-0.079,0.156L23.76,10.576z M23.535,9.165c-0.039,0.108-0.029,0.079-0.118,0.137L23.535,9.165z
		 M23.407,9.331v0.02h-0.01C23.398,9.341,23.407,9.341,23.407,9.331z M22.947,10.184c0.01,0,0.01,0,0.019,0.01l-0.019,0.029V10.184z
		 M22.908,10.331h0.01l-0.01,0.029V10.331z M22.8,10.713h0.01v0.019H22.8V10.713z M23.349,9.567V9.547h0.01
		C23.349,9.557,23.349,9.557,23.349,9.567c-0.118,0.48-0.264,0.95-0.402,1.43c-0.059,0.196-0.098,0.391-0.156,0.588
		C22.829,11.193,23.134,9.841,23.349,9.567z M22.643,10.645l-0.01,0.029l-0.009-0.02C22.633,10.645,22.633,10.645,22.643,10.645z
		 M22.575,10.194l-0.118,0.137C22.477,10.272,22.496,10.204,22.575,10.194z M22.105,10.84v0.01l-0.01-0.01H22.105z M21.87,9.126
		l0.01,0.01h-0.01V9.126z M21.772,9.381v0.01h-0.01L21.772,9.381z M21.625,9.067h0.01c-0.01,0.019-0.029,0.039-0.049,0.059
		C21.585,9.096,21.585,9.067,21.625,9.067z M21.39,9.577h-0.01c0-0.01,0-0.019,0.01-0.029V9.577z M21.438,9.057
		c0.01-0.019,0-0.059,0.029-0.059l0.019,0.01C21.468,9.019,21.458,9.038,21.438,9.057l-0.196,0.382
		C21.282,9.302,21.35,9.165,21.438,9.057z M21.213,10.84c0.01,0.039,0.01,0.069,0.01,0.108l-0.019-0.01
		C21.213,10.909,21.213,10.87,21.213,10.84z M21.105,9.812h0.01v0.01h-0.01V9.812z"/>
	<path class="st1" d="M29.426,13.693c0.375,0,0.826-0.075,1.18-0.204c0.193-0.075,0.386-0.183,0.569-0.268
		c0.418-0.204,0.848-0.515,0.944-0.998l-0.022-0.022l-0.086,0.118v-0.118l-0.161,0.118l0.086-0.172h-0.107l-0.043-0.086
		l-0.183-0.086c-0.225,0.032-0.418,0.15-0.612,0.247c-0.815,0.418-1.341,0.741-2.296,0.741c-0.064-0.129-0.064-0.279-0.064-0.418
		c0-0.665,0.183-1.341,0.29-1.995c0.075-0.44,0.183-0.88,0.29-1.319c0.472-0.043,0.955-0.107,1.427-0.161
		c0.172-0.022,0.462-0.065,0.59-0.193l0.054-0.064L31.218,8.8l0.011-0.054c-0.225,0.054-0.451,0.096-0.676,0.096l0.687-0.15
		l-0.011-0.032l-0.065,0.012l0.011-0.043l-0.054-0.022l0.097-0.064l-0.139-0.086l0.096-0.054V8.37
		c-0.204-0.043-0.408-0.065-0.612-0.065c-0.386,0-0.761,0.065-1.148,0.096c0.214-0.815,0.504-1.609,0.761-2.414
		c0.697-0.065,1.395-0.107,2.092-0.118c0.139,0,0.268-0.022,0.386-0.107l0.011-0.032l-0.054-0.022l0.022-0.032h-0.451l0.462-0.065
		V5.592l-0.085-0.021l0.054-0.107l-0.075-0.075l0.054-0.054c-0.204-0.15-0.643-0.15-0.891-0.15c-0.418,0-0.837,0.054-1.255,0.064
		L29.898,5.27l-0.076-0.097c-0.054,0.011-0.086,0.032-0.129,0.065c-0.096,0.065-0.193,0.086-0.301,0.118
		c0,0.129,0,0.257-0.054,0.375c-0.064,0.15-0.161,0.301-0.236,0.462c-0.172,0.365-0.333,0.73-0.462,1.116
		c-0.483,1.406-0.869,2.854-1.084,4.324c-0.022,0.15-0.032,0.301-0.032,0.451c0,0.172-0.011,0.612,0.065,0.751
		c0.065,0.107,0.15,0.225,0.236,0.322C28.267,13.66,28.792,13.693,29.426,13.693z M31.013,8.886h0.011c0,0.011,0,0.011-0.011,0.011
		V8.886z M32.044,5.667h0.032v0.011h-0.032V5.667z M31.796,5.667h0.15v0.011h-0.15V5.667z M31.689,5.667v0.011
		c-0.011,0-0.011,0-0.011-0.011H31.689z M31.539,5.667h0.054v0.011h-0.054V5.667z M30.917,5.377v0.011h-0.022
		C30.906,5.388,30.906,5.377,30.917,5.377z M30.252,5.753c0.333-0.022,0.676-0.065,1.009-0.065h0.183l-1.191,0.086L30.252,5.753
		L30.252,5.753z M30.294,8.864h0.15v0.011h-0.15V8.864z M30.059,8.875h0.139l0.011,0.022h-0.15V8.875z M29.844,8.542h0.011v0.011
		h-0.011V8.542z M29.662,8.564v0.022h-0.043l-0.011-0.022H29.662z M29.457,8.596h0.032v0.011h-0.032V8.596z M29.973,8.886
		l0.011,0.022c-0.236,0.032-0.462,0.064-0.697,0.107l-0.011-0.032C29.501,8.928,29.736,8.907,29.973,8.886z M28.836,9.358v0.011
		h-0.011L28.836,9.358z M28.814,9.433v0.032c-0.011-0.011-0.011-0.011-0.011-0.022L28.814,9.433z M28.739,9.744h0.011l-0.011,0.011
		V9.744z M28.718,9.83h0.011l-0.011,0.022V9.83z M28.696,9.916h0.011v0.022h-0.011V9.916z M28.653,10.098l0.011,0.011v0.043h-0.011
		V10.098z M28.611,10.334l0.011-0.022c0,0.011,0,0.022-0.011,0.032V10.334z M28.589,10.409C28.6,10.42,28.6,10.441,28.6,10.452
		h-0.011V10.409z M28.546,10.753h0.011c-0.011,0.011-0.011,0.011-0.011,0.022V10.753z"/>
	<path class="st1" d="M31.721,10.796c0,0.612,0.214,1.33,0.944,1.33c0.612,0,0.912-0.665,1.212-1.116h0.022
		c0.075,0.569,0.172,1.631,0.526,2.082c0.129,0.161,0.311,0.247,0.515,0.247c0.064,0,0.279-0.011,0.279-0.118
		c0,0-0.011-0.022-0.011-0.032c-0.15-0.022-0.29-0.086-0.354-0.225c-0.193-0.418-0.193-1.567-0.193-2.049
		c0-0.29,0.011-0.59,0.011-0.88c0-0.075,0.011-0.139,0.065-0.193l0.462-0.504c0.493-0.547,1.148-1.663,1.148-2.414
		c0-0.386-0.279-0.858-0.708-0.858c-0.172,0-0.354,0.118-0.482,0.225c-0.88,0.741-1.084,2.082-1.255,3.154
		c-0.301-0.161-0.59-0.333-0.944-0.333C32.15,9.111,31.721,10.109,31.721,10.796z M31.914,10.763c0-0.203,0.022-0.397,0.107-0.59
		C31.979,10.366,31.947,10.559,31.914,10.763z M34.961,9.53V9.508h0.011C34.961,9.519,34.961,9.519,34.961,9.53z M35.133,9.154
		c-0.011,0.043-0.15,0.183-0.193,0.225l0.139-0.214C35.101,9.165,35.112,9.165,35.133,9.154V9.1l0.032-0.022l0.032,0.011
		c-0.011,0-0.011,0.011-0.022,0.011C35.154,9.111,35.144,9.133,35.133,9.154z M35.273,9.154V9.122l-0.086,0.054l0.086-0.107
		c0,0.022-0.011,0.032,0,0.054h0.011L35.273,9.154z M36.249,6.976c0.022,0.032,0.054,0.075,0.054,0.118
		c0,0.118-0.107,0.547-0.183,0.622l-0.032,0.108l-0.032,0.043c0,0.065-0.086,0.15-0.086,0.214l-0.054,0.065l-0.022,0.043
		c-0.022,0.054-0.054,0.096-0.054,0.15L35.83,8.285l-0.075,0.118h0.022l-0.022,0.043L35.734,8.5
		c-0.022,0.022-0.032,0.043-0.043,0.064l-0.022,0.043c-0.032,0.032-0.043,0.075-0.075,0.096l-0.011,0.043l-0.011-0.043
		c-0.118,0.075-0.15,0.236-0.257,0.311c0.15-0.236,0.354-0.472,0.451-0.73c-0.139,0.172-0.268,0.343-0.375,0.536l-0.032,0.022v0.065
		c-0.054,0-0.107,0.086-0.129,0.129V8.982c0.032-0.032,0.043-0.064,0.065-0.096l0.022,0.011c0.011,0,0.032,0,0.043,0.011
		c-0.011-0.011-0.022-0.054-0.022-0.065V8.821L35.37,8.8c0-0.032,0.107-0.161,0.129-0.214l0.054-0.065
		c0.118-0.15,0.311-0.547,0.397-0.73c0.118-0.257,0.183-0.536,0.268-0.805L36.249,6.976z M36.141,6.997V7.03
		c0,0.008-0.004,0.018-0.005,0.027L36.12,6.997C36.12,6.997,36.141,6.997,36.141,6.997z M36.134,7.077
		c-0.044,0.6-0.967,1.873-1.366,2.313V9.347c0.418-0.44,0.751-0.944,1.02-1.48c0.118-0.225,0.236-0.462,0.29-0.708
		C36.087,7.119,36.084,7.083,36.134,7.077z M35.24,6.375h0.022L35.176,6.45L35.24,6.375z M34.972,7.362V7.33
		c0.086-0.225,0.365-0.805,0.59-0.891c-0.247,0.257-0.386,0.547-0.547,0.848C35.005,7.309,34.983,7.33,34.972,7.362
		c-0.022,0.054-0.011,0.107-0.075,0.139C34.918,7.448,34.94,7.405,34.972,7.362z M34.8,7.823v0.022c-0.011,0-0.011,0-0.011-0.011
		L34.8,7.823z M35.605,6.611c0.096-0.129,0.193-0.225,0.354-0.247c0.118,0.139,0.118,0.311,0.118,0.483
		c0,0.601-0.622,1.513-0.987,1.985C35.046,8.887,34.81,9.23,34.756,9.23C34.918,8.328,35.047,7.362,35.605,6.611z M34.693,7.147
		v0.022h-0.011C34.682,7.158,34.693,7.158,34.693,7.147z M34.521,9.186v0.011h-0.011L34.521,9.186z M34.489,9.304H34.5l-0.011,0.011
		V9.304z M34.467,9.486h0.011V9.55h-0.011V9.486z M32.119,10.763c0-0.032-0.011-0.054-0.011-0.086c0-0.129,0.043-0.247,0.086-0.365
		l0.022-0.011L32.119,10.763z M32.483,10.548h-0.011v-0.021h0.011V10.548z M33.18,9.476c0.043-0.032,0.064-0.043,0.118-0.043
		c0.236,0,0.375,0.257,0.547,0.386h0.022v0.408c0,0.107-0.815,1.255-0.944,1.416c-0.064,0.075-0.129,0.129-0.203,0.193
		c-0.15-0.161-0.172-0.59-0.172-0.805C32.547,10.474,32.74,9.841,33.18,9.476z M32.59,9.872v0.022
		c-0.011-0.011-0.011-0.011-0.011-0.022H32.59z M32.536,9.926l0.054-0.022c-0.236,0.408-0.247,0.858-0.29,1.309
		c-0.022-0.107-0.032-0.214-0.032-0.322C32.268,10.528,32.376,10.249,32.536,9.926z M32.215,10.291c0-0.011-0.011-0.032-0.011-0.032
		c0-0.022,0.022-0.032,0.032-0.032C32.236,10.249,32.226,10.269,32.215,10.291z"/>
	<path class="st1" d="M37.568,6.021c0.569,0,1.491-0.247,2.071-0.375c-0.011,0.236-0.322,1.02-0.408,1.309
		c-0.483,1.598-1.04,3.862-1.04,5.515c0,0.601,0.065,1.191,0.472,1.663c0.129,0.15,0.193,0.193,0.386,0.247
		c0.054,0.011,0.107,0.032,0.161,0.054l0.011-0.022c-0.15-0.483-0.257-0.901-0.257-1.416c0-0.161,0.011-0.322,0.032-0.483
		c0.054-0.451,0.107-0.901,0.183-1.341c0.118-0.708,0.311-1.395,0.493-2.092c0.086-0.333,0.172-0.676,0.279-1.009l0.526-1.641
		c0.065-0.204,0.279-0.708,0.279-0.891c0-0.054-0.011-0.096-0.043-0.139c0.558-0.107,1.127-0.214,1.695-0.29
		C42.901,5.043,43.405,5,43.899,4.947c0.204-0.022,0.418-0.022,0.612-0.064l0.183-0.043l-0.012-0.02l-0.096-0.032l-0.139-0.343
		c-0.214-0.118-0.922-0.193-1.191-0.193c-1.427,0-2.811,0.365-4.195,0.665l-1.245,0.268C37.6,5.227,37.385,5.28,37.171,5.28
		c-0.118,0-0.301-0.043-0.301,0.139c0,0.054,0.172,0.354,0.214,0.429C37.278,5.946,37.332,6.021,37.568,6.021z"/>
	<path class="st1" d="M42.438,9.465c0-0.472-0.29-0.826-0.719-0.966l-0.086,0.022l0.215,0.397c-0.096-0.022-0.193-0.043-0.29-0.043
		c-0.408,0-0.741,0.183-0.976,0.515c-0.301,0.418-0.515,0.933-0.515,1.448c0,0.633,0.386,1.084,1.04,1.084
		c0.301,0,0.59-0.204,0.612-0.515l-0.043,0.054c0,0.043-0.011,0.075-0.043,0.107v-0.042l-0.022,0.043h-0.011l-0.011,0.043H41.58
		l0.011,0.022h-0.032v0.011l-0.021-0.011l0.011-0.032l-0.075-0.011c0.011-0.065,0.075-0.107,0.075-0.183
		c0-0.011-0.011-0.032-0.022-0.054c-0.064,0.096-0.086,0.204-0.203,0.257c0.032-0.086,0.118-0.161,0.118-0.257v-0.032l-0.011,0.011
		c-0.075,0.193-0.247,0.343-0.472,0.343c-0.15,0-0.183-0.408-0.183-0.515c0-0.086-0.011-0.268,0.032-0.354
		C41.516,10.806,42.438,10.249,42.438,9.465z M41.795,9.916l-0.032,0.011l0.032-0.022V9.916z M42.235,9.68
		c-0.043,0.139-0.107,0.279-0.215,0.386C42.02,10.001,42.192,9.755,42.235,9.68z M41.999,9.83l-0.011,0.032h-0.011L41.999,9.83z
		 M41.913,9.658h0.022c0,0.011-0.011,0.022-0.022,0.022V9.658z M41.859,9.798V9.787l0.022-0.043
		C41.88,9.765,41.87,9.776,41.859,9.798z M41.87,9.272v0.043c0,0.386-0.569,1.02-0.955,1.062C41.001,9.905,41.387,9.379,41.87,9.272
		z M41.108,9.53l0.011-0.011V9.53l-0.043,0.022C41.086,9.54,41.086,9.53,41.108,9.53z M40.829,9.637
		c0,0.011-0.011,0.032-0.022,0.043h-0.011C40.808,9.68,40.818,9.647,40.829,9.637z M40.465,9.98h-0.011c0-0.011,0-0.011,0.011-0.011
		V9.98z M40.507,9.872l-0.022-0.011l0.032-0.054L40.507,9.872z M40.529,9.798h-0.011l0.011-0.011V9.798z M40.668,10.356h-0.011
		c0-0.022,0-0.043,0.011-0.054V10.356z M40.69,9.551l-0.043,0.032l-0.022,0.043c-0.011,0.043-0.022,0.086-0.075,0.107
		c0.022-0.043,0.054-0.075,0.075-0.107V9.615l0.022-0.032L40.7,9.497C40.7,9.519,40.69,9.53,40.69,9.551z M40.711,10.238
		c0-0.225,0.204-0.526,0.354-0.676C40.969,9.798,40.786,10.001,40.711,10.238z"/>
	<path class="st1" d="M44.477,10.055c0-0.183,0.086-0.343,0.086-0.526c0-0.075-0.022-0.139-0.054-0.204
		c-0.183-0.354-0.558-0.687-0.976-0.687c-0.815,0-1.362,1.48-1.362,2.167c0,0.612,0.429,1.266,1.094,1.266
		c0.29,0,0.88-0.29,1.04-0.536c0.032-0.043,0.043-0.096,0.075-0.139c-0.032-0.011-0.065-0.022-0.086-0.054l-0.086,0.086l0.032-0.096
		l-0.193-0.15c-0.054,0.022-0.107,0.043-0.15,0.075c-0.29,0.193-0.536,0.354-0.901,0.386c-0.01-0.042-0.021-0.074-0.021-0.117
		c0-0.772,0.15-1.706,0.815-2.199c0.075-0.054,0.15-0.064,0.236-0.064H44.1c-0.064,0.15-0.107,0.301-0.107,0.462
		c0,0.319,0.191,0.556,0.493,0.624c-0.015,0.203-0.032,0.406-0.032,0.61c0,0.633,0.065,1.116,0.805,1.191
		c0.022-0.064,0.032-0.118,0.043-0.183c0.15-0.772,0.44-1.491,0.837-2.167c0.129-0.225,0.354-0.547,0.547-0.719L47.02,8.8
		l0.022,0.022c-0.279,0.933-0.386,1.803-0.504,2.768c-0.032,0.247-0.032,0.493-0.032,0.741c0,0.129,0,0.268,0.011,0.397
		c0.032,0.301,0.333,0.547,0.633,0.547c0.043,0,0.086,0,0.129-0.011c0-0.022,0.011-0.043,0.011-0.064
		c0-0.011-0.011-0.022-0.011-0.032c-0.043-0.139-0.054-0.279-0.054-0.418c0-0.901,0.236-1.803,0.397-2.683
		c0.065-0.365,0.193-0.761,0.193-1.137c0-0.193-0.054-0.29-0.204-0.408c-0.15-0.118-0.354-0.247-0.558-0.247
		c-0.096,0-0.161,0.032-0.247,0.086c-0.643,0.429-0.955,0.772-1.373,1.416c0-0.011-0.011-0.032-0.011-0.043
		c0-0.193,0.183-0.815,0.236-1.04c0.139-0.58,0.29-1.148,0.44-1.727c0.118-0.429,0.397-1.234,0.397-1.641V5.238
		c-0.011-0.096-0.022-0.129-0.096-0.193c-0.075-0.064-0.225-0.193-0.322-0.193c-0.075,0-0.107-0.022-0.172-0.064
		c-0.075,0.086-0.107,0.204-0.15,0.301C45.592,5.484,45.42,5.892,45.291,6.3c-0.139,0.429-0.236,0.88-0.333,1.319
		c-0.189,0.836-0.381,1.685-0.462,2.54C44.488,10.125,44.477,10.091,44.477,10.055z M43.264,9.207
		c-0.054,0.065-0.118,0.118-0.183,0.183C43.082,9.325,43.2,9.207,43.264,9.207z M42.846,9.358c0.043-0.065,0.203-0.311,0.279-0.311
		C43.072,9.133,42.932,9.315,42.846,9.358z M43.072,9.83c-0.043,0.065-0.075,0.086-0.096,0.161h-0.011
		c0.064-0.183,0.29-0.654,0.472-0.73l0.096-0.032h0.011C43.34,9.412,43.221,9.604,43.072,9.83z M44.198,9.401h-0.011
		c0-0.011,0-0.011,0.011-0.022V9.401z M47.545,9.079h0.022l-0.022,0.054V9.079z M47.545,9.165c-0.043,0.301-0.107,0.59-0.172,0.891
		c-0.043,0.172-0.065,0.397-0.139,0.569C47.319,10.131,47.406,9.647,47.545,9.165z M47.212,10.774v0.075h-0.022L47.212,10.774z
		 M47.158,11.117v0.022c0-0.011-0.011-0.011-0.011-0.022H47.158z M47.105,11.439h0.011v0.032l-0.011,0.011V11.439z M45.506,10.903
		v-0.011l0.011,0.011H45.506z M45.603,10.656l-0.011-0.011h0.011V10.656z M45.946,9.787l-0.268,0.515
		c-0.161,0.333-0.268,0.676-0.386,1.02c-0.011,0.032-0.022,0.064-0.054,0.096c0.011-0.032,0-0.075,0.011-0.107
		c0.075-0.354,0.451-1.299,0.697-1.545V9.787z M45.27,10.838l0.011-0.011v0.011H45.27z M45.678,9.948h0.011
		c-0.011,0.011-0.011,0.011-0.011,0.022V9.948z M45.442,10.098l-0.096,0.204h-0.022L45.442,10.098z M45.7,7.93h-0.011L45.7,7.92
		V7.93z M45.807,7.502V7.48h0.011C45.807,7.491,45.807,7.491,45.807,7.502z M45.925,7.073V7.062h0.011L45.925,7.073z M45.968,6.901
		V6.89h0.011L45.968,6.901z M46,6.826h-0.011c0-0.011,0-0.011,0.011-0.011V6.826z M46.225,5.431
		c0.011-0.022,0.022-0.032,0.022-0.054l0.011,0.011L46.225,5.431c0.011,0.011,0.011,0.032,0.011,0.043h-0.011V5.431z M46.193,5.549
		l0.022,0.011c0,0.075-0.032,0.139-0.064,0.204C46.161,5.689,46.172,5.624,46.193,5.549z M45.743,6.343v0.011h-0.011L45.743,6.343z
		 M45.71,6.428h0.011V6.45H45.71V6.428z M45.689,6.515H45.7l-0.011,0.032V6.515z M45.582,6.129v0.011h-0.011L45.582,6.129z
		 M45.538,6.278v0.011C45.528,6.3,45.528,6.3,45.517,6.3L45.538,6.278z M45.636,6.718c-0.022,0.139-0.204,0.933-0.257,0.998
		C45.442,7.383,45.538,7.051,45.636,6.718z M45.303,7.995c0,0.022,0,0.043,0.011,0.065l-0.022-0.011
		C45.292,8.028,45.292,8.017,45.303,7.995z M45.163,7.631c0.032-0.15,0.064-0.311,0.129-0.451c-0.032,0.15-0.065,0.29-0.107,0.44
		L45.163,7.631c0,0.054-0.011,0.118-0.011,0.172l-0.022-0.011L45.163,7.631z M45.281,8.135v0.022
		C45.27,8.145,45.27,8.145,45.27,8.135H45.281z M45.27,8.231L45.238,8.36h-0.022l0.022-0.075c0-0.022,0.011-0.043,0.011-0.065
		L45.27,8.231z M45.185,8.521v0.043h-0.011V8.521H45.185z M45.098,7.888l0.022,0.011c0,0.011-0.011,0.032-0.022,0.043V7.888z
		 M45.098,7.952v0.043h-0.011C45.088,7.984,45.088,7.963,45.098,7.952z M45.292,8.928c0.118-0.569,0.247-1.137,0.397-1.706
		c0.129-0.482,0.29-0.955,0.44-1.438l0.022-0.011c-0.29,1.105-0.612,2.21-0.848,3.326c-0.075,0.365-0.139,0.912-0.247,1.245
		C45.098,9.872,45.196,9.401,45.292,8.928z M45.056,10.484h-0.022c0-0.043,0.011-0.086,0.022-0.129V10.484z M45.024,8.253
		c0,0.022,0,0.043,0.011,0.054h-0.022C45.013,8.285,45.013,8.274,45.024,8.253z M45.024,10.591c0,0.022,0.011,0.032,0.011,0.054
		h-0.022C45.013,10.624,45.013,10.613,45.024,10.591z M44.991,8.403h0.011c0,0.022,0,0.032-0.011,0.054V8.403z M44.991,8.468
		c0,0.022-0.011,0.043-0.011,0.065l-0.022-0.011L44.991,8.468z M44.949,8.617h0.011v0.022h-0.011V8.617z"/>
	<path class="st1" d="M44.252,11.31c0,0.011-0.011,0.011-0.011,0.022h0.011V11.31z"/>
	<path class="st1" d="M14.67,20.014c-0.007-0.032-0.025-0.044-0.054-0.034s-0.054,0.025-0.073,0.044
		c0.013,0.013,0.039,0.023,0.079,0.029C14.66,20.06,14.677,20.046,14.67,20.014z"/>
	
		<ellipse transform="matrix(0.708 -0.7063 0.7063 0.708 -9.8872 16.1082)" class="st1" cx="14.534" cy="20.009" rx="0.014" ry="0.011"/>
	<path class="st1" d="M14.542,20.083c0.013,0,0.019-0.005,0.019-0.015c0-0.01-0.007-0.018-0.019-0.025
		c-0.013,0-0.019,0.005-0.019,0.015S14.529,20.076,14.542,20.083z"/>
	<path class="st1" d="M19.881,23.138c-0.686,0-1.499-1.029-1.763-1.597c0.362-0.441,0.734-0.882,1.107-1.322
		c0.166-0.196,0.441-0.509,0.441-0.784c0-0.186-0.264-0.412-0.441-0.412c-0.059,0-0.098,0.019-0.147,0.049
		c-0.657,0.362-1.077,0.774-1.479,1.401c0.137-0.832,0.372-1.655,0.568-2.478c0.137-0.568,0.323-1.127,0.323-1.714
		c0-0.294-0.127-0.657-0.391-0.803c-0.01-0.01-0.088-0.049-0.108-0.049c-0.039,0-0.069,0.01-0.108,0.01
		c0,0.137,0.029,0.264,0.029,0.402c0,0.372-0.274,1.215-0.382,1.607c-0.199,0.748-0.388,1.497-0.569,2.246
		c-0.011,0.003-0.018-0.003-0.029,0.002c-0.052,0.023-0.095,0.064-0.127,0.123c-0.032,0.052-0.101,0.173-0.206,0.362
		c-0.105,0.19-0.232,0.391-0.382,0.607c-0.013-0.209-0.085-0.422-0.216-0.637c-0.131-0.216-0.333-0.422-0.607-0.617
		c-0.013-0.013-0.052-0.041-0.118-0.083c-0.066-0.042-0.105-0.07-0.118-0.083c-0.079-0.052-0.126-0.101-0.142-0.147
		c-0.016-0.045-0.01-0.082,0.019-0.108c0.029-0.026,0.076-0.041,0.142-0.044s0.14,0.008,0.225,0.034
		c0.039,0.013,0.083,0.033,0.133,0.059c0.049,0.026,0.093,0.059,0.133,0.098s0.067,0.082,0.083,0.127
		c0.016,0.045,0.012,0.098-0.015,0.156c0.032-0.026,0.052-0.062,0.059-0.108c0.006-0.045-0.007-0.088-0.039-0.127
		c0.066,0.072,0.086,0.136,0.064,0.191c-0.023,0.055-0.086,0.086-0.191,0.093c0.118,0.045,0.229,0.064,0.333,0.054
		c0.104-0.01,0.197-0.038,0.279-0.083c0.082-0.045,0.147-0.106,0.196-0.181c0.049-0.075,0.08-0.158,0.093-0.25
		c0.013,0.072,0.013,0.143,0,0.216c0.059-0.183,0.073-0.336,0.044-0.46c-0.029-0.124-0.09-0.225-0.181-0.304
		c-0.092-0.079-0.207-0.137-0.348-0.176c-0.14-0.039-0.292-0.066-0.455-0.079c-0.34-0.026-0.629-0.003-0.867,0.069
		c-0.238,0.072-0.41,0.171-0.514,0.299c-0.105,0.127-0.137,0.277-0.098,0.451c0.039,0.173,0.166,0.351,0.382,0.534
		c0.026,0.013,0.06,0.038,0.102,0.073c0.042,0.036,0.076,0.06,0.102,0.073c0.229,0.15,0.395,0.317,0.499,0.499
		c0.104,0.183,0.163,0.359,0.176,0.529c0.013,0.203-0.01,0.368-0.069,0.495c-0.059,0.127-0.139,0.225-0.24,0.294
		c-0.101,0.069-0.212,0.108-0.333,0.118c-0.121,0.01-0.237-0.005-0.348-0.044c-0.111-0.039-0.209-0.101-0.294-0.186
		c-0.085-0.085-0.143-0.186-0.176-0.304c-0.033-0.124-0.034-0.245-0.005-0.362c0.029-0.118,0.073-0.225,0.133-0.323
		c0.059-0.098,0.129-0.186,0.21-0.264c0.082-0.079,0.158-0.143,0.23-0.196c-0.032,0.007-0.064,0.013-0.093,0.019
		s-0.06,0.023-0.093,0.049c0.032-0.045,0.07-0.083,0.113-0.113c0.042-0.029,0.086-0.051,0.133-0.064
		c-0.026-0.026-0.059-0.038-0.098-0.034c-0.039,0.003-0.069,0.012-0.088,0.025c0.026-0.026,0.062-0.044,0.108-0.054
		c0.045-0.01,0.085-0.002,0.118,0.025c-0.026-0.052-0.079-0.123-0.156-0.21c-0.078-0.088-0.137-0.145-0.176-0.171
		c-0.032-0.019-0.075-0.028-0.127-0.025c-0.052,0.003-0.105,0.028-0.156,0.073c-0.222,0.209-0.384,0.438-0.485,0.686
		c-0.101,0.248-0.147,0.49-0.137,0.725s0.073,0.449,0.191,0.642s0.281,0.338,0.49,0.436c0.222,0.098,0.452,0.149,0.69,0.152
		s0.445-0.031,0.622-0.102c0.183-0.059,0.368-0.178,0.553-0.358c0.186-0.18,0.358-0.378,0.514-0.597
		c0.127-0.177,0.234-0.354,0.338-0.532c-0.1,0.471-0.18,0.947-0.18,1.428c0,0.372,0.059,0.705,0.391,0.931
		c0.049,0.029,0.098,0.049,0.147,0.059c0.088,0.019,0.176,0.01,0.264,0.019c0-0.069,0.01-0.137,0.01-0.206
		c0-0.216-0.039-0.422-0.039-0.637v-0.186c0.049,0.01,0.059,0.029,0.088,0.069c0.499,0.774,1.47,1.41,2.41,1.41
		c0.314,0,0.813-0.108,0.99-0.391c-0.147-0.019-0.294-0.059-0.441-0.059C20.214,23.09,20.048,23.138,19.881,23.138z M19.518,19.524
		h0.01c0,0.01,0,0.019-0.01,0.029V19.524z M15.625,18.902c0.055,0.01,0.111,0.023,0.166,0.039c0.055,0.016,0.102,0.038,0.142,0.064
		c0.039,0.026,0.062,0.055,0.069,0.088c-0.013-0.026-0.055-0.06-0.127-0.102c-0.072-0.042-0.203-0.076-0.391-0.102
		C15.523,18.887,15.57,18.892,15.625,18.902z M15.943,19.152c-0.045-0.052-0.111-0.096-0.196-0.133
		c-0.085-0.035-0.156-0.06-0.216-0.073c0.124,0.013,0.227,0.041,0.308,0.083C15.922,19.072,15.957,19.112,15.943,19.152z
		 M15.728,19.112c0.163,0.098,0.238,0.212,0.225,0.343c-0.019-0.104-0.067-0.187-0.142-0.25c-0.076-0.062-0.159-0.109-0.25-0.142
		c-0.092-0.032-0.18-0.055-0.264-0.069s-0.144-0.019-0.176-0.019C15.362,18.969,15.565,19.015,15.728,19.112z M15.483,20.283
		c0.032,0.049,0.06,0.108,0.083,0.176c0.023,0.069,0.041,0.14,0.054,0.216c0.013,0.076,0.016,0.146,0.01,0.21
		c0-0.052-0.007-0.114-0.019-0.186c-0.013-0.072-0.031-0.142-0.054-0.21c-0.023-0.069-0.049-0.13-0.079-0.186
		s-0.064-0.096-0.102-0.123C15.415,20.2,15.45,20.235,15.483,20.283z M15.444,20.651c-0.052-0.176-0.121-0.327-0.206-0.451
		c-0.085-0.124-0.17-0.219-0.254-0.284c-0.085-0.066-0.134-0.101-0.147-0.108c0.059,0.019,0.134,0.072,0.225,0.156
		c0.092,0.085,0.176,0.193,0.254,0.323c0.079,0.131,0.136,0.277,0.171,0.441c0.035,0.163,0.025,0.337-0.034,0.519
		C15.5,21.026,15.497,20.827,15.444,20.651z M15.694,21.229c-0.01,0.098-0.031,0.191-0.064,0.279
		c-0.032,0.088-0.085,0.146-0.156,0.171c0.059-0.039,0.104-0.096,0.137-0.171c0.032-0.075,0.055-0.156,0.069-0.245
		c0.013-0.088,0.018-0.175,0.015-0.26c-0.003-0.085-0.008-0.16-0.015-0.225c0.006,0.032,0.013,0.092,0.019,0.176
		C15.705,21.039,15.704,21.131,15.694,21.229z M17.805,20.298c0.304-0.391,0.607-0.813,1.067-1.038
		c-0.264,0.216-0.549,0.412-0.764,0.676c-0.019,0.029-0.039,0.049-0.069,0.069C18,20.073,17.942,20.131,17.892,20.2
		c-0.127,0.166-0.225,0.353-0.333,0.529l-0.019,0.01C17.599,20.572,17.697,20.435,17.805,20.298z M18.686,19.593l-0.049,0.019
		l0.039-0.029L18.686,19.593z M18.245,19.965c-0.01,0.01-0.029,0.01-0.039,0.01l-0.019,0.029v-0.049c0.01,0,0.019,0,0.029,0.01
		C18.216,19.965,18.245,19.965,18.245,19.965z M18.167,20.053c-0.01,0.01-0.019,0.01-0.029,0.01l-0.019,0.059
		c-0.01,0-0.019,0-0.029,0.01l-0.019,0.049c-0.01,0.01-0.029,0.01-0.039,0.01c0,0.019,0,0.029-0.01,0.049v-0.069h0.019
		c0.01,0.01,0.019,0.01,0.029,0.01v-0.069l0.01-0.01l0.01,0.01c0.01,0,0.019,0,0.029,0.01v-0.079h0.019
		C18.148,20.053,18.158,20.053,18.167,20.053z M18.02,20.249c-0.01,0-0.029,0-0.039,0.01c0,0.01-0.01,0.029-0.019,0.039V20.24h0.029
		C18,20.239,18.01,20.239,18.02,20.249z M17.952,20.308c-0.02,0.019-0.02,0.039-0.049,0.049c0,0.019-0.01,0.039-0.019,0.049
		l-0.019,0.029v-0.029h0.019v-0.039c0.01-0.01,0.01-0.019,0.01-0.029l0.019-0.039h0.029L17.952,20.308z M17.854,20.455
		c0,0.01-0.01,0.029-0.019,0.039l-0.019,0.029v-0.029h0.019c0-0.01,0-0.029,0.01-0.039H17.854z M17.805,20.543
		c0,0.01-0.01,0.029-0.019,0.039l-0.029,0.029v-0.039c0.01,0.01,0.019,0.01,0.029,0.01v-0.049L17.805,20.543z M17.687,20.69
		c0-0.019,0.029-0.029,0.039-0.029c0-0.019,0-0.029,0.01-0.049l0.01,0.01c0,0.01-0.01,0.029-0.019,0.039l-0.029,0.059
		C17.697,20.709,17.687,20.69,17.687,20.69z M17.697,20.729l-0.019,0.03v-0.029L17.697,20.729L17.697,20.729z M17.667,20.768
		l-0.019,0.029v-0.029H17.667z M17.619,20.876l-0.02,0.02l-0.01-0.019L17.619,20.876L17.619,20.876z M17.472,21.277h-0.01l0.01-0.01
		V21.277z M18.167,20.112l-0.01,0.019c-0.127,0.176-0.245,0.333-0.353,0.529c-0.098,0.196-0.176,0.412-0.333,0.568
		C17.628,20.934,17.892,20.356,18.167,20.112z M17.677,20.974v0.01l-0.01-0.01H17.677z M17.56,21.219l-0.01-0.01h0.01V21.219z
		 M17.707,21.248l-0.059,0.059l-0.049-0.059c0.362-0.813,0.872-1.509,1.665-1.95l0.029,0.019c-0.245,0.353-0.529,0.686-0.803,1.009
		L17.707,21.248z M19.186,19.661c-0.029,0.069-0.108,0.108-0.127,0.176c-0.069,0.069-0.108,0.137-0.176,0.206
		C18.971,19.906,19.068,19.778,19.186,19.661z M18.813,20.131l-0.049,0.049l0.039-0.049H18.813z M18.637,20.337v0.01l-0.039,0.039
		l0.029-0.049C18.627,20.337,18.637,20.337,18.637,20.337z M17.981,21.297v-0.01l0.01,0.01H17.981z M18.059,21.356l1.225-1.47
		c0.059-0.079,0.127-0.166,0.176-0.255c-0.029,0.069-0.059,0.156-0.098,0.206l-1.117,1.352c-0.069,0.079-0.147,0.156-0.225,0.225
		L18.059,21.356z"/>
	<path class="st1" d="M20.762,18.309l-0.049,0.01v-0.098l-0.118-0.019l0.019-0.069l-0.098-0.049
		c-0.019,0.019-0.039,0.039-0.069,0.049v-0.069l-0.049-0.01l-0.029-0.039c-0.186,0-0.294,0.509-0.294,0.657
		c0,0.274,0.206,0.715,0.441,0.852c0.069-0.01,0.118,0.049,0.186,0.049c0.029,0,0.059-0.01,0.088-0.029
		c0-0.127-0.039-0.264-0.039-0.391c0-0.235,0.108-0.441,0.108-0.676C20.861,18.407,20.822,18.349,20.762,18.309z"/>
	<path class="st1" d="M22.418,18.965c0.079-0.264,0.176-0.529,0.254-0.794c0.137-0.46,0.588-1.822,0.588-2.223
		c0-0.274-0.314-0.725-0.597-0.725c-0.029,0-0.059,0.029-0.069,0.059c0.039,0.059,0.069,0.127,0.069,0.196
		c0,0.196-0.676,1.9-0.794,2.263c-0.243,0.766-0.592,1.974-0.814,3.066c-0.053,0.068-0.107,0.135-0.156,0.206
		c-0.245,0.362-0.48,0.744-0.754,1.087c0-0.01-0.01-0.029-0.01-0.029c0-0.01,0.01-0.01,0.01-0.019l0.216-0.725
		c0.108-0.353,0.235-0.686,0.235-1.058c0-0.47-0.353-0.695-0.784-0.754c-0.029,0.01-0.088,0.029-0.088,0.069
		c0,0.049,0.029,0.098,0.029,0.147v0.039c-0.029,0.402-0.127,0.794-0.235,1.185c-0.137,0.499-0.264,1.058-0.264,1.587
		c0,0.294,0.206,0.451,0.489,0.451c0.079,0,0.137-0.01,0.196-0.069c0.225-0.245,0.539-0.676,0.734-0.96
		c0.089-0.127,0.167-0.264,0.248-0.398c-0.049,0.331-0.082,0.642-0.082,0.897c0,0.294,0.019,0.617,0.196,0.862
		c0.147,0.206,0.362,0.391,0.627,0.391c0.029,0,0.059-0.01,0.088-0.01c-0.01-0.118-0.059-0.245-0.088-0.362
		c-0.049-0.186-0.088-0.362-0.088-0.549c0-0.647,0.137-1.312,0.314-1.94L22.418,18.965z M22.683,17.222l0.01,0.01h-0.01V17.222z
		 M22.614,17.486c0-0.029,0-0.069,0.01-0.098l0.019,0.01L22.614,17.486l-0.049,0.108C22.565,17.545,22.575,17.516,22.614,17.486z
		 M20.224,20.768h0.019c-0.01,0.019-0.01,0.049-0.019,0.059V20.768z M19.744,22.58h-0.02c0.049-0.353,0.176-0.695,0.274-1.038
		c0.069-0.225,0.098-0.46,0.216-0.666C20.057,21.444,19.891,22.012,19.744,22.58z M20.469,21.973
		c0.019-0.039,0.039-0.088,0.088-0.098L20.469,21.973z M20.587,21.816v-0.019c0-0.059,0.039-0.079,0.088-0.088L20.587,21.816z
		 M20.194,22.198c-0.019,0.029-0.069,0.059-0.098,0.088c0.088-0.176,0.225-0.323,0.333-0.49c0.166-0.274,0.353-0.539,0.519-0.813
		c0.027-0.046,0.066-0.089,0.099-0.133c-0.009,0.047-0.017,0.092-0.026,0.139C20.745,21.392,20.468,21.795,20.194,22.198z
		 M21.429,21.982c-0.01,0.069-0.029,0.137-0.049,0.206c0.069-0.705,0.225-1.401,0.422-2.077c0.005-0.018,0.015-0.054,0.022-0.079
		c0.008-0.019,0.019-0.039,0.027-0.058l-0.009-0.005c0.156-0.553,0.578-2.089,0.694-2.268c-0.156,0.666-0.391,1.312-0.578,1.969
		c-0.127,0.47-0.235,0.94-0.353,1.41C21.527,21.385,21.477,21.679,21.429,21.982z"/>
	
		<ellipse transform="matrix(0.7071 -0.7071 0.7071 0.7071 -8.7066 23.4763)" class="st1" cx="23.985" cy="22.248" rx="0.014" ry="0.011"/>
	<path class="st1" d="M24.122,22.253c-0.007-0.032-0.025-0.044-0.054-0.034c-0.029,0.01-0.054,0.025-0.073,0.044
		c0.013,0.013,0.039,0.023,0.079,0.029C24.112,22.298,24.128,22.285,24.122,22.253z"/>
	<path class="st1" d="M26.385,21.935c-0.052,0.023-0.095,0.064-0.127,0.123c-0.032,0.052-0.101,0.173-0.206,0.362
		c-0.105,0.19-0.232,0.391-0.382,0.607c-0.013-0.209-0.085-0.422-0.216-0.637c-0.131-0.216-0.333-0.422-0.607-0.617
		c-0.013-0.013-0.052-0.041-0.118-0.083c-0.066-0.042-0.105-0.07-0.118-0.083c-0.079-0.052-0.126-0.101-0.142-0.147
		c-0.016-0.045-0.01-0.082,0.019-0.108s0.076-0.041,0.142-0.044s0.14,0.008,0.225,0.034c0.039,0.013,0.083,0.032,0.133,0.059
		c0.049,0.026,0.093,0.059,0.133,0.098c0.039,0.039,0.067,0.082,0.083,0.127c0.016,0.045,0.012,0.098-0.015,0.156
		c0.032-0.026,0.052-0.062,0.059-0.108c0.006-0.045-0.007-0.088-0.039-0.127c0.066,0.072,0.086,0.136,0.064,0.191
		c-0.023,0.055-0.086,0.086-0.191,0.093c0.118,0.045,0.229,0.064,0.333,0.054c0.104-0.01,0.197-0.038,0.279-0.083
		c0.082-0.045,0.147-0.106,0.196-0.181c0.049-0.075,0.08-0.158,0.093-0.25c0.013,0.072,0.013,0.143,0,0.216
		c0.059-0.183,0.073-0.336,0.044-0.46c-0.029-0.124-0.09-0.225-0.181-0.304c-0.092-0.079-0.207-0.137-0.348-0.176
		c-0.14-0.039-0.292-0.066-0.455-0.079c-0.34-0.026-0.629-0.003-0.867,0.069s-0.41,0.171-0.514,0.299
		c-0.105,0.127-0.137,0.277-0.098,0.451c0.039,0.173,0.166,0.351,0.382,0.534c0.026,0.013,0.06,0.038,0.102,0.073
		c0.042,0.036,0.077,0.06,0.102,0.073c0.229,0.15,0.395,0.317,0.499,0.499c0.104,0.183,0.163,0.359,0.176,0.529
		c0.013,0.203-0.01,0.368-0.069,0.495s-0.139,0.225-0.24,0.294c-0.101,0.069-0.212,0.108-0.333,0.118
		c-0.121,0.01-0.237-0.005-0.348-0.044c-0.111-0.039-0.209-0.101-0.294-0.186c-0.085-0.085-0.144-0.186-0.176-0.304
		c-0.032-0.124-0.034-0.245-0.005-0.362c0.029-0.117,0.073-0.225,0.133-0.323c0.059-0.098,0.129-0.186,0.21-0.264
		c0.082-0.079,0.158-0.143,0.23-0.196c-0.033,0.007-0.064,0.013-0.093,0.019c-0.029,0.007-0.06,0.023-0.093,0.049
		c0.032-0.045,0.07-0.083,0.113-0.113c0.042-0.029,0.086-0.051,0.133-0.064c-0.026-0.026-0.059-0.038-0.098-0.034
		c-0.039,0.003-0.069,0.012-0.088,0.025c0.026-0.026,0.062-0.044,0.108-0.054c0.045-0.01,0.085-0.002,0.118,0.025
		c-0.026-0.052-0.079-0.123-0.156-0.21c-0.079-0.088-0.137-0.145-0.176-0.171c-0.033-0.019-0.076-0.028-0.127-0.025
		c-0.052,0.003-0.105,0.028-0.156,0.073c-0.222,0.209-0.384,0.438-0.485,0.686c-0.081,0.2-0.117,0.393-0.126,0.583
		c-0.02-0.104-0.035-0.208-0.035-0.315c0-0.647,0.137-1.312,0.314-1.94l0.529-1.89c0.079-0.264,0.176-0.529,0.255-0.794
		c0.137-0.46,0.588-1.822,0.588-2.223c0-0.274-0.314-0.725-0.597-0.725c-0.029,0-0.059,0.029-0.069,0.059
		c0.039,0.059,0.069,0.127,0.069,0.196c0,0.196-0.676,1.9-0.794,2.263c-0.382,1.205-1.029,3.507-1.029,4.722
		c0,0.294,0.019,0.617,0.196,0.862c0.147,0.206,0.362,0.391,0.627,0.391c0.015,0,0.031-0.002,0.046-0.005
		c0.025,0.062,0.046,0.125,0.081,0.182c0.118,0.193,0.281,0.338,0.49,0.436c0.222,0.098,0.452,0.149,0.69,0.152
		s0.445-0.031,0.622-0.102c0.183-0.059,0.368-0.178,0.553-0.358c0.186-0.18,0.358-0.378,0.514-0.597
		c0.156-0.219,0.295-0.438,0.416-0.657c0.121-0.219,0.21-0.393,0.27-0.524c0.045-0.092,0.062-0.163,0.049-0.216
		c-0.013-0.052-0.038-0.086-0.073-0.102C26.481,21.908,26.437,21.911,26.385,21.935z M25.077,21.141
		c0.055,0.01,0.111,0.023,0.166,0.039c0.055,0.016,0.102,0.038,0.142,0.064c0.039,0.026,0.062,0.055,0.069,0.088
		c-0.013-0.026-0.055-0.06-0.127-0.102c-0.072-0.042-0.203-0.076-0.391-0.102C24.975,21.126,25.022,21.132,25.077,21.141z
		 M25.395,21.39c-0.045-0.052-0.111-0.096-0.196-0.133c-0.085-0.036-0.156-0.06-0.216-0.073c0.124,0.013,0.227,0.041,0.308,0.083
		C25.374,21.311,25.409,21.352,25.395,21.39z M25.18,21.352c0.163,0.098,0.238,0.212,0.225,0.343
		c-0.019-0.104-0.067-0.187-0.142-0.25c-0.076-0.062-0.159-0.109-0.25-0.142c-0.092-0.032-0.18-0.055-0.264-0.069
		c-0.085-0.013-0.143-0.019-0.176-0.019C24.814,21.208,25.017,21.253,25.18,21.352z M23.877,17.222l0.01,0.01h-0.01V17.222z
		 M23.809,17.486c0-0.029,0-0.069,0.01-0.098l0.019,0.01L23.809,17.486l-0.049,0.108C23.76,17.545,23.769,17.516,23.809,17.486z
		 M22.575,22.188c0.069-0.705,0.225-1.401,0.422-2.077c0.108-0.372,0.607-2.214,0.734-2.41c-0.156,0.666-0.391,1.312-0.578,1.969
		c-0.127,0.47-0.235,0.94-0.353,1.41c-0.079,0.304-0.127,0.597-0.176,0.901C22.613,22.051,22.594,22.12,22.575,22.188z
		 M24.935,22.522c0.032,0.049,0.06,0.108,0.083,0.176c0.023,0.069,0.041,0.14,0.054,0.216c0.013,0.075,0.016,0.146,0.01,0.21
		c0-0.052-0.007-0.114-0.019-0.186c-0.013-0.072-0.031-0.142-0.054-0.21s-0.049-0.13-0.079-0.186
		c-0.029-0.055-0.064-0.096-0.102-0.123C24.867,22.439,24.902,22.473,24.935,22.522z M24.896,22.889
		c-0.052-0.176-0.121-0.327-0.206-0.451c-0.085-0.124-0.17-0.219-0.255-0.284c-0.085-0.066-0.134-0.101-0.147-0.108
		c0.059,0.019,0.134,0.072,0.225,0.156c0.092,0.085,0.176,0.193,0.255,0.323c0.079,0.131,0.136,0.277,0.171,0.441
		c0.035,0.163,0.025,0.337-0.034,0.519C24.952,23.265,24.948,23.066,24.896,22.889z M25.146,23.467
		c-0.01,0.098-0.031,0.191-0.064,0.279c-0.033,0.088-0.085,0.146-0.156,0.171c0.059-0.039,0.104-0.096,0.137-0.171
		c0.032-0.075,0.055-0.156,0.069-0.245c0.013-0.088,0.018-0.175,0.015-0.26c-0.003-0.085-0.008-0.16-0.015-0.225
		c0.006,0.033,0.013,0.092,0.019,0.176C25.157,23.278,25.156,23.369,25.146,23.467z"/>
	<path class="st1" d="M23.994,22.321c0.013,0,0.019-0.005,0.019-0.015c0-0.01-0.007-0.018-0.019-0.025
		c-0.013,0-0.019,0.005-0.019,0.015S23.981,22.315,23.994,22.321z"/>
	<path class="st1" d="M31.126,17.81v0.029c0.019,0.049,0.039,0.098,0.069,0.147c0.137,0.264,0.206,0.568,0.206,0.862
		c0,0.774-0.441,2.733-1.067,3.213v-0.059c0-0.206,0.039-0.402,0.069-0.607c0.039-0.255,0.059-0.519,0.059-0.774
		c0-0.186,0-0.372-0.029-0.558c-0.039-0.284-0.314-0.568-0.617-0.568c-0.049,0-0.108,0-0.108,0.069l0.108,0.137
		c-0.019,0.049-0.647,0.901-0.725,1c-0.127,0.156-0.284,0.343-0.431,0.48v-0.019c0.019-0.039,0.029-0.079,0.039-0.118
		c0.127-0.441,0.372-0.862,0.372-1.332c0-0.206-0.059-0.333-0.206-0.48c-0.088-0.079-0.264-0.225-0.382-0.225
		c-0.029,0-0.069,0.01-0.098,0.01c0.01,0.049,0.039,0.127,0.039,0.176c0,0.118-0.01,0.245-0.049,0.362
		c-0.137,0.451-0.568,1.46-0.568,1.871c0,0.333,0.362,0.578,0.666,0.578c0.196,0,0.343-0.088,0.46-0.235
		c0.304-0.353,0.578-0.744,0.842-1.127c0,0.343-0.039,0.676-0.039,1.019c0,0.422,0.049,0.686,0.509,0.794
		c0.029,0.01,0.059,0.01,0.098,0.01c1.038,0,1.508-2.527,1.508-3.321C31.85,18.623,31.723,17.947,31.126,17.81z M28.334,21.306
		c0.108-0.284,0.206-0.578,0.304-0.872l0.029,0.01C28.598,20.621,28.442,21.199,28.334,21.306z M29.5,20.572v0.01h-0.01L29.5,20.572
		z M29.715,20.621h-0.01l0.01-0.01V20.621z M29.088,21.317c0.235-0.323,0.46-0.666,0.705-0.99h0.01
		C29.764,20.455,29.226,21.169,29.088,21.317z M29.754,20.004c0-0.029,0.029-0.049,0.039-0.079l0.019,0.01
		C29.793,19.955,29.764,19.975,29.754,20.004z M30.185,21.601l-0.029,0.019l0.019,0.147h-0.029c0.01-0.049,0.01-0.098,0.01-0.147
		l0.059-0.441h0.019L30.185,21.601z M31.43,19.632l0.01,0.029h-0.01c0-0.01,0-0.019-0.01-0.029H31.43z M31.41,19.769v0.059
		c-0.01-0.019-0.01-0.039-0.01-0.059H31.41z M31.38,19.886c0-0.019,0.01-0.029,0.029-0.039l-0.019,0.108l-0.059,0.166
		c0.01-0.059,0-0.127,0.059-0.166C31.39,19.936,31.38,19.906,31.38,19.886z M31.37,20.493c0,0.01,0,0.01-0.01,0.01v-0.01H31.37z
		 M31.322,20.601l0.029-0.019v0.01l-0.019,0.01v0.039h-0.01V20.601z M31.233,20.925c0.01,0,0.01,0,0.01,0.01h-0.01V20.925z
		 M30.871,21.542v-0.029l0.01,0.01L30.871,21.542z M31.224,20.543l-0.01,0.079c-0.049,0.118-0.079,0.245-0.127,0.362
		C31.116,20.836,31.184,20.69,31.224,20.543z M31.449,20.934v-0.01l0.01,0.01H31.449z M31.498,20.788h-0.01l0.01-0.01V20.788z
		 M31.43,20.759c-0.059,0.176-0.225,0.744-0.333,0.862c0.245-0.607,0.422-1.235,0.539-1.871l0.019-0.019
		C31.625,20.083,31.537,20.425,31.43,20.759z M31.655,19.7v-0.108h0.019C31.674,19.632,31.665,19.661,31.655,19.7z M31.684,19.495
		c0-0.019,0-0.039-0.01-0.049h0.019v0.049H31.684z"/>
	<path class="st1" d="M32.948,18.309l-0.049,0.01v-0.098l-0.118-0.019l0.019-0.069l-0.098-0.049
		c-0.019,0.019-0.039,0.039-0.069,0.049v-0.069l-0.049-0.01l-0.029-0.039c-0.186,0-0.294,0.509-0.294,0.657
		c0,0.274,0.206,0.715,0.441,0.852c0.069-0.01,0.118,0.049,0.186,0.049c0.029,0,0.059-0.01,0.088-0.029
		c0-0.127-0.039-0.264-0.039-0.391c0-0.235,0.108-0.441,0.108-0.676C33.046,18.407,33.006,18.349,32.948,18.309z"/>
	<path class="st1" d="M34.602,18.965c0.079-0.264,0.176-0.529,0.255-0.794c0.137-0.46,0.588-1.822,0.588-2.223
		c0-0.274-0.314-0.725-0.597-0.725c-0.029,0-0.059,0.029-0.069,0.059c0.039,0.059,0.069,0.127,0.069,0.196
		c0,0.196-0.676,1.9-0.794,2.263c-0.243,0.766-0.592,1.974-0.814,3.066c-0.053,0.068-0.107,0.135-0.156,0.206
		c-0.245,0.362-0.48,0.744-0.754,1.087c0-0.01-0.01-0.029-0.01-0.029c0-0.01,0.01-0.01,0.01-0.019l0.216-0.725
		c0.108-0.353,0.235-0.686,0.235-1.058c0-0.47-0.353-0.695-0.784-0.754c-0.029,0.01-0.088,0.029-0.088,0.069
		c0,0.049,0.029,0.098,0.029,0.147v0.039c-0.029,0.402-0.127,0.794-0.235,1.185c-0.137,0.499-0.264,1.058-0.264,1.587
		c0,0.294,0.206,0.451,0.49,0.451c0.079,0,0.137-0.01,0.196-0.069c0.225-0.245,0.539-0.676,0.734-0.96
		c0.089-0.127,0.167-0.264,0.248-0.398c-0.049,0.331-0.082,0.642-0.082,0.897c0,0.294,0.019,0.617,0.196,0.862
		c0.147,0.206,0.362,0.391,0.627,0.391c0.029,0,0.059-0.01,0.088-0.01c-0.01-0.118-0.059-0.245-0.088-0.362
		c-0.049-0.186-0.088-0.362-0.088-0.549c0-0.647,0.137-1.312,0.314-1.94L34.602,18.965z M34.867,17.222l0.01,0.01h-0.01V17.222z
		 M34.799,17.486c0-0.029,0-0.069,0.01-0.098l0.019,0.01L34.799,17.486l-0.049,0.108C34.749,17.545,34.759,17.516,34.799,17.486z
		 M32.408,20.768h0.019c-0.01,0.019-0.01,0.049-0.019,0.059V20.768z M31.929,22.58H31.91c0.049-0.353,0.176-0.695,0.274-1.038
		c0.069-0.225,0.098-0.46,0.216-0.666C32.242,21.444,32.075,22.012,31.929,22.58z M32.653,21.973
		c0.019-0.039,0.039-0.088,0.088-0.098L32.653,21.973z M32.771,21.816v-0.019c0-0.059,0.039-0.079,0.088-0.088L32.771,21.816z
		 M32.379,22.198c-0.019,0.029-0.069,0.059-0.098,0.088c0.088-0.176,0.225-0.323,0.333-0.49c0.166-0.274,0.353-0.539,0.519-0.813
		c0.027-0.046,0.066-0.089,0.099-0.133c-0.009,0.047-0.017,0.092-0.026,0.139C32.929,21.392,32.653,21.795,32.379,22.198z
		 M33.614,21.982c-0.01,0.069-0.029,0.137-0.049,0.206c0.069-0.705,0.225-1.401,0.422-2.077c0.005-0.018,0.015-0.055,0.022-0.079
		c0.008-0.019,0.019-0.039,0.027-0.058l-0.009-0.005c0.156-0.553,0.578-2.089,0.694-2.268c-0.156,0.666-0.391,1.312-0.578,1.969
		c-0.127,0.47-0.235,0.94-0.353,1.41C33.711,21.385,33.662,21.679,33.614,21.982z"/>
	<path class="st1" d="M36.043,15.224c-0.029,0-0.059,0.029-0.069,0.059c0.039,0.059,0.069,0.127,0.069,0.196
		c0,0.196-0.676,1.9-0.794,2.263c-0.382,1.205-1.029,3.507-1.029,4.722c0,0.294,0.019,0.617,0.196,0.862
		c0.147,0.206,0.362,0.391,0.627,0.391c0.029,0,0.059-0.01,0.088-0.01c-0.01-0.118-0.059-0.245-0.088-0.362
		c-0.049-0.186-0.088-0.362-0.088-0.549c0-0.647,0.137-1.312,0.314-1.94l0.529-1.89c0.079-0.264,0.176-0.529,0.254-0.794
		c0.137-0.46,0.588-1.822,0.588-2.223C36.64,15.675,36.326,15.224,36.043,15.224z M35.337,19.671c-0.127,0.47-0.235,0.94-0.353,1.41
		c-0.079,0.304-0.127,0.597-0.176,0.901c-0.01,0.069-0.029,0.137-0.049,0.206c0.069-0.705,0.225-1.401,0.422-2.077
		c0.108-0.372,0.607-2.214,0.734-2.41C35.758,18.368,35.523,19.015,35.337,19.671z M35.993,17.486l-0.049,0.108
		C35.945,17.545,35.954,17.516,35.993,17.486c0-0.029,0-0.069,0.01-0.098l0.019,0.01L35.993,17.486z M36.062,17.232v-0.01l0.01,0.01
		H36.062z"/>
	<path class="st1" d="M38.045,19.791c-0.007-0.004-0.015-0.002-0.022,0.005c-0.007,0.007-0.007,0.012,0,0.016
		c0.007,0.004,0.014,0.002,0.022-0.005C38.052,19.801,38.052,19.795,38.045,19.791z"/>
	<path class="st1" d="M38.045,19.883c0.014,0,0.022-0.005,0.022-0.016c0-0.011-0.007-0.019-0.022-0.027
		c-0.015,0-0.022,0.005-0.022,0.016C38.023,19.867,38.03,19.875,38.045,19.883z"/>
	<path class="st1" d="M38.184,19.808c-0.007-0.035-0.027-0.049-0.059-0.038c-0.032,0.011-0.059,0.027-0.08,0.049
		c0.014,0.015,0.043,0.025,0.086,0.032C38.173,19.858,38.191,19.844,38.184,19.808z"/>
	<path class="st1" d="M49.073,23.444l-0.054,0.064l-0.011-0.011l0.011-0.086l-0.301-0.075c-0.054-0.129-0.075-0.279-0.075-0.418
		c0-0.59,0.343-1.48,0.536-2.049c0.107-0.322,0.311-0.858,0.311-1.18c0-0.236-0.086-0.418-0.257-0.58
		c-0.311-0.29-0.708-0.504-1.073-0.719c-0.011-0.236-0.043-0.472-0.065-0.708c-0.043-0.375-0.257-0.708-0.612-0.858
		c-0.086-0.043-0.172-0.064-0.268-0.064c-0.311,0-0.569,0.354-0.569,0.643c0,0.569,0.569,0.88,0.976,1.159
		c-0.183,0.998-0.536,1.91-1.073,2.768c-0.077,0.118-0.156,0.229-0.24,0.335c0.022-0.247,0.045-0.494,0.068-0.743
		c0.032-0.386,0.064-0.783,0.139-1.17c0.022-0.139,0.054-0.279,0.086-0.418l0.086-0.451c-0.086-0.118-0.183-0.214-0.268-0.322
		c-0.022,0.032-0.065,0.043-0.096,0.054c-0.011,0.011-0.022,0.011-0.032,0.043c0-0.022,0-0.032,0.032-0.043l-0.022-0.172
		l-0.129,0.118c-0.139,0.161-0.268,0.375-0.354,0.569c-0.408,0.88-0.88,1.685-1.556,2.404v-0.118
		c0.139-0.601,0.343-1.18,0.343-1.803c0-0.451-0.204-1.009-0.697-1.105c0,0.129,0.032,0.268,0.032,0.397
		c0,0.375-0.161,0.772-0.268,1.127c-0.129,0.429-0.333,0.976-0.333,1.416c0,0.472,0.247,0.601,0.59,0.772l0.107,0.054
		c0.065,0.032,0.086,0.054,0.161,0.054c0.408,0,1.094-1.04,1.299-1.373c0,0.225-0.022,0.451-0.065,0.676
		c-0.214,1.223-0.354,2.446-0.848,3.605c-0.15,0.354-0.418,0.891-0.719,1.148l-0.236,0.193c-0.054-0.214-0.15-0.375-0.15-0.612
		c0-0.139,0.022-0.268,0.054-0.408c0-0.011,0.011-0.022,0.011-0.032c0.107-0.515,0.279-0.912,0.493-1.395
		c0.082-0.19,0.17-0.373,0.287-0.533c0.244-0.065,0.48-0.175,0.593-0.357c-0.161-0.022-0.322-0.065-0.483-0.065
		c-0.008,0-0.016,0.002-0.024,0.002c-0.069-0.032-0.137-0.056-0.18-0.056c-0.059,0-0.123,0.036-0.19,0.092
		c-0.051,0.006-0.102,0.015-0.153,0.015c-0.751,0-1.641-1.127-1.931-1.749c0.397-0.483,0.805-0.966,1.212-1.448
		c0.183-0.214,0.482-0.558,0.482-0.858c0-0.204-0.29-0.451-0.482-0.451c-0.065,0-0.107,0.022-0.161,0.054
		c-0.719,0.397-1.18,0.848-1.62,1.534c0.15-0.912,0.408-1.813,0.622-2.714c0.15-0.622,0.354-1.234,0.354-1.877
		c0-0.322-0.139-0.719-0.429-0.88c-0.011-0.011-0.096-0.054-0.118-0.054c-0.043,0-0.075,0.011-0.118,0.011
		c0,0.15,0.032,0.29,0.032,0.44c0,0.408-0.301,1.33-0.418,1.759c-0.218,0.82-0.425,1.64-0.623,2.46
		c-0.012,0.003-0.019-0.003-0.032,0.002c-0.057,0.025-0.104,0.069-0.139,0.134c-0.036,0.057-0.111,0.19-0.225,0.397
		c-0.115,0.207-0.254,0.429-0.418,0.665c-0.015-0.229-0.093-0.462-0.236-0.697c-0.143-0.236-0.365-0.462-0.665-0.676
		c-0.015-0.014-0.057-0.045-0.129-0.091c-0.072-0.046-0.115-0.077-0.129-0.091c-0.086-0.057-0.138-0.111-0.156-0.161
		s-0.011-0.089,0.022-0.118c0.032-0.029,0.084-0.045,0.156-0.049c0.072-0.004,0.153,0.009,0.247,0.038
		c0.043,0.015,0.091,0.036,0.145,0.064c0.054,0.029,0.102,0.065,0.145,0.107c0.043,0.043,0.073,0.089,0.091,0.139
		c0.018,0.05,0.012,0.107-0.016,0.172c0.035-0.029,0.057-0.068,0.065-0.118c0.007-0.05-0.007-0.096-0.043-0.139
		c0.072,0.079,0.095,0.149,0.07,0.209c-0.025,0.061-0.095,0.095-0.209,0.102c0.129,0.05,0.25,0.069,0.365,0.059
		c0.114-0.011,0.217-0.041,0.306-0.091c0.089-0.05,0.161-0.116,0.214-0.199c0.054-0.082,0.088-0.173,0.102-0.274
		c0.014,0.079,0.014,0.157,0,0.236c0.064-0.2,0.08-0.368,0.049-0.504c-0.032-0.136-0.099-0.247-0.199-0.333
		c-0.1-0.086-0.227-0.15-0.381-0.193c-0.154-0.043-0.32-0.072-0.499-0.086c-0.372-0.029-0.688-0.004-0.949,0.075
		c-0.261,0.079-0.449,0.188-0.563,0.328c-0.115,0.139-0.15,0.304-0.107,0.493c0.043,0.19,0.183,0.385,0.418,0.585
		c0.029,0.015,0.066,0.042,0.113,0.08c0.046,0.039,0.084,0.066,0.113,0.08c0.25,0.165,0.432,0.347,0.547,0.547
		c0.114,0.2,0.179,0.393,0.193,0.58c0.014,0.222-0.011,0.402-0.075,0.542c-0.065,0.139-0.152,0.247-0.263,0.322
		c-0.111,0.075-0.233,0.118-0.365,0.129c-0.133,0.011-0.259-0.005-0.381-0.049c-0.122-0.043-0.229-0.111-0.322-0.203
		c-0.093-0.093-0.157-0.204-0.193-0.333c-0.036-0.136-0.038-0.268-0.005-0.397c0.032-0.129,0.08-0.247,0.145-0.354
		c0.065-0.107,0.141-0.204,0.23-0.29c0.089-0.086,0.173-0.157,0.252-0.214c-0.036,0.007-0.07,0.015-0.102,0.022
		c-0.032,0.007-0.066,0.025-0.102,0.054c0.035-0.05,0.077-0.091,0.123-0.123c0.046-0.032,0.095-0.055,0.145-0.069
		c-0.029-0.029-0.064-0.041-0.107-0.038c-0.043,0.004-0.075,0.012-0.096,0.027c0.029-0.029,0.068-0.049,0.118-0.059
		c0.05-0.011,0.092-0.002,0.129,0.027c-0.029-0.057-0.086-0.134-0.172-0.23c-0.086-0.096-0.15-0.159-0.193-0.188
		c-0.036-0.022-0.082-0.03-0.139-0.027c-0.057,0.004-0.115,0.031-0.172,0.08c-0.243,0.229-0.42,0.479-0.531,0.751
		c-0.111,0.272-0.161,0.536-0.15,0.794s0.08,0.492,0.209,0.703c0.129,0.211,0.307,0.37,0.536,0.478
		c0.243,0.107,0.496,0.163,0.756,0.166c0.261,0.004,0.488-0.034,0.681-0.113c0.2-0.065,0.402-0.195,0.606-0.391
		c0.203-0.197,0.391-0.415,0.563-0.654c0.139-0.194,0.256-0.388,0.369-0.583c-0.11,0.516-0.198,1.037-0.198,1.564
		c0,0.408,0.064,0.772,0.429,1.02c0.054,0.032,0.107,0.054,0.161,0.064c0.096,0.022,0.193,0.011,0.29,0.022
		c0-0.075,0.011-0.15,0.011-0.225c0-0.236-0.043-0.462-0.043-0.697v-0.204c0.054,0.011,0.064,0.032,0.096,0.075
		c0.524,0.811,1.52,1.479,2.508,1.534c-0.324,0.548-0.627,1.351-0.695,1.598c-0.065,0.225-0.086,0.493-0.086,0.73
		c0,0.311,0.065,0.612,0.343,0.794c0.183,0.118,0.418,0.214,0.643,0.214c0.279,0,0.526-0.15,0.73-0.333
		c0.783-0.697,1.234-1.985,1.427-2.982c0.086-0.44,0.139-0.901,0.183-1.352c0.012-0.102,0.018-0.202,0.028-0.304l0.165,0.056
		c0.193-0.107,0.333-0.279,0.462-0.451c0.612-0.848,1.094-1.77,1.223-2.821c0.193,0.086,0.493,0.193,0.493,0.451
		c0,0.161-0.118,0.504-0.183,0.665c-0.257,0.687-0.708,1.856-0.708,2.575c0,0.59,0.279,1.341,0.976,1.341
		c0.161,0,0.482-0.064,0.482-0.268c0-0.043-0.011-0.086-0.032-0.129C49.155,23.444,49.073,23.444,49.073,23.444z M49.277,20.119
		v0.011h-0.011L49.277,20.119z M46.873,17.201l-0.022-0.022l0.064-0.096C46.895,17.114,46.884,17.157,46.873,17.201z M47.141,17.372
		c-0.011-0.022-0.011-0.032-0.011-0.054c0-0.054,0.032-0.096,0.065-0.129C47.174,17.254,47.163,17.318,47.141,17.372z
		 M43.495,19.271h0.011c0,0.011,0,0.022-0.011,0.032V19.271z M39.23,18.59c0.061,0.011,0.122,0.025,0.183,0.043
		c0.061,0.018,0.113,0.042,0.156,0.07c0.043,0.029,0.068,0.061,0.075,0.096c-0.015-0.029-0.061-0.066-0.139-0.113
		c-0.079-0.046-0.222-0.084-0.429-0.113C39.117,18.574,39.169,18.579,39.23,18.59z M39.578,18.864
		c-0.05-0.057-0.122-0.106-0.214-0.145c-0.093-0.039-0.172-0.066-0.236-0.08c0.136,0.015,0.248,0.045,0.338,0.091
		C39.555,18.776,39.593,18.82,39.578,18.864z M39.343,18.82c0.179,0.107,0.261,0.233,0.247,0.375
		c-0.022-0.114-0.073-0.206-0.156-0.274c-0.082-0.068-0.173-0.119-0.274-0.156c-0.1-0.035-0.197-0.061-0.29-0.075
		s-0.157-0.022-0.193-0.022C38.942,18.663,39.164,18.713,39.343,18.82z M39.074,20.103c0.035,0.054,0.066,0.118,0.091,0.193
		c0.025,0.075,0.045,0.154,0.059,0.236c0.014,0.082,0.018,0.16,0.011,0.23c0-0.057-0.007-0.125-0.022-0.203
		c-0.015-0.079-0.034-0.156-0.059-0.23s-0.054-0.143-0.086-0.203c-0.032-0.061-0.069-0.106-0.113-0.134
		C39,20.012,39.039,20.049,39.074,20.103z M39.032,20.505c-0.057-0.193-0.133-0.358-0.225-0.493
		c-0.093-0.136-0.186-0.24-0.279-0.311c-0.093-0.072-0.146-0.111-0.161-0.118c0.064,0.022,0.146,0.079,0.247,0.172
		c0.1,0.093,0.193,0.211,0.279,0.354c0.086,0.143,0.149,0.304,0.188,0.482c0.039,0.179,0.027,0.368-0.038,0.569
		C39.092,20.917,39.089,20.698,39.032,20.505z M39.306,21.138c-0.011,0.107-0.034,0.209-0.07,0.306
		c-0.036,0.096-0.093,0.16-0.172,0.188c0.065-0.043,0.114-0.106,0.15-0.188c0.035-0.082,0.061-0.172,0.075-0.268
		c0.014-0.096,0.019-0.191,0.016-0.284c-0.004-0.092-0.009-0.175-0.016-0.247c0.007,0.036,0.014,0.1,0.022,0.193
		C39.318,20.93,39.316,21.031,39.306,21.138z M41.617,20.119c0.333-0.429,0.665-0.891,1.17-1.137
		c-0.29,0.236-0.601,0.451-0.837,0.741c-0.022,0.032-0.043,0.054-0.075,0.075c-0.043,0.075-0.107,0.139-0.161,0.214
		c-0.139,0.183-0.247,0.386-0.365,0.58l-0.022,0.011C41.392,20.419,41.499,20.269,41.617,20.119z M42.582,19.346l-0.054,0.022
		l0.043-0.032L42.582,19.346z M42.1,19.754c-0.011,0.011-0.032,0.011-0.043,0.011l-0.022,0.032v-0.054c0.011,0,0.022,0,0.032,0.011
		H42.1z M42.014,19.851c-0.011,0.011-0.022,0.011-0.032,0.011l-0.022,0.064c-0.011,0-0.022,0-0.032,0.011l-0.022,0.054
		c-0.011,0.011-0.032,0.011-0.043,0.011c0,0.022,0,0.032-0.011,0.054V19.98h0.022c0.011,0.011,0.022,0.011,0.032,0.011v-0.075
		l0.011-0.011l0.011,0.011c0.011,0,0.022,0,0.032,0.011V19.84h0.022C41.993,19.851,42.004,19.851,42.014,19.851z M41.853,20.065
		c-0.011,0-0.032,0-0.043,0.011c0,0.011-0.011,0.032-0.022,0.043v-0.064h0.032C41.832,20.054,41.842,20.054,41.853,20.065z
		 M41.778,20.13c-0.022,0.022-0.022,0.043-0.054,0.054c0,0.022-0.011,0.043-0.022,0.054l-0.022,0.032v-0.032h0.022v-0.043
		c0.011-0.011,0.011-0.022,0.011-0.032l0.022-0.043h0.032L41.778,20.13z M41.671,20.29c0,0.011-0.011,0.032-0.022,0.043
		l-0.022,0.032v-0.032h0.022c0-0.011,0-0.032,0.011-0.043H41.671z M41.617,20.387c0,0.011-0.011,0.032-0.022,0.043l-0.032,0.032
		v-0.043c0.011,0.011,0.022,0.011,0.032,0.011v-0.054L41.617,20.387z M41.488,20.548c0-0.022,0.032-0.032,0.043-0.032
		c0-0.022,0-0.032,0.011-0.054l0.011,0.011c0,0.011-0.011,0.032-0.022,0.043l-0.032,0.065
		C41.499,20.569,41.488,20.548,41.488,20.548z M41.499,20.591l-0.022,0.032v-0.032H41.499z M41.467,20.634l-0.022,0.032v-0.032
		H41.467z M41.413,20.752l-0.022,0.022l-0.011-0.022H41.413z M41.252,21.192h-0.011l0.011-0.011V21.192z M42.014,19.915
		l-0.011,0.022c-0.139,0.193-0.268,0.365-0.386,0.58c-0.107,0.214-0.193,0.451-0.365,0.622
		C41.424,20.816,41.714,20.183,42.014,19.915z M41.477,20.859v0.011l-0.011-0.011H41.477z M41.348,21.127l-0.011-0.011h0.011V21.127
		z M41.51,21.159l-0.064,0.065l-0.054-0.065c0.397-0.891,0.955-1.652,1.824-2.135l0.032,0.022c-0.268,0.386-0.58,0.751-0.88,1.105
		L41.51,21.159z M43.129,19.421c-0.032,0.075-0.118,0.118-0.139,0.193c-0.075,0.075-0.118,0.15-0.193,0.225
		C42.894,19.69,43.001,19.55,43.129,19.421z M42.722,19.936l-0.054,0.054l0.043-0.054H42.722z M42.529,20.161v0.011l-0.043,0.043
		l0.032-0.054H42.529z M41.81,21.213v-0.011l0.011,0.011H41.81z M41.896,21.277l1.341-1.609c0.065-0.086,0.139-0.183,0.193-0.279
		c-0.032,0.075-0.065,0.172-0.107,0.225l-1.223,1.48c-0.075,0.086-0.161,0.172-0.247,0.247L41.896,21.277z M43.623,24.721
		l-0.032,0.032c0.032-0.065,0.043-0.107,0.043-0.139l0.022-0.054L43.623,24.721z M43.784,24.335v-0.043
		c0,0.011,0.011,0.022,0.011,0.032C43.795,24.324,43.795,24.324,43.784,24.335z M43.827,23.756c-0.022,0-0.032,0.011-0.054,0.011
		c0.043-0.032,0.043-0.054,0.075-0.086L43.827,23.756z M44.084,23.777c-0.022,0-0.022,0.022-0.054,0.022
		c0.011-0.022,0.032-0.022,0.043-0.032l0.032-0.075C44.106,23.723,44.084,23.745,44.084,23.777z M43.72,23.917l-0.064,0.118
		c-0.011-0.011-0.011-0.032-0.011-0.043C43.644,23.938,43.677,23.917,43.72,23.917z M43.569,24.26
		c-0.043,0.065-0.096,0.118-0.129,0.183C43.441,24.335,43.452,24.281,43.569,24.26z M43.108,25.473v-0.075
		c0.011,0.011,0.011,0.032,0.011,0.043C43.119,25.452,43.119,25.462,43.108,25.473z M43.129,25.312v-0.065
		c0,0.022,0.011,0.022,0.011,0.032C43.14,25.29,43.129,25.301,43.129,25.312z M43.237,25.033h-0.011
		c0.011-0.032,0.032-0.054,0.032-0.064C43.258,24.989,43.247,25.011,43.237,25.033z M43.258,24.861
		c0.011,0.011,0.011,0.022,0.011,0.064C43.258,24.904,43.258,24.882,43.258,24.861z M43.398,25.365v-0.043
		c0,0.011,0.011,0.022,0.011,0.032C43.408,25.355,43.408,25.355,43.398,25.365z M43.387,24.56c0.022-0.032,0.043-0.075,0.054-0.096
		c0,0.022,0,0.032-0.011,0.054L43.387,24.56z M43.441,25.14c0-0.032,0.011-0.064,0.022-0.086c0,0.022,0.011,0.043,0.011,0.054
		C43.473,25.129,43.462,25.14,43.441,25.14z M45.747,19.593c0,0.032-0.011,0.064-0.011,0.096c-0.032,0.022-0.054,0.075-0.065,0.118
		C45.673,19.722,45.747,19.668,45.747,19.593z M45.544,19.969l0.022-0.043v0.043c-0.022,0.032-0.022,0.054-0.032,0.086
		C45.533,20.022,45.544,20,45.544,19.969z M44.943,21.481l-0.032,0.032c-0.011,0.011-0.032,0.011-0.043,0.011
		c-0.011,0.011-0.043,0.032-0.043,0.043c0.011-0.032,0.032-0.043,0.032-0.043c0.086-0.075,0.096-0.096,0.107-0.129
		C44.964,21.417,44.954,21.46,44.943,21.481z M45.082,20.795c-0.043,0-0.096,0.086-0.107,0.129c0.011-0.043,0.022-0.086,0.054-0.118
		l0.043-0.022l0.022-0.075c0.011-0.011,0.032-0.011,0.043-0.011l-0.043,0.022C45.093,20.741,45.082,20.773,45.082,20.795z
		 M45.168,21.127c0,0.032-0.022,0.054-0.022,0.064c0-0.022,0.011-0.054,0.022-0.075l0.054-0.022
		C45.211,21.116,45.179,21.116,45.168,21.127z M45.211,20.591c-0.011,0.011-0.043,0.011-0.065,0.022
		c0,0.022-0.011,0.043-0.011,0.054c0-0.022,0-0.043,0.011-0.064C45.168,20.601,45.189,20.591,45.211,20.591
		c0-0.022,0.011-0.054,0.011-0.075c0.022-0.011,0.043-0.011,0.054-0.022l-0.032,0.022C45.222,20.537,45.222,20.569,45.211,20.591z
		 M45.265,20.998v-0.011c0-0.011,0-0.022,0.043-0.022C45.296,20.977,45.275,20.977,45.265,20.998z M45.372,20.848
		c0.011-0.022,0.011-0.043,0.043-0.065C45.414,20.806,45.414,20.827,45.372,20.848z M45.361,20.322c0,0.022-0.011,0.043-0.011,0.065
		c-0.011,0-0.022,0-0.032,0C45.35,20.355,45.35,20.344,45.361,20.322c0.011-0.011,0.022-0.032,0.065-0.032
		C45.414,20.312,45.383,20.312,45.361,20.322z M45.436,20.215c0-0.022,0.011-0.054,0.011-0.075l0.065-0.054
		c-0.032,0.032-0.032,0.043-0.043,0.065L45.436,20.215z M45.49,20.634v-0.032l0.054-0.011l-0.011,0.011
		C45.512,20.612,45.501,20.623,45.49,20.634z M45.35,24.41v0.054l-0.032,0.043C45.34,24.442,45.34,24.421,45.35,24.41z
		 M45.233,24.045v0.043c-0.011,0-0.011,0-0.011-0.011C45.222,24.078,45.233,24.056,45.233,24.045z M45.2,24.163
		c0,0.022,0,0.043-0.011,0.065c-0.011-0.011-0.011-0.022-0.011-0.032C45.179,24.185,45.179,24.185,45.2,24.163z M44.76,25.397
		l-0.011,0.011c0-0.032,0.011-0.032,0.022-0.043C44.76,25.375,44.76,25.386,44.76,25.397z M44.91,25.022
		c0.011-0.064,0.054-0.129,0.075-0.161C44.964,24.915,44.943,24.968,44.91,25.022z M45.039,24.732l-0.032,0.011
		c-0.011,0.011-0.022,0.022-0.022,0.043c0-0.022,0.011-0.043,0.022-0.054l0.107-0.354C45.093,24.496,45.071,24.614,45.039,24.732z
		 M45.125,25.537c0.054-0.096,0.086-0.204,0.129-0.301c0.086-0.225,0.418-1.319,0.483-1.416
		C45.683,24.056,45.383,25.397,45.125,25.537z M45.737,23.799c0-0.022-0.011-0.043-0.011-0.065c0-0.032,0.022-0.043,0.054-0.043
		C45.758,23.723,45.747,23.756,45.737,23.799z M47.646,19.078l0.011,0.022l-0.011,0.011V19.078z M47.292,17.543
		c0-0.139,0.064-0.268,0.172-0.365c0.118,0.15,0.172,0.612,0.172,0.815c0,0.043-0.011,0.096-0.011,0.139
		C47.431,18.027,47.292,17.769,47.292,17.543z M47.625,19.185h0.011l-0.032,0.043L47.625,19.185z M47.571,19.357h0.011
		c0,0.011-0.011,0.032-0.022,0.043C47.571,19.389,47.571,19.368,47.571,19.357z M47.474,19.668l0.022-0.011
		c-0.022,0.107-0.065,0.204-0.118,0.311L47.474,19.668z M46.916,21.374h-0.011l0.011-0.011V21.374z M46.992,20.806l0.086-0.172
		C47.067,20.698,47.045,20.773,46.992,20.806z M47.313,20.719c0.225-0.504,0.408-1.009,0.569-1.534
		c0.011-0.022,0.011-0.043,0.032-0.054C47.871,19.475,47.539,20.473,47.313,20.719z M47.936,19.056h-0.011v-0.043h0.011V19.056z
		 M47.958,18.928h-0.011v-0.032h0.011V18.928z M48.654,22.082h-0.011v-0.032h0.011V22.082z M48.676,21.985h-0.011v-0.032h0.011
		V21.985z M48.719,21.835h-0.011c0-0.011,0-0.022,0.011-0.022V21.835z M48.741,21.75H48.73l0.011-0.011V21.75z M48.751,21.663
		l0.011-0.022c0.011,0.011,0.011,0.022,0.011,0.032L48.751,21.663z M48.794,21.599h-0.011v-0.032h0.011V21.599z M48.858,21.374
		c-0.011,0-0.011,0-0.011-0.011h0.011V21.374z M48.923,21.17v-0.011h0.011L48.923,21.17z M48.944,21.106v-0.022h0.011
		C48.955,21.095,48.955,21.106,48.944,21.106z M48.976,21.031h-0.011v-0.022h0.011V21.031z M49.094,20.708h-0.011v-0.021h0.011
		V20.708z M49.116,20.634h-0.011v-0.011h0.011V20.634z M49.137,20.558l-0.011-0.011h0.011V20.558z M48.912,19.947h0.022
		l-0.022,0.032V19.947z M48.73,19.786h0.011c0,0.011,0,0.032-0.011,0.043V19.786z M47.947,22.19l0.118-0.429l0.515-1.567
		c0.032-0.107,0.065-0.257,0.139-0.343c-0.161,0.58-0.365,1.137-0.547,1.706C48.107,21.771,48.043,21.996,47.947,22.19z
		 M48.172,22.393c0-0.022,0-0.032,0.011-0.054c0,0.022,0.011,0.032,0.011,0.054H48.172z M48.193,22.308
		c0.054-0.236,0.086-0.493,0.161-0.73l0.526-1.545L48.912,20c-0.075,0.451-0.279,0.88-0.418,1.309
		c-0.107,0.322-0.183,0.654-0.279,0.976L48.193,22.308z M48.88,20.44v0.011h-0.011L48.88,20.44z M48.719,20.902v0.011h-0.011
		L48.719,20.902z M48.579,21.331v0.011l-0.011-0.011H48.579z M48.558,21.395v0.011l-0.011-0.011H48.558z M48.536,21.471
		l-0.011,0.011v-0.011H48.536z M48.418,21.857v0.011h-0.011L48.418,21.857z M48.365,22.822c-0.011-0.064-0.011-0.129-0.011-0.193
		c0-0.225,0.043-0.44,0.107-0.654c0.225-0.73,0.462-1.47,0.719-2.189h0.022c-0.032,0.343-0.172,0.676-0.279,0.998
		c-0.183,0.526-0.375,1.051-0.483,1.588C48.408,22.522,48.397,22.672,48.365,22.822z M48.558,22.447
		c-0.011-0.011-0.011-0.011-0.011-0.022h0.011V22.447z M48.579,22.34h-0.011v-0.022h0.011V22.34z"/>
	<path class="st1" d="M51.712,18.456c-0.472,0-0.88,0.622-1.137,0.955l-0.193-0.086c-0.515,0-0.966,1.191-0.966,1.631v0.129
		c0,0.665,0.493,1.223,1.169,1.223c0.075,0,0.15-0.011,0.225-0.022c0.257-0.043,0.429-0.183,0.612-0.354
		c0.612-0.569,1.299-1.578,1.299-2.446C52.72,19.025,52.173,18.456,51.712,18.456z M51.551,19.035c0.011,0,0.011-0.011,0.022-0.011
		h0.011v0.011c-0.247,0.247-0.44,0.526-0.654,0.805C50.982,19.561,51.326,19.196,51.551,19.035z M50.993,19.421
		c0-0.043,0.139-0.183,0.183-0.225C51.122,19.271,51.047,19.335,50.993,19.421z M51.315,18.81h0.022
		c-0.096,0.086-0.451,0.44-0.482,0.526l-0.032,0.022C50.961,19.153,51.122,18.971,51.315,18.81z M50.446,19.711l-0.011,0.022
		c-0.011,0.075-0.225,0.408-0.279,0.482C50.221,20.033,50.306,19.851,50.446,19.711z M50.296,19.657
		c-0.011,0.054-0.054,0.118-0.096,0.15L50.296,19.657z M50.189,19.572l-0.172,0.193C50.06,19.69,50.103,19.614,50.189,19.572z
		 M50.092,20.387v-0.022h0.022C50.103,20.376,50.103,20.387,50.092,20.387z M50.189,21.803c-0.043-0.15-0.054-0.301-0.054-0.451
		c0-0.429,0.15-0.837,0.311-1.234c0.161,0.204,0.301,0.44,0.601,0.44c0.043,0,0.086-0.032,0.107-0.064
		c-0.086-0.065-0.15-0.15-0.15-0.257c0-0.344,0.741-1.234,1.094-1.234c0.022,0.043,0.032,0.096,0.032,0.139
		c0,0.075-0.022,0.139-0.032,0.214C51.926,20.312,51.165,21.535,50.189,21.803z M51.455,21.095c0-0.043,0.183-0.257,0.236-0.333
		C51.626,20.891,51.551,21.009,51.455,21.095z M51.616,21.149l0.247-0.333c-0.065,0.118-0.161,0.225-0.236,0.343h-0.011V21.149z
		 M52.044,21.052h-0.011l0.011-0.011V21.052z M51.433,21.632c0.011-0.043,0.043-0.075,0.065-0.107
		c0.268-0.343,0.526-0.687,0.73-1.073C52.238,20.784,51.647,21.384,51.433,21.632z"/>
	<path class="st1" d="M54.597,21.503c0,0.011-0.011,0.011-0.011,0.022h0.011V21.503z"/>
	<path class="st1" d="M54.555,21.621l0.032-0.096l-0.193-0.15c-0.054,0.022-0.107,0.043-0.15,0.075
		c-0.29,0.193-0.536,0.354-0.901,0.386c-0.011-0.043-0.022-0.075-0.022-0.118c0-0.772,0.15-1.706,0.815-2.199
		c0.075-0.054,0.15-0.065,0.236-0.065h0.075c-0.064,0.15-0.107,0.301-0.107,0.462c0,0.344,0.214,0.601,0.558,0.643
		c-0.022-0.107-0.075-0.203-0.075-0.311c0-0.183,0.086-0.344,0.086-0.526c0-0.075-0.022-0.139-0.054-0.204
		c-0.183-0.354-0.558-0.687-0.976-0.687c-0.815,0-1.362,1.48-1.362,2.167c0,0.612,0.429,1.266,1.094,1.266
		c0.29,0,0.88-0.29,1.04-0.536c0.032-0.043,0.043-0.096,0.075-0.139c-0.032-0.011-0.065-0.022-0.086-0.054L54.555,21.621z
		 M54.544,19.572v0.022h-0.011C54.533,19.583,54.533,19.583,54.544,19.572z M53.611,19.4c-0.054,0.064-0.118,0.118-0.183,0.183
		C53.428,19.518,53.546,19.4,53.611,19.4z M53.193,19.55c0.043-0.064,0.204-0.311,0.279-0.311
		C53.418,19.324,53.278,19.507,53.193,19.55z M53.782,19.453l0.096-0.032h0.011c-0.204,0.183-0.322,0.375-0.472,0.601
		c-0.043,0.065-0.075,0.086-0.096,0.161H53.31C53.374,20,53.6,19.529,53.782,19.453z"/>
	<path class="st1" d="M58.525,23.23c-0.751,0-1.641-1.127-1.931-1.749c0.397-0.483,0.805-0.966,1.212-1.448
		c0.183-0.214,0.482-0.558,0.482-0.858c0-0.204-0.29-0.451-0.482-0.451c-0.065,0-0.107,0.022-0.161,0.054
		c-0.719,0.397-1.18,0.848-1.62,1.534c0.15-0.912,0.408-1.813,0.622-2.714C56.797,16.976,57,16.364,57,15.721
		c0-0.322-0.139-0.719-0.429-0.88c-0.011-0.011-0.096-0.054-0.118-0.054c-0.043,0-0.075,0.011-0.118,0.011
		c0,0.15,0.032,0.29,0.032,0.44c0,0.408-0.301,1.33-0.418,1.759c-0.225,0.848-0.44,1.695-0.643,2.542
		c-0.193,0.826-0.418,1.674-0.418,2.532c0,0.408,0.065,0.772,0.429,1.02c0.054,0.032,0.107,0.054,0.161,0.064
		c0.096,0.022,0.193,0.011,0.29,0.022c0-0.075,0.011-0.15,0.011-0.225c0-0.236-0.043-0.462-0.043-0.697V22.05
		c0.054,0.011,0.065,0.032,0.096,0.075c0.547,0.848,1.609,1.545,2.639,1.545c0.343,0,0.891-0.118,1.084-0.429
		c-0.161-0.022-0.322-0.065-0.482-0.065C58.889,23.176,58.706,23.23,58.525,23.23z M58.127,19.271h0.011
		c0,0.011,0,0.022-0.011,0.032V19.271z M56.25,20.119c0.333-0.429,0.665-0.891,1.169-1.137c-0.29,0.236-0.601,0.451-0.837,0.741
		c-0.022,0.032-0.043,0.054-0.075,0.075c-0.043,0.075-0.107,0.139-0.161,0.214c-0.139,0.183-0.247,0.386-0.365,0.58l-0.022,0.011
		C56.025,20.419,56.132,20.269,56.25,20.119z M57.215,19.346l-0.054,0.022l0.043-0.032L57.215,19.346z M56.733,19.754
		c-0.011,0.011-0.032,0.011-0.043,0.011l-0.022,0.032v-0.054c0.011,0,0.022,0,0.032,0.011H56.733z M56.647,19.851
		c-0.011,0.011-0.022,0.011-0.032,0.011l-0.022,0.065c-0.011,0-0.022,0-0.032,0.011l-0.022,0.054
		c-0.011,0.011-0.032,0.011-0.043,0.011c0,0.022,0,0.032-0.011,0.054v-0.075h0.022c0.011,0.011,0.022,0.011,0.032,0.011v-0.075
		l0.011-0.011l0.011,0.011c0.011,0,0.022,0,0.032,0.011V19.84h0.022C56.625,19.851,56.636,19.851,56.647,19.851z M56.485,20.065
		c-0.011,0-0.032,0-0.043,0.011c0,0.011-0.011,0.032-0.022,0.043v-0.064h0.032C56.465,20.054,56.475,20.054,56.485,20.065z
		 M56.411,20.13c-0.022,0.022-0.022,0.043-0.054,0.054c0,0.022-0.011,0.043-0.022,0.054l-0.022,0.032v-0.032h0.022v-0.043
		c0.011-0.011,0.011-0.022,0.011-0.032l0.022-0.043H56.4L56.411,20.13z M56.304,20.29c0,0.011-0.011,0.032-0.022,0.043l-0.022,0.032
		v-0.032h0.022c0-0.011,0-0.032,0.011-0.043H56.304z M56.25,20.387c0,0.011-0.011,0.032-0.022,0.043l-0.032,0.032v-0.043
		c0.011,0.011,0.022,0.011,0.032,0.011v-0.054L56.25,20.387z M56.121,20.548c0-0.022,0.032-0.032,0.043-0.032
		c0-0.022,0-0.032,0.011-0.054l0.011,0.011c0,0.011-0.011,0.032-0.022,0.043l-0.032,0.065
		C56.132,20.569,56.121,20.548,56.121,20.548z M56.132,20.591l-0.022,0.032v-0.032H56.132z M56.099,20.634l-0.022,0.032v-0.032
		H56.099z M56.046,20.752l-0.022,0.022l-0.011-0.022H56.046z M55.885,21.192h-0.011l0.011-0.011V21.192z M56.647,19.915
		l-0.011,0.022c-0.139,0.193-0.268,0.365-0.386,0.58c-0.107,0.214-0.193,0.451-0.365,0.622
		C56.056,20.816,56.346,20.183,56.647,19.915z M56.11,20.859v0.011l-0.011-0.011H56.11z M55.981,21.127l-0.011-0.011h0.011V21.127z
		 M56.143,21.159l-0.065,0.065l-0.054-0.065c0.397-0.891,0.955-1.652,1.824-2.135l0.032,0.022c-0.268,0.386-0.58,0.751-0.88,1.105
		L56.143,21.159z M57.762,19.421c-0.032,0.075-0.118,0.118-0.139,0.193c-0.075,0.075-0.118,0.15-0.193,0.225
		C57.527,19.69,57.634,19.55,57.762,19.421z M57.355,19.936l-0.054,0.054l0.043-0.054H57.355z M57.161,20.161v0.011l-0.043,0.043
		l0.032-0.054H57.161z M56.443,21.213v-0.011l0.011,0.011H56.443z M56.529,21.277l1.341-1.609c0.064-0.086,0.139-0.183,0.193-0.279
		c-0.032,0.075-0.064,0.172-0.107,0.225l-1.223,1.48c-0.075,0.086-0.161,0.172-0.247,0.247L56.529,21.277z"/>
	<path class="st1" d="M59.522,18.692l-0.086,0.022l0.214,0.397c-0.096-0.022-0.193-0.043-0.29-0.043
		c-0.408,0-0.741,0.183-0.976,0.515C58.084,20,57.87,20.515,57.87,21.03c0,0.633,0.386,1.084,1.04,1.084
		c0.301,0,0.59-0.204,0.612-0.515l-0.043,0.054c0,0.043-0.011,0.075-0.043,0.107v-0.043l-0.022,0.043h-0.011l-0.011,0.043h-0.011
		l0.011,0.022H59.36v0.011l-0.022-0.011l0.011-0.032l-0.075-0.011c0.011-0.065,0.075-0.107,0.075-0.183
		c0-0.011-0.011-0.032-0.022-0.054c-0.065,0.096-0.086,0.204-0.204,0.257c0.032-0.086,0.118-0.161,0.118-0.257v-0.032l-0.011,0.011
		c-0.075,0.193-0.247,0.343-0.472,0.343c-0.15,0-0.183-0.408-0.183-0.515c0-0.086-0.011-0.268,0.032-0.354
		c0.708,0,1.631-0.558,1.631-1.341C60.241,19.185,59.951,18.831,59.522,18.692z M58.91,19.722l0.011-0.011v0.011l-0.043,0.022
		C58.889,19.732,58.889,19.722,58.91,19.722z M58.631,19.829c0,0.011-0.011,0.032-0.022,0.043h-0.011
		C58.61,19.872,58.62,19.84,58.631,19.829z M58.266,20.172h-0.011c0-0.011,0-0.011,0.011-0.011V20.172z M58.31,20.065l-0.022-0.011
		L58.32,20L58.31,20.065z M58.331,19.99H58.32l0.011-0.011V19.99z M58.471,20.548H58.46c0-0.022,0-0.043,0.011-0.054V20.548z
		 M58.491,19.743l-0.043,0.032l-0.022,0.043c-0.011,0.043-0.022,0.086-0.075,0.107c0.022-0.043,0.054-0.075,0.075-0.107v-0.011
		l0.022-0.032l0.054-0.086C58.502,19.711,58.491,19.722,58.491,19.743z M58.513,20.429c0-0.225,0.204-0.526,0.354-0.676
		C58.77,19.99,58.589,20.194,58.513,20.429z M58.717,20.569c0.086-0.472,0.472-0.998,0.955-1.105v0.043
		C59.672,19.893,59.103,20.527,58.717,20.569z M59.597,20.108l-0.032,0.011l0.032-0.022V20.108z M59.661,19.99v-0.011l0.022-0.043
		C59.683,19.958,59.672,19.969,59.661,19.99z M59.714,19.872V19.85h0.022C59.736,19.862,59.725,19.872,59.714,19.872z
		 M59.801,20.022l-0.011,0.032h-0.011L59.801,20.022z M59.822,20.258c0-0.065,0.172-0.311,0.214-0.386
		C59.993,20.011,59.929,20.151,59.822,20.258z"/>
	<path class="st1" d="M62.617,21.374c-0.118-0.035-0.23-0.066-0.338-0.091c-0.107-0.025-0.172-0.034-0.193-0.027
		c-0.036,0.1-0.065,0.184-0.086,0.252c-0.022,0.068-0.039,0.12-0.054,0.156c-0.036,0.107-0.02,0.206,0.049,0.295
		c0.068,0.089,0.159,0.152,0.274,0.188c0.114,0.035,0.236,0.038,0.365,0.005s0.232-0.113,0.311-0.241
		c0.022-0.029,0.046-0.073,0.075-0.134c0.029-0.061,0.061-0.134,0.096-0.22c-0.015-0.014-0.072-0.039-0.172-0.075
		C62.843,21.445,62.735,21.41,62.617,21.374z M62.359,22.109c-0.054-0.018-0.102-0.043-0.145-0.075
		c-0.043-0.032-0.073-0.069-0.091-0.113c-0.018-0.043-0.02-0.089-0.005-0.139c0.007,0.079,0.052,0.152,0.134,0.22
		c0.082,0.068,0.173,0.113,0.274,0.134C62.468,22.136,62.412,22.126,62.359,22.109z"/>
	<path class="st1" d="M65.492,15.559c-0.046-0.072-0.109-0.13-0.188-0.177c-0.079-0.046-0.161-0.082-0.247-0.107
		s-0.146-0.038-0.183-0.038c0.014,0.015,0.016,0.043,0.005,0.086c-0.011,0.042-0.023,0.082-0.038,0.118
		c-0.015-0.086-0.052-0.146-0.113-0.183c-0.061-0.035-0.113-0.054-0.156-0.054c0.014,0.043,0.016,0.107,0.005,0.193
		c-0.011,0.086-0.055,0.157-0.134,0.214c0.029-0.057,0.03-0.13,0.005-0.22c-0.025-0.089-0.052-0.152-0.08-0.188
		c-0.022,0.05-0.077,0.188-0.166,0.413c-0.089,0.225-0.197,0.502-0.322,0.832c-0.106,0.28-0.224,0.591-0.348,0.923
		c-0.057-0.013-0.118-0.036-0.118-0.108c-0.139-0.183-0.193-0.225-0.418-0.225c-0.193,0-0.375,0-0.558,0.043
		c-0.075,0.022-0.161,0.011-0.236,0.022c0,0,0.386-1.105,0.386-1.148c0-0.096-0.107-0.15-0.172-0.204l-0.086,0.022v-0.107
		l-0.118-0.043l-0.086,0.075l0.054-0.15l-0.086,0.011l-0.043-0.065c-0.054,0.065-0.096,0.129-0.161,0.193l0.075-0.172l-0.129-0.064
		c-0.096,0-0.139,0.064-0.183,0.139c-0.15,0.257-0.322,0.526-0.44,0.805c-0.15,0.365-0.365,0.687-0.601,0.998
		c-0.236,0.054-0.482,0.075-0.719,0.139c-0.107,0.032-0.129,0.064-0.15,0.172l0.096,0.054l-0.011,0.064
		c0.075,0.096,0.214,0.204,0.322,0.236l-0.011,0.011c0.107,0,0.225-0.011,0.333-0.011c0.032,0,0.129,0,0.129,0.054
		c0,0.075-0.032,0.139-0.043,0.214c-0.043,0.301-0.118,0.601-0.172,0.901c-0.054,0.257-0.075,0.526-0.118,0.783
		c-0.172,1.116-0.322,2.264-0.322,3.39c0,0.375,0,1.105,0.397,1.309c0.129,0.065,0.268,0.096,0.397,0.161l0.065-0.096
		c0.011,0.022,0.022,0.054,0.054,0.054c0.075,0,0.214-0.032,0.214-0.129c0-0.032,0-0.054-0.011-0.086
		c-0.064-0.268-0.107-0.558-0.107-0.837c0-0.697,0.086-1.406,0.193-2.092c0.214-1.299,0.44-2.596,0.826-3.852
		c0.365-0.061,1.233-0.143,1.535-0.407c-0.015,0.04-0.029,0.076-0.044,0.117c-0.15,0.401-0.301,0.801-0.451,1.201
		s-0.294,0.787-0.429,1.158c-0.136,0.372-0.254,0.69-0.354,0.955c0,0.015,0.049,0.042,0.145,0.08
		c0.096,0.039,0.206,0.077,0.328,0.113c0.122,0.036,0.24,0.068,0.354,0.096c0.114,0.029,0.186,0.043,0.214,0.043
		c0.092-0.214,0.207-0.481,0.343-0.799c0.136-0.318,0.277-0.66,0.424-1.024c0.146-0.365,0.297-0.737,0.451-1.116
		c0.153-0.379,0.297-0.731,0.429-1.057c0.133-0.325,0.248-0.613,0.348-0.864c0.1-0.25,0.175-0.425,0.225-0.526
		C65.54,15.713,65.538,15.631,65.492,15.559z M60.251,22.425H60.24v-0.139h0.011V22.425z M61.592,16.922
		c-0.022,0.107-0.032,0.225-0.118,0.311C61.495,17.125,61.506,17.007,61.592,16.922z M61.345,18.123h0.011
		c0,0.011,0,0.011-0.011,0.022V18.123z M61.314,18.219l0.022,0.011l-0.022,0.054V18.219z M60.798,17.34
		c0-0.022,0.022-0.043,0.043-0.043l-0.043,0.064V17.34z M60.294,21.964h-0.011v-0.129h0.011V21.964z M60.326,21.653h-0.022
		l0.107-0.891l0.032,0.011C60.401,21.063,60.358,21.364,60.326,21.653z M60.455,20.623c0-0.343,0.354-2.382,0.504-2.618
		c-0.225,0.88-0.354,1.781-0.504,2.672V20.623z M60.477,22.737h-0.011V22.63h0.011V22.737z M60.487,22.469h-0.011v-0.022h0.011
		V22.469z M60.508,22.243h-0.011l0.011-0.204h0.011L60.508,22.243z M60.551,21.931H60.53c0-0.054,0.011-0.096,0.011-0.15h0.011
		V21.931z M60.573,21.599c0-0.44,0.493-3.412,0.687-3.658c-0.129,0.622-0.268,1.234-0.386,1.856
		c-0.118,0.612-0.204,1.234-0.301,1.856V21.599z M61.292,18.413l-0.022,0.043l-0.011-0.011L61.292,18.413z M61.249,18.541v0.032
		h-0.022L61.249,18.541z M61.195,18.777v0.032h-0.011v-0.032H61.195z M61.163,18.917v0.022h-0.011L61.163,18.917z M61.142,19.025
		l-0.011,0.054H61.12c0.011-0.022,0.011-0.032,0.011-0.054H61.142z M61.109,19.164v0.032h-0.011v-0.032H61.109z M60.863,22.855
		h-0.011v-0.032h0.011V22.855z M60.895,22.533h-0.011c0-0.022,0-0.043,0.011-0.054V22.533z M60.937,22.179h-0.011v-0.032h0.011
		V22.179z M60.658,23.906c-0.022-0.161-0.022-0.333-0.022-0.493c0-0.933,0.15-1.877,0.29-2.801c0.15-0.901,0.311-1.824,0.58-2.703
		l0.096-0.011C61.088,19.862,60.745,21.878,60.658,23.906z M60.97,21.931h-0.011v-0.043h0.011V21.931z M60.991,21.706v-0.043h0.011
		L60.991,21.706z M61.024,21.503c-0.011-0.011-0.011-0.032-0.011-0.043h0.011c0,0.011,0,0.032,0.011,0.043H61.024z M61.055,21.32
		h-0.011v-0.075h0.011V21.32z M61.088,21.106h-0.011v-0.043h0.011V21.106z M61.12,20.934h-0.011v-0.086h0.011V20.934z
		 M61.152,20.752h-0.022v-0.064h0.022V20.752z M61.163,20.58v-0.054h0.011c0.011,0.022,0.011,0.032,0.011,0.054H61.163z
		 M61.206,20.398h-0.011v-0.043h0.011V20.398z M61.238,20.269h-0.022l0.011-0.075h0.011V20.269z M61.249,20.108v-0.064h0.011
		c0.011,0.022,0.011,0.043,0.011,0.064H61.249z M61.292,19.969h-0.011v-0.086h0.011V19.969z M61.324,19.818
		c-0.011,0-0.011,0-0.022-0.011l0.011-0.064h0.011V19.818z M61.345,19.679h-0.011v-0.075h0.011V19.679z M61.378,19.529h-0.011
		v-0.065h0.011V19.529z M61.41,19.4l-0.022-0.011l0.022-0.054V19.4z M61.421,19.304c0-0.022-0.011-0.032-0.011-0.054
		c0-0.022,0.022-0.043,0.043-0.043L61.421,19.304z M61.453,19.196c0-0.022-0.011-0.032-0.011-0.054c0-0.032,0.022-0.043,0.043-0.054
		L61.453,19.196z M61.485,19.078c-0.011-0.032-0.011-0.065-0.011-0.096h0.022C61.495,19.014,61.485,19.045,61.485,19.078z
		 M61.517,18.917h-0.022c0-0.022,0.011-0.032,0.022-0.054V18.917z M61.528,18.82l-0.011,0.011c0-0.011,0-0.022,0.011-0.032V18.82z
		 M61.646,18.413v0.011h-0.011c-0.011,0.054-0.032,0.118-0.054,0.172v0.011l-0.021,0.086c0-0.032,0.011-0.054,0.011-0.086
		l0.011-0.011c0-0.064,0-0.129,0.054-0.172L61.646,18.413c-0.011-0.022-0.011-0.043-0.011-0.065c0-0.043,0.022-0.086,0.054-0.118
		C61.667,18.295,61.656,18.349,61.646,18.413z M61.721,18.112l-0.032,0.076c0.011-0.043,0.011-0.075,0.032-0.118V18.112z
		 M61.871,15.72v0.022l-0.054,0.096C61.828,15.795,61.85,15.762,61.871,15.72z M61.807,16.331h0.032l-0.032,0.022V16.331z
		 M61.774,17.92c0,0.032-0.011,0.065-0.043,0.075l0.043-0.118V17.92z M61.861,17.104c-0.011,0.043-0.032,0.086-0.086,0.086h-0.022
		c0-0.086,0.247-0.697,0.301-0.794c0.032-0.043,0.075-0.086,0.107-0.139C62.053,16.546,61.968,16.825,61.861,17.104z M63.244,19.277
		c0.05-0.139,0.113-0.311,0.188-0.515c0.075-0.203,0.156-0.422,0.241-0.654c0.086-0.232,0.168-0.451,0.247-0.654
		c0.079-0.203,0.146-0.377,0.203-0.52c0.057-0.143,0.093-0.225,0.107-0.247c-0.007,0.036-0.036,0.125-0.086,0.268
		c-0.05,0.143-0.111,0.313-0.183,0.509c-0.072,0.197-0.149,0.409-0.23,0.638c-0.082,0.229-0.163,0.442-0.241,0.638
		c-0.079,0.197-0.146,0.367-0.204,0.509c-0.057,0.143-0.096,0.233-0.118,0.268C63.169,19.496,63.194,19.416,63.244,19.277z
		 M63.03,20.242c0.029-0.075,0.061-0.149,0.096-0.22c0,0.043-0.012,0.1-0.038,0.172c-0.025,0.072-0.055,0.143-0.091,0.214
		C62.99,20.372,63.001,20.317,63.03,20.242z M63.518,19.304c-0.089,0.236-0.172,0.456-0.247,0.66
		c-0.075,0.204-0.145,0.381-0.209,0.531c-0.064,0.15-0.115,0.254-0.15,0.311c0.022-0.043,0.065-0.149,0.129-0.317
		c0.065-0.168,0.138-0.366,0.22-0.596c0.082-0.229,0.172-0.474,0.268-0.735c0.096-0.261,0.186-0.502,0.268-0.724
		c0.082-0.222,0.153-0.412,0.214-0.569c0.061-0.157,0.098-0.247,0.113-0.268c-0.036,0.1-0.086,0.241-0.15,0.424
		c-0.064,0.183-0.134,0.383-0.209,0.601C63.689,18.84,63.607,19.068,63.518,19.304z M64.499,17.335
		c-0.036,0.104-0.077,0.222-0.123,0.354c-0.046,0.133-0.099,0.274-0.156,0.424c-0.057,0.15-0.111,0.291-0.161,0.424
		s-0.096,0.247-0.139,0.343s-0.072,0.16-0.086,0.188c0.007-0.065,0.046-0.191,0.118-0.381c0.072-0.19,0.149-0.391,0.23-0.606
		c0.082-0.214,0.161-0.415,0.236-0.601c0.075-0.186,0.123-0.304,0.145-0.354C64.556,17.161,64.535,17.231,64.499,17.335z"/>
</g>
</svg>
