<?xml version="1.0" encoding="utf-8"?>
<!-- Generator: Adobe Illustrator 22.1.0, SVG Export Plug-In . SVG Version: 6.00 Build 0)  -->
<svg version="1.1" id="Layer_1" xmlns="http://www.w3.org/2000/svg" xmlns:xlink="http://www.w3.org/1999/xlink" x="0px" y="0px"
	 viewBox="0 0 48 24" style="enable-background:new 0 0 48 24;" xml:space="preserve">
<style type="text/css">
	.st0{fill:#8C9096;}
	.st1{opacity:0.6;}
	.st2{fill:#758492;enable-background:new    ;}
	.st3{fill:url(#SVGID_1_);}
	.st4{fill:url(#SVGID_2_);}
	.st5{fill:url(#SVGID_3_);}
	.st6{fill:#E1E2E3;}
	.st7{fill:#00B1E1;}
	.st8{opacity:0.51;}
	.st9{fill:#217CC0;}
	.st10{opacity:0.33;fill:#FFFFFF;enable-background:new    ;}
	.st11{fill:#FFFFFF;}
	.st12{fill:#636871;}
</style>
<rect x="24.799" y="1.461" class="st0" width="0.237" height="21.713"/>
<g>
	<g>
		<g>
			<g class="st1">
				<path class="st2" d="M20.19,6.757v2.325c-0.421-0.225-0.899-0.353-1.409-0.353c-1.662,0-3.008,1.359-3.008,3.035
					c0,1.677,1.347,3.035,3.008,3.035c0.51,0,0.989-0.128,1.409-0.353V14.8h1.599V6.757H20.19z M18.814,13.191
					c-0.76,0-1.376-0.622-1.376-1.389c0.001-0.767,0.617-1.389,1.376-1.389c0.76,0,1.376,0.622,1.376,1.389
					C20.19,12.569,19.574,13.191,18.814,13.191z"/>
				<path class="st2" d="M12.549,8.808c-0.523,0-1.015,0.132-1.446,0.362V8.808H9.463v8.25h1.641v-2.385
					c0.432,0.231,0.923,0.362,1.446,0.362c1.705,0,3.086-1.394,3.086-3.114C15.636,10.202,14.254,8.808,12.549,8.808z
					 M12.516,13.307c-0.779,0-1.411-0.638-1.411-1.424c0-0.786,0.633-1.424,1.411-1.424c0.779,0,1.411,0.638,1.411,1.424
					C13.927,12.669,13.295,13.307,12.516,13.307z"/>
				<path class="st2" d="M8.932,10.204c-0.015-0.036-0.032-0.07-0.047-0.105C8.85,10.02,8.814,9.943,8.774,9.866
					C8.752,9.824,8.729,9.782,8.706,9.739C8.667,9.67,8.625,9.6,8.583,9.533c-0.024-0.037-0.046-0.074-0.07-0.11
					C8.447,9.326,8.379,9.232,8.305,9.14c-0.02-0.025-0.041-0.048-0.062-0.071C8.185,9,8.125,8.932,8.062,8.866
					C8.031,8.834,8,8.803,7.968,8.772c-0.059-0.058-0.12-0.114-0.182-0.168C7.755,8.577,7.725,8.55,7.694,8.524
					C7.603,8.448,7.508,8.375,7.41,8.308C7.393,8.296,7.374,8.286,7.357,8.274c-0.084-0.056-0.17-0.11-0.258-0.159
					c-0.035-0.02-0.071-0.039-0.107-0.058C6.915,8.016,6.837,7.978,6.756,7.941C6.721,7.926,6.688,7.909,6.652,7.895
					C6.539,7.848,6.424,7.804,6.307,7.767c-0.01-0.003-0.02-0.005-0.03-0.008C6.168,7.725,6.056,7.697,5.944,7.671
					C5.906,7.663,5.868,7.656,5.831,7.649C5.74,7.632,5.648,7.617,5.555,7.606c-0.038-0.004-0.076-0.01-0.114-0.013
					c-0.128-0.012-0.256-0.02-0.387-0.02c-0.132,0-0.263,0.008-0.391,0.02c-0.041,0.004-0.08,0.01-0.119,0.015
					c-0.09,0.011-0.18,0.024-0.268,0.041C4.233,7.657,4.191,7.665,4.149,7.674c-0.091,0.021-0.18,0.044-0.268,0.07
					c-0.034,0.01-0.068,0.018-0.101,0.03C3.661,7.813,3.544,7.856,3.431,7.904c-0.022,0.01-0.044,0.021-0.065,0.03
					C3.273,7.976,3.184,8.02,3.096,8.067C3.058,8.087,3.021,8.11,2.984,8.131c-0.072,0.041-0.142,0.084-0.211,0.13
					C2.735,8.285,2.698,8.31,2.662,8.336C2.589,8.388,2.518,8.442,2.449,8.497C2.422,8.519,2.394,8.54,2.367,8.563
					C2.277,8.639,2.189,8.721,2.105,8.805c-0.03,0.029-0.056,0.06-0.085,0.091c-0.056,0.059-0.11,0.12-0.162,0.181
					C1.825,9.116,1.794,9.156,1.763,9.196c-0.046,0.058-0.089,0.119-0.132,0.18C1.601,9.418,1.572,9.459,1.544,9.502
					C1.498,9.575,1.454,9.65,1.411,9.725C1.388,9.766,1.364,9.807,1.342,9.849c-0.049,0.095-0.096,0.193-0.138,0.293
					c-0.02,0.047-0.038,0.096-0.056,0.144c-0.017,0.044-0.036,0.088-0.052,0.133c0.001,0.001,0.002,0.001,0.003,0.002
					c-0.155,0.446-0.244,0.924-0.244,1.424c0,2.359,1.88,4.272,4.199,4.272c2.319,0,4.199-1.912,4.199-4.272
					c0.001-0.577-0.113-1.128-0.317-1.631C8.935,10.211,8.933,10.207,8.932,10.204z"/>
			</g>
			<linearGradient id="SVGID_1_" gradientUnits="userSpaceOnUse" x1="4.9964" y1="7.03" x2="4.9964" y2="15.9241">
				<stop  offset="0" style="stop-color:#FFFFFF"/>
				<stop  offset="0.3664" style="stop-color:#CCCBCB"/>
				<stop  offset="0.9323" style="stop-color:#A9A9AB"/>
			</linearGradient>
			<path class="st3" d="M4.045,9.076c0.32,0,3.49,1.832,3.49,2.412c0,0.579-3.085,2.412-3.49,2.412
				C3.64,13.901,3.726,9.076,4.045,9.076z M4.997,7.03c2.414,0,4.371,1.992,4.371,4.447c0,2.456-1.957,4.447-4.371,4.447
				s-4.372-1.992-4.372-4.448S2.582,7.03,4.997,7.03z"/>
			
				<linearGradient id="SVGID_2_" gradientUnits="userSpaceOnUse" x1="18.8016" y1="84.2158" x2="18.8016" y2="99.645" gradientTransform="matrix(1 0 0 1 0 -77.8)">
				<stop  offset="0" style="stop-color:#D6D7D8"/>
				<stop  offset="0.2742" style="stop-color:#BEC0C0"/>
				<stop  offset="0.589" style="stop-color:#AAABAC"/>
				<stop  offset="0.7973" style="stop-color:#A2A4A4"/>
				<stop  offset="0.9896" style="stop-color:#A2A4A4"/>
			</linearGradient>
			<path class="st4" d="M18.835,10.163c0.779,0,1.41,0.637,1.41,1.424c0,0.787-0.631,1.424-1.41,1.424
				c-0.779,0-1.41-0.637-1.41-1.424C17.426,10.8,18.057,10.163,18.835,10.163z M20.246,6.416v2.383
				c-0.431-0.23-0.922-0.362-1.444-0.362c-1.703,0-3.083,1.393-3.083,3.111s1.38,3.111,3.083,3.111c0.522,0,1.013-0.131,1.444-0.362
				v0.362h1.639V6.416H20.246z"/>
			<linearGradient id="SVGID_3_" gradientUnits="userSpaceOnUse" x1="12.5635" y1="8.6618" x2="12.5635" y2="16.9049">
				<stop  offset="0" style="stop-color:#D6D7D8"/>
				<stop  offset="0.2992" style="stop-color:#BEC0C0"/>
				<stop  offset="0.6428" style="stop-color:#AAABAC"/>
				<stop  offset="0.8701" style="stop-color:#A2A4A4"/>
				<stop  offset="0.9896" style="stop-color:#A2A4A4"/>
			</linearGradient>
			<path class="st5" d="M12.529,10.31c0.779,0,1.41,0.637,1.41,1.423c0,0.786-0.631,1.423-1.41,1.423
				c-0.779,0-1.41-0.637-1.41-1.423S11.751,10.31,12.529,10.31z M12.564,8.662c-0.522,0-1.014,0.131-1.444,0.362V8.662H9.48v8.243
				h1.639v-2.383c0.431,0.23,0.922,0.362,1.444,0.362c1.703,0,3.083-1.393,3.083-3.111S14.267,8.662,12.564,8.662z"/>
			<path class="st6" d="M4.997,7.03c-1.903,0-3.52,1.237-4.121,2.962c0.755,0.545,1.765,0.932,2.905,1.082
				c0.028-1.053,0.124-1.998,0.264-1.998c0.236,0,2.032,1.003,2.951,1.759c0.805-0.238,1.505-0.602,2.041-1.055
				C8.382,8.166,6.82,7.03,4.997,7.03z"/>
			<path class="st7" d="M4.045,9.076c0.32,0,3.49,1.832,3.49,2.412c0,0.579-3.085,2.412-3.49,2.412
				C3.64,13.901,3.726,9.076,4.045,9.076z"/>
			<g class="st8">
				<path class="st9" d="M4.045,9.076c-0.04,0-0.077,0.078-0.11,0.215c0.406,0.059,3.47,1.839,3.47,2.409
					c0,0.022-0.006,0.046-0.014,0.071c0.092-0.111,0.145-0.208,0.145-0.283C7.535,10.908,4.364,9.076,4.045,9.076z"/>
			</g>
			<path class="st10" d="M3.781,11.074c0.337,0.044,0.684,0.067,1.04,0.067c0.775,0,1.511-0.11,2.175-0.306
				C6.077,10.08,4.282,9.078,4.045,9.078C3.905,9.076,3.809,10.022,3.781,11.074z"/>
			<path class="st11" d="M7.398,11.762c-0.002,0.003-0.005,0.005-0.007,0.008c0,0.001,0,0.001,0,0.002
				C7.394,11.768,7.396,11.765,7.398,11.762z"/>
			<path class="st11" d="M7.398,11.657c-0.618,0.756-3.058,2.178-3.419,2.178c-0.004,0-0.008-0.001-0.012-0.002
				C3.991,13.876,4.017,13.9,4.045,13.9c0.353,0,2.735-1.388,3.347-2.13c0.008-0.025,0.013-0.048,0.013-0.07
				C7.405,11.687,7.402,11.672,7.398,11.657z"/>
			<g>
				<path class="st12" d="M22.313,7.049c0-0.118,0.027-0.228,0.082-0.33s0.131-0.181,0.228-0.24
					c0.097-0.058,0.202-0.088,0.315-0.088c0.113,0,0.217,0.029,0.315,0.088c0.097,0.058,0.173,0.138,0.228,0.24
					s0.082,0.211,0.082,0.33c0,0.117-0.027,0.226-0.08,0.326s-0.129,0.182-0.226,0.242c-0.097,0.061-0.203,0.091-0.319,0.091
					s-0.222-0.03-0.319-0.091c-0.097-0.061-0.172-0.141-0.226-0.242C22.34,7.274,22.313,7.166,22.313,7.049z M22.388,7.049
					c0,0.105,0.024,0.203,0.073,0.293c0.049,0.09,0.116,0.162,0.201,0.214c0.085,0.052,0.177,0.078,0.275,0.078
					s0.19-0.026,0.275-0.078c0.086-0.052,0.153-0.123,0.201-0.214c0.048-0.091,0.073-0.188,0.073-0.293
					c0-0.103-0.024-0.2-0.071-0.289c-0.048-0.089-0.114-0.16-0.199-0.213c-0.085-0.053-0.178-0.079-0.278-0.079
					c-0.099,0-0.19,0.026-0.276,0.078c-0.085,0.052-0.152,0.123-0.201,0.212C22.412,6.847,22.388,6.944,22.388,7.049z M22.795,7.104
					v0.304h-0.086V6.67h0.227c0.086,0,0.152,0.018,0.199,0.054c0.046,0.036,0.07,0.091,0.07,0.164c0,0.078-0.041,0.136-0.124,0.173
					c0.042,0.015,0.072,0.039,0.088,0.071c0.016,0.032,0.025,0.07,0.025,0.115c0,0.045,0.001,0.077,0.004,0.097
					c0.002,0.02,0.006,0.037,0.011,0.05v0.014h-0.09c-0.008-0.021-0.012-0.075-0.012-0.161c0-0.052-0.011-0.089-0.033-0.111
					c-0.022-0.022-0.059-0.033-0.112-0.033H22.795z M22.795,7.024h0.159c0.048,0,0.087-0.012,0.117-0.037s0.046-0.057,0.046-0.098
					c0-0.05-0.013-0.085-0.038-0.107c-0.026-0.021-0.069-0.033-0.132-0.034h-0.153V7.024z"/>
			</g>
		</g>
	</g>
</g>
<g>
	<path class="st0" d="M27.366,14.634V7.273h2.577c0.895,0,1.572,0.171,2.033,0.513S32.67,8.63,32.67,9.29
		c0,0.361-0.094,0.679-0.279,0.953c-0.186,0.275-0.443,0.476-0.773,0.604c0.379,0.094,0.676,0.285,0.893,0.571
		c0.217,0.286,0.326,0.637,0.326,1.051c0,0.708-0.225,1.244-0.678,1.608c-0.451,0.363-1.096,0.549-1.932,0.556H27.366z
		 M28.883,10.357h1.123c0.764-0.013,1.146-0.318,1.146-0.915c0-0.333-0.096-0.574-0.291-0.72c-0.193-0.147-0.5-0.22-0.918-0.22
		h-1.061V10.357z M28.883,11.429v1.986h1.299c0.357,0,0.637-0.085,0.838-0.255c0.199-0.17,0.301-0.405,0.301-0.705
		c0-0.674-0.35-1.016-1.047-1.026H28.883z"/>
	<path class="st0" d="M35.161,14.634h-1.467V6.869h1.467V14.634z"/>
	<path class="st0" d="M35.878,11.849c0-0.543,0.104-1.026,0.313-1.451s0.51-0.753,0.902-0.986s0.849-0.349,1.367-0.349
		c0.738,0,1.341,0.226,1.808,0.678s0.728,1.065,0.781,1.84l0.01,0.374c0,0.839-0.234,1.512-0.702,2.019
		c-0.469,0.508-1.098,0.762-1.886,0.762c-0.789,0-1.419-0.253-1.889-0.759c-0.471-0.506-0.705-1.193-0.705-2.062V11.849z
		 M37.339,11.952c0,0.52,0.098,0.917,0.293,1.191c0.195,0.275,0.476,0.414,0.84,0.414c0.354,0,0.63-0.137,0.829-0.408
		c0.198-0.271,0.298-0.706,0.298-1.304c0-0.509-0.1-0.904-0.298-1.185c-0.199-0.28-0.479-0.42-0.84-0.42
		c-0.357,0-0.634,0.139-0.829,0.418C37.437,10.937,37.339,11.368,37.339,11.952z"/>
	<path class="st0" d="M41.488,11.858c0-0.839,0.2-1.515,0.6-2.027c0.399-0.512,0.938-0.769,1.615-0.769c0.6,0,1.066,0.206,1.4,0.617
		l0.061-0.516h1.324v5.288c0,0.479-0.108,0.895-0.325,1.248c-0.218,0.354-0.523,0.624-0.918,0.81s-0.856,0.277-1.386,0.277
		c-0.4,0-0.792-0.08-1.173-0.239c-0.381-0.16-0.669-0.367-0.864-0.62l0.647-0.89c0.363,0.408,0.805,0.612,1.324,0.612
		c0.388,0,0.689-0.104,0.905-0.312s0.323-0.501,0.323-0.882v-0.293c-0.337,0.381-0.78,0.571-1.33,0.571
		c-0.657,0-1.188-0.258-1.595-0.771s-0.609-1.195-0.609-2.044V11.858z M42.949,11.962c0,0.498,0.1,0.889,0.299,1.17
		c0.199,0.282,0.472,0.425,0.819,0.425c0.444,0,0.763-0.168,0.955-0.504v-2.31c-0.195-0.335-0.511-0.503-0.945-0.503
		c-0.351,0-0.626,0.144-0.827,0.432C43.05,10.96,42.949,11.39,42.949,11.962z"/>
</g>
</svg>
