<?xml version="1.0" encoding="utf-8"?>
<!-- Generator: Adobe Illustrator 21.1.0, SVG Export Plug-In . SVG Version: 6.00 Build 0)  -->
<svg version="1.1" id="Layer_1" xmlns="http://www.w3.org/2000/svg" xmlns:xlink="http://www.w3.org/1999/xlink" x="0px" y="0px"
	 viewBox="0 0 170 71.333" style="enable-background:new 0 0 170 71.333;" xml:space="preserve">
<style type="text/css">
	.st0{fill:#FFFFFF;}
	.st1{fill:#E0E1E0;}
</style>
<polygon class="st0" points="126.219,71.333 126.222,71.327 126.219,71.33 "/>
<path class="st1" d="M139,21.084c-2.982-0.866-5.982-1.365-8.956-1.547c-2.466-7.298-8.337-13.314-16.296-15.626
	C103.369,0.897,92.609,5.1,86.826,13.565c-4.209-2.632-9.18-4.16-14.511-4.16c-9.369,0-17.635,4.704-22.578,11.876
	c-1.474-0.335-3.001-0.528-4.576-0.528c-9.153,0-16.902,5.981-19.574,14.243c-10.767,0.26-20.593,7.406-23.757,18.3
	c-1.848,6.363-1.091,12.862,1.64,18.363h163.428C173.124,50.001,160.655,27.375,139,21.084z M71.284,22.913
	c-0.2-0.051-0.385-0.117-0.587-0.144l-0.296-0.053l-0.3-0.023c-0.196-0.023-0.394-0.004-0.587-0.004
	c-0.194,0.004-0.389,0.041-0.579,0.064c-0.188,0.051-0.381,0.074-0.562,0.143c-0.185,0.06-0.364,0.121-0.538,0.204
	c-0.179,0.068-0.342,0.167-0.511,0.26c-0.168,0.091-0.317,0.215-0.472,0.319c-0.142,0.13-0.298,0.239-0.428,0.381
	c-0.134,0.136-0.27,0.266-0.385,0.417c-0.06,0.076-0.123,0.146-0.179,0.221l-0.157,0.239c-0.113,0.151-0.187,0.332-0.281,0.498
	l-0.029,0.053v0.002l-0.008,0.019l-0.015,0.037l-0.064,0.149c-0.039,0.095-0.097,0.21-0.115,0.287
	c-0.053,0.169-0.111,0.332-0.153,0.525c-0.054,0.183-0.072,0.373-0.109,0.56l-0.217,1.113l-0.911-0.686
	c-0.187-0.142-0.368-0.294-0.556-0.426l-0.294-0.189l-0.145-0.095l-0.023-0.015h-0.002l-0.021-0.011l-0.085-0.045l-0.342-0.177
	l-0.171-0.087l-0.151-0.056c-0.202-0.074-0.391-0.166-0.617-0.217l-0.327-0.093c-0.111-0.027-0.223-0.041-0.332-0.062
	c-0.111-0.017-0.221-0.047-0.334-0.056l-0.336-0.029c-0.225-0.031-0.451-0.008-0.676-0.01c-0.227,0-0.449,0.047-0.672,0.064
	c-0.221,0.041-0.443,0.085-0.664,0.14c-0.214,0.074-0.439,0.122-0.647,0.215c-0.21,0.089-0.428,0.164-0.624,0.281l-0.306,0.161
	c-0.099,0.058-0.192,0.126-0.289,0.189c-0.198,0.119-0.381,0.264-0.56,0.41c-0.191,0.136-0.346,0.315-0.521,0.472
	c-0.171,0.161-0.313,0.353-0.474,0.528c-0.157,0.181-0.287,0.383-0.434,0.575l-0.391,0.525l-0.5-0.285
	c-0.146-0.083-0.283-0.181-0.438-0.253c-0.147-0.083-0.303-0.144-0.459-0.21c-0.159-0.053-0.317-0.115-0.481-0.149
	c-0.161-0.049-0.328-0.068-0.498-0.1c-0.168-0.013-0.336-0.039-0.505-0.035c-0.171-0.01-0.34,0.004-0.511,0.01
	c-0.169,0.023-0.342,0.035-0.511,0.076c-0.171,0.027-0.336,0.083-0.506,0.13c-0.161,0.064-0.33,0.117-0.49,0.198
	c-0.166,0.066-0.321,0.155-0.478,0.243c-0.078,0.043-0.153,0.097-0.23,0.145l-0.144,0.041l-0.021-0.012l0.01,0.017l-0.013,0.039
	l-0.049,0.057l-0.443,0.381c-0.144,0.124-0.249,0.266-0.383,0.402c-0.062,0.07-0.128,0.134-0.185,0.211l-0.161,0.239
	c-0.102,0.164-0.241,0.311-0.319,0.492l-0.278,0.532c0.047-0.196,0.1-0.392,0.151-0.594c0.043-0.206,0.138-0.385,0.215-0.577
	l0.124-0.285c0.045-0.093,0.105-0.181,0.159-0.27c0.111-0.175,0.217-0.373,0.342-0.532l0.383-0.451l0.047-0.056l0.023-0.029
	l0.006-0.006l-0.029-0.043l-0.013-0.057l0.013-0.013l0.146-0.068c0.078-0.068,0.168-0.124,0.247-0.191
	c0.161-0.128,0.332-0.253,0.505-0.366c0.173-0.119,0.362-0.206,0.548-0.305c0.191-0.083,0.381-0.173,0.579-0.237
	c0.194-0.076,0.398-0.121,0.602-0.177c0.204-0.035,0.41-0.083,0.619-0.095c0.21-0.025,0.417-0.017,0.63-0.019
	c0.21,0.015,0.421,0.023,0.63,0.06c0.21,0.025,0.415,0.079,0.624,0.128c0.202,0.064,0.41,0.123,0.608,0.206
	c0.006,0.002,0.011,0.006,0.015,0.008c0.049-0.078,0.095-0.155,0.146-0.232c0.179-0.225,0.342-0.472,0.54-0.682
	c0.202-0.206,0.387-0.432,0.612-0.612c0.215-0.191,0.432-0.383,0.67-0.54c0.117-0.081,0.233-0.168,0.353-0.245l0.371-0.211
	c0.243-0.151,0.507-0.255,0.766-0.373c0.258-0.119,0.534-0.185,0.802-0.278c0.272-0.07,0.55-0.128,0.826-0.181
	c0.278-0.029,0.558-0.079,0.84-0.078c0.28,0.002,0.564-0.017,0.841,0.021l0.419,0.041c0.14,0.017,0.276,0.049,0.416,0.076
	c0.136,0.031,0.277,0.055,0.412,0.091l0.404,0.128c0.268,0.074,0.542,0.204,0.812,0.321l0.202,0.091l0.168,0.095l0.334,0.192
	l0.083,0.049l0.072,0.043l0.043,0.031l0.175,0.124l0.198,0.142c0.043-0.111,0.076-0.217,0.126-0.326
	c0.053-0.128,0.103-0.2,0.153-0.303l0.078-0.144l0.053-0.097l0.049-0.076c0.136-0.198,0.253-0.408,0.41-0.589l0.223-0.276
	c0.078-0.089,0.166-0.171,0.245-0.255c0.159-0.173,0.342-0.321,0.523-0.466c0.179-0.149,0.383-0.259,0.571-0.387
	c0.204-0.103,0.4-0.217,0.612-0.302c0.211-0.083,0.415-0.169,0.636-0.221c0.109-0.029,0.213-0.064,0.323-0.083l0.328-0.051
	c0.215-0.041,0.441-0.031,0.655-0.047c0.217,0.01,0.436,0.013,0.649,0.043c0.213,0.035,0.428,0.064,0.635,0.134l0.309,0.091
	l0.3,0.123c0.202,0.068,0.387,0.191,0.573,0.291c0.183,0.111,0.346,0.243,0.521,0.366C71.673,23.063,71.482,22.971,71.284,22.913z
	 M125.939,21.912c-0.106-0.193-0.221-0.38-0.325-0.563c-0.121-0.18-0.248-0.353-0.369-0.527c-0.132-0.169-0.276-0.323-0.412-0.483
	c-0.145-0.151-0.302-0.289-0.45-0.437c-0.157-0.136-0.32-0.261-0.478-0.389l-0.51-0.334l-0.533-0.279l-0.551-0.224l-0.565-0.17
	c-0.193-0.036-0.382-0.079-0.575-0.11c-0.193-0.015-0.386-0.04-0.576-0.049c-0.193,0.006-0.386,0.002-0.574,0.013
	c-0.191,0.028-0.38,0.038-0.569,0.064l-0.56,0.121l-0.544,0.178l-0.533,0.174l-0.259-0.584l-0.264-0.601
	c-0.099-0.195-0.206-0.384-0.306-0.576c-0.223-0.371-0.455-0.733-0.72-1.069l-0.096-0.128l0.004-0.024l-0.022-0.017l-0.063-0.061
	l-0.237-0.257c-0.152-0.169-0.314-0.361-0.459-0.478l-0.444-0.406l-0.501-0.374c-0.16-0.134-0.347-0.224-0.521-0.334
	c-0.178-0.11-0.349-0.221-0.538-0.301c-0.187-0.087-0.369-0.185-0.558-0.261l-0.577-0.208c-0.193-0.068-0.395-0.104-0.589-0.158
	c-0.196-0.06-0.397-0.09-0.595-0.119c-0.4-0.081-0.804-0.081-1.21-0.104c-0.404,0.022-0.81,0.022-1.21,0.101l-0.301,0.042
	l-0.295,0.075c-0.196,0.055-0.397,0.087-0.587,0.16l-0.576,0.206c-0.189,0.077-0.373,0.176-0.556,0.261
	c-0.189,0.081-0.365,0.193-0.54,0.301c-0.172,0.115-0.363,0.2-0.522,0.336l-0.501,0.376l-0.031,0.022l-0.008,0.006l-0.004,0.004
	c-0.019,0.017,0.021-0.02,0.015-0.015l-0.015,0.013l-0.064,0.057l-0.127,0.116l-0.255,0.231c-0.138,0.149-0.281,0.283-0.421,0.439
	c-0.134,0.165-0.287,0.314-0.408,0.49c-0.128,0.17-0.261,0.338-0.374,0.521c-0.123,0.176-0.233,0.361-0.34,0.549
	c-0.221,0.373-0.4,0.769-0.573,1.173l-0.282,0.67l-0.007-0.187c-0.021-0.208,0.017-0.413,0.02-0.621
	c0.011-0.206,0.019-0.413,0.06-0.615c0.035-0.199,0.058-0.405,0.102-0.605l0.158-0.591c0.048-0.199,0.135-0.382,0.202-0.575
	l0.106-0.285l0.137-0.271c0.162-0.372,0.394-0.706,0.605-1.051c0.249-0.32,0.478-0.652,0.773-0.935
	c0.101-0.109,0.21-0.21,0.321-0.311l0.007-0.006c0.187-0.167,0.41-0.283,0.614-0.423c0.208-0.136,0.417-0.272,0.641-0.376
	c0.221-0.11,0.439-0.231,0.665-0.329l0.69-0.264c0.229-0.09,0.472-0.134,0.709-0.202l0.357-0.09l0.363-0.057
	c0.485-0.094,0.971-0.11,1.46-0.13c0.487,0.024,0.979,0.036,1.458,0.132c0.242,0.036,0.483,0.077,0.72,0.149
	c0.236,0.068,0.476,0.115,0.707,0.206l0.688,0.268l1.304,0.705c0.206,0.142,0.421,0.263,0.61,0.429l0.58,0.472l0.556,0.551
	c0.2,0.187,0.325,0.367,0.474,0.547l0.217,0.27l0.055,0.068l0.028,0.035l0.028,0.035l0.004,0.004l0.005,0.009l0.013,0.021
	l0.106,0.158c0.29,0.413,0.544,0.854,0.771,1.307c0.102,0.233,0.21,0.463,0.308,0.697l0.06,0.167l0.083-0.02
	c0.226-0.036,0.457-0.062,0.684-0.092c0.229-0.013,0.459-0.017,0.686-0.017c0.229,0.011,0.455,0.04,0.68,0.062
	c0.226,0.036,0.448,0.088,0.67,0.132c0.221,0.061,0.435,0.132,0.652,0.2c0.211,0.083,0.419,0.178,0.626,0.264
	c0.202,0.108,0.399,0.219,0.595,0.332l0.556,0.397c0.172,0.149,0.347,0.295,0.512,0.45c0.157,0.167,0.318,0.329,0.466,0.497
	c0.14,0.182,0.281,0.361,0.412,0.546c0.119,0.195,0.246,0.386,0.355,0.582c0.101,0.206,0.208,0.406,0.297,0.614
	c0.077,0.217,0.158,0.429,0.231,0.641l0.167,0.654L125.939,21.912z"/>
</svg>
