<?xml version="1.0" encoding="utf-8"?>
<!-- Generator: Adobe Illustrator 21.1.0, SVG Export Plug-In . SVG Version: 6.00 Build 0)  -->
<svg version="1.1" id="Layer_1" xmlns="http://www.w3.org/2000/svg" xmlns:xlink="http://www.w3.org/1999/xlink" x="0px" y="0px"
	 viewBox="0 0 225 200" style="enable-background:new 0 0 225 200;" xml:space="preserve">
<style type="text/css">
	.st0{fill:#FFFFFF;}
	.st1{fill:#E0E1E0;}
	.st2{fill:url(#SVGID_1_);}
	.st3{fill:#E6E6E5;}
	.st4{fill:#010101;}
	.st5{opacity:0.8;fill:#F5EB17;enable-background:new    ;}
	.st6{fill:url(#SVGID_2_);}
	.st7{fill:#F5EB17;}
	.st8{fill:url(#SVGID_3_);}
	.st9{fill:#3B54A4;}
	.st10{opacity:0.25;fill:none;stroke:#010101;stroke-width:2;stroke-miterlimit:10;enable-background:new    ;}
	.st11{fill:url(#SVGID_4_);}
	.st12{fill:url(#SVGID_5_);}
	.st13{opacity:0.85;}
	.st14{opacity:0.25;fill:#010101;enable-background:new    ;}
	.st15{opacity:0.3;fill:#1C112B;enable-background:new    ;}
	.st16{fill:#D8D9D8;}
	.st17{opacity:0.3;enable-background:new    ;}
	.st18{fill:#1C112B;}
</style>
<polygon class="st0" points="93.052,200 93.055,199.994 93.052,199.997 "/>
<path class="st0" d="M120.31,152.043l-0.003,0.009C120.31,152.046,120.307,152.052,120.31,152.043L120.31,152.043z"/>
<polygon class="st0" points="120.298,152.07 120.298,152.07 120.298,152.067 "/>
<path class="st1" d="M169.28,150.201c-2.936-0.853-5.89-1.344-8.819-1.523c-2.428-7.186-8.209-13.11-16.046-15.386
	c-10.22-2.969-20.815,1.17-26.509,9.505c-4.144-2.592-9.039-4.096-14.288-4.096c-9.225,0-17.365,4.632-22.232,11.694
	c-1.451-0.33-2.955-0.52-4.506-0.52c-9.013,0-16.643,5.889-19.274,14.025c-10.602,0.256-20.277,7.292-23.393,18.019
	c-1.82,6.265-1.074,12.665,1.615,18.081H196.75C202.88,178.674,190.603,156.395,169.28,150.201z M102.602,152.002
	c-0.197-0.05-0.379-0.115-0.578-0.142l-0.291-0.052l-0.295-0.023c-0.193-0.023-0.388-0.004-0.578-0.004
	c-0.191,0.004-0.383,0.04-0.57,0.063c-0.185,0.05-0.375,0.073-0.553,0.141c-0.182,0.059-0.358,0.119-0.53,0.201
	c-0.176,0.067-0.337,0.164-0.503,0.256c-0.165,0.09-0.312,0.212-0.465,0.314c-0.14,0.128-0.293,0.235-0.421,0.375
	c-0.132,0.134-0.266,0.262-0.379,0.411c-0.059,0.075-0.121,0.144-0.176,0.218l-0.155,0.235c-0.111,0.149-0.184,0.327-0.277,0.49
	l-0.029,0.052v0.002l-0.008,0.019l-0.015,0.036l-0.063,0.147c-0.038,0.094-0.096,0.207-0.113,0.283
	c-0.052,0.166-0.109,0.327-0.151,0.517c-0.053,0.18-0.071,0.367-0.107,0.551l-0.214,1.096l-0.897-0.675
	c-0.184-0.14-0.362-0.289-0.547-0.419l-0.289-0.186l-0.143-0.094l-0.023-0.015H94.23l-0.021-0.011l-0.084-0.044l-0.337-0.174
	l-0.168-0.086l-0.149-0.055c-0.199-0.073-0.385-0.163-0.608-0.214l-0.322-0.092c-0.109-0.027-0.22-0.04-0.327-0.061
	c-0.109-0.017-0.218-0.046-0.329-0.055l-0.331-0.029c-0.222-0.031-0.444-0.008-0.666-0.01c-0.224,0-0.442,0.046-0.662,0.063
	c-0.218,0.04-0.436,0.084-0.654,0.138c-0.211,0.073-0.432,0.12-0.637,0.212c-0.207,0.088-0.421,0.161-0.614,0.277l-0.301,0.159
	c-0.097,0.057-0.189,0.124-0.285,0.186c-0.195,0.117-0.375,0.26-0.551,0.404c-0.188,0.134-0.341,0.31-0.513,0.465
	c-0.168,0.159-0.308,0.348-0.467,0.52c-0.155,0.178-0.283,0.377-0.427,0.566l-0.385,0.517l-0.492-0.281
	c-0.144-0.082-0.279-0.178-0.431-0.249c-0.145-0.082-0.298-0.142-0.452-0.207c-0.157-0.052-0.312-0.113-0.474-0.147
	c-0.159-0.048-0.323-0.067-0.49-0.098c-0.165-0.013-0.331-0.038-0.497-0.034c-0.168-0.01-0.335,0.004-0.503,0.01
	c-0.166,0.023-0.337,0.034-0.503,0.075c-0.168,0.027-0.331,0.082-0.498,0.128c-0.159,0.063-0.325,0.115-0.482,0.195
	c-0.163,0.065-0.316,0.153-0.471,0.239c-0.077,0.042-0.151,0.096-0.226,0.143l-0.142,0.04l-0.021-0.012l0.01,0.017l-0.013,0.038
	l-0.048,0.056l-0.436,0.375c-0.142,0.122-0.245,0.262-0.377,0.396c-0.061,0.069-0.126,0.132-0.182,0.208l-0.159,0.235
	c-0.1,0.161-0.237,0.306-0.314,0.484l-0.274,0.524c0.046-0.193,0.098-0.386,0.149-0.585c0.042-0.203,0.136-0.379,0.212-0.568
	l0.122-0.281c0.044-0.092,0.103-0.178,0.157-0.266c0.109-0.172,0.214-0.367,0.337-0.524l0.377-0.444l0.046-0.055l0.023-0.029
	l0.006-0.006l-0.029-0.042l-0.013-0.056l0.013-0.013l0.144-0.067c0.077-0.067,0.165-0.122,0.243-0.188
	c0.159-0.126,0.327-0.249,0.497-0.36c0.17-0.117,0.356-0.203,0.54-0.3c0.188-0.082,0.375-0.17,0.57-0.233
	c0.191-0.075,0.392-0.119,0.593-0.174c0.201-0.034,0.404-0.082,0.61-0.094c0.207-0.025,0.411-0.017,0.62-0.019
	c0.207,0.015,0.415,0.023,0.62,0.059c0.207,0.025,0.409,0.078,0.614,0.126c0.199,0.063,0.404,0.121,0.599,0.203
	c0.006,0.002,0.011,0.006,0.015,0.008c0.048-0.077,0.094-0.153,0.144-0.228c0.176-0.222,0.337-0.465,0.532-0.672
	c0.199-0.203,0.381-0.425,0.603-0.603c0.212-0.188,0.425-0.377,0.66-0.532c0.115-0.08,0.229-0.165,0.348-0.241l0.365-0.208
	c0.239-0.149,0.499-0.251,0.754-0.367c0.254-0.117,0.526-0.182,0.79-0.274c0.268-0.069,0.542-0.126,0.813-0.178
	c0.274-0.029,0.549-0.078,0.827-0.077c0.276,0.002,0.555-0.017,0.828,0.021l0.413,0.04c0.138,0.017,0.272,0.048,0.41,0.075
	c0.134,0.031,0.273,0.054,0.406,0.09l0.398,0.126c0.264,0.073,0.534,0.201,0.8,0.316l0.199,0.09l0.165,0.094l0.329,0.189
	l0.082,0.048l0.071,0.042l0.042,0.031l0.172,0.122l0.195,0.14c0.042-0.109,0.075-0.214,0.124-0.321
	c0.052-0.126,0.101-0.197,0.151-0.298l0.077-0.142l0.052-0.096l0.048-0.075c0.134-0.195,0.249-0.402,0.404-0.58l0.22-0.272
	c0.077-0.088,0.163-0.168,0.241-0.251c0.157-0.17,0.337-0.316,0.515-0.459c0.176-0.147,0.377-0.255,0.562-0.381
	c0.201-0.101,0.394-0.214,0.603-0.297c0.208-0.082,0.409-0.166,0.626-0.218c0.107-0.029,0.21-0.063,0.318-0.082l0.323-0.05
	c0.212-0.04,0.434-0.031,0.645-0.046c0.214,0.01,0.429,0.013,0.639,0.042c0.21,0.034,0.421,0.063,0.625,0.132l0.304,0.09
	l0.295,0.121c0.199,0.067,0.381,0.188,0.564,0.287c0.18,0.109,0.341,0.239,0.513,0.36
	C102.985,152.149,102.797,152.059,102.602,152.002z M156.419,151.016c-0.104-0.19-0.218-0.374-0.32-0.554
	c-0.119-0.177-0.244-0.348-0.363-0.519c-0.13-0.166-0.272-0.318-0.406-0.476c-0.143-0.149-0.297-0.285-0.443-0.43
	c-0.155-0.134-0.315-0.257-0.471-0.383l-0.502-0.329l-0.525-0.275l-0.543-0.221l-0.556-0.167c-0.19-0.035-0.376-0.078-0.566-0.108
	c-0.19-0.015-0.38-0.039-0.567-0.048c-0.19,0.006-0.38,0.002-0.565,0.013c-0.188,0.028-0.374,0.037-0.56,0.063l-0.551,0.119
	l-0.536,0.175l-0.525,0.171l-0.255-0.575l-0.26-0.592c-0.097-0.192-0.203-0.378-0.301-0.567c-0.22-0.365-0.448-0.722-0.709-1.053
	l-0.095-0.126l0.004-0.024l-0.022-0.017l-0.062-0.06l-0.233-0.253c-0.15-0.166-0.309-0.355-0.452-0.471l-0.437-0.4l-0.493-0.368
	c-0.158-0.132-0.342-0.221-0.513-0.329c-0.175-0.108-0.344-0.218-0.53-0.296c-0.184-0.086-0.363-0.182-0.549-0.257l-0.568-0.205
	c-0.19-0.067-0.389-0.102-0.58-0.156c-0.193-0.059-0.391-0.089-0.586-0.117c-0.394-0.08-0.792-0.08-1.191-0.102
	c-0.398,0.022-0.798,0.022-1.191,0.099l-0.296,0.041l-0.29,0.074c-0.193,0.054-0.391,0.086-0.578,0.158l-0.567,0.203
	c-0.186,0.076-0.367,0.173-0.547,0.257c-0.186,0.08-0.359,0.19-0.532,0.296c-0.169,0.113-0.357,0.197-0.514,0.331l-0.493,0.37
	l-0.031,0.022l-0.008,0.006l-0.004,0.004c-0.019,0.017,0.021-0.02,0.015-0.015l-0.015,0.013l-0.063,0.056l-0.125,0.114l-0.251,0.227
	c-0.136,0.147-0.277,0.279-0.415,0.432c-0.132,0.162-0.283,0.309-0.402,0.482c-0.126,0.167-0.257,0.333-0.368,0.513
	c-0.121,0.173-0.229,0.355-0.335,0.541c-0.218,0.367-0.394,0.757-0.564,1.155l-0.278,0.66l-0.007-0.184
	c-0.021-0.205,0.017-0.407,0.02-0.611c0.011-0.203,0.019-0.407,0.059-0.606c0.034-0.196,0.057-0.399,0.1-0.596l0.156-0.582
	c0.047-0.196,0.133-0.376,0.199-0.566l0.104-0.281l0.135-0.267c0.16-0.366,0.388-0.695,0.596-1.035
	c0.245-0.315,0.471-0.642,0.761-0.921c0.099-0.107,0.207-0.207,0.316-0.306l0.007-0.006c0.184-0.164,0.404-0.279,0.605-0.417
	c0.205-0.134,0.411-0.268,0.631-0.37c0.218-0.108,0.432-0.227,0.655-0.324l0.679-0.26c0.225-0.089,0.465-0.132,0.698-0.199
	l0.352-0.089l0.357-0.056c0.478-0.093,0.956-0.108,1.438-0.128c0.48,0.024,0.964,0.035,1.436,0.13
	c0.238,0.035,0.476,0.076,0.709,0.147c0.232,0.067,0.469,0.113,0.696,0.203l0.677,0.264l1.284,0.694
	c0.203,0.14,0.415,0.259,0.601,0.422l0.571,0.465l0.547,0.543c0.197,0.184,0.32,0.361,0.467,0.539l0.214,0.266l0.054,0.067
	l0.028,0.034l0.028,0.034l0.004,0.004l0.005,0.009l0.013,0.021l0.104,0.156c0.286,0.407,0.536,0.841,0.759,1.287
	c0.1,0.229,0.207,0.456,0.303,0.686l0.059,0.164l0.082-0.02c0.223-0.035,0.45-0.061,0.674-0.091
	c0.225-0.013,0.452-0.017,0.675-0.017c0.225,0.011,0.448,0.039,0.67,0.061c0.223,0.035,0.441,0.087,0.66,0.13
	c0.218,0.06,0.428,0.13,0.642,0.197c0.208,0.082,0.413,0.175,0.616,0.26c0.199,0.106,0.393,0.216,0.586,0.327l0.547,0.391
	c0.169,0.147,0.342,0.29,0.504,0.443c0.155,0.164,0.313,0.324,0.459,0.489c0.138,0.179,0.277,0.355,0.406,0.538
	c0.117,0.192,0.242,0.38,0.35,0.573c0.099,0.203,0.205,0.4,0.292,0.605c0.076,0.214,0.156,0.422,0.227,0.631l0.164,0.644
	L156.419,151.016z"/>
<linearGradient id="SVGID_1_" gradientUnits="userSpaceOnUse" x1="118.36" y1="1241.277" x2="118.36" y2="1346.6667" gradientTransform="matrix(1 0 0 1 0 -1146.6667)">
	<stop  offset="0" style="stop-color:#FFFFFF"/>
	<stop  offset="0.2964" style="stop-color:#FDFEFD"/>
	<stop  offset="0.5586" style="stop-color:#F2F2F2"/>
	<stop  offset="0.807" style="stop-color:#E0DFDF"/>
	<stop  offset="1" style="stop-color:#CECCCB"/>
</linearGradient>
<path class="st2" d="M125.169,95.036l-6.81-0.426l-6.81,0.426c0,0-3.503,83.927-7.516,104.964h28.655
	C128.672,178.963,125.169,95.036,125.169,95.036z"/>
<g>
	<path class="st0" d="M216.622,187.555c-2.145-7.383-8.804-12.226-16.101-12.402c-1.811-5.6-7.063-9.654-13.266-9.654
		c-1.068,0-2.103,0.131-3.102,0.358c-3.35-4.861-8.953-8.049-15.302-8.049c-3.613,0-6.982,1.035-9.834,2.819
		c-3.919-5.737-11.211-8.586-18.246-6.542c-5.394,1.567-9.373,5.644-11.044,10.59c-2.016,0.123-4.049,0.461-6.07,1.048
		c-7.446,2.163-13.284,7.178-16.683,13.508c-3.138-4.659-7.861-8.288-13.677-9.978c-1.813-0.527-3.636-0.83-5.445-0.94
		c-1.499-4.437-5.068-8.094-9.906-9.499c-6.31-1.833-12.851,0.723-16.366,5.868c-2.559-1.6-5.581-2.529-8.821-2.529
		c-5.696,0-10.721,2.86-13.726,7.22c-0.896-0.204-1.824-0.321-2.782-0.321c-5.565,0-10.275,3.636-11.9,8.659
		c-6.546,0.158-12.519,4.502-14.443,11.125c-1.124,3.868-0.663,7.819,0.997,11.163h93.845h5.508H215.51
		C217.361,196.272,217.874,191.867,216.622,187.555z M71.592,173.727c-0.228-0.047-0.442-0.112-0.672-0.133l-0.337-0.045
		l-0.34-0.011c-0.223-0.016-0.447,0.016-0.668,0.026c-0.222,0.016-0.438,0.065-0.654,0.099c-0.212,0.066-0.427,0.1-0.63,0.189
		c-0.205,0.078-0.408,0.154-0.6,0.254c-0.199,0.086-0.382,0.207-0.566,0.319c-0.184,0.112-0.349,0.257-0.523,0.384
		c-0.155,0.154-0.327,0.285-0.466,0.452c-0.146,0.16-0.296,0.314-0.419,0.494c-0.063,0.087-0.133,0.17-0.191,0.259l-0.168,0.277
		c-0.121,0.178-0.199,0.385-0.298,0.576l-0.029,0.058l-0.002,0.003l-0.01,0.021l-0.016,0.044l-0.066,0.172
		c-0.037,0.11-0.1,0.243-0.118,0.332c-0.052,0.194-0.112,0.382-0.152,0.6c-0.053,0.209-0.066,0.426-0.1,0.638l-0.201,1.27
		l-1.062-0.731c-0.219-0.151-0.429-0.312-0.651-0.456l-0.34-0.197l-0.168-0.099l-0.032-0.019l-0.023-0.01l-0.1-0.047l-0.395-0.181
		l-0.199-0.091l-0.175-0.057c-0.233-0.074-0.45-0.17-0.71-0.217l-0.374-0.089c-0.128-0.026-0.254-0.034-0.38-0.053
		c-0.128-0.015-0.252-0.042-0.38-0.049l-0.382-0.015c-0.256-0.024-0.51,0.011-0.767,0.021c-0.256,0.011-0.506,0.076-0.76,0.104
		c-0.249,0.057-0.499,0.12-0.748,0.189c-0.238,0.095-0.489,0.159-0.723,0.277c-0.233,0.112-0.476,0.206-0.696,0.348l-0.34,0.197
		c-0.107,0.073-0.212,0.154-0.32,0.23c-0.218,0.146-0.419,0.317-0.617,0.492c-0.209,0.162-0.379,0.372-0.566,0.56
		c-0.186,0.191-0.34,0.416-0.513,0.62c-0.159,0.218-0.299,0.452-0.455,0.678l-0.417,0.612l-0.579-0.299
		c-0.168-0.087-0.33-0.189-0.505-0.265c-0.17-0.089-0.35-0.147-0.529-0.217c-0.181-0.05-0.364-0.113-0.552-0.146
		c-0.186-0.047-0.375-0.061-0.566-0.089c-0.191-0.008-0.384-0.026-0.576-0.015c-0.194-0.003-0.387,0.021-0.579,0.036
		c-0.191,0.034-0.387,0.057-0.574,0.112c-0.193,0.039-0.377,0.112-0.566,0.172c-0.181,0.079-0.371,0.147-0.545,0.248
		c-0.185,0.084-0.356,0.193-0.532,0.298c-0.087,0.053-0.168,0.118-0.252,0.176l-0.16,0.053l-0.024-0.011l0.011,0.019l-0.013,0.047
		l-0.053,0.066l-0.485,0.453c-0.159,0.149-0.272,0.316-0.414,0.473c-0.066,0.081-0.141,0.159-0.202,0.248l-0.175,0.278
		c-0.107,0.189-0.259,0.362-0.34,0.573l-0.294,0.613c0.044-0.225,0.094-0.45,0.146-0.678c0.037-0.235,0.139-0.443,0.22-0.664
		l0.128-0.33c0.047-0.108,0.112-0.209,0.168-0.314c0.12-0.204,0.231-0.434,0.366-0.62l0.416-0.531l0.052-0.066l0.026-0.034
		l0.006-0.008l-0.036-0.047l-0.016-0.065l0.015-0.016l0.16-0.084c0.083-0.081,0.183-0.149,0.272-0.227
		c0.178-0.154,0.366-0.303,0.558-0.437c0.189-0.142,0.403-0.249,0.605-0.372c0.21-0.104,0.422-0.215,0.646-0.295
		c0.217-0.096,0.447-0.157,0.675-0.228c0.23-0.052,0.463-0.113,0.699-0.138c0.235-0.039,0.473-0.04,0.71-0.053
		c0.238,0.006,0.477,0.003,0.715,0.039c0.238,0.019,0.474,0.071,0.71,0.115c0.233,0.063,0.469,0.118,0.697,0.206
		c0.006,0.002,0.013,0.005,0.019,0.008c0.052-0.089,0.1-0.181,0.154-0.267c0.194-0.265,0.367-0.552,0.583-0.796
		c0.22-0.244,0.421-0.508,0.665-0.723c0.236-0.227,0.471-0.455,0.738-0.644c0.131-0.099,0.257-0.201,0.39-0.295l0.413-0.257
		c0.272-0.181,0.565-0.314,0.851-0.458c0.288-0.147,0.597-0.235,0.895-0.353c0.306-0.092,0.617-0.172,0.929-0.246
		c0.316-0.047,0.628-0.117,0.947-0.129c0.319-0.011,0.637-0.047,0.956-0.019l0.477,0.024c0.159,0.013,0.317,0.044,0.473,0.068
		c0.157,0.027,0.317,0.047,0.471,0.083l0.463,0.125c0.304,0.07,0.623,0.204,0.937,0.324l0.233,0.092l0.194,0.102l0.388,0.202
		l0.097,0.05l0.084,0.047l0.053,0.031l0.202,0.131l0.219,0.142c0.044-0.121,0.091-0.246,0.139-0.367
		c0.053-0.147,0.107-0.231,0.16-0.35l0.081-0.165l0.055-0.113l0.052-0.089c0.144-0.23,0.269-0.476,0.439-0.686l0.243-0.325
		c0.083-0.105,0.178-0.201,0.267-0.301c0.175-0.204,0.372-0.38,0.573-0.553c0.196-0.178,0.422-0.311,0.63-0.464
		c0.227-0.126,0.443-0.267,0.678-0.371c0.233-0.104,0.463-0.212,0.709-0.28c0.121-0.037,0.238-0.081,0.361-0.112l0.369-0.073
		c0.243-0.057,0.497-0.057,0.741-0.086c0.248,0.002,0.494-0.006,0.738,0.018c0.244,0.029,0.487,0.052,0.723,0.12l0.353,0.089
		l0.343,0.121c0.23,0.07,0.447,0.199,0.662,0.303c0.212,0.11,0.403,0.252,0.605,0.382C72.038,173.873,71.82,173.78,71.592,173.727z
		 M165.376,176.763c-0.005-0.019,0.013-0.013,0.005-0.029l0.005,0.005L165.376,176.763z M184.606,186.21
		c-0.148-0.271-0.31-0.533-0.456-0.79c-0.17-0.252-0.347-0.496-0.517-0.74c-0.186-0.236-0.387-0.453-0.578-0.679
		c-0.204-0.212-0.425-0.406-0.631-0.613c-0.22-0.191-0.448-0.366-0.671-0.546l-0.716-0.469l-0.748-0.392l-0.774-0.316l-0.793-0.239
		c-0.271-0.05-0.536-0.111-0.806-0.154c-0.271-0.021-0.541-0.056-0.809-0.069c-0.271,0.008-0.541,0.003-0.806,0.019
		c-0.268,0.04-0.533,0.053-0.798,0.09l-0.785,0.17l-0.764,0.249l-0.748,0.244l-0.363-0.819l-0.371-0.843
		c-0.138-0.273-0.289-0.538-0.43-0.809c-0.313-0.52-0.639-1.029-1.01-1.501l-0.135-0.18l0.005-0.034l-0.032-0.024l-0.087-0.085
		l-0.332-0.361c-0.215-0.236-0.44-0.507-0.645-0.671l-0.623-0.57l-0.703-0.525c-0.225-0.188-0.488-0.316-0.732-0.469
		c-0.249-0.154-0.491-0.31-0.756-0.422c-0.263-0.122-0.517-0.26-0.782-0.366l-0.809-0.292c-0.271-0.095-0.554-0.146-0.827-0.223
		c-0.276-0.085-0.557-0.127-0.835-0.167c-0.562-0.114-1.13-0.114-1.697-0.146c-0.568,0.032-1.138,0.032-1.698,0.141l-0.422,0.058
		l-0.414,0.106c-0.276,0.077-0.557,0.122-0.825,0.225l-0.809,0.289c-0.265,0.109-0.522,0.247-0.78,0.366
		c-0.265,0.114-0.512,0.271-0.759,0.422c-0.241,0.162-0.509,0.281-0.732,0.472l-0.703,0.528l-0.045,0.032l-0.01,0.008l-0.005,0.005
		c-0.027,0.024,0.029-0.029,0.021-0.021l-0.021,0.019l-0.09,0.08l-0.178,0.162l-0.358,0.324c-0.194,0.209-0.395,0.398-0.591,0.615
		c-0.188,0.231-0.403,0.44-0.573,0.687c-0.18,0.239-0.366,0.475-0.525,0.732c-0.172,0.247-0.326,0.506-0.477,0.772
		c-0.31,0.522-0.562,1.079-0.804,1.647l-0.671,1.589l-0.891-1.329l-0.061-0.093l0.04-0.077l0.029-0.032l-0.048,0.005l-0.172-0.156
		l-0.302-0.355c-0.095-0.135-0.196-0.217-0.289-0.31l-0.278-0.284c-0.175-0.199-0.417-0.363-0.621-0.549
		c-0.207-0.191-0.448-0.331-0.674-0.499c-0.226-0.17-0.48-0.284-0.719-0.43c-0.244-0.141-0.507-0.233-0.759-0.355
		c-0.255-0.114-0.528-0.18-0.796-0.273c-0.268-0.08-0.543-0.122-0.819-0.196c-0.276-0.05-0.557-0.077-0.835-0.117
		c-0.284-0.016-0.565-0.019-0.851-0.029l-0.857,0.064l-0.851,0.148l-0.843,0.236l-0.825,0.326l-0.801,0.406l-0.772,0.488l0.674-0.65
		l0.737-0.576c0.26-0.17,0.531-0.324,0.798-0.488c0.279-0.138,0.562-0.268,0.849-0.4c0.292-0.109,0.591-0.21,0.891-0.308l0.92-0.202
		c0.31-0.034,0.626-0.077,0.941-0.103c0.316-0.003,0.634-0.019,0.952-0.005c0.318,0.032,0.639,0.05,0.952,0.106
		c0.31,0.072,0.634,0.117,0.941,0.212c0.305,0.106,0.623,0.18,0.92,0.31c0.294,0.138,0.607,0.244,0.894,0.411
		c0.284,0.17,0.586,0.305,0.852,0.507c0.268,0.204,0.543,0.371,0.803,0.615l0.374,0.339c0.087-0.207,0.172-0.414,0.273-0.618
		c0.151-0.323,0.321-0.639,0.507-0.941c0.175-0.313,0.374-0.605,0.576-0.896c0.191-0.302,0.424-0.568,0.639-0.849
		c0.22-0.281,0.485-0.549,0.724-0.82l0.321-0.374l0.146-0.202l0.087-0.085l0.021-0.021l0.08-0.013l0.064-0.027l0.819-0.658
		c0.262-0.233,0.575-0.398,0.862-0.594c0.292-0.191,0.586-0.382,0.899-0.528c0.31-0.154,0.615-0.324,0.933-0.461l0.968-0.371
		c0.321-0.127,0.663-0.188,0.995-0.284l0.501-0.127l0.509-0.08c0.682-0.133,1.363-0.154,2.05-0.183
		c0.684,0.034,1.374,0.05,2.047,0.186c0.34,0.05,0.679,0.109,1.01,0.209c0.332,0.095,0.668,0.162,0.992,0.289l0.965,0.377
		l1.83,0.989c0.289,0.199,0.591,0.369,0.857,0.602l0.814,0.663l0.78,0.774c0.281,0.263,0.456,0.515,0.666,0.769l0.305,0.379
		l0.077,0.095l0.04,0.048l0.04,0.048l0.005,0.005l0.008,0.013l0.018,0.029l0.149,0.223c0.408,0.581,0.764,1.199,1.082,1.835
		c0.143,0.326,0.294,0.65,0.432,0.979l0.085,0.233l0.117-0.029c0.318-0.05,0.642-0.088,0.96-0.13
		c0.321-0.019,0.645-0.024,0.963-0.024c0.321,0.016,0.639,0.056,0.955,0.088c0.318,0.05,0.628,0.125,0.941,0.186
		c0.31,0.085,0.61,0.186,0.915,0.281c0.297,0.117,0.589,0.249,0.878,0.371c0.284,0.151,0.56,0.308,0.835,0.467l0.78,0.557
		c0.241,0.21,0.488,0.414,0.719,0.631c0.22,0.233,0.446,0.461,0.655,0.698c0.196,0.255,0.395,0.506,0.578,0.766
		c0.167,0.273,0.345,0.541,0.499,0.817c0.141,0.289,0.292,0.57,0.416,0.862c0.109,0.305,0.223,0.602,0.324,0.899l0.233,0.918
		L184.606,186.21z"/>
</g>
<g>
	<g>
		<polygon class="st3" points="97.555,84.409 91.343,91.887 85.918,76.239 93.778,73.513 		"/>
		<path class="st4" d="M93.323,73.673l0.611,0.297l-7.994,2.339l0.044-0.091l5.876,15.494l-0.94-0.171
			c2.134-2.32,4.338-4.685,6.563-7.142C96.088,80.748,94.684,77.182,93.323,73.673z M91.764,92.237l-0.623,0.833l-0.317-1.003
			L85.85,76.263l-0.02-0.065l0.065-0.026l7.727-3.112l0.463-0.186l0.148,0.484l3.393,11.065L91.764,92.237z"/>
	</g>
	<g>
		<polygon class="st3" points="140.181,85.31 146.211,92.69 152.152,77.642 144.414,74.587 		"/>
		<path class="st4" d="M143.968,74.41l0.169-0.477l0.454,0.207l7.588,3.437l0.064,0.03l-0.023,0.064l-5.499,15.223l-0.342,0.95
			l-0.592-0.804l-5.678-7.715L143.968,74.41z M146.636,92.343l-0.934,0.145l6.385-14.873l0.041,0.092l-7.889-2.675l0.624-0.27
			c-1.508,3.447-3.063,6.951-4.611,10.538C142.417,87.726,144.561,90.057,146.636,92.343z"/>
	</g>
	<path class="st3" d="M107.908,91.983c0.35,2.599,0.74,9.055,1.664,9.448c0.922,0.392,4.341,1.637,8.907,1.733
		c4.566,0.096,8.034-1.001,8.974-1.355c0.94-0.352,1.602-6.787,2.063-9.369"/>
	<path class="st5" d="M128.683,97.846c0,0-0.213,2.051-1.23,3.962c-9.597,2.723-18.442-0.915-18.442-0.915s-1.206-0.499-0.037-0.735
		c1.079-0.217,1.961-2.54,1.961-2.54s1.452,1.962,2.216,1.918c0.764-0.044,1.686-1.136,1.686-1.136s0.93,1.649,1.887,1.654
		c0.956,0.005,2.062-1.381,2.062-1.381s0.353,1.703,1.447,1.849c1.095,0.144,2.046-2.317,2.046-2.317s1.184,1.802,2.032,1.613
		c0.849-0.187,1.527-2.468,1.527-2.468s0.494,3.022,1.219,2.916C127.778,100.159,128.683,97.846,128.683,97.846z"/>
	<path class="st4" d="M129.432,92.425c-0.371,1.532-0.627,3.082-0.942,4.612c-0.149,0.766-0.307,1.531-0.493,2.281
		c-0.092,0.376-0.187,0.748-0.302,1.105c-0.057,0.179-0.118,0.355-0.186,0.519c-0.067,0.161-0.148,0.32-0.219,0.411
		c-0.016,0.018-0.033,0.037-0.037,0.037c-0.004,0.004-0.002,0.001,0.004-0.005c0.001,0.001,0.009-0.005,0.015-0.009
		c0.002-0.002,0.023-0.009,0.005-0.002c-0.089,0.03-0.176,0.059-0.267,0.087c-0.181,0.057-0.363,0.11-0.547,0.164
		c-0.367,0.106-0.74,0.198-1.112,0.286c-0.749,0.172-1.505,0.308-2.266,0.415c-0.761,0.112-1.525,0.188-2.293,0.238
		c-0.766,0.049-1.536,0.05-2.302,0.049c-0.767-0.02-1.535-0.058-2.299-0.14c-0.762-0.083-1.525-0.192-2.282-0.326
		c-0.757-0.137-1.509-0.304-2.248-0.511c-0.369-0.105-0.738-0.211-1.101-0.329c-0.181-0.058-0.362-0.119-0.539-0.186
		c-0.091-0.032-0.176-0.067-0.265-0.1c-0.02-0.007,0.001,0,0.002,0.001c0.006,0.004,0.011,0.01,0.012,0.009
		c0.005,0.004,0.005,0.006,0.001,0.002c-0.005-0.002-0.022-0.021-0.037-0.043c-0.069-0.096-0.142-0.26-0.202-0.425
		c-0.06-0.168-0.113-0.345-0.164-0.527c-0.095-0.363-0.181-0.739-0.257-1.117c-0.154-0.759-0.271-1.53-0.392-2.302
		c-0.244-1.544-0.435-3.102-0.73-4.651l-0.168,0.022c0.1,1.563,0.165,3.13,0.289,4.699c0.062,0.785,0.142,1.569,0.248,2.357
		c0.054,0.394,0.116,0.789,0.204,1.187c0.044,0.2,0.095,0.399,0.158,0.605c0.065,0.206,0.135,0.409,0.281,0.644
		c0.039,0.059,0.081,0.119,0.148,0.186c0.031,0.031,0.068,0.064,0.113,0.097c0.02,0.015,0.048,0.032,0.075,0.047
		c0.025,0.015,0.064,0.032,0.069,0.034c0.094,0.041,0.188,0.084,0.282,0.119c0.187,0.078,0.376,0.151,0.562,0.223
		c0.377,0.143,0.755,0.268,1.138,0.387c0.765,0.234,1.54,0.431,2.322,0.594c1.564,0.331,3.158,0.495,4.758,0.546
		c1.6,0.036,3.2-0.085,4.779-0.329c0.789-0.127,1.572-0.294,2.345-0.498c0.387-0.102,0.772-0.211,1.155-0.333
		c0.192-0.06,0.382-0.126,0.571-0.197c0.095-0.034,0.19-0.074,0.287-0.11c0.004-0.001,0.047-0.018,0.071-0.032
		c0.028-0.015,0.058-0.03,0.079-0.044c0.047-0.031,0.089-0.064,0.119-0.094c0.069-0.064,0.113-0.124,0.158-0.181
		c0.156-0.23,0.234-0.432,0.309-0.637c0.071-0.203,0.131-0.4,0.182-0.599c0.103-0.394,0.187-0.786,0.257-1.177
		c0.139-0.783,0.245-1.564,0.344-2.346c0.185-1.564,0.318-3.126,0.473-4.685L129.432,92.425z"/>
	
		<ellipse transform="matrix(0.0212 -0.9998 0.9998 0.0212 18.1108 214.6293)" class="st4" cx="118.67" cy="98.065" rx="3.122" ry="0.7"/>
	
		<ellipse transform="matrix(0.098 -0.9952 0.9952 0.098 16.4512 213.6329)" class="st4" cx="126.077" cy="97.741" rx="3.121" ry="0.7"/>
	
		<ellipse transform="matrix(0.0212 -0.9998 0.9998 0.0212 21.6424 218.3919)" class="st4" cx="122.357" cy="98.143" rx="3.122" ry="0.7"/>
	
		<ellipse transform="matrix(0.9984 -0.0558 0.0558 0.9984 -5.271 6.3486)" class="st4" cx="111.046" cy="97.559" rx="0.7" ry="3.121"/>
	
		<ellipse transform="matrix(0.0212 -0.9998 0.9998 0.0212 14.5761 210.8651)" class="st4" cx="114.98" cy="97.988" rx="3.122" ry="0.7"/>
	
		<linearGradient id="SVGID_2_" gradientUnits="userSpaceOnUse" x1="-3010.7407" y1="-750.1588" x2="-2972.8801" y2="-685.5834" gradientTransform="matrix(-0.3353 -0.942 -0.942 0.3353 -1556.3505 -2522.9683)">
		<stop  offset="0.0241" style="stop-color:#F26245"/>
		<stop  offset="0.4235" style="stop-color:#EF442F"/>
		<stop  offset="0.7648" style="stop-color:#EE2F28"/>
		<stop  offset="1" style="stop-color:#EC2527"/>
	</linearGradient>
	<path class="st6" d="M118.492,96.437c-5.598-0.118-11.193-1.909-13.449-2.983c-3.461-2.201-10.337-6.892-12.443-22.347
		c-3.355-24.626,17.796-60.309,27.702-60.097c9.903,0.209,29.527,36.755,25.131,61.218c-2.758,15.352-9.828,19.747-13.377,21.799
		C129.757,95.003,124.089,96.555,118.492,96.437z"/>
	<path class="st7" d="M102.434,30.121c10.295-1.174,14.505-1.419,17.622-1.354c3.117,0.065,3.494,0.262,17.548,2.099
		c-6.686-14.831-14.055-19.837-17.171-19.903C117.316,10.898,110.05,15.814,102.434,30.121z"/>
	
		<linearGradient id="SVGID_3_" gradientUnits="userSpaceOnUse" x1="-3031.5566" y1="-703.905" x2="-3018.5386" y2="-703.905" gradientTransform="matrix(-0.3353 -0.942 -0.942 0.3353 -1556.3505 -2522.9683)">
		<stop  offset="0" style="stop-color:#F8F07E"/>
		<stop  offset="0.1901" style="stop-color:#F9F07A"/>
		<stop  offset="0.442" style="stop-color:#F6EE6A"/>
		<stop  offset="0.7272" style="stop-color:#F6ED4B"/>
		<stop  offset="1" style="stop-color:#F5EB17"/>
	</linearGradient>
	<path class="st8" d="M141.202,85.033c-10.916,2.399-19.261,2.005-22.379,1.937c-3.117-0.065-8.849,0.554-22.276-2.883
		c6.817,8.56,10.032,12.673,22.077,12.304C132.234,95.974,133.715,93.163,141.202,85.033z"/>
	<polygon class="st9" points="120.726,19.224 119.271,21.63 116.464,21.799 118.305,23.924 117.596,26.648 120.188,25.553 
		122.557,27.067 122.318,24.265 124.491,22.48 121.752,21.842 	"/>
	<path class="st9" d="M109.453,21.213l2.739,0.638l-2.173,1.786l0.239,2.801l-2.371-1.515l-2.591,1.094l0.426-1.637
		c0.989-1.489,2.072-2.931,3.28-4.317L109.453,21.213z"/>
	<path class="st10" d="M128.968,87.059c7.98-17.59,5.564-40.88,3.768-57.137"/>
	<path class="st10" d="M108.301,86.532c-7.072-17.973-3.469-41.112-0.845-57.256"/>
	<path class="st9" d="M132.285,21.016c0.913,1.213,1.517,2.639,2.335,3.939l-0.153,0.126l0.239,2.801l-2.37-1.515l-2.59,1.094
		l0.709-2.721l-1.841-2.127l2.807-0.167L132.285,21.016z"/>
	<path class="st4" d="M125.294,94.55c1.102-0.193,2.198-0.432,3.276-0.717c1.074-0.282,2.152-0.617,3.123-1.017l-0.138,0.069
		c0.856-0.489,1.658-0.991,2.435-1.54l0.574-0.419c0.188-0.143,0.367-0.297,0.552-0.445c0.376-0.289,0.713-0.62,1.064-0.936
		c1.378-1.296,2.569-2.798,3.577-4.429c0.27-0.397,0.491-0.824,0.725-1.245l0.349-0.633c0.121-0.209,0.209-0.435,0.318-0.652
		l0.617-1.313l0.543-1.352c0.087-0.227,0.187-0.448,0.266-0.68l0.232-0.693l0.464-1.391l0.388-1.419l0.193-0.709l0.096-0.355
		l0.078-0.36l0.312-1.441c0.105-0.482,0.214-0.962,0.289-1.441c0.175-0.959,0.291-1.931,0.397-2.904
		c0.187-1.95,0.244-3.92,0.196-5.891c-0.115-3.945-0.633-7.891-1.45-11.779c-0.815-3.891-1.916-7.726-3.264-11.479
		c-0.671-1.876-1.4-3.733-2.187-5.566c-0.793-1.83-1.648-3.632-2.558-5.407c-1.835-3.536-3.877-6.983-6.323-10.117
		c-1.227-1.559-2.538-3.057-4.019-4.345c-0.74-0.643-1.522-1.234-2.361-1.696l-0.315-0.17c-0.106-0.053-0.214-0.1-0.321-0.151
		c-0.213-0.107-0.435-0.176-0.654-0.262c-0.443-0.14-0.894-0.235-1.341-0.252c-0.447-0.001-0.902,0.075-1.351,0.196
		c-0.222,0.076-0.447,0.137-0.665,0.235c-0.11,0.046-0.22,0.087-0.328,0.137l-0.321,0.158c-0.858,0.426-1.664,0.984-2.431,1.595
		c-1.535,1.224-2.908,2.668-4.199,4.173c-2.577,3.025-4.761,6.385-6.746,9.839c-0.984,1.734-1.915,3.499-2.785,5.292
		c-0.863,1.798-1.669,3.622-2.421,5.468c-1.504,3.69-2.767,7.478-3.747,11.33c-0.982,3.849-1.665,7.772-1.948,11.707
		c-0.133,1.967-0.159,3.939-0.054,5.893c0.064,0.977,0.14,1.953,0.272,2.918c0.054,0.483,0.143,0.967,0.227,1.452l0.25,1.453
		l0.063,0.363l0.081,0.36l0.164,0.717l0.328,1.434l0.404,1.408l0.203,0.703c0.07,0.233,0.159,0.459,0.238,0.69l0.484,1.374
		l0.562,1.338c0.097,0.22,0.177,0.451,0.289,0.664l0.321,0.647c0.216,0.43,0.418,0.867,0.671,1.275
		c0.936,1.673,2.063,3.223,3.386,4.577c0.337,0.331,0.661,0.676,1.023,0.98c0.177,0.155,0.351,0.317,0.533,0.469l0.554,0.443
		c0.753,0.58,1.532,1.117,2.367,1.642l-0.134-0.075c0.953,0.44,2.015,0.819,3.078,1.147c1.067,0.329,2.152,0.615,3.244,0.855
		c2.185,0.483,4.409,0.771,6.614,0.825C120.855,95.134,123.089,94.94,125.294,94.55z M111.484,96.768
		c-1.161-0.261-2.311-0.568-3.45-0.926c-1.14-0.361-2.26-0.759-3.403-1.292l-0.065-0.031l-0.07-0.044
		c-0.862-0.544-1.737-1.15-2.561-1.809l-0.615-0.504c-0.202-0.172-0.394-0.356-0.591-0.532c-0.402-0.347-0.762-0.738-1.134-1.116
		c-1.463-1.538-2.689-3.282-3.685-5.122c-0.27-0.451-0.484-0.926-0.713-1.397l-0.339-0.706c-0.117-0.233-0.201-0.479-0.303-0.719
		c-0.193-0.482-0.392-0.963-0.578-1.447l-0.485-1.474c-0.079-0.248-0.167-0.49-0.236-0.739l-0.197-0.746l-0.397-1.494l-0.313-1.508
		l-0.154-0.755l-0.078-0.377l-0.058-0.381l-0.23-1.517c-0.076-0.505-0.158-1.009-0.206-1.525c-0.121-1.026-0.176-2.053-0.218-3.08
		c-0.058-2.054,0.02-4.101,0.207-6.135c0.392-4.063,1.196-8.061,2.293-11.962c2.208-7.8,5.46-15.259,9.528-22.232
		c2.052-3.478,4.33-6.831,6.961-9.917c1.328-1.532,2.739-3.005,4.351-4.279c0.805-0.634,1.66-1.223,2.601-1.686l0.355-0.171
		c0.121-0.053,0.244-0.1,0.366-0.151c0.241-0.108,0.503-0.176,0.755-0.261c0.52-0.138,1.062-0.228,1.62-0.223
		c0.558,0.018,1.095,0.131,1.608,0.292c0.249,0.095,0.506,0.176,0.743,0.293c0.119,0.057,0.243,0.108,0.36,0.166l0.347,0.186
		c0.92,0.504,1.75,1.127,2.529,1.794c1.557,1.341,2.903,2.872,4.165,4.46c2.498,3.196,4.633,6.642,6.535,10.203
		c3.77,7.14,6.704,14.729,8.578,22.615c0.932,3.944,1.565,7.972,1.786,12.048c0.102,2.038,0.094,4.089-0.053,6.138
		c-0.084,1.023-0.186,2.049-0.349,3.068c-0.07,0.514-0.171,1.012-0.27,1.515l-0.293,1.506l-0.074,0.377l-0.092,0.373l-0.186,0.748
		l-0.377,1.494l-0.458,1.475L144.712,80c-0.079,0.245-0.18,0.484-0.267,0.728l-0.548,1.452c-0.207,0.477-0.425,0.95-0.638,1.421
		c-0.112,0.235-0.206,0.477-0.333,0.706l-0.368,0.69c-0.248,0.459-0.482,0.926-0.771,1.366c-1.075,1.796-2.373,3.485-3.899,4.96
		c-0.387,0.362-0.765,0.737-1.18,1.067c-0.204,0.169-0.404,0.344-0.613,0.507l-0.634,0.477c-0.851,0.626-1.75,1.191-2.634,1.7
		l-0.071,0.042l-0.065,0.027c-1.164,0.484-2.299,0.834-3.453,1.147c-1.153,0.31-2.314,0.568-3.487,0.78
		c-2.343,0.425-4.729,0.648-7.145,0.616C116.181,97.617,113.805,97.292,111.484,96.768z"/>
	<path class="st4" d="M96.522,84.169c3.548,1.292,7.236,2.21,10.968,2.845c1.865,0.329,3.748,0.554,5.632,0.743
		c1.887,0.175,3.78,0.275,5.674,0.326c1.894,0.027,3.79,0.009,5.684-0.087c1.892-0.108,3.782-0.254,5.659-0.504
		c3.755-0.477,7.48-1.237,11.08-2.377l-0.041-0.164c-3.708,0.659-7.423,1.155-11.151,1.453c-1.865,0.138-3.729,0.259-5.598,0.301
		c-1.868,0.057-3.736,0.07-5.603,0.02c-1.868-0.03-3.733-0.123-5.598-0.259c-1.865-0.121-3.723-0.32-5.58-0.538
		c-3.713-0.456-7.403-1.11-11.08-1.925L96.522,84.169z"/>
	<path class="st4" d="M137.623,30.785c-2.828-0.889-5.739-1.512-8.677-1.948c-2.937-0.443-5.906-0.681-8.878-0.748
		c-2.971-0.06-5.946,0.053-8.901,0.371c-2.952,0.31-5.888,0.809-8.751,1.578l0.031,0.166c2.945-0.283,5.872-0.521,8.802-0.654
		c2.931-0.127,5.861-0.168,8.79-0.103c2.929,0.062,5.855,0.227,8.777,0.477c2.924,0.259,5.839,0.621,8.767,1.026L137.623,30.785z"/>
	<g>
		
			<linearGradient id="SVGID_4_" gradientUnits="userSpaceOnUse" x1="-3069.4888" y1="-724.3965" x2="-3011.8684" y2="-724.3965" gradientTransform="matrix(-0.3353 -0.942 -0.942 0.3353 -1556.3505 -2522.9683)">
			<stop  offset="0" style="stop-color:#FCEE23"/>
			<stop  offset="0.6376" style="stop-color:#3C55A4"/>
			<stop  offset="0.929" style="stop-color:#3C55A4"/>
		</linearGradient>
		<path class="st11" d="M151.087,65.92c-4.078,27.415-15.367,30.328-15.367,30.328s11.464,6.053,3.084,35.2
			C165.169,95.991,158.549,77.067,151.087,65.92z"/>
		<path class="st4" d="M151.324,65.885c0.108,0.092,0.211,0.203,0.293,0.315l0.341,0.489c0.213,0.309,0.421,0.622,0.622,0.94
			c0.404,0.633,0.797,1.275,1.168,1.93s0.728,1.319,1.063,1.995c0.329,0.679,0.638,1.368,0.929,2.064
			c0.579,1.397,1.057,2.835,1.448,4.298c0.192,0.733,0.366,1.471,0.503,2.216c0.078,0.371,0.132,0.745,0.198,1.118
			c0.053,0.376,0.116,0.749,0.159,1.124c0.192,1.503,0.282,3.019,0.281,4.532c0.001,1.514-0.085,3.026-0.252,4.529
			c-0.334,3.004-0.973,5.964-1.826,8.849c-0.866,2.883-1.93,5.699-3.157,8.438c-0.613,1.368-1.266,2.719-1.953,4.052
			c-0.337,0.669-0.696,1.326-1.048,1.988c-0.366,0.654-0.718,1.314-1.095,1.96c-0.737,1.303-1.516,2.581-2.301,3.854
			c-0.794,1.269-1.612,2.519-2.456,3.753c-1.681,2.471-3.433,4.892-5.264,7.249l-0.717,0.922l0.335-1.112l0,0
			c0.831-2.988,1.547-6.008,2.065-9.06c0.514-3.052,0.852-6.135,0.86-9.221c0.006-3.078-0.297-6.174-1.189-9.098
			c-0.45-1.457-1.046-2.867-1.842-4.149c-0.398-0.64-0.845-1.246-1.346-1.798c-0.251-0.276-0.515-0.537-0.793-0.778
			c-0.138-0.121-0.281-0.235-0.426-0.342c-0.071-0.053-0.145-0.105-0.218-0.154c-0.069-0.047-0.155-0.1-0.204-0.127l0,0
			l-0.802-0.627l0.903-0.243c0.05-0.015,0.142-0.044,0.216-0.071l0.236-0.092c0.159-0.067,0.315-0.139,0.472-0.218
			c0.312-0.159,0.62-0.331,0.916-0.523c0.596-0.382,1.168-0.814,1.707-1.286c1.078-0.946,2.046-2.026,2.918-3.179
			c0.873-1.154,1.648-2.388,2.351-3.66c0.176-0.318,0.355-0.636,0.515-0.963c0.163-0.326,0.334-0.648,0.49-0.978
			c0.305-0.661,0.618-1.322,0.893-1.998c0.293-0.668,0.547-1.355,0.808-2.036c0.137-0.339,0.245-0.688,0.368-1.033l0.356-1.037
			c0.213-0.7,0.446-1.393,0.644-2.099l0.296-1.058l0.148-0.528l0.133-0.532c0.366-1.419,0.687-2.849,0.977-4.286l0.209-1.079
			l0.105-0.541l0.053-0.276l0.053-0.302c0.074-0.404,0.161-0.817,0.262-1.213l0.301-1.145
			C151.113,65.721,151.217,65.793,151.324,65.885z M151.095,67.219c-0.016,0.329-0.044,0.644-0.089,0.964l-0.036,0.241
			c-0.012,0.081-0.032,0.18-0.047,0.267l-0.1,0.544l-0.197,1.089c-0.276,1.45-0.583,2.894-0.935,4.329l-0.129,0.538l-0.143,0.535
			l-0.287,1.07c-0.192,0.714-0.42,1.419-0.627,2.128l-0.35,1.053c-0.119,0.35-0.228,0.704-0.362,1.051
			c-0.257,0.693-0.506,1.392-0.796,2.075c-0.27,0.69-0.581,1.365-0.884,2.042c-0.155,0.337-0.326,0.668-0.488,1.001
			c-0.159,0.335-0.336,0.663-0.514,0.99c-0.703,1.31-1.484,2.584-2.372,3.786c-0.889,1.201-1.882,2.335-3.004,3.344
			c-0.564,0.502-1.163,0.969-1.801,1.387c-0.318,0.211-0.65,0.403-0.991,0.583c-0.171,0.089-0.346,0.172-0.526,0.251
			c-0.091,0.038-0.182,0.075-0.276,0.112c-0.099,0.036-0.181,0.068-0.307,0.102l0.102-0.872l0,0
			c0.121,0.069,0.197,0.119,0.289,0.181c0.087,0.06,0.172,0.121,0.255,0.185c0.165,0.126,0.324,0.259,0.477,0.394
			c0.307,0.272,0.589,0.563,0.858,0.865c0.536,0.606,1.005,1.262,1.418,1.947c0.826,1.372,1.429,2.855,1.873,4.373
			c0.443,1.52,0.725,3.077,0.895,4.638c0.086,0.782,0.143,1.564,0.174,2.349c0.034,0.783,0.041,1.568,0.026,2.35
			c-0.05,3.133-0.435,6.243-0.995,9.311c-0.565,3.068-1.324,6.094-2.2,9.082l0,0l-0.382-0.19c3.453-4.85,6.706-9.842,9.559-15.049
			c0.362-0.648,0.7-1.308,1.049-1.963c0.335-0.661,0.68-1.318,1.001-1.987c0.656-1.329,1.273-2.676,1.857-4.036
			c1.182-2.713,2.201-5.497,3.02-8.332c0.823-2.834,1.435-5.726,1.745-8.65c0.154-1.461,0.241-2.929,0.248-4.396
			c0.011-1.467-0.084-2.931-0.24-4.39c-0.331-2.912-1.016-5.784-2.048-8.538c-0.516-1.377-1.113-2.724-1.775-4.045
			c-0.329-0.659-0.684-1.309-1.049-1.952c-0.182-0.321-0.372-0.64-0.558-0.961l-0.144-0.238l-0.071-0.119l-0.033-0.058
			c-0.006-0.011-0.012-0.022-0.017-0.033c-0.02-0.044-0.02-0.087-0.015-0.151c0.005-0.063,0.006-0.148-0.01-0.236
			C151.124,66.544,151.113,66.89,151.095,67.219z"/>
	</g>
	<g>
		
			<linearGradient id="SVGID_5_" gradientUnits="userSpaceOnUse" x1="-3054.6287" y1="-673.7623" x2="-2989.2678" y2="-673.7623" gradientTransform="matrix(-0.3353 -0.942 -0.942 0.3353 -1556.3505 -2522.9683)">
			<stop  offset="0" style="stop-color:#FCEE23"/>
			<stop  offset="0.6376" style="stop-color:#3C55A4"/>
			<stop  offset="0.929" style="stop-color:#3C55A4"/>
		</linearGradient>
		<path class="st12" d="M87.478,64.574c2.914,27.562,14.068,30.952,14.068,30.952s-11.709,5.563-4.571,35.038
			C72.136,94.022,79.553,75.396,87.478,64.574z"/>
		<g>
			<path class="st4" d="M87.388,65.072c0.002,0.064,0,0.106-0.02,0.15c-0.006,0.011-0.012,0.021-0.02,0.033l-0.037,0.057
				l-0.075,0.117l-0.153,0.233c-0.2,0.313-0.402,0.622-0.597,0.936c-0.393,0.627-0.773,1.261-1.131,1.905
				c-0.717,1.291-1.371,2.612-1.944,3.966c-1.149,2.707-1.956,5.546-2.409,8.442c-0.218,1.448-0.374,2.908-0.426,4.375
				c-0.055,1.466-0.03,2.936,0.06,4.403c0.188,2.934,0.675,5.85,1.377,8.716c0.698,2.867,1.597,5.69,2.664,8.453
				c0.526,1.384,1.085,2.756,1.685,4.112c0.292,0.682,0.608,1.352,0.915,2.026c0.32,0.669,0.631,1.342,0.964,2.005
				c2.63,5.323,5.668,10.449,8.912,15.44l-0.39,0.172l0,0c-0.749-3.022-1.379-6.078-1.814-9.167c-0.431-3.088-0.682-6.212-0.6-9.346
				c0.02-0.783,0.059-1.565,0.126-2.347c0.064-0.782,0.154-1.563,0.272-2.339c0.236-1.553,0.583-3.096,1.091-4.595
				c0.51-1.498,1.174-2.953,2.057-4.29c0.442-0.666,0.938-1.302,1.499-1.884c0.281-0.291,0.578-0.57,0.894-0.828
				c0.158-0.129,0.321-0.255,0.493-0.373c0.085-0.058,0.172-0.117,0.262-0.174c0.095-0.058,0.172-0.106,0.297-0.169l0,0l0.065,0.873
				c-0.123-0.041-0.206-0.076-0.303-0.116c-0.091-0.041-0.182-0.081-0.271-0.124c-0.176-0.086-0.347-0.176-0.516-0.272
				c-0.334-0.193-0.658-0.4-0.967-0.623c-0.618-0.445-1.198-0.936-1.739-1.462c-1.079-1.056-2.022-2.23-2.86-3.467
				c-0.838-1.238-1.563-2.545-2.21-3.882c-0.164-0.334-0.326-0.668-0.47-1.011c-0.148-0.341-0.304-0.679-0.443-1.022
				c-0.275-0.688-0.557-1.376-0.798-2.077c-0.261-0.693-0.479-1.403-0.707-2.106c-0.119-0.351-0.211-0.709-0.317-1.064l-0.304-1.068
				c-0.177-0.717-0.376-1.431-0.537-2.153l-0.241-1.083l-0.119-0.542l-0.106-0.543c-0.291-1.448-0.537-2.904-0.751-4.365
				l-0.151-1.096l-0.075-0.547c-0.012-0.09-0.027-0.187-0.036-0.27l-0.026-0.244c-0.031-0.324-0.044-0.638-0.048-0.969
				c-0.002-0.329,0.001-0.675-0.007-1.033C87.388,64.925,87.386,65.008,87.388,65.072z M87.801,65.469
				c0.084,0.4,0.155,0.817,0.212,1.224l0.039,0.304l0.041,0.278l0.081,0.544l0.163,1.088c0.229,1.448,0.49,2.891,0.794,4.323
				l0.11,0.538l0.126,0.536l0.251,1.068c0.168,0.713,0.371,1.415,0.554,2.123l0.312,1.051c0.108,0.35,0.203,0.703,0.324,1.047
				c0.232,0.692,0.457,1.388,0.721,2.068c0.245,0.688,0.53,1.358,0.807,2.033c0.142,0.335,0.299,0.665,0.448,0.998
				c0.147,0.335,0.309,0.659,0.473,0.984c0.648,1.302,1.37,2.567,2.195,3.758c0.825,1.19,1.745,2.309,2.782,3.3
				c0.52,0.494,1.072,0.951,1.652,1.357c0.289,0.204,0.589,0.39,0.893,0.563c0.153,0.084,0.307,0.165,0.462,0.238l0.232,0.102
				c0.074,0.03,0.163,0.064,0.213,0.08l0.892,0.282l-0.828,0.594l0,0c-0.05,0.025-0.139,0.074-0.209,0.117
				c-0.075,0.044-0.15,0.095-0.225,0.144c-0.149,0.102-0.297,0.209-0.44,0.325c-0.288,0.227-0.562,0.479-0.824,0.744
				c-0.523,0.53-0.998,1.117-1.421,1.739c-0.851,1.246-1.506,2.631-2.015,4.067c-1.014,2.883-1.447,5.964-1.574,9.039
				c-0.123,3.082,0.083,6.178,0.469,9.249c0.39,3.072,0.975,6.119,1.681,9.139l0,0l0.288,1.126l-0.679-0.953
				c-1.73-2.432-3.377-4.926-4.952-7.465c-0.791-1.269-1.554-2.554-2.293-3.854c-0.73-1.306-1.455-2.615-2.136-3.949
				c-0.35-0.663-0.675-1.336-1.012-2.004c-0.321-0.676-0.654-1.347-0.963-2.03c-0.629-1.358-1.227-2.737-1.781-4.13
				c-1.11-2.788-2.054-5.647-2.797-8.565c-0.732-2.919-1.244-5.903-1.451-8.919c-0.105-1.508-0.126-3.022-0.062-4.535
				c0.063-1.512,0.217-3.022,0.473-4.516c0.059-0.374,0.138-0.744,0.207-1.117c0.083-0.371,0.154-0.743,0.246-1.108
				c0.169-0.739,0.376-1.469,0.596-2.192c0.453-1.445,0.99-2.862,1.629-4.233c0.32-0.684,0.659-1.36,1.016-2.025
				c0.361-0.663,0.746-1.31,1.144-1.948s0.817-1.264,1.249-1.879c0.214-0.309,0.436-0.612,0.66-0.911l0.361-0.475
				c0.087-0.107,0.195-0.216,0.307-0.303c0.112-0.089,0.218-0.155,0.308-0.217L87.801,65.469z"/>
		</g>
	</g>
	<g class="st13">
		<path class="st9" d="M141.732,116.909c0.961-0.644,1.845-1.397,2.665-2.216c0.817-0.821,1.592-1.698,2.178-2.738
			c0.071-0.131,0.144-0.261,0.201-0.404l0.092-0.209c0.028-0.071,0.048-0.148,0.074-0.223c0.021-0.076,0.052-0.148,0.064-0.228
			l0.037-0.243c0.016-0.085,0.014-0.154,0.015-0.228l0.005-0.219l0.011-0.437l-0.009-0.436l-0.009-0.436l-0.027-0.435
			c-0.075-1.158-0.214-2.311-0.441-3.446c-0.047-0.287-0.117-0.567-0.177-0.85c-0.064-0.282-0.121-0.567-0.2-0.845l-0.222-0.839
			c-0.079-0.278-0.171-0.553-0.256-0.829l-0.131-0.414l-0.148-0.409l-0.294-0.817l-0.328-0.802
			c-0.108-0.267-0.217-0.536-0.342-0.796l-0.366-0.786c-0.119-0.264-0.264-0.515-0.393-0.772c-0.134-0.255-0.265-0.515-0.41-0.762
			l-0.443-0.744l-0.22-0.371l-0.238-0.362l-0.479-0.72c-0.154-0.244-0.339-0.466-0.51-0.7l-0.52-0.69l-0.14,0.108
			c0.32,0.474,0.654,0.94,0.963,1.419l0.452,0.728l0.224,0.365l0.206,0.376l0.413,0.749c0.137,0.25,0.252,0.512,0.383,0.766
			c0.124,0.257,0.261,0.507,0.373,0.77l0.344,0.783c0.119,0.259,0.22,0.526,0.324,0.792l0.308,0.798l0.273,0.809l0.137,0.405
			l0.119,0.409c0.337,1.089,0.596,2.2,0.81,3.317c0.217,1.117,0.345,2.251,0.41,3.383l0.023,0.425l0.006,0.425l0.006,0.425
			l-0.012,0.424l-0.006,0.211c-0.002,0.07-0.002,0.145-0.015,0.202l-0.026,0.182c-0.009,0.062-0.036,0.124-0.052,0.186
			c-0.02,0.062-0.036,0.126-0.059,0.186l-0.081,0.186c-0.048,0.126-0.113,0.246-0.18,0.366c-0.532,0.969-1.266,1.852-2.021,2.698
			c-0.772,0.835-1.591,1.631-2.469,2.362L141.732,116.909z"/>
	</g>
	<g class="st13">
		<path class="st9" d="M94.883,115.841c-0.849-0.765-1.636-1.592-2.373-2.458c-0.722-0.873-1.421-1.786-1.914-2.775
			c-0.062-0.124-0.122-0.248-0.165-0.376l-0.074-0.19c-0.021-0.064-0.034-0.126-0.052-0.19c-0.014-0.063-0.039-0.126-0.044-0.188
			l-0.02-0.182c-0.011-0.058-0.006-0.132-0.006-0.202l0.002-0.211l0.002-0.425l0.023-0.424l0.023-0.424l0.039-0.425
			c0.11-1.129,0.283-2.256,0.543-3.365c0.259-1.108,0.562-2.207,0.942-3.282l0.135-0.405l0.151-0.399l0.305-0.799l0.339-0.786
			c0.112-0.262,0.224-0.525,0.355-0.778l0.376-0.769c0.122-0.257,0.27-0.502,0.404-0.755c0.139-0.248,0.266-0.505,0.414-0.749
			l0.442-0.733l0.222-0.367l0.239-0.356l0.48-0.711c0.328-0.467,0.68-0.919,1.019-1.379l-0.137-0.112l-0.547,0.669
			c-0.179,0.225-0.373,0.441-0.536,0.679l-0.507,0.701l-0.254,0.351l-0.235,0.362l-0.472,0.727c-0.155,0.244-0.294,0.495-0.44,0.745
			c-0.14,0.252-0.296,0.498-0.425,0.755l-0.397,0.771c-0.137,0.254-0.255,0.519-0.376,0.781l-0.36,0.789l-0.326,0.803l-0.163,0.402
			l-0.147,0.408c-0.096,0.272-0.198,0.543-0.289,0.818l-0.254,0.829c-0.091,0.276-0.158,0.557-0.232,0.835
			c-0.071,0.28-0.154,0.558-0.212,0.842c-0.272,1.126-0.457,2.271-0.578,3.425l-0.043,0.434l-0.027,0.436l-0.026,0.435l-0.006,0.438
			l-0.002,0.218c-0.001,0.074-0.006,0.142,0.007,0.228l0.027,0.245c0.009,0.081,0.036,0.154,0.054,0.232
			c0.021,0.075,0.038,0.154,0.064,0.225l0.083,0.213c0.052,0.144,0.119,0.277,0.186,0.411c0.543,1.064,1.285,1.968,2.068,2.822
			c0.787,0.85,1.642,1.638,2.577,2.32L94.883,115.841z"/>
	</g>
	
		<ellipse transform="matrix(0.9421 -0.3353 0.3353 0.9421 -3.2952 46.0224)" class="st14" cx="131.635" cy="32.554" rx="0.429" ry="0.429"/>
	
		<ellipse transform="matrix(0.9421 -0.3353 0.3353 0.9421 -4.9825 46.4383)" class="st14" cx="131.996" cy="37.649" rx="0.429" ry="0.429"/>
	
		<ellipse transform="matrix(0.9421 -0.3353 0.3353 0.9421 -6.7798 46.8686)" class="st14" cx="132.344" cy="43.069" rx="0.429" ry="0.429"/>
	
		<ellipse transform="matrix(0.0388 -0.9992 0.9992 0.0388 45.9879 205.7325)" class="st14" cx="129.932" cy="78.962" rx="0.429" ry="0.429"/>
	
		<ellipse transform="matrix(0.0388 -0.9992 0.9992 0.0388 39.3783 208.8929)" class="st14" cx="128.27" cy="83.978" rx="0.429" ry="0.429"/>
	
		<ellipse transform="matrix(0.3809 -0.9246 0.9246 0.3809 37.7978 120.1277)" class="st14" cx="108.604" cy="31.838" rx="0.429" ry="0.429"/>
	
		<ellipse transform="matrix(0.3809 -0.9246 0.9246 0.3809 32.7302 122.7005)" class="st14" cx="107.991" cy="36.909" rx="0.429" ry="0.429"/>
	
		<ellipse transform="matrix(0.3809 -0.9246 0.9246 0.3809 27.36 125.473)" class="st14" cx="107.377" cy="42.306" rx="0.429" ry="0.429"/>
	<ellipse transform="matrix(0.0099 -1 1 0.0099 29.0896 185.6467)" class="st14" cx="108.292" cy="78.134" rx="0.429" ry="0.429"/>
	<ellipse transform="matrix(0.0099 -1 1 0.0099 25.3981 192.1044)" class="st14" cx="109.707" cy="83.227" rx="0.429" ry="0.429"/>
	<path class="st15" d="M111.061,96.693l3.1-0.717c0,0,3.461,0.597,3.067-0.533c-0.134-0.385-2.993-3.213-5.531-14.446
		c-0.254-1.123-0.537-2.769-0.828-4.633c-0.053-0.342,1.064,0.602,1.011,0.248c-0.174-1.155-0.05-3.522-0.22-4.729
		c-0.033-0.239-1.591-1.028-1.625-1.267c-0.028-0.204,0,0-0.027-0.203c-1.665-0.709-4.85-5.183-4.729-10.55
		c0.148-6.694,3.11-8.849,4.829-10.778c0.015-0.186,0.012-0.176,0,0c-0.039,0.544,1.186-0.744,1.2-0.968
		c0.041-0.724,0.256-3.66,0.314-4.34c0.034-0.405-1.155,0.738-1.091,0.314c0.034-0.22,0,0,0.044-0.232
		c0.473-0.682,5.069-2.548,11.57-1.838c-3.933-1.591-8.434-1.998-11.045-1.714c3.059-17.547,9.299-21.579,16.42-25.088
		C115.657-1.916,98.548,36.573,95.894,46.31c-2.521,9.246-4.929,20.224-3.556,27.703c0.45,2.45,1.248,4.902,2.303,7.238
		c3.168,7.005,8.206,11.995,13.625,13.504c0.468,4.845,0.23,3.732,0.23,3.732S109.087,97.491,111.061,96.693z"/>
	<polygon class="st15" points="91.817,83.755 89.201,75.071 93.778,73.513 94.641,81.251 	"/>
	<path class="st15" d="M90.297,79.488c-6.547,3.921-6.691,12.899-6.037,27.693c-5.519-15.5-7.472-26.054,3.219-42.608
		C87.96,72.923,90.297,79.488,90.297,79.488z"/>
	<path class="st15" d="M142.746,83.602c0,0,1.695,1.557,2.43,2.591c1.953-4.149,3.754-9.878,3.754-9.878l-3.918-1.5L142.746,83.602z
		"/>
	<path class="st15" d="M147.128,82.044c2.148,2.88,6.903,14.884,5.757,25.801c5.997-17.223,5.739-23.405,3.869-29.363
		c-1.807-5.753-5.667-12.561-5.667-12.561L147.128,82.044z"/>
	<path class="st15" d="M128.431,99.201c-0.477-1.685-1.62-2.584-2.829-2.505c2.479-1.041,3.541-1.7,3.541-1.7L128.431,99.201z"/>
	<polygon class="st15" points="91.817,83.755 89.201,75.071 93.778,73.513 94.641,81.251 	"/>
	<path class="st15" d="M90.297,79.488c-6.547,3.921-6.691,12.899-6.037,27.693c-5.519-15.5-7.27-26.408,3.219-42.608
		C87.96,72.923,90.297,79.488,90.297,79.488z"/>
	<path class="st15" d="M142.746,83.602c0,0,1.695,1.557,2.43,2.591c1.953-4.149,3.754-9.878,3.754-9.878l-3.918-1.5L142.746,83.602z
		"/>
	<path class="st15" d="M147.128,82.044c2.148,2.88,6.903,14.884,5.757,25.801c5.997-17.223,5.739-23.405,3.869-29.363
		c-1.807-5.753-5.667-12.561-5.667-12.561L147.128,82.044z"/>
	<path class="st15" d="M128.431,99.201c-0.477-1.685-1.62-2.584-2.829-2.505c2.479-1.041,3.541-1.7,3.541-1.7L128.431,99.201z"/>
	
		<ellipse transform="matrix(0.0212 -0.9998 0.9998 0.0212 56.3418 177.9823)" class="st16" cx="119.069" cy="60.217" rx="18.355" ry="18.355"/>
	<g class="st17">
		<path class="st18" d="M104.338,60.193c0.211-9.972,8.467-17.884,18.438-17.673c0.556,0.012,1.102,0.057,1.644,0.118
			c-1.462-0.41-2.99-0.666-4.578-0.7c-10.135-0.215-18.525,7.827-18.74,17.962c-0.215,10.135,7.827,18.525,17.962,18.74
			c0.687,0.015,1.363-0.016,2.032-0.075C111.563,77.883,104.133,69.856,104.338,60.193z"/>
	</g>
	<g>
		
			<ellipse transform="matrix(0.0212 -0.9998 0.9998 0.0212 56.8436 178.0198)" class="st4" cx="119.339" cy="59.979" rx="14.122" ry="14.122"/>
		<g>
			<path class="st3" d="M128.492,53.552l-14.71,16.031c1.743,1.191,3.793,1.858,5.953,1.904c0.468,0.007,0.928-0.024,1.385-0.072
				l9.844-10.727C131.01,58.062,130.136,55.564,128.492,53.552z"/>
			<path class="st3" d="M123.188,49.977l-13.42,14.626c0.368,0.912,0.859,1.773,1.467,2.565l14.635-15.949
				C125.033,50.685,124.135,50.265,123.188,49.977z"/>
		</g>
		<g>
			
				<ellipse transform="matrix(0.0212 -0.9998 0.9998 0.0212 73.0387 162.312)" class="st4" cx="119.412" cy="43.855" rx="0.871" ry="0.871"/>
			
				<ellipse transform="matrix(0.0212 -0.9998 0.9998 0.0212 39.9401 193.3739)" class="st4" cx="118.732" cy="76.288" rx="0.871" ry="0.871"/>
			
				<ellipse transform="matrix(0.0212 -0.9998 0.9998 0.0212 72.0306 194.3913)" class="st4" cx="135.291" cy="60.41" rx="0.871" ry="0.871"/>
			
				<ellipse transform="matrix(0.0212 -0.9998 0.9998 0.0212 40.9627 161.2978)" class="st4" cx="102.856" cy="59.729" rx="0.871" ry="0.871"/>
			
				<ellipse transform="matrix(0.7219 -0.692 0.692 0.7219 2.5155 104.049)" class="st4" cx="130.719" cy="48.895" rx="0.871" ry="0.871"/>
			
				<ellipse transform="matrix(0.7219 -0.692 0.692 0.7219 -19.5273 94.0996)" class="st4" cx="107.302" cy="71.343" rx="0.871" ry="0.871"/>
			
				<ellipse transform="matrix(0.7219 -0.692 0.692 0.7219 -13.4846 110.104)" class="st4" cx="130.234" cy="71.828" rx="0.871" ry="0.871"/>
			
				<ellipse transform="matrix(0.7219 -0.692 0.692 0.7219 -3.5241 88.0511)" class="st4" cx="107.787" cy="48.41" rx="0.871" ry="0.871"/>
		</g>
		<path class="st4" d="M101.852,52.748c1.009-2.234,2.462-4.261,4.24-5.931c3.542-3.366,8.419-5.263,13.298-5.149
			c2.436,0.037,4.869,0.554,7.11,1.525c2.244,0.967,4.301,2.373,6.013,4.128c1.713,1.753,3.094,3.84,4.015,6.126
			c0.926,2.283,1.39,4.758,1.371,7.232c-0.023,2.474-0.533,4.952-1.509,7.239c-0.974,2.288-2.402,4.391-4.191,6.135
			c-1.791,1.74-3.924,3.136-6.255,4.057c-2.33,0.921-4.846,1.372-7.353,1.329c-1.253-0.03-2.504-0.179-3.729-0.45
			c-1.225-0.272-2.419-0.676-3.562-1.186c-2.283-1.033-4.345-2.531-6.042-4.353c-3.393-3.654-5.243-8.644-5.056-13.568
			C100.281,57.422,100.84,54.981,101.852,52.748z M102.409,66.742c0.883,2.158,2.202,4.123,3.834,5.763
			c3.256,3.304,7.79,5.21,12.383,5.306c2.297,0.058,4.603-0.335,6.748-1.161c2.145-0.821,4.137-2.064,5.814-3.649
			c1.679-1.581,3.062-3.488,4.019-5.6c0.961-2.109,1.498-4.413,1.576-6.743c0.08-2.329-0.298-4.678-1.121-6.869
			c-0.822-2.191-2.08-4.228-3.69-5.944c-1.612-1.713-3.564-3.116-5.72-4.082c-2.154-0.966-4.505-1.495-6.872-1.56
			c-2.367-0.05-4.744,0.362-6.95,1.221c-2.203,0.866-4.226,2.182-5.923,3.827c-1.689,1.654-3.047,3.637-3.97,5.801
			c-0.926,2.164-1.41,4.507-1.436,6.85C101.086,62.245,101.531,64.584,102.409,66.742z"/>
	</g>
</g>
</svg>
