<?xml version="1.0" encoding="utf-8"?>
<!-- Generator: Adobe Illustrator 21.1.0, SVG Export Plug-In . SVG Version: 6.00 Build 0)  -->
<svg version="1.1" id="Layer_1" xmlns="http://www.w3.org/2000/svg" xmlns:xlink="http://www.w3.org/1999/xlink" x="0px" y="0px"
	 viewBox="0 0 170 55" style="enable-background:new 0 0 170 55;" xml:space="preserve">
<style type="text/css">
	.st0{fill:#FFFFFF;}
</style>
<polygon class="st0" points="130.326,55 130.328,54.995 130.326,54.998 "/>
<path class="st0" d="M92.52,28.428l-0.002,0.007C92.52,28.43,92.518,28.435,92.52,28.428L92.52,28.428z"/>
<polygon class="st0" points="92.51,28.45 92.51,28.45 92.51,28.448 "/>
<path class="st0" d="M148.135,23.844c-1.858-0.457-3.684-0.841-5.518-0.952c-1.519-4.496-5.135-8.202-10.037-9.625
	c-6.394-1.857-13.022,0.733-16.584,5.947c-2.593-1.621-5.655-2.563-8.939-2.563c-5.772,0-10.864,2.898-13.909,7.316
	c-0.908-0.206-1.848-0.325-2.819-0.325c-5.639,0-10.412,3.684-12.058,8.775c-6.633,0.16-12.686,4.562-14.635,11.273
	c-1.139,3.92-0.671,7.923,1.01,11.312h95.096h2.063c1.462-3.403,2.243-6.967,2.243-10.639
	C164.047,40.669,161.514,27.134,148.135,23.844z M108.122,27.829c-0.205-0.042-0.396-0.101-0.603-0.12l-0.302-0.04l-0.305-0.01
	c-0.2-0.014-0.401,0.014-0.6,0.023c-0.199,0.014-0.393,0.059-0.587,0.089c-0.19,0.059-0.383,0.09-0.565,0.169
	c-0.184,0.07-0.366,0.138-0.538,0.228c-0.178,0.077-0.343,0.186-0.508,0.287c-0.165,0.101-0.313,0.23-0.469,0.344
	c-0.139,0.138-0.293,0.256-0.418,0.406c-0.131,0.144-0.266,0.282-0.376,0.444c-0.056,0.078-0.12,0.153-0.172,0.232l-0.15,0.249
	c-0.108,0.159-0.178,0.345-0.268,0.517l-0.026,0.052l-0.002,0.002l-0.009,0.019l-0.014,0.04l-0.059,0.154
	c-0.033,0.099-0.09,0.218-0.106,0.298c-0.046,0.174-0.101,0.343-0.136,0.538c-0.048,0.187-0.059,0.382-0.09,0.572l-0.18,1.14
	l-0.953-0.656c-0.197-0.135-0.385-0.28-0.584-0.409l-0.307-0.178l-0.15-0.089l-0.029-0.017l-0.021-0.009l-0.09-0.042l-0.354-0.161
	l-0.178-0.082l-0.157-0.051c-0.209-0.066-0.404-0.153-0.637-0.195l-0.335-0.08c-0.115-0.023-0.228-0.031-0.341-0.048
	c-0.115-0.013-0.226-0.038-0.341-0.044l-0.343-0.013c-0.23-0.021-0.458,0.01-0.688,0.019c-0.23,0.01-0.454,0.069-0.682,0.093
	c-0.224,0.051-0.448,0.107-0.671,0.169c-0.214,0.085-0.439,0.143-0.649,0.249c-0.209,0.101-0.427,0.185-0.624,0.312l-0.305,0.177
	c-0.096,0.065-0.19,0.138-0.287,0.206c-0.196,0.131-0.376,0.284-0.553,0.442c-0.187,0.145-0.34,0.334-0.508,0.502
	c-0.167,0.172-0.305,0.373-0.46,0.557c-0.143,0.196-0.268,0.406-0.408,0.609l-0.374,0.549l-0.52-0.268
	c-0.15-0.078-0.297-0.169-0.453-0.238c-0.153-0.08-0.314-0.132-0.475-0.195c-0.163-0.045-0.327-0.102-0.496-0.131
	c-0.167-0.042-0.336-0.055-0.508-0.08c-0.172-0.007-0.344-0.023-0.517-0.013c-0.174-0.002-0.347,0.019-0.52,0.032
	c-0.171,0.031-0.347,0.051-0.515,0.101c-0.173,0.035-0.339,0.101-0.508,0.154c-0.163,0.071-0.333,0.132-0.489,0.222
	c-0.166,0.075-0.32,0.173-0.477,0.268c-0.078,0.048-0.151,0.106-0.226,0.158L84.76,35.33l-0.021-0.01l0.01,0.017l-0.012,0.042
	l-0.048,0.059l-0.435,0.406c-0.143,0.134-0.244,0.283-0.372,0.425c-0.059,0.073-0.126,0.143-0.181,0.222l-0.157,0.249
	c-0.096,0.169-0.232,0.325-0.305,0.515l-0.263,0.55c0.04-0.202,0.084-0.404,0.131-0.609c0.033-0.211,0.125-0.397,0.197-0.595
	l0.115-0.297c0.042-0.097,0.101-0.187,0.15-0.282c0.107-0.183,0.207-0.39,0.329-0.557l0.373-0.477l0.047-0.059l0.023-0.031
	l0.006-0.007l-0.032-0.042l-0.014-0.059l0.013-0.014l0.144-0.075c0.074-0.073,0.164-0.134,0.244-0.204
	c0.159-0.138,0.329-0.272,0.501-0.392c0.169-0.127,0.362-0.224,0.543-0.334c0.188-0.093,0.378-0.193,0.58-0.264
	c0.195-0.086,0.401-0.141,0.605-0.205c0.206-0.047,0.415-0.102,0.628-0.124c0.211-0.035,0.425-0.036,0.637-0.048
	c0.214,0.006,0.428,0.002,0.642,0.035c0.214,0.017,0.425,0.064,0.637,0.103c0.209,0.056,0.421,0.106,0.625,0.185
	c0.006,0.002,0.012,0.004,0.017,0.007c0.047-0.08,0.09-0.163,0.138-0.24c0.174-0.238,0.33-0.496,0.523-0.714
	c0.197-0.219,0.377-0.456,0.597-0.649c0.211-0.204,0.423-0.408,0.662-0.578c0.117-0.089,0.23-0.18,0.35-0.264l0.371-0.23
	c0.244-0.163,0.507-0.282,0.764-0.411c0.259-0.132,0.536-0.211,0.803-0.316c0.274-0.083,0.553-0.154,0.833-0.221
	c0.283-0.042,0.563-0.105,0.85-0.116c0.287-0.01,0.572-0.042,0.858-0.017l0.428,0.021c0.143,0.012,0.284,0.04,0.425,0.061
	c0.141,0.024,0.284,0.042,0.423,0.074l0.415,0.112c0.273,0.063,0.559,0.183,0.841,0.291l0.209,0.083l0.174,0.092l0.349,0.181
	l0.087,0.045l0.075,0.042l0.048,0.028l0.181,0.117l0.197,0.127c0.04-0.108,0.082-0.221,0.125-0.33
	c0.048-0.132,0.096-0.207,0.144-0.314l0.073-0.148l0.05-0.102l0.047-0.08c0.129-0.206,0.241-0.427,0.394-0.615l0.218-0.292
	c0.074-0.094,0.159-0.18,0.24-0.27c0.157-0.183,0.334-0.341,0.515-0.496c0.176-0.159,0.378-0.279,0.565-0.416
	c0.204-0.113,0.397-0.24,0.609-0.333c0.209-0.093,0.415-0.19,0.636-0.251c0.108-0.033,0.214-0.073,0.324-0.101l0.331-0.065
	c0.218-0.051,0.446-0.051,0.665-0.077c0.222,0.002,0.444-0.006,0.662,0.017c0.219,0.026,0.437,0.047,0.649,0.107l0.317,0.08
	l0.308,0.108c0.206,0.063,0.401,0.178,0.594,0.272c0.19,0.099,0.362,0.226,0.543,0.343C108.522,27.96,108.327,27.877,108.122,27.829
	z M139.578,33.026L139.5,33.5l-0.021-0.477c-0.014-0.156-0.036-0.311-0.052-0.459c-0.028-0.152-0.061-0.301-0.091-0.448
	c-0.038-0.148-0.088-0.289-0.131-0.433c-0.052-0.14-0.115-0.274-0.169-0.413c-0.064-0.134-0.135-0.261-0.202-0.39l-0.237-0.363
	l-0.268-0.334l-0.296-0.303l-0.32-0.271c-0.116-0.078-0.226-0.16-0.344-0.235c-0.121-0.064-0.24-0.135-0.362-0.196
	c-0.127-0.051-0.252-0.108-0.378-0.154c-0.132-0.036-0.259-0.083-0.389-0.12l-0.399-0.08l-0.406-0.039l-0.397-0.038l-0.002-0.454
	l-0.002-0.467c-0.009-0.155-0.026-0.309-0.036-0.463c-0.04-0.305-0.088-0.607-0.165-0.902l-0.026-0.111l0.01-0.015l-0.01-0.017
	l-0.024-0.058l-0.081-0.235c-0.051-0.153-0.102-0.325-0.164-0.443l-0.174-0.391l-0.221-0.386c-0.067-0.133-0.163-0.245-0.244-0.366
	c-0.085-0.122-0.165-0.244-0.266-0.349c-0.097-0.11-0.187-0.225-0.289-0.329l-0.317-0.3c-0.107-0.099-0.228-0.18-0.339-0.271
	c-0.111-0.095-0.233-0.172-0.354-0.247c-0.238-0.167-0.501-0.282-0.759-0.411c-0.27-0.1-0.534-0.216-0.817-0.278l-0.208-0.059
	l-0.213-0.035c-0.144-0.02-0.284-0.056-0.429-0.062l-0.434-0.029c-0.145-0.003-0.293,0.008-0.436,0.012
	c-0.146-0.001-0.292,0.022-0.438,0.042c-0.145,0.026-0.293,0.027-0.436,0.071l-0.434,0.102l-0.027,0.006l-0.007,0.002l-0.004,0.002
	c-0.017,0.006,0.02-0.007,0.014-0.006l-0.014,0.004l-0.058,0.019l-0.116,0.04l-0.232,0.078c-0.132,0.058-0.264,0.105-0.4,0.166
	c-0.134,0.069-0.277,0.123-0.406,0.203c-0.131,0.074-0.266,0.146-0.391,0.234c-0.13,0.079-0.254,0.169-0.378,0.262
	c-0.25,0.18-0.479,0.387-0.707,0.602l-0.375,0.357l0.049-0.124c0.045-0.142,0.129-0.264,0.189-0.399
	c0.066-0.131,0.13-0.264,0.214-0.384c0.079-0.12,0.153-0.248,0.238-0.366l0.271-0.34c0.088-0.116,0.197-0.211,0.295-0.317
	l0.15-0.156l0.167-0.138c0.211-0.197,0.458-0.349,0.694-0.514c0.254-0.138,0.497-0.289,0.77-0.391
	c0.097-0.042,0.197-0.078,0.297-0.111l0.007-0.002c0.169-0.055,0.348-0.069,0.521-0.102c0.174-0.03,0.349-0.059,0.524-0.063
	c0.176-0.008,0.352-0.026,0.527-0.026l0.524,0.024c0.175,0.006,0.346,0.047,0.52,0.069l0.259,0.043l0.253,0.066
	c0.344,0.076,0.664,0.204,0.989,0.33c0.311,0.154,0.629,0.301,0.913,0.501c0.148,0.092,0.293,0.187,0.427,0.302
	c0.135,0.111,0.278,0.211,0.402,0.335l0.372,0.37l0.65,0.83c0.094,0.151,0.2,0.292,0.276,0.453l0.244,0.472l0.206,0.517
	c0.078,0.178,0.107,0.331,0.154,0.491l0.065,0.238l0.017,0.06l0.009,0.031l0.009,0.031l0.002,0.004l0.001,0.007l0.002,0.017
	l0.024,0.133c0.072,0.352,0.112,0.712,0.131,1.071c0,0.181,0.006,0.362,0.002,0.542l-0.008,0.126l0.06,0.011
	c0.158,0.041,0.316,0.089,0.472,0.135c0.153,0.056,0.304,0.119,0.452,0.183c0.146,0.072,0.286,0.155,0.426,0.234
	c0.138,0.088,0.267,0.185,0.4,0.277c0.127,0.102,0.246,0.21,0.368,0.316c0.114,0.114,0.223,0.235,0.333,0.35
	c0.101,0.128,0.198,0.257,0.294,0.386l0.249,0.417c0.069,0.146,0.143,0.291,0.206,0.439c0.055,0.154,0.114,0.305,0.163,0.457
	c0.04,0.159,0.081,0.315,0.114,0.473c0.022,0.161,0.05,0.321,0.066,0.481c0.007,0.163,0.021,0.324,0.019,0.485
	C139.598,32.706,139.591,32.867,139.578,33.026z"/>
</svg>
