<?xml version="1.0" encoding="utf-8"?>
<!-- Generator: Adobe Illustrator 22.1.0, SVG Export Plug-In . SVG Version: 6.00 Build 0)  -->
<svg version="1.1" id="Layer_1" xmlns="http://www.w3.org/2000/svg" xmlns:xlink="http://www.w3.org/1999/xlink" x="0px" y="0px"
	 viewBox="0 0 200 24" style="enable-background:new 0 0 200 24;" xml:space="preserve">
<style type="text/css">
	.st0{fill:#758492;}
	.st1{fill:url(#SVGID_1_);}
	.st2{fill:url(#SVGID_2_);}
	.st3{fill:url(#SVGID_3_);}
	.st4{fill:#F5F5F5;}
	.st5{fill:#00B1E1;}
	.st6{opacity:0.51;}
	.st7{fill:#217CC0;}
	.st8{opacity:0.33;fill:#FFFFFF;enable-background:new    ;}
	.st9{fill:#FFFFFF;}
</style>
<g>
	<g>
		<path class="st0" d="M32.487,4.597v3.808c-0.689-0.368-1.473-0.578-2.308-0.578c-2.722,0-4.927,2.226-4.927,4.972
			s2.206,4.972,4.927,4.972c0.835,0,1.62-0.21,2.308-0.578v0.578h2.619V4.597H32.487z M30.234,15.136
			c-1.244,0-2.253-1.018-2.253-2.275c0.001-1.257,1.01-2.275,2.253-2.275c1.244,0,2.253,1.018,2.253,2.275
			C32.487,14.116,31.478,15.136,30.234,15.136z"/>
		<path class="st0" d="M19.973,8.124c-0.856,0-1.662,0.215-2.368,0.593V8.124h-2.687v13.513h2.687V17.73
			c0.707,0.378,1.511,0.593,2.368,0.593c2.792,0,5.055-2.283,5.055-5.1C25.028,10.407,22.765,8.124,19.973,8.124z M19.918,15.493
			c-1.276,0-2.311-1.045-2.311-2.333c0-1.287,1.036-2.333,2.311-2.333c1.277,0,2.311,1.045,2.311,2.333S21.194,15.493,19.918,15.493
			z"/>
		<path class="st0" d="M13.88,10.41c-0.024-0.058-0.052-0.114-0.077-0.171c-0.057-0.129-0.116-0.256-0.181-0.381
			c-0.036-0.07-0.074-0.138-0.112-0.208c-0.064-0.114-0.132-0.227-0.202-0.338c-0.039-0.06-0.075-0.121-0.114-0.18
			c-0.108-0.159-0.22-0.314-0.341-0.464c-0.032-0.041-0.067-0.078-0.101-0.116c-0.096-0.114-0.194-0.225-0.297-0.332
			c-0.051-0.053-0.102-0.104-0.154-0.155c-0.097-0.095-0.196-0.187-0.298-0.275c-0.051-0.044-0.1-0.088-0.151-0.131
			c-0.15-0.124-0.305-0.243-0.465-0.353C11.359,7.286,11.328,7.27,11.3,7.25c-0.137-0.091-0.279-0.18-0.423-0.261
			c-0.057-0.032-0.116-0.063-0.175-0.095c-0.127-0.067-0.255-0.13-0.387-0.189c-0.057-0.026-0.112-0.053-0.17-0.076
			C9.96,6.551,9.772,6.479,9.58,6.419C9.565,6.413,9.548,6.41,9.531,6.405C9.353,6.35,9.17,6.303,8.986,6.261
			C8.925,6.248,8.862,6.237,8.801,6.225c-0.149-0.028-0.299-0.052-0.452-0.07C8.287,6.148,8.225,6.14,8.162,6.134
			C7.953,6.114,7.742,6.1,7.528,6.1c-0.216,0-0.43,0.014-0.641,0.033C6.82,6.14,6.756,6.15,6.692,6.158
			c-0.147,0.018-0.294,0.04-0.439,0.066c-0.07,0.014-0.139,0.027-0.208,0.043C5.897,6.301,5.751,6.34,5.607,6.382
			c-0.055,0.017-0.111,0.03-0.166,0.049C5.247,6.493,5.056,6.564,4.87,6.643c-0.036,0.016-0.072,0.034-0.107,0.05
			C4.612,6.76,4.466,6.832,4.321,6.91C4.259,6.943,4.199,6.98,4.138,7.014C4.021,7.081,3.905,7.152,3.792,7.227
			C3.731,7.268,3.671,7.308,3.61,7.35C3.49,7.435,3.375,7.524,3.262,7.615c-0.044,0.036-0.09,0.07-0.134,0.107
			C2.979,7.847,2.836,7.98,2.699,8.119C2.65,8.166,2.606,8.217,2.56,8.267C2.468,8.364,2.379,8.464,2.294,8.564
			C2.24,8.629,2.19,8.693,2.138,8.76C2.063,8.855,1.991,8.955,1.922,9.055C1.874,9.122,1.826,9.19,1.78,9.261
			C1.703,9.379,1.632,9.503,1.562,9.626C1.524,9.693,1.485,9.759,1.449,9.828c-0.081,0.156-0.157,0.317-0.226,0.48
			c-0.033,0.077-0.062,0.157-0.092,0.236c-0.028,0.073-0.059,0.143-0.085,0.217c0.002,0.001,0.003,0.002,0.005,0.003
			c-0.255,0.731-0.4,1.513-0.4,2.333c0,3.865,3.08,6.998,6.878,6.998s6.878-3.132,6.878-6.998c0.001-0.946-0.185-1.848-0.519-2.671
			C13.885,10.421,13.882,10.415,13.88,10.41z"/>
	</g>
	
		<linearGradient id="SVGID_1_" gradientUnits="userSpaceOnUse" x1="7.6015" y1="20.621" x2="7.6015" y2="6.053" gradientTransform="matrix(1 0 0 -1 0 26)">
		<stop  offset="0" style="stop-color:#FFFFFF"/>
		<stop  offset="0.5207" style="stop-color:#DDDDDC"/>
		<stop  offset="0.5365" style="stop-color:#DEDEDD"/>
		<stop  offset="1" style="stop-color:#C7C7C7"/>
	</linearGradient>
	<path class="st1" d="M6.044,8.731c0.523,0,5.717,3.001,5.717,3.95c0,0.949-5.053,3.95-5.717,3.95
		C5.381,16.632,5.521,8.731,6.044,8.731z M7.602,5.379c3.955,0,7.16,3.262,7.16,7.284c0,4.023-3.206,7.284-7.16,7.284
		s-7.161-3.262-7.161-7.285S3.648,5.379,7.602,5.379z"/>
	
		<linearGradient id="SVGID_2_" gradientUnits="userSpaceOnUse" x1="30.2135" y1="21.627" x2="30.2135" y2="8.125" gradientTransform="matrix(1 0 0 -1 0 26)">
		<stop  offset="0" style="stop-color:#FFFFFF"/>
		<stop  offset="0.0732" style="stop-color:#F4F4F4"/>
		<stop  offset="0.1803" style="stop-color:#EDEDED"/>
		<stop  offset="0.4549" style="stop-color:#EBEBEB"/>
		<stop  offset="0.6207" style="stop-color:#E7E7E7"/>
		<stop  offset="0.7931" style="stop-color:#DADADA"/>
		<stop  offset="0.9681" style="stop-color:#C6C6C6"/>
		<stop  offset="1" style="stop-color:#C1C1C1"/>
	</linearGradient>
	<path class="st2" d="M30.269,10.51c1.275,0,2.309,1.044,2.309,2.332s-1.034,2.332-2.309,2.332s-2.309-1.044-2.309-2.332
		S28.994,10.51,30.269,10.51z M32.579,4.373v3.903c-0.706-0.377-1.51-0.593-2.366-0.593c-2.79,0-5.05,2.281-5.05,5.096
		s2.261,5.096,5.05,5.096c0.856,0,1.659-0.215,2.366-0.593v0.593h2.685V4.373H32.579z"/>
	
		<linearGradient id="SVGID_3_" gradientUnits="userSpaceOnUse" x1="19.9955" y1="17.949" x2="19.9955" y2="4.448" gradientTransform="matrix(1 0 0 -1 0 26)">
		<stop  offset="0" style="stop-color:#FFFFFF"/>
		<stop  offset="0.0264" style="stop-color:#F4F4F4"/>
		<stop  offset="0.0652" style="stop-color:#EDEDED"/>
		<stop  offset="0.1644" style="stop-color:#EBEBEB"/>
		<stop  offset="0.8561" style="stop-color:#C3C3C3"/>
	</linearGradient>
	<path class="st3" d="M19.94,10.751c1.275,0,2.309,1.044,2.309,2.331s-1.034,2.331-2.309,2.331s-2.309-1.044-2.309-2.331
		S18.666,10.751,19.94,10.751z M19.996,8.051c-0.856,0-1.66,0.215-2.366,0.593V8.051h-2.685v13.501h2.685V17.65
		c0.706,0.377,1.51,0.593,2.366,0.593c2.79,0,5.05-2.281,5.05-5.096S22.786,8.051,19.996,8.051z"/>
	<path class="st4" d="M7.602,5.379c-3.116,0-5.765,2.026-6.75,4.852c1.236,0.893,2.89,1.527,4.758,1.772
		c0.047-1.725,0.202-3.272,0.433-3.272c0.387,0,3.328,1.643,4.834,2.881c1.319-0.389,2.465-0.986,3.342-1.729
		C13.147,7.239,10.589,5.379,7.602,5.379z"/>
	<path class="st5" d="M6.044,8.731c0.523,0,5.717,3.001,5.717,3.95c0,0.949-5.053,3.95-5.717,3.95
		C5.381,16.632,5.521,8.731,6.044,8.731z"/>
	<g class="st6">
		<path class="st7" d="M6.044,8.731c-0.066,0-0.127,0.128-0.179,0.351c0.665,0.097,5.683,3.012,5.683,3.946
			c0,0.036-0.01,0.075-0.023,0.117c0.15-0.182,0.237-0.341,0.237-0.463C11.76,11.731,6.566,8.731,6.044,8.731z"/>
	</g>
	<path class="st8" d="M5.611,12.003c0.552,0.072,1.121,0.11,1.704,0.11c1.27,0,2.475-0.179,3.563-0.501
		c-1.506-1.239-4.447-2.879-4.834-2.879C5.813,8.731,5.657,10.279,5.611,12.003z"/>
	<path class="st9" d="M11.536,12.957c-1.013,1.238-5.008,3.567-5.599,3.567c-0.007,0-0.013-0.002-0.02-0.004
		c0.039,0.071,0.081,0.111,0.127,0.111c0.578,0,4.48-2.274,5.482-3.489c0.013-0.041,0.022-0.079,0.022-0.114
		C11.547,13.006,11.542,12.981,11.536,12.957z"/>
	<g>
		<g>
			<g>
				<g>
					<path class="st9" d="M36.027,4.897c0-0.102,0.024-0.196,0.071-0.283c0.047-0.087,0.112-0.155,0.195-0.206
						c0.083-0.05,0.173-0.075,0.27-0.075s0.186,0.025,0.27,0.075c0.083,0.05,0.148,0.118,0.195,0.206
						c0.047,0.087,0.071,0.181,0.071,0.283c0,0.1-0.023,0.193-0.069,0.28c-0.046,0.087-0.11,0.156-0.194,0.208
						c-0.083,0.052-0.174,0.078-0.273,0.078c-0.099,0-0.19-0.026-0.273-0.078c-0.083-0.052-0.148-0.121-0.194-0.208
						C36.05,5.091,36.027,4.997,36.027,4.897z M36.091,4.897c0,0.09,0.021,0.174,0.063,0.251c0.042,0.077,0.099,0.139,0.173,0.183
						c0.073,0.044,0.152,0.067,0.236,0.067c0.084,0,0.163-0.023,0.236-0.067c0.073-0.044,0.131-0.106,0.172-0.183
						c0.041-0.078,0.062-0.161,0.062-0.251c0-0.088-0.02-0.171-0.061-0.248c-0.041-0.076-0.098-0.138-0.171-0.183
						c-0.073-0.045-0.153-0.068-0.239-0.068c-0.084,0-0.163,0.023-0.237,0.067c-0.073,0.044-0.131,0.105-0.172,0.182
						C36.112,4.724,36.091,4.807,36.091,4.897z M36.441,4.944v0.261h-0.074V4.572h0.195c0.074,0,0.131,0.016,0.171,0.047
						c0.04,0.031,0.06,0.077,0.06,0.14c0,0.067-0.036,0.116-0.106,0.149c0.036,0.013,0.061,0.034,0.075,0.061
						c0.014,0.027,0.021,0.06,0.021,0.098s0.001,0.066,0.003,0.083c0.002,0.017,0.005,0.031,0.01,0.043v0.012h-0.077
						c-0.007-0.018-0.01-0.064-0.01-0.138c0-0.045-0.009-0.077-0.028-0.095c-0.019-0.019-0.051-0.028-0.096-0.028H36.441z
						 M36.441,4.876h0.137c0.041,0,0.074-0.01,0.101-0.032s0.04-0.049,0.04-0.084c0-0.043-0.011-0.073-0.033-0.092
						s-0.06-0.028-0.113-0.029h-0.131C36.441,4.64,36.441,4.876,36.441,4.876z"/>
				</g>
			</g>
		</g>
		<g>
			<path class="st9" d="M41.421,8.97c0,0.323-0.057,0.605-0.171,0.848c-0.114,0.243-0.277,0.43-0.489,0.563
				c-0.212,0.131-0.455,0.198-0.73,0.198c-0.271,0-0.513-0.065-0.726-0.195s-0.378-0.316-0.495-0.559
				c-0.117-0.242-0.176-0.521-0.177-0.835V8.825c0-0.322,0.058-0.605,0.175-0.851c0.116-0.245,0.28-0.433,0.492-0.565
				c0.212-0.131,0.455-0.197,0.728-0.197s0.515,0.066,0.728,0.197s0.376,0.32,0.492,0.565s0.174,0.528,0.174,0.849L41.421,8.97
				L41.421,8.97z M40.737,8.821c0-0.344-0.061-0.604-0.184-0.783c-0.123-0.178-0.299-0.267-0.526-0.267s-0.401,0.088-0.523,0.264
				c-0.123,0.176-0.185,0.434-0.186,0.775v0.16c0,0.334,0.061,0.594,0.184,0.778c0.123,0.184,0.3,0.277,0.531,0.277
				c0.227,0,0.401-0.089,0.521-0.266c0.121-0.177,0.183-0.437,0.184-0.777L40.737,8.821z"/>
			<path class="st9" d="M42.352,8.1l0.021,0.281c0.174-0.218,0.407-0.326,0.699-0.326c0.258,0,0.45,0.076,0.576,0.228
				c0.126,0.151,0.19,0.378,0.193,0.68v1.572h-0.649V8.973c0-0.138-0.03-0.239-0.09-0.301s-0.16-0.094-0.299-0.094
				c-0.183,0-0.321,0.078-0.411,0.234v1.719h-0.649V8.1H42.352z"/>
			<path class="st9" d="M44.904,10.533h-0.652V7.079h0.652V10.533z"/>
			<path class="st9" d="M45.319,7.469c0-0.097,0.033-0.177,0.097-0.241c0.065-0.062,0.153-0.094,0.266-0.094
				c0.112,0,0.199,0.032,0.265,0.094c0.067,0.063,0.098,0.143,0.098,0.241s-0.034,0.179-0.1,0.243s-0.153,0.094-0.263,0.094
				s-0.197-0.032-0.264-0.094C45.352,7.65,45.319,7.569,45.319,7.469z M46.01,10.533h-0.652V8.1h0.652V10.533z"/>
			<path class="st9" d="M47.028,8.1l0.021,0.281c0.174-0.218,0.407-0.326,0.699-0.326c0.257,0,0.45,0.076,0.576,0.228
				c0.126,0.151,0.19,0.378,0.193,0.68v1.572h-0.649V8.973c0-0.138-0.03-0.239-0.09-0.301c-0.06-0.062-0.16-0.094-0.299-0.094
				c-0.183,0-0.321,0.078-0.412,0.234v1.719h-0.651V8.1H47.028z"/>
			<path class="st9" d="M50.013,10.578c-0.357,0-0.647-0.109-0.871-0.328s-0.336-0.51-0.336-0.876V9.311
				c0-0.245,0.047-0.463,0.142-0.656c0.094-0.193,0.228-0.34,0.402-0.445c0.173-0.104,0.371-0.157,0.593-0.157
				c0.333,0,0.595,0.105,0.786,0.315c0.192,0.21,0.287,0.508,0.287,0.893v0.265h-1.55c0.021,0.159,0.084,0.286,0.19,0.382
				c0.105,0.096,0.24,0.144,0.402,0.144c0.251,0,0.445-0.09,0.587-0.273l0.32,0.358c-0.097,0.138-0.23,0.245-0.396,0.323
				C50.4,10.539,50.215,10.578,50.013,10.578z M49.938,8.578c-0.129,0-0.233,0.044-0.314,0.131c-0.08,0.088-0.131,0.212-0.154,0.375
				h0.904V9.032c-0.003-0.144-0.042-0.256-0.117-0.336C50.183,8.619,50.077,8.578,49.938,8.578z"/>
			<path class="st9" d="M53.016,9.379v1.154H52.34V7.259h1.277c0.245,0,0.462,0.045,0.649,0.135c0.186,0.09,0.331,0.218,0.431,0.384
				s0.151,0.353,0.151,0.566c0,0.321-0.109,0.573-0.329,0.758c-0.22,0.185-0.523,0.277-0.912,0.277L53.016,9.379z M53.016,8.833
				h0.603c0.178,0,0.314-0.043,0.408-0.126c0.094-0.084,0.14-0.204,0.14-0.36c0-0.16-0.047-0.29-0.142-0.389
				c-0.094-0.098-0.225-0.15-0.391-0.153h-0.618C53.016,7.805,53.016,8.833,53.016,8.833z"/>
			<path class="st9" d="M56.521,8.708c-0.089-0.012-0.167-0.019-0.234-0.019c-0.246,0-0.407,0.083-0.484,0.25v1.591h-0.649V8.1
				h0.614l0.019,0.29c0.13-0.223,0.311-0.335,0.542-0.335c0.072,0,0.14,0.01,0.202,0.03L56.521,8.708z"/>
			<path class="st9" d="M56.536,9.293c0-0.241,0.047-0.456,0.139-0.645c0.093-0.189,0.227-0.335,0.402-0.438
				s0.378-0.155,0.607-0.155c0.328,0,0.596,0.101,0.803,0.301c0.208,0.201,0.323,0.474,0.347,0.819l0.004,0.166
				c0,0.373-0.104,0.673-0.312,0.899c-0.208,0.225-0.488,0.338-0.838,0.338s-0.63-0.112-0.841-0.337
				c-0.209-0.225-0.314-0.531-0.314-0.917V9.293H56.536z M57.186,9.34c0,0.231,0.043,0.408,0.13,0.53
				c0.088,0.123,0.211,0.184,0.373,0.184c0.158,0,0.28-0.06,0.369-0.182c0.089-0.121,0.132-0.314,0.132-0.58
				c0-0.227-0.045-0.403-0.132-0.528c-0.088-0.125-0.212-0.187-0.373-0.187c-0.159,0-0.281,0.062-0.369,0.186
				C57.229,8.888,57.186,9.079,57.186,9.34z"/>
			<path class="st9" d="M59.303,10.533V8.576h-0.362V8.1h0.362V7.892c0-0.273,0.079-0.485,0.235-0.636
				c0.157-0.151,0.375-0.225,0.658-0.225c0.09,0,0.2,0.014,0.331,0.045L60.52,7.574c-0.054-0.013-0.12-0.02-0.198-0.02
				c-0.245,0-0.367,0.116-0.367,0.347v0.197h0.484v0.476h-0.484v1.957L59.303,10.533L59.303,10.533z"/>
			<path class="st9" d="M61.727,10.578c-0.357,0-0.647-0.109-0.871-0.328S60.52,9.74,60.52,9.374V9.311
				c0-0.245,0.047-0.463,0.142-0.656c0.094-0.193,0.228-0.34,0.402-0.445c0.173-0.104,0.371-0.157,0.593-0.157
				c0.333,0,0.595,0.105,0.786,0.315c0.192,0.21,0.287,0.508,0.287,0.893v0.265h-1.55c0.021,0.159,0.084,0.286,0.19,0.382
				c0.105,0.096,0.24,0.144,0.402,0.144c0.251,0,0.445-0.09,0.587-0.273l0.32,0.358c-0.097,0.138-0.23,0.245-0.396,0.323
				C62.113,10.539,61.929,10.578,61.727,10.578z M61.653,8.578c-0.129,0-0.233,0.044-0.314,0.131
				c-0.08,0.088-0.131,0.212-0.154,0.375h0.904V9.032c-0.003-0.144-0.042-0.256-0.117-0.336C61.897,8.619,61.791,8.578,61.653,8.578
				z"/>
			<path class="st9" d="M64.299,9.861c0-0.08-0.039-0.142-0.118-0.188s-0.206-0.086-0.38-0.123c-0.579-0.12-0.868-0.367-0.868-0.738
				c0-0.217,0.09-0.396,0.268-0.541c0.179-0.144,0.414-0.217,0.703-0.217c0.309,0,0.556,0.073,0.741,0.219s0.278,0.334,0.278,0.567
				h-0.649c0-0.093-0.03-0.17-0.09-0.231c-0.061-0.063-0.154-0.093-0.281-0.093c-0.109,0-0.195,0.025-0.254,0.074
				c-0.059,0.049-0.09,0.113-0.09,0.189c0,0.072,0.034,0.129,0.103,0.174s0.184,0.082,0.345,0.115
				c0.162,0.032,0.298,0.069,0.409,0.109c0.344,0.126,0.514,0.344,0.514,0.654c0,0.222-0.095,0.402-0.286,0.538
				s-0.436,0.206-0.738,0.206c-0.204,0-0.385-0.036-0.543-0.109c-0.158-0.072-0.281-0.173-0.372-0.299
				c-0.09-0.127-0.135-0.264-0.135-0.41h0.616c0.005,0.116,0.049,0.204,0.128,0.265s0.186,0.092,0.32,0.092
				c0.125,0,0.219-0.023,0.282-0.071C64.266,9.999,64.299,9.936,64.299,9.861z"/>
			<path class="st9" d="M66.551,9.861c0-0.08-0.039-0.142-0.118-0.188c-0.079-0.046-0.206-0.086-0.38-0.123
				c-0.579-0.12-0.868-0.367-0.868-0.738c0-0.217,0.09-0.396,0.268-0.541c0.179-0.144,0.414-0.217,0.703-0.217
				c0.309,0,0.556,0.073,0.741,0.219c0.186,0.146,0.277,0.334,0.277,0.567h-0.649c0-0.093-0.03-0.17-0.09-0.231
				c-0.06-0.063-0.153-0.093-0.281-0.093c-0.109,0-0.195,0.025-0.254,0.074c-0.06,0.049-0.09,0.113-0.09,0.189
				c0,0.072,0.034,0.129,0.103,0.174s0.184,0.082,0.345,0.115c0.162,0.032,0.298,0.069,0.409,0.109
				c0.343,0.126,0.515,0.344,0.515,0.654c0,0.222-0.095,0.402-0.286,0.538c-0.19,0.137-0.436,0.206-0.738,0.206
				c-0.204,0-0.385-0.036-0.543-0.109c-0.158-0.072-0.281-0.173-0.372-0.299c-0.091-0.127-0.136-0.264-0.136-0.41h0.616
				c0.005,0.116,0.049,0.204,0.128,0.265s0.186,0.092,0.32,0.092c0.125,0,0.219-0.023,0.282-0.071
				C66.52,9.999,66.551,9.936,66.551,9.861z"/>
			<path class="st9" d="M67.482,7.469c0-0.097,0.032-0.177,0.097-0.241c0.066-0.062,0.153-0.094,0.266-0.094
				c0.111,0,0.199,0.032,0.265,0.094c0.067,0.063,0.098,0.143,0.098,0.241s-0.034,0.179-0.1,0.243
				c-0.067,0.063-0.155,0.094-0.264,0.094s-0.197-0.032-0.264-0.094C67.516,7.65,67.482,7.569,67.482,7.469z M68.172,10.533h-0.651
				V8.1h0.651V10.533z"/>
			<path class="st9" d="M68.491,9.293c0-0.241,0.047-0.456,0.139-0.645c0.092-0.189,0.227-0.335,0.402-0.438
				s0.378-0.155,0.607-0.155c0.328,0,0.596,0.101,0.803,0.301c0.208,0.201,0.323,0.474,0.348,0.819l0.004,0.166
				c0,0.373-0.104,0.673-0.312,0.899c-0.208,0.225-0.488,0.338-0.838,0.338c-0.351,0-0.63-0.112-0.839-0.337
				c-0.209-0.225-0.314-0.531-0.314-0.917C68.491,9.323,68.491,9.293,68.491,9.293z M69.141,9.34c0,0.231,0.044,0.408,0.131,0.53
				c0.086,0.123,0.211,0.184,0.373,0.184c0.158,0,0.279-0.06,0.369-0.182c0.088-0.12,0.132-0.314,0.132-0.58
				c0-0.227-0.045-0.403-0.132-0.528c-0.088-0.125-0.212-0.187-0.373-0.187c-0.159,0-0.281,0.062-0.369,0.186
				C69.185,8.888,69.141,9.079,69.141,9.34z"/>
			<path class="st9" d="M71.679,8.1L71.7,8.381c0.174-0.218,0.406-0.326,0.699-0.326c0.257,0,0.449,0.076,0.576,0.228
				c0.126,0.151,0.19,0.378,0.193,0.68v1.572h-0.65V8.973c0-0.138-0.03-0.239-0.09-0.301c-0.06-0.062-0.16-0.094-0.299-0.094
				c-0.183,0-0.32,0.078-0.411,0.234v1.719h-0.649V8.1H71.679z"/>
			<path class="st9" d="M74.954,10.533c-0.031-0.058-0.051-0.131-0.066-0.219c-0.158,0.175-0.362,0.263-0.614,0.263
				c-0.239,0-0.436-0.069-0.593-0.207c-0.157-0.138-0.235-0.312-0.235-0.521c0-0.257,0.095-0.455,0.287-0.594
				c0.19-0.138,0.467-0.208,0.828-0.209h0.299v-0.14c0-0.113-0.03-0.202-0.086-0.27c-0.058-0.068-0.149-0.101-0.273-0.101
				c-0.109,0-0.195,0.026-0.257,0.079c-0.062,0.053-0.093,0.125-0.093,0.216h-0.65c0-0.14,0.044-0.27,0.131-0.391
				c0.086-0.12,0.21-0.215,0.369-0.282c0.16-0.069,0.338-0.103,0.536-0.103c0.299,0,0.537,0.076,0.714,0.225
				c0.176,0.151,0.264,0.362,0.264,0.636v1.054c0.001,0.231,0.034,0.406,0.096,0.524v0.037h-0.657
				C74.954,10.53,74.954,10.533,74.954,10.533z M74.417,10.08c0.095,0,0.184-0.021,0.265-0.065c0.081-0.043,0.14-0.101,0.179-0.172
				V9.425h-0.243c-0.325,0-0.499,0.112-0.519,0.338l-0.002,0.038c0,0.081,0.028,0.148,0.085,0.2
				C74.24,10.054,74.318,10.08,74.417,10.08z"/>
			<path class="st9" d="M76.584,10.533h-0.651V7.079h0.651V10.533z"/>
			<path class="st9" d="M78.078,10.533V7.259h1.008c0.288,0,0.545,0.065,0.773,0.195c0.228,0.13,0.404,0.314,0.532,0.554
				c0.127,0.239,0.19,0.511,0.19,0.815v0.151c0,0.304-0.062,0.576-0.188,0.812c-0.125,0.236-0.301,0.421-0.53,0.552
				c-0.228,0.13-0.485,0.197-0.77,0.198h-1.015C78.078,10.536,78.078,10.533,78.078,10.533z M78.753,7.805v2.186h0.326
				c0.264,0,0.465-0.085,0.604-0.258s0.211-0.419,0.215-0.74V8.819c0-0.333-0.069-0.584-0.208-0.756
				c-0.138-0.171-0.339-0.257-0.604-0.257L78.753,7.805L78.753,7.805z"/>
			<path class="st9" d="M82.033,10.578c-0.357,0-0.647-0.109-0.871-0.328s-0.336-0.51-0.336-0.876V9.311
				c0-0.245,0.047-0.463,0.142-0.656c0.094-0.193,0.229-0.34,0.402-0.445c0.173-0.104,0.371-0.157,0.593-0.157
				c0.334,0,0.595,0.105,0.786,0.315c0.192,0.21,0.287,0.508,0.287,0.893v0.265h-1.55c0.021,0.159,0.084,0.286,0.189,0.382
				c0.106,0.096,0.24,0.144,0.402,0.144c0.251,0,0.445-0.09,0.587-0.273l0.32,0.358c-0.097,0.138-0.23,0.245-0.395,0.323
				C82.419,10.539,82.235,10.578,82.033,10.578z M81.96,8.578c-0.129,0-0.234,0.044-0.314,0.131
				c-0.08,0.088-0.131,0.212-0.153,0.375h0.904V9.032c-0.003-0.144-0.043-0.256-0.117-0.336C82.204,8.619,82.096,8.578,81.96,8.578z
				"/>
			<path class="st9" d="M84.169,9.738L84.621,8.1h0.68l-0.821,2.433h-0.62L83.039,8.1h0.68L84.169,9.738z"/>
			<path class="st9" d="M86.561,10.578c-0.357,0-0.647-0.109-0.871-0.328s-0.336-0.51-0.336-0.876V9.311
				c0-0.245,0.047-0.463,0.142-0.656c0.094-0.193,0.229-0.34,0.402-0.445c0.173-0.104,0.371-0.157,0.593-0.157
				c0.334,0,0.595,0.105,0.786,0.315c0.192,0.21,0.287,0.508,0.287,0.893v0.265h-1.551c0.021,0.159,0.084,0.286,0.189,0.382
				c0.106,0.096,0.24,0.144,0.402,0.144c0.251,0,0.445-0.09,0.587-0.273l0.32,0.358c-0.097,0.138-0.23,0.245-0.395,0.323
				C86.947,10.539,86.763,10.578,86.561,10.578z M86.486,8.578c-0.129,0-0.234,0.044-0.314,0.131
				c-0.08,0.088-0.131,0.212-0.153,0.375h0.904V9.032c-0.003-0.144-0.043-0.256-0.117-0.336C86.731,8.619,86.624,8.578,86.486,8.578
				z"/>
			<path class="st9" d="M88.5,10.533h-0.651V7.079H88.5V10.533z"/>
			<path class="st9" d="M88.819,9.293c0-0.241,0.047-0.456,0.139-0.645c0.092-0.189,0.227-0.335,0.402-0.438
				s0.378-0.155,0.607-0.155c0.328,0,0.596,0.101,0.803,0.301c0.208,0.201,0.323,0.474,0.348,0.819l0.004,0.166
				c0,0.373-0.104,0.673-0.312,0.899c-0.208,0.225-0.488,0.338-0.838,0.338c-0.351,0-0.63-0.112-0.839-0.337
				c-0.209-0.225-0.314-0.531-0.314-0.917C88.819,9.324,88.819,9.293,88.819,9.293z M89.468,9.34c0,0.231,0.044,0.408,0.131,0.53
				c0.086,0.123,0.211,0.184,0.373,0.184c0.158,0,0.279-0.06,0.369-0.182c0.088-0.12,0.132-0.314,0.132-0.58
				c0-0.227-0.045-0.403-0.132-0.528c-0.088-0.125-0.212-0.187-0.373-0.187c-0.159,0-0.281,0.062-0.369,0.186
				C89.512,8.888,89.468,9.079,89.468,9.34z"/>
			<path class="st9" d="M93.6,9.339c0,0.375-0.085,0.675-0.256,0.901c-0.17,0.225-0.399,0.338-0.688,0.338
				c-0.246,0-0.444-0.085-0.596-0.256v1.147h-0.65V8.1h0.603l0.023,0.239c0.158-0.189,0.362-0.283,0.616-0.283
				c0.299,0,0.532,0.112,0.699,0.333c0.166,0.222,0.25,0.528,0.25,0.917C93.6,9.305,93.6,9.339,93.6,9.339z M92.95,9.288
				c0-0.228-0.04-0.403-0.12-0.525c-0.081-0.123-0.197-0.185-0.35-0.185c-0.204,0-0.344,0.078-0.421,0.234v0.999
				c0.08,0.161,0.221,0.242,0.426,0.242C92.794,10.053,92.95,9.798,92.95,9.288z"/>
			<path class="st9" d="M94.496,8.1l0.02,0.273c0.173-0.211,0.406-0.317,0.699-0.317c0.313,0,0.529,0.124,0.645,0.371
				c0.171-0.247,0.415-0.371,0.731-0.371c0.264,0,0.46,0.078,0.589,0.231s0.193,0.384,0.193,0.694v1.554h-0.651V8.978
				c0-0.138-0.027-0.24-0.082-0.303c-0.055-0.063-0.149-0.095-0.286-0.095c-0.195,0-0.329,0.093-0.405,0.279l0.002,1.674h-0.65
				V8.979c0-0.141-0.027-0.243-0.083-0.306s-0.15-0.094-0.283-0.094c-0.184,0-0.317,0.077-0.401,0.23v1.724h-0.649V8.1H94.496z"/>
			<path class="st9" d="M98.877,10.578c-0.357,0-0.647-0.109-0.871-0.328S97.67,9.74,97.67,9.374V9.311
				c0-0.245,0.047-0.463,0.142-0.656c0.094-0.193,0.229-0.34,0.402-0.445c0.173-0.104,0.371-0.157,0.593-0.157
				c0.334,0,0.595,0.105,0.786,0.315c0.192,0.21,0.287,0.508,0.287,0.893v0.265h-1.55c0.021,0.159,0.084,0.286,0.189,0.382
				c0.106,0.096,0.24,0.144,0.402,0.144c0.251,0,0.445-0.09,0.587-0.273l0.32,0.358c-0.097,0.138-0.23,0.245-0.395,0.323
				C99.263,10.539,99.08,10.578,98.877,10.578z M98.804,8.578c-0.129,0-0.234,0.044-0.314,0.131
				c-0.08,0.088-0.131,0.212-0.153,0.375h0.904V9.032c-0.003-0.144-0.043-0.256-0.117-0.336C99.048,8.619,98.942,8.578,98.804,8.578
				z"/>
			<path class="st9" d="M100.73,8.1l0.021,0.281c0.174-0.218,0.406-0.326,0.699-0.326c0.258,0,0.449,0.076,0.576,0.228
				c0.126,0.151,0.19,0.378,0.193,0.68v1.572h-0.65V8.973c0-0.138-0.03-0.239-0.09-0.301s-0.16-0.094-0.299-0.094
				c-0.183,0-0.32,0.078-0.411,0.234v1.719h-0.649V8.1H100.73z"/>
			<path class="st9" d="M103.374,7.501v0.598h0.417v0.476h-0.417V9.79c0,0.09,0.016,0.154,0.051,0.193
				c0.034,0.039,0.101,0.058,0.198,0.058c0.072,0,0.136-0.005,0.19-0.016v0.492c-0.127,0.039-0.257,0.058-0.393,0.058
				c-0.455,0-0.688-0.23-0.697-0.691V8.576h-0.356V8.1h0.356V7.501H103.374z"/>
		</g>
		<g>
			<path class="st9" d="M41.747,13.467H40.36v3.756h-0.341v-3.756h-1.383v-0.288h3.111V13.467z"/>
			<path class="st9" d="M42.51,14.725c0.109-0.179,0.25-0.318,0.419-0.417c0.171-0.098,0.357-0.147,0.558-0.147
				c0.323,0,0.563,0.091,0.719,0.273c0.158,0.182,0.237,0.453,0.239,0.816v1.972h-0.331v-1.975
				c-0.002-0.268-0.059-0.468-0.171-0.601c-0.112-0.131-0.291-0.197-0.538-0.197c-0.206,0-0.387,0.065-0.546,0.193
				s-0.275,0.302-0.351,0.521v2.059h-0.331v-4.267h0.331v1.77H42.51C42.51,14.725,42.51,14.725,42.51,14.725z"/>
			<path class="st9" d="M46.324,17.279c-0.256,0-0.486-0.063-0.693-0.189s-0.367-0.301-0.482-0.526s-0.173-0.477-0.173-0.756v-0.12
				c0-0.289,0.056-0.549,0.169-0.78c0.112-0.232,0.268-0.414,0.468-0.546c0.2-0.132,0.417-0.199,0.65-0.199
				c0.364,0,0.654,0.125,0.868,0.373c0.213,0.25,0.321,0.59,0.321,1.021v0.186h-2.144v0.065c0,0.34,0.097,0.624,0.292,0.851
				s0.441,0.34,0.738,0.34c0.177,0,0.335-0.033,0.471-0.097c0.136-0.065,0.259-0.169,0.371-0.311l0.208,0.158
				C47.144,17.102,46.789,17.279,46.324,17.279z M46.263,14.445c-0.25,0-0.461,0.092-0.631,0.275s-0.275,0.429-0.312,0.739h1.803
				v-0.036c-0.01-0.289-0.092-0.524-0.247-0.706C46.719,14.536,46.515,14.445,46.263,14.445z"/>
			<path class="st9" d="M51.504,15.332h-1.887v1.892h-0.341v-4.045h2.506v0.289h-2.164v1.576h1.887L51.504,15.332L51.504,15.332z"/>
			<path class="st9" d="M54.129,16.843c-0.2,0.29-0.52,0.436-0.958,0.436c-0.321,0-0.564-0.093-0.73-0.279s-0.252-0.462-0.256-0.826
				v-1.956h0.331v1.914c0,0.572,0.232,0.858,0.695,0.858c0.482,0,0.786-0.199,0.914-0.598v-2.174h0.334v3.005h-0.322L54.129,16.843z
				"/>
			<path class="st9" d="M56.978,16.459c0-0.164-0.067-0.298-0.199-0.397c-0.132-0.1-0.332-0.178-0.599-0.234
				c-0.266-0.056-0.473-0.12-0.621-0.195c-0.147-0.073-0.256-0.162-0.328-0.268c-0.071-0.105-0.107-0.233-0.107-0.383
				c0-0.237,0.098-0.433,0.298-0.588c0.198-0.154,0.451-0.232,0.761-0.232c0.336,0,0.604,0.083,0.807,0.248
				c0.204,0.166,0.304,0.382,0.304,0.649h-0.333c0-0.175-0.073-0.323-0.221-0.438c-0.147-0.117-0.333-0.175-0.557-0.175
				c-0.219,0-0.394,0.049-0.526,0.146s-0.199,0.224-0.199,0.38c0,0.15,0.056,0.266,0.165,0.349s0.312,0.158,0.603,0.225
				c0.291,0.069,0.51,0.142,0.656,0.22s0.254,0.171,0.323,0.28c0.071,0.109,0.105,0.242,0.105,0.397
				c0,0.254-0.103,0.456-0.308,0.607s-0.472,0.228-0.801,0.228c-0.35,0-0.634-0.085-0.851-0.255
				c-0.218-0.17-0.327-0.384-0.327-0.642h0.334c0.012,0.195,0.094,0.346,0.245,0.453c0.151,0.108,0.35,0.163,0.6,0.163
				c0.232,0,0.419-0.051,0.561-0.153C56.907,16.743,56.978,16.615,56.978,16.459z"/>
			<path class="st9" d="M57.898,13.35c0-0.062,0.021-0.116,0.061-0.159s0.096-0.065,0.166-0.065c0.071,0,0.127,0.022,0.169,0.065
				c0.042,0.043,0.062,0.096,0.062,0.159s-0.021,0.115-0.062,0.158c-0.042,0.043-0.097,0.063-0.169,0.063
				c-0.071,0-0.126-0.021-0.166-0.063C57.919,13.465,57.898,13.412,57.898,13.35z M58.29,17.223h-0.334v-3.005h0.334V17.223z"/>
			<path class="st9" d="M58.866,15.676c0-0.289,0.056-0.549,0.169-0.78c0.112-0.232,0.27-0.413,0.475-0.541
				c0.205-0.129,0.437-0.193,0.696-0.193c0.399,0,0.723,0.14,0.972,0.421c0.248,0.28,0.372,0.652,0.372,1.115v0.069
				c0,0.29-0.056,0.553-0.169,0.785c-0.112,0.232-0.27,0.412-0.473,0.537c-0.204,0.126-0.436,0.189-0.697,0.189
				c-0.398,0-0.722-0.14-0.971-0.421c-0.25-0.28-0.373-0.652-0.373-1.115L58.866,15.676L58.866,15.676z M59.2,15.767
				c0,0.359,0.093,0.654,0.279,0.885c0.186,0.23,0.43,0.346,0.732,0.346c0.3,0,0.543-0.116,0.729-0.346
				c0.186-0.231,0.279-0.535,0.279-0.913v-0.065c0-0.23-0.043-0.44-0.128-0.63c-0.085-0.19-0.205-0.338-0.358-0.442
				c-0.153-0.105-0.329-0.158-0.528-0.158c-0.297,0-0.538,0.116-0.726,0.348c-0.187,0.233-0.28,0.536-0.28,0.913L59.2,15.767z"/>
			<path class="st9" d="M62.411,14.218l0.011,0.514c0.113-0.186,0.254-0.327,0.422-0.424c0.169-0.097,0.355-0.147,0.558-0.147
				c0.323,0,0.563,0.091,0.719,0.273c0.158,0.182,0.237,0.453,0.239,0.816v1.972h-0.33v-1.975c-0.002-0.268-0.059-0.468-0.171-0.601
				c-0.112-0.131-0.291-0.197-0.538-0.197c-0.206,0-0.387,0.065-0.546,0.193s-0.275,0.302-0.351,0.521v2.059h-0.331v-3.005
				C62.093,14.218,62.411,14.218,62.411,14.218z"/>
			<path class="st9" d="M66.134,15.676c0-0.289,0.056-0.549,0.169-0.78c0.112-0.232,0.27-0.413,0.475-0.541
				c0.205-0.129,0.437-0.193,0.696-0.193c0.399,0,0.723,0.14,0.973,0.421c0.247,0.28,0.372,0.652,0.372,1.115v0.069
				c0,0.29-0.056,0.553-0.167,0.785s-0.27,0.412-0.474,0.537c-0.204,0.126-0.436,0.189-0.697,0.189c-0.398,0-0.722-0.14-0.971-0.421
				c-0.25-0.28-0.373-0.652-0.373-1.115v-0.067L66.134,15.676L66.134,15.676z M66.468,15.767c0,0.359,0.093,0.654,0.279,0.885
				c0.186,0.23,0.43,0.346,0.732,0.346c0.3,0,0.543-0.116,0.73-0.346c0.186-0.231,0.279-0.535,0.279-0.913v-0.065
				c0-0.23-0.043-0.44-0.128-0.63c-0.085-0.19-0.204-0.338-0.358-0.442c-0.154-0.105-0.329-0.158-0.528-0.158
				c-0.297,0-0.538,0.116-0.726,0.348c-0.187,0.233-0.28,0.536-0.28,0.913v0.061L66.468,15.767z"/>
			<path class="st9" d="M69.601,17.223v-2.734h-0.497v-0.273h0.497v-0.364c0-0.308,0.078-0.543,0.234-0.708
				c0.157-0.165,0.374-0.247,0.654-0.247c0.126,0,0.244,0.016,0.352,0.047l-0.025,0.275c-0.092-0.022-0.193-0.034-0.303-0.034
				c-0.183,0-0.326,0.058-0.427,0.171c-0.101,0.114-0.153,0.276-0.153,0.486v0.373h0.717v0.273h-0.716v2.734H69.6v0.001H69.601z"/>
			<path class="st9" d="M75.056,13.467h-1.387v3.756h-0.341v-3.756h-1.384v-0.288h3.111L75.056,13.467L75.056,13.467z"/>
			<path class="st9" d="M76.379,17.279c-0.256,0-0.487-0.063-0.693-0.189c-0.207-0.126-0.368-0.301-0.482-0.526
				c-0.115-0.225-0.172-0.477-0.172-0.756v-0.12c0-0.289,0.056-0.549,0.169-0.78s0.268-0.414,0.468-0.546
				c0.2-0.132,0.417-0.199,0.65-0.199c0.364,0,0.654,0.125,0.868,0.373c0.213,0.25,0.321,0.59,0.321,1.021v0.186h-2.145v0.065
				c0,0.34,0.098,0.624,0.293,0.851c0.196,0.227,0.441,0.34,0.738,0.34c0.178,0,0.335-0.033,0.471-0.097
				c0.136-0.065,0.259-0.169,0.371-0.311l0.208,0.158C77.198,17.102,76.843,17.279,76.379,17.279z M76.318,14.445
				c-0.251,0-0.461,0.092-0.631,0.275s-0.276,0.429-0.312,0.739h1.803v-0.036c-0.01-0.289-0.092-0.524-0.247-0.706
				C76.774,14.535,76.569,14.445,76.318,14.445z"/>
			<path class="st9" d="M79.123,16.998c0.232,0,0.426-0.066,0.582-0.197c0.157-0.13,0.241-0.299,0.255-0.507h0.32
				c-0.009,0.183-0.067,0.35-0.172,0.501c-0.106,0.151-0.246,0.268-0.421,0.355c-0.175,0.085-0.362,0.128-0.563,0.128
				c-0.395,0-0.707-0.137-0.937-0.412c-0.231-0.274-0.346-0.642-0.346-1.106v-0.1c0-0.297,0.053-0.558,0.155-0.786
				c0.103-0.228,0.252-0.404,0.445-0.528c0.193-0.125,0.42-0.186,0.68-0.186c0.329,0,0.601,0.098,0.815,0.294
				c0.215,0.197,0.327,0.455,0.343,0.775h-0.32c-0.015-0.235-0.1-0.425-0.255-0.569c-0.154-0.144-0.349-0.217-0.584-0.217
				c-0.3,0-0.533,0.108-0.698,0.325c-0.166,0.217-0.25,0.521-0.25,0.912v0.097c0,0.383,0.083,0.682,0.25,0.897
				C78.587,16.891,78.821,16.998,79.123,16.998z"/>
			<path class="st9" d="M81.13,14.725c0.109-0.179,0.25-0.318,0.419-0.417c0.171-0.098,0.357-0.147,0.558-0.147
				c0.323,0,0.563,0.091,0.72,0.273c0.158,0.182,0.236,0.453,0.239,0.816v1.972h-0.332v-1.975c-0.001-0.268-0.059-0.468-0.171-0.601
				c-0.112-0.131-0.29-0.197-0.537-0.197c-0.206,0-0.389,0.065-0.546,0.193s-0.276,0.302-0.351,0.521v2.059h-0.331v-4.267h0.331
				L81.13,14.725L81.13,14.725z"/>
			<path class="st9" d="M84.096,14.218l0.011,0.514c0.114-0.186,0.254-0.327,0.422-0.424c0.169-0.097,0.356-0.147,0.558-0.147
				c0.323,0,0.563,0.091,0.72,0.273c0.158,0.182,0.236,0.453,0.239,0.816v1.972h-0.331v-1.975c-0.002-0.268-0.059-0.468-0.171-0.601
				c-0.112-0.131-0.29-0.197-0.537-0.197c-0.206,0-0.389,0.065-0.546,0.193s-0.276,0.302-0.351,0.521v2.059h-0.33v-3.005
				C83.78,14.218,84.096,14.218,84.096,14.218z"/>
			<path class="st9" d="M86.579,15.676c0-0.289,0.056-0.549,0.169-0.78c0.112-0.232,0.27-0.413,0.475-0.541
				c0.205-0.129,0.437-0.193,0.696-0.193c0.399,0,0.723,0.14,0.973,0.421c0.247,0.28,0.372,0.652,0.372,1.115v0.069
				c0,0.29-0.056,0.553-0.169,0.785c-0.112,0.232-0.27,0.412-0.474,0.537c-0.204,0.126-0.436,0.189-0.697,0.189
				c-0.398,0-0.722-0.14-0.971-0.421c-0.248-0.281-0.373-0.652-0.373-1.115L86.579,15.676L86.579,15.676z M86.913,15.767
				c0,0.359,0.093,0.654,0.279,0.885c0.186,0.23,0.43,0.346,0.732,0.346c0.3,0,0.543-0.116,0.73-0.346
				c0.186-0.231,0.279-0.535,0.279-0.913v-0.065c0-0.23-0.043-0.44-0.128-0.63c-0.085-0.19-0.204-0.338-0.358-0.442
				c-0.154-0.105-0.329-0.158-0.528-0.158c-0.297,0-0.538,0.116-0.726,0.348c-0.187,0.233-0.28,0.536-0.28,0.913L86.913,15.767
				L86.913,15.767z"/>
			<path class="st9" d="M90.18,17.223h-0.334v-4.267h0.334V17.223z"/>
			<path class="st9" d="M90.758,15.676c0-0.289,0.056-0.549,0.169-0.78c0.112-0.232,0.27-0.413,0.475-0.541
				c0.205-0.129,0.437-0.193,0.696-0.193c0.399,0,0.723,0.14,0.973,0.421c0.247,0.28,0.372,0.652,0.372,1.115v0.069
				c0,0.29-0.056,0.553-0.169,0.785c-0.112,0.232-0.27,0.412-0.474,0.537c-0.204,0.126-0.436,0.189-0.697,0.189
				c-0.398,0-0.722-0.14-0.971-0.421c-0.25-0.28-0.373-0.652-0.373-1.115L90.758,15.676L90.758,15.676z M91.09,15.767
				c0,0.359,0.093,0.654,0.279,0.885c0.186,0.23,0.43,0.346,0.732,0.346c0.3,0,0.543-0.116,0.73-0.346
				c0.186-0.231,0.279-0.535,0.279-0.913v-0.065c0-0.23-0.043-0.44-0.128-0.63c-0.085-0.19-0.204-0.338-0.358-0.442
				c-0.154-0.105-0.329-0.158-0.528-0.158c-0.297,0-0.538,0.116-0.726,0.348c-0.187,0.233-0.28,0.536-0.28,0.913L91.09,15.767
				L91.09,15.767z"/>
			<path class="st9" d="M93.85,15.693c0-0.471,0.104-0.843,0.312-1.118s0.491-0.413,0.849-0.413c0.409,0,0.72,0.163,0.934,0.489
				l0.016-0.433h0.312v2.944c0,0.387-0.108,0.694-0.325,0.919s-0.51,0.338-0.88,0.338c-0.21,0-0.409-0.047-0.6-0.14
				c-0.189-0.094-0.339-0.219-0.449-0.373l0.186-0.2c0.235,0.289,0.514,0.433,0.839,0.433c0.277,0,0.495-0.082,0.65-0.246
				s0.236-0.391,0.242-0.682v-0.376c-0.213,0.297-0.523,0.444-0.93,0.444c-0.348,0-0.628-0.139-0.839-0.417
				s-0.316-0.653-0.316-1.125L93.85,15.693L93.85,15.693z M94.188,15.751c0,0.384,0.078,0.686,0.231,0.907s0.37,0.332,0.65,0.332
				c0.409,0,0.698-0.184,0.869-0.55v-1.398c-0.078-0.193-0.19-0.34-0.336-0.44c-0.147-0.101-0.323-0.151-0.528-0.151
				c-0.279,0-0.497,0.109-0.653,0.329C94.264,15,94.188,15.324,94.188,15.751z"/>
			<path class="st9" d="M97.95,16.746l0.878-2.528h0.359l-1.284,3.517l-0.067,0.155c-0.164,0.366-0.419,0.547-0.764,0.547
				c-0.08,0-0.164-0.013-0.256-0.038l-0.002-0.275l0.172,0.016c0.163,0,0.294-0.04,0.395-0.12c0.101-0.081,0.186-0.219,0.258-0.416
				l0.147-0.406l-1.134-2.981h0.363L97.95,16.746z"/>
			<path class="st9" d="M102.698,17.223c-0.034-0.094-0.055-0.234-0.063-0.419c-0.117,0.151-0.265,0.268-0.445,0.351
				c-0.181,0.082-0.372,0.124-0.573,0.124c-0.289,0-0.523-0.081-0.702-0.242c-0.178-0.161-0.268-0.364-0.268-0.612
				c0-0.292,0.12-0.524,0.364-0.695c0.244-0.171,0.583-0.256,1.019-0.256h0.603v-0.341c0-0.215-0.067-0.384-0.199-0.508
				c-0.131-0.123-0.325-0.185-0.58-0.185c-0.232,0-0.424,0.06-0.576,0.178c-0.152,0.118-0.228,0.262-0.228,0.428l-0.334-0.003
				c0-0.239,0.111-0.445,0.334-0.621c0.222-0.175,0.496-0.262,0.82-0.262c0.335,0,0.6,0.084,0.792,0.252
				c0.193,0.169,0.292,0.402,0.299,0.702v1.422c0,0.29,0.031,0.509,0.092,0.653v0.034H102.698z M101.653,16.985
				c0.222,0,0.421-0.054,0.596-0.161c0.175-0.107,0.302-0.252,0.382-0.431v-0.661h-0.594c-0.332,0.003-0.591,0.065-0.777,0.182
				c-0.187,0.117-0.28,0.279-0.28,0.485c0,0.169,0.062,0.309,0.187,0.42C101.291,16.928,101.453,16.985,101.653,16.985z"/>
			<path class="st9" d="M104.022,14.218l0.011,0.514c0.114-0.186,0.254-0.327,0.422-0.424c0.169-0.097,0.356-0.147,0.558-0.147
				c0.323,0,0.563,0.091,0.72,0.273c0.158,0.182,0.236,0.453,0.239,0.816v1.972h-0.331v-1.975c-0.001-0.268-0.059-0.468-0.171-0.601
				c-0.112-0.131-0.29-0.197-0.537-0.197c-0.206,0-0.389,0.065-0.546,0.193s-0.276,0.302-0.351,0.521v2.059h-0.331v-3.005
				C103.706,14.218,104.022,14.218,104.022,14.218z"/>
			<path class="st9" d="M106.554,15.693c0-0.467,0.104-0.838,0.312-1.115c0.208-0.277,0.491-0.416,0.849-0.416
				c0.406,0,0.715,0.16,0.928,0.48v-1.686h0.331v4.267h-0.312l-0.013-0.399c-0.213,0.303-0.526,0.455-0.939,0.455
				c-0.347,0-0.626-0.139-0.838-0.418s-0.318-0.656-0.318-1.129V15.693L106.554,15.693z M106.892,15.751
				c0,0.384,0.078,0.686,0.231,0.907s0.37,0.332,0.65,0.332c0.409,0,0.699-0.181,0.871-0.542v-1.412
				c-0.172-0.391-0.461-0.587-0.867-0.587c-0.279,0-0.497,0.109-0.653,0.329C106.969,15,106.892,15.324,106.892,15.751z"/>
			<path class="st9" d="M111.371,16.934h1.997v0.289h-2.341v-4.044h0.345L111.371,16.934L111.371,16.934z"/>
			<path class="st9" d="M114.968,17.279c-0.255,0-0.487-0.063-0.693-0.189c-0.207-0.126-0.368-0.301-0.482-0.526
				c-0.115-0.225-0.172-0.477-0.172-0.756v-0.12c0-0.289,0.056-0.549,0.167-0.78c0.112-0.231,0.268-0.414,0.468-0.546
				c0.2-0.132,0.417-0.199,0.65-0.199c0.364,0,0.654,0.125,0.868,0.373c0.213,0.248,0.321,0.59,0.321,1.021v0.186h-2.145v0.065
				c0,0.34,0.098,0.624,0.293,0.851c0.196,0.227,0.441,0.34,0.738,0.34c0.178,0,0.335-0.033,0.471-0.097
				c0.136-0.065,0.259-0.169,0.371-0.311l0.208,0.158C115.787,17.102,115.432,17.279,114.968,17.279z M114.907,14.445
				c-0.251,0-0.461,0.092-0.631,0.275c-0.172,0.183-0.276,0.429-0.312,0.739h1.803v-0.036c-0.01-0.289-0.092-0.524-0.247-0.706
				C115.362,14.536,115.159,14.445,114.907,14.445z"/>
			<path class="st9" d="M118.498,17.223c-0.034-0.094-0.055-0.234-0.063-0.419c-0.117,0.151-0.265,0.268-0.445,0.351
				c-0.181,0.082-0.372,0.124-0.573,0.124c-0.289,0-0.523-0.081-0.702-0.242c-0.178-0.161-0.268-0.364-0.268-0.612
				c0-0.292,0.12-0.524,0.364-0.695c0.244-0.171,0.583-0.256,1.019-0.256h0.603v-0.341c0-0.215-0.067-0.384-0.199-0.508
				c-0.131-0.123-0.325-0.185-0.58-0.185c-0.232,0-0.424,0.06-0.576,0.178c-0.152,0.118-0.228,0.262-0.228,0.428l-0.334-0.003
				c0-0.239,0.111-0.445,0.334-0.621c0.222-0.175,0.496-0.262,0.82-0.262c0.335,0,0.6,0.084,0.792,0.252
				c0.193,0.169,0.292,0.402,0.299,0.702v1.422c0,0.29,0.031,0.509,0.092,0.653v0.034C118.854,17.223,118.498,17.223,118.498,17.223
				z M117.454,16.985c0.222,0,0.421-0.054,0.596-0.161c0.175-0.107,0.302-0.252,0.382-0.431v-0.661h-0.594
				c-0.332,0.003-0.591,0.065-0.777,0.182c-0.187,0.117-0.28,0.279-0.28,0.485c0,0.169,0.062,0.309,0.187,0.42
				C117.092,16.928,117.253,16.985,117.454,16.985z"/>
			<path class="st9" d="M120.895,14.501c-0.071-0.012-0.146-0.02-0.225-0.02c-0.208,0-0.384,0.058-0.526,0.174
				c-0.143,0.116-0.246,0.283-0.308,0.503v2.064h-0.331v-3.005h0.325l0.005,0.477c0.175-0.356,0.459-0.533,0.847-0.533
				c0.092,0,0.166,0.012,0.22,0.036L120.895,14.501z"/>
			<path class="st9" d="M121.595,14.218l0.011,0.514c0.114-0.186,0.254-0.327,0.422-0.424c0.169-0.097,0.356-0.147,0.558-0.147
				c0.323,0,0.563,0.091,0.72,0.273c0.158,0.182,0.236,0.453,0.239,0.816v1.972h-0.331v-1.975c-0.001-0.268-0.059-0.468-0.171-0.601
				c-0.112-0.131-0.29-0.197-0.537-0.197c-0.206,0-0.389,0.065-0.546,0.193s-0.276,0.302-0.351,0.521v2.059h-0.331v-3.005
				C121.279,14.218,121.595,14.218,121.595,14.218z"/>
			<path class="st9" d="M124.241,13.35c0-0.062,0.021-0.116,0.061-0.159s0.096-0.065,0.166-0.065s0.127,0.022,0.169,0.065
				c0.042,0.043,0.062,0.096,0.062,0.159s-0.021,0.115-0.062,0.158c-0.042,0.043-0.098,0.063-0.169,0.063s-0.126-0.021-0.166-0.063
				C124.261,13.465,124.241,13.412,124.241,13.35z M124.633,17.223h-0.334v-3.005h0.334V17.223z"/>
			<path class="st9" d="M125.71,14.218l0.011,0.514c0.114-0.186,0.254-0.327,0.422-0.424c0.169-0.097,0.356-0.147,0.558-0.147
				c0.323,0,0.563,0.091,0.72,0.273c0.158,0.182,0.236,0.453,0.239,0.816v1.972h-0.331v-1.975c-0.002-0.268-0.059-0.468-0.171-0.601
				c-0.112-0.131-0.29-0.197-0.537-0.197c-0.206,0-0.389,0.065-0.546,0.193c-0.158,0.128-0.276,0.302-0.351,0.521v2.059h-0.331
				v-3.005C125.394,14.218,125.71,14.218,125.71,14.218z"/>
			<path class="st9" d="M128.244,15.693c0-0.471,0.104-0.843,0.312-1.118s0.491-0.413,0.849-0.413c0.409,0,0.72,0.163,0.934,0.489
				l0.016-0.433h0.312v2.944c0,0.387-0.108,0.694-0.325,0.919s-0.51,0.338-0.88,0.338c-0.21,0-0.409-0.047-0.6-0.14
				c-0.189-0.094-0.339-0.219-0.449-0.373l0.186-0.2c0.235,0.289,0.514,0.433,0.839,0.433c0.277,0,0.495-0.082,0.65-0.246
				s0.236-0.391,0.242-0.682v-0.376c-0.213,0.297-0.523,0.444-0.93,0.444c-0.348,0-0.628-0.139-0.839-0.417
				s-0.316-0.653-0.316-1.125L128.244,15.693L128.244,15.693z M128.58,15.751c0,0.384,0.078,0.686,0.231,0.907
				s0.37,0.332,0.65,0.332c0.409,0,0.698-0.184,0.869-0.55v-1.398c-0.078-0.193-0.19-0.34-0.336-0.44
				c-0.147-0.101-0.323-0.151-0.528-0.151c-0.279,0-0.497,0.109-0.653,0.329C128.657,15,128.58,15.324,128.58,15.751z"/>
		</g>
	</g>
</g>
</svg>
