<?xml version="1.0" encoding="utf-8"?>
<!-- Generator: Adobe Illustrator 21.1.0, SVG Export Plug-In . SVG Version: 6.00 Build 0)  -->
<svg version="1.1" id="Layer_1" xmlns="http://www.w3.org/2000/svg" xmlns:xlink="http://www.w3.org/1999/xlink" x="0px" y="0px"
	 viewBox="0 0 200 24" style="enable-background:new 0 0 200 24;" xml:space="preserve">
<style type="text/css">
	.st0{opacity:0.46;}
	.st1{opacity:0.33;fill:#5C6A75;enable-background:new    ;}
	.st2{fill:url(#SVGID_1_);}
	.st3{fill:url(#SVGID_2_);}
	.st4{fill:url(#SVGID_3_);}
	.st5{opacity:0.44;fill:#FFFFFF;enable-background:new    ;}
	.st6{fill:#50C5DD;}
	.st7{fill:#2EA8D6;}
	.st8{opacity:0.33;fill:#FFFFFF;enable-background:new    ;}
	.st9{fill:#FFFFFF;}
</style>
<g class="st0">
	<path class="st1" d="M30.129,4.35v3.608c-0.653-0.349-1.396-0.548-2.187-0.548c-2.579,0-4.669,2.109-4.669,4.711
		s2.09,4.711,4.669,4.711c0.791,0,1.535-0.199,2.187-0.548v0.548h2.482V4.35H30.129z M27.994,14.336
		c-1.179,0-2.135-0.965-2.135-2.156c0.001-1.191,0.957-2.156,2.135-2.156c1.179,0,2.135,0.965,2.135,2.156
		C30.129,13.37,29.173,14.336,27.994,14.336z"/>
	<path class="st1" d="M18.496,7.75c-0.791,0-1.535,0.199-2.187,0.548V7.75h-2.482v12.481h2.482v-3.608
		c0.653,0.349,1.396,0.548,2.187,0.548c2.579,0,4.669-2.109,4.669-4.711C23.165,9.859,21.075,7.75,18.496,7.75z M18.445,14.556
		c-1.179,0-2.135-0.965-2.135-2.155c0-1.189,0.957-2.155,2.135-2.155c1.179,0,2.135,0.965,2.135,2.155S19.624,14.556,18.445,14.556z
		"/>
	<path class="st1" d="M13.157,9.443c-0.002-0.005-0.005-0.011-0.007-0.016c-0.023-0.056-0.05-0.11-0.074-0.165
		c-0.055-0.124-0.112-0.246-0.174-0.367c-0.035-0.067-0.071-0.133-0.108-0.2c-0.062-0.11-0.127-0.219-0.194-0.325
		c-0.037-0.058-0.072-0.116-0.11-0.173c-0.104-0.153-0.212-0.302-0.328-0.446c-0.031-0.039-0.065-0.075-0.097-0.112
		c-0.092-0.11-0.187-0.217-0.286-0.32c-0.049-0.051-0.098-0.1-0.148-0.149c-0.093-0.091-0.189-0.18-0.287-0.265
		c-0.049-0.042-0.096-0.085-0.145-0.126c-0.144-0.119-0.293-0.234-0.447-0.34c-0.027-0.019-0.057-0.035-0.084-0.054
		c-0.132-0.088-0.268-0.173-0.407-0.251c-0.055-0.031-0.112-0.061-0.168-0.091C9.971,5.978,9.848,5.918,9.721,5.861
		C9.666,5.836,9.613,5.81,9.557,5.788C9.379,5.713,9.198,5.644,9.013,5.586C8.997,5.581,8.981,5.578,8.965,5.573
		C8.793,5.52,8.617,5.475,8.44,5.435C8.381,5.422,8.321,5.411,8.262,5.4C8.119,5.373,7.974,5.35,7.827,5.333
		c-0.06-0.007-0.119-0.015-0.18-0.021C7.446,5.293,7.243,5.28,7.037,5.28c-0.208,0-0.414,0.013-0.617,0.032
		C6.356,5.318,6.294,5.328,6.233,5.335C6.091,5.352,5.95,5.373,5.811,5.399c-0.067,0.013-0.134,0.026-0.2,0.041
		C5.468,5.473,5.327,5.51,5.189,5.551C5.136,5.567,5.082,5.58,5.029,5.598c-0.187,0.06-0.371,0.128-0.55,0.204
		C4.444,5.817,4.41,5.835,4.376,5.85C4.231,5.915,4.09,5.984,3.951,6.059c-0.06,0.032-0.118,0.067-0.176,0.1
		C3.662,6.224,3.551,6.292,3.442,6.364C3.383,6.403,3.325,6.442,3.267,6.482C3.152,6.564,3.041,6.649,2.932,6.737
		C2.89,6.772,2.845,6.804,2.803,6.84C2.66,6.961,2.522,7.089,2.39,7.222C2.343,7.268,2.301,7.317,2.256,7.365
		C2.168,7.458,2.082,7.554,2,7.651C1.949,7.713,1.9,7.775,1.85,7.839C1.778,7.931,1.709,8.027,1.642,8.123
		C1.596,8.188,1.55,8.253,1.506,8.321c-0.074,0.114-0.143,0.233-0.21,0.352C1.259,8.737,1.222,8.801,1.187,8.867
		c-0.078,0.15-0.151,0.305-0.218,0.462C0.937,9.403,0.909,9.48,0.88,9.556c-0.027,0.07-0.057,0.138-0.082,0.209
		C0.8,9.766,0.801,9.767,0.803,9.768c-0.245,0.703-0.385,1.456-0.385,2.245c0,3.719,2.964,6.734,6.619,6.734
		s6.619-3.014,6.619-6.734C13.657,11.103,13.478,10.235,13.157,9.443C13.156,9.444,13.157,9.444,13.157,9.443z"/>
</g>
<g>
	
		<linearGradient id="SVGID_1_" gradientUnits="userSpaceOnUse" x1="6.9315" y1="62.867" x2="6.9315" y2="76.335" gradientTransform="matrix(1 0 0 1 0 -57.8)">
		<stop  offset="0" style="stop-color:#FFFFFF"/>
		<stop  offset="0.3126" style="stop-color:#E2E1E0"/>
		<stop  offset="0.4767" style="stop-color:#E0E0DF"/>
		<stop  offset="0.7198" style="stop-color:#C8C8C8"/>
	</linearGradient>
	<path class="st2" d="M5.491,8.166c0.484,0,5.285,2.774,5.285,3.652c0,0.877-4.671,3.652-5.285,3.652
		C4.878,15.471,5.008,8.166,5.491,8.166z M6.932,5.067c3.656,0,6.619,3.016,6.619,6.734c0,3.719-2.964,6.734-6.619,6.734
		s-6.62-3.016-6.62-6.735S3.276,5.067,6.932,5.067z"/>
	
		<linearGradient id="SVGID_2_" gradientUnits="userSpaceOnUse" x1="27.836" y1="-72.063" x2="27.836" y2="-48.6994" gradientTransform="matrix(1 0 0 1 0 76.2)">
		<stop  offset="0" style="stop-color:#FFFFFF"/>
		<stop  offset="0.1656" style="stop-color:#EAEAEA"/>
		<stop  offset="0.6628" style="stop-color:#B6B8B8"/>
	</linearGradient>
	<path class="st3" d="M27.887,9.811c1.179,0,2.135,0.965,2.135,2.156s-0.956,2.156-2.135,2.156s-2.135-0.965-2.135-2.156
		C25.753,10.776,26.709,9.811,27.887,9.811z M30.023,4.137v3.608c-0.653-0.349-1.396-0.548-2.187-0.548
		c-2.579,0-4.669,2.109-4.669,4.711s2.09,4.711,4.669,4.711c0.791,0,1.534-0.199,2.187-0.548v0.548h2.482V4.137H30.023z"/>
	
		<linearGradient id="SVGID_3_" gradientUnits="userSpaceOnUse" x1="18.39" y1="-68.662" x2="18.39" y2="-48.0603" gradientTransform="matrix(1 0 0 1 0 76.2)">
		<stop  offset="0" style="stop-color:#FFFFFF"/>
		<stop  offset="0.2611" style="stop-color:#D4D5D5"/>
		<stop  offset="0.6575" style="stop-color:#B9BBBB"/>
		<stop  offset="0.8092" style="stop-color:#B6B8B8"/>
	</linearGradient>
	<path class="st4" d="M18.338,10.034c1.179,0,2.135,0.965,2.135,2.155s-0.956,2.155-2.135,2.155s-2.135-0.965-2.135-2.155
		S17.16,10.034,18.338,10.034z M18.39,7.538c-0.791,0-1.535,0.199-2.187,0.548V7.538h-2.482V20.02h2.482v-3.608
		c0.653,0.349,1.396,0.548,2.187,0.548c2.579,0,4.669-2.109,4.669-4.711S20.969,7.538,18.39,7.538z"/>
	<path class="st5" d="M6.932,5.067c-2.881,0-5.33,1.873-6.24,4.486c1.143,0.826,2.672,1.412,4.399,1.638
		c0.043-1.595,0.187-3.025,0.4-3.025c0.358,0,3.077,1.519,4.469,2.663c1.219-0.36,2.279-0.912,3.09-1.598
		C12.058,6.787,9.693,5.067,6.932,5.067z"/>
	<path class="st6" d="M5.491,8.166c0.484,0,5.285,2.774,5.285,3.652c0,0.877-4.671,3.652-5.285,3.652
		C4.878,15.471,5.008,8.166,5.491,8.166z"/>
	<g>
		<path class="st7" d="M5.491,8.166c-0.061,0-0.117,0.118-0.166,0.325c0.615,0.09,5.254,2.784,5.254,3.648
			c0,0.033-0.009,0.069-0.021,0.108c0.139-0.168,0.219-0.315,0.219-0.428C10.776,10.94,5.974,8.166,5.491,8.166z"/>
	</g>
	<path class="st8" d="M5.091,11.191c0.51,0.067,1.036,0.102,1.575,0.102c1.174,0,2.288-0.166,3.294-0.463
		C8.568,9.685,5.849,8.168,5.491,8.168C5.278,8.166,5.134,9.597,5.091,11.191z"/>
</g>
<g>
	<path class="st9" d="M36.681,8.314c0,0.295-0.052,0.553-0.156,0.775c-0.104,0.222-0.253,0.393-0.447,0.514
		c-0.194,0.12-0.416,0.181-0.667,0.181c-0.248,0-0.469-0.059-0.663-0.178c-0.194-0.119-0.345-0.289-0.452-0.511
		c-0.107-0.221-0.161-0.476-0.162-0.763v-0.15c0-0.294,0.053-0.553,0.16-0.778c0.106-0.224,0.256-0.396,0.45-0.516
		s0.416-0.18,0.665-0.18s0.471,0.06,0.665,0.18s0.344,0.292,0.45,0.516s0.159,0.482,0.159,0.776L36.681,8.314L36.681,8.314z
		 M36.056,8.178c0-0.314-0.056-0.552-0.168-0.715s-0.273-0.244-0.481-0.244c-0.207,0-0.366,0.08-0.478,0.241
		c-0.112,0.161-0.169,0.397-0.17,0.708v0.146c0,0.305,0.056,0.543,0.168,0.711s0.274,0.253,0.485,0.253
		c0.207,0,0.366-0.081,0.476-0.243c0.111-0.162,0.167-0.399,0.168-0.71C36.056,8.325,36.056,8.178,36.056,8.178z"/>
	<path class="st9" d="M37.531,7.519l0.019,0.257c0.159-0.199,0.372-0.298,0.639-0.298c0.236,0,0.411,0.069,0.526,0.208
		c0.115,0.138,0.174,0.345,0.176,0.621v1.436h-0.593V8.317c0-0.126-0.027-0.218-0.082-0.275s-0.146-0.086-0.273-0.086
		c-0.167,0-0.293,0.071-0.376,0.214v1.571h-0.593V7.519H37.531z"/>
	<path class="st9" d="M39.863,9.742h-0.596V6.586h0.596V9.742z"/>
	<path class="st9" d="M40.242,6.943c0-0.089,0.03-0.162,0.089-0.22c0.059-0.057,0.14-0.086,0.243-0.086
		c0.102,0,0.182,0.029,0.242,0.086c0.061,0.058,0.09,0.131,0.09,0.22c0,0.09-0.031,0.164-0.091,0.222s-0.14,0.086-0.24,0.086
		s-0.18-0.029-0.241-0.086S40.242,7.034,40.242,6.943z M40.874,9.742h-0.596V7.519h0.596V9.742z"/>
	<path class="st9" d="M41.804,7.519l0.019,0.257c0.159-0.199,0.372-0.298,0.639-0.298c0.235,0,0.411,0.069,0.526,0.208
		c0.115,0.138,0.174,0.345,0.176,0.621v1.436h-0.593V8.317c0-0.126-0.027-0.218-0.082-0.275s-0.146-0.086-0.273-0.086
		c-0.167,0-0.293,0.071-0.376,0.214v1.571h-0.595V7.519H41.804z"/>
	<path class="st9" d="M44.531,9.783c-0.326,0-0.591-0.1-0.796-0.3s-0.307-0.466-0.307-0.8V8.626c0-0.224,0.043-0.423,0.13-0.599
		c0.086-0.176,0.208-0.311,0.367-0.407c0.158-0.095,0.339-0.143,0.542-0.143c0.304,0,0.544,0.096,0.718,0.288
		c0.175,0.192,0.262,0.464,0.262,0.816v0.242h-1.416c0.019,0.145,0.077,0.261,0.174,0.349c0.096,0.088,0.219,0.132,0.367,0.132
		c0.229,0,0.407-0.082,0.536-0.249L45.4,9.382c-0.089,0.126-0.21,0.224-0.362,0.295C44.885,9.748,44.716,9.783,44.531,9.783z
		 M44.463,7.956c-0.118,0-0.213,0.04-0.287,0.12c-0.073,0.08-0.12,0.194-0.141,0.343h0.826V8.371
		c-0.003-0.132-0.038-0.234-0.107-0.307C44.687,7.993,44.59,7.956,44.463,7.956z"/>
	<path class="st9" d="M47.275,8.688v1.054h-0.617V6.751h1.167c0.224,0,0.422,0.041,0.593,0.123c0.17,0.082,0.302,0.199,0.394,0.351
		s0.138,0.323,0.138,0.517c0,0.293-0.1,0.524-0.301,0.693c-0.201,0.169-0.478,0.253-0.833,0.253
		C47.816,8.688,47.275,8.688,47.275,8.688z M47.275,8.189h0.551c0.163,0,0.287-0.039,0.373-0.115
		c0.086-0.077,0.128-0.186,0.128-0.329c0-0.146-0.043-0.265-0.13-0.355c-0.086-0.09-0.206-0.137-0.357-0.14h-0.565V8.189z"/>
	<path class="st9" d="M50.478,8.075c-0.081-0.011-0.153-0.017-0.214-0.017c-0.225,0-0.372,0.076-0.442,0.228V9.74h-0.593V7.519
		h0.561l0.017,0.265c0.119-0.204,0.284-0.306,0.495-0.306c0.066,0,0.128,0.009,0.185,0.027L50.478,8.075z"/>
	<path class="st9" d="M50.492,8.609c0-0.22,0.043-0.417,0.127-0.589c0.085-0.173,0.207-0.306,0.367-0.4
		c0.16-0.094,0.345-0.142,0.555-0.142c0.3,0,0.545,0.092,0.734,0.275c0.19,0.184,0.295,0.433,0.317,0.748l0.004,0.152
		c0,0.341-0.095,0.615-0.285,0.821s-0.446,0.309-0.766,0.309s-0.576-0.102-0.768-0.308C50.586,9.269,50.49,8.99,50.49,8.637V8.609
		H50.492z M51.086,8.652c0,0.211,0.039,0.373,0.119,0.484c0.08,0.112,0.193,0.168,0.341,0.168c0.144,0,0.256-0.055,0.337-0.166
		s0.121-0.287,0.121-0.53c0-0.207-0.041-0.368-0.121-0.482c-0.08-0.114-0.194-0.171-0.341-0.171c-0.145,0-0.257,0.057-0.337,0.17
		C51.125,8.239,51.086,8.414,51.086,8.652z"/>
	<path class="st9" d="M53.02,9.742V7.954h-0.331V7.519h0.331v-0.19c0-0.249,0.072-0.443,0.215-0.581s0.343-0.206,0.601-0.206
		c0.082,0,0.183,0.013,0.302,0.041l-0.006,0.456c-0.049-0.012-0.11-0.018-0.181-0.018c-0.224,0-0.335,0.106-0.335,0.317v0.18h0.442
		v0.435h-0.442v1.788L53.02,9.742L53.02,9.742z"/>
	<path class="st9" d="M55.235,9.783c-0.326,0-0.591-0.1-0.796-0.3s-0.307-0.466-0.307-0.8V8.626c0-0.224,0.043-0.423,0.13-0.599
		c0.086-0.176,0.208-0.311,0.367-0.407c0.158-0.095,0.339-0.143,0.542-0.143c0.304,0,0.544,0.096,0.718,0.288
		c0.175,0.192,0.262,0.464,0.262,0.816v0.242h-1.416c0.019,0.145,0.077,0.261,0.174,0.349c0.096,0.088,0.219,0.132,0.367,0.132
		c0.229,0,0.407-0.082,0.536-0.249l0.292,0.327c-0.089,0.126-0.21,0.224-0.362,0.295C55.588,9.748,55.419,9.783,55.235,9.783z
		 M55.167,7.956c-0.118,0-0.213,0.04-0.287,0.12c-0.073,0.08-0.12,0.194-0.141,0.343h0.826V8.371
		c-0.003-0.132-0.038-0.234-0.107-0.307C55.39,7.993,55.293,7.956,55.167,7.956z"/>
	<path class="st9" d="M57.585,9.128c0-0.073-0.036-0.13-0.108-0.172c-0.072-0.042-0.188-0.079-0.347-0.112
		c-0.529-0.11-0.793-0.335-0.793-0.674c0-0.198,0.082-0.362,0.245-0.494c0.164-0.132,0.378-0.198,0.642-0.198
		c0.282,0,0.508,0.067,0.677,0.2s0.254,0.305,0.254,0.518h-0.593c0-0.085-0.027-0.155-0.082-0.211
		C57.424,7.927,57.339,7.9,57.223,7.9c-0.1,0-0.178,0.023-0.232,0.068c-0.054,0.045-0.082,0.103-0.082,0.173
		c0,0.066,0.031,0.118,0.094,0.159c0.063,0.041,0.168,0.075,0.315,0.105c0.148,0.029,0.272,0.063,0.374,0.1
		c0.314,0.115,0.47,0.314,0.47,0.598c0,0.203-0.087,0.367-0.261,0.492s-0.398,0.188-0.674,0.188c-0.186,0-0.352-0.033-0.496-0.1
		c-0.144-0.066-0.257-0.158-0.34-0.273c-0.082-0.116-0.123-0.241-0.123-0.375h0.563c0.005,0.106,0.045,0.186,0.117,0.242
		s0.17,0.084,0.292,0.084c0.114,0,0.2-0.021,0.258-0.065C57.555,9.254,57.585,9.197,57.585,9.128z"/>
	<path class="st9" d="M59.643,9.128c0-0.073-0.036-0.13-0.108-0.172c-0.072-0.042-0.188-0.079-0.347-0.112
		c-0.529-0.11-0.793-0.335-0.793-0.674c0-0.198,0.082-0.362,0.245-0.494c0.164-0.132,0.378-0.198,0.642-0.198
		c0.282,0,0.508,0.067,0.677,0.2c0.17,0.133,0.253,0.305,0.253,0.518h-0.593c0-0.085-0.027-0.155-0.082-0.211
		C59.482,7.927,59.397,7.9,59.28,7.9c-0.1,0-0.178,0.023-0.232,0.068c-0.055,0.045-0.082,0.103-0.082,0.173
		c0,0.066,0.031,0.118,0.094,0.159c0.063,0.041,0.168,0.075,0.315,0.105c0.148,0.029,0.272,0.063,0.374,0.1
		c0.313,0.115,0.471,0.314,0.471,0.598c0,0.203-0.087,0.367-0.261,0.492s-0.398,0.188-0.674,0.188c-0.186,0-0.352-0.033-0.496-0.1
		c-0.144-0.066-0.257-0.158-0.34-0.273c-0.083-0.116-0.124-0.241-0.124-0.375h0.563c0.005,0.106,0.045,0.186,0.117,0.242
		s0.17,0.084,0.292,0.084c0.114,0,0.2-0.021,0.258-0.065C59.614,9.254,59.643,9.197,59.643,9.128z"/>
	<path class="st9" d="M60.493,6.943c0-0.089,0.029-0.162,0.089-0.22c0.06-0.057,0.14-0.086,0.243-0.086
		c0.101,0,0.182,0.029,0.242,0.086c0.061,0.058,0.09,0.131,0.09,0.22c0,0.09-0.031,0.164-0.091,0.222
		c-0.061,0.058-0.142,0.086-0.241,0.086c-0.1,0-0.18-0.029-0.241-0.086C60.524,7.108,60.493,7.034,60.493,6.943z M61.124,9.742
		h-0.595V7.519h0.595V9.742z"/>
	<path class="st9" d="M61.415,8.609c0-0.22,0.043-0.417,0.127-0.589c0.084-0.173,0.207-0.306,0.367-0.4
		c0.16-0.094,0.345-0.142,0.555-0.142c0.3,0,0.545,0.092,0.734,0.275c0.19,0.184,0.295,0.433,0.318,0.748l0.004,0.152
		c0,0.341-0.095,0.615-0.285,0.821s-0.446,0.309-0.766,0.309c-0.321,0-0.576-0.102-0.767-0.308
		c-0.191-0.206-0.287-0.485-0.287-0.838C61.415,8.637,61.415,8.609,61.415,8.609z M62.009,8.652c0,0.211,0.04,0.373,0.12,0.484
		c0.079,0.112,0.193,0.168,0.341,0.168c0.144,0,0.255-0.055,0.337-0.166c0.08-0.11,0.121-0.287,0.121-0.53
		c0-0.207-0.041-0.368-0.121-0.482c-0.08-0.114-0.194-0.171-0.341-0.171c-0.145,0-0.257,0.057-0.337,0.17
		C62.049,8.239,62.009,8.414,62.009,8.652z"/>
	<path class="st9" d="M64.328,7.519l0.019,0.257c0.159-0.199,0.371-0.298,0.639-0.298c0.235,0,0.41,0.069,0.526,0.208
		c0.115,0.138,0.174,0.345,0.176,0.621v1.436h-0.594V8.317c0-0.126-0.027-0.218-0.082-0.275s-0.146-0.086-0.273-0.086
		c-0.167,0-0.292,0.071-0.376,0.214v1.571H63.77V7.519H64.328z"/>
	<path class="st9" d="M67.321,9.742c-0.028-0.053-0.047-0.12-0.06-0.2c-0.144,0.16-0.331,0.24-0.561,0.24
		c-0.218,0-0.398-0.063-0.542-0.189c-0.143-0.126-0.215-0.285-0.215-0.476c0-0.235,0.087-0.416,0.262-0.543
		c0.174-0.126,0.427-0.19,0.757-0.191h0.273V8.256c0-0.103-0.027-0.185-0.079-0.247c-0.053-0.062-0.136-0.092-0.249-0.092
		c-0.1,0-0.178,0.024-0.235,0.072s-0.085,0.114-0.085,0.197h-0.594c0-0.128,0.04-0.247,0.12-0.357
		c0.079-0.11,0.192-0.196,0.337-0.258c0.146-0.063,0.309-0.094,0.49-0.094c0.273,0,0.491,0.069,0.652,0.206
		c0.161,0.138,0.241,0.331,0.241,0.581v0.963c0.001,0.211,0.031,0.371,0.088,0.479V9.74h-0.6C67.321,9.74,67.321,9.742,67.321,9.742
		z M66.83,9.328c0.087,0,0.168-0.019,0.242-0.059c0.074-0.039,0.128-0.092,0.164-0.157V8.73h-0.222
		c-0.297,0-0.456,0.102-0.474,0.309l-0.002,0.035c0,0.074,0.026,0.135,0.078,0.183C66.668,9.305,66.74,9.328,66.83,9.328z"/>
	<path class="st9" d="M68.81,9.742h-0.595V6.586h0.595V9.742z"/>
	<path class="st9" d="M70.175,9.742V6.751h0.921c0.263,0,0.498,0.059,0.706,0.178s0.369,0.287,0.486,0.506
		c0.116,0.218,0.174,0.467,0.174,0.745v0.138c0,0.278-0.057,0.526-0.172,0.742c-0.114,0.216-0.275,0.385-0.484,0.504
		c-0.208,0.119-0.443,0.18-0.704,0.181h-0.927V9.742z M70.792,7.25v1.997h0.298c0.241,0,0.425-0.078,0.552-0.236
		s0.193-0.383,0.196-0.676V8.176c0-0.304-0.063-0.534-0.19-0.691c-0.126-0.156-0.31-0.235-0.552-0.235L70.792,7.25L70.792,7.25z"/>
	<path class="st9" d="M73.789,9.783c-0.326,0-0.591-0.1-0.796-0.3s-0.307-0.466-0.307-0.8V8.626c0-0.224,0.043-0.423,0.13-0.599
		c0.086-0.176,0.209-0.311,0.367-0.407c0.158-0.095,0.339-0.143,0.542-0.143c0.305,0,0.544,0.096,0.718,0.288
		c0.175,0.192,0.262,0.464,0.262,0.816v0.242h-1.416c0.019,0.145,0.077,0.261,0.173,0.349c0.097,0.088,0.219,0.132,0.367,0.132
		c0.229,0,0.407-0.082,0.536-0.249l0.292,0.327c-0.089,0.126-0.21,0.224-0.361,0.295C74.142,9.748,73.974,9.783,73.789,9.783z
		 M73.722,7.956c-0.118,0-0.214,0.04-0.287,0.12c-0.073,0.08-0.12,0.194-0.14,0.343h0.826V8.371
		c-0.003-0.132-0.039-0.234-0.107-0.307C73.945,7.993,73.847,7.956,73.722,7.956z"/>
	<path class="st9" d="M75.741,9.016l0.413-1.497h0.621l-0.75,2.223h-0.567l-0.75-2.223h0.621L75.741,9.016z"/>
	<path class="st9" d="M77.926,9.783c-0.326,0-0.591-0.1-0.796-0.3s-0.307-0.466-0.307-0.8V8.626c0-0.224,0.043-0.423,0.13-0.599
		c0.086-0.176,0.209-0.311,0.367-0.407c0.158-0.095,0.339-0.143,0.542-0.143c0.305,0,0.544,0.096,0.718,0.288
		c0.175,0.192,0.262,0.464,0.262,0.816v0.242h-1.417c0.019,0.145,0.077,0.261,0.173,0.349c0.097,0.088,0.219,0.132,0.367,0.132
		c0.229,0,0.407-0.082,0.536-0.249l0.292,0.327c-0.089,0.126-0.21,0.224-0.361,0.295C78.279,9.748,78.111,9.783,77.926,9.783z
		 M77.858,7.956c-0.118,0-0.214,0.04-0.287,0.12c-0.073,0.08-0.12,0.194-0.14,0.343h0.826V8.371
		c-0.003-0.132-0.039-0.234-0.107-0.307C78.082,7.993,77.984,7.956,77.858,7.956z"/>
	<path class="st9" d="M79.698,9.742h-0.595V6.586h0.595V9.742z"/>
	<path class="st9" d="M79.99,8.609c0-0.22,0.043-0.417,0.127-0.589c0.084-0.173,0.207-0.306,0.367-0.4
		c0.16-0.094,0.345-0.142,0.555-0.142c0.3,0,0.545,0.092,0.734,0.275c0.19,0.184,0.295,0.433,0.318,0.748l0.004,0.152
		c0,0.341-0.095,0.615-0.285,0.821s-0.446,0.309-0.766,0.309c-0.321,0-0.576-0.102-0.767-0.308C80.086,9.269,79.99,8.99,79.99,8.637
		V8.609z M80.583,8.652c0,0.211,0.04,0.373,0.12,0.484c0.079,0.112,0.193,0.168,0.341,0.168c0.144,0,0.255-0.055,0.337-0.166
		c0.08-0.11,0.121-0.287,0.121-0.53c0-0.207-0.041-0.368-0.121-0.482s-0.194-0.171-0.341-0.171c-0.145,0-0.257,0.057-0.337,0.17
		C80.623,8.239,80.583,8.414,80.583,8.652z"/>
	<path class="st9" d="M84.358,8.651c0,0.343-0.078,0.617-0.234,0.823c-0.155,0.206-0.365,0.309-0.629,0.309
		c-0.225,0-0.406-0.078-0.545-0.234v1.048h-0.593V7.519h0.551l0.021,0.218c0.144-0.173,0.331-0.259,0.563-0.259
		c0.273,0,0.486,0.102,0.639,0.304c0.152,0.203,0.228,0.482,0.228,0.838C84.358,8.62,84.358,8.651,84.358,8.651z M83.764,8.605
		c0-0.208-0.037-0.368-0.11-0.48c-0.074-0.112-0.18-0.169-0.32-0.169c-0.186,0-0.314,0.071-0.385,0.214v0.913
		c0.073,0.147,0.202,0.221,0.389,0.221C83.622,9.304,83.764,9.071,83.764,8.605z"/>
	<path class="st9" d="M85.177,7.519l0.018,0.249c0.158-0.193,0.371-0.29,0.639-0.29c0.286,0,0.483,0.113,0.589,0.339
		c0.156-0.226,0.379-0.339,0.668-0.339c0.241,0,0.42,0.071,0.538,0.211s0.176,0.351,0.176,0.634v1.42H87.21V8.321
		c0-0.126-0.025-0.219-0.075-0.277c-0.05-0.058-0.136-0.087-0.261-0.087c-0.178,0-0.301,0.085-0.37,0.255l0.002,1.53h-0.594v-1.42
		c0-0.129-0.025-0.222-0.076-0.28c-0.051-0.058-0.137-0.086-0.259-0.086c-0.168,0-0.29,0.07-0.366,0.21v1.575h-0.593V7.519H85.177z"
		/>
	<path class="st9" d="M89.18,9.783c-0.326,0-0.591-0.1-0.796-0.3s-0.307-0.466-0.307-0.8V8.626c0-0.224,0.043-0.423,0.13-0.599
		c0.086-0.176,0.209-0.311,0.367-0.407c0.158-0.095,0.339-0.143,0.542-0.143c0.305,0,0.544,0.096,0.718,0.288
		c0.175,0.192,0.262,0.464,0.262,0.816v0.242H88.68c0.019,0.145,0.077,0.261,0.173,0.349c0.097,0.088,0.219,0.132,0.367,0.132
		c0.229,0,0.407-0.082,0.536-0.249l0.292,0.327c-0.089,0.126-0.21,0.224-0.361,0.295C89.533,9.748,89.365,9.783,89.18,9.783z
		 M89.113,7.956c-0.118,0-0.214,0.04-0.287,0.12c-0.073,0.08-0.12,0.194-0.14,0.343h0.826V8.371
		c-0.003-0.132-0.039-0.234-0.107-0.307C89.336,7.993,89.239,7.956,89.113,7.956z"/>
	<path class="st9" d="M90.873,7.519l0.019,0.257c0.159-0.199,0.371-0.298,0.639-0.298c0.236,0,0.41,0.069,0.526,0.208
		c0.115,0.138,0.174,0.345,0.176,0.621v1.436h-0.594V8.317c0-0.126-0.027-0.218-0.082-0.275s-0.146-0.086-0.273-0.086
		c-0.167,0-0.292,0.071-0.376,0.214v1.571h-0.593V7.519H90.873z"/>
	<path class="st9" d="M93.289,6.972v0.546h0.381v0.435h-0.381v1.11c0,0.082,0.015,0.141,0.047,0.176
		c0.031,0.036,0.092,0.053,0.181,0.053c0.066,0,0.124-0.005,0.174-0.015v0.45c-0.116,0.036-0.235,0.053-0.359,0.053
		c-0.416,0-0.629-0.21-0.637-0.631V7.954H92.37V7.519h0.325V6.972H93.289z"/>
</g>
<g>
	<path class="st9" d="M36.979,12.423h-1.267v3.432H35.4v-3.432h-1.264V12.16h2.843V12.423z"/>
	<path class="st9" d="M37.676,13.573c0.1-0.164,0.228-0.291,0.383-0.381c0.156-0.09,0.326-0.134,0.51-0.134
		c0.295,0,0.514,0.083,0.657,0.249c0.144,0.166,0.217,0.414,0.218,0.746v1.802h-0.302V14.05c-0.002-0.245-0.054-0.428-0.156-0.549
		c-0.102-0.12-0.266-0.18-0.492-0.18c-0.188,0-0.354,0.059-0.499,0.176s-0.251,0.276-0.321,0.476v1.881h-0.302v-3.899h0.302v1.617
		h0.002V13.573z"/>
	<path class="st9" d="M41.161,15.906c-0.234,0-0.444-0.058-0.633-0.173c-0.189-0.115-0.335-0.275-0.44-0.481
		s-0.158-0.436-0.158-0.691v-0.11c0-0.264,0.051-0.502,0.154-0.713c0.102-0.212,0.245-0.378,0.428-0.499s0.381-0.182,0.594-0.182
		c0.333,0,0.598,0.114,0.793,0.341c0.195,0.228,0.293,0.539,0.293,0.933v0.17h-1.959v0.059c0,0.311,0.089,0.57,0.267,0.778
		c0.178,0.207,0.403,0.311,0.674,0.311c0.162,0,0.306-0.03,0.43-0.089s0.237-0.154,0.339-0.284l0.19,0.144
		C41.91,15.745,41.586,15.906,41.161,15.906z M41.105,13.317c-0.228,0-0.421,0.084-0.577,0.251
		c-0.156,0.167-0.251,0.392-0.285,0.675h1.647V14.21c-0.009-0.264-0.084-0.479-0.226-0.645C41.522,13.4,41.335,13.317,41.105,13.317
		z"/>
	<path class="st9" d="M45.894,14.127H44.17v1.729h-0.312V12.16h2.29v0.264h-1.977v1.44h1.724L45.894,14.127L45.894,14.127z"/>
	<path class="st9" d="M48.292,15.508c-0.183,0.265-0.475,0.398-0.875,0.398c-0.293,0-0.515-0.085-0.667-0.255
		s-0.23-0.422-0.234-0.755v-1.787h0.302v1.749c0,0.523,0.212,0.784,0.635,0.784c0.44,0,0.718-0.182,0.835-0.546V13.11h0.305v2.746
		h-0.294L48.292,15.508z"/>
	<path class="st9" d="M50.896,15.157c0-0.15-0.061-0.272-0.182-0.363s-0.303-0.163-0.547-0.214c-0.243-0.051-0.432-0.11-0.567-0.178
		c-0.134-0.067-0.234-0.148-0.3-0.245c-0.065-0.096-0.098-0.213-0.098-0.35c0-0.217,0.09-0.396,0.272-0.537
		c0.181-0.141,0.412-0.212,0.695-0.212c0.307,0,0.552,0.076,0.737,0.227c0.186,0.152,0.278,0.349,0.278,0.593H50.88
		c0-0.16-0.067-0.295-0.202-0.4c-0.134-0.107-0.304-0.16-0.509-0.16c-0.2,0-0.36,0.045-0.481,0.133
		c-0.121,0.089-0.182,0.205-0.182,0.347c0,0.137,0.051,0.243,0.151,0.319s0.285,0.144,0.551,0.206
		c0.266,0.063,0.466,0.13,0.599,0.201s0.232,0.156,0.295,0.256c0.065,0.1,0.096,0.221,0.096,0.363c0,0.232-0.094,0.417-0.281,0.555
		c-0.187,0.138-0.431,0.208-0.732,0.208c-0.32,0-0.579-0.078-0.778-0.233s-0.299-0.351-0.299-0.587h0.305
		c0.011,0.178,0.086,0.316,0.224,0.414c0.138,0.099,0.32,0.149,0.548,0.149c0.212,0,0.383-0.047,0.513-0.14
		C50.831,15.417,50.896,15.3,50.896,15.157z"/>
	<path class="st9" d="M51.736,12.316c0-0.057,0.019-0.106,0.056-0.145c0.037-0.039,0.088-0.059,0.152-0.059
		c0.065,0,0.116,0.02,0.154,0.059s0.057,0.088,0.057,0.145s-0.019,0.105-0.057,0.144c-0.038,0.039-0.089,0.058-0.154,0.058
		s-0.115-0.019-0.152-0.058C51.755,12.421,51.736,12.373,51.736,12.316z M52.094,15.855h-0.305v-2.746h0.305V15.855z"/>
	<path class="st9" d="M52.621,14.442c0-0.264,0.051-0.502,0.154-0.713c0.102-0.212,0.247-0.377,0.434-0.494
		c0.187-0.118,0.399-0.176,0.636-0.176c0.365,0,0.661,0.128,0.888,0.385c0.227,0.256,0.34,0.596,0.34,1.019v0.063
		c0,0.265-0.051,0.505-0.154,0.717c-0.102,0.212-0.247,0.376-0.432,0.491c-0.186,0.115-0.398,0.173-0.637,0.173
		c-0.364,0-0.66-0.128-0.887-0.385c-0.228-0.256-0.341-0.596-0.341-1.019L52.621,14.442L52.621,14.442z M52.926,14.525
		c0,0.328,0.085,0.598,0.255,0.809c0.17,0.21,0.393,0.316,0.669,0.316c0.274,0,0.496-0.106,0.666-0.316
		c0.17-0.211,0.255-0.489,0.255-0.834v-0.059c0-0.21-0.039-0.402-0.117-0.576s-0.187-0.309-0.327-0.404
		c-0.14-0.096-0.301-0.144-0.482-0.144c-0.271,0-0.492,0.106-0.663,0.318c-0.171,0.213-0.256,0.49-0.256,0.834
		C52.926,14.469,52.926,14.525,52.926,14.525z"/>
	<path class="st9" d="M55.86,13.109l0.01,0.47c0.103-0.17,0.232-0.299,0.386-0.387c0.154-0.089,0.324-0.134,0.51-0.134
		c0.295,0,0.514,0.083,0.657,0.249c0.144,0.166,0.217,0.414,0.218,0.746v1.802h-0.302V14.05c-0.002-0.245-0.054-0.428-0.156-0.549
		c-0.102-0.12-0.266-0.18-0.492-0.18c-0.188,0-0.354,0.059-0.499,0.176s-0.251,0.276-0.321,0.476v1.881h-0.302v-2.746
		C55.569,13.109,55.86,13.109,55.86,13.109z"/>
	<path class="st9" d="M59.262,14.442c0-0.264,0.051-0.502,0.154-0.713c0.102-0.212,0.247-0.377,0.434-0.494
		c0.187-0.118,0.399-0.176,0.636-0.176c0.365,0,0.661,0.128,0.889,0.385c0.226,0.256,0.34,0.596,0.34,1.019v0.063
		c0,0.265-0.051,0.505-0.153,0.717s-0.247,0.376-0.433,0.491c-0.186,0.115-0.398,0.173-0.637,0.173c-0.364,0-0.66-0.128-0.887-0.385
		c-0.228-0.256-0.341-0.596-0.341-1.019v-0.061H59.262z M59.567,14.525c0,0.328,0.085,0.598,0.255,0.809
		c0.17,0.21,0.393,0.316,0.669,0.316c0.274,0,0.496-0.106,0.667-0.316c0.17-0.211,0.255-0.489,0.255-0.834v-0.059
		c0-0.21-0.039-0.402-0.117-0.576s-0.186-0.309-0.327-0.404c-0.141-0.096-0.301-0.144-0.482-0.144c-0.271,0-0.492,0.106-0.663,0.318
		c-0.171,0.213-0.256,0.49-0.256,0.834v0.056C59.568,14.525,59.567,14.525,59.567,14.525z"/>
	<path class="st9" d="M62.43,15.855v-2.498h-0.454v-0.249h0.454v-0.333c0-0.281,0.071-0.496,0.214-0.647s0.342-0.226,0.598-0.226
		c0.115,0,0.223,0.015,0.322,0.043l-0.023,0.251c-0.084-0.02-0.176-0.031-0.277-0.031c-0.167,0-0.298,0.053-0.39,0.156
		c-0.092,0.104-0.14,0.252-0.14,0.444v0.341h0.655v0.249h-0.654v2.498H62.43V15.855z"/>
	<path class="st9" d="M67.414,12.423h-1.267v3.432h-0.312v-3.432H64.57V12.16h2.843L67.414,12.423L67.414,12.423z"/>
	<path class="st9" d="M68.623,15.906c-0.234,0-0.445-0.058-0.633-0.173c-0.189-0.115-0.336-0.275-0.44-0.481
		c-0.105-0.206-0.157-0.436-0.157-0.691v-0.11c0-0.264,0.051-0.502,0.154-0.713s0.245-0.378,0.428-0.499
		c0.183-0.121,0.381-0.182,0.594-0.182c0.333,0,0.598,0.114,0.793,0.341c0.195,0.228,0.293,0.539,0.293,0.933v0.17h-1.96v0.059
		c0,0.311,0.09,0.57,0.268,0.778c0.179,0.207,0.403,0.311,0.674,0.311c0.163,0,0.306-0.03,0.43-0.089s0.237-0.154,0.339-0.284
		l0.19,0.144C69.371,15.745,69.047,15.906,68.623,15.906z M68.567,13.317c-0.229,0-0.421,0.084-0.577,0.251
		c-0.156,0.167-0.252,0.392-0.285,0.675h1.647V14.21c-0.009-0.264-0.084-0.479-0.226-0.645S68.796,13.317,68.567,13.317z"/>
	<path class="st9" d="M71.13,15.65c0.212,0,0.389-0.06,0.532-0.18c0.143-0.119,0.22-0.273,0.233-0.463h0.292
		c-0.008,0.167-0.061,0.32-0.157,0.458c-0.097,0.138-0.225,0.245-0.385,0.324c-0.16,0.078-0.331,0.117-0.514,0.117
		c-0.361,0-0.646-0.125-0.856-0.376c-0.211-0.25-0.316-0.587-0.316-1.011v-0.091c0-0.271,0.048-0.51,0.142-0.718
		s0.23-0.369,0.407-0.482c0.176-0.114,0.384-0.17,0.621-0.17c0.301,0,0.549,0.09,0.745,0.269c0.196,0.18,0.299,0.416,0.313,0.708
		h-0.292c-0.014-0.215-0.091-0.388-0.233-0.52c-0.141-0.132-0.319-0.198-0.534-0.198c-0.274,0-0.487,0.099-0.638,0.297
		c-0.152,0.198-0.228,0.476-0.228,0.833v0.089c0,0.35,0.076,0.623,0.228,0.82C70.64,15.552,70.854,15.65,71.13,15.65z"/>
	<path class="st9" d="M72.964,13.573c0.1-0.164,0.228-0.291,0.383-0.381c0.156-0.09,0.326-0.134,0.51-0.134
		c0.295,0,0.514,0.083,0.658,0.249c0.144,0.166,0.216,0.414,0.218,0.746v1.802H74.43V14.05c-0.001-0.245-0.054-0.428-0.156-0.549
		c-0.102-0.12-0.265-0.18-0.491-0.18c-0.188,0-0.355,0.059-0.499,0.176s-0.252,0.276-0.321,0.476v1.881h-0.302v-3.899h0.302
		L72.964,13.573L72.964,13.573z"/>
	<path class="st9" d="M75.674,13.109l0.01,0.47c0.104-0.17,0.232-0.299,0.386-0.387c0.154-0.089,0.325-0.134,0.51-0.134
		c0.295,0,0.514,0.083,0.658,0.249c0.144,0.166,0.216,0.414,0.218,0.746v1.802h-0.302V14.05c-0.002-0.245-0.054-0.428-0.156-0.549
		c-0.102-0.12-0.265-0.18-0.491-0.18c-0.188,0-0.355,0.059-0.499,0.176s-0.252,0.276-0.321,0.476v1.881h-0.302v-2.746
		C75.385,13.109,75.674,13.109,75.674,13.109z"/>
	<path class="st9" d="M77.943,14.442c0-0.264,0.051-0.502,0.154-0.713c0.102-0.212,0.247-0.377,0.434-0.494
		c0.187-0.118,0.399-0.176,0.636-0.176c0.365,0,0.661,0.128,0.889,0.385c0.226,0.256,0.34,0.596,0.34,1.019v0.063
		c0,0.265-0.051,0.505-0.154,0.717c-0.102,0.212-0.247,0.376-0.433,0.491s-0.398,0.173-0.637,0.173c-0.364,0-0.66-0.128-0.887-0.385
		s-0.341-0.596-0.341-1.019L77.943,14.442L77.943,14.442z M78.248,14.525c0,0.328,0.085,0.598,0.255,0.809
		c0.17,0.21,0.393,0.316,0.669,0.316c0.274,0,0.496-0.106,0.667-0.316c0.17-0.211,0.255-0.489,0.255-0.834v-0.059
		c0-0.21-0.039-0.402-0.117-0.576c-0.078-0.174-0.186-0.309-0.327-0.404c-0.141-0.096-0.301-0.144-0.482-0.144
		c-0.271,0-0.492,0.106-0.663,0.318c-0.171,0.213-0.256,0.49-0.256,0.834L78.248,14.525L78.248,14.525z"/>
	<path class="st9" d="M81.233,15.855h-0.305v-3.899h0.305V15.855z"/>
	<path class="st9" d="M81.761,14.442c0-0.264,0.051-0.502,0.154-0.713c0.102-0.212,0.247-0.377,0.434-0.494
		c0.187-0.118,0.399-0.176,0.636-0.176c0.365,0,0.661,0.128,0.889,0.385c0.226,0.256,0.34,0.596,0.34,1.019v0.063
		c0,0.265-0.051,0.505-0.154,0.717c-0.102,0.212-0.247,0.376-0.433,0.491s-0.398,0.173-0.637,0.173c-0.364,0-0.66-0.128-0.887-0.385
		c-0.228-0.256-0.341-0.596-0.341-1.019L81.761,14.442L81.761,14.442z M82.065,14.525c0,0.328,0.085,0.598,0.255,0.809
		c0.17,0.21,0.393,0.316,0.669,0.316c0.274,0,0.496-0.106,0.667-0.316c0.17-0.211,0.255-0.489,0.255-0.834v-0.059
		c0-0.21-0.039-0.402-0.117-0.576c-0.078-0.174-0.186-0.309-0.327-0.404c-0.141-0.096-0.301-0.144-0.482-0.144
		c-0.271,0-0.492,0.106-0.663,0.318c-0.171,0.213-0.256,0.49-0.256,0.834L82.065,14.525L82.065,14.525z"/>
	<path class="st9" d="M84.587,14.457c0-0.43,0.095-0.77,0.285-1.022c0.19-0.251,0.449-0.377,0.776-0.377
		c0.374,0,0.658,0.149,0.853,0.447l0.015-0.396h0.285v2.69c0,0.354-0.099,0.634-0.297,0.84s-0.466,0.309-0.804,0.309
		c-0.192,0-0.374-0.043-0.548-0.128c-0.173-0.086-0.31-0.2-0.41-0.341l0.17-0.183c0.215,0.264,0.47,0.396,0.767,0.396
		c0.253,0,0.452-0.075,0.594-0.225s0.216-0.357,0.221-0.623V15.5c-0.195,0.271-0.478,0.406-0.85,0.406
		c-0.318,0-0.574-0.127-0.767-0.381s-0.289-0.597-0.289-1.028L84.587,14.457L84.587,14.457z M84.895,14.51
		c0,0.351,0.071,0.627,0.211,0.829c0.14,0.202,0.338,0.303,0.594,0.303c0.374,0,0.638-0.168,0.794-0.503v-1.277
		c-0.071-0.176-0.174-0.311-0.307-0.402c-0.134-0.092-0.295-0.138-0.482-0.138c-0.255,0-0.454,0.1-0.597,0.301
		S84.895,14.12,84.895,14.51z"/>
	<path class="st9" d="M88.333,15.419l0.802-2.31h0.328l-1.173,3.214l-0.061,0.142c-0.15,0.334-0.383,0.5-0.698,0.5
		c-0.073,0-0.15-0.012-0.234-0.035l-0.002-0.251l0.157,0.015c0.149,0,0.269-0.037,0.361-0.11c0.092-0.074,0.17-0.2,0.236-0.38
		l0.134-0.371l-1.036-2.724h0.332L88.333,15.419z"/>
	<path class="st9" d="M92.671,15.855c-0.031-0.086-0.05-0.214-0.058-0.383c-0.107,0.138-0.242,0.245-0.407,0.321
		c-0.165,0.075-0.34,0.113-0.524,0.113c-0.264,0-0.478-0.074-0.641-0.221c-0.163-0.147-0.245-0.333-0.245-0.559
		c0-0.267,0.11-0.479,0.333-0.635s0.533-0.234,0.931-0.234h0.551v-0.312c0-0.196-0.061-0.351-0.182-0.464
		c-0.12-0.112-0.297-0.169-0.53-0.169c-0.212,0-0.387,0.055-0.526,0.163s-0.208,0.239-0.208,0.391l-0.305-0.003
		c0-0.218,0.101-0.407,0.305-0.567c0.203-0.16,0.453-0.239,0.749-0.239c0.306,0,0.548,0.077,0.724,0.23
		c0.176,0.154,0.267,0.367,0.273,0.641v1.299c0,0.265,0.028,0.465,0.084,0.597v0.031C92.995,15.855,92.671,15.855,92.671,15.855z
		 M91.716,15.638c0.203,0,0.385-0.049,0.545-0.147c0.16-0.098,0.276-0.23,0.349-0.394v-0.604h-0.543
		c-0.303,0.003-0.54,0.059-0.71,0.166c-0.171,0.107-0.256,0.255-0.256,0.443c0,0.154,0.057,0.282,0.171,0.384
		C91.386,15.586,91.534,15.638,91.716,15.638z"/>
	<path class="st9" d="M93.881,13.109l0.01,0.47c0.104-0.17,0.232-0.299,0.386-0.387c0.154-0.089,0.325-0.134,0.51-0.134
		c0.295,0,0.514,0.083,0.658,0.249c0.144,0.166,0.216,0.414,0.218,0.746v1.802h-0.302V14.05c-0.001-0.245-0.054-0.428-0.156-0.549
		c-0.102-0.12-0.265-0.18-0.491-0.18c-0.188,0-0.355,0.059-0.499,0.176s-0.252,0.276-0.321,0.476v1.881h-0.302v-2.746
		C93.592,13.109,93.881,13.109,93.881,13.109z"/>
	<path class="st9" d="M96.195,14.457c0-0.427,0.095-0.766,0.285-1.019s0.449-0.38,0.776-0.38c0.371,0,0.653,0.146,0.848,0.439
		v-1.541h0.302v3.899h-0.285l-0.012-0.365c-0.195,0.277-0.481,0.416-0.858,0.416c-0.317,0-0.572-0.127-0.766-0.382
		s-0.291-0.599-0.291-1.032L96.195,14.457L96.195,14.457z M96.503,14.51c0,0.351,0.071,0.627,0.211,0.829
		c0.14,0.202,0.338,0.303,0.594,0.303c0.374,0,0.639-0.165,0.796-0.495v-1.29c-0.157-0.357-0.421-0.536-0.792-0.536
		c-0.255,0-0.454,0.1-0.597,0.301C96.574,13.824,96.503,14.12,96.503,14.51z"/>
	<path class="st9" d="M100.596,15.591h1.825v0.264h-2.139V12.16h0.315L100.596,15.591L100.596,15.591z"/>
	<path class="st9" d="M103.883,15.906c-0.233,0-0.445-0.058-0.633-0.173c-0.189-0.115-0.336-0.275-0.44-0.481
		c-0.105-0.206-0.157-0.436-0.157-0.691v-0.11c0-0.264,0.051-0.502,0.153-0.713s0.245-0.378,0.428-0.499
		c0.183-0.121,0.381-0.182,0.594-0.182c0.333,0,0.598,0.114,0.793,0.341s0.293,0.539,0.293,0.933v0.17h-1.96v0.059
		c0,0.311,0.09,0.57,0.268,0.778c0.179,0.207,0.403,0.311,0.674,0.311c0.163,0,0.306-0.03,0.43-0.089s0.237-0.154,0.339-0.284
		l0.19,0.144C104.631,15.745,104.307,15.906,103.883,15.906z M103.827,13.317c-0.229,0-0.421,0.084-0.577,0.251
		c-0.157,0.167-0.252,0.392-0.285,0.675h1.647V14.21c-0.009-0.264-0.084-0.479-0.226-0.645
		C104.243,13.4,104.057,13.317,103.827,13.317z"/>
	<path class="st9" d="M107.108,15.855c-0.031-0.086-0.05-0.214-0.058-0.383c-0.107,0.138-0.242,0.245-0.407,0.321
		c-0.165,0.075-0.34,0.113-0.524,0.113c-0.264,0-0.478-0.074-0.641-0.221c-0.163-0.147-0.245-0.333-0.245-0.559
		c0-0.267,0.11-0.479,0.333-0.635s0.533-0.234,0.931-0.234h0.551v-0.312c0-0.196-0.061-0.351-0.182-0.464
		c-0.12-0.112-0.297-0.169-0.53-0.169c-0.212,0-0.387,0.055-0.526,0.163s-0.208,0.239-0.208,0.391l-0.305-0.003
		c0-0.218,0.101-0.407,0.305-0.567c0.203-0.16,0.453-0.239,0.749-0.239c0.306,0,0.548,0.077,0.724,0.23
		c0.176,0.154,0.267,0.367,0.273,0.641v1.299c0,0.265,0.028,0.465,0.084,0.597v0.031C107.433,15.855,107.108,15.855,107.108,15.855z
		 M106.154,15.638c0.203,0,0.385-0.049,0.545-0.147c0.16-0.098,0.276-0.23,0.349-0.394v-0.604h-0.543
		c-0.303,0.003-0.54,0.059-0.71,0.166c-0.171,0.107-0.256,0.255-0.256,0.443c0,0.154,0.057,0.282,0.171,0.384
		C105.823,15.586,105.971,15.638,106.154,15.638z"/>
	<path class="st9" d="M109.298,13.368c-0.065-0.011-0.133-0.018-0.206-0.018c-0.19,0-0.351,0.053-0.481,0.159
		c-0.131,0.106-0.225,0.259-0.281,0.46v1.886h-0.302v-2.746h0.297l0.005,0.436c0.16-0.325,0.419-0.487,0.774-0.487
		c0.084,0,0.152,0.011,0.201,0.033L109.298,13.368z"/>
	<path class="st9" d="M109.938,13.109l0.01,0.47c0.104-0.17,0.232-0.299,0.386-0.387c0.154-0.089,0.325-0.134,0.51-0.134
		c0.295,0,0.514,0.083,0.658,0.249c0.144,0.166,0.216,0.414,0.218,0.746v1.802h-0.302V14.05c-0.001-0.245-0.054-0.428-0.156-0.549
		c-0.102-0.12-0.265-0.18-0.491-0.18c-0.188,0-0.355,0.059-0.499,0.176s-0.252,0.276-0.321,0.476v1.881h-0.302v-2.746
		C109.649,13.109,109.938,13.109,109.938,13.109z"/>
	<path class="st9" d="M112.356,12.316c0-0.057,0.019-0.106,0.056-0.145c0.037-0.039,0.088-0.059,0.152-0.059s0.116,0.02,0.154,0.059
		s0.057,0.088,0.057,0.145s-0.019,0.105-0.057,0.144c-0.038,0.039-0.09,0.058-0.154,0.058c-0.065,0-0.115-0.019-0.152-0.058
		C112.374,12.421,112.356,12.373,112.356,12.316z M112.714,15.855h-0.305v-2.746h0.305V15.855z"/>
	<path class="st9" d="M113.698,13.109l0.01,0.47c0.104-0.17,0.232-0.299,0.386-0.387c0.154-0.089,0.325-0.134,0.51-0.134
		c0.295,0,0.514,0.083,0.658,0.249c0.144,0.166,0.216,0.414,0.218,0.746v1.802h-0.302V14.05c-0.002-0.245-0.054-0.428-0.156-0.549
		c-0.102-0.12-0.265-0.18-0.491-0.18c-0.188,0-0.355,0.059-0.499,0.176s-0.252,0.276-0.321,0.476v1.881h-0.302v-2.746
		C113.409,13.109,113.698,13.109,113.698,13.109z"/>
	<path class="st9" d="M116.013,14.457c0-0.43,0.095-0.77,0.285-1.022c0.19-0.251,0.449-0.377,0.776-0.377
		c0.374,0,0.658,0.149,0.853,0.447l0.015-0.396h0.285v2.69c0,0.354-0.099,0.634-0.297,0.84s-0.466,0.309-0.804,0.309
		c-0.192,0-0.374-0.043-0.548-0.128c-0.173-0.086-0.31-0.2-0.41-0.341l0.17-0.183c0.215,0.264,0.47,0.396,0.767,0.396
		c0.253,0,0.452-0.075,0.594-0.225s0.216-0.357,0.221-0.623V15.5c-0.195,0.271-0.478,0.406-0.85,0.406
		c-0.318,0-0.574-0.127-0.767-0.381s-0.289-0.597-0.289-1.028L116.013,14.457L116.013,14.457z M116.32,14.51
		c0,0.351,0.071,0.627,0.211,0.829c0.14,0.202,0.338,0.303,0.594,0.303c0.374,0,0.638-0.168,0.794-0.503v-1.277
		c-0.071-0.176-0.174-0.311-0.307-0.402c-0.134-0.092-0.295-0.138-0.482-0.138c-0.255,0-0.454,0.1-0.597,0.301
		C116.391,13.824,116.32,14.12,116.32,14.51z"/>
</g>
<g>
	<path class="st9" d="M34.065,3.964h-0.316v0.878h-0.13V3.964h-0.315V3.858h0.761V3.964z"/>
	<path class="st9" d="M34.379,3.858L34.7,4.661l0.322-0.803h0.168v0.984h-0.13V4.459l0.012-0.414L34.75,4.842H34.65l-0.322-0.795
		l0.012,0.412v0.383h-0.13V3.858H34.379z"/>
</g>
</svg>
