<?xml version="1.0" encoding="utf-8"?>
<!-- Generator: Adobe Illustrator 21.1.0, SVG Export Plug-In . SVG Version: 6.00 Build 0)  -->
<svg version="1.1" id="Layer_1" xmlns="http://www.w3.org/2000/svg" xmlns:xlink="http://www.w3.org/1999/xlink" x="0px" y="0px"
	 viewBox="0 0 15.062 8" style="enable-background:new 0 0 15.062 8;" xml:space="preserve">
<style type="text/css">
	.st0{opacity:0.46;}
	.st1{opacity:0.33;fill:#5C6A75;enable-background:new    ;}
	.st2{fill:url(#SVGID_1_);}
	.st3{fill:url(#SVGID_2_);}
	.st4{fill:url(#SVGID_3_);}
	.st5{opacity:0.44;fill:#FFFFFF;enable-background:new    ;}
	.st6{fill:#50C5DD;}
	.st7{fill:#2EA8D6;}
	.st8{opacity:0.33;fill:#FFFFFF;enable-background:new    ;}
</style>
<g class="st0">
	<path class="st1" d="M13.625,0.448v1.614C13.333,1.906,13,1.817,12.647,1.817c-1.154,0-2.089,0.943-2.089,2.108
		s0.935,2.108,2.089,2.108c0.354,0,0.687-0.089,0.978-0.245v0.245h1.11V0.448H13.625z M12.67,4.915
		c-0.527,0-0.955-0.432-0.955-0.965s0.428-0.965,0.955-0.965c0.527,0,0.955,0.432,0.955,0.965S13.197,4.915,12.67,4.915z"/>
	<path class="st1" d="M8.421,1.969c-0.354,0-0.687,0.089-0.978,0.245V1.969h-1.11v5.583h1.11V5.938
		c0.292,0.156,0.625,0.245,0.978,0.245c1.154,0,2.089-0.943,2.089-2.108C10.51,2.912,9.575,1.969,8.421,1.969z M8.398,5.013
		c-0.527,0-0.955-0.432-0.955-0.964s0.428-0.964,0.955-0.964s0.955,0.432,0.955,0.964S8.926,5.013,8.398,5.013z"/>
	<path class="st1" d="M6.032,2.726c0-0.002-0.002-0.005-0.003-0.007C6.019,2.694,6.007,2.67,5.996,2.645
		c-0.025-0.055-0.05-0.11-0.078-0.164c-0.015-0.03-0.031-0.06-0.048-0.09C5.842,2.342,5.813,2.293,5.783,2.246
		C5.767,2.22,5.751,2.194,5.734,2.169C5.688,2.1,5.639,2.034,5.587,1.969c-0.014-0.017-0.029-0.034-0.043-0.05
		C5.503,1.87,5.46,1.822,5.416,1.776C5.394,1.753,5.372,1.731,5.35,1.709c-0.042-0.041-0.085-0.08-0.129-0.118
		C5.199,1.572,5.178,1.553,5.157,1.534c-0.064-0.053-0.131-0.105-0.2-0.152C4.944,1.374,4.931,1.367,4.919,1.358
		C4.86,1.319,4.799,1.281,4.737,1.246c-0.025-0.014-0.05-0.027-0.075-0.041c-0.055-0.029-0.11-0.056-0.166-0.081
		C4.471,1.112,4.447,1.101,4.422,1.091c-0.08-0.034-0.161-0.064-0.243-0.09C4.171,0.998,4.164,0.997,4.157,0.995
		C4.08,0.971,4.001,0.951,3.922,0.933c-0.026-0.006-0.053-0.011-0.08-0.016c-0.064-0.012-0.129-0.022-0.195-0.03
		C3.621,0.884,3.595,0.881,3.568,0.878C3.478,0.87,3.387,0.864,3.295,0.864c-0.093,0-0.185,0.006-0.276,0.014
		C2.99,0.881,2.962,0.885,2.935,0.888C2.871,0.896,2.808,0.905,2.746,0.917c-0.03,0.006-0.06,0.012-0.089,0.018
		C2.593,0.95,2.53,0.967,2.468,0.985C2.444,0.992,2.42,0.998,2.396,1.006C2.313,1.033,2.23,1.063,2.15,1.097
		C2.135,1.104,2.119,1.112,2.104,1.119c-0.065,0.029-0.128,0.06-0.19,0.093c-0.027,0.014-0.053,0.03-0.079,0.045
		c-0.051,0.029-0.1,0.059-0.149,0.092C1.66,1.366,1.634,1.384,1.608,1.401c-0.051,0.037-0.101,0.075-0.15,0.114
		C1.439,1.531,1.419,1.545,1.4,1.561C1.337,1.616,1.275,1.673,1.216,1.732c-0.021,0.021-0.04,0.042-0.06,0.064
		c-0.04,0.042-0.078,0.085-0.115,0.128C1.018,1.952,0.997,1.98,0.974,2.008C0.942,2.05,0.911,2.093,0.881,2.136
		C0.861,2.165,0.84,2.194,0.82,2.224C0.787,2.275,0.756,2.328,0.726,2.382C0.71,2.41,0.693,2.439,0.678,2.468
		C0.643,2.535,0.61,2.605,0.58,2.675C0.566,2.708,0.553,2.743,0.54,2.777C0.528,2.808,0.515,2.838,0.504,2.87
		c0.001,0,0.001,0.001,0.002,0.001c-0.11,0.314-0.172,0.651-0.172,1.004c0,1.664,1.326,3.013,2.961,3.013S6.256,5.54,6.256,3.876
		C6.256,3.469,6.176,3.08,6.032,2.726L6.032,2.726z"/>
</g>
<g>
	
		<linearGradient id="SVGID_1_" gradientUnits="userSpaceOnUse" x1="3.2475" y1="-57.4117" x2="3.2475" y2="-63.4377" gradientTransform="matrix(1 0 0 -1 0 -56.6437)">
		<stop  offset="0.3126" style="stop-color:#E2E1E0"/>
		<stop  offset="0.4767" style="stop-color:#E0E0DF"/>
		<stop  offset="0.7198" style="stop-color:#C8C8C8"/>
	</linearGradient>
	<path class="st2" d="M2.603,2.155c0.217,0,2.364,1.241,2.364,1.634c0,0.392-2.09,1.634-2.364,1.634S2.387,2.155,2.603,2.155z
		 M3.248,0.768c1.636,0,2.961,1.349,2.961,3.013S4.883,6.794,3.248,6.794S0.286,5.444,0.286,3.78S1.612,0.768,3.248,0.768z"/>
	
		<linearGradient id="SVGID_2_" gradientUnits="userSpaceOnUse" x1="12.5995" y1="77.0042" x2="12.5995" y2="66.5523" gradientTransform="matrix(1 0 0 -1 0 77.3562)">
		<stop  offset="0" style="stop-color:#E2E1E0"/>
		<stop  offset="0.2854" style="stop-color:#E0E0DF"/>
		<stop  offset="0.4523" style="stop-color:#CFCFCE"/>
		<stop  offset="1" style="stop-color:#C8C8C8"/>
	</linearGradient>
	<path class="st3" d="M12.622,2.891c0.527,0,0.955,0.432,0.955,0.965S13.149,4.82,12.622,4.82s-0.955-0.432-0.955-0.965
		S12.095,2.891,12.622,2.891z M13.578,0.352v1.614C13.286,1.81,12.953,1.721,12.6,1.721c-1.154,0-2.089,0.943-2.089,2.107
		s0.935,2.108,2.089,2.108c0.354,0,0.686-0.089,0.978-0.245v0.245h1.11V0.352H13.578z"/>
	
		<linearGradient id="SVGID_3_" gradientUnits="userSpaceOnUse" x1="8.3735" y1="75.4822" x2="8.3735" y2="66.2659" gradientTransform="matrix(1 0 0 -1 0 77.3562)">
		<stop  offset="0" style="stop-color:#E2E1E0"/>
		<stop  offset="0.2608" style="stop-color:#E0E0DF"/>
		<stop  offset="0.4124" style="stop-color:#CFCFCE"/>
		<stop  offset="0.6272" style="stop-color:#C8C8C8"/>
	</linearGradient>
	<path class="st4" d="M8.35,2.99c0.527,0,0.955,0.432,0.955,0.964S8.878,4.919,8.35,4.919c-0.527,0-0.955-0.432-0.955-0.964
		S7.823,2.99,8.35,2.99z M8.373,1.874c-0.354,0-0.687,0.089-0.978,0.245V1.874h-1.11v5.584h1.11V5.844
		C7.687,6,8.02,6.089,8.373,6.089c1.154,0,2.089-0.943,2.089-2.108S9.527,1.874,8.373,1.874z"/>
	<path class="st5" d="M3.248,0.768c-1.289,0-2.384,0.838-2.792,2.007c0.511,0.37,1.195,0.632,1.968,0.733
		c0.019-0.714,0.084-1.353,0.179-1.353c0.16,0,1.377,0.68,1.999,1.191c0.545-0.161,1.02-0.408,1.382-0.715
		C5.541,1.538,4.483,0.768,3.248,0.768z"/>
	<path class="st6" d="M2.603,2.155c0.217,0,2.364,1.241,2.364,1.634c0,0.392-2.09,1.634-2.364,1.634S2.387,2.155,2.603,2.155z"/>
	<g>
		<path class="st7" d="M2.603,2.155c-0.027,0-0.052,0.053-0.074,0.145c0.275,0.04,2.35,1.245,2.35,1.632
			c0,0.015-0.004,0.031-0.009,0.048c0.062-0.075,0.098-0.141,0.098-0.191C4.967,3.396,2.819,2.155,2.603,2.155z"/>
	</g>
	<path class="st8" d="M2.424,3.508c0.228,0.03,0.463,0.046,0.705,0.046c0.525,0,1.024-0.074,1.474-0.207
		c-0.623-0.513-1.84-1.191-2-1.191C2.508,2.155,2.443,2.795,2.424,3.508z"/>
</g>
</svg>
