<?xml version="1.0" encoding="utf-8"?>
<!-- Generator: Adobe Illustrator 21.1.0, SVG Export Plug-In . SVG Version: 6.00 Build 0)  -->
<svg version="1.1" id="Layer_1" xmlns="http://www.w3.org/2000/svg" xmlns:xlink="http://www.w3.org/1999/xlink" x="0px" y="0px"
	 viewBox="0 0 16 8" style="enable-background:new 0 0 16 8;" xml:space="preserve">
<style type="text/css">
	.st0{opacity:0.46;}
	.st1{opacity:0.33;fill:#5C6A75;enable-background:new    ;}
	.st2{fill:url(#SVGID_1_);}
	.st3{fill:url(#SVGID_2_);}
	.st4{fill:url(#SVGID_3_);}
	.st5{opacity:0.44;fill:#FFFFFF;enable-background:new    ;}
	.st6{fill:#50C5DD;}
	.st7{fill:#2EA8D6;}
	.st8{opacity:0.33;fill:#FFFFFF;enable-background:new    ;}
	.st9{fill:#FFFFFF;}
</style>
<g class="st0">
	<path class="st1" d="M13.53,0.448v1.614c-0.292-0.156-0.625-0.245-0.978-0.245c-1.154,0-2.089,0.943-2.089,2.108
		s0.935,2.108,2.089,2.108c0.354,0,0.687-0.089,0.978-0.245v0.245h1.11V0.448H13.53z M12.575,4.915
		c-0.527,0-0.955-0.432-0.955-0.965s0.428-0.965,0.955-0.965c0.527,0,0.955,0.432,0.955,0.965S13.102,4.915,12.575,4.915z"/>
	<path class="st1" d="M8.326,1.969c-0.354,0-0.687,0.089-0.978,0.245V1.969h-1.11v5.583h1.11V5.938
		C7.64,6.094,7.973,6.183,8.326,6.183c1.154,0,2.089-0.943,2.089-2.108C10.415,2.912,9.48,1.969,8.326,1.969z M8.303,5.013
		c-0.527,0-0.955-0.432-0.955-0.964s0.428-0.964,0.955-0.964c0.527,0,0.955,0.432,0.955,0.964S8.831,5.013,8.303,5.013z"/>
	<path class="st1" d="M5.937,2.726c0-0.002-0.002-0.005-0.003-0.007C5.924,2.694,5.912,2.67,5.901,2.645
		c-0.025-0.055-0.05-0.11-0.078-0.164c-0.015-0.03-0.031-0.06-0.048-0.09C5.747,2.342,5.718,2.293,5.688,2.246
		C5.672,2.22,5.656,2.194,5.639,2.169C5.593,2.1,5.544,2.034,5.492,1.969c-0.014-0.017-0.029-0.034-0.043-0.05
		C5.408,1.87,5.365,1.822,5.321,1.776C5.299,1.753,5.277,1.731,5.255,1.709C5.213,1.668,5.17,1.629,5.126,1.591
		C5.104,1.572,5.083,1.553,5.062,1.534c-0.064-0.053-0.131-0.105-0.2-0.152C4.849,1.374,4.836,1.367,4.824,1.358
		c-0.059-0.039-0.12-0.077-0.182-0.112c-0.025-0.014-0.05-0.027-0.075-0.041c-0.055-0.029-0.11-0.056-0.166-0.081
		C4.376,1.112,4.352,1.101,4.327,1.091c-0.08-0.034-0.161-0.064-0.243-0.09C4.076,0.998,4.069,0.997,4.062,0.995
		C3.985,0.971,3.906,0.951,3.827,0.933c-0.026-0.006-0.053-0.011-0.08-0.016c-0.064-0.012-0.129-0.022-0.195-0.03
		C3.526,0.884,3.5,0.881,3.473,0.878C3.383,0.87,3.292,0.864,3.2,0.864c-0.093,0-0.185,0.006-0.276,0.014
		C2.895,0.881,2.867,0.885,2.84,0.888C2.776,0.896,2.713,0.905,2.651,0.917c-0.03,0.006-0.06,0.012-0.089,0.018
		C2.498,0.95,2.435,0.967,2.373,0.985C2.349,0.992,2.325,0.998,2.301,1.006C2.218,1.033,2.135,1.063,2.055,1.097
		C2.04,1.104,2.024,1.112,2.009,1.119c-0.065,0.029-0.128,0.06-0.19,0.093C1.792,1.226,1.766,1.242,1.74,1.257
		c-0.051,0.029-0.1,0.059-0.149,0.092C1.565,1.366,1.539,1.384,1.513,1.401c-0.051,0.037-0.101,0.075-0.15,0.114
		c-0.019,0.016-0.039,0.03-0.058,0.046C1.242,1.616,1.18,1.673,1.121,1.732C1.1,1.753,1.081,1.774,1.061,1.796
		c-0.04,0.042-0.078,0.085-0.115,0.128C0.923,1.952,0.902,1.98,0.879,2.008C0.847,2.05,0.816,2.093,0.786,2.136
		c-0.02,0.029-0.041,0.058-0.061,0.088C0.692,2.275,0.661,2.328,0.631,2.382C0.615,2.41,0.598,2.439,0.583,2.468
		C0.548,2.535,0.515,2.605,0.485,2.675c-0.014,0.033-0.027,0.068-0.04,0.102C0.433,2.808,0.42,2.838,0.409,2.87
		c0.001,0,0.001,0.001,0.002,0.001c-0.11,0.314-0.172,0.651-0.172,1.004c0,1.664,1.326,3.013,2.961,3.013S6.161,5.54,6.161,3.876
		C6.161,3.469,6.081,3.08,5.937,2.726L5.937,2.726z"/>
</g>
<g>
	
		<linearGradient id="SVGID_1_" gradientUnits="userSpaceOnUse" x1="3.1524" y1="107.4117" x2="3.1524" y2="113.4377" gradientTransform="matrix(1 0 0 1 0 -106.6437)">
		<stop  offset="0.3126" style="stop-color:#E2E1E0"/>
		<stop  offset="0.4767" style="stop-color:#E0E0DF"/>
		<stop  offset="0.7198" style="stop-color:#C8C8C8"/>
	</linearGradient>
	<path class="st2" d="M2.508,2.155c0.217,0,2.364,1.241,2.364,1.634c0,0.392-2.09,1.634-2.364,1.634S2.292,2.155,2.508,2.155z
		 M3.153,0.768c1.636,0,2.961,1.349,2.961,3.013S4.788,6.794,3.153,6.794S0.191,5.444,0.191,3.78S1.517,0.768,3.153,0.768z"/>
	
		<linearGradient id="SVGID_2_" gradientUnits="userSpaceOnUse" x1="12.5044" y1="-27.0042" x2="12.5044" y2="-16.5523" gradientTransform="matrix(1 0 0 1 0 27.3562)">
		<stop  offset="0" style="stop-color:#E2E1E0"/>
		<stop  offset="0.2854" style="stop-color:#E0E0DF"/>
		<stop  offset="0.4523" style="stop-color:#CFCFCE"/>
		<stop  offset="1" style="stop-color:#C8C8C8"/>
	</linearGradient>
	<path class="st3" d="M12.527,2.891c0.527,0,0.955,0.432,0.955,0.965S13.054,4.82,12.527,4.82s-0.955-0.432-0.955-0.965
		S12,2.891,12.527,2.891z M13.483,0.352v1.614c-0.292-0.156-0.625-0.245-0.978-0.245c-1.154,0-2.089,0.943-2.089,2.107
		s0.935,2.108,2.089,2.108c0.354,0,0.686-0.089,0.978-0.245v0.245h1.11V0.352H13.483z"/>
	
		<linearGradient id="SVGID_3_" gradientUnits="userSpaceOnUse" x1="8.2784" y1="-25.4822" x2="8.2784" y2="-16.2659" gradientTransform="matrix(1 0 0 1 0 27.3562)">
		<stop  offset="0" style="stop-color:#E2E1E0"/>
		<stop  offset="0.2608" style="stop-color:#E0E0DF"/>
		<stop  offset="0.4124" style="stop-color:#CFCFCE"/>
		<stop  offset="0.6272" style="stop-color:#C8C8C8"/>
	</linearGradient>
	<path class="st4" d="M8.255,2.99c0.527,0,0.955,0.432,0.955,0.964S8.783,4.919,8.255,4.919C7.728,4.919,7.3,4.487,7.3,3.955
		S7.728,2.99,8.255,2.99z M8.278,1.874c-0.354,0-0.687,0.089-0.978,0.245V1.874H6.19v5.584H7.3V5.844
		C7.592,6,7.925,6.089,8.278,6.089c1.154,0,2.089-0.943,2.089-2.108S9.432,1.874,8.278,1.874z"/>
	<path class="st5" d="M3.153,0.768c-1.289,0-2.384,0.838-2.792,2.007c0.511,0.37,1.195,0.632,1.968,0.733
		c0.019-0.714,0.084-1.353,0.179-1.353c0.16,0,1.377,0.68,1.999,1.191c0.545-0.161,1.02-0.408,1.382-0.715
		C5.446,1.538,4.388,0.768,3.153,0.768z"/>
	<path class="st6" d="M2.508,2.155c0.217,0,2.364,1.241,2.364,1.634c0,0.392-2.09,1.634-2.364,1.634S2.292,2.155,2.508,2.155z"/>
	<g>
		<path class="st7" d="M2.508,2.155c-0.027,0-0.052,0.053-0.074,0.145c0.275,0.04,2.35,1.245,2.35,1.632
			c0,0.015-0.004,0.031-0.009,0.048c0.062-0.075,0.098-0.141,0.098-0.191C4.872,3.396,2.724,2.155,2.508,2.155z"/>
	</g>
	<path class="st8" d="M2.329,3.508c0.228,0.03,0.463,0.046,0.705,0.046c0.525,0,1.024-0.074,1.474-0.207
		c-0.623-0.513-1.84-1.191-2-1.191C2.413,2.155,2.348,2.795,2.329,3.508z"/>
</g>
<g>
	<path class="st9" d="M15.238,0.203h-0.16v0.445h-0.066V0.203h-0.16V0.149h0.386V0.203z"/>
	<path class="st9" d="M15.397,0.149l0.163,0.407l0.163-0.407h0.085v0.499h-0.066V0.454l0.006-0.21l-0.164,0.404h-0.05l-0.163-0.403
		l0.006,0.209v0.194h-0.066V0.149H15.397z"/>
</g>
</svg>
