<?xml version="1.0" encoding="utf-8"?>
<!-- Generator: Adobe Illustrator 21.1.0, SVG Export Plug-In . SVG Version: 6.00 Build 0)  -->
<svg version="1.1" id="Layer_1" xmlns="http://www.w3.org/2000/svg" xmlns:xlink="http://www.w3.org/1999/xlink" x="0px" y="0px"
	 viewBox="0 0 100 15" style="enable-background:new 0 0 100 15;" xml:space="preserve">
<style type="text/css">
	.st0{fill:#F9BF37;}
	.st1{fill:#253B80;}
	.st2{fill:#179BD7;}
	.st3{fill:#222D65;}
</style>
<g>
	<g>
		<path class="st0" d="M19.828,11.502c0,0.357-0.291,0.647-0.647,0.647H1.036c-0.357,0-0.647-0.291-0.647-0.647V0.647
			C0.389,0.291,0.68,0,1.036,0H19.18c0.357,0,0.647,0.291,0.647,0.647L19.828,11.502L19.828,11.502z"/>
	</g>
</g>
<g>
	<g id="XMLID_4_">
		<g id="XMLID_12_">
			<g id="XMLID_13_">
				<g id="XMLID_14_">
					<g id="XMLID_15_">
						<path id="XMLID_27_" class="st1" d="M8.938,6.985l0.099-0.627L8.816,6.352H7.765l0.73-4.631
							c0.003-0.014,0.01-0.027,0.02-0.036C8.527,1.677,8.54,1.671,8.554,1.671h1.773c0.589,0,0.994,0.122,1.206,0.364
							c0.099,0.113,0.163,0.232,0.193,0.362c0.032,0.137,0.033,0.301,0.001,0.5l-0.003,0.014v0.127l0.099,0.056
							c0.086,0.044,0.152,0.096,0.203,0.153c0.084,0.097,0.14,0.221,0.163,0.367c0.024,0.15,0.016,0.329-0.023,0.531
							c-0.046,0.233-0.119,0.435-0.218,0.601c-0.092,0.153-0.208,0.279-0.345,0.378c-0.132,0.093-0.288,0.163-0.464,0.209
							c-0.172,0.044-0.367,0.067-0.58,0.067h-0.139c-0.099,0-0.195,0.036-0.269,0.099c-0.076,0.066-0.126,0.155-0.14,0.251
							l-0.011,0.057L9.826,6.914L9.819,6.955C9.816,6.968,9.813,6.974,9.807,6.978C9.803,6.982,9.796,6.985,9.79,6.985H8.938z"/>
						<path id="XMLID_26_" class="st2" d="M11.92,2.926c-0.006,0.034-0.011,0.069-0.019,0.105c-0.233,1.199-1.032,1.614-2.053,1.614
							h-0.52c-0.125,0-0.231,0.09-0.249,0.213L8.812,6.546L8.736,7.024c-0.013,0.082,0.05,0.155,0.132,0.155H9.79
							c0.109,0,0.202-0.079,0.219-0.188l0.009-0.047l0.173-1.101l0.011-0.06c0.017-0.109,0.11-0.188,0.219-0.188h0.137
							c0.894,0,1.592-0.362,1.797-1.412c0.086-0.438,0.042-0.805-0.185-1.063C12.104,3.043,12.018,2.979,11.92,2.926z"/>
						<path id="XMLID_25_" class="st3" d="M11.675,2.828c-0.036-0.01-0.072-0.02-0.11-0.029c-0.037-0.009-0.076-0.016-0.116-0.021
							c-0.14-0.023-0.294-0.033-0.458-0.033H9.601c-0.034,0-0.067,0.007-0.096,0.021c-0.064,0.03-0.112,0.09-0.123,0.165
							L9.086,4.803L9.078,4.857c0.019-0.123,0.125-0.213,0.249-0.213h0.52c1.021,0,1.82-0.415,2.055-1.614
							c0.006-0.036,0.011-0.07,0.017-0.105c-0.059-0.032-0.123-0.059-0.192-0.082C11.71,2.838,11.693,2.834,11.675,2.828z"/>
						<path id="XMLID_24_" class="st1" d="M9.382,2.931c0.011-0.074,0.059-0.135,0.123-0.165c0.029-0.014,0.062-0.021,0.096-0.021
							h1.389c0.165,0,0.318,0.011,0.458,0.033c0.04,0.006,0.079,0.014,0.117,0.021c0.037,0.009,0.073,0.019,0.109,0.029
							c0.017,0.006,0.036,0.011,0.053,0.016c0.069,0.023,0.133,0.05,0.192,0.082c0.07-0.444,0-0.745-0.241-1.018
							c-0.265-0.301-0.742-0.43-1.352-0.43H8.556c-0.125,0-0.231,0.09-0.251,0.213L7.568,6.37c-0.014,0.093,0.057,0.176,0.15,0.176
							h1.094l0.275-1.743L9.382,2.931z"/>
					</g>
				</g>
			</g>
		</g>
	</g>
	<g>
		<path id="XMLID_57_" class="st1" d="M5.746,8.579C5.7,8.881,5.47,8.881,5.246,8.881H5.12l0.089-0.563
			c0.004-0.034,0.034-0.06,0.069-0.06h0.059c0.152,0,0.295,0,0.369,0.086C5.749,8.397,5.763,8.473,5.746,8.579z M5.649,7.793H4.808
			c-0.057,0-0.106,0.042-0.116,0.099l-0.339,2.155c-0.007,0.043,0.026,0.08,0.069,0.08h0.401c0.057,0,0.106-0.042,0.116-0.099
			L5.03,9.447C5.039,9.39,5.087,9.348,5.146,9.348h0.266c0.554,0,0.874-0.268,0.957-0.799C6.406,8.317,6.37,8.134,6.262,8.006
			C6.143,7.867,5.931,7.793,5.649,7.793z"/>
		<path id="XMLID_54_" class="st1" d="M7.601,9.354C7.562,9.583,7.379,9.738,7.147,9.738c-0.117,0-0.211-0.037-0.271-0.109
			c-0.06-0.07-0.082-0.17-0.063-0.282c0.036-0.228,0.222-0.388,0.451-0.388c0.115,0,0.208,0.039,0.268,0.11
			C7.593,9.141,7.618,9.242,7.601,9.354z M8.162,8.571H7.76c-0.034,0-0.064,0.026-0.069,0.059L7.672,8.742l-0.029-0.04
			c-0.087-0.127-0.281-0.17-0.475-0.17c-0.445,0-0.825,0.337-0.899,0.809C6.232,9.577,6.286,9.802,6.419,9.96
			c0.123,0.145,0.298,0.205,0.507,0.205c0.358,0,0.557-0.231,0.557-0.231l-0.017,0.112c-0.007,0.043,0.026,0.082,0.069,0.082h0.362
			c0.057,0,0.106-0.042,0.116-0.099l0.218-1.378C8.238,8.608,8.205,8.571,8.162,8.571z"/>
		<path id="XMLID_33_" class="st1" d="M10.306,8.571H9.9c-0.039,0-0.074,0.019-0.097,0.052L9.245,9.444L9.01,8.654
			c-0.014-0.05-0.06-0.083-0.112-0.083H8.5c-0.049,0-0.082,0.047-0.066,0.093l0.445,1.307l-0.42,0.59
			c-0.033,0.047,0,0.11,0.057,0.11h0.404c0.039,0,0.074-0.019,0.096-0.05l1.345-1.942C10.394,8.634,10.361,8.571,10.306,8.571z"/>
		<path id="XMLID_38_" class="st2" d="M11.742,8.579c-0.046,0.302-0.276,0.302-0.5,0.302h-0.127l0.089-0.563
			c0.006-0.034,0.036-0.06,0.07-0.06h0.057c0.152,0,0.295,0,0.369,0.086C11.745,8.397,11.758,8.473,11.742,8.579z M11.645,7.793
			h-0.841c-0.057,0-0.106,0.042-0.116,0.099l-0.339,2.155c-0.007,0.043,0.026,0.08,0.069,0.08h0.431c0.04,0,0.074-0.029,0.08-0.069
			l0.097-0.611c0.009-0.057,0.057-0.099,0.116-0.099h0.266c0.554,0,0.874-0.268,0.957-0.799c0.037-0.232,0.001-0.415-0.107-0.543
			C12.137,7.867,11.925,7.793,11.645,7.793z"/>
		<path id="XMLID_21_" class="st2" d="M13.595,9.354c-0.037,0.229-0.221,0.384-0.454,0.384c-0.116,0-0.211-0.037-0.271-0.109
			c-0.059-0.07-0.082-0.17-0.063-0.282c0.036-0.228,0.222-0.388,0.451-0.388c0.115,0,0.208,0.039,0.268,0.11
			C13.589,9.141,13.614,9.242,13.595,9.354z M14.156,8.571h-0.402c-0.034,0-0.064,0.026-0.069,0.059l-0.017,0.113l-0.029-0.04
			c-0.087-0.127-0.282-0.17-0.475-0.17c-0.445,0-0.825,0.337-0.898,0.809c-0.039,0.236,0.016,0.461,0.149,0.619
			c0.123,0.145,0.298,0.205,0.507,0.205c0.358,0,0.557-0.231,0.557-0.231l-0.017,0.112c-0.007,0.043,0.026,0.082,0.069,0.082h0.362
			c0.057,0,0.106-0.042,0.116-0.099l0.218-1.378C14.232,8.608,14.199,8.571,14.156,8.571z"/>
		<path id="XMLID_28_" class="st2" d="M14.632,7.852l-0.345,2.195c-0.007,0.043,0.026,0.08,0.069,0.08h0.347
			c0.057,0,0.106-0.042,0.116-0.099l0.341-2.155c0.007-0.043-0.026-0.082-0.069-0.082h-0.388
			C14.666,7.793,14.636,7.817,14.632,7.852z"/>
	</g>
</g>
</svg>
