<?xml version="1.0" encoding="utf-8"?>
<!-- Generator: Adobe Illustrator 21.1.0, SVG Export Plug-In . SVG Version: 6.00 Build 0)  -->
<svg version="1.1" id="Layer_1" xmlns="http://www.w3.org/2000/svg" xmlns:xlink="http://www.w3.org/1999/xlink" x="0px" y="0px"
	 viewBox="0 0 100 40" style="enable-background:new 0 0 100 40;" xml:space="preserve">
<g>
	<path d="M19.119,29.034c-0.155,1.422-0.663,2.51-1.526,3.265c-0.862,0.754-2.011,1.131-3.445,1.131
		c-1.001,0-1.887-0.25-2.657-0.751c-0.77-0.5-1.365-1.21-1.785-2.128c-0.421-0.918-0.634-1.967-0.64-3.148v-1.752
		c0-1.2,0.21-2.263,0.631-3.19c0.42-0.928,1.024-1.643,1.813-2.147c0.788-0.504,1.695-0.756,2.722-0.756
		c1.447,0,2.589,0.39,3.427,1.168c0.838,0.779,1.325,1.858,1.461,3.237h-1.15c-0.285-2.294-1.53-3.441-3.738-3.441
		c-1.224,0-2.199,0.458-2.926,1.374c-0.727,0.916-1.09,2.181-1.09,3.796v1.652c0,1.56,0.354,2.803,1.062,3.731
		c0.708,0.928,1.665,1.393,2.87,1.393c1.193,0,2.093-0.286,2.699-0.858c0.606-0.572,0.98-1.43,1.123-2.574H19.119z"/>
	<path d="M20.26,28.079c0-0.965,0.187-1.833,0.561-2.606s0.903-1.374,1.586-1.804c0.683-0.429,1.458-0.645,2.323-0.645
		c1.335,0,2.417,0.469,3.246,1.405c0.828,0.937,1.243,2.178,1.243,3.724v0.232c0,0.971-0.187,1.844-0.561,2.62
		s-0.901,1.374-1.582,1.794c-0.68,0.421-1.456,0.631-2.328,0.631c-1.329,0-2.41-0.468-3.241-1.405
		c-0.832-0.937-1.248-2.178-1.248-3.723V28.079z M21.373,28.385c0,1.199,0.311,2.184,0.932,2.954
		c0.622,0.77,1.436,1.155,2.444,1.155c1.001,0,1.813-0.385,2.435-1.155c0.621-0.77,0.932-1.785,0.932-3.046v-0.213
		c0-0.767-0.143-1.468-0.427-2.105c-0.285-0.637-0.683-1.13-1.196-1.479s-1.101-0.524-1.762-0.524c-0.989,0-1.796,0.388-2.42,1.164
		c-0.625,0.776-0.937,1.792-0.937,3.047V28.385z"/>
	<path d="M31.807,23.21l0.037,1.716c0.377-0.618,0.847-1.09,1.41-1.414c0.562-0.325,1.184-0.487,1.864-0.487
		c1.076,0,1.876,0.303,2.402,0.909s0.792,1.515,0.797,2.727v6.584h-1.104v-6.594c-0.006-0.896-0.196-1.564-0.57-2.003
		s-0.972-0.658-1.794-0.658c-0.687,0-1.294,0.215-1.822,0.645c-0.529,0.43-0.92,1.009-1.173,1.739v6.872H30.75V23.21H31.807z"/>
	<path d="M42.149,20.641v2.569h2.077v0.909h-2.077v6.694c0,0.557,0.1,0.972,0.301,1.244c0.201,0.272,0.536,0.409,1.006,0.409
		c0.186,0,0.485-0.031,0.899-0.093l0.046,0.901c-0.291,0.104-0.686,0.156-1.187,0.156c-0.761,0-1.314-0.221-1.66-0.663
		s-0.519-1.093-0.519-1.952v-6.696H39.19V23.21h1.846v-2.569H42.149z"/>
	<path d="M52.101,33.245c-0.111-0.315-0.183-0.782-0.213-1.4c-0.391,0.507-0.887,0.898-1.489,1.173
		c-0.603,0.275-1.241,0.413-1.915,0.413c-0.964,0-1.745-0.269-2.342-0.807c-0.597-0.538-0.895-1.218-0.895-2.04
		c0-0.977,0.407-1.75,1.22-2.318s1.946-0.854,3.399-0.854h2.013v-1.141c0-0.717-0.221-1.281-0.663-1.692s-1.087-0.617-1.934-0.617
		c-0.773,0-1.413,0.198-1.919,0.593c-0.507,0.396-0.761,0.872-0.761,1.428l-1.113-0.009c0-0.797,0.371-1.488,1.113-2.073
		c0.742-0.584,1.654-0.876,2.736-0.876c1.12,0,2.002,0.28,2.648,0.839s0.979,1.34,0.997,2.342v4.749
		c0,0.971,0.102,1.697,0.306,2.179v0.111H52.101z M48.614,32.447c0.741,0,1.405-0.18,1.989-0.538
		c0.584-0.358,1.01-0.838,1.275-1.438v-2.207h-1.984c-1.107,0.012-1.973,0.215-2.597,0.607s-0.937,0.932-0.937,1.618
		c0,0.562,0.208,1.029,0.626,1.4C47.403,32.262,47.946,32.447,48.614,32.447z"/>
	<path d="M58.89,32.494c0.771,0,1.42-0.218,1.943-0.654c0.521-0.436,0.805-1,0.848-1.693h1.066c-0.031,0.612-0.223,1.17-0.574,1.674
		c-0.354,0.504-0.822,0.898-1.406,1.182s-1.209,0.427-1.877,0.427c-1.317,0-2.361-0.458-3.131-1.373
		c-0.77-0.915-1.154-2.146-1.154-3.691v-0.334c0-0.989,0.174-1.864,0.52-2.625c0.346-0.761,0.842-1.348,1.488-1.762
		s1.402-0.622,2.268-0.622c1.1,0,2.008,0.328,2.723,0.983c0.713,0.655,1.096,1.518,1.145,2.587h-1.066
		c-0.049-0.785-0.332-1.419-0.848-1.901c-0.518-0.482-1.168-0.723-1.953-0.723c-1.002,0-1.779,0.361-2.332,1.085
		c-0.554,0.723-0.83,1.737-0.83,3.042v0.324c0,1.28,0.276,2.279,0.83,2.996C57.101,32.135,57.882,32.494,58.89,32.494z"/>
	<path d="M65.93,20.641v2.569h2.077v0.909H65.93v6.694c0,0.557,0.101,0.972,0.301,1.244c0.201,0.272,0.537,0.409,1.007,0.409
		c0.186,0,0.485-0.031,0.899-0.093l0.047,0.901c-0.291,0.104-0.687,0.156-1.188,0.156c-0.761,0-1.313-0.221-1.66-0.663
		s-0.52-1.093-0.52-1.952v-6.696h-1.846V23.21h1.846v-2.569H65.93z"/>
	<path d="M79.861,31.974c-0.668,0.971-1.734,1.456-3.199,1.456c-1.07,0-1.883-0.311-2.439-0.932
		c-0.557-0.622-0.841-1.541-0.854-2.759V23.21h1.104v6.39c0,1.91,0.772,2.866,2.318,2.866c1.607,0,2.624-0.665,3.051-1.994V23.21
		h1.113v10.035h-1.076L79.861,31.974z"/>
	<path d="M89.088,30.694c0-0.55-0.221-0.992-0.663-1.326c-0.441-0.334-1.108-0.595-1.998-0.784
		c-0.891-0.188-1.581-0.405-2.073-0.649c-0.491-0.244-0.856-0.542-1.094-0.895c-0.238-0.352-0.357-0.779-0.357-1.28
		c0-0.791,0.331-1.445,0.992-1.961c0.662-0.516,1.509-0.774,2.541-0.774c1.119,0,2.018,0.277,2.694,0.83
		c0.677,0.554,1.016,1.275,1.016,2.166h-1.113c0-0.587-0.245-1.076-0.737-1.465c-0.491-0.389-1.111-0.584-1.859-0.584
		c-0.729,0-1.315,0.162-1.757,0.487c-0.442,0.325-0.663,0.747-0.663,1.266c0,0.501,0.184,0.889,0.552,1.164
		c0.367,0.275,1.038,0.527,2.012,0.756c0.975,0.229,1.704,0.473,2.189,0.733c0.485,0.259,0.845,0.572,1.08,0.937
		s0.353,0.807,0.353,1.326c0,0.847-0.342,1.524-1.024,2.031c-0.684,0.507-1.575,0.761-2.676,0.761c-1.169,0-2.116-0.283-2.843-0.849
		s-1.09-1.281-1.09-2.147h1.113c0.043,0.649,0.316,1.155,0.82,1.516c0.504,0.362,1.17,0.543,1.999,0.543
		c0.772,0,1.396-0.17,1.873-0.51C88.851,31.644,89.088,31.213,89.088,30.694z"/>
</g>
<g id="_x37_D1wWB_1_">
	<g>
		<path d="M59.148,19.247c-0.108-2.232-1.023-3.921-2.887-4.954c-2.081-1.154-4.179-1.039-6.105,0.401
			c-1.477,1.104-2.227,2.625-2.249,4.553C51.676,19.247,55.349,19.247,59.148,19.247z M53.492,6.667
			c-1.781,0.008-3.226,1.494-3.207,3.298c0.018,1.791,1.494,3.213,3.308,3.188c1.697-0.024,3.128-1.493,3.132-3.216
			C56.73,8.135,55.27,6.658,53.492,6.667z M42.038,19.241c1.844,0,3.621,0,5.472,0c0.043-1.64,0.644-3.041,1.716-4.268
			c-1.933-0.956-3.713-0.86-5.346,0.398C42.656,16.312,42.002,17.594,42.038,19.241z M64.976,19.238
			c-0.053-1.849-0.814-3.252-2.321-4.17c-1.551-0.944-3.173-0.994-4.891-0.081c1.185,1.212,1.675,2.664,1.784,4.251
			C61.389,19.238,63.147,19.238,64.976,19.238z M46.861,13.981c1.294,0.007,2.382-1.09,2.389-2.409
			c0.007-1.304-1.09-2.43-2.369-2.431c-1.296-0.001-2.372,1.09-2.381,2.415C44.491,12.874,45.562,13.974,46.861,13.981z
			 M60.139,13.981c1.278-0.001,2.377-1.121,2.369-2.415c-0.008-1.327-1.08-2.428-2.362-2.426c-1.275,0.002-2.363,1.113-2.373,2.423
			C57.764,12.859,58.863,13.982,60.139,13.981z"/>
	</g>
</g>
</svg>
