<?xml version="1.0" encoding="utf-8"?>
<!-- Generator: Adobe Illustrator 21.1.0, SVG Export Plug-In . SVG Version: 6.00 Build 0)  -->
<svg version="1.1" id="Layer_1" xmlns="http://www.w3.org/2000/svg" xmlns:xlink="http://www.w3.org/1999/xlink" x="0px" y="0px"
	 viewBox="0 0 50 15" style="enable-background:new 0 0 50 15;" xml:space="preserve">
<style type="text/css">
	.st0{fill:#010101;}
</style>
<g>
	<g>
		<path class="st0" d="M4.588,7.695c0-0.432-0.14-0.785-0.42-1.059c-0.279-0.275-0.774-0.535-1.482-0.78
			c-0.88-0.277-1.496-0.604-1.85-0.984S0.304,4.001,0.304,3.397c0-0.635,0.194-1.149,0.584-1.544
			c0.39-0.395,0.918-0.619,1.588-0.673V0h0.595v1.179c0.685,0.062,1.215,0.318,1.591,0.767c0.376,0.45,0.563,1.062,0.563,1.837
			H4.531c0-0.611-0.158-1.096-0.476-1.457S3.305,1.787,2.756,1.787c-0.552,0-0.984,0.145-1.293,0.436S0.998,2.9,0.998,3.384
			c0,0.468,0.142,0.833,0.427,1.096c0.284,0.263,0.767,0.511,1.451,0.743s1.179,0.454,1.488,0.666s0.541,0.463,0.695,0.753
			c0.153,0.29,0.23,0.637,0.23,1.042c0,0.638-0.199,1.152-0.598,1.544C4.292,9.62,3.744,9.843,3.047,9.897v1.109H2.458V9.903
			C1.676,9.853,1.071,9.607,0.642,9.165C0.214,8.721,0,8.117,0,7.349h0.7c0,0.607,0.177,1.083,0.531,1.427S2.08,9.294,2.715,9.294
			c0.552,0,1.003-0.148,1.352-0.444C4.415,8.555,4.588,8.17,4.588,7.695z"/>
		<path class="st0" d="M9.707,9.79H9.006V2.132L6.695,2.99V2.336l2.896-1.074h0.117C9.707,1.261,9.707,9.79,9.707,9.79z"/>
		<path class="st0" d="M17.143,5.856c-0.249,0.365-0.558,0.649-0.928,0.85c-0.371,0.2-0.771,0.301-1.203,0.301
			c-0.482,0-0.91-0.125-1.279-0.374c-0.37-0.249-0.656-0.593-0.858-1.034c-0.203-0.44-0.304-0.92-0.304-1.442
			c0-0.56,0.108-1.071,0.324-1.53s0.518-0.816,0.905-1.071c0.386-0.255,0.833-0.383,1.34-0.383c0.853,0,1.516,0.298,1.991,0.896
			c0.475,0.598,0.711,1.445,0.711,2.543v0.63c0,1.534-0.327,2.685-0.979,3.457c-0.654,0.77-1.652,1.156-2.996,1.156H13.74
			l0.006-0.607h0.245c1.016-0.015,1.789-0.304,2.317-0.864C16.837,7.823,17.116,6.981,17.143,5.856z M15.1,6.398
			c0.466,0,0.887-0.139,1.258-0.416c0.371-0.278,0.635-0.638,0.791-1.081V4.5c0-0.862-0.18-1.531-0.54-2.006
			c-0.36-0.476-0.846-0.713-1.456-0.713c-0.553,0-1.006,0.222-1.36,0.666c-0.354,0.445-0.531,1.004-0.531,1.68
			c0,0.648,0.17,1.189,0.511,1.622C14.112,6.182,14.555,6.398,15.1,6.398z"/>
		<path class="st0" d="M18.803,5.563c0-0.08,0.026-0.147,0.077-0.203c0.051-0.055,0.121-0.083,0.212-0.083
			c0.091,0,0.163,0.028,0.214,0.083c0.052,0.056,0.078,0.123,0.078,0.203s-0.026,0.144-0.078,0.195
			c-0.052,0.051-0.124,0.077-0.214,0.077c-0.091,0-0.161-0.025-0.212-0.077C18.829,5.709,18.803,5.643,18.803,5.563z"/>
		<path class="st0" d="M22.808,3.515c-0.144,0.213-0.326,0.378-0.541,0.495c-0.215,0.117-0.449,0.175-0.701,0.175
			c-0.281,0-0.53-0.073-0.746-0.218c-0.216-0.145-0.382-0.346-0.5-0.603s-0.177-0.537-0.177-0.841c0-0.327,0.063-0.624,0.189-0.892
			c0.126-0.267,0.302-0.476,0.528-0.624c0.226-0.149,0.486-0.223,0.782-0.223c0.497,0,0.884,0.175,1.161,0.523
			c0.276,0.348,0.415,0.842,0.415,1.482v0.367c0,0.894-0.191,1.566-0.572,2.015c-0.381,0.45-0.963,0.674-1.746,0.674h-0.076
			l0.003-0.354h0.143c0.592-0.009,1.043-0.177,1.351-0.504C22.63,4.662,22.793,4.17,22.808,3.515z M21.617,3.832
			c0.272,0,0.517-0.081,0.733-0.242c0.217-0.162,0.371-0.372,0.462-0.63V2.725c0-0.502-0.105-0.893-0.315-1.169
			c-0.21-0.277-0.493-0.416-0.85-0.416c-0.322,0-0.586,0.13-0.793,0.389c-0.206,0.259-0.31,0.586-0.31,0.979
			c0,0.377,0.099,0.693,0.298,0.946C21.041,3.705,21.299,3.832,21.617,3.832z"/>
		<path class="st0" d="M26.497,3.515c-0.144,0.213-0.326,0.378-0.541,0.495c-0.215,0.117-0.449,0.175-0.701,0.175
			c-0.282,0-0.53-0.073-0.746-0.218c-0.216-0.145-0.382-0.346-0.5-0.603c-0.119-0.257-0.177-0.537-0.177-0.841
			c0-0.327,0.063-0.624,0.189-0.892c0.126-0.267,0.302-0.476,0.528-0.624c0.226-0.148,0.486-0.223,0.782-0.223
			c0.497,0,0.884,0.175,1.161,0.523c0.276,0.348,0.415,0.842,0.415,1.482v0.367c0,0.894-0.191,1.566-0.572,2.015
			c-0.381,0.45-0.963,0.674-1.746,0.674h-0.076l0.003-0.354h0.143c0.592-0.009,1.043-0.177,1.351-0.504
			C26.318,4.662,26.482,4.17,26.497,3.515z M25.305,3.832c0.272,0,0.517-0.081,0.733-0.242c0.217-0.162,0.371-0.372,0.462-0.63
			V2.725c0-0.502-0.105-0.893-0.315-1.169c-0.21-0.277-0.493-0.416-0.85-0.416c-0.322,0-0.586,0.13-0.793,0.389
			s-0.31,0.586-0.31,0.979c0,0.377,0.099,0.693,0.298,0.946C24.73,3.705,24.988,3.832,25.305,3.832z"/>
	</g>
	<g>
		<path class="st0" d="M27.297,9.854H26.74l1.81-5.339h0.557L27.297,9.854z"/>
	</g>
	<g>
		<path class="st0" d="M29.544,8.411c0-0.13,0.03-0.255,0.053-0.378c0.065-0.337,0.166-0.686,0.166-1.029
			c0-0.041,0-0.077-0.03-0.107c-0.017-0.017-0.024-0.041-0.047-0.047l0.006-0.017c-0.024-0.017-0.077-0.041-0.077-0.071
			c0-0.047,0.107-0.071,0.142-0.071c0.065,0,0.16,0.029,0.213,0.065c0.201,0.136,0.273,0.261,0.273,0.503
			c0,0.16-0.165,0.834-0.165,0.84l0.006,0.023c0.331-0.485,0.669-0.994,1.13-1.366c0.052-0.05,0.112-0.084,0.188-0.084
			c0.065,0,0.201,0.053,0.242,0.107c0.029,0.035,0.035,0.095,0.035,0.142c0,0.071-0.017,0.142-0.035,0.207
			c-0.047,0.165-0.113,0.456-0.172,0.604l0.006,0.024c0.03-0.035,0.065-0.065,0.101-0.101c0.255-0.255,0.503-0.521,0.793-0.739
			l0.349-0.261c0.03-0.024,0.065-0.035,0.107-0.035c0.077,0,0.261,0.095,0.308,0.153c0.023,0.029,0.029,0.047,0.029,0.089
			c0,0.148-0.402,1.154-0.48,1.402c-0.053,0.177-0.101,0.36-0.154,0.544c-0.006,0.017-0.006,0.024-0.006,0.041
			c0,0.059,0.059,0.053,0.059,0.107c0,0.077-0.107,0.077-0.16,0.077c-0.13,0-0.319-0.113-0.337-0.255
			c-0.006-0.03-0.006-0.059-0.006-0.089c0-0.325,0.13-0.793,0.236-1.1c0.059-0.178,0.142-0.343,0.219-0.515
			c-0.45,0.29-0.834,0.887-1.195,1.29c-0.107,0.119-0.142,0.035-0.249,0.071l-0.172-0.107c-0.053-0.035-0.059-0.095-0.059-0.153
			c0-0.231,0.101-0.592,0.183-0.811c0.023-0.065,0.059-0.13,0.077-0.195c0.006-0.017,0.006-0.041,0.017-0.059h-0.006
			c-0.059,0.083-0.148,0.148-0.213,0.224c-0.331,0.402-0.568,0.881-0.905,1.284c-0.041,0.047-0.083,0.077-0.148,0.077
			C29.71,8.694,29.544,8.582,29.544,8.411z M29.846,8.386c0.083-0.349,0.16-0.698,0.231-1.046L30.06,7.334
			c-0.077,0.349-0.154,0.704-0.236,1.053C29.822,8.386,29.846,8.386,29.846,8.386z M30.573,7.701
			c-0.006,0.006-0.011,0.012-0.011,0.023L30.573,7.701z M30.62,7.447c-0.006,0.006-0.012,0.012-0.012,0.024L30.62,7.447z
			 M31.029,7.86l-0.012,0.024h0.006l0.012-0.024H31.029z M31.047,7.796V7.79h-0.006L31.047,7.796z M31.07,7.688
			c-0.006,0-0.006,0-0.006,0.006s0,0.006,0.006,0.006V7.688z M31.076,7.654h0.006l0.006-0.017L31.076,7.654z M31.105,7.582V7.576
			c-0.005,0.007-0.012,0.007-0.012,0.012C31.1,7.588,31.1,7.582,31.105,7.582z M31.105,8.026l-0.006,0.006h0.006V8.026z
			 M31.129,7.956V7.926c-0.006,0.012-0.006,0.017-0.006,0.029H31.129z M31.159,7.866L31.147,7.86l-0.017,0.053L31.159,7.866z
			 M31.159,7.807v0.006l0.006-0.006H31.159z M31.188,7.363c0.047-0.124,0.125-0.266,0.142-0.402c-0.059,0.136-0.124,0.273-0.16,0.42
			L31.188,7.363z M31.177,7.76h-0.006v0.018h0.006V7.76z M31.188,7.718V7.701c-0.006,0.006-0.006,0.012-0.006,0.017H31.188z
			 M31.195,8.038l0.023,0.006c0.018-0.023,0.03-0.053,0.041-0.083c0.089-0.296,0.183-0.586,0.266-0.881
			c0.018-0.059,0.024-0.119,0.041-0.172l-0.017-0.006L31.195,8.038z M31.206,7.654H31.2c0,0.006,0,0.006,0.006,0.012V7.654
			L31.206,7.654z M31.218,7.606h0.012V7.546L31.218,7.606z M31.253,7.499c-0.006,0.012-0.017,0.024-0.023,0.041
			c0.012-0.012,0.023-0.024,0.029-0.035L31.253,7.499z M31.395,7.097c-0.047,0.083-0.089,0.206-0.112,0.302
			C31.342,7.304,31.36,7.198,31.395,7.097z M31.431,7.009h-0.012l0.006,0.017L31.431,7.009z M31.473,7.464l0.006-0.006h-0.006V7.464
			z M32.247,8.351c0,0.006,0,0.006,0.006,0.006L32.247,8.351z M32.265,8.269h-0.006v0.017h0.006V8.269L32.265,8.269z M32.271,8.227
			h0.012c0-0.024,0.006-0.053,0.006-0.077L32.271,8.227z M32.289,8.151c0.035-0.053,0.047-0.119,0.047-0.183L32.289,8.151z
			 M32.738,6.944c-0.165,0.326-0.314,0.663-0.402,1.017c0.041-0.065,0.059-0.136,0.083-0.207c0.059-0.16,0.113-0.326,0.183-0.48
			c0.047-0.107,0.112-0.213,0.148-0.326L32.738,6.944z M32.342,8.435h0.006V8.429L32.342,8.435z M32.348,8.417l0.017-0.024h-0.012
			L32.348,8.417z M32.371,8.357V8.34c-0.006,0.006-0.006,0.006-0.006,0.012L32.371,8.357z M32.401,8.76
			c0.047-0.13,0.071-0.273,0.107-0.408c0.071-0.266,0.166-0.532,0.266-0.793l0.236-0.621c0.012-0.029,0.012-0.059,0.017-0.089
			h-0.012c-0.154,0.372-0.32,0.739-0.439,1.13c-0.077,0.249-0.165,0.515-0.189,0.775L32.401,8.76z M32.898,6.866
			c-0.142,0.349-0.326,0.692-0.42,1.059C32.455,8.014,32.436,8.121,32.4,8.21c0.035-0.059,0.053-0.148,0.077-0.213
			c0.077-0.218,0.154-0.438,0.236-0.657c0.059-0.16,0.142-0.308,0.195-0.468L32.898,6.866z M32.572,8.34
			c0,0.006,0,0.012,0.006,0.017h0.006c-0.006-0.006-0.006-0.012-0.006-0.017H32.572z M32.584,7.813l0.006,0.006V7.813H32.584z
			 M32.596,7.784l0.006,0.006V7.784H32.596z M32.602,8.269h-0.006l0.006,0.006V8.269z M32.644,8.144
			c0.006-0.006,0.006-0.006,0.006-0.012C32.65,8.138,32.644,8.138,32.644,8.144z M32.662,8.091l-0.006-0.006
			c0,0.006,0,0.012-0.006,0.017L32.662,8.091z M32.655,7.618v0.006l0.006-0.006H32.655z M32.668,7.588v0.006
			c0.006,0,0.006,0,0.006-0.006H32.668z M32.685,8.026V8.02c-0.006,0.006-0.012,0.006-0.012,0.012
			C32.68,8.032,32.68,8.026,32.685,8.026z M32.691,7.535c0.006,0,0.006,0,0.006-0.006C32.691,7.529,32.691,7.529,32.691,7.535z
			 M32.697,7.985h-0.006v0.012h0.006V7.985z M32.709,7.961V7.955c-0.006,0-0.006,0-0.006,0.006H32.709z M32.792,7.724L32.78,7.718
			v0.017L32.792,7.724z M32.816,7.642C32.81,7.648,32.81,7.654,32.81,7.659h0.006V7.642z M32.845,7.606l-0.011-0.012
			C32.828,7.6,32.828,7.6,32.828,7.606H32.845z M32.892,7.464h-0.006c0,0.006,0,0.012-0.006,0.017L32.892,7.464z M32.904,7.41
			l-0.006,0.006h0.006V7.41z M32.91,7.381l0.006,0.006V7.381H32.91z M32.927,7.352l-0.006,0.006h0.006V7.352z M32.933,7.328h0.006
			V7.322L32.933,7.328z M32.957,7.287l-0.006,0.006h0.006V7.287z M32.993,7.18c0,0.006,0,0.006,0.006,0.006V7.18H32.993z
			 M33.028,7.091v0.012c0-0.006,0-0.006,0.006-0.012H33.028z"/>
		<path class="st0" d="M33.68,7.245c0.142-0.183,0.367-0.526,0.627-0.526c0.255,0,0.556,0.314,0.556,0.568
			c0,0.48-0.378,1.035-0.716,1.349c-0.101,0.095-0.195,0.172-0.337,0.195c-0.041,0.006-0.083,0.012-0.124,0.012
			c-0.373,0-0.645-0.308-0.645-0.674V8.098c0-0.242,0.248-0.899,0.532-0.899L33.68,7.245z M33.467,7.334
			c-0.047,0.024-0.071,0.065-0.095,0.107L33.467,7.334z M33.414,7.772v0.012c0.006,0,0.006-0.006,0.012-0.012H33.414z M34.52,7.215
			c0.006-0.041,0.017-0.077,0.017-0.119c0-0.024-0.006-0.053-0.017-0.077c-0.195,0-0.604,0.491-0.604,0.68
			c0,0.059,0.035,0.107,0.083,0.142c-0.012,0.017-0.035,0.035-0.059,0.035c-0.166,0-0.242-0.13-0.331-0.242
			c-0.089,0.218-0.172,0.444-0.172,0.68c0,0.083,0.006,0.165,0.03,0.249C34.005,8.417,34.425,7.742,34.52,7.215z M33.609,7.41
			c-0.077,0.077-0.125,0.178-0.16,0.278c0.029-0.041,0.148-0.224,0.154-0.266L33.609,7.41z M33.473,7.464
			c0.024-0.017,0.047-0.053,0.053-0.083L33.473,7.464z M33.834,7.204c0.017-0.047,0.213-0.242,0.266-0.29h-0.012
			c-0.107,0.089-0.195,0.189-0.273,0.302L33.834,7.204z M34.236,7.038V7.032H34.23c-0.006,0-0.006,0.006-0.011,0.006
			c-0.125,0.089-0.314,0.29-0.343,0.444C33.994,7.328,34.1,7.174,34.236,7.038z M34.011,7.127c-0.023,0.024-0.101,0.101-0.101,0.124
			C33.94,7.204,33.982,7.168,34.011,7.127z M34.189,8.411c-0.012,0.017-0.03,0.035-0.035,0.059c0.119-0.136,0.444-0.467,0.439-0.651
			C34.479,8.032,34.337,8.221,34.189,8.411z M34.296,7.99c-0.03,0.041-0.13,0.16-0.13,0.183C34.218,8.127,34.259,8.061,34.296,7.99z
			 M34.189,8.275c0,0.006,0,0.006,0.006,0.006L34.189,8.275z M34.259,8.209c0.041-0.065,0.095-0.125,0.13-0.189l-0.136,0.183v0.006
			H34.259L34.259,8.209z M34.395,8.002c-0.006,0.006-0.006,0.012-0.006,0.017L34.395,8.002z M34.485,8.151h0.006V8.145L34.485,8.151
			z"/>
		<path class="st0" d="M34.922,8.6c0-0.319,0.207-1.023,0.302-1.349c0.047-0.148,0.101-0.326,0.101-0.485
			c0-0.029-0.011-0.059-0.017-0.089c0.012-0.029,0.035-0.029,0.059-0.029c0.012,0,0.071,0.029,0.083,0.035
			c0.142,0.071,0.242,0.224,0.242,0.39c0,0.343-0.231,1.071-0.349,1.414l0.012,0.006C35.686,8.037,36,7.576,36.367,7.15
			c0.142-0.166,0.284-0.331,0.432-0.491c0.047-0.047,0.089-0.095,0.154-0.113c0.112,0.017,0.332,0.136,0.332,0.273
			c0,0.077-0.095,0.319-0.125,0.402C37,7.635,36.574,8.836,36.574,9.233c0,0.059,0.018,0.113,0.071,0.142
			c0,0.035-0.024,0.059-0.059,0.059c-0.337,0-0.402-0.285-0.402-0.562c0-0.373,0.183-0.881,0.296-1.243
			c0.053-0.177,0.13-0.343,0.195-0.515c-0.018,0.012-0.035,0.017-0.053,0.035c-0.261,0.266-0.479,0.592-0.674,0.905
			c-0.125,0.201-0.426,0.71-0.58,0.846c-0.035,0.03-0.052,0.035-0.095,0.035C35.1,8.937,34.922,8.778,34.922,8.6z M35.468,8.642
			c-0.006,0.006-0.012,0.012-0.012,0.024L35.468,8.642z M35.562,8.304c0.035-0.041,0.059-0.083,0.089-0.125
			C35.615,8.215,35.585,8.263,35.562,8.304z M35.627,8.429c0.006-0.017,0.017-0.029,0.024-0.041
			c-0.018,0.017-0.041,0.047-0.047,0.071L35.627,8.429z M35.633,8.351c0.006,0,0.006,0,0.006-0.006L35.633,8.351z M35.703,8.109
			c0.012-0.035,0.035-0.047,0.059-0.077c0.047-0.053,0.077-0.119,0.119-0.178c0.266-0.396,0.609-0.733,0.911-1.107l0.017-0.024
			l-0.012-0.012c-0.301,0.319-0.592,0.651-0.846,1.012c-0.095,0.136-0.201,0.266-0.273,0.414L35.703,8.109z M35.692,8.275V8.269
			l-0.006,0.006H35.692z M35.804,8.156c-0.041,0.047-0.077,0.095-0.101,0.148C35.739,8.257,35.775,8.209,35.804,8.156z
			 M35.793,8.091h-0.017c0,0.006-0.006,0.017-0.012,0.024h0.029l0.006-0.017L35.793,8.091z M35.804,8.151
			c0.029-0.035,0.059-0.077,0.077-0.125C35.857,8.067,35.822,8.103,35.804,8.151z M35.816,8.038v0.017c0,0.006,0,0.012,0.006,0.017
			c0.006-0.006,0.006-0.017,0.006-0.024h0.024c-0.006-0.006-0.017-0.006-0.024-0.006L35.816,8.038z M35.816,8.192v0.012l0.006-0.006
			L35.816,8.192z M35.84,8.002v0.012c0,0,0.012,0.029,0.012,0.035V8.014c0.006,0,0.012,0,0.017-0.006
			c-0.006,0-0.017-0.006-0.017-0.006H35.84z M35.869,7.961v0.017c0,0.006,0,0.017,0.006,0.024c0-0.017,0.006-0.03,0.023-0.03
			c-0.006-0.006-0.012-0.006-0.017-0.006L35.869,7.961z M35.893,7.926v0.012c0.006,0.012,0.006,0.024,0.006,0.035
			c0.006-0.012,0.006-0.024,0.006-0.035l0.012-0.006c-0.006,0-0.018-0.006-0.018-0.006H35.893z M35.922,7.979l0.006-0.024
			L35.911,7.99L35.922,7.979z M36.2,7.606l0.024-0.035h0.011l0.03-0.029c0.006-0.017,0.059-0.089,0.077-0.101
			c0.012-0.035,0.154-0.207,0.189-0.224L36.52,7.21V7.186c-0.065,0.071-0.119,0.148-0.195,0.201c0.029-0.071,0.32-0.384,0.384-0.467
			c-0.296,0.296-0.556,0.621-0.793,0.964v0.017l0.006,0.024c0.053-0.083,0.095-0.136,0.16-0.213
			c-0.006,0.024-0.011,0.041-0.023,0.059L36.1,7.748h0.012c0.024-0.029,0.047-0.059,0.059-0.095l0.017-0.012
			c0.006-0.012,0.012-0.024,0.024-0.03L36.2,7.606z M35.97,7.902c0.012-0.012,0.024-0.017,0.035-0.024V7.872
			c0.006-0.006,0.012-0.029,0.012-0.041L35.97,7.902z M36.011,7.878V7.89c0.006-0.006,0.006-0.012,0.006-0.018L36.011,7.878z
			 M36.485,8.848h0.006V8.831h-0.006V8.848z M36.49,8.789l0.017,0.006c0.012-0.053,0.018-0.101,0.024-0.154L36.49,8.789z
			 M37.153,6.825c-0.248,0.497-0.485,1.26-0.621,1.804c0.012-0.012,0.017-0.023,0.024-0.035c0.101-0.266,0.16-0.55,0.255-0.816
			c0.113-0.32,0.249-0.628,0.361-0.947L37.153,6.825z M36.65,7.079c0.012-0.029,0.047-0.041,0.047-0.077l0.065-0.089l-0.23,0.255
			c0.017-0.012,0.03-0.024,0.053-0.024C36.609,7.121,36.621,7.097,36.65,7.079z M36.68,7.416l0.006-0.006H36.68V7.416z M36.72,7.304
			c0,0.006-0.006,0.006-0.006,0.012h0.006V7.304z M36.745,7.227l-0.018,0.041l0.018,0.006V7.227z M36.763,7.215
			c0.053-0.119,0.119-0.236,0.178-0.355V6.831c-0.077,0.124-0.137,0.261-0.195,0.396L36.763,7.215z M36.922,7.133
			c0.029-0.065,0.065-0.13,0.089-0.195C36.97,6.997,36.946,7.062,36.922,7.133z M37.052,6.843l-0.006-0.006V6.86L37.052,6.843z"/>
		<path class="st0" d="M39.135,6.127c-0.137,0.166-0.663,0.213-0.876,0.249c-0.213,0.692-0.337,1.408-0.456,2.124
			c-0.059,0.378-0.107,0.77-0.107,1.154c0,0.154,0.024,0.314,0.059,0.462c0.006,0.017,0.006,0.029,0.006,0.047
			c0,0.053-0.077,0.071-0.119,0.071c-0.018,0-0.023-0.017-0.029-0.03l-0.035,0.053c-0.071-0.035-0.148-0.053-0.219-0.089
			c-0.218-0.113-0.218-0.515-0.218-0.721c0-0.621,0.083-1.254,0.177-1.869c0.024-0.142,0.036-0.29,0.065-0.432
			c0.029-0.166,0.071-0.331,0.095-0.497c0.006-0.041,0.024-0.077,0.024-0.119c0-0.029-0.053-0.029-0.071-0.029
			c-0.059,0-0.125,0.006-0.184,0.006L37.254,6.5c-0.059-0.017-0.136-0.077-0.177-0.13l0.006-0.035l-0.053-0.029
			c0.012-0.059,0.024-0.077,0.083-0.095c0.13-0.035,0.266-0.047,0.396-0.077c0.13-0.172,0.249-0.349,0.332-0.55
			C37.905,5.429,38,5.281,38.082,5.14c0.024-0.041,0.047-0.077,0.101-0.077l0.071,0.035l-0.041,0.095
			c0.035-0.035,0.059-0.071,0.089-0.107l0.023,0.035l0.047-0.006l-0.03,0.083l0.047-0.041l0.065,0.024v0.059l0.047-0.012
			c0.035,0.029,0.095,0.059,0.095,0.113c0,0.024-0.213,0.633-0.213,0.633c0.041-0.006,0.089,0,0.13-0.012
			c0.101-0.024,0.201-0.024,0.308-0.024c0.125,0,0.154,0.024,0.231,0.124C39.052,6.109,39.1,6.121,39.135,6.127z M37.307,8.83
			h-0.006v0.077h0.006V8.83z M37.331,8.582h-0.006v0.071h0.006V8.582z M37.413,7.997l-0.018-0.006l-0.059,0.491h0.012
			C37.366,8.322,37.39,8.156,37.413,7.997z M37.697,6.47c-0.083,0.13-0.278,1.254-0.278,1.443v0.03
			C37.503,7.453,37.573,6.956,37.697,6.47z M37.432,9.079V9.02h-0.006v0.059H37.432z M37.432,8.932h0.006V8.92h-0.006V8.932z
			 M37.455,8.694h-0.006l-0.006,0.113h0.006L37.455,8.694z M37.473,8.552h-0.006c0,0.029-0.006,0.053-0.006,0.083h0.011
			L37.473,8.552L37.473,8.552z M37.485,8.452v0.029c0.053-0.343,0.101-0.686,0.166-1.023c0.065-0.343,0.142-0.68,0.213-1.023
			C37.757,6.57,37.485,8.209,37.485,8.452z M38.052,6.41L38,6.416c-0.148,0.485-0.236,0.994-0.32,1.491
			c-0.077,0.509-0.16,1.029-0.16,1.544c0,0.089,0,0.183,0.012,0.273C37.579,8.606,37.769,7.493,38.052,6.41z M37.609,6.103v0.012
			l0.023-0.035C37.621,6.079,37.609,6.091,37.609,6.103z M37.645,9.127h-0.006v0.017h0.006V9.127z M37.662,8.967v-0.03
			c-0.006,0.006-0.006,0.017-0.006,0.03H37.662z M37.686,8.772V8.754H37.68v0.017H37.686z M37.703,8.612h-0.006v0.024h0.006V8.612z
			 M37.721,8.487h-0.006v0.024L37.721,8.487z M37.739,8.399c-0.006-0.006-0.006-0.017-0.006-0.024h-0.006
			c0,0.006,0,0.017,0.006,0.024H37.739z M37.751,8.257h-0.006v0.041h0.006V8.257z M37.769,8.156h-0.006v0.023h0.006V8.156z
			 M37.775,7.11v0.017h0.006V7.11H37.775z M37.786,8.085V8.038H37.78v0.047L37.786,8.085L37.786,8.085z M37.793,7.032
			c0,0.012,0,0.017-0.006,0.029h0.006l0.006-0.029H37.793z M37.805,7.985V7.95h-0.012v0.035H37.805z M37.805,6.985h0.006V6.973
			L37.805,6.985z M37.822,7.89c0-0.012,0-0.018-0.006-0.03H37.81v0.03H37.822z M37.822,6.896v0.017h0.006V6.896H37.822z
			 M37.834,7.79V7.766h-0.006V7.79H37.834z M37.851,7.718V7.677h-0.006l-0.006,0.041C37.839,7.718,37.851,7.718,37.851,7.718z
			 M37.857,6.766l-0.011,0.017h0.011V6.766z M37.851,5.985l0.006-0.006C37.851,5.98,37.851,5.98,37.851,5.985z M37.869,7.63
			c0-0.012,0-0.023-0.006-0.035h-0.006V7.63H37.869z M37.863,6.712l0.006,0.006l0.012-0.024L37.863,6.712z M37.881,7.506h-0.006
			v0.047h0.006V7.506z M37.898,7.47V7.429h-0.006l-0.006,0.036C37.892,7.47,37.892,7.47,37.898,7.47z M37.892,6.625l0.012-0.029
			l-0.012-0.006V6.625z M37.91,7.352h-0.006v0.041h0.006V7.352z M37.91,6.535v0.012c0.006-0.006,0.006-0.006,0.006-0.012H37.91z
			 M37.929,7.311V7.275h-0.006V7.31L37.929,7.311L37.929,7.311z M37.947,7.204l-0.012,0.029l0.012,0.006V7.204z M37.97,7.133
			c-0.011,0-0.023,0.012-0.023,0.024c0,0.012,0.006,0.017,0.006,0.03L37.97,7.133z M37.964,7.097c0,0.012,0.006,0.017,0.006,0.029
			l0.018-0.059C37.976,7.073,37.964,7.079,37.964,7.097z M37.982,6.044c0.047-0.047,0.053-0.113,0.065-0.172
			C38,5.919,37.993,5.985,37.982,6.044z M37.988,7.062c0-0.018,0.006-0.035,0.006-0.053h-0.012
			C37.982,7.026,37.982,7.043,37.988,7.062z M38.005,6.973V6.944c-0.006,0.012-0.011,0.017-0.011,0.029H38.005z M38.011,6.907
			c-0.006,0.006-0.006,0.012-0.006,0.017l0.006-0.006V6.907z M38.023,6.866l0.006-0.017C38.023,6.855,38.023,6.861,38.023,6.866z
			 M38.04,6.796l-0.006,0.006c0,0.017-0.006,0.029-0.006,0.047l0.011-0.047L38.04,6.796L38.04,6.796z M38.07,6.701
			c-0.03,0.024-0.03,0.059-0.03,0.095C38.052,6.766,38.064,6.73,38.07,6.701z M38.052,5.861c-0.006,0.006-0.006,0.006-0.006,0.012
			C38.046,5.867,38.052,5.867,38.052,5.861z M38.1,6.594C38.082,6.612,38.07,6.636,38.07,6.66c0,0.012,0,0.024,0.006,0.035
			C38.082,6.659,38.088,6.63,38.1,6.594z M38.07,6.701h0.006V6.695L38.07,6.701z M38.082,5.434c0.006-0.006,0.006-0.006,0.006-0.012
			C38.088,5.429,38.082,5.429,38.082,5.434z M38.1,5.381L38.088,5.41C38.094,5.405,38.1,5.393,38.1,5.381z M38.113,5.358
			l-0.012,0.024C38.106,5.376,38.113,5.364,38.113,5.358z M38.1,6.57l0.017-0.041V6.505C38.106,6.529,38.106,6.547,38.1,6.57z
			 M38.148,6.422V6.399l-0.024,0.065C38.142,6.459,38.148,6.441,38.148,6.422z M38.36,5.506c-0.018,0.029-0.041,0.053-0.059,0.077
			c-0.03,0.053-0.166,0.39-0.166,0.438h0.012c0.029,0,0.041-0.024,0.047-0.047C38.254,5.82,38.302,5.666,38.36,5.506z M38.171,5.275
			c-0.006,0.006-0.012,0.018-0.012,0.024C38.165,5.293,38.171,5.281,38.171,5.275z M38.165,5.559l0.018-0.012h-0.018V5.559z
			 M38.2,5.21c-0.011,0.024-0.023,0.041-0.029,0.065L38.2,5.222V5.21z"/>
		<path class="st0" d="M39.893,7.712c-0.089,0.485-0.218,0.982-0.218,1.479c0,0.077,0.006,0.154,0.029,0.231
			c0,0.006,0.006,0.012,0.006,0.017c0,0.012-0.006,0.023-0.006,0.035c-0.023,0.006-0.047,0.006-0.071,0.006
			c-0.165,0-0.331-0.136-0.349-0.302c-0.006-0.071-0.006-0.148-0.006-0.218c0-0.136,0-0.273,0.017-0.408
			C39.36,8.02,39.42,7.54,39.573,7.026l-0.011-0.011l-0.183,0.154c-0.107,0.095-0.231,0.272-0.302,0.396
			c-0.218,0.372-0.378,0.769-0.462,1.195c-0.006,0.035-0.012,0.065-0.023,0.101c-0.408-0.041-0.444-0.308-0.444-0.657
			c0-0.621,0.143-1.237,0.278-1.84c0.053-0.242,0.107-0.491,0.183-0.727c0.071-0.224,0.166-0.45,0.255-0.669
			c0.023-0.053,0.04-0.119,0.083-0.166c0.035,0.024,0.053,0.035,0.095,0.035c0.052,0,0.136,0.071,0.177,0.107
			c0.041,0.035,0.047,0.053,0.053,0.107v0.047c0,0.224-0.154,0.669-0.218,0.905c-0.083,0.319-0.166,0.633-0.242,0.952
			c-0.029,0.124-0.13,0.467-0.13,0.574c0,0.006,0.006,0.017,0.006,0.023c0.231-0.355,0.402-0.544,0.757-0.781
			c0.047-0.029,0.083-0.047,0.137-0.047c0.113,0,0.224,0.071,0.308,0.136C39.971,6.925,40,6.979,40,7.085
			C40,7.293,39.928,7.511,39.893,7.712z M38.426,6.914H38.42v0.012h0.006V6.914z M38.444,6.831L38.426,6.86l0.012,0.006
			C38.438,6.855,38.444,6.843,38.444,6.831z M38.45,6.796h-0.006v0.029C38.45,6.813,38.45,6.808,38.45,6.796z M38.456,6.742h0.012
			c-0.006-0.006-0.006-0.017-0.006-0.029C38.456,6.724,38.456,6.73,38.456,6.742z M38.468,8.032c0-0.012-0.006-0.017-0.006-0.029
			c-0.006,0.012-0.006,0.017-0.006,0.029H38.468z M38.479,7.872c-0.006,0.024-0.012,0.047-0.012,0.071h0.012V7.872z M38.479,7.866
			c0.059-0.183,0.095-0.485,0.136-0.686c0.13-0.616,0.308-1.224,0.468-1.834L39.07,5.352c-0.083,0.266-0.172,0.526-0.242,0.793
			c-0.083,0.314-0.154,0.627-0.219,0.941C38.556,7.345,38.502,7.606,38.479,7.866z M38.497,6.57h0.006V6.546
			C38.497,6.553,38.497,6.564,38.497,6.57z M38.502,6.541c0.006-0.006,0.012-0.017,0.012-0.024l-0.012-0.006V6.541z M38.52,6.459
			l0.011,0.006c0-0.029,0.006-0.065,0.006-0.095l0.012-0.006c0.023-0.083,0.041-0.16,0.059-0.242
			c-0.035,0.077-0.052,0.165-0.071,0.249L38.52,6.459z M38.544,6.861v0.024h0.006V6.861H38.544z M38.585,6.695
			c0,0.012-0.006,0.024-0.006,0.035l-0.012,0.041h0.012l0.018-0.071L38.585,6.695z M38.97,7.547
			c-0.137,0.136-0.343,0.657-0.384,0.852c-0.006,0.017,0,0.041-0.006,0.059c0.018-0.018,0.023-0.035,0.029-0.053
			c0.065-0.189,0.125-0.378,0.213-0.562l0.148-0.285C38.97,7.558,38.97,7.547,38.97,7.547z M38.598,6.648
			c0,0.006,0,0.006,0.006,0.012V6.648H38.598z M38.598,8.138h0.006V8.133L38.598,8.138z M38.609,6.6l0.012,0.006
			c-0.006-0.012-0.006-0.024-0.006-0.035C38.609,6.582,38.609,6.588,38.609,6.6z M38.627,7.843h0.012l0.052-0.113L38.627,7.843z
			 M38.656,6.417c0.029-0.035,0.13-0.473,0.142-0.55l0.012-0.035l0.006-0.024C38.81,5.814,38.81,5.825,38.81,5.832
			c-0.006,0.012-0.012,0.024-0.012,0.035C38.745,6.05,38.692,6.233,38.656,6.417z M38.733,8.174l-0.006-0.006v0.006H38.733z
			 M38.733,5.637c0.006,0,0.006,0,0.012-0.006V5.624L38.733,5.637z M38.763,5.547h0.006V5.541L38.763,5.547z M38.781,8.032h-0.006
			l0.006,0.006V8.032z M38.822,7.659c0-0.006,0-0.006,0.006-0.012h-0.006V7.659z M38.829,5.772l0.006-0.017h-0.006V5.772z
			 M38.834,6.529l-0.006,0.006h0.006V6.529z M38.84,5.719h0.006V5.707H38.84V5.719z M38.852,5.666h0.006V5.66L38.852,5.666z
			 M38.899,6.287h-0.006v0.012C38.893,6.293,38.893,6.293,38.899,6.287z M38.965,6.056h-0.006v0.006L38.965,6.056z M38.988,5.962
			h-0.006v0.006L38.988,5.962z M38.999,7.499c-0.006,0.012-0.018,0.024-0.018,0.035C38.988,7.523,38.999,7.511,38.999,7.499z
			 M38.999,5.919c-0.006,0-0.006,0-0.006,0.006h0.006V5.919z M39.083,5.34c0.017-0.035,0.035-0.071,0.035-0.113l-0.012-0.006
			C39.094,5.263,39.089,5.299,39.083,5.34z M39.124,5.181h0.006c0-0.006,0-0.017-0.006-0.024l0.017-0.024l-0.006-0.006
			c0,0.012-0.006,0.017-0.011,0.029C39.124,5.157,39.124,5.181,39.124,5.181z M39.615,8.47h-0.006v0.024l0.006-0.006V8.47z
			 M39.639,8.292h-0.006c0,0.006,0.006,0.006,0.006,0.012V8.292z M39.668,8.103l-0.011,0.041h0.011V8.103z M39.851,7.215
			c-0.077,0.266-0.124,0.532-0.172,0.805c0.041-0.095,0.053-0.219,0.077-0.314C39.792,7.541,39.828,7.381,39.851,7.215z
			 M39.863,7.168h-0.012v0.029L39.863,7.168z"/>
	</g>
</g>
</svg>
