<?xml version="1.0" encoding="utf-8"?>
<!-- Generator: Adobe Illustrator 21.1.0, SVG Export Plug-In . SVG Version: 6.00 Build 0)  -->
<svg version="1.1" id="Layer_1" xmlns="http://www.w3.org/2000/svg" xmlns:xlink="http://www.w3.org/1999/xlink" x="0px" y="0px"
	 viewBox="0 0 50 25" style="enable-background:new 0 0 50 25;" xml:space="preserve">
<style type="text/css">
	.st0{fill:#3C4852;}
</style>
<g id="VJ1Zt2_1_">
	<g>
		<path class="st0" d="M45.458,2.06c0,2.876,0,5.752,0,8.629c-0.014,0.097-0.037,0.194-0.043,0.292
			c-0.07,1.098-0.28,2.17-0.66,3.201c-0.808,2.198-2.22,3.946-4.071,5.354c-1.299,0.989-2.726,1.753-4.233,2.372
			c-0.085,0.035-0.212,0.029-0.295-0.01c-0.749-0.352-1.51-0.685-2.235-1.082c-1.775-0.971-3.331-2.212-4.545-3.853
			c-1.132-1.532-1.822-3.242-2.073-5.129c-0.051-0.381-0.089-0.764-0.133-1.145c0-2.876,0-5.752,0-8.629
			c0.55-0.12,1.1-0.239,1.65-0.361c0.556-0.123,1.112-0.249,1.694-0.38c0,0.508,0,0.991,0,1.506
			c1.254-0.287,2.479-0.569,3.712-0.851c0-0.515,0-0.999,0-1.495c0.199-0.045,0.387-0.086,0.574-0.131
			C35.276,0.234,35.752,0.116,36.228,0c0.057,0,0.114,0,0.172,0c0.288,0.073,0.576,0.15,0.865,0.219
			c0.379,0.091,0.759,0.176,1.146,0.265c0,0.511,0,0.995,0,1.493c1.233,0.282,2.454,0.562,3.703,0.847c0-0.516,0-0.999,0-1.505
			c0.525,0.118,1.025,0.233,1.525,0.343C44.245,1.797,44.851,1.928,45.458,2.06z M29.683,8.276c0.001,0,0.001,0,0.001,0
			c0,0.165-0.005,0.329,0.001,0.494c0.034,0.936-0.002,1.88,0.12,2.804c0.265,2.017,1.224,3.696,2.706,5.08
			c1.091,1.019,2.345,1.799,3.667,2.476c0.069,0.035,0.186,0.041,0.252,0.006c1.532-0.778,2.968-1.694,4.157-2.954
			c1.463-1.552,2.25-3.405,2.33-5.526c0.06-1.593,0.019-3.19,0.034-4.785c0.002-0.215-0.074-0.289-0.277-0.334
			c-2.062-0.464-4.122-0.939-6.184-1.407c-0.108-0.025-0.229-0.028-0.336-0.004c-2.083,0.473-4.164,0.953-6.247,1.424
			c-0.168,0.038-0.232,0.097-0.229,0.28C29.689,6.644,29.683,7.46,29.683,8.276z"/>
		<path class="st0" d="M35.781,15.146c-1.351-1.317-2.692-2.624-4.039-3.938c0.626-0.604,1.221-1.177,1.809-1.745
			c0.694,0.687,1.428,1.415,2.144,2.125c1.504-1.468,2.992-2.92,4.457-4.349c0.568,0.551,1.158,1.123,1.767,1.715
			C39.853,11.038,37.801,13.109,35.781,15.146z"/>
	</g>
</g>
</svg>
