<?xml version="1.0" encoding="utf-8"?>
<!-- Generator: Adobe Illustrator 21.1.0, SVG Export Plug-In . SVG Version: 6.00 Build 0)  -->
<svg version="1.1" id="Layer_1" xmlns="http://www.w3.org/2000/svg" xmlns:xlink="http://www.w3.org/1999/xlink" x="0px" y="0px"
	 viewBox="0 0 50 10" style="enable-background:new 0 0 50 10;" xml:space="preserve">
<style type="text/css">
	.st0{fill:#3C4852;}
</style>
<g>
	<path class="st0" d="M44.347,6.908c-0.186-0.185-0.377-0.374-0.557-0.552c-0.153,0.148-0.307,0.296-0.47,0.453
		c0.35,0.341,0.698,0.681,1.05,1.023c0.525-0.529,1.058-1.067,1.595-1.609c-0.158-0.154-0.312-0.302-0.459-0.446
		C45.125,6.15,44.738,6.527,44.347,6.908z"/>
	<path class="st0" d="M48.233,4.317c0-0.373-0.182-0.758-0.658-0.706c-0.004,0-0.008-0.002-0.027-0.007
		c-0.002-0.038-0.005-0.071-0.006-0.105c-0.014-0.4,0.004-0.317-0.049-0.711c-0.18-1.365-1.371-2.417-2.745-2.455
		c-1.479-0.04-2.722,0.966-2.952,2.42c-0.062,0.392-0.038,0.311-0.053,0.711c-0.002,0.049,0,0.097,0,0.152c-0.056,0-0.09,0-0.124,0
		c-0.252,0.002-0.424,0.113-0.508,0.35c-0.038,0.106-0.057,0.224-0.057,0.337c-0.004,1.186-0.002,2.859-0.002,4.044
		c0,0.23-0.004,0.461,0.001,0.691c0.009,0.406,0.238,0.629,0.638,0.629c1.992,0,3.983-0.001,5.975,0.002
		c0.235,0,0.397-0.105,0.483-0.31c0.051-0.122,0.081-0.263,0.081-0.396C48.236,7.577,48.233,5.703,48.233,4.317z M43,2.856
		c0.151-0.809,0.935-1.373,1.752-1.319c0.815,0.054,1.506,0.717,1.572,1.536c0.027,0.337,0.004,0.191,0.004,0.537
		c-1.127,0-2.247,0-3.368,0c-0.006-0.007-0.016-0.013-0.016-0.02C42.96,3.182,42.926,3.253,43,2.856z M44.642,8.469
		c-1.014,0-1.836-0.822-1.836-1.836s0.822-1.836,1.836-1.836c1.014,0,1.836,0.822,1.836,1.836S45.656,8.469,44.642,8.469z"/>
</g>
</svg>
