<?xml version="1.0" encoding="utf-8"?>
<!-- Generator: Adobe Illustrator 21.1.0, SVG Export Plug-In . SVG Version: 6.00 Build 0)  -->
<svg version="1.1" id="Layer_1" xmlns="http://www.w3.org/2000/svg" xmlns:xlink="http://www.w3.org/1999/xlink" x="0px" y="0px"
	 viewBox="0 0 100 60" style="enable-background:new 0 0 100 60;" xml:space="preserve">
<g>
	<path d="M19.359,18.983c0-0.836-0.271-1.52-0.813-2.051s-1.499-1.034-2.87-1.508c-1.702-0.535-2.896-1.169-3.581-1.904
		c-0.686-0.734-1.028-1.685-1.028-2.853c0-1.228,0.376-2.224,1.13-2.988c0.753-0.765,1.777-1.199,3.073-1.305V4.092h1.152v2.282
		c1.326,0.12,2.352,0.615,3.079,1.485c0.727,0.871,1.09,2.056,1.09,3.554h-1.344c0-1.183-0.307-2.122-0.921-2.819
		s-1.452-1.045-2.514-1.045c-1.069,0-1.904,0.281-2.502,0.843c-0.599,0.562-0.898,1.311-0.898,2.246
		c0,0.905,0.275,1.613,0.825,2.122c0.549,0.509,1.485,0.988,2.807,1.437s2.282,0.879,2.881,1.289
		c0.599,0.411,1.046,0.896,1.344,1.458c0.297,0.561,0.446,1.233,0.446,2.017c0,1.235-0.386,2.23-1.158,2.988
		c-0.772,0.757-1.832,1.188-3.18,1.293v2.146h-1.141v-2.135c-1.514-0.099-2.685-0.574-3.514-1.43
		c-0.829-0.854-1.243-2.023-1.243-3.508h1.355c0,1.175,0.343,2.096,1.028,2.763c0.685,0.666,1.642,1,2.87,1
		c1.069,0,1.941-0.286,2.616-0.859C19.022,20.647,19.359,19.902,19.359,18.983z"/>
	<path d="M29.265,23.038h-1.356V8.216l-4.474,1.661V8.612l5.604-2.079h0.226C29.265,6.533,29.265,23.038,29.265,23.038z"/>
	<path d="M43.655,15.424c-0.482,0.708-1.08,1.256-1.795,1.644c-0.717,0.388-1.492,0.582-2.328,0.582
		c-0.934,0-1.76-0.241-2.475-0.724c-0.715-0.482-1.269-1.148-1.661-2s-0.587-1.781-0.587-2.791c0-1.084,0.209-2.071,0.627-2.96
		s1.001-1.58,1.752-2.073c0.748-0.493,1.613-0.74,2.592-0.74c1.65,0,2.934,0.578,3.854,1.734c0.918,1.156,1.377,2.796,1.377,4.92
		v1.22c0,2.968-0.633,5.197-1.896,6.689c-1.266,1.491-3.197,2.236-5.797,2.236H37.07l0.012-1.175h0.475
		c1.965-0.03,3.461-0.588,4.484-1.672C43.064,19.231,43.603,17.601,43.655,15.424z M39.702,16.474c0.902,0,1.715-0.269,2.434-0.806
		s1.23-1.234,1.531-2.091V12.8c0-1.668-0.348-2.962-1.045-3.882s-1.637-1.38-2.818-1.38c-1.07,0-1.947,0.43-2.633,1.29
		s-1.028,1.944-1.028,3.251c0,1.255,0.33,2.301,0.989,3.138C37.79,16.055,38.648,16.474,39.702,16.474z"/>
	<path d="M46.868,14.859c0-0.154,0.05-0.284,0.148-0.392c0.099-0.107,0.235-0.161,0.411-0.161s0.314,0.054,0.415,0.161
		c0.102,0.108,0.151,0.238,0.151,0.392s-0.05,0.28-0.151,0.378c-0.101,0.099-0.239,0.148-0.415,0.148s-0.312-0.049-0.411-0.148
		C46.918,15.139,46.868,15.013,46.868,14.859z"/>
	<path d="M54.619,10.894c-0.28,0.413-0.63,0.732-1.047,0.958s-0.869,0.339-1.356,0.339c-0.545,0-1.025-0.141-1.443-0.422
		c-0.417-0.281-0.739-0.669-0.968-1.166s-0.343-1.039-0.343-1.627c0-0.632,0.122-1.208,0.366-1.726
		c0.243-0.518,0.584-0.921,1.021-1.208s0.94-0.431,1.512-0.431c0.962,0,1.71,0.337,2.246,1.011c0.535,0.674,0.804,1.63,0.804,2.869
		v0.711c0,1.73-0.369,3.03-1.106,3.899c-0.738,0.87-1.864,1.304-3.379,1.304H50.78l0.007-0.685h0.276
		c1.146-0.017,2.018-0.342,2.615-0.975C54.275,13.114,54.589,12.163,54.619,10.894z M52.315,11.507c0.526,0,1-0.157,1.419-0.47
		c0.42-0.313,0.717-0.72,0.893-1.219V9.365c0-0.972-0.203-1.727-0.609-2.263s-0.954-0.805-1.644-0.805
		c-0.623,0-1.135,0.251-1.534,0.752s-0.6,1.133-0.6,1.896c0,0.731,0.192,1.341,0.576,1.83C51.2,11.262,51.699,11.507,52.315,11.507z
		"/>
	<path d="M61.758,10.894c-0.28,0.413-0.63,0.732-1.047,0.958s-0.869,0.339-1.356,0.339c-0.545,0-1.025-0.141-1.443-0.422
		c-0.417-0.281-0.739-0.669-0.968-1.166s-0.343-1.039-0.343-1.627c0-0.632,0.122-1.208,0.366-1.726
		c0.243-0.518,0.584-0.921,1.021-1.208s0.94-0.431,1.512-0.431c0.962,0,1.71,0.337,2.246,1.011c0.535,0.674,0.804,1.63,0.804,2.869
		v0.711c0,1.73-0.369,3.03-1.106,3.899c-0.738,0.87-1.864,1.304-3.379,1.304h-0.146l0.007-0.685h0.276
		c1.146-0.017,2.018-0.342,2.615-0.975C61.413,13.114,61.728,12.163,61.758,10.894z M59.453,11.507c0.526,0,1-0.157,1.419-0.47
		c0.42-0.313,0.717-0.72,0.893-1.219V9.365c0-0.972-0.203-1.727-0.609-2.263s-0.954-0.805-1.644-0.805
		c-0.623,0-1.135,0.251-1.534,0.752s-0.6,1.133-0.6,1.896c0,0.731,0.192,1.341,0.576,1.83
		C58.339,11.262,58.838,11.507,59.453,11.507z"/>
</g>
<g>
	<path d="M19.359,50.145c0-0.836-0.271-1.52-0.813-2.051s-1.499-1.033-2.87-1.508c-1.702-0.535-2.896-1.17-3.581-1.904
		c-0.686-0.734-1.028-1.686-1.028-2.853c0-1.228,0.376-2.224,1.13-2.988c0.753-0.765,1.777-1.199,3.073-1.306v-2.281h1.152v2.281
		c1.326,0.12,2.352,0.615,3.079,1.485c0.727,0.87,1.09,2.056,1.09,3.554h-1.344c0-1.182-0.307-2.121-0.921-2.818
		s-1.452-1.045-2.514-1.045c-1.069,0-1.904,0.281-2.502,0.843c-0.599,0.562-0.898,1.312-0.898,2.246
		c0,0.905,0.275,1.612,0.825,2.122c0.549,0.509,1.485,0.988,2.807,1.437s2.282,0.879,2.881,1.289
		c0.599,0.411,1.046,0.896,1.344,1.458c0.297,0.561,0.446,1.233,0.446,2.017c0,1.235-0.386,2.23-1.158,2.988
		c-0.772,0.757-1.832,1.188-3.18,1.293v2.146h-1.141v-2.135c-1.514-0.099-2.685-0.574-3.514-1.43
		c-0.829-0.854-1.243-2.023-1.243-3.508h1.355c0,1.175,0.343,2.096,1.028,2.763c0.685,0.666,1.642,1,2.87,1
		c1.069,0,1.941-0.286,2.616-0.859C19.022,51.81,19.359,51.064,19.359,50.145z"/>
	<path d="M29.265,54.201h-1.356V39.378l-4.474,1.661v-1.265l5.604-2.08h0.226C29.265,37.694,29.265,54.201,29.265,54.201z"/>
	<path d="M43.655,46.587c-0.482,0.707-1.08,1.256-1.795,1.644c-0.717,0.388-1.492,0.582-2.328,0.582
		c-0.934,0-1.76-0.241-2.475-0.724c-0.715-0.482-1.269-1.148-1.661-2c-0.392-0.851-0.587-1.781-0.587-2.79
		c0-1.085,0.209-2.071,0.627-2.96s1.001-1.58,1.752-2.073c0.748-0.493,1.613-0.74,2.592-0.74c1.65,0,2.934,0.578,3.854,1.734
		c0.918,1.156,1.377,2.796,1.377,4.921V45.4c0,2.969-0.633,5.197-1.896,6.689c-1.266,1.491-3.197,2.236-5.797,2.236H37.07
		l0.012-1.175h0.475c1.965-0.03,3.461-0.588,4.484-1.672C43.064,50.394,43.603,48.764,43.655,46.587z M39.702,47.638
		c0.902,0,1.715-0.27,2.434-0.807s1.23-1.234,1.531-2.09v-0.777c0-1.668-0.348-2.963-1.045-3.883S40.985,38.7,39.804,38.7
		c-1.07,0-1.947,0.431-2.633,1.291c-0.686,0.859-1.028,1.943-1.028,3.251c0,1.255,0.33,2.301,0.989,3.138
		C37.79,47.218,38.648,47.638,39.702,47.638z"/>
	<path d="M55.901,46.587c-0.482,0.707-1.081,1.256-1.796,1.644c-0.716,0.388-1.492,0.582-2.328,0.582
		c-0.934,0-1.759-0.241-2.474-0.724c-0.716-0.482-1.27-1.148-1.661-2c-0.392-0.851-0.588-1.781-0.588-2.79
		c0-1.085,0.209-2.071,0.628-2.96c0.418-0.889,1.001-1.58,1.751-2.073c0.749-0.493,1.613-0.74,2.593-0.74
		c1.649,0,2.934,0.578,3.853,1.734s1.378,2.796,1.378,4.921V45.4c0,2.969-0.633,5.197-1.897,6.689
		c-1.266,1.491-3.197,2.236-5.796,2.236h-0.249l0.012-1.175H49.8c1.966-0.03,3.461-0.588,4.485-1.672
		C55.309,50.394,55.848,48.764,55.901,46.587z M51.946,47.638c0.903,0,1.715-0.27,2.435-0.807c0.719-0.537,1.229-1.234,1.531-2.09
		v-0.777c0-1.668-0.349-2.963-1.046-3.883c-0.696-0.92-1.636-1.381-2.818-1.381c-1.069,0-1.947,0.431-2.633,1.291
		c-0.686,0.859-1.027,1.943-1.027,3.251c0,1.255,0.329,2.301,0.988,3.138C50.035,47.218,50.892,47.638,51.946,47.638z"/>
	<path d="M59.112,46.022c0-0.154,0.05-0.285,0.148-0.393s0.235-0.161,0.411-0.161s0.314,0.054,0.415,0.161
		c0.102,0.107,0.151,0.238,0.151,0.393c0,0.153-0.05,0.279-0.151,0.378s-0.239,0.148-0.415,0.148s-0.312-0.05-0.411-0.148
		S59.112,46.176,59.112,46.022z"/>
	<path d="M66.863,42.057c-0.28,0.413-0.63,0.732-1.047,0.958c-0.417,0.227-0.869,0.34-1.356,0.34c-0.545,0-1.025-0.141-1.443-0.422
		c-0.417-0.281-0.739-0.67-0.968-1.166s-0.343-1.038-0.343-1.627c0-0.632,0.122-1.207,0.366-1.726
		c0.243-0.519,0.584-0.921,1.021-1.208c0.437-0.288,0.94-0.432,1.512-0.432c0.962,0,1.71,0.337,2.246,1.011
		c0.535,0.675,0.804,1.63,0.804,2.868v0.712c0,1.729-0.369,3.03-1.106,3.899c-0.738,0.869-1.864,1.304-3.379,1.304h-0.146
		l0.007-0.685h0.276c1.146-0.018,2.018-0.343,2.615-0.975C66.519,44.276,66.833,43.325,66.863,42.057z M64.559,42.669
		c0.526,0,1-0.156,1.419-0.469c0.42-0.314,0.717-0.721,0.893-1.22v-0.453c0-0.972-0.203-1.727-0.609-2.263
		c-0.406-0.537-0.954-0.806-1.644-0.806c-0.623,0-1.135,0.251-1.534,0.753c-0.399,0.501-0.6,1.133-0.6,1.895
		c0,0.732,0.192,1.342,0.576,1.83C63.444,42.425,63.944,42.669,64.559,42.669z"/>
	<path d="M74.002,42.057c-0.28,0.413-0.63,0.732-1.047,0.958c-0.417,0.227-0.869,0.34-1.356,0.34c-0.545,0-1.025-0.141-1.443-0.422
		c-0.417-0.281-0.739-0.67-0.968-1.166s-0.343-1.038-0.343-1.627c0-0.632,0.122-1.207,0.366-1.726
		c0.243-0.519,0.584-0.921,1.021-1.208c0.437-0.288,0.94-0.432,1.512-0.432c0.962,0,1.71,0.337,2.246,1.011
		c0.535,0.675,0.804,1.63,0.804,2.868v0.712c0,1.729-0.369,3.03-1.106,3.899c-0.738,0.869-1.864,1.304-3.379,1.304h-0.146
		l0.007-0.685h0.276c1.146-0.018,2.018-0.343,2.615-0.975C73.657,44.276,73.972,43.325,74.002,42.057z M71.697,42.669
		c0.526,0,1-0.156,1.419-0.469c0.42-0.314,0.717-0.721,0.893-1.22v-0.453c0-0.972-0.203-1.727-0.609-2.263
		c-0.406-0.537-0.954-0.806-1.644-0.806c-0.623,0-1.135,0.251-1.534,0.753c-0.399,0.501-0.6,1.133-0.6,1.895
		c0,0.732,0.192,1.342,0.576,1.83C70.583,42.425,71.082,42.669,71.697,42.669z"/>
</g>
<g>
	<path d="M63.306,23.162h-1.079l3.503-10.333h1.079L63.306,23.162z"/>
</g>
<g>
	<path d="M67.654,20.368c0-0.252,0.058-0.492,0.103-0.733c0.126-0.653,0.321-1.328,0.321-1.992c0-0.08,0-0.149-0.058-0.206
		c-0.034-0.034-0.046-0.08-0.091-0.092l0.011-0.034c-0.046-0.034-0.148-0.08-0.148-0.138c0-0.091,0.206-0.137,0.275-0.137
		c0.126,0,0.309,0.057,0.412,0.126c0.39,0.263,0.527,0.504,0.527,0.973c0,0.309-0.32,1.614-0.32,1.626l0.011,0.045
		c0.641-0.939,1.294-1.923,2.187-2.645c0.103-0.092,0.218-0.16,0.366-0.16c0.126,0,0.389,0.103,0.469,0.206
		c0.057,0.069,0.069,0.183,0.069,0.275c0,0.137-0.034,0.275-0.069,0.401c-0.092,0.32-0.218,0.882-0.332,1.168l0.012,0.046
		c0.058-0.069,0.126-0.126,0.195-0.195c0.492-0.492,0.973-1.008,1.534-1.431l0.675-0.504c0.058-0.046,0.126-0.069,0.206-0.069
		c0.149,0,0.504,0.183,0.595,0.297c0.045,0.057,0.057,0.092,0.057,0.172c0,0.286-0.779,2.233-0.928,2.713
		c-0.103,0.343-0.195,0.698-0.298,1.053c-0.011,0.034-0.011,0.046-0.011,0.08c0,0.115,0.114,0.103,0.114,0.206
		c0,0.149-0.206,0.149-0.309,0.149c-0.252,0-0.618-0.218-0.653-0.492c-0.011-0.058-0.011-0.115-0.011-0.172
		c0-0.629,0.252-1.534,0.458-2.129c0.115-0.344,0.275-0.664,0.424-0.996c-0.871,0.561-1.614,1.718-2.313,2.496
		c-0.206,0.229-0.275,0.069-0.481,0.137l-0.332-0.206c-0.103-0.069-0.114-0.183-0.114-0.297c0-0.447,0.194-1.145,0.355-1.569
		c0.045-0.126,0.114-0.252,0.149-0.377c0.012-0.034,0.012-0.08,0.034-0.115h-0.011c-0.115,0.16-0.287,0.286-0.412,0.435
		c-0.641,0.779-1.099,1.706-1.752,2.484c-0.08,0.092-0.16,0.149-0.286,0.149C67.975,20.918,67.654,20.7,67.654,20.368z
		 M68.238,20.322c0.16-0.675,0.309-1.351,0.447-2.026l-0.034-0.012c-0.149,0.675-0.298,1.363-0.458,2.038
		C68.193,20.322,68.238,20.322,68.238,20.322z M69.646,18.995c-0.011,0.011-0.022,0.023-0.022,0.045L69.646,18.995z M69.738,18.502
		c-0.012,0.012-0.023,0.023-0.023,0.046L69.738,18.502z M70.528,19.303l-0.023,0.046h0.012l0.023-0.046H70.528z M70.563,19.178
		v-0.012h-0.012L70.563,19.178z M70.608,18.971c-0.012,0-0.012,0-0.012,0.012s0,0.012,0.012,0.012V18.971z M70.62,18.903h0.012
		l0.012-0.034L70.62,18.903z M70.677,18.765v-0.012c-0.011,0.012-0.023,0.012-0.023,0.023
		C70.666,18.777,70.666,18.765,70.677,18.765z M70.677,19.624l-0.011,0.012h0.011V19.624z M70.723,19.487V19.43
		c-0.012,0.023-0.012,0.034-0.012,0.057H70.723z M70.78,19.315l-0.023-0.012l-0.034,0.103L70.78,19.315z M70.78,19.2v0.012
		l0.012-0.012H70.78z M70.837,18.342c0.092-0.24,0.241-0.515,0.275-0.778c-0.114,0.263-0.24,0.527-0.309,0.813L70.837,18.342z
		 M70.814,19.109h-0.011v0.035h0.011V19.109z M70.837,19.029v-0.034c-0.012,0.011-0.012,0.023-0.012,0.034H70.837z M70.849,19.647
		l0.045,0.011c0.035-0.045,0.058-0.103,0.08-0.16c0.172-0.573,0.355-1.133,0.515-1.706c0.035-0.115,0.046-0.229,0.08-0.332
		l-0.034-0.011L70.849,19.647z M70.872,18.903H70.86c0,0.012,0,0.012,0.011,0.023L70.872,18.903L70.872,18.903z M70.894,18.811
		h0.023v-0.115L70.894,18.811z M70.963,18.605c-0.011,0.023-0.034,0.046-0.045,0.08c0.023-0.023,0.045-0.046,0.057-0.069
		L70.963,18.605z M71.238,17.827c-0.091,0.16-0.172,0.4-0.217,0.584C71.135,18.227,71.169,18.021,71.238,17.827z M71.307,17.655
		h-0.023l0.012,0.034L71.307,17.655z M71.387,18.536l0.012-0.012h-0.012V18.536z M72.887,20.254c0,0.012,0,0.012,0.012,0.012
		L72.887,20.254z M72.921,20.094H72.91v0.034h0.012v-0.034H72.921z M72.933,20.013h0.023c0-0.046,0.012-0.103,0.012-0.149
		L72.933,20.013z M72.967,19.865c0.069-0.103,0.092-0.229,0.092-0.355L72.967,19.865z M73.837,17.529
		c-0.32,0.63-0.607,1.283-0.778,1.969c0.08-0.126,0.114-0.263,0.16-0.401c0.115-0.309,0.218-0.63,0.355-0.928
		c0.091-0.206,0.217-0.412,0.286-0.63L73.837,17.529z M73.07,20.414h0.012v-0.012L73.07,20.414z M73.081,20.38l0.034-0.046h-0.023
		L73.081,20.38z M73.127,20.265v-0.034c-0.012,0.012-0.012,0.012-0.012,0.023L73.127,20.265z M73.184,21.044
		c0.092-0.252,0.137-0.527,0.206-0.79c0.137-0.515,0.321-1.03,0.515-1.534l0.458-1.202c0.023-0.057,0.023-0.115,0.034-0.172h-0.023
		c-0.298,0.721-0.619,1.431-0.848,2.187c-0.149,0.481-0.32,0.996-0.366,1.5L73.184,21.044z M74.146,17.38
		c-0.275,0.675-0.63,1.34-0.813,2.05c-0.045,0.172-0.08,0.377-0.149,0.55c0.069-0.115,0.103-0.287,0.149-0.412
		c0.149-0.423,0.298-0.847,0.458-1.271c0.114-0.309,0.275-0.595,0.377-0.905L74.146,17.38z M73.516,20.231
		c0,0.012,0,0.023,0.011,0.034h0.012c-0.012-0.012-0.012-0.023-0.012-0.034H73.516z M73.539,19.212l0.012,0.011v-0.011H73.539z
		 M73.562,19.155l0.012,0.012v-0.012H73.562z M73.574,20.094h-0.012l0.012,0.011V20.094z M73.654,19.853
		c0.011-0.012,0.011-0.012,0.011-0.023C73.665,19.841,73.654,19.841,73.654,19.853z M73.688,19.75l-0.012-0.012
		c0,0.012,0,0.023-0.011,0.034L73.688,19.75z M73.676,18.834v0.012l0.012-0.012H73.676z M73.7,18.777v0.011
		c0.012,0,0.012,0,0.012-0.011H73.7z M73.734,19.624v-0.011c-0.011,0.011-0.023,0.011-0.023,0.023
		C73.723,19.636,73.723,19.624,73.734,19.624z M73.745,18.674c0.012,0,0.012,0,0.012-0.011
		C73.745,18.663,73.745,18.663,73.745,18.674z M73.757,19.544h-0.012v0.023h0.012V19.544z M73.78,19.498v-0.012
		c-0.012,0-0.012,0-0.012,0.012H73.78z M73.94,19.04l-0.023-0.011v0.034L73.94,19.04z M73.986,18.88
		c-0.012,0.011-0.012,0.023-0.012,0.034h0.012V18.88z M74.043,18.811l-0.022-0.023c-0.012,0.012-0.012,0.012-0.012,0.023H74.043z
		 M74.135,18.536h-0.012c0,0.012,0,0.023-0.012,0.034L74.135,18.536z M74.158,18.433l-0.012,0.012h0.012V18.433z M74.169,18.376
		l0.012,0.012v-0.012H74.169z M74.203,18.319l-0.012,0.012h0.012V18.319z M74.215,18.273h0.012v-0.011L74.215,18.273z M74.26,18.193
		l-0.011,0.012h0.011V18.193z M74.329,17.987c0,0.012,0,0.012,0.011,0.012v-0.012H74.329z M74.398,17.815v0.023
		c0-0.011,0-0.011,0.011-0.023H74.398z"/>
	<path d="M75.659,18.113c0.275-0.355,0.71-1.019,1.213-1.019c0.493,0,1.077,0.607,1.077,1.099c0,0.928-0.733,2.004-1.386,2.611
		c-0.195,0.183-0.377,0.332-0.653,0.378c-0.08,0.012-0.16,0.023-0.24,0.023c-0.722,0-1.248-0.595-1.248-1.305v-0.137
		c0-0.47,0.48-1.741,1.03-1.741L75.659,18.113z M75.247,18.285c-0.091,0.046-0.138,0.126-0.183,0.206L75.247,18.285z M75.144,19.132
		v0.023c0.012,0,0.012-0.011,0.023-0.023H75.144z M77.285,18.055c0.011-0.08,0.034-0.149,0.034-0.229
		c0-0.046-0.012-0.103-0.034-0.149c-0.378,0-1.168,0.95-1.168,1.317c0,0.114,0.069,0.206,0.16,0.275
		c-0.023,0.034-0.069,0.069-0.115,0.069c-0.321,0-0.469-0.252-0.641-0.469c-0.172,0.423-0.333,0.859-0.333,1.317
		c0,0.16,0.012,0.32,0.058,0.481C76.288,20.38,77.101,19.074,77.285,18.055z M75.522,18.433c-0.149,0.149-0.241,0.344-0.309,0.538
		c0.057-0.08,0.286-0.435,0.298-0.515L75.522,18.433z M75.258,18.536c0.046-0.034,0.092-0.103,0.103-0.16L75.258,18.536z
		 M75.957,18.033c0.034-0.092,0.412-0.47,0.515-0.561h-0.023c-0.206,0.172-0.378,0.366-0.527,0.584L75.957,18.033z M76.735,17.712
		v-0.011h-0.012c-0.011,0-0.011,0.011-0.022,0.011c-0.241,0.172-0.607,0.561-0.664,0.859C76.266,18.273,76.472,17.975,76.735,17.712
		z M76.3,17.884c-0.045,0.046-0.194,0.195-0.194,0.24C76.163,18.033,76.243,17.964,76.3,17.884z M76.644,20.368
		c-0.023,0.034-0.058,0.069-0.069,0.115c0.229-0.263,0.859-0.904,0.848-1.26C77.205,19.636,76.93,20.002,76.644,20.368z
		 M76.85,19.555c-0.058,0.08-0.252,0.309-0.252,0.355C76.701,19.819,76.781,19.693,76.85,19.555z M76.644,20.105
		c0,0.012,0,0.012,0.011,0.012L76.644,20.105z M76.781,19.979c0.08-0.126,0.183-0.241,0.252-0.366l-0.263,0.355v0.012L76.781,19.979
		L76.781,19.979z M77.044,19.578c-0.012,0.011-0.012,0.023-0.012,0.034L77.044,19.578z M77.216,19.865h0.011v-0.012L77.216,19.865z"
		/>
	<path d="M78.064,20.735c0-0.618,0.401-1.981,0.584-2.611c0.092-0.286,0.194-0.63,0.194-0.939c0-0.057-0.022-0.115-0.034-0.172
		c0.023-0.057,0.069-0.057,0.114-0.057c0.023,0,0.138,0.057,0.16,0.069c0.275,0.137,0.47,0.435,0.47,0.755
		c0,0.664-0.447,2.072-0.676,2.736l0.023,0.012c0.641-0.882,1.248-1.775,1.958-2.599c0.275-0.321,0.549-0.641,0.835-0.95
		c0.092-0.092,0.172-0.183,0.298-0.218c0.217,0.034,0.642,0.263,0.642,0.527c0,0.149-0.184,0.618-0.241,0.779
		c-0.309,0.801-1.134,3.126-1.134,3.893c0,0.115,0.035,0.218,0.138,0.275c0,0.069-0.046,0.115-0.115,0.115
		c-0.653,0-0.778-0.55-0.778-1.088c0-0.722,0.355-1.706,0.572-2.405c0.103-0.343,0.251-0.664,0.378-0.996
		c-0.035,0.023-0.069,0.034-0.103,0.069c-0.504,0.515-0.927,1.145-1.305,1.752c-0.241,0.389-0.825,1.374-1.122,1.637
		c-0.069,0.058-0.102,0.069-0.183,0.069C78.407,21.387,78.064,21.078,78.064,20.735z M79.118,20.815
		c-0.012,0.012-0.023,0.023-0.023,0.046L79.118,20.815z M79.301,20.162c0.069-0.08,0.115-0.16,0.172-0.241
		C79.404,19.99,79.347,20.082,79.301,20.162z M79.427,20.403c0.011-0.034,0.034-0.057,0.046-0.08
		c-0.035,0.034-0.08,0.092-0.092,0.138L79.427,20.403z M79.438,20.254c0.012,0,0.012,0,0.012-0.011L79.438,20.254z M79.575,19.784
		c0.023-0.069,0.069-0.092,0.115-0.149c0.091-0.103,0.149-0.229,0.229-0.344c0.515-0.767,1.179-1.42,1.763-2.141l0.034-0.046
		l-0.023-0.023c-0.583,0.618-1.145,1.259-1.637,1.958c-0.184,0.263-0.39,0.515-0.527,0.801L79.575,19.784z M79.553,20.105v-0.011
		l-0.012,0.011H79.553z M79.77,19.876c-0.08,0.091-0.149,0.183-0.195,0.286C79.644,20.071,79.713,19.979,79.77,19.876z
		 M79.747,19.75h-0.034c0,0.012-0.011,0.034-0.023,0.046h0.057l0.012-0.034L79.747,19.75z M79.77,19.865
		c0.057-0.069,0.114-0.149,0.149-0.241C79.873,19.704,79.804,19.773,79.77,19.865z M79.793,19.647v0.034
		c0,0.011,0,0.023,0.011,0.034c0.012-0.012,0.012-0.034,0.012-0.046h0.046c-0.011-0.012-0.034-0.012-0.046-0.012L79.793,19.647z
		 M79.793,19.945v0.023l0.011-0.012L79.793,19.945z M79.839,19.578v0.023c0,0,0.023,0.057,0.023,0.069v-0.069
		c0.011,0,0.023,0,0.034-0.012c-0.012,0-0.034-0.011-0.034-0.011S79.839,19.578,79.839,19.578z M79.896,19.498v0.034
		c0,0.012,0,0.034,0.012,0.046c0-0.034,0.012-0.058,0.045-0.058c-0.012-0.011-0.023-0.011-0.034-0.011L79.896,19.498z M79.942,19.43
		v0.023c0.012,0.023,0.012,0.046,0.012,0.069c0.012-0.023,0.012-0.046,0.012-0.069l0.023-0.012c-0.012,0-0.035-0.011-0.035-0.011
		S79.942,19.43,79.942,19.43z M79.999,19.533l0.012-0.046l-0.034,0.069L79.999,19.533z M80.537,18.811l0.046-0.069h0.022
		l0.058-0.057c0.011-0.034,0.115-0.172,0.149-0.195c0.023-0.069,0.298-0.401,0.366-0.435l-0.023-0.011v-0.046
		c-0.126,0.137-0.229,0.286-0.378,0.389c0.057-0.137,0.619-0.744,0.744-0.904c-0.572,0.572-1.076,1.202-1.534,1.866v0.034
		l0.011,0.046c0.103-0.16,0.183-0.263,0.309-0.412c-0.011,0.046-0.022,0.08-0.045,0.115l0.08-0.046h0.023
		c0.046-0.057,0.091-0.115,0.115-0.183l0.034-0.023c0.012-0.023,0.023-0.046,0.046-0.058L80.537,18.811z M80.09,19.384
		c0.023-0.023,0.046-0.034,0.069-0.046v-0.012c0.011-0.011,0.023-0.057,0.023-0.08L80.09,19.384z M80.171,19.338v0.023
		c0.012-0.012,0.012-0.023,0.012-0.035L80.171,19.338z M81.087,21.216h0.011v-0.034h-0.011V21.216z M81.098,21.101l0.034,0.012
		c0.023-0.103,0.035-0.195,0.046-0.298L81.098,21.101z M82.38,17.3c-0.48,0.962-0.939,2.438-1.202,3.492
		c0.023-0.023,0.034-0.045,0.046-0.069c0.194-0.515,0.309-1.065,0.492-1.58c0.218-0.619,0.481-1.214,0.699-1.832L82.38,17.3z
		 M81.407,17.792c0.023-0.057,0.092-0.08,0.092-0.149l0.126-0.172l-0.446,0.493c0.034-0.023,0.058-0.046,0.103-0.046
		C81.327,17.872,81.35,17.827,81.407,17.792z M81.465,18.445l0.011-0.012h-0.011V18.445z M81.544,18.227
		c0,0.012-0.011,0.012-0.011,0.023h0.011V18.227z M81.591,18.079l-0.035,0.08l0.035,0.012V18.079z M81.625,18.055
		c0.103-0.229,0.229-0.458,0.344-0.687v-0.057c-0.149,0.24-0.264,0.504-0.378,0.767L81.625,18.055z M81.934,17.895
		c0.057-0.126,0.126-0.252,0.172-0.378C82.026,17.632,81.98,17.758,81.934,17.895z M82.186,17.334l-0.012-0.012v0.046L82.186,17.334
		z"/>
	<path d="M86.217,15.949c-0.264,0.321-1.283,0.412-1.695,0.481c-0.413,1.34-0.653,2.725-0.882,4.11
		c-0.115,0.733-0.207,1.489-0.207,2.233c0,0.298,0.046,0.607,0.115,0.893c0.012,0.034,0.012,0.057,0.012,0.092
		c0,0.103-0.149,0.137-0.229,0.137c-0.035,0-0.045-0.034-0.057-0.058l-0.069,0.103c-0.138-0.069-0.286-0.103-0.424-0.172
		c-0.423-0.218-0.423-0.996-0.423-1.397c0-1.202,0.16-2.427,0.343-3.618c0.046-0.275,0.07-0.561,0.127-0.836
		c0.057-0.321,0.137-0.641,0.183-0.962c0.012-0.08,0.046-0.149,0.046-0.229c0-0.057-0.103-0.057-0.137-0.057
		c-0.115,0-0.241,0.011-0.356,0.011l0.012-0.011c-0.114-0.034-0.263-0.149-0.343-0.252l0.012-0.069l-0.103-0.057
		c0.023-0.115,0.046-0.149,0.16-0.183c0.252-0.069,0.515-0.092,0.767-0.149c0.252-0.332,0.481-0.675,0.642-1.065
		c0.126-0.298,0.309-0.584,0.469-0.859c0.046-0.08,0.092-0.149,0.195-0.149l0.137,0.069l-0.08,0.183
		c0.069-0.069,0.114-0.137,0.172-0.206l0.045,0.069l0.092-0.012l-0.058,0.16l0.092-0.08l0.126,0.046v0.115l0.092-0.023
		c0.069,0.057,0.184,0.115,0.184,0.218c0,0.046-0.413,1.225-0.413,1.225c0.08-0.012,0.172,0,0.252-0.023
		c0.194-0.046,0.39-0.046,0.595-0.046c0.241,0,0.298,0.046,0.447,0.24C86.057,15.914,86.148,15.937,86.217,15.949z M82.679,21.181
		h-0.012v0.149h0.012V21.181z M82.725,20.7h-0.012v0.137h0.012V20.7z M82.885,19.567l-0.035-0.012l-0.114,0.95h0.023
		C82.793,20.197,82.84,19.876,82.885,19.567z M83.434,16.613c-0.16,0.252-0.537,2.427-0.537,2.793v0.058
		C83.057,18.514,83.194,17.552,83.434,16.613z M82.92,21.662v-0.115h-0.012v0.115H82.92z M82.92,21.376h0.011v-0.023H82.92V21.376z
		 M82.965,20.918h-0.012l-0.012,0.218h0.012L82.965,20.918z M82.999,20.643h-0.011c0,0.057-0.012,0.103-0.012,0.16h0.022
		L82.999,20.643L82.999,20.643z M83.022,20.448v0.057c0.103-0.664,0.194-1.328,0.321-1.981c0.126-0.664,0.275-1.316,0.412-1.981
		C83.549,16.807,83.022,19.979,83.022,20.448z M84.121,16.498l-0.102,0.012c-0.287,0.939-0.458,1.923-0.619,2.885
		c-0.149,0.985-0.309,1.992-0.309,2.988c0,0.172,0,0.355,0.023,0.527C83.206,20.746,83.572,18.593,84.121,16.498z M83.263,15.903
		v0.023l0.045-0.069C83.286,15.857,83.263,15.88,83.263,15.903z M83.332,21.754H83.32v0.034h0.012V21.754z M83.366,21.445v-0.058
		c-0.011,0.012-0.011,0.034-0.011,0.058H83.366z M83.412,21.067v-0.034H83.4v0.034H83.412z M83.446,20.757h-0.012v0.046h0.012
		V20.757z M83.481,20.517h-0.012v0.046L83.481,20.517z M83.514,20.346c-0.011-0.012-0.011-0.034-0.011-0.046h-0.012
		c0,0.012,0,0.034,0.012,0.046H83.514z M83.538,20.071h-0.012v0.08h0.012V20.071z M83.572,19.876H83.56v0.045h0.012V19.876z
		 M83.583,17.85v0.034h0.012V17.85H83.583z M83.606,19.738v-0.091h-0.012v0.091H83.606z M83.618,17.701c0,0.023,0,0.034-0.012,0.057
		h0.012l0.012-0.057H83.618z M83.641,19.544v-0.069h-0.023v0.069H83.641z M83.641,17.609h0.012v-0.023L83.641,17.609z
		 M83.675,19.361c0-0.023,0-0.035-0.012-0.058h-0.011v0.058H83.675z M83.675,17.437v0.034h0.012v-0.034H83.675z M83.698,19.166
		V19.12h-0.012v0.046H83.698z M83.732,19.029v-0.08h-0.011l-0.012,0.08H83.732z M83.744,17.185l-0.022,0.034h0.022V17.185z
		 M83.732,15.674l0.012-0.011C83.732,15.663,83.732,15.663,83.732,15.674z M83.767,18.857c0-0.023,0-0.045-0.012-0.069h-0.012v0.069
		H83.767z M83.755,17.082l0.012,0.011l0.023-0.046L83.755,17.082z M83.79,18.617h-0.012v0.091h0.012V18.617z M83.824,18.548v-0.08
		h-0.012L83.8,18.537C83.812,18.548,83.812,18.548,83.824,18.548z M83.812,16.911l0.023-0.057l-0.023-0.011V16.911z M83.847,18.319
		h-0.012v0.08h0.012V18.319z M83.847,16.739v0.023c0.012-0.011,0.012-0.011,0.012-0.023H83.847z M83.881,18.239V18.17H83.87v0.069
		H83.881z M83.916,18.033l-0.023,0.057l0.023,0.012V18.033z M83.961,17.895c-0.022,0-0.045,0.023-0.045,0.046
		c0,0.023,0.012,0.034,0.012,0.058L83.961,17.895z M83.949,17.827c0,0.023,0.012,0.034,0.012,0.057l0.035-0.115
		C83.973,17.781,83.949,17.792,83.949,17.827z M83.984,15.789c0.092-0.092,0.103-0.218,0.126-0.332
		C84.019,15.548,84.007,15.674,83.984,15.789z M83.996,17.758c0-0.035,0.012-0.069,0.012-0.103h-0.023
		C83.984,17.689,83.984,17.723,83.996,17.758z M84.03,17.586v-0.057c-0.011,0.023-0.022,0.034-0.022,0.057H84.03z M84.041,17.46
		c-0.012,0.011-0.012,0.023-0.012,0.034l0.012-0.011V17.46z M84.064,17.38l0.012-0.034C84.064,17.357,84.064,17.369,84.064,17.38z
		 M84.098,17.243l-0.011,0.011c0,0.034-0.012,0.057-0.012,0.092l0.022-0.092L84.098,17.243L84.098,17.243z M84.156,17.06
		c-0.058,0.046-0.058,0.114-0.058,0.183C84.121,17.185,84.145,17.117,84.156,17.06z M84.121,15.434
		c-0.012,0.011-0.012,0.011-0.012,0.023C84.11,15.445,84.121,15.445,84.121,15.434z M84.213,16.853
		c-0.035,0.034-0.057,0.08-0.057,0.126c0,0.023,0,0.046,0.011,0.069C84.179,16.979,84.19,16.922,84.213,16.853z M84.156,17.06h0.011
		v-0.012L84.156,17.06z M84.179,14.609c0.012-0.011,0.012-0.011,0.012-0.023C84.19,14.598,84.179,14.598,84.179,14.609z
		 M84.213,14.506l-0.023,0.057C84.202,14.552,84.213,14.529,84.213,14.506z M84.237,14.461l-0.023,0.046
		C84.225,14.495,84.237,14.472,84.237,14.461z M84.213,16.807l0.034-0.08v-0.046C84.225,16.727,84.225,16.762,84.213,16.807z
		 M84.305,16.521v-0.046l-0.046,0.126C84.294,16.59,84.305,16.556,84.305,16.521z M84.717,14.747
		c-0.035,0.057-0.08,0.103-0.114,0.149c-0.058,0.103-0.321,0.756-0.321,0.847h0.023c0.057,0,0.08-0.046,0.091-0.092
		C84.511,15.354,84.603,15.056,84.717,14.747z M84.351,14.3c-0.012,0.012-0.023,0.035-0.023,0.046
		C84.339,14.335,84.351,14.312,84.351,14.3z M84.339,14.85l0.035-0.023h-0.035V14.85z M84.408,14.174
		c-0.022,0.046-0.045,0.08-0.057,0.126l0.057-0.103V14.174z"/>
	<path d="M87.683,19.017c-0.171,0.939-0.423,1.901-0.423,2.862c0,0.149,0.012,0.298,0.057,0.447c0,0.011,0.012,0.023,0.012,0.034
		c0,0.023-0.012,0.045-0.012,0.069c-0.045,0.012-0.091,0.012-0.137,0.012c-0.32,0-0.641-0.263-0.676-0.584
		c-0.011-0.137-0.011-0.286-0.011-0.423c0-0.263,0-0.527,0.034-0.79c0.126-1.03,0.241-1.958,0.538-2.954l-0.023-0.023l-0.355,0.298
		c-0.206,0.183-0.447,0.526-0.584,0.767c-0.423,0.721-0.733,1.488-0.893,2.313c-0.012,0.069-0.023,0.126-0.045,0.194
		c-0.79-0.08-0.859-0.595-0.859-1.271c0-1.202,0.276-2.393,0.538-3.561c0.103-0.469,0.206-0.95,0.355-1.408
		c0.137-0.435,0.321-0.87,0.493-1.294c0.045-0.103,0.079-0.229,0.16-0.321c0.069,0.046,0.103,0.069,0.184,0.069
		c0.102,0,0.263,0.137,0.343,0.206s0.092,0.103,0.103,0.206v0.092c0,0.435-0.298,1.294-0.423,1.752
		c-0.16,0.618-0.321,1.225-0.47,1.843c-0.057,0.24-0.252,0.904-0.252,1.111c0,0.011,0.012,0.034,0.012,0.045
		c0.447-0.687,0.779-1.053,1.465-1.511c0.092-0.057,0.16-0.092,0.264-0.092c0.218,0,0.435,0.138,0.595,0.263
		c0.16,0.126,0.217,0.229,0.217,0.435C87.89,18.204,87.751,18.628,87.683,19.017z M84.844,17.472h-0.012v0.023h0.012V17.472z
		 M84.878,17.311l-0.035,0.057l0.023,0.011C84.867,17.357,84.878,17.334,84.878,17.311z M84.89,17.243h-0.012V17.3
		C84.89,17.277,84.89,17.266,84.89,17.243z M84.901,17.14h0.023c-0.012-0.011-0.012-0.034-0.012-0.057
		C84.901,17.105,84.901,17.117,84.901,17.14z M84.924,19.636c0-0.023-0.012-0.034-0.012-0.057C84.9,19.602,84.9,19.613,84.9,19.636
		H84.924z M84.947,19.326c-0.012,0.046-0.023,0.092-0.023,0.138h0.023V19.326z M84.947,19.315c0.114-0.355,0.183-0.939,0.263-1.328
		c0.252-1.191,0.595-2.37,0.905-3.549l-0.023,0.011c-0.16,0.515-0.332,1.019-0.469,1.534c-0.16,0.607-0.298,1.213-0.424,1.82
		C85.096,18.307,84.992,18.811,84.947,19.315z M84.981,16.807h0.012v-0.046C84.981,16.773,84.981,16.796,84.981,16.807z
		 M84.992,16.75c0.012-0.012,0.023-0.034,0.023-0.046l-0.023-0.011V16.75z M85.027,16.59l0.022,0.012
		c0-0.057,0.012-0.126,0.012-0.183l0.023-0.012c0.045-0.16,0.08-0.309,0.114-0.469c-0.069,0.149-0.102,0.32-0.137,0.481
		L85.027,16.59z M85.073,17.369v0.046h0.012v-0.046H85.073z M85.153,17.048c0,0.023-0.012,0.046-0.012,0.069l-0.023,0.08h0.023
		l0.035-0.137L85.153,17.048z M85.897,18.697c-0.264,0.263-0.664,1.271-0.744,1.649c-0.012,0.034,0,0.08-0.012,0.115
		c0.035-0.035,0.045-0.069,0.057-0.103c0.127-0.366,0.241-0.733,0.413-1.088l0.286-0.55V18.697z M85.176,16.956
		c0,0.012,0,0.012,0.011,0.023v-0.023H85.176z M85.176,19.841h0.011V19.83L85.176,19.841z M85.198,16.865l0.023,0.012
		c-0.012-0.023-0.012-0.046-0.012-0.069C85.198,16.83,85.198,16.842,85.198,16.865z M85.233,19.269h0.023l0.102-0.218L85.233,19.269
		z M85.29,16.51c0.057-0.069,0.252-0.916,0.275-1.065l0.023-0.069L85.6,15.33c-0.012,0.011-0.012,0.034-0.012,0.046
		c-0.012,0.023-0.023,0.046-0.023,0.069C85.462,15.8,85.359,16.155,85.29,16.51z M85.439,19.911l-0.012-0.012v0.012H85.439z
		 M85.439,14.999c0.012,0,0.012,0,0.023-0.011v-0.012L85.439,14.999z M85.496,14.827h0.012v-0.012L85.496,14.827z M85.531,19.636
		h-0.012l0.012,0.012V19.636z M85.611,18.914c0-0.012,0-0.012,0.012-0.023h-0.012V18.914z M85.623,15.262l0.011-0.034h-0.011V15.262
		z M85.633,16.727l-0.011,0.011h0.011V16.727z M85.645,15.159h0.012v-0.023h-0.012V15.159z M85.668,15.056h0.012v-0.011
		L85.668,15.056z M85.76,16.258h-0.012v0.023C85.748,16.269,85.748,16.269,85.76,16.258z M85.886,15.812h-0.012v0.011L85.886,15.812
		z M85.931,15.628H85.92v0.011L85.931,15.628z M85.954,18.605c-0.012,0.023-0.035,0.046-0.035,0.069
		C85.931,18.651,85.954,18.628,85.954,18.605z M85.954,15.548c-0.012,0-0.012,0-0.012,0.012h0.012V15.548z M86.115,14.426
		c0.034-0.069,0.069-0.137,0.069-0.218l-0.023-0.011C86.137,14.277,86.126,14.346,86.115,14.426z M86.195,14.117h0.012
		c0-0.011,0-0.034-0.012-0.046l0.034-0.046l-0.012-0.011c0,0.023-0.011,0.034-0.022,0.057
		C86.195,14.071,86.195,14.117,86.195,14.117z M87.145,20.483h-0.012v0.046l0.012-0.012V20.483z M87.191,20.139h-0.012
		c0,0.012,0.012,0.012,0.012,0.023V20.139z M87.248,19.773l-0.022,0.08h0.022V19.773z M87.603,18.055
		c-0.148,0.515-0.24,1.03-0.332,1.557c0.08-0.183,0.103-0.424,0.149-0.607C87.488,18.685,87.557,18.376,87.603,18.055z
		 M87.626,17.964h-0.023v0.057L87.626,17.964z"/>
</g>
<g>
	<path d="M84.773,48.333l-0.091,0.481c-0.034,0.149-0.069,0.298-0.092,0.447c-0.08,0.412-0.115,0.836-0.149,1.248
		c-0.045,0.504-0.08,0.996-0.137,1.5c-0.046,0.481-0.103,0.973-0.195,1.442c-0.206,1.065-0.687,2.439-1.523,3.183
		c-0.218,0.195-0.481,0.355-0.779,0.355c-0.24,0-0.492-0.103-0.687-0.229c-0.298-0.195-0.366-0.515-0.366-0.847
		c0-0.252,0.023-0.538,0.091-0.779c0.115-0.412,0.836-2.278,1.306-2.278c0.103,0,0.343,0.126,0.423,0.194
		c-0.332,0.206-0.481,0.538-0.63,0.882c-0.229,0.515-0.412,0.939-0.526,1.489c0,0.011-0.012,0.023-0.012,0.034
		c-0.034,0.148-0.057,0.286-0.057,0.435c0,0.252,0.103,0.423,0.16,0.653l0.252-0.206c0.321-0.275,0.607-0.847,0.768-1.225
		c0.526-1.236,0.675-2.542,0.904-3.847c0.046-0.24,0.069-0.481,0.069-0.721c-0.217,0.355-0.95,1.465-1.385,1.465
		c-0.08,0-0.103-0.023-0.172-0.058l-0.114-0.057c-0.366-0.183-0.63-0.321-0.63-0.825c0-0.469,0.217-1.053,0.355-1.511
		c0.115-0.378,0.286-0.802,0.286-1.202c0-0.138-0.034-0.287-0.034-0.424c0.527,0.103,0.744,0.698,0.744,1.179
		c0,0.664-0.218,1.282-0.366,1.923v0.126c0.721-0.767,1.225-1.626,1.66-2.565c0.091-0.206,0.229-0.435,0.377-0.607l0.138-0.126
		l0.023,0.183c-0.034,0.012-0.034,0.023-0.034,0.046c0.012-0.034,0.023-0.034,0.034-0.046c0.034-0.012,0.08-0.023,0.103-0.057
		C84.579,48.104,84.682,48.207,84.773,48.333z M80.961,55.328c0-0.012,0-0.034-0.011-0.046v0.08
		C80.961,55.351,80.961,55.34,80.961,55.328z M80.984,55.157c0-0.012-0.012-0.012-0.012-0.034v0.069
		C80.972,55.179,80.984,55.168,80.984,55.157z M81.11,54.825c0,0.011-0.023,0.034-0.034,0.069c-0.023,0-0.023,0.023-0.023,0.046
		c0.023-0.012,0.023-0.023,0.023-0.046h0.012C81.098,54.87,81.11,54.847,81.11,54.825z M81.121,54.779c0-0.046,0-0.057-0.012-0.069
		C81.11,54.733,81.11,54.756,81.121,54.779z M81.178,54.595l-0.011,0.057C81.178,54.641,81.178,54.618,81.178,54.595z
		 M81.201,54.492l-0.011,0.092C81.201,54.55,81.201,54.515,81.201,54.492z M81.293,54.344c0.012-0.023,0.012-0.034,0.012-0.058
		c-0.012,0.023-0.034,0.069-0.057,0.103L81.293,54.344z M81.27,55.236c0-0.011-0.012-0.023-0.012-0.034v0.046
		C81.27,55.236,81.27,55.236,81.27,55.236z M81.304,54.263c0.034-0.069,0.091-0.126,0.137-0.195
		C81.316,54.092,81.304,54.149,81.304,54.263z M81.339,54.973c0-0.012-0.012-0.034-0.012-0.058
		c-0.011,0.023-0.023,0.058-0.023,0.092C81.327,55.008,81.339,54.996,81.339,54.973z M81.442,54c0-0.023,0.012-0.045,0.012-0.057
		c0.012-0.023,0.023-0.058,0.023-0.08c-0.011,0.023-0.023,0.046-0.023,0.08C81.442,53.955,81.442,53.977,81.442,54z M81.453,54.641
		c-0.012,0.011-0.012,0.034-0.012,0.046C81.453,54.676,81.453,54.652,81.453,54.641z M81.533,54.39l-0.023,0.057
		c0,0.034-0.011,0.08-0.045,0.149l0.034-0.034L81.533,54.39z M81.488,53.851c0.012,0,0.034,0,0.046-0.011
		C81.522,53.84,81.499,53.84,81.488,53.851z M81.522,53.782c0,0.012,0,0.034,0.012,0.046l0.069-0.126
		C81.556,53.702,81.522,53.725,81.522,53.782z M81.59,54.309c0,0-0.012,0-0.023,0.012L81.59,54.309z M81.659,53.542
		c0.023,0,0.034-0.012,0.058-0.012l0.023-0.08C81.705,53.485,81.705,53.508,81.659,53.542z M81.682,54.137
		c0-0.011-0.012-0.023-0.012-0.034v0.046C81.682,54.137,81.682,54.137,81.682,54.137z M81.797,53.336l0.011-0.034
		C81.797,53.313,81.797,53.325,81.797,53.336z M81.808,53.267c0,0,0.012,0,0.023-0.011c0-0.012,0.011-0.023,0.023-0.023
		c-0.012,0-0.034,0.012-0.046,0.023C81.808,53.267,81.808,53.267,81.808,53.267z M81.934,53.577c0.034,0,0.034-0.023,0.057-0.023
		c0-0.034,0.023-0.057,0.023-0.091l-0.034,0.08C81.968,53.553,81.945,53.553,81.934,53.577z M82.128,53.256
		c0.012,0,0.023,0.011,0.023,0.023c0-0.034,0.012-0.046,0.012-0.046C82.152,53.233,82.14,53.233,82.128,53.256z M82.575,50.989
		c-0.011,0.012-0.023,0.023-0.023,0.035L82.575,50.989z M82.724,51.332c-0.011,0.012-0.034,0.012-0.057,0.023
		C82.69,51.355,82.701,51.355,82.724,51.332z M82.724,55.248c-0.011,0.012-0.023,0.012-0.023,0.046l0.012-0.012
		C82.713,55.271,82.713,55.26,82.724,55.248z M82.93,51.012c-0.012,0.034-0.023,0.057-0.115,0.137c0,0-0.023,0.012-0.034,0.046
		c0-0.012,0.034-0.034,0.045-0.046c0.012,0,0.034,0,0.046-0.012l0.034-0.034C82.919,51.081,82.93,51.035,82.93,51.012z
		 M82.873,50.577l0.012-0.046C82.873,50.543,82.873,50.565,82.873,50.577z M82.953,54.71c-0.023,0.034-0.069,0.103-0.08,0.172
		C82.907,54.825,82.93,54.767,82.953,54.71z M83.068,50.291l0.046-0.023c-0.012,0-0.034,0-0.046,0.012l-0.023,0.08L83,50.383
		c-0.034,0.034-0.046,0.08-0.058,0.126c0.012-0.046,0.069-0.138,0.115-0.138C83.056,50.348,83.068,50.313,83.068,50.291z
		 M83.09,54.195l-0.115,0.378c-0.011,0.011-0.023,0.034-0.023,0.057c0-0.023,0.012-0.034,0.023-0.046l0.034-0.011
		C83.044,54.447,83.068,54.321,83.09,54.195z M83.01,55.58c-0.011,0.023-0.011,0.046-0.011,0.069
		C83.01,55.626,83.01,55.603,83.01,55.58z M83.033,50.863c-0.012,0.023-0.012,0.046-0.012,0.057
		C83.022,50.909,83.033,50.886,83.033,50.863z M83.125,50.806c-0.023,0-0.034,0.023-0.045,0.034
		C83.102,50.829,83.113,50.829,83.125,50.806z M83.754,53.599c-0.069,0.103-0.423,1.271-0.515,1.511
		c-0.046,0.103-0.08,0.217-0.137,0.32C83.376,55.282,83.697,53.851,83.754,53.599z M83.228,50.073l0.035-0.023
		c-0.012,0.012-0.035,0.012-0.058,0.023c0,0.023-0.012,0.058-0.012,0.08c-0.023,0-0.045,0.012-0.069,0.012
		c-0.011,0.023-0.011,0.046-0.011,0.069c0-0.012,0.011-0.034,0.011-0.057c0.023-0.012,0.058-0.012,0.069-0.023
		C83.205,50.13,83.205,50.096,83.228,50.073z M83.205,50.691l-0.057,0.023c-0.012,0.023-0.023,0.057-0.023,0.08
		c0-0.012,0.023-0.034,0.023-0.069C83.159,50.714,83.193,50.714,83.205,50.691z M83.159,54c0,0.012,0,0.023,0.012,0.034
		c0.012-0.023,0.012-0.045,0.012-0.069C83.159,53.989,83.159,53.989,83.159,54z M83.205,53.874c0,0.011,0,0.011,0.012,0.011V53.84
		C83.216,53.851,83.205,53.874,83.205,53.874z M83.308,50.508c0,0.011-0.011,0.023-0.011,0.045c-0.046,0-0.046,0.012-0.046,0.023
		v0.011c0.012-0.023,0.034-0.023,0.046-0.034L83.308,50.508z M83.422,49.833c-0.046,0-0.057,0.023-0.069,0.034
		c-0.012,0.023-0.012,0.034-0.046,0.069c0.012,0,0.023,0,0.034,0c0-0.023,0.012-0.046,0.012-0.069
		C83.376,49.855,83.411,49.855,83.422,49.833z M83.308,54.332l0.034-0.046v-0.057C83.331,54.241,83.331,54.263,83.308,54.332z
		 M83.411,50.359c-0.034,0.023-0.034,0.045-0.045,0.069C83.411,50.405,83.411,50.382,83.411,50.359z M83.468,49.684
		c0.012-0.023,0.012-0.034,0.046-0.069l-0.069,0.057c0,0.023-0.012,0.058-0.012,0.08L83.468,49.684z M83.537,50.165l0.012-0.012
		l0.023-0.08c-0.012,0.023-0.023,0.046-0.023,0.08l-0.058,0.012v0.034C83.503,50.187,83.514,50.176,83.537,50.165z M83.537,49.581
		c0.012-0.034,0.012-0.058,0.034-0.092v-0.045l-0.023,0.045C83.548,49.523,83.537,49.546,83.537,49.581z M83.617,49.374l0.069-0.045
		C83.651,49.34,83.629,49.363,83.617,49.374z M83.686,49.317c0.012-0.046,0.034-0.103,0.069-0.126c0-0.035,0.012-0.069,0.012-0.103
		C83.766,49.168,83.686,49.226,83.686,49.317z M83.8,53.462c-0.034,0-0.058,0.012-0.058,0.046c0,0.023,0.012,0.045,0.012,0.069
		C83.766,53.531,83.777,53.496,83.8,53.462z M83.8,53.45l-0.023-0.115C83.777,53.37,83.777,53.416,83.8,53.45z"/>
	<path d="M85.587,50.588c-0.046,0.092-0.034,0.287-0.034,0.378c0,0.115,0.034,0.55,0.194,0.55c0.241,0,0.424-0.16,0.504-0.366
		l0.011-0.012v0.034c0,0.103-0.091,0.183-0.126,0.275c0.126-0.057,0.149-0.172,0.218-0.275c0.012,0.023,0.023,0.046,0.023,0.058
		c0,0.08-0.069,0.126-0.08,0.195l0.08,0.011l-0.011,0.034l0.023,0.012V51.47h0.034l-0.012-0.023h0.012l0.012-0.046h0.011
		l0.023-0.046v0.046c0.034-0.034,0.046-0.069,0.046-0.115l0.045-0.057c-0.023,0.332-0.332,0.55-0.653,0.55
		c-0.698,0-1.111-0.481-1.111-1.157c0-0.55,0.229-1.099,0.55-1.545c0.252-0.355,0.607-0.55,1.042-0.55
		c0.103,0,0.206,0.023,0.309,0.046l-0.229-0.424l0.091-0.023c0.458,0.149,0.767,0.526,0.767,1.03
		C87.327,49.993,86.343,50.588,85.587,50.588z M85.221,49.695c-0.012,0-0.012,0-0.012,0.011h0.012V49.695z M85.278,49.523
		l-0.034,0.058l0.023,0.012L85.278,49.523z M85.289,49.501l-0.012,0.012h0.012V49.501z M85.473,49.192l0.034-0.012
		C85.495,49.18,85.484,49.18,85.473,49.192l-0.057,0.091l-0.023,0.034v0.012c-0.023,0.034-0.057,0.069-0.08,0.115
		c0.058-0.023,0.069-0.069,0.08-0.115l0.023-0.046l0.045-0.034C85.461,49.226,85.473,49.214,85.473,49.192z M85.438,50.05
		c-0.012,0.012-0.012,0.034-0.012,0.057h0.012V50.05z M85.862,49.26c-0.16,0.16-0.377,0.48-0.377,0.721
		C85.564,49.73,85.759,49.512,85.862,49.26z M85.484,49.558v0.011c0-0.011,0-0.011,0-0.023V49.558z M85.53,49.455
		c0.012-0.011,0.012-0.023,0.012-0.045C85.53,49.432,85.53,49.443,85.53,49.455z M85.576,49.386h0.012
		c0.012-0.012,0.023-0.034,0.023-0.046C85.599,49.352,85.587,49.386,85.576,49.386z M85.702,50.13
		c0.412-0.046,1.019-0.721,1.019-1.133v-0.046C86.205,49.066,85.793,49.627,85.702,50.13z M85.873,49.249l0.046-0.023v-0.012
		l-0.012,0.012C85.885,49.226,85.885,49.237,85.873,49.249z M86.652,49.581c-0.012,0.012-0.012,0.034-0.012,0.046l-0.034,0.023
		l0.034-0.012v-0.011L86.652,49.581z M86.732,49.455l-0.023,0.046v0.012C86.721,49.489,86.732,49.478,86.732,49.455z M86.767,49.386
		c0.011,0,0.023-0.012,0.023-0.023h-0.023V49.386z M86.812,49.844c0.012-0.012,0.023-0.012,0.023-0.023L86.812,49.844z
		 M86.835,49.581h0.011l0.012-0.034L86.835,49.581z M86.881,49.81c-0.012,0-0.023,0-0.035,0.011
		C86.858,49.821,86.87,49.821,86.881,49.81z M86.881,49.798c0.114-0.115,0.183-0.263,0.229-0.412
		C87.064,49.466,86.881,49.73,86.881,49.798z"/>
	<path d="M90.774,50.485c-0.252,0.595-0.813,1.614-1.317,2.015c-0.252-0.091-0.435-0.115-0.435-0.435
		c0-0.618,0.138-1.225,0.263-1.832l-0.389,0.401c-0.241,0.252-0.573,0.733-0.973,0.733c-0.286,0-0.71-0.263-0.71-0.584
		c0-0.676,0.721-1.901,1.271-2.29c0.229-0.16,0.515-0.32,0.801-0.32s0.527,0.16,0.733,0.355c0.023,0.023,0.046,0.057,0.046,0.091
		c0,0.023-0.012,0.046-0.023,0.069l-0.332-0.091c-0.825,0.286-1.237,1.214-1.569,1.958l0.023,0.023l0.183-0.138l1.099-0.985
		c0.206-0.183,0.24-0.423,0.504-0.526l0.012,0.115l-0.034,0.01c-0.023,0.046,0,0.034-0.046,0.08l0.034-0.012l0.012-0.057
		l0.034-0.023c0.011-0.023,0.034-0.046,0.069-0.046c0.023,0,0.046,0.023,0.057,0.034l-0.011,0.08l0.045-0.023v-0.011l0.058,0.023
		c-0.092,0.286-0.195,0.561-0.298,0.836l-0.012,0.012c0.012,0,0.012,0,0.012-0.012c0.012-0.011,0.034-0.023,0.034-0.046
		c0.115-0.252,0.206-0.515,0.332-0.755c0.057,0.012,0.103,0.046,0.103,0.103c0,0.08-0.034,0.16-0.057,0.229
		c-0.149,0.412-0.653,1.832-0.653,2.198c0.148-0.092,0.263-0.252,0.377-0.378h0.023c-0.149,0.218-0.355,0.401-0.458,0.641H89.57
		v0.011c0.012,0,0.012,0,0.012-0.011c0.206-0.206,0.389-0.458,0.572-0.687c0.046-0.058,0.092-0.149,0.149-0.206l0.058-0.057
		c-0.241,0.412-0.618,0.79-0.825,1.214l0.366-0.424l-0.103,0.195l0.08-0.058l0.012,0.046c0.011-0.057,0.069-0.126,0.103-0.183h0.012
		v-0.011l-0.012,0.011h-0.023c0.035-0.091,0.046-0.149,0.126-0.206v0.046l0.023-0.046l0.034-0.023l0.023-0.045
		c0.023-0.092,0.115-0.16,0.149-0.252c0.023-0.058,0.069-0.115,0.103-0.172h-0.012l0.023-0.045h-0.012l0.069-0.126l0.012,0.046
		c0.011-0.058,0.046-0.103,0.069-0.149h-0.012l0.034-0.023c0.023-0.034,0.034-0.069,0.046-0.103v0.012
		C90.683,50.611,90.729,50.554,90.774,50.485z M87.591,50.119c0,0.012-0.011,0.023-0.011,0.034h0.011V50.119z M87.66,49.981
		c0.149-0.252,0.286-0.527,0.446-0.767c0.034-0.046,0.138-0.172,0.138-0.229l-0.023,0.046c-0.16,0.16-0.515,0.779-0.595,0.996
		c-0.012,0.011-0.023,0.034-0.023,0.057l0.023-0.057C87.637,50.016,87.66,50.004,87.66,49.981z M87.774,50.211l0.035-0.08
		c-0.023,0.012-0.023,0.057-0.046,0.08H87.774z M87.798,50.749c-0.012,0.012-0.012,0.034-0.012,0.046h0.012V50.749z M88.748,49.008
		c-0.298,0.184-0.733,0.996-0.847,1.328c-0.046,0.126-0.069,0.263-0.103,0.39c0.023-0.023,0.034-0.046,0.046-0.08
		C88.061,50.073,88.359,49.478,88.748,49.008z M87.843,50.027c0.114-0.218,0.252-0.412,0.377-0.618v-0.023
		C88.072,49.592,87.946,49.787,87.843,50.027z M88.278,48.951l0.034-0.023H88.3L88.278,48.951z M88.336,49.226h0.023v-0.012
		C88.347,49.226,88.347,49.226,88.336,49.226z M88.393,49.146h0.011v-0.012C88.393,49.134,88.393,49.134,88.393,49.146z
		 M89.538,51.184h0.012v-0.023h-0.012V51.184z M89.584,52.26c-0.012,0-0.023,0.011-0.023,0.023L89.584,52.26z M89.584,50.954
		l0.012,0.023v-0.034L89.584,50.954z M89.675,52.145l-0.08,0.103C89.629,52.214,89.675,52.202,89.675,52.145z M89.641,50.76h0.011
		v-0.058C89.641,50.726,89.641,50.737,89.641,50.76z M89.652,50.657l0.023-0.046h-0.012L89.652,50.657z M89.675,50.6
		c0.057-0.069,0.069-0.149,0.08-0.229C89.721,50.451,89.698,50.519,89.675,50.6z M89.698,52.18c-0.012,0-0.012,0.012-0.023,0.012
		C89.686,52.191,89.698,52.191,89.698,52.18z M89.744,52.099c0-0.023,0.011-0.046,0.011-0.069l-0.069,0.103L89.744,52.099z
		 M89.744,49.374l0.091-0.172C89.801,49.237,89.755,49.317,89.744,49.374z M89.767,52.077l-0.012,0.011
		C89.767,52.088,89.767,52.088,89.767,52.077z M89.778,50.279c-0.012,0.012-0.012,0.023-0.012,0.034L89.778,50.279z M89.813,52.065
		c-0.012,0-0.012,0.012-0.023,0.012h0.023V52.065z M89.813,50.165c-0.012,0.012-0.012,0.034-0.012,0.057l0.012-0.023V50.165z
		 M89.893,51.962h-0.012l-0.034,0.023h0.012L89.893,51.962z M89.927,49.352c0,0,0.011,0.023,0.011,0.034l0.046-0.091
		C89.95,49.306,89.927,49.317,89.927,49.352z M89.984,49.283c0.012-0.023,0.012-0.034,0.012-0.057
		C89.984,49.249,89.984,49.26,89.984,49.283z M90.099,51.619c-0.012,0.012-0.012,0.034-0.012,0.046
		C90.099,51.653,90.099,51.63,90.099,51.619z"/>
	<path d="M90.523,51.264c-0.137,0.183-0.286,0.366-0.493,0.481l-0.401-0.137l0.023-0.035c0.194-0.194,0.343-0.401,0.492-0.629
		c0.573-0.916,0.95-1.889,1.145-2.954c-0.435-0.298-1.042-0.63-1.042-1.237c0-0.309,0.275-0.687,0.607-0.687
		c0.103,0,0.195,0.023,0.286,0.069c0.378,0.16,0.607,0.515,0.653,0.916c0.023,0.252,0.058,0.504,0.069,0.756
		c0.39,0.229,0.813,0.458,1.145,0.767c0.183,0.172,0.275,0.366,0.275,0.618c0,0.343-0.217,0.915-0.332,1.259
		c-0.206,0.607-0.573,1.557-0.573,2.187c0,0.149,0.023,0.309,0.08,0.447l0.32,0.08l-0.011,0.092l0.011,0.011l0.058-0.069h0.091
		c0.023,0.046,0.034,0.092,0.034,0.137c0,0.218-0.343,0.287-0.515,0.287c-0.744,0-1.042-0.802-1.042-1.431
		c0-0.767,0.481-2.015,0.755-2.748c0.069-0.172,0.195-0.538,0.195-0.71c0-0.275-0.32-0.389-0.527-0.481
		C91.691,49.374,91.176,50.359,90.523,51.264z M90.466,46.512l0.023,0.023c0.012-0.046,0.023-0.092,0.046-0.126L90.466,46.512z
		 M90.535,50.978l-0.012,0.011h0.012V50.978z M90.614,50.382c0.058-0.034,0.08-0.115,0.092-0.183L90.614,50.382z M90.832,46.524
		c-0.035,0.034-0.069,0.08-0.069,0.137c0,0.023,0,0.034,0.012,0.057C90.798,46.661,90.809,46.593,90.832,46.524z M91.302,47.383
		c0-0.218-0.058-0.71-0.183-0.87c-0.115,0.103-0.183,0.24-0.183,0.389c0,0.241,0.149,0.515,0.355,0.63
		C91.29,47.485,91.302,47.428,91.302,47.383z M91.565,48.653c-0.172,0.561-0.366,1.099-0.607,1.638
		c0.241-0.263,0.595-1.328,0.641-1.695C91.576,48.608,91.576,48.63,91.565,48.653z M91.027,49.489
		c0.058-0.115,0.103-0.218,0.126-0.332l-0.023,0.012L91.027,49.489z M91.187,48.985c-0.034,0.046-0.046,0.103-0.034,0.149
		L91.187,48.985z M91.21,48.928c0.012-0.012,0.012-0.023,0.012-0.034L91.21,48.928z M91.233,48.836c0,0.012,0,0.034-0.012,0.046
		c0.012-0.012,0.023-0.034,0.023-0.046H91.233z M91.267,48.699l0.034-0.046H91.29L91.267,48.699z M91.325,48.562l-0.012-0.023v0.034
		L91.325,48.562z M91.622,48.47H91.61v0.046h0.012V48.47z M91.645,48.344h-0.011v0.034h0.011V48.344z M92.309,49.73l-0.55,1.671
		l-0.126,0.458c0.103-0.206,0.172-0.447,0.24-0.676c0.195-0.607,0.412-1.202,0.584-1.82C92.378,49.455,92.343,49.615,92.309,49.73z
		 M91.897,52.077c0-0.023-0.011-0.034-0.011-0.058c-0.012,0.023-0.012,0.034-0.012,0.058H91.897z M92.63,49.558l-0.561,1.648
		c-0.08,0.252-0.115,0.527-0.172,0.779l0.023-0.023c0.103-0.344,0.183-0.698,0.298-1.042c0.149-0.458,0.366-0.916,0.447-1.397
		L92.63,49.558z M92.16,52.054c0.115-0.572,0.321-1.133,0.515-1.694c0.115-0.344,0.263-0.698,0.298-1.065H92.95
		c-0.275,0.767-0.527,1.557-0.767,2.336c-0.069,0.229-0.115,0.458-0.115,0.698c0,0.069,0,0.137,0.011,0.206
		C92.115,52.374,92.126,52.214,92.16,52.054z M92.138,51.516v-0.012l-0.012,0.012H92.138z M92.252,51.103l0.011-0.011h-0.011V51.103
		z M92.275,51.012l0.012,0.012v-0.012H92.275z M92.286,52.111h-0.012c0,0.012,0,0.012,0.012,0.023V52.111z M92.298,50.943
		l0.011,0.011v-0.011H92.298z M92.309,51.997h-0.011v0.023h0.011V51.997z M92.378,51.745h0.012v-0.034h-0.012V51.745z
		 M92.412,51.607h-0.011v0.034h0.011V51.607z M92.458,50.485l-0.012,0.012h0.012V50.485z M92.458,51.459
		c-0.012,0-0.012,0.011-0.012,0.023h0.012V51.459z M92.47,49.295v0.045c0.012-0.011,0.012-0.034,0.012-0.045H92.47z M92.481,51.378
		l-0.012,0.012h0.012V51.378z M92.492,51.298l0.023,0.012c0-0.012,0-0.023-0.012-0.034L92.492,51.298z M92.538,51.195h-0.012v0.034
		h0.012V51.195z M92.607,50.978h-0.012c0,0.011,0,0.011,0.012,0.011V50.978z M92.63,49.993l-0.011,0.011h0.011V49.993z
		 M92.63,50.909c-0.011,0-0.011,0-0.011,0.011L92.63,50.909z M92.687,49.466h-0.023V49.5L92.687,49.466z M92.675,50.771l0.012-0.011
		h-0.012V50.771z M92.699,50.703c0.011,0,0.011-0.011,0.011-0.023h-0.011V50.703z M92.721,50.622h0.012v-0.023h-0.012V50.622z
		 M92.859,50.256h-0.011v0.023h0.011V50.256z M92.87,50.199h0.012v-0.012H92.87V50.199z M92.893,50.107l0.012,0.012v-0.012H92.893z
		 M93.053,49.661v-0.012l-0.012,0.012H93.053z"/>
</g>
<g>
	<path d="M76.562,54.201h-1.079l3.503-10.333h1.079L76.562,54.201z"/>
</g>
<g>
	<path d="M42.209,30.07h-1.314v-0.277h1.314V30.07z"/>
	<path d="M43.982,30.166c0-0.286,0.055-0.542,0.166-0.771c0.11-0.229,0.267-0.406,0.469-0.534c0.202-0.127,0.431-0.19,0.688-0.19
		c0.395,0,0.715,0.138,0.96,0.416s0.368,0.645,0.368,1.102v0.068c0,0.287-0.055,0.546-0.166,0.775s-0.267,0.406-0.468,0.531
		c-0.202,0.124-0.431,0.187-0.689,0.187c-0.394,0-0.713-0.139-0.959-0.416s-0.369-0.644-0.369-1.102
		C43.982,30.232,43.982,30.166,43.982,30.166z M44.312,30.256c0,0.355,0.092,0.646,0.276,0.874c0.184,0.229,0.425,0.342,0.723,0.342
		c0.296,0,0.537-0.113,0.72-0.342c0.184-0.227,0.276-0.528,0.276-0.901v-0.063c0-0.227-0.042-0.435-0.126-0.623
		s-0.202-0.334-0.354-0.438c-0.152-0.103-0.326-0.155-0.521-0.155c-0.293,0-0.532,0.115-0.716,0.344
		c-0.185,0.229-0.277,0.53-0.277,0.901v0.061H44.312z"/>
	<path d="M48.684,29.005c-0.07-0.013-0.144-0.019-0.222-0.019c-0.205,0-0.378,0.057-0.52,0.171c-0.142,0.114-0.243,0.28-0.303,0.498
		v2.039h-0.327v-2.969h0.321l0.006,0.472c0.173-0.352,0.453-0.527,0.837-0.527c0.091,0,0.164,0.012,0.217,0.036L48.684,29.005z"/>
	<path d="M51.59,30.07h-1.315v-0.277h1.315V30.07z"/>
</g>
</svg>
