<?xml version="1.0" encoding="utf-8"?>
<!-- Generator: Adobe Illustrator 21.1.0, SVG Export Plug-In . SVG Version: 6.00 Build 0)  -->
<svg version="1.1" id="Layer_1" xmlns="http://www.w3.org/2000/svg" xmlns:xlink="http://www.w3.org/1999/xlink" x="0px" y="0px"
	 viewBox="0 0 100 30" style="enable-background:new 0 0 100 30;" xml:space="preserve">
<g>
	<path d="M33.838,18.318c0-0.836-0.271-1.52-0.813-2.051s-1.499-1.034-2.87-1.508c-1.702-0.535-2.896-1.169-3.581-1.904
		c-0.686-0.734-1.028-1.685-1.028-2.853c0-1.228,0.376-2.224,1.13-2.988c0.753-0.765,1.777-1.199,3.073-1.305V3.427H30.9v2.282
		c1.326,0.12,2.352,0.615,3.079,1.485c0.727,0.871,1.09,2.056,1.09,3.554h-1.344c0-1.183-0.307-2.122-0.921-2.819
		s-1.452-1.045-2.514-1.045c-1.069,0-1.904,0.281-2.502,0.843c-0.599,0.562-0.898,1.311-0.898,2.246
		c0,0.905,0.275,1.613,0.825,2.122c0.549,0.509,1.485,0.988,2.807,1.437c1.322,0.449,2.282,0.879,2.881,1.289
		c0.599,0.411,1.046,0.896,1.344,1.458c0.297,0.561,0.446,1.233,0.446,2.017c0,1.235-0.386,2.23-1.158,2.988
		c-0.772,0.757-1.832,1.188-3.18,1.293v2.146h-1.141v-2.135c-1.514-0.099-2.685-0.574-3.514-1.43
		c-0.829-0.854-1.243-2.023-1.243-3.508h1.355c0,1.175,0.343,2.096,1.028,2.763c0.685,0.666,1.642,1,2.87,1
		c1.069,0,1.941-0.286,2.616-0.859C33.501,19.982,33.838,19.237,33.838,18.318z"/>
	<path d="M47.949,15.516c0,2.32-0.426,4.081-1.276,5.282c-0.852,1.201-2.105,1.802-3.762,1.802c-1.627,0-2.874-0.589-3.74-1.768
		s-1.311-2.895-1.333-5.146v-2.949c0-2.312,0.429-4.063,1.288-5.253c0.859-1.19,2.113-1.785,3.762-1.785
		c1.627,0,2.87,0.575,3.729,1.723c0.858,1.148,1.303,2.841,1.333,5.078L47.949,15.516L47.949,15.516z M46.594,12.567
		c0-1.883-0.307-3.306-0.921-4.271c-0.614-0.964-1.542-1.446-2.785-1.446c-1.22,0-2.139,0.471-2.756,1.413
		c-0.618,0.941-0.934,2.331-0.949,4.169v3.231c0,1.875,0.318,3.311,0.955,4.305c0.636,0.994,1.561,1.491,2.774,1.491
		c1.205,0,2.118-0.486,2.74-1.457c0.621-0.972,0.936-2.396,0.943-4.271L46.594,12.567L46.594,12.567z"/>
	<path d="M50.26,14.195c0-0.154,0.049-0.284,0.148-0.392c0.099-0.107,0.236-0.161,0.412-0.161c0.175,0,0.313,0.054,0.415,0.161
		c0.102,0.108,0.151,0.238,0.151,0.392s-0.05,0.28-0.151,0.378c-0.102,0.099-0.239,0.148-0.415,0.148
		c-0.176,0-0.313-0.049-0.412-0.148C50.309,14.475,50.26,14.349,50.26,14.195z"/>
	<path d="M59.211,10.671c0,1.353-0.248,2.379-0.744,3.079c-0.496,0.701-1.228,1.051-2.193,1.051c-0.948,0-1.676-0.344-2.181-1.031
		c-0.505-0.688-0.764-1.688-0.777-3V9.05c0-1.348,0.251-2.369,0.751-3.062c0.501-0.694,1.232-1.041,2.193-1.041
		c0.949,0,1.673,0.334,2.174,1.004c0.501,0.669,0.76,1.656,0.777,2.96V10.671z M58.421,8.952c0-1.098-0.18-1.928-0.537-2.49
		C57.526,5.9,56.985,5.619,56.26,5.619c-0.711,0-1.247,0.275-1.606,0.824c-0.36,0.549-0.545,1.359-0.554,2.43v1.884
		c0,1.094,0.186,1.93,0.557,2.51s0.91,0.869,1.617,0.869c0.702,0,1.234-0.283,1.597-0.85s0.546-1.396,0.551-2.49L58.421,8.952
		L58.421,8.952z"/>
	<path d="M66.688,10.671c0,1.353-0.248,2.379-0.744,3.079c-0.496,0.701-1.228,1.051-2.193,1.051c-0.948,0-1.676-0.344-2.181-1.031
		c-0.505-0.688-0.764-1.688-0.777-3V9.05c0-1.348,0.251-2.369,0.751-3.062c0.501-0.694,1.232-1.041,2.193-1.041
		c0.949,0,1.673,0.334,2.174,1.004c0.501,0.669,0.76,1.656,0.777,2.96V10.671z M65.897,8.952c0-1.098-0.18-1.928-0.537-2.49
		c-0.358-0.562-0.899-0.843-1.624-0.843c-0.711,0-1.247,0.275-1.606,0.824c-0.36,0.549-0.545,1.359-0.554,2.43v1.884
		c0,1.094,0.186,1.93,0.557,2.51s0.91,0.869,1.617,0.869c0.702,0,1.234-0.283,1.597-0.85s0.546-1.396,0.551-2.49L65.897,8.952
		L65.897,8.952z"/>
</g>
</svg>
