<?xml version="1.0" encoding="utf-8"?>
<!-- Generator: Adobe Illustrator 21.1.0, SVG Export Plug-In . SVG Version: 6.00 Build 0)  -->
<svg version="1.1" id="Layer_1" xmlns="http://www.w3.org/2000/svg" xmlns:xlink="http://www.w3.org/1999/xlink" x="0px" y="0px"
	 viewBox="0 0 50 15" style="enable-background:new 0 0 50 15;" xml:space="preserve">
<style type="text/css">
	.st0{fill:#010101;}
</style>
<g>
	<g>
		<path class="st0" d="M4.29,7.193c0-0.404-0.131-0.734-0.393-0.99C3.635,5.946,3.173,5.704,2.511,5.474
			c-0.822-0.258-1.399-0.565-1.73-0.92C0.449,4.2,0.284,3.74,0.284,3.176c0-0.593,0.182-1.074,0.546-1.444s0.859-0.58,1.485-0.631V0
			h0.556v1.101c0.641,0.058,1.136,0.297,1.487,0.717c0.351,0.42,0.527,0.993,0.527,1.717H4.236c0-0.571-0.148-1.025-0.445-1.361
			C3.495,1.838,3.089,1.67,2.576,1.67c-0.516,0-0.92,0.136-1.209,0.408S0.933,2.711,0.933,3.163c0,0.437,0.133,0.779,0.399,1.025
			c0.265,0.246,0.717,0.478,1.356,0.695C3.327,5.099,3.79,5.306,4.08,5.503c0.289,0.199,0.506,0.432,0.65,0.704
			c0.143,0.272,0.215,0.596,0.215,0.975c0,0.596-0.187,1.077-0.56,1.444C4.012,8.992,3.5,9.201,2.849,9.251v1.037H2.298V9.257
			C1.567,9.209,1.002,8.979,0.601,8.566C0.2,8.152,0,7.588,0,6.87h0.654c0,0.568,0.166,1.013,0.497,1.334s0.793,0.483,1.387,0.483
			c0.516,0,0.937-0.138,1.264-0.415C4.127,7.997,4.29,7.637,4.29,7.193z"/>
		<path class="st0" d="M9.075,9.152H8.42v-7.16L6.259,2.794V2.183l2.708-1.005h0.109C9.075,1.179,9.075,9.152,9.075,9.152z"/>
		<path class="st0" d="M16.026,5.474c-0.233,0.342-0.522,0.607-0.867,0.794c-0.346,0.187-0.721,0.281-1.125,0.281
			c-0.451,0-0.851-0.117-1.195-0.35c-0.346-0.233-0.613-0.555-0.802-0.966c-0.19-0.411-0.284-0.86-0.284-1.348
			c0-0.524,0.101-1.001,0.303-1.43c0.202-0.429,0.484-0.763,0.846-1.002c0.361-0.238,0.779-0.358,1.252-0.358
			c0.797,0,1.417,0.279,1.862,0.838c0.444,0.559,0.665,1.351,0.665,2.377v0.589c0,1.434-0.305,2.511-0.916,3.232
			c-0.612,0.72-1.544,1.08-2.801,1.08h-0.12l0.006-0.568h0.229c0.949-0.014,1.672-0.284,2.166-0.808
			C15.741,7.313,16.001,6.526,16.026,5.474z M14.117,5.982c0.436,0,0.829-0.13,1.176-0.39c0.347-0.26,0.594-0.596,0.74-1.01V4.208
			c0-0.805-0.168-1.432-0.505-1.875c-0.337-0.444-0.791-0.667-1.361-0.667c-0.517,0-0.941,0.208-1.272,0.624
			c-0.331,0.415-0.497,0.939-0.497,1.571c0,0.606,0.159,1.112,0.478,1.516C13.193,5.779,13.607,5.982,14.117,5.982z"/>
		<path class="st0" d="M21.942,5.474c-0.233,0.342-0.523,0.607-0.867,0.794C20.729,6.456,20.354,6.55,19.95,6.55
			c-0.451,0-0.85-0.117-1.195-0.35c-0.346-0.233-0.613-0.555-0.802-0.966c-0.19-0.411-0.284-0.86-0.284-1.348
			c0-0.524,0.101-1.001,0.303-1.43c0.202-0.429,0.484-0.763,0.846-1.002c0.362-0.238,0.779-0.358,1.252-0.358
			c0.797,0,1.417,0.279,1.861,0.838c0.444,0.559,0.666,1.351,0.666,2.377v0.589c0,1.434-0.305,2.511-0.916,3.232
			c-0.612,0.72-1.544,1.08-2.8,1.08H18.76l0.006-0.568h0.228c0.949-0.014,1.672-0.284,2.166-0.808
			C21.656,7.313,21.916,6.526,21.942,5.474z M20.031,5.982c0.437,0,0.829-0.13,1.176-0.39c0.347-0.26,0.594-0.596,0.74-1.01V4.208
			c0-0.805-0.169-1.432-0.506-1.875c-0.336-0.445-0.79-0.667-1.361-0.667c-0.516,0-0.941,0.208-1.272,0.624
			c-0.331,0.414-0.496,0.938-0.496,1.57c0,0.606,0.159,1.112,0.478,1.516C19.108,5.779,19.522,5.982,20.031,5.982z"/>
		<path class="st0" d="M23.494,5.201c0-0.075,0.024-0.137,0.072-0.19c0.047-0.052,0.113-0.078,0.199-0.078s0.152,0.026,0.2,0.078
			c0.049,0.051,0.073,0.115,0.073,0.19c0,0.074-0.024,0.135-0.073,0.182c-0.049,0.047-0.116,0.072-0.2,0.072
			c-0.085,0-0.15-0.024-0.199-0.072S23.494,5.276,23.494,5.201z"/>
		<path class="st0" d="M27.237,3.286c-0.135,0.199-0.305,0.354-0.506,0.463c-0.202,0.109-0.42,0.164-0.655,0.164
			c-0.263,0-0.495-0.068-0.697-0.204c-0.202-0.136-0.357-0.324-0.468-0.564s-0.166-0.502-0.166-0.786
			c0-0.305,0.059-0.583,0.177-0.834c0.117-0.251,0.282-0.445,0.494-0.584c0.211-0.139,0.454-0.209,0.731-0.209
			c0.465,0,0.826,0.163,1.085,0.489c0.258,0.326,0.388,0.788,0.388,1.385v0.344c0,0.835-0.178,1.464-0.535,1.884
			c-0.356,0.42-0.9,0.63-1.633,0.63h-0.071l0.003-0.331h0.133c0.554-0.009,0.975-0.166,1.263-0.471
			C27.072,4.358,27.223,3.899,27.237,3.286z M26.125,3.581c0.254,0,0.483-0.076,0.686-0.227c0.203-0.152,0.346-0.348,0.432-0.589
			V2.547c0-0.469-0.098-0.834-0.294-1.093c-0.196-0.26-0.461-0.389-0.794-0.389c-0.301,0-0.548,0.121-0.741,0.363
			s-0.29,0.547-0.29,0.916c0,0.354,0.092,0.648,0.278,0.884C25.586,3.464,25.827,3.581,26.125,3.581z"/>
		<path class="st0" d="M30.686,3.286c-0.135,0.199-0.305,0.354-0.506,0.463c-0.202,0.109-0.42,0.164-0.655,0.164
			c-0.264,0-0.495-0.068-0.697-0.204c-0.202-0.136-0.357-0.324-0.468-0.564s-0.166-0.502-0.166-0.786
			c0-0.305,0.059-0.583,0.177-0.834c0.117-0.251,0.282-0.445,0.494-0.584c0.211-0.139,0.454-0.209,0.731-0.209
			c0.465,0,0.826,0.163,1.085,0.489c0.258,0.326,0.388,0.788,0.388,1.385v0.344c0,0.835-0.178,1.464-0.535,1.884
			c-0.356,0.42-0.9,0.63-1.633,0.63h-0.071l0.003-0.331h0.133c0.554-0.009,0.975-0.166,1.263-0.471
			C30.52,4.358,30.672,3.899,30.686,3.286z M29.573,3.581c0.254,0,0.483-0.076,0.686-0.227c0.203-0.152,0.346-0.348,0.432-0.589
			V2.547c0-0.469-0.098-0.834-0.294-1.093c-0.196-0.26-0.461-0.389-0.794-0.389c-0.301,0-0.548,0.121-0.741,0.363
			c-0.193,0.242-0.29,0.547-0.29,0.916c0,0.354,0.092,0.648,0.278,0.884C29.035,3.464,29.276,3.581,29.573,3.581z"/>
	</g>
	<g>
		<path class="st0" d="M35.89,6.318L35.845,6.55c-0.016,0.072-0.033,0.144-0.044,0.216c-0.039,0.199-0.055,0.404-0.072,0.603
			c-0.022,0.244-0.039,0.482-0.066,0.724c-0.023,0.232-0.05,0.47-0.094,0.697c-0.1,0.514-0.332,1.179-0.736,1.538
			c-0.105,0.094-0.232,0.171-0.376,0.171c-0.116,0-0.238-0.05-0.332-0.111c-0.144-0.094-0.177-0.248-0.177-0.409
			c0-0.121,0.011-0.26,0.044-0.376c0.055-0.199,0.404-1.101,0.631-1.101c0.05,0,0.166,0.061,0.204,0.094
			c-0.161,0.1-0.232,0.26-0.305,0.426c-0.111,0.248-0.199,0.453-0.254,0.719c0,0.006-0.006,0.011-0.006,0.016
			c-0.016,0.072-0.027,0.138-0.027,0.21c0,0.121,0.05,0.204,0.077,0.315l0.121-0.1c0.155-0.133,0.293-0.409,0.371-0.592
			c0.254-0.597,0.326-1.228,0.437-1.859c0.023-0.116,0.033-0.232,0.033-0.348c-0.105,0.171-0.459,0.707-0.669,0.707
			c-0.039,0-0.05-0.011-0.083-0.028l-0.055-0.027c-0.177-0.088-0.305-0.155-0.305-0.399c0-0.227,0.105-0.509,0.171-0.73
			c0.055-0.182,0.138-0.387,0.138-0.58c0-0.067-0.016-0.138-0.016-0.205c0.255,0.051,0.359,0.338,0.359,0.57
			c0,0.321-0.105,0.619-0.177,0.929v0.061c0.348-0.371,0.592-0.785,0.802-1.239c0.044-0.1,0.111-0.21,0.182-0.293l0.067-0.061
			l0.011,0.088c-0.016,0.006-0.016,0.011-0.016,0.023c0.006-0.016,0.011-0.016,0.016-0.023c0.016-0.006,0.039-0.011,0.05-0.027
			C35.796,6.207,35.845,6.257,35.89,6.318z M34.048,9.697c0-0.006,0-0.016-0.006-0.023v0.039
			C34.048,9.708,34.048,9.703,34.048,9.697z M34.059,9.615c0-0.006-0.006-0.006-0.006-0.016v0.033
			C34.054,9.625,34.059,9.619,34.059,9.615z M34.12,9.454c0,0.006-0.011,0.016-0.016,0.033c-0.011,0-0.011,0.011-0.011,0.023
			c0.011-0.006,0.011-0.011,0.011-0.023h0.006C34.114,9.475,34.12,9.464,34.12,9.454z M34.125,9.431c0-0.023,0-0.027-0.006-0.033
			C34.12,9.41,34.12,9.421,34.125,9.431z M34.153,9.343L34.147,9.37C34.153,9.365,34.153,9.354,34.153,9.343z M34.164,9.293
			l-0.006,0.044C34.164,9.321,34.164,9.304,34.164,9.293z M34.209,9.221c0.006-0.011,0.006-0.016,0.006-0.028
			c-0.006,0.011-0.016,0.033-0.027,0.05L34.209,9.221z M34.198,9.652c0-0.006-0.006-0.011-0.006-0.016v0.023
			C34.198,9.652,34.198,9.652,34.198,9.652z M34.214,9.182c0.016-0.033,0.044-0.061,0.066-0.094
			C34.219,9.1,34.214,9.127,34.214,9.182z M34.23,9.525c0-0.006-0.006-0.016-0.006-0.028c-0.006,0.011-0.011,0.028-0.011,0.044
			C34.225,9.542,34.23,9.537,34.23,9.525z M34.28,9.055c0-0.011,0.006-0.022,0.006-0.027C34.292,9.016,34.297,9,34.297,8.989
			C34.292,9,34.286,9.012,34.286,9.028C34.28,9.033,34.28,9.045,34.28,9.055z M34.286,9.365C34.28,9.371,34.28,9.381,34.28,9.388
			C34.286,9.382,34.286,9.37,34.286,9.365z M34.325,9.244l-0.011,0.027c0,0.016-0.006,0.039-0.022,0.072l0.016-0.016L34.325,9.244z
			 M34.303,8.983c0.006,0,0.016,0,0.023-0.006C34.319,8.978,34.308,8.978,34.303,8.983z M34.319,8.95c0,0.006,0,0.016,0.006,0.023
			l0.033-0.061C34.336,8.911,34.319,8.922,34.319,8.95z M34.352,9.205c0,0-0.006,0-0.011,0.006L34.352,9.205z M34.385,8.834
			c0.011,0,0.016-0.006,0.028-0.006l0.011-0.039C34.407,8.807,34.407,8.818,34.385,8.834z M34.396,9.122
			c0-0.006-0.006-0.011-0.006-0.016v0.023C34.396,9.122,34.396,9.122,34.396,9.122z M34.452,8.734l0.006-0.016
			C34.452,8.724,34.452,8.729,34.452,8.734z M34.457,8.701c0,0,0.006,0,0.011-0.006c0-0.006,0.006-0.011,0.011-0.011
			c-0.006,0-0.016,0.006-0.023,0.011C34.457,8.701,34.457,8.701,34.457,8.701z M34.518,8.851c0.016,0,0.016-0.011,0.027-0.011
			c0-0.016,0.011-0.027,0.011-0.044l-0.016,0.039C34.534,8.84,34.523,8.84,34.518,8.851z M34.612,8.696
			c0.006,0,0.011,0.006,0.011,0.011c0-0.016,0.006-0.023,0.006-0.023C34.624,8.684,34.618,8.684,34.612,8.696z M34.828,7.601
			c-0.006,0.006-0.011,0.011-0.011,0.017L34.828,7.601z M34.899,7.766c-0.006,0.006-0.016,0.006-0.027,0.011
			C34.883,7.778,34.889,7.778,34.899,7.766z M34.899,9.658c-0.006,0.006-0.011,0.006-0.011,0.023l0.006-0.006
			C34.894,9.669,34.894,9.664,34.899,9.658z M34.999,7.612c-0.006,0.016-0.011,0.027-0.055,0.066c0,0-0.011,0.006-0.016,0.023
			c0-0.006,0.016-0.016,0.022-0.023c0.006,0,0.016,0,0.023-0.006l0.016-0.016C34.994,7.645,34.999,7.623,34.999,7.612z
			 M34.972,7.401l0.006-0.023C34.972,7.385,34.972,7.396,34.972,7.401z M35.01,9.398c-0.011,0.016-0.033,0.05-0.039,0.083
			C34.988,9.454,34.999,9.426,35.01,9.398z M35.066,7.264l0.023-0.011c-0.006,0-0.016,0-0.023,0.006l-0.011,0.039l-0.022,0.011
			c-0.016,0.016-0.023,0.039-0.028,0.061c0.006-0.023,0.033-0.067,0.055-0.067C35.06,7.291,35.066,7.274,35.066,7.264z M35.076,9.15
			l-0.055,0.182c-0.006,0.006-0.011,0.016-0.011,0.027c0-0.011,0.006-0.016,0.011-0.023l0.016-0.006
			C35.054,9.271,35.066,9.21,35.076,9.15z M35.038,9.819c-0.006,0.011-0.006,0.023-0.006,0.033
			C35.038,9.84,35.038,9.83,35.038,9.819z M35.049,7.54c-0.006,0.011-0.006,0.023-0.006,0.027
			C35.044,7.562,35.049,7.551,35.049,7.54z M35.093,7.512c-0.011,0-0.016,0.011-0.022,0.016C35.083,7.524,35.087,7.524,35.093,7.512
			z M35.397,8.861c-0.033,0.05-0.204,0.614-0.248,0.73c-0.023,0.05-0.039,0.105-0.066,0.154C35.214,9.675,35.37,8.983,35.397,8.861z
			 M35.143,7.159l0.017-0.011c-0.006,0.006-0.017,0.006-0.028,0.011c0,0.011-0.006,0.028-0.006,0.039
			c-0.011,0-0.022,0.006-0.033,0.006c-0.006,0.011-0.006,0.023-0.006,0.033c0-0.006,0.006-0.016,0.006-0.027
			c0.011-0.006,0.028-0.006,0.033-0.011C35.132,7.186,35.132,7.169,35.143,7.159z M35.132,7.457l-0.027,0.011
			c-0.006,0.011-0.011,0.027-0.011,0.039c0-0.006,0.011-0.016,0.011-0.033C35.11,7.468,35.126,7.468,35.132,7.457z M35.11,9.055
			c0,0.006,0,0.011,0.006,0.016c0.006-0.011,0.006-0.022,0.006-0.033C35.11,9.05,35.11,9.05,35.11,9.055z M35.132,8.995
			C35.132,9,35.132,9,35.138,9V8.979C35.137,8.983,35.132,8.995,35.132,8.995z M35.181,7.368c0,0.006-0.006,0.011-0.006,0.022
			c-0.023,0-0.023,0.006-0.023,0.011v0.006c0.006-0.011,0.016-0.011,0.023-0.016L35.181,7.368z M35.237,7.042
			c-0.023,0-0.027,0.011-0.033,0.016c-0.006,0.011-0.006,0.016-0.023,0.033c0.006,0,0.011,0,0.016,0
			c0-0.011,0.006-0.023,0.006-0.033C35.214,7.053,35.231,7.053,35.237,7.042z M35.181,9.216l0.016-0.023V9.166
			C35.193,9.172,35.193,9.182,35.181,9.216z M35.231,7.296c-0.016,0.011-0.016,0.022-0.022,0.033
			C35.231,7.319,35.231,7.307,35.231,7.296z M35.259,6.971c0.006-0.011,0.006-0.016,0.023-0.033l-0.033,0.027
			c0,0.011-0.006,0.028-0.006,0.039L35.259,6.971z M35.292,7.203l0.006-0.006l0.011-0.039c-0.006,0.011-0.011,0.023-0.011,0.039
			L35.27,7.203v0.016C35.276,7.213,35.281,7.208,35.292,7.203z M35.292,6.921c0.006-0.016,0.006-0.028,0.016-0.044V6.855
			l-0.011,0.022C35.298,6.893,35.292,6.904,35.292,6.921z M35.331,6.82l0.033-0.022C35.348,6.804,35.337,6.815,35.331,6.82z
			 M35.365,6.793c0.006-0.023,0.016-0.05,0.033-0.061c0-0.017,0.006-0.033,0.006-0.05C35.403,6.721,35.365,6.749,35.365,6.793z
			 M35.419,8.795c-0.016,0-0.028,0.006-0.028,0.023c0,0.011,0.006,0.022,0.006,0.033C35.403,8.829,35.408,8.811,35.419,8.795z
			 M35.419,8.79l-0.011-0.055C35.408,8.751,35.408,8.773,35.419,8.79z"/>
		<path class="st0" d="M36.283,7.407c-0.023,0.044-0.016,0.138-0.016,0.182c0,0.055,0.016,0.266,0.094,0.266
			c0.117,0,0.205-0.077,0.244-0.177l0.006-0.006v0.016c0,0.05-0.044,0.088-0.061,0.133c0.061-0.027,0.072-0.083,0.105-0.133
			c0.006,0.011,0.011,0.023,0.011,0.028c0,0.039-0.033,0.061-0.039,0.094l0.039,0.006L36.66,7.833l0.011,0.006V7.833h0.016
			l-0.006-0.011h0.006l0.006-0.023h0.006l0.011-0.023v0.023c0.016-0.016,0.023-0.033,0.023-0.055l0.022-0.027
			c-0.011,0.161-0.161,0.266-0.315,0.266c-0.337,0-0.537-0.232-0.537-0.559c0-0.266,0.111-0.531,0.266-0.746
			c0.121-0.171,0.293-0.266,0.503-0.266c0.05,0,0.1,0.011,0.15,0.023l-0.111-0.205l0.044-0.011c0.221,0.072,0.371,0.254,0.371,0.498
			C37.124,7.119,36.648,7.407,36.283,7.407z M36.106,6.975c-0.006,0-0.006,0-0.006,0.006h0.006V6.975z M36.133,6.893l-0.016,0.028
			l0.011,0.006L36.133,6.893z M36.139,6.882l-0.006,0.006h0.006V6.882z M36.227,6.733l0.016-0.006
			C36.239,6.727,36.233,6.727,36.227,6.733L36.2,6.777l-0.011,0.016v0.006c-0.011,0.016-0.027,0.033-0.039,0.055
			c0.028-0.011,0.033-0.033,0.039-0.055L36.2,6.777l0.022-0.016C36.222,6.749,36.227,6.743,36.227,6.733z M36.21,7.147
			c-0.006,0.006-0.006,0.016-0.006,0.027h0.006V7.147z M36.415,6.766c-0.077,0.077-0.182,0.232-0.182,0.348
			C36.272,6.992,36.366,6.887,36.415,6.766z M36.233,6.909v0.006c0-0.006,0-0.006,0-0.011V6.909z M36.255,6.86
			c0.006-0.006,0.006-0.011,0.006-0.022C36.255,6.848,36.255,6.854,36.255,6.86z M36.277,6.827h0.006
			c0.006-0.006,0.011-0.016,0.011-0.023C36.288,6.81,36.283,6.827,36.277,6.827z M36.338,7.186c0.199-0.023,0.492-0.348,0.492-0.547
			V6.616C36.581,6.671,36.382,6.943,36.338,7.186z M36.421,6.76l0.023-0.011V6.743l-0.006,0.006
			C36.427,6.749,36.427,6.754,36.421,6.76z M36.797,6.921c-0.006,0.006-0.006,0.016-0.006,0.023l-0.016,0.011l0.016-0.006V6.943
			L36.797,6.921z M36.836,6.86l-0.011,0.023v0.006C36.83,6.876,36.836,6.871,36.836,6.86z M36.853,6.827
			c0.006,0,0.011-0.006,0.011-0.011h-0.011V6.827z M36.874,7.048c0.006-0.006,0.011-0.006,0.011-0.011L36.874,7.048z M36.886,6.921
			h0.006l0.006-0.016L36.886,6.921z M36.908,7.031c-0.006,0-0.011,0-0.017,0.006C36.897,7.036,36.903,7.036,36.908,7.031z
			 M36.908,7.025c0.055-0.055,0.088-0.127,0.111-0.199C36.996,6.865,36.908,6.992,36.908,7.025z"/>
		<path class="st0" d="M38.789,7.357c-0.121,0.288-0.393,0.78-0.636,0.974c-0.121-0.044-0.21-0.055-0.21-0.21
			c0-0.298,0.067-0.592,0.127-0.885L37.882,7.43c-0.117,0.121-0.277,0.354-0.47,0.354c-0.138,0-0.343-0.127-0.343-0.282
			c0-0.326,0.348-0.918,0.614-1.106c0.111-0.077,0.248-0.154,0.387-0.154s0.255,0.077,0.354,0.171
			c0.011,0.011,0.023,0.027,0.023,0.044c0,0.011-0.006,0.023-0.011,0.033l-0.161-0.044c-0.399,0.138-0.597,0.587-0.758,0.946
			l0.011,0.011l0.088-0.067l0.531-0.476c0.1-0.088,0.116-0.204,0.244-0.254l0.006,0.055l-0.016,0.005
			c-0.011,0.023,0,0.016-0.023,0.039l0.016-0.006l0.006-0.027l0.016-0.011c0.006-0.011,0.016-0.023,0.033-0.023
			c0.011,0,0.023,0.011,0.027,0.016l-0.006,0.039l0.022-0.011V6.676l0.028,0.011c-0.044,0.138-0.094,0.271-0.144,0.404l-0.006,0.006
			c0.006,0,0.006,0,0.006-0.006c0.006-0.006,0.016-0.011,0.016-0.023c0.055-0.121,0.1-0.248,0.161-0.365
			c0.027,0.006,0.05,0.023,0.05,0.05c0,0.039-0.016,0.077-0.027,0.111c-0.072,0.199-0.315,0.885-0.315,1.062
			c0.072-0.044,0.127-0.121,0.182-0.182h0.011c-0.072,0.105-0.171,0.194-0.221,0.309h-0.006v0.006c0.006,0,0.006,0,0.006-0.006
			c0.1-0.1,0.188-0.221,0.277-0.332c0.023-0.028,0.044-0.072,0.072-0.1l0.028-0.027c-0.117,0.199-0.298,0.382-0.399,0.587
			l0.177-0.205l-0.05,0.094l0.039-0.028l0.006,0.023c0.006-0.027,0.033-0.061,0.05-0.088h0.006V7.971l-0.006,0.006h-0.011
			c0.017-0.044,0.023-0.072,0.061-0.1v0.023l0.011-0.023l0.016-0.011l0.011-0.022c0.011-0.044,0.055-0.077,0.072-0.121
			c0.011-0.028,0.033-0.055,0.05-0.083h-0.006l0.011-0.022h-0.006l0.033-0.061l0.006,0.023c0.006-0.028,0.023-0.05,0.033-0.072
			h-0.006l0.016-0.011c0.011-0.016,0.016-0.033,0.023-0.05v0.006C38.744,7.418,38.767,7.391,38.789,7.357z M37.251,7.18
			c0,0.006-0.006,0.011-0.006,0.016h0.006V7.18z M37.284,7.114c0.072-0.121,0.138-0.255,0.215-0.371
			c0.016-0.023,0.067-0.083,0.067-0.111l-0.011,0.023c-0.077,0.077-0.248,0.376-0.288,0.482c-0.006,0.006-0.011,0.016-0.011,0.027
			l0.011-0.027C37.273,7.131,37.284,7.125,37.284,7.114z M37.339,7.225l0.017-0.039c-0.011,0.006-0.011,0.027-0.023,0.039H37.339z
			 M37.351,7.485c-0.006,0.006-0.006,0.016-0.006,0.023h0.006V7.485z M37.809,6.644c-0.144,0.089-0.354,0.482-0.409,0.642
			c-0.023,0.061-0.033,0.127-0.05,0.188c0.011-0.011,0.016-0.023,0.023-0.039C37.478,7.159,37.622,6.871,37.809,6.644z
			 M37.373,7.136c0.055-0.105,0.121-0.199,0.182-0.298V6.827C37.483,6.926,37.422,7.02,37.373,7.136z M37.583,6.616l0.016-0.011
			h-0.006L37.583,6.616z M37.611,6.749h0.011V6.743C37.616,6.749,37.616,6.749,37.611,6.749z M37.638,6.71h0.006V6.704
			C37.638,6.704,37.638,6.704,37.638,6.71z M38.191,7.695h0.006V7.684h-0.006V7.695z M38.214,8.215
			c-0.006,0-0.011,0.006-0.011,0.011L38.214,8.215z M38.214,7.584l0.006,0.011V7.579L38.214,7.584z M38.257,8.159l-0.039,0.05
			C38.235,8.192,38.257,8.187,38.257,8.159z M38.241,7.49h0.006V7.462C38.241,7.474,38.241,7.479,38.241,7.49z M38.247,7.44
			l0.011-0.023h-0.006L38.247,7.44z M38.257,7.413c0.027-0.033,0.033-0.072,0.039-0.111C38.28,7.341,38.268,7.374,38.257,7.413z
			 M38.268,8.176c-0.006,0-0.006,0.006-0.011,0.006C38.263,8.181,38.268,8.181,38.268,8.176z M38.291,8.137
			c0-0.011,0.006-0.023,0.006-0.033l-0.033,0.05L38.291,8.137z M38.291,6.82l0.044-0.083C38.318,6.754,38.297,6.793,38.291,6.82z
			 M38.302,8.127l-0.006,0.006C38.302,8.131,38.302,8.131,38.302,8.127z M38.307,7.258c-0.006,0.006-0.006,0.011-0.006,0.016
			L38.307,7.258z M38.324,8.121c-0.006,0-0.006,0.006-0.011,0.006h0.011V8.121z M38.324,7.203c-0.006,0.006-0.006,0.016-0.006,0.027
			l0.006-0.011V7.203z M38.362,8.071h-0.006l-0.016,0.011h0.006L38.362,8.071z M38.379,6.81c0,0,0.006,0.011,0.006,0.016
			l0.023-0.044C38.391,6.788,38.379,6.793,38.379,6.81z M38.407,6.777c0.006-0.011,0.006-0.016,0.006-0.027
			C38.407,6.76,38.407,6.766,38.407,6.777z M38.462,7.905c-0.006,0.006-0.006,0.016-0.006,0.023
			C38.462,7.922,38.462,7.91,38.462,7.905z"/>
		<path class="st0" d="M38.667,7.733c-0.066,0.088-0.138,0.177-0.238,0.232L38.235,7.9l0.011-0.017
			c0.094-0.094,0.166-0.194,0.238-0.304c0.277-0.442,0.459-0.912,0.553-1.427c-0.21-0.144-0.503-0.305-0.503-0.597
			c0-0.15,0.133-0.332,0.293-0.332c0.05,0,0.094,0.011,0.138,0.033c0.182,0.077,0.293,0.248,0.315,0.442
			c0.011,0.121,0.028,0.244,0.033,0.365c0.188,0.111,0.393,0.221,0.553,0.371C39.956,6.516,40,6.61,40,6.732
			c0,0.166-0.105,0.442-0.161,0.609c-0.1,0.293-0.277,0.752-0.277,1.056c0,0.072,0.011,0.15,0.039,0.216l0.154,0.039L39.75,8.696
			l0.006,0.006l0.028-0.033h0.044c0.011,0.023,0.016,0.044,0.016,0.066c0,0.105-0.166,0.138-0.248,0.138
			c-0.359,0-0.503-0.387-0.503-0.691c0-0.371,0.232-0.974,0.365-1.327c0.033-0.083,0.094-0.26,0.094-0.342
			c0-0.133-0.154-0.188-0.255-0.232C39.231,6.82,38.982,7.296,38.667,7.733z M38.64,5.438l0.011,0.011
			c0.006-0.023,0.011-0.044,0.023-0.061L38.64,5.438z M38.673,7.595l-0.006,0.006h0.006V7.595z M38.711,7.307
			c0.028-0.016,0.039-0.055,0.044-0.088L38.711,7.307z M38.817,5.444C38.8,5.46,38.784,5.483,38.784,5.51
			c0,0.011,0,0.016,0.006,0.027C38.8,5.51,38.805,5.477,38.817,5.444z M39.043,5.859c0-0.105-0.028-0.343-0.088-0.42
			c-0.055,0.05-0.088,0.116-0.088,0.188c0,0.117,0.072,0.248,0.171,0.305C39.038,5.908,39.043,5.88,39.043,5.859z M39.17,6.472
			c-0.083,0.271-0.177,0.531-0.293,0.791c0.117-0.127,0.288-0.642,0.309-0.819C39.176,6.45,39.176,6.461,39.17,6.472z M38.911,6.876
			c0.028-0.055,0.05-0.105,0.061-0.161l-0.011,0.006L38.911,6.876z M38.988,6.633c-0.016,0.023-0.023,0.05-0.016,0.072L38.988,6.633
			z M38.999,6.605c0.006-0.006,0.006-0.011,0.006-0.016L38.999,6.605z M39.01,6.561c0,0.006,0,0.016-0.006,0.023
			c0.006-0.006,0.011-0.016,0.011-0.023H39.01z M39.026,6.495l0.016-0.023h-0.006L39.026,6.495z M39.055,6.429l-0.006-0.011v0.016
			L39.055,6.429z M39.198,6.384h-0.006v0.023h0.006V6.384z M39.209,6.323h-0.006v0.016h0.006V6.323z M39.53,6.992l-0.266,0.807
			L39.203,8.02c0.05-0.1,0.083-0.216,0.116-0.326c0.094-0.293,0.199-0.58,0.282-0.879C39.563,6.86,39.547,6.937,39.53,6.992z
			 M39.331,8.127c0-0.011-0.006-0.016-0.006-0.028C39.32,8.11,39.32,8.114,39.32,8.127H39.331z M39.685,6.909l-0.271,0.796
			c-0.039,0.121-0.055,0.255-0.083,0.376l0.011-0.011c0.05-0.166,0.088-0.337,0.144-0.503c0.072-0.221,0.177-0.442,0.216-0.674
			L39.685,6.909z M39.458,8.115c0.055-0.277,0.155-0.547,0.248-0.818c0.055-0.166,0.127-0.337,0.144-0.514h-0.011
			c-0.133,0.371-0.255,0.752-0.371,1.129c-0.033,0.111-0.055,0.221-0.055,0.337c0,0.033,0,0.066,0.006,0.1
			C39.436,8.27,39.441,8.192,39.458,8.115z M39.448,7.856V7.85l-0.006,0.006H39.448z M39.502,7.655l0.006-0.006h-0.006V7.655z
			 M39.514,7.612l0.006,0.006V7.612H39.514z M39.518,8.143h-0.006c0,0.006,0,0.006,0.006,0.011V8.143z M39.525,7.578l0.006,0.006
			V7.578H39.525z M39.53,8.088h-0.006v0.011h0.006V8.088z M39.563,7.966h0.006V7.95h-0.006V7.966z M39.58,7.899h-0.006v0.016h0.006
			V7.899z M39.602,7.357l-0.006,0.006h0.006V7.357z M39.602,7.827c-0.006,0-0.006,0.006-0.006,0.011h0.006V7.827z M39.608,6.782
			v0.022c0.006-0.006,0.006-0.016,0.006-0.022H39.608z M39.613,7.789l-0.006,0.006h0.006V7.789z M39.618,7.75l0.011,0.006
			c0-0.006,0-0.011-0.006-0.016L39.618,7.75z M39.641,7.7h-0.006v0.016h0.006V7.7z M39.674,7.595h-0.006
			c0,0.006,0,0.006,0.006,0.006V7.595z M39.685,7.119L39.68,7.125h0.006L39.685,7.119L39.685,7.119z M39.685,7.562
			c-0.006,0-0.006,0-0.006,0.006L39.685,7.562z M39.712,6.865h-0.011v0.016L39.712,6.865z M39.707,7.495l0.006-0.006h-0.006V7.495z
			 M39.719,7.463c0.006,0,0.006-0.006,0.006-0.011h-0.006V7.463z M39.729,7.423h0.006V7.412h-0.006V7.423z M39.796,7.247H39.79
			v0.011h0.006V7.247z M39.801,7.219h0.006V7.213h-0.006V7.219z M39.812,7.175l0.006,0.006V7.175H39.812z M39.889,6.959V6.954
			l-0.006,0.006H39.889z"/>
	</g>
	<g>
		<path class="st0" d="M31.923,9.152h-0.521l1.692-4.991h0.521L31.923,9.152z"/>
	</g>
</g>
</svg>
