<?xml version="1.0" encoding="utf-8"?>
<!-- Generator: Adobe Illustrator 21.1.0, SVG Export Plug-In . SVG Version: 6.00 Build 0)  -->
<svg version="1.1" id="Layer_1" xmlns="http://www.w3.org/2000/svg" xmlns:xlink="http://www.w3.org/1999/xlink" x="0px" y="0px"
	 viewBox="0 0 100 40" style="enable-background:new 0 0 100 40;" xml:space="preserve">
<g>
	<path d="M20.03,32.457v-3.898h-0.709v-0.388h0.709v-0.519c0-0.438,0.112-0.775,0.335-1.01c0.223-0.235,0.534-0.353,0.933-0.353
		c0.18,0,0.347,0.023,0.503,0.067l-0.036,0.393c-0.132-0.032-0.276-0.047-0.432-0.047c-0.262,0-0.465,0.082-0.61,0.244
		c-0.145,0.163-0.217,0.394-0.217,0.693v0.533h1.022v0.388h-1.022v3.898C20.505,32.457,20.03,32.457,20.03,32.457z"/>
	<path d="M21.91,30.251c0-0.412,0.08-0.782,0.24-1.113c0.16-0.33,0.385-0.587,0.678-0.77c0.292-0.184,0.622-0.276,0.992-0.276
		c0.57,0,1.033,0.2,1.387,0.601c0.354,0.399,0.531,0.93,0.531,1.59v0.099c0,0.414-0.08,0.788-0.24,1.118
		c-0.16,0.332-0.385,0.587-0.675,0.767c-0.29,0.18-0.622,0.269-0.994,0.269c-0.568,0-1.029-0.2-1.385-0.601
		c-0.355-0.399-0.533-0.93-0.533-1.59L21.91,30.251L21.91,30.251z M22.386,30.382c0,0.512,0.133,0.933,0.398,1.261
		c0.265,0.329,0.613,0.493,1.044,0.493c0.427,0,0.775-0.164,1.04-0.493c0.265-0.328,0.398-0.762,0.398-1.301v-0.091
		c0-0.328-0.06-0.628-0.183-0.899c-0.121-0.272-0.292-0.483-0.511-0.633c-0.219-0.149-0.47-0.223-0.752-0.223
		c-0.423,0-0.767,0.166-1.034,0.498c-0.266,0.331-0.4,0.764-0.4,1.301L22.386,30.382L22.386,30.382z"/>
	<path d="M28.493,28.575c-0.1-0.018-0.207-0.027-0.321-0.027c-0.296,0-0.546,0.083-0.75,0.248c-0.205,0.165-0.35,0.404-0.438,0.718
		v2.943h-0.472V28.17h0.463l0.008,0.682c0.25-0.507,0.653-0.761,1.208-0.761c0.132,0,0.236,0.018,0.313,0.052L28.493,28.575z"/>
	<path d="M34.254,30.358c0,0.667-0.148,1.197-0.443,1.591c-0.296,0.392-0.692,0.587-1.188,0.587c-0.586,0-1.035-0.206-1.347-0.617
		v2.187h-0.472v-5.933h0.44l0.024,0.606c0.309-0.457,0.757-0.685,1.342-0.685c0.512,0,0.914,0.194,1.206,0.583
		c0.292,0.388,0.438,0.927,0.438,1.616L34.254,30.358L34.254,30.358z M33.779,30.274c0-0.547-0.112-0.978-0.337-1.295
		c-0.225-0.317-0.537-0.475-0.938-0.475c-0.29,0-0.54,0.07-0.748,0.21c-0.209,0.14-0.368,0.343-0.479,0.61v2.056
		c0.114,0.246,0.276,0.433,0.488,0.563c0.212,0.13,0.46,0.194,0.748,0.194c0.399,0,0.71-0.159,0.933-0.477
		C33.667,31.341,33.779,30.879,33.779,30.274z"/>
	<path d="M37.081,28.575c-0.1-0.018-0.207-0.027-0.321-0.027c-0.296,0-0.546,0.083-0.75,0.248c-0.205,0.165-0.35,0.404-0.438,0.718
		v2.943h-0.472V28.17h0.463l0.008,0.682c0.25-0.507,0.653-0.761,1.208-0.761c0.132,0,0.236,0.018,0.313,0.052L37.081,28.575z"/>
	<path d="M37.599,26.934c0-0.089,0.029-0.165,0.088-0.227s0.137-0.092,0.237-0.092c0.1,0,0.18,0.031,0.24,0.092
		c0.059,0.062,0.089,0.137,0.089,0.227c0,0.088-0.03,0.164-0.089,0.224c-0.059,0.06-0.139,0.09-0.24,0.09
		c-0.1,0-0.18-0.03-0.237-0.09C37.628,27.098,37.599,27.023,37.599,26.934z M38.158,32.457h-0.475v-4.286h0.475V32.457z"/>
	<path d="M40.827,32.136c0.33,0,0.607-0.092,0.83-0.28c0.223-0.185,0.344-0.427,0.362-0.723h0.456
		c-0.013,0.262-0.095,0.5-0.246,0.714c-0.151,0.216-0.35,0.384-0.6,0.505s-0.517,0.183-0.802,0.183
		c-0.563,0-1.008-0.196-1.337-0.586s-0.493-0.917-0.493-1.577v-0.142c0-0.423,0.074-0.796,0.222-1.121
		c0.148-0.325,0.36-0.576,0.635-0.752c0.276-0.177,0.599-0.265,0.969-0.265c0.47,0,0.858,0.14,1.163,0.42
		c0.305,0.28,0.468,0.648,0.489,1.105H42.02c-0.021-0.335-0.142-0.606-0.362-0.812c-0.22-0.206-0.498-0.309-0.834-0.309
		c-0.427,0-0.76,0.154-0.996,0.463c-0.236,0.309-0.355,0.743-0.355,1.299v0.138c0,0.547,0.118,0.972,0.355,1.279
		C40.065,31.983,40.397,32.136,40.827,32.136z"/>
	<path d="M43.19,26.934c0-0.089,0.029-0.165,0.088-0.227s0.137-0.092,0.237-0.092s0.18,0.031,0.24,0.092
		c0.059,0.062,0.089,0.137,0.089,0.227c0,0.088-0.03,0.164-0.089,0.224c-0.059,0.06-0.139,0.09-0.24,0.09
		c-0.1,0-0.18-0.03-0.237-0.09C43.22,27.098,43.19,27.023,43.19,26.934z M43.75,32.457h-0.475v-4.286h0.475V32.457z"/>
	<path d="M45.285,28.171l0.016,0.732c0.161-0.264,0.362-0.465,0.602-0.604c0.24-0.137,0.505-0.207,0.796-0.207
		c0.459,0,0.802,0.129,1.026,0.388c0.224,0.259,0.338,0.648,0.341,1.164v2.813h-0.472v-2.816c-0.003-0.382-0.084-0.667-0.243-0.856
		c-0.16-0.187-0.416-0.281-0.767-0.281c-0.293,0-0.553,0.092-0.778,0.276c-0.227,0.183-0.393,0.431-0.502,0.743v2.935h-0.472v-4.286
		H45.285z"/>
	<path d="M48.897,30.274c0-0.671,0.149-1.202,0.445-1.595c0.297-0.392,0.7-0.587,1.211-0.587c0.584,0,1.028,0.233,1.331,0.698
		l0.024-0.617h0.443v4.198c0,0.553-0.154,0.988-0.463,1.311c-0.309,0.323-0.728,0.483-1.256,0.483c-0.298,0-0.583-0.067-0.854-0.201
		c-0.27-0.133-0.483-0.311-0.639-0.533l0.265-0.285c0.335,0.412,0.734,0.617,1.195,0.617c0.396,0,0.705-0.118,0.927-0.35
		c0.222-0.234,0.337-0.558,0.345-0.972v-0.538c-0.303,0.423-0.746,0.633-1.327,0.633c-0.497,0-0.895-0.198-1.195-0.594
		c-0.301-0.396-0.452-0.931-0.452-1.604C48.897,30.338,48.897,30.274,48.897,30.274z M49.376,30.358
		c0,0.547,0.109,0.978,0.329,1.292c0.219,0.316,0.528,0.473,0.926,0.473c0.584,0,0.997-0.262,1.24-0.784v-1.993
		c-0.111-0.275-0.271-0.484-0.479-0.628c-0.208-0.143-0.459-0.216-0.752-0.216c-0.398,0-0.709,0.157-0.93,0.469
		C49.487,29.287,49.376,29.748,49.376,30.358z"/>
	<path d="M54.892,30.251c0-0.412,0.08-0.782,0.239-1.113c0.16-0.33,0.386-0.587,0.678-0.77c0.292-0.184,0.622-0.276,0.992-0.276
		c0.57,0,1.033,0.2,1.387,0.601c0.354,0.399,0.531,0.93,0.531,1.59v0.099c0,0.414-0.08,0.788-0.239,1.118
		c-0.16,0.332-0.385,0.587-0.676,0.767c-0.291,0.18-0.622,0.269-0.994,0.269c-0.568,0-1.029-0.2-1.385-0.601
		c-0.355-0.399-0.533-0.93-0.533-1.59V30.251z M55.367,30.382c0,0.512,0.133,0.933,0.397,1.261c0.266,0.329,0.614,0.493,1.044,0.493
		c0.427,0,0.775-0.164,1.039-0.493c0.266-0.328,0.398-0.762,0.398-1.301v-0.091c0-0.328-0.061-0.628-0.183-0.899
		c-0.121-0.272-0.292-0.483-0.511-0.633c-0.219-0.149-0.47-0.223-0.752-0.223c-0.423,0-0.767,0.166-1.034,0.498
		c-0.267,0.331-0.4,0.764-0.4,1.301L55.367,30.382L55.367,30.382z"/>
	<path d="M62.939,30.358c0,0.667-0.148,1.197-0.443,1.591c-0.296,0.392-0.692,0.587-1.188,0.587c-0.586,0-1.035-0.206-1.347-0.617
		v2.187h-0.472v-5.933h0.44l0.024,0.606c0.309-0.457,0.757-0.685,1.342-0.685c0.512,0,0.914,0.194,1.207,0.583
		c0.292,0.388,0.438,0.927,0.438,1.616C62.939,30.292,62.939,30.358,62.939,30.358z M62.464,30.274c0-0.547-0.113-0.978-0.337-1.295
		c-0.224-0.317-0.537-0.475-0.938-0.475c-0.291,0-0.54,0.07-0.748,0.21c-0.208,0.14-0.368,0.343-0.479,0.61v2.056
		c0.113,0.246,0.276,0.433,0.488,0.563c0.212,0.13,0.461,0.194,0.748,0.194c0.398,0,0.71-0.159,0.933-0.477
		C62.353,31.341,62.464,30.879,62.464,30.274z"/>
	<path d="M64.523,27.074v1.098h0.888v0.388h-0.888v2.859c0,0.237,0.042,0.415,0.128,0.532c0.087,0.117,0.23,0.174,0.43,0.174
		c0.079,0,0.207-0.013,0.384-0.04l0.02,0.385c-0.124,0.044-0.293,0.067-0.507,0.067c-0.325,0-0.561-0.094-0.709-0.283
		c-0.148-0.188-0.222-0.467-0.222-0.833v-2.86h-0.788v-0.388h0.788v-1.098L64.523,27.074L64.523,27.074z"/>
	<path d="M66.162,26.934c0-0.089,0.029-0.165,0.088-0.227c0.057-0.062,0.137-0.092,0.237-0.092s0.18,0.031,0.24,0.092
		c0.058,0.062,0.088,0.137,0.088,0.227c0,0.088-0.03,0.164-0.088,0.224c-0.06,0.06-0.139,0.09-0.24,0.09s-0.18-0.03-0.237-0.09
		C66.191,27.098,66.162,27.023,66.162,26.934z M66.72,32.457h-0.475v-4.286h0.475V32.457z"/>
	<path d="M67.543,30.251c0-0.412,0.08-0.782,0.239-1.113c0.16-0.33,0.386-0.587,0.678-0.77c0.292-0.184,0.622-0.276,0.992-0.276
		c0.57,0,1.033,0.2,1.387,0.601c0.354,0.399,0.531,0.93,0.531,1.59v0.099c0,0.414-0.08,0.788-0.239,1.118
		c-0.16,0.332-0.385,0.587-0.676,0.767c-0.291,0.18-0.622,0.269-0.994,0.269c-0.568,0-1.029-0.2-1.385-0.601
		c-0.355-0.399-0.533-0.93-0.533-1.59V30.251z M68.018,30.382c0,0.512,0.133,0.933,0.397,1.261c0.266,0.329,0.614,0.493,1.044,0.493
		c0.427,0,0.775-0.164,1.039-0.493c0.266-0.328,0.398-0.762,0.398-1.301v-0.091c0-0.328-0.061-0.628-0.183-0.899
		s-0.292-0.483-0.511-0.633c-0.219-0.149-0.47-0.223-0.752-0.223c-0.423,0-0.767,0.166-1.034,0.498
		c-0.267,0.331-0.4,0.764-0.4,1.301L68.018,30.382L68.018,30.382z"/>
	<path d="M72.597,28.171l0.016,0.732c0.161-0.264,0.362-0.465,0.602-0.604c0.24-0.137,0.505-0.207,0.796-0.207
		c0.459,0,0.802,0.129,1.026,0.388c0.224,0.259,0.338,0.648,0.341,1.164v2.813h-0.472v-2.816c-0.003-0.382-0.084-0.667-0.243-0.856
		c-0.16-0.187-0.416-0.281-0.767-0.281c-0.293,0-0.553,0.092-0.778,0.276c-0.227,0.183-0.393,0.431-0.502,0.743v2.935h-0.472v-4.286
		H72.597z"/>
	<path d="M78.965,31.368c0-0.235-0.094-0.424-0.283-0.567c-0.188-0.142-0.473-0.254-0.853-0.334
		c-0.38-0.081-0.676-0.173-0.885-0.278c-0.211-0.104-0.366-0.233-0.468-0.382c-0.103-0.151-0.152-0.332-0.152-0.547
		c0-0.338,0.141-0.617,0.424-0.838c0.282-0.221,0.644-0.331,1.085-0.331c0.477,0,0.862,0.118,1.15,0.355
		c0.29,0.236,0.434,0.544,0.434,0.924h-0.475c0-0.251-0.104-0.459-0.315-0.626c-0.209-0.167-0.474-0.249-0.794-0.249
		c-0.312,0-0.562,0.07-0.751,0.207c-0.188,0.139-0.282,0.319-0.282,0.541c0,0.214,0.078,0.379,0.235,0.497
		c0.157,0.118,0.443,0.226,0.86,0.323c0.415,0.098,0.728,0.202,0.935,0.313c0.207,0.111,0.361,0.244,0.461,0.4
		c0.101,0.156,0.151,0.345,0.151,0.567c0,0.362-0.146,0.651-0.438,0.868c-0.293,0.216-0.673,0.325-1.143,0.325
		c-0.499,0-0.904-0.12-1.214-0.362c-0.31-0.241-0.465-0.547-0.465-0.917h0.475c0.018,0.278,0.136,0.493,0.351,0.648
		c0.215,0.155,0.499,0.233,0.853,0.233c0.33,0,0.597-0.072,0.8-0.217C78.864,31.774,78.965,31.589,78.965,31.368z"/>
</g>
<g>
	<path d="M23.474,16.273c-0.103-0.025-0.205-0.051-0.309-0.051L23.114,16.3c0.205,0.411,0.489,0.849,0.489,1.337
		c0,1.362-2.699,3.471-3.985,3.471c-1.851,0-2.031-3.059-2.031-4.37c0-3.522,1.568-7.146,4.087-9.588
		c0.668-0.643,1.645-1.337,2.622-1.337c0.257,0,0.514,0.077,0.72,0.205c-0.514,0.874-0.463,2.262-0.463,3.264
		c0,0.848,0.025,1.723,0.411,2.494c0.308,0.591,0.463,0.797,1.08,1.053c0.104,0.052,0.18,0.077,0.257,0.154
		c0.154-0.205,0.205-0.438,0.205-0.694c0-0.489-0.077-0.952-0.077-1.439c0-1.311,0.18-2.571,0.591-3.805
		c0.025-0.052,0.025-0.077,0.025-0.129c0-0.18-0.18-0.489-0.282-0.643c-0.257-0.36-0.668-0.668-1.028-0.952
		c-0.977-0.771-2.082-1.08-3.316-1.08c-0.746,0-1.466,0.334-2.082,0.72c-3.444,2.159-5.553,6.683-5.553,10.694
		c0,0.643,0.052,1.311,0.154,1.953c0.463,2.699,2.237,5.269,5.219,5.269c1.362,0,2.673-0.591,3.676-1.491
		c0.772-0.694,1.671-1.748,1.671-2.853C25.505,17.43,24.451,16.582,23.474,16.273z M16.457,11.004
		c0.025-0.129,0.051-0.257,0.128-0.386C16.585,10.772,16.585,10.9,16.457,11.004z M18.333,11.261v-0.026h0.025L18.333,11.261z
		 M18.41,11.107c-0.025,0-0.025,0-0.025-0.025h0.025c0.026,0,0.026,0,0.026,0.025H18.41z M18.487,10.979l-0.025-0.026h0.025V10.979z
		 M18.513,8.588l-1.234,2.287c0.025-0.104,0-0.18,0.025-0.282C17.407,10.258,18.23,8.716,18.513,8.588z M18.153,7.842l0.052-0.026
		c-0.129,0.334-1.362,2.494-1.594,2.725C16.945,9.538,17.484,8.638,18.153,7.842z M16.919,11.749h-0.025
		c0-0.026,0-0.077,0.025-0.104c0.026,0,0.026,0,0.052,0.026L16.919,11.749z M16.996,11.364l0.154-0.232l-0.077,0.257L16.996,11.364z
		 M17.099,13.471c0.411-2.185,1.311-4.164,2.879-5.758c-0.025,0.077-0.052,0.18-0.104,0.257c-1.234,1.799-1.876,2.956-2.596,5.038
		C17.228,13.163,17.176,13.318,17.099,13.471z M24.297,18.921c-0.025,0.026-0.025,0.077-0.025,0.104
		c-0.026-0.026-0.026-0.077-0.026-0.104H24.297z M24.245,19.05l-0.205,0.282C24.066,19.205,24.091,19.075,24.245,19.05z
		 M23.577,19.127v-0.052c0.077-0.128,0.154-0.282,0.257-0.411C23.834,18.947,23.628,18.998,23.577,19.127z M23.86,18.587v-0.051
		h0.025C23.885,18.562,23.885,18.562,23.86,18.587z M24.014,20.155l0.077-0.051l0.694-1.259
		C24.76,19.178,24.426,20.129,24.014,20.155z"/>
	<path d="M31.214,12.649c-1.131,0-2.108,1.491-2.724,2.288l-0.463-0.206c-1.234,0-2.314,2.853-2.314,3.908v0.308
		c0,1.595,1.182,2.93,2.802,2.93c0.18,0,0.36-0.025,0.54-0.051c0.617-0.104,1.028-0.438,1.465-0.849
		c1.465-1.362,3.11-3.778,3.11-5.861C33.63,14.011,32.319,12.649,31.214,12.649z M30.828,14.037c0.025,0,0.025-0.025,0.051-0.025
		h0.026v0.025c-0.591,0.591-1.054,1.259-1.568,1.928C29.466,15.296,30.289,14.423,30.828,14.037z M29.492,14.962
		c0-0.102,0.334-0.436,0.437-0.539C29.8,14.603,29.621,14.757,29.492,14.962z M30.263,13.497h0.052
		c-0.232,0.205-1.08,1.053-1.157,1.259l-0.077,0.051C29.415,14.319,29.8,13.882,30.263,13.497z M28.18,15.657l-0.025,0.051
		c-0.026,0.18-0.54,0.977-0.668,1.157C27.641,16.429,27.846,15.991,28.18,15.657z M27.821,15.528
		c-0.026,0.129-0.129,0.283-0.232,0.361L27.821,15.528z M27.564,15.323l-0.411,0.462C27.255,15.606,27.358,15.425,27.564,15.323z
		 M27.332,17.276v-0.051h0.051C27.358,17.25,27.358,17.276,27.332,17.276z M27.564,20.669c-0.104-0.361-0.129-0.719-0.129-1.08
		c0-1.028,0.36-2.006,0.746-2.956c0.386,0.489,0.72,1.053,1.439,1.053c0.104,0,0.205-0.077,0.257-0.154
		c-0.205-0.154-0.361-0.361-0.361-0.617c0-0.823,1.773-2.957,2.622-2.957c0.052,0.103,0.077,0.232,0.077,0.334
		c0,0.18-0.052,0.334-0.077,0.514C31.728,17.096,29.903,20.026,27.564,20.669z M30.597,18.973c0-0.104,0.438-0.617,0.566-0.797
		C31.008,18.484,30.828,18.767,30.597,18.973z M30.983,19.101l0.591-0.796c-0.154,0.282-0.385,0.539-0.566,0.823h-0.025V19.101z
		 M32.011,18.87h-0.026l0.026-0.026V18.87z M30.546,20.258c0.025-0.104,0.103-0.18,0.154-0.257c0.643-0.823,1.259-1.645,1.748-2.571
		C32.474,18.228,31.06,19.667,30.546,20.258z"/>
	<path d="M43.503,13.086c0-0.591-0.952-1.105-1.439-1.182c-0.282,0.077-0.463,0.282-0.668,0.489
		c-0.643,0.694-1.259,1.414-1.877,2.134c-1.594,1.851-2.956,3.856-4.396,5.835l-0.051-0.026c0.514-1.491,1.516-4.652,1.516-6.144
		c0-0.719-0.438-1.388-1.054-1.696c-0.051-0.026-0.308-0.154-0.36-0.154c-0.103,0-0.205,0-0.257,0.129
		c0.026,0.129,0.077,0.257,0.077,0.386c0,0.694-0.232,1.465-0.437,2.108c-0.411,1.414-1.311,4.473-1.311,5.861
		c0,0.772,0.771,1.465,1.516,1.465c0.18,0,0.257-0.025,0.411-0.154c0.668-0.591,1.98-2.802,2.519-3.676
		c0.848-1.363,1.799-2.776,2.93-3.933c0.077-0.077,0.154-0.104,0.232-0.154c-0.282,0.745-0.617,1.466-0.848,2.237
		c-0.489,1.568-1.286,3.778-1.286,5.399c0,1.208,0.282,2.442,1.748,2.442c0.154,0,0.257-0.104,0.257-0.257
		c-0.232-0.128-0.308-0.36-0.308-0.617c0-1.723,1.851-6.941,2.545-8.74C43.092,14.474,43.503,13.42,43.503,13.086z M42.475,13.163
		L42.5,13.19l-0.025,0.077V13.163z M42.321,13.6c-0.103,0.282-0.257,0.566-0.385,0.848C42.037,14.14,42.141,13.857,42.321,13.6z
		 M42.012,13.266c-0.257,0.514-0.54,1.028-0.771,1.542l-0.077,0.052v0.205l-0.077-0.026l0.077-0.179
		c0.257-0.591,0.514-1.183,0.849-1.723L42.012,13.266L42.012,13.266z M36.306,20.078l-0.104,0.129
		c0.025-0.104,0.129-0.233,0.205-0.31C36.383,19.95,36.331,20.001,36.306,20.078z M36.023,19.539c0.103-0.18,0.232-0.386,0.385-0.54
		C36.279,19.178,36.177,19.358,36.023,19.539z M37.72,17.019c1.105-1.568,2.365-3.007,3.676-4.395l0.052,0.051l-0.077,0.104
		c-1.311,1.619-2.802,3.084-3.959,4.806c-0.18,0.257-0.309,0.54-0.514,0.772c-0.103,0.128-0.205,0.18-0.257,0.334l-0.103,0.128
		C36.845,18.176,37.308,17.61,37.72,17.019z M37.231,18.278v-0.051h0.052c0,0,0.052,0.025,0.077,0.025
		c-0.025,0.026-0.052,0.026-0.077,0.026v0.154h-0.104c0,0.026,0,0.077-0.025,0.104c-0.025-0.026-0.025-0.052-0.025-0.077v-0.077
		l0.051,0.025c0.026,0,0.077,0,0.104,0.026C37.283,18.406,37.231,18.278,37.231,18.278z M37.05,18.639l-0.025,0.077h-0.129
		c0.026-0.026,0.052-0.077,0.052-0.104h0.077L37.05,18.639z M36.588,19.41h-0.026l0.026-0.025V19.41z M36.639,19.539
		c0.104-0.233,0.257-0.438,0.438-0.643C36.948,19.127,36.794,19.333,36.639,19.539z M37.128,19.101V19.05l0.025,0.025L37.128,19.101
		z M37.077,18.87c0.077-0.206,0.232-0.361,0.334-0.54C37.334,18.535,37.206,18.716,37.077,18.87z M37.488,18.099
		c-0.077,0-0.104,0.052-0.104,0.129c-0.025-0.026-0.025-0.077-0.025-0.104v-0.077l0.052,0.026
		C37.436,18.073,37.462,18.073,37.488,18.099c0-0.051,0-0.104-0.026-0.154v-0.051h0.026c0,0,0.052,0.025,0.077,0.025l-0.052,0.026
		C37.513,17.995,37.513,18.048,37.488,18.099z M37.591,18.124l-0.051,0.051l0.077-0.154L37.591,18.124z M37.977,17.739v-0.052
		l0.025-0.026C38.002,17.687,38.002,17.714,37.977,17.739z M37.951,17.661v0.026c-0.052,0.026-0.104,0.052-0.154,0.104l0.205-0.308
		C38.002,17.533,37.977,17.636,37.951,17.661z M39.416,15.785c-0.077,0.052-0.309,0.361-0.334,0.438l-0.129,0.128h-0.051
		l-0.104,0.155l0.052,0.025c-0.052,0.026-0.077,0.077-0.104,0.129l-0.077,0.051c-0.052,0.154-0.154,0.283-0.257,0.411h-0.051
		l-0.18,0.104c0.052-0.077,0.077-0.154,0.103-0.257c-0.282,0.334-0.462,0.566-0.694,0.925l-0.025-0.104v-0.077
		c1.028-1.491,2.159-2.905,3.444-4.19c-0.282,0.36-1.542,1.723-1.671,2.03c0.334-0.232,0.566-0.566,0.848-0.874v0.104l0.052,0.025
		C40.084,14.885,39.468,15.63,39.416,15.785z M40.752,14.218c-0.128,0.077-0.18,0.18-0.282,0.282c-0.103,0-0.154,0.051-0.232,0.104
		l1.002-1.106l-0.282,0.386C40.959,14.037,40.804,14.089,40.752,14.218z M41.061,15.194v0.052h-0.025
		C41.036,15.219,41.061,15.219,41.061,15.194z M40.907,15.657l-0.026,0.026v-0.026H40.907z M40.059,21.903h-0.025v-0.077h0.025
		V21.903z M40.136,21.672l-0.077-0.026l0.18-0.643C40.213,21.235,40.187,21.441,40.136,21.672z M40.341,20.797
		c-0.025,0.052-0.051,0.104-0.103,0.154c0.591-2.365,1.62-5.68,2.699-7.839l0.077,0.025c-0.489,1.388-1.08,2.724-1.568,4.113
		C41.036,18.406,40.779,19.64,40.341,20.797z"/>
	<path d="M59.009,15.194c-0.438-0.847-1.337-1.644-2.338-1.644c-1.954,0-3.265,3.547-3.265,5.192c0,0.261,0.043,0.522,0.105,0.779
		l-0.108,0.199h0.026l-0.052,0.102h0.026c-0.077,0.129-0.18,0.257-0.232,0.386c-0.077,0.205-0.283,0.36-0.334,0.566l-0.051,0.102
		l-0.077,0.052l-0.052,0.104v-0.104c-0.18,0.128-0.205,0.257-0.282,0.462h0.051l0.026-0.025v0.025h-0.026
		c-0.077,0.129-0.205,0.283-0.232,0.411l-0.026-0.104l-0.18,0.129l0.233-0.438l-0.823,0.952c0.462-0.952,1.311-1.799,1.851-2.725
		l-0.128,0.128c-0.129,0.129-0.233,0.334-0.334,0.463c-0.411,0.513-0.823,1.079-1.286,1.542c0,0.025,0,0.025-0.025,0.025v-0.025
		h0.025c0.232-0.54,0.695-0.952,1.029-1.44h-0.052c-0.256,0.283-0.513,0.643-0.847,0.849c0-0.823,1.131-4.01,1.465-4.935
		c0.051-0.154,0.128-0.334,0.128-0.514c0-0.128-0.102-0.205-0.232-0.232c-0.282,0.539-0.489,1.131-0.746,1.696
		c0,0.052-0.051,0.078-0.077,0.104c0.232-0.617,0.463-1.234,0.668-1.876l-0.128-0.051v0.025l-0.104,0.052l0.026-0.18
		c-0.026-0.026-0.078-0.077-0.129-0.077c-0.077,0-0.128,0.051-0.154,0.104l-0.077,0.051l-0.026,0.128l-0.077,0.026
		c0.104-0.104,0.052-0.077,0.104-0.18l0.077-0.025l-0.026-0.257c-0.591,0.232-0.668,0.771-1.131,1.181l-2.468,2.21l-0.411,0.31
		l-0.051-0.052c0.746-1.67,1.67-3.753,3.521-4.395l0.746,0.205c0.025-0.051,0.051-0.103,0.051-0.154
		c0-0.077-0.051-0.154-0.104-0.205c-0.462-0.437-1.002-0.796-1.645-0.796c-0.643,0-1.285,0.36-1.799,0.719
		c-1.234,0.874-2.853,3.624-2.853,5.141c0,0.719,0.951,1.311,1.595,1.311c0.9,0,1.645-1.08,2.185-1.645l0.874-0.9
		c-0.282,1.362-0.59,2.725-0.59,4.113c0,0.719,0.411,0.772,0.977,0.977c0.824-0.655,1.712-2.045,2.355-3.269
		c0.349,1.089,1.234,2.009,2.454,2.009c0.695,0,2.109-0.694,2.494-1.285c0.077-0.104,0.104-0.232,0.18-0.334
		c-0.077-0.026-0.154-0.051-0.206-0.128l-0.205,0.205l0.077-0.232l-0.462-0.361c-0.129,0.052-0.257,0.104-0.361,0.18
		c-0.695,0.463-1.285,0.849-2.159,0.925c-0.026-0.104-0.051-0.18-0.051-0.283c0-1.851,0.36-4.087,1.953-5.269
		c0.18-0.128,0.361-0.154,0.566-0.154h0.18c-0.154,0.361-0.257,0.721-0.257,1.106c0,0.823,0.514,1.439,1.337,1.542
		c-0.051-0.257-0.18-0.489-0.18-0.746c0-0.436,0.206-0.823,0.206-1.259C59.138,15.502,59.086,15.348,59.009,15.194z M52.4,15.837
		l-0.102,0.205c0-0.026-0.026-0.077-0.026-0.077C52.272,15.887,52.323,15.862,52.4,15.837z M52.014,17.867l-0.026,0.051
		c0-0.051,0-0.102,0.026-0.128V17.867z M52.066,15.63l-0.205,0.385C51.886,15.887,51.989,15.708,52.066,15.63z M51.886,18.253
		c-0.026,0.18-0.052,0.361-0.18,0.514C51.757,18.587,51.81,18.433,51.886,18.253z M51.68,18.793h0.026l-0.052,0.104L51.68,18.793z
		 M51.655,18.998v0.129h-0.025C51.629,19.075,51.629,19.05,51.655,18.998z M51.527,19.539v0.077L51.5,19.564L51.527,19.539z
		 M51.399,20.026h0.025v0.051h-0.025V20.026z M48.853,15.476v0.026h-0.026C48.827,15.476,48.827,15.476,48.853,15.476z
		 M48.751,15.657v0.026h-0.052C48.724,15.682,48.724,15.682,48.751,15.657z M48.621,15.014h0.026l-0.077,0.051L48.621,15.014z
		 M47.028,17.764h-0.026c0-0.025,0.026-0.051,0.026-0.077V17.764z M47.105,17.482c0.18-0.489,0.977-1.876,1.336-2.237l0.052-0.104
		c0,0.129-0.232,0.411-0.308,0.514c-0.361,0.539-0.668,1.157-1.002,1.723C47.183,17.43,47.13,17.456,47.105,17.482z M48.441,16.042
		v0.052c-0.282,0.462-0.59,0.9-0.847,1.388C47.824,16.942,48.108,16.505,48.441,16.042z M47.413,17.893
		c0.051-0.052,0.051-0.154,0.104-0.18l-0.077,0.18H47.413z M47.49,19.205h-0.026c0-0.026,0-0.077,0.026-0.104V19.205z M47.594,18.87
		c-0.026,0.077-0.052,0.128-0.104,0.18c0.077-0.283,0.128-0.591,0.232-0.874c0.257-0.746,1.234-2.57,1.902-2.982
		C48.751,16.248,48.081,17.584,47.594,18.87z M51.527,22.468l0.18-0.232C51.706,22.365,51.604,22.392,51.527,22.468z M51.732,22.211
		l0.155-0.232c0,0.051-0.026,0.104-0.026,0.154L51.732,22.211z M52.014,22.083h-0.051c0.025,0,0.025-0.026,0.051-0.026V22.083z
		 M52.118,21.877h-0.026l0.077-0.051h0.026L52.118,21.877z M56.027,14.911c-0.128,0.154-0.282,0.282-0.436,0.438
		C55.59,15.194,55.873,14.911,56.027,14.911z M55.025,15.272c0.102-0.155,0.489-0.746,0.667-0.746
		C55.565,14.731,55.23,15.168,55.025,15.272z M55.565,16.402c-0.104,0.154-0.18,0.205-0.232,0.385h-0.026
		c0.154-0.438,0.695-1.568,1.131-1.748l0.233-0.077h0.025C56.207,15.4,55.924,15.862,55.565,16.402z M58.264,15.373h-0.025
		c0-0.025,0-0.025,0.025-0.051V15.373z"/>
	<path d="M58.392,19.95c0,0.025-0.026,0.025-0.026,0.051h0.026V19.95z"/>
	<path d="M78.089,17.426c-0.015-0.007-0.029-0.003-0.042,0.011c-0.014,0.014-0.014,0.025,0,0.031
		c0.013,0.008,0.027,0.003,0.042-0.011C78.102,17.444,78.102,17.434,78.089,17.426z"/>
	<path d="M78.089,17.605c0.027,0,0.041-0.009,0.041-0.031c0-0.021-0.014-0.038-0.041-0.052c-0.029,0-0.042,0.009-0.042,0.031
		C78.047,17.574,78.06,17.593,78.089,17.605z"/>
	<path d="M83.525,16.751c-0.077-0.035-0.172-0.027-0.284,0.022c-0.113,0.05-0.204,0.136-0.275,0.264
		c-0.071,0.113-0.218,0.374-0.444,0.781c-0.225,0.408-0.499,0.844-0.823,1.308c-0.029-0.45-0.184-0.907-0.464-1.371
		c-0.282-0.464-0.718-0.908-1.31-1.33c-0.028-0.028-0.113-0.088-0.253-0.179c-0.141-0.092-0.226-0.152-0.254-0.18
		c-0.168-0.113-0.271-0.218-0.306-0.317c-0.035-0.098-0.021-0.176,0.042-0.233c0.063-0.056,0.165-0.088,0.306-0.094
		c0.141-0.007,0.303,0.017,0.486,0.073c0.085,0.028,0.179,0.071,0.284,0.127c0.106,0.056,0.2,0.126,0.285,0.211
		c0.085,0.085,0.144,0.176,0.179,0.275c0.036,0.099,0.025,0.212-0.031,0.338c0.071-0.056,0.113-0.134,0.127-0.233
		c0.014-0.098-0.014-0.19-0.085-0.275c0.141,0.155,0.186,0.293,0.137,0.412c-0.05,0.12-0.186,0.186-0.412,0.2
		c0.254,0.099,0.492,0.136,0.718,0.116c0.225-0.022,0.425-0.081,0.601-0.18c0.176-0.098,0.317-0.228,0.422-0.391
		c0.106-0.162,0.172-0.341,0.2-0.538c0.028,0.155,0.028,0.311,0,0.464c0.127-0.393,0.158-0.725,0.095-0.992
		c-0.064-0.267-0.194-0.486-0.391-0.655c-0.198-0.168-0.447-0.296-0.75-0.38c-0.303-0.085-0.631-0.14-0.982-0.168
		c-0.731-0.056-1.355-0.007-1.868,0.148c-0.514,0.155-0.885,0.37-1.109,0.644c-0.226,0.276-0.296,0.599-0.211,0.971
		c0.084,0.374,0.358,0.758,0.823,1.151c0.056,0.028,0.13,0.081,0.222,0.158c0.091,0.077,0.165,0.13,0.221,0.158
		c0.492,0.324,0.851,0.682,1.077,1.077c0.225,0.393,0.352,0.774,0.38,1.14c0.028,0.438-0.021,0.793-0.148,1.066
		c-0.127,0.275-0.299,0.485-0.518,0.633c-0.218,0.148-0.457,0.233-0.717,0.253c-0.261,0.022-0.51-0.011-0.75-0.094
		c-0.239-0.085-0.45-0.218-0.633-0.402c-0.184-0.184-0.311-0.402-0.381-0.654c-0.071-0.267-0.073-0.528-0.009-0.781
		c0.063-0.254,0.158-0.486,0.284-0.697c0.127-0.212,0.278-0.402,0.455-0.569c0.176-0.169,0.341-0.311,0.496-0.424
		c-0.071,0.014-0.137,0.029-0.2,0.042c-0.063,0.014-0.13,0.05-0.2,0.106c0.071-0.099,0.151-0.18,0.243-0.243
		c0.091-0.064,0.186-0.108,0.285-0.137c-0.056-0.056-0.127-0.08-0.212-0.073c-0.085,0.008-0.148,0.025-0.19,0.053
		c0.056-0.056,0.134-0.095,0.232-0.116c0.099-0.022,0.183-0.003,0.253,0.053c-0.056-0.113-0.168-0.265-0.338-0.455
		c-0.169-0.19-0.296-0.313-0.38-0.369c-0.071-0.042-0.162-0.059-0.275-0.053c-0.113,0.008-0.226,0.059-0.338,0.158
		c-0.478,0.45-0.826,0.943-1.045,1.478c-0.178,0.436-0.255,0.859-0.275,1.275c-0.518,0.627-1.241,1.421-1.602,1.421
		c-0.154,0-0.154-0.154-0.154-0.257c0-0.026,0.077-0.257,0.077-0.282c0.436-1.62,0.746-3.316,1.311-4.911
		c0.154-0.411,0.489-1.028,0.489-1.439c0,0-0.026-0.052-0.026-0.077l-0.077,0.104c-0.051,0-0.104-0.025-0.128-0.077h-0.052
		l-0.18,0.18l0.078-0.282c-0.233-0.052-0.489-0.257-0.695-0.257c-0.154,0-0.462,0.205-0.566,0.334
		c-0.695,0.848-0.9,2.005-1.542,2.854c-0.925,1.234-1.825,2.468-2.956,3.548c0.154-1.311,0.36-2.648,0.771-3.908
		c0.129-0.36,0.823-2.262,0.823-2.442c0-0.052-0.026-0.129-0.051-0.18l-0.206-0.103l-0.232,0.103c0,0.104,0.026,0.206-0.026,0.309
		c-0.617,1.466-1.157,2.878-1.465,4.447c0,0.052-0.025,0.077-0.051,0.104c0.128-1.465,0.849-3.572,1.542-4.858l0.077-0.282
		c-0.077,0.026-0.257,0-0.308,0.104v-0.232c-0.206-0.025-0.462-0.154-0.514-0.154c-0.104,0-0.18,0.077-0.257,0.154
		c-1.234,1.286-2.03,4.782-2.03,6.479c0,0.667,0.051,1.259,0.643,1.67c0.334,0.232,0.719,0.361,1.131,0.361
		c0.31,0,0.514-0.077,0.721-0.283c0.746-0.694,1.362-1.542,1.953-2.391c0,0.54-0.051,1.106-0.051,1.645
		c0,0.9,0.539,1.467,1.439,1.467c0.93,0,1.669-0.964,2.22-1.835c0.069,0.225,0.163,0.441,0.287,0.643
		c0.253,0.416,0.604,0.729,1.055,0.939c0.478,0.211,0.974,0.32,1.489,0.327c0.513,0.008,0.96-0.066,1.341-0.221
		c0.393-0.127,0.791-0.383,1.193-0.771c0.4-0.388,0.771-0.816,1.108-1.288c0.339-0.471,0.637-0.943,0.897-1.414
		c0.261-0.473,0.454-0.849,0.581-1.13c0.099-0.198,0.134-0.352,0.105-0.464C83.654,16.865,83.603,16.786,83.525,16.751z
		 M80.823,15.716c-0.162-0.134-0.342-0.235-0.538-0.306c-0.198-0.071-0.388-0.12-0.569-0.148c-0.072-0.011-0.129-0.018-0.184-0.025
		c0.429,0.014,0.809,0.095,1.113,0.278c0.352,0.212,0.513,0.458,0.485,0.739C81.086,16.03,80.985,15.851,80.823,15.716z
		 M80.221,15.156c0.267,0.028,0.489,0.089,0.665,0.18c0.177,0.091,0.25,0.179,0.222,0.264c-0.099-0.113-0.24-0.207-0.422-0.285
		C80.503,15.239,80.347,15.184,80.221,15.156z M80.421,15.062c0.12,0.021,0.24,0.049,0.36,0.085c0.12,0.036,0.221,0.081,0.306,0.137
		c0.085,0.056,0.134,0.12,0.149,0.189c-0.029-0.056-0.12-0.13-0.275-0.221c-0.155-0.091-0.438-0.165-0.845-0.221
		C80.2,15.031,80.302,15.041,80.421,15.062z M75.259,14.346h0.025l-0.025,0.025V14.346z M70.759,14.062l0.026,0.026h-0.026V14.062z
		 M70.502,14.731v0.026h-0.025L70.502,14.731z M70.117,13.909h0.026c-0.026,0.052-0.077,0.104-0.129,0.154
		C70.014,13.985,70.014,13.909,70.117,13.909z M69.501,15.245h-0.026c0-0.026,0-0.052,0.026-0.077V15.245z M69.629,13.882
		c0.026-0.052,0-0.154,0.077-0.154l0.051,0.025C69.706,13.78,69.68,13.832,69.629,13.882l-0.514,1.002
		C69.217,14.526,69.397,14.166,69.629,13.882z M68.78,15.887h-0.025v-0.026h0.025V15.887z M69.012,18.818
		c0.025-0.077,0.025-0.179,0.025-0.256c0.026,0.102,0.026,0.179,0.026,0.282L69.012,18.818z M71.377,18.587l-0.026-0.025h0.026
		V18.587z M75.13,14.166c-0.104,0.282-0.077,0.205-0.308,0.361L75.13,14.166z M74.796,14.603v0.051H74.77
		C74.77,14.628,74.796,14.628,74.796,14.603z M73.588,16.838c0.026,0,0.026,0,0.051,0.026l-0.051,0.077V16.838z M73.484,17.225
		h0.026l-0.026,0.077V17.225z M73.202,18.228h0.025v0.051h-0.025V18.228z M72.303,17.225c0.051-0.154,0.102-0.334,0.308-0.361
		L72.303,17.225z M72.765,18.124l-0.026-0.051c0.026-0.026,0.026-0.026,0.052-0.026L72.765,18.124z M73.177,20.515
		c0.104-1.029,0.9-4.577,1.465-5.296v-0.051h0.026c-0.026,0.025-0.026,0.025-0.026,0.051c-0.308,1.259-0.694,2.494-1.053,3.754
		C73.433,19.486,73.33,20.001,73.177,20.515z M80.115,18.038c0.071,0.106,0.13,0.233,0.18,0.38c0.049,0.149,0.088,0.304,0.116,0.466
		c0.028,0.162,0.035,0.313,0.021,0.454c0-0.113-0.014-0.247-0.042-0.402c-0.028-0.154-0.066-0.306-0.116-0.454
		c-0.049-0.148-0.105-0.281-0.168-0.402c-0.064-0.12-0.137-0.207-0.222-0.264C79.967,17.859,80.044,17.934,80.115,18.038z
		 M80.032,18.831c-0.113-0.38-0.262-0.704-0.444-0.971c-0.184-0.267-0.366-0.473-0.549-0.612c-0.184-0.141-0.289-0.218-0.317-0.233
		c0.127,0.042,0.289,0.155,0.486,0.338c0.197,0.184,0.38,0.416,0.549,0.697c0.168,0.282,0.292,0.598,0.369,0.951
		c0.077,0.352,0.053,0.725-0.073,1.119C80.151,19.64,80.143,19.211,80.032,18.831z M80.569,20.077
		c-0.022,0.211-0.067,0.411-0.137,0.601c-0.071,0.19-0.184,0.313-0.338,0.37c0.127-0.085,0.225-0.207,0.296-0.37
		c0.071-0.162,0.12-0.338,0.148-0.527s0.04-0.377,0.033-0.56c-0.008-0.183-0.019-0.344-0.033-0.485
		c0.014,0.071,0.028,0.198,0.042,0.38C80.594,19.669,80.59,19.865,80.569,20.077z"/>
	<path d="M78.362,17.458c-0.014-0.071-0.052-0.094-0.116-0.073c-0.063,0.022-0.116,0.053-0.157,0.095
		c0.027,0.028,0.084,0.049,0.168,0.063C78.341,17.557,78.376,17.529,78.362,17.458z"/>
	<path d="M47.348,10.906c0.81-0.124,2.81-0.289,3.327-0.867c-0.135-0.021-0.315-0.062-0.315-0.227
		c-0.292-0.351-0.404-0.434-0.876-0.434c-0.406,0-0.787,0-1.169,0.083c-0.157,0.041-0.337,0.021-0.494,0.041
		c0,0,0.809-2.126,0.809-2.209c0-0.185-0.224-0.289-0.359-0.393L48.09,6.942V6.736l-0.248-0.082l-0.18,0.145l0.112-0.289
		l-0.18,0.021l-0.09-0.124c-0.112,0.124-0.202,0.248-0.337,0.372l0.157-0.33l-0.27-0.124c-0.202,0-0.293,0.124-0.381,0.268
		c-0.315,0.495-0.675,1.011-0.922,1.548c-0.314,0.702-0.764,1.321-1.259,1.92c-0.494,0.104-1.012,0.144-1.506,0.268
		c-0.225,0.062-0.27,0.124-0.314,0.33l0.202,0.104l-0.023,0.124c0.157,0.185,0.449,0.393,0.674,0.454l-0.023,0.021
		c0.224,0,0.472-0.021,0.697-0.021c0.068,0,0.27,0,0.27,0.104c0,0.144-0.068,0.268-0.09,0.412c-0.089,0.578-0.248,1.156-0.36,1.734
		c-0.112,0.495-0.157,1.012-0.248,1.507c-0.36,2.147-0.674,4.355-0.674,6.523c0,0.722,0,2.126,0.832,2.519
		c0.269,0.123,0.562,0.185,0.831,0.311l0.136-0.186c0.023,0.041,0.045,0.104,0.112,0.104c0.157,0,0.449-0.062,0.449-0.248
		c0-0.063,0-0.104-0.023-0.166c-0.135-0.516-0.225-1.074-0.225-1.611c0-1.341,0.18-2.704,0.405-4.025
		C46.067,15.819,46.54,13.321,47.348,10.906z M47.123,6.84v0.041l-0.112,0.185C47.034,6.984,47.078,6.922,47.123,6.84z
		 M46.989,8.016h0.068l-0.068,0.041V8.016z M47.505,8.141c0.068-0.083,0.157-0.165,0.225-0.268
		c-0.225,0.557-0.404,1.094-0.629,1.631c-0.023,0.082-0.068,0.165-0.181,0.165h-0.044C46.877,9.503,47.393,8.326,47.505,8.141z
		 M46.921,10.989v0.082c0,0.062-0.022,0.124-0.089,0.145L46.921,10.989z M43.729,19.741h-0.023v-0.268h0.023V19.741z M45.64,16.191
		v-0.104h0.023c0.023,0.04,0.023,0.062,0.023,0.104H45.64z M45.73,15.839h-0.023v-0.083h0.023V15.839z M45.797,15.592h-0.045
		l0.023-0.145h0.023C45.797,15.447,45.797,15.592,45.797,15.592z M45.82,15.282v-0.124h0.022c0.023,0.041,0.023,0.083,0.023,0.124
		H45.82z M45.909,15.014h-0.022v-0.165h0.022C45.909,14.849,45.909,15.014,45.909,15.014z M45.977,14.725
		c-0.022,0-0.022,0-0.044-0.021l0.023-0.123h0.022C45.977,14.581,45.977,14.725,45.977,14.725z M46.022,14.457h-0.023v-0.145h0.023
		V14.457z M46.09,14.168h-0.023v-0.124h0.023V14.168z M46.156,13.92l-0.044-0.021l0.044-0.103V13.92z M46.18,13.735
		c0-0.041-0.023-0.062-0.023-0.104c0-0.041,0.044-0.082,0.09-0.082L46.18,13.735z M46.247,13.528c0-0.041-0.023-0.062-0.023-0.104
		c0-0.062,0.044-0.083,0.09-0.104L46.247,13.528z M46.315,13.301c-0.023-0.062-0.023-0.124-0.023-0.186h0.044
		C46.336,13.176,46.315,13.239,46.315,13.301z M46.381,12.991h-0.045c0-0.041,0.023-0.062,0.045-0.104V12.991z M46.404,12.806
		l-0.022,0.021c0-0.021,0-0.041,0.022-0.062V12.806z M46.809,11.443l-0.068,0.144c0.022-0.083,0.022-0.144,0.068-0.227V11.443z
		 M46.628,11.897c0-0.082,0.045-0.165,0.113-0.227c-0.045,0.124-0.068,0.227-0.09,0.351v0.021h-0.023
		c-0.022,0.104-0.068,0.227-0.112,0.33v0.021l-0.045,0.165c0-0.062,0.023-0.104,0.023-0.165l0.023-0.021c0-0.124,0-0.248,0.112-0.33
		l0.023-0.021C46.628,11.98,46.628,11.939,46.628,11.897z M46.54,9.151c-0.045,0.206-0.069,0.434-0.248,0.599
		C46.336,9.543,46.359,9.316,46.54,9.151z M46.022,11.463h0.022c0,0.021,0,0.021-0.022,0.041V11.463z M45.955,11.65l0.044,0.021
		l-0.044,0.104V11.65z M44.875,9.956c0-0.041,0.045-0.083,0.09-0.083l-0.09,0.124V9.956z M43.819,18.853h-0.023v-0.248h0.023V18.853
		z M43.886,18.255h-0.045l0.225-1.713l0.068,0.021C44.043,17.12,43.954,17.698,43.886,18.255z M44.156,16.272
		c0-0.661,0.742-4.582,1.057-5.037c-0.473,1.692-0.742,3.427-1.057,5.14V16.272z M44.201,20.34h-0.023v-0.206h0.023V20.34z
		 M44.224,19.824h-0.023v-0.041h0.023V19.824z M44.268,19.39h-0.023l0.023-0.393h0.023L44.268,19.39z M44.359,18.791h-0.045
		c0-0.103,0.023-0.185,0.023-0.288h0.023C44.359,18.503,44.359,18.791,44.359,18.791z M44.403,18.151
		c0-0.846,1.034-6.565,1.438-7.039c-0.269,1.197-0.562,2.374-0.809,3.57c-0.248,1.178-0.427,2.374-0.63,3.571V18.151z
		 M45.909,12.021l-0.044,0.083l-0.023-0.021L45.909,12.021z M45.82,12.268v0.062h-0.045L45.82,12.268z M45.707,12.723v0.062h-0.023
		v-0.062H45.707z M45.64,12.991v0.041h-0.023L45.64,12.991z M45.595,13.197l-0.023,0.104h-0.023
		c0.023-0.041,0.023-0.062,0.023-0.104H45.595z M45.527,13.466v0.062h-0.023v-0.062H45.527z M45.01,20.567h-0.023v-0.062h0.023
		V20.567z M45.078,19.948h-0.023c0-0.041,0-0.083,0.023-0.104V19.948z M45.167,19.267h-0.023v-0.062h0.023V19.267z M44.584,22.59
		c-0.045-0.311-0.045-0.64-0.045-0.95c0-1.796,0.314-3.612,0.607-5.387c0.314-1.734,0.652-3.509,1.214-5.203l0.202-0.021
		C45.483,14.807,44.762,18.689,44.584,22.59z M45.235,18.791h-0.023v-0.083h0.023V18.791z M45.28,18.358v-0.083h0.023L45.28,18.358z
		 M45.347,17.966c-0.023-0.021-0.023-0.062-0.023-0.083h0.023c0,0.021,0,0.062,0.023,0.083H45.347z M45.415,17.615h-0.023V17.47
		h0.023V17.615z M45.483,17.201H45.46V17.12h0.023V17.201z M45.55,16.871h-0.023v-0.164h0.023V16.871z M45.572,16.397h0.045v0.124
		h-0.045V16.397z"/>
	<path d="M66.031,9.578c-0.273-0.328-0.377-0.405-0.817-0.405c-0.378,0-0.734,0-1.091,0.077c-0.147,0.039-0.314,0.019-0.461,0.039
		c0,0,0.754-1.983,0.754-2.061c0-0.173-0.209-0.269-0.335-0.366l-0.168,0.039V6.709l-0.231-0.077l-0.168,0.135l0.104-0.27
		l-0.168,0.02L63.368,6.4c-0.104,0.116-0.188,0.232-0.314,0.346l0.147-0.308l-0.252-0.116c-0.188,0-0.273,0.116-0.356,0.25
		c-0.294,0.462-0.63,0.943-0.86,1.444c-0.293,0.655-0.713,1.232-1.174,1.791c-0.461,0.096-0.944,0.135-1.405,0.25
		c-0.21,0.057-0.252,0.116-0.294,0.308l0.188,0.096l-0.02,0.117c0.147,0.173,0.419,0.366,0.629,0.424l-0.021,0.019
		c0.209,0,0.44-0.019,0.649-0.019c0.063,0,0.252,0,0.252,0.096c0,0.135-0.063,0.25-0.084,0.385
		c-0.084,0.539-0.231,1.079-0.335,1.618c-0.104,0.462-0.147,0.944-0.231,1.405c-0.335,2.003-0.629,4.063-0.629,6.085
		c0,0.674,0,1.983,0.776,2.349c0.251,0.116,0.524,0.173,0.776,0.289l0.126-0.174c0.021,0.039,0.042,0.097,0.104,0.097
		c0.147,0,0.419-0.057,0.419-0.231c0-0.058,0-0.097-0.021-0.154c-0.126-0.481-0.21-1.002-0.21-1.502
		c0-1.251,0.168-2.523,0.377-3.755c0.419-2.33,0.86-4.659,1.614-6.913c0.755-0.116,2.622-0.269,3.103-0.809
		C66.2,9.77,66.031,9.731,66.031,9.578z M59.846,18.84h-0.021v-0.25h0.021V18.84z M62.467,8.961
		c-0.042,0.193-0.064,0.405-0.231,0.558C62.278,9.328,62.299,9.116,62.467,8.961z M61.984,11.118h0.021c0,0.02,0,0.02-0.021,0.039
		V11.118z M61.922,11.292l0.041,0.019l-0.041,0.096V11.292z M60.915,9.712c0-0.039,0.042-0.077,0.084-0.077l-0.084,0.116V9.712z
		 M59.93,18.012h-0.022V17.78h0.022V18.012z M59.993,17.453H59.95l0.21-1.598l0.063,0.02C60.139,16.395,60.056,16.934,59.993,17.453
		z M60.244,15.605c0-0.617,0.692-4.274,0.986-4.698c-0.441,1.58-0.692,3.197-0.986,4.795V15.605z M60.286,19.398h-0.021v-0.193
		h0.021V19.398z M60.307,18.917h-0.022v-0.039h0.022V18.917z M60.348,18.513h-0.021l0.021-0.366h0.022L60.348,18.513z
		 M60.433,17.954h-0.042c0-0.096,0.021-0.173,0.021-0.269h0.022V17.954z M60.475,17.358c0-0.79,0.965-6.124,1.342-6.567
		c-0.251,1.117-0.524,2.215-0.755,3.331c-0.231,1.098-0.398,2.214-0.587,3.331V17.358z M61.879,11.638l-0.041,0.077l-0.022-0.019
		L61.879,11.638z M61.796,11.869v0.057h-0.042L61.796,11.869z M61.691,12.293v0.057H61.67v-0.057H61.691z M61.628,12.543v0.039
		h-0.021L61.628,12.543z M61.586,12.736l-0.021,0.096h-0.021c0.021-0.039,0.021-0.058,0.021-0.096H61.586z M61.523,12.986v0.057
		h-0.021v-0.057H61.523z M61.041,19.61H61.02v-0.057h0.022V19.61z M61.104,19.032h-0.022c0-0.039,0-0.077,0.022-0.097V19.032z
		 M61.187,18.397h-0.021V18.34h0.021V18.397z M60.643,21.498c-0.042-0.289-0.042-0.598-0.042-0.886c0-1.676,0.294-3.37,0.566-5.026
		c0.294-1.618,0.608-3.274,1.132-4.852l0.188-0.02C61.481,14.237,60.81,17.859,60.643,21.498z M61.25,17.954H61.23v-0.077h0.021
		V17.954z M61.293,17.55v-0.077h0.022L61.293,17.55z M61.356,17.185c-0.021-0.02-0.021-0.057-0.021-0.077h0.021
		c0,0.02,0,0.057,0.022,0.077H61.356z M61.418,16.857h-0.021v-0.135h0.021V16.857z M61.481,16.471H61.46v-0.076h0.021V16.471z
		 M61.544,16.163h-0.022V16.01h0.022V16.163z M61.607,15.837h-0.042V15.72h0.042V15.837z M61.628,15.528v-0.097h0.022
		c0.021,0.039,0.021,0.057,0.021,0.097H61.628z M61.712,15.2h-0.022v-0.077h0.022V15.2z M61.775,14.97h-0.042l0.022-0.135h0.022
		L61.775,14.97L61.775,14.97z M61.796,14.681v-0.116h0.021c0.022,0.039,0.022,0.077,0.022,0.116H61.796z M61.879,14.43h-0.021
		v-0.153h0.021V14.43z M61.942,14.161c-0.021,0-0.021,0-0.041-0.02l0.022-0.116h0.021L61.942,14.161L61.942,14.161z M61.984,13.911
		h-0.022v-0.135h0.022V13.911z M62.048,13.641h-0.022v-0.116h0.022V13.641z M62.111,13.41l-0.041-0.02l0.041-0.096V13.41z
		 M62.131,13.237c0-0.04-0.022-0.057-0.022-0.097c0-0.039,0.041-0.077,0.084-0.077L62.131,13.237z M62.194,13.044
		c0-0.039-0.022-0.057-0.022-0.096c0-0.057,0.041-0.077,0.084-0.096L62.194,13.044z M62.257,12.832
		c-0.022-0.058-0.022-0.116-0.022-0.173h0.041C62.278,12.716,62.257,12.774,62.257,12.832z M62.321,12.543h-0.042
		c0-0.039,0.022-0.057,0.042-0.096V12.543z M62.34,12.37l-0.021,0.019c0-0.019,0-0.039,0.021-0.057V12.37z M62.572,11.638v0.02
		H62.55c-0.021,0.096-0.063,0.212-0.104,0.308v0.019l-0.042,0.154c0-0.057,0.022-0.096,0.022-0.154l0.022-0.019
		c0-0.116,0-0.232,0.104-0.308L62.572,11.638c-0.022-0.039-0.022-0.077-0.022-0.116c0-0.077,0.042-0.154,0.105-0.212
		C62.613,11.427,62.593,11.523,62.572,11.638z M62.719,11.099l-0.063,0.135c0.021-0.077,0.021-0.135,0.063-0.212V11.099z
		 M63.011,6.805v0.039l-0.104,0.173C62.929,6.939,62.97,6.882,63.011,6.805z M62.886,7.902h0.063l-0.063,0.039V7.902z
		 M62.823,10.753c0,0.057-0.021,0.116-0.083,0.135l0.083-0.212V10.753z M62.992,9.289c-0.022,0.077-0.063,0.154-0.168,0.154h-0.041
		c0-0.154,0.483-1.252,0.587-1.425c0.063-0.077,0.147-0.154,0.21-0.25C63.368,8.287,63.202,8.788,62.992,9.289z"/>
</g>
</svg>
