<?xml version="1.0" encoding="utf-8"?>
<!-- Generator: Adobe Illustrator 21.1.0, SVG Export Plug-In . SVG Version: 6.00 Build 0)  -->
<svg version="1.1" id="Layer_1" xmlns="http://www.w3.org/2000/svg" xmlns:xlink="http://www.w3.org/1999/xlink" x="0px" y="0px"
	 viewBox="0 0 100 20" style="enable-background:new 0 0 100 20;" xml:space="preserve">
<style type="text/css">
	.st0{enable-background:new    ;}
</style>
<g class="st0">
	<path d="M9.503,11.579c-0.083,0.766-0.357,1.352-0.821,1.758c-0.464,0.405-1.083,0.608-1.854,0.608
		c-0.539,0-1.016-0.135-1.43-0.404c-0.415-0.27-0.735-0.651-0.961-1.146c-0.227-0.494-0.341-1.059-0.345-1.694V9.758
		c0-0.646,0.113-1.219,0.339-1.718c0.227-0.499,0.552-0.884,0.976-1.155S6.32,6.478,6.873,6.478c0.778,0,1.394,0.21,1.844,0.629
		c0.451,0.42,0.713,1,0.786,1.742H8.885C8.731,7.615,8.061,6.998,6.873,6.998c-0.659,0-1.184,0.246-1.575,0.739
		S4.711,8.911,4.711,9.78v0.89c0,0.838,0.19,1.508,0.572,2.007c0.381,0.5,0.896,0.75,1.545,0.75c0.642,0,1.126-0.154,1.453-0.462
		c0.326-0.308,0.527-0.77,0.604-1.386H9.503z"/>
	<path d="M10.271,11.065c0-0.519,0.101-0.987,0.302-1.403c0.201-0.416,0.486-0.739,0.854-0.971s0.784-0.347,1.25-0.347
		c0.719,0,1.301,0.252,1.747,0.756c0.446,0.505,0.669,1.173,0.669,2.004v0.124c0,0.523-0.101,0.993-0.302,1.411
		c-0.201,0.417-0.485,0.739-0.851,0.966c-0.366,0.226-0.784,0.339-1.253,0.339c-0.715,0-1.297-0.252-1.745-0.756
		s-0.671-1.173-0.671-2.005V11.065z M10.871,11.229c0,0.646,0.167,1.176,0.501,1.591c0.334,0.414,0.773,0.621,1.315,0.621
		c0.539,0,0.976-0.207,1.311-0.621c0.334-0.415,0.501-0.961,0.501-1.641v-0.114c0-0.413-0.077-0.791-0.229-1.133
		c-0.153-0.342-0.368-0.607-0.644-0.796c-0.276-0.188-0.592-0.282-0.948-0.282c-0.533,0-0.967,0.209-1.303,0.627
		c-0.336,0.418-0.504,0.964-0.504,1.639V11.229z"/>
	<path d="M16.64,8.445l0.02,0.924c0.203-0.333,0.456-0.587,0.759-0.762s0.637-0.262,1.003-0.262c0.579,0,1.01,0.163,1.293,0.489
		c0.283,0.326,0.426,0.815,0.429,1.468v3.543H19.55v-3.548c-0.003-0.482-0.105-0.842-0.307-1.078
		c-0.202-0.236-0.523-0.354-0.966-0.354c-0.37,0-0.697,0.115-0.981,0.347c-0.285,0.231-0.495,0.543-0.632,0.936v3.699h-0.594V8.445
		H16.64z"/>
	<path d="M22.359,7.062v1.383h1.118v0.489h-1.118v3.603c0,0.3,0.054,0.522,0.163,0.669c0.108,0.147,0.289,0.221,0.542,0.221
		c0.1,0,0.261-0.017,0.484-0.05l0.025,0.484c-0.157,0.056-0.37,0.084-0.639,0.084c-0.409,0-0.707-0.119-0.894-0.356
		c-0.187-0.238-0.279-0.589-0.279-1.051V8.934h-0.994V8.445h0.994V7.062H22.359z"/>
	<path d="M27.869,13.846c-0.06-0.17-0.098-0.421-0.115-0.754c-0.209,0.273-0.477,0.483-0.801,0.632
		c-0.324,0.147-0.668,0.222-1.031,0.222c-0.519,0-0.939-0.145-1.26-0.434c-0.321-0.29-0.482-0.656-0.482-1.099
		c0-0.525,0.219-0.941,0.657-1.248c0.438-0.305,1.047-0.458,1.83-0.458h1.083v-0.614c0-0.386-0.119-0.689-0.357-0.911
		c-0.238-0.221-0.585-0.332-1.041-0.332c-0.416,0-0.76,0.106-1.033,0.319c-0.273,0.214-0.409,0.47-0.409,0.77L24.31,9.932
		c0-0.429,0.2-0.801,0.599-1.115s0.89-0.472,1.473-0.472c0.602,0,1.077,0.15,1.425,0.452c0.348,0.301,0.526,0.721,0.537,1.26v2.555
		c0,0.522,0.055,0.914,0.165,1.174v0.06H27.869z M25.992,13.416c0.399,0,0.756-0.096,1.071-0.289s0.543-0.451,0.687-0.773v-1.188
		h-1.068c-0.596,0.007-1.062,0.115-1.397,0.327c-0.336,0.211-0.504,0.502-0.504,0.871c0,0.303,0.112,0.554,0.337,0.754
		C25.341,13.316,25.633,13.416,25.992,13.416z"/>
	<path d="M31.677,13.441c0.416,0,0.765-0.117,1.046-0.352c0.281-0.235,0.434-0.539,0.457-0.911h0.574
		c-0.017,0.329-0.12,0.63-0.31,0.9c-0.189,0.271-0.442,0.483-0.756,0.637s-0.651,0.229-1.011,0.229
		c-0.709,0-1.271-0.246-1.685-0.738c-0.415-0.493-0.622-1.155-0.622-1.987v-0.18c0-0.532,0.093-1.002,0.279-1.412
		c0.187-0.409,0.454-0.726,0.801-0.949c0.348-0.223,0.755-0.334,1.221-0.334c0.592,0,1.081,0.177,1.465,0.529
		c0.385,0.353,0.59,0.816,0.617,1.393H33.18c-0.026-0.423-0.179-0.764-0.457-1.023s-0.628-0.39-1.051-0.39
		c-0.539,0-0.958,0.195-1.255,0.584c-0.298,0.39-0.447,0.936-0.447,1.637v0.175c0,0.688,0.149,1.227,0.447,1.612
		S31.135,13.441,31.677,13.441z"/>
	<path d="M35.62,7.062v1.383h1.118v0.489H35.62v3.603c0,0.3,0.054,0.522,0.163,0.669c0.108,0.147,0.289,0.221,0.542,0.221
		c0.1,0,0.261-0.017,0.484-0.05l0.025,0.484c-0.157,0.056-0.37,0.084-0.639,0.084c-0.409,0-0.707-0.119-0.894-0.356
		c-0.187-0.238-0.279-0.589-0.279-1.051V8.934h-0.994V8.445h0.994V7.062H35.62z"/>
	<path d="M43.425,13.162c-0.359,0.522-0.934,0.783-1.722,0.783c-0.576,0-1.013-0.167-1.313-0.501
		c-0.299-0.335-0.452-0.83-0.459-1.485V8.445h0.594v3.439c0,1.028,0.416,1.543,1.248,1.543c0.865,0,1.413-0.358,1.643-1.073V8.445
		h0.599v5.401h-0.579L43.425,13.162z"/>
	<path d="M48.546,12.473c0-0.296-0.119-0.534-0.357-0.714c-0.238-0.18-0.597-0.32-1.076-0.422c-0.479-0.102-0.851-0.218-1.115-0.348
		c-0.265-0.132-0.461-0.292-0.589-0.482c-0.128-0.189-0.192-0.419-0.192-0.688c0-0.426,0.178-0.778,0.534-1.056
		c0.356-0.278,0.812-0.417,1.368-0.417c0.602,0,1.085,0.149,1.45,0.446c0.364,0.298,0.546,0.687,0.546,1.166h-0.599
		c0-0.316-0.132-0.579-0.397-0.789c-0.264-0.209-0.598-0.314-1-0.314c-0.393,0-0.708,0.088-0.946,0.263
		c-0.238,0.175-0.357,0.401-0.357,0.681c0,0.27,0.099,0.479,0.297,0.627c0.198,0.148,0.559,0.284,1.083,0.407
		c0.524,0.123,0.917,0.253,1.178,0.393c0.261,0.141,0.455,0.309,0.582,0.505s0.189,0.434,0.189,0.714
		c0,0.456-0.184,0.82-0.551,1.093c-0.368,0.273-0.848,0.409-1.44,0.409c-0.629,0-1.139-0.152-1.53-0.456
		c-0.391-0.305-0.586-0.69-0.586-1.156h0.599c0.023,0.35,0.171,0.622,0.442,0.816c0.271,0.194,0.63,0.292,1.076,0.292
		c0.416,0,0.752-0.092,1.008-0.274C48.417,12.983,48.546,12.753,48.546,12.473z"/>
	<path d="M52.892,13.846V8.934h-0.894V8.445h0.894V7.792c0-0.553,0.141-0.978,0.422-1.273s0.673-0.444,1.175-0.444
		c0.227,0,0.438,0.028,0.635,0.084l-0.045,0.495c-0.166-0.04-0.348-0.06-0.544-0.06c-0.329,0-0.586,0.103-0.769,0.308
		c-0.184,0.205-0.275,0.496-0.275,0.873v0.671h1.288v0.489H53.49v4.912H52.892z"/>
	<path d="M55.262,11.065c0-0.519,0.101-0.987,0.303-1.403c0.201-0.416,0.485-0.739,0.854-0.971c0.367-0.231,0.783-0.347,1.25-0.347
		c0.719,0,1.301,0.252,1.747,0.756c0.446,0.505,0.669,1.173,0.669,2.004v0.124c0,0.523-0.101,0.993-0.303,1.411
		c-0.201,0.417-0.484,0.739-0.851,0.966c-0.366,0.226-0.784,0.339-1.253,0.339c-0.715,0-1.297-0.252-1.744-0.756
		c-0.448-0.504-0.672-1.173-0.672-2.005V11.065z M55.861,11.229c0,0.646,0.166,1.176,0.501,1.591
		c0.335,0.414,0.772,0.621,1.315,0.621c0.539,0,0.977-0.207,1.311-0.621c0.334-0.415,0.502-0.961,0.502-1.641v-0.114
		c0-0.413-0.077-0.791-0.23-1.133c-0.152-0.342-0.367-0.607-0.644-0.796c-0.276-0.188-0.593-0.282-0.948-0.282
		c-0.533,0-0.967,0.209-1.303,0.627s-0.504,0.964-0.504,1.639V11.229z"/>
	<path d="M63.557,8.955c-0.127-0.023-0.262-0.035-0.404-0.035c-0.373,0-0.688,0.104-0.945,0.312s-0.442,0.511-0.553,0.906v3.708
		h-0.594V8.445h0.584l0.01,0.858c0.316-0.639,0.824-0.958,1.523-0.958c0.166,0,0.297,0.021,0.395,0.064L63.557,8.955z"/>
	<path d="M70.818,11.2c0,0.842-0.187,1.51-0.559,2.004c-0.373,0.494-0.873,0.741-1.498,0.741c-0.738,0-1.305-0.26-1.697-0.778v2.755
		h-0.594V8.445h0.554l0.03,0.764c0.389-0.575,0.953-0.863,1.691-0.863c0.646,0,1.152,0.244,1.521,0.733s0.552,1.169,0.552,2.037
		V11.2z M70.219,11.095c0-0.688-0.141-1.232-0.424-1.631s-0.678-0.599-1.184-0.599c-0.365,0-0.68,0.088-0.943,0.264
		c-0.262,0.177-0.464,0.434-0.604,0.77v2.59c0.143,0.31,0.348,0.546,0.614,0.708c0.267,0.163,0.581,0.245,0.943,0.245
		c0.503,0,0.894-0.2,1.175-0.602S70.219,11.857,70.219,11.095z"/>
	<path d="M74.381,8.955c-0.126-0.023-0.261-0.035-0.404-0.035c-0.372,0-0.688,0.104-0.945,0.312s-0.441,0.511-0.552,0.906v3.708
		h-0.594V8.445h0.584l0.01,0.858c0.316-0.639,0.823-0.958,1.522-0.958c0.166,0,0.298,0.021,0.395,0.064L74.381,8.955z"/>
	<path d="M75.034,6.885c0-0.112,0.036-0.208,0.11-0.285c0.072-0.078,0.172-0.117,0.299-0.117s0.228,0.039,0.303,0.117
		c0.074,0.077,0.111,0.173,0.111,0.285s-0.037,0.206-0.111,0.282c-0.075,0.076-0.176,0.114-0.303,0.114s-0.227-0.038-0.299-0.114
		C75.07,7.091,75.034,6.998,75.034,6.885z M75.738,13.846h-0.6V8.445h0.6V13.846z"/>
	<path d="M79.102,13.441c0.416,0,0.765-0.117,1.046-0.352c0.281-0.235,0.434-0.539,0.456-0.911h0.574
		c-0.016,0.329-0.119,0.63-0.309,0.9c-0.189,0.271-0.442,0.483-0.757,0.637s-0.651,0.229-1.011,0.229
		c-0.709,0-1.271-0.246-1.685-0.738c-0.415-0.493-0.622-1.155-0.622-1.987v-0.18c0-0.532,0.094-1.002,0.279-1.412
		c0.188-0.409,0.454-0.726,0.802-0.949c0.348-0.223,0.755-0.334,1.221-0.334c0.593,0,1.081,0.177,1.465,0.529
		c0.385,0.353,0.59,0.816,0.616,1.393h-0.574c-0.025-0.423-0.178-0.764-0.456-1.023s-0.628-0.39-1.051-0.39
		c-0.539,0-0.958,0.195-1.255,0.584c-0.299,0.39-0.447,0.936-0.447,1.637v0.175c0,0.688,0.148,1.227,0.447,1.612
		C78.139,13.248,78.559,13.441,79.102,13.441z"/>
	<path d="M82.08,6.885c0-0.112,0.037-0.208,0.11-0.285c0.073-0.078,0.173-0.117,0.3-0.117s0.227,0.039,0.302,0.117
		c0.075,0.077,0.112,0.173,0.112,0.285s-0.037,0.206-0.112,0.282s-0.175,0.114-0.302,0.114s-0.227-0.038-0.3-0.114
		S82.08,6.998,82.08,6.885z M82.785,13.846h-0.6V8.445h0.6V13.846z"/>
	<path d="M84.721,8.445l0.02,0.924c0.203-0.333,0.456-0.587,0.759-0.762s0.638-0.262,1.003-0.262c0.58,0,1.01,0.163,1.293,0.489
		s0.426,0.815,0.43,1.468v3.543h-0.594v-3.548c-0.004-0.482-0.105-0.842-0.307-1.078c-0.202-0.236-0.523-0.354-0.967-0.354
		c-0.369,0-0.696,0.115-0.98,0.347c-0.285,0.231-0.495,0.543-0.632,0.936v3.699h-0.594V8.445H84.721z"/>
	<path d="M89.271,11.095c0-0.844,0.188-1.514,0.562-2.008c0.374-0.494,0.883-0.741,1.524-0.741c0.735,0,1.295,0.293,1.677,0.879
		l0.031-0.779h0.559v5.292c0,0.695-0.195,1.246-0.584,1.651c-0.39,0.406-0.917,0.609-1.582,0.609c-0.377,0-0.735-0.084-1.076-0.252
		c-0.342-0.168-0.609-0.392-0.807-0.672l0.335-0.359c0.423,0.52,0.925,0.779,1.507,0.779c0.5,0,0.889-0.147,1.168-0.442
		c0.28-0.294,0.425-0.702,0.436-1.225v-0.68c-0.383,0.533-0.941,0.799-1.673,0.799c-0.626,0-1.128-0.249-1.507-0.749
		c-0.38-0.499-0.57-1.173-0.57-2.021V11.095z M89.876,11.2c0,0.688,0.138,1.232,0.415,1.63c0.275,0.397,0.665,0.597,1.168,0.597
		c0.734,0,1.256-0.33,1.562-0.988V9.927c-0.141-0.346-0.342-0.609-0.604-0.791s-0.579-0.271-0.948-0.271
		c-0.503,0-0.895,0.196-1.174,0.591S89.876,10.432,89.876,11.2z"/>
</g>
<g id="_x37_D1wWB_1_">
	<g>
		<path d="M46.638,7.8c0-0.9-0.4-1.6-1.2-2c-0.8-0.5-1.7-0.4-2.4,0.2c-0.6,0.4-0.9,1-0.9,1.8C43.638,7.8,45.138,7.8,46.638,7.8z
			 M44.338,2.8c-0.7,0-1.3,0.6-1.3,1.3s0.6,1.3,1.3,1.3s1.3-0.6,1.3-1.3C45.638,3.3,45.138,2.7,44.338,2.8z M39.838,7.8
			c0.7,0,1.4,0,2.2,0c0-0.7,0.3-1.2,0.7-1.7c-0.8-0.4-1.5-0.3-2.1,0.2C40.037,6.6,39.737,7.1,39.838,7.8z M48.938,7.8
			c0-0.7-0.3-1.3-0.9-1.7c-0.6-0.4-1.3-0.4-2,0c0.5,0.5,0.7,1.1,0.7,1.7C47.537,7.8,48.237,7.8,48.938,7.8z M41.737,5.7
			c0.5,0,1-0.4,1-1c0-0.5-0.4-1-0.9-1s-0.9,0.4-1,1C40.737,5.2,41.237,5.7,41.737,5.7z M47.037,5.7c0.5,0,1-0.4,0.9-1
			c0-0.5-0.4-1-0.9-1s-0.9,0.4-0.9,1C46.037,5.2,46.537,5.7,47.037,5.7z"/>
	</g>
</g>
</svg>
