<?xml version="1.0" encoding="utf-8"?>
<!-- Generator: Adobe Illustrator 21.1.0, SVG Export Plug-In . SVG Version: 6.00 Build 0)  -->
<svg version="1.1" id="Layer_1" xmlns="http://www.w3.org/2000/svg" xmlns:xlink="http://www.w3.org/1999/xlink" x="0px" y="0px"
	 viewBox="0 0 150 50" style="enable-background:new 0 0 150 50;" xml:space="preserve">
<style type="text/css">
	.st0{fill:#FFFFFF;}
</style>
<g>
	<path class="st0" d="M25.328,27.258c0.217,0.138,0.412,0.303,0.595,0.484c0.766,0.754,1.363,1.64,1.98,2.51
		c0.537,0.757,1.021,1.554,1.671,2.225c0.165,0.171,0.359,0.429,0.617,0.273c0.236-0.143,0.106-0.426,0.042-0.645
		c-0.191-0.648-0.5-1.246-0.824-1.834c-0.798-1.449-1.604-2.894-2.57-4.24c-0.547-0.762-1.282-1.254-2.237-1.334
		c-0.424-0.036-0.853-0.006-1.28-0.006c-1.655,0.071-3.187-0.289-4.615-1.162c-1.526-0.933-2.561-2.196-2.931-3.968
		c-0.243-1.164-0.201-2.333-0.062-3.504c0.064-0.54,0.15-1.077,0.208-1.618c0.018-0.168,0.074-0.405-0.148-0.47
		c-0.209-0.061-0.312,0.146-0.41,0.295c-0.147,0.224-0.245,0.474-0.324,0.729c-0.644,2.1-0.894,4.253-0.819,6.444
		c0.025,0.72,0.249,1.353,0.73,1.929c1.082,1.298,2.037,2.684,2.666,4.272c0.686,1.732,0.712,3.442-0.084,5.15
		c-0.365,0.784-0.764,1.549-1.165,2.315c-1.366,2.609-2.681,5.241-3.659,8.026c-0.368,1.047-0.678,2.11-0.775,3.224
		c-0.045,0.517-0.032,1.027,0.224,1.495c0.147,0.268,0.381,0.469,0.694,0.429c0.312-0.04,0.351-0.345,0.388-0.595
		c0.076-0.527,0.141-1.057,0.19-1.587c0.165-1.762,0.511-3.48,1.24-5.103c0.502-1.118,1.112-2.167,2.038-2.996
		c1.232-1.102,2.723-1.481,4.332-1.561c1.809-0.09,3.409,0.395,4.793,1.587c0.86,0.741,1.64,1.558,2.411,2.385
		c0.517,0.554,1.017,1.124,1.531,1.68c0.111,0.12,0.237,0.313,0.417,0.226c0.176-0.084,0.122-0.307,0.098-0.469
		c-0.058-0.394-0.292-0.705-0.533-1.006c-0.742-0.927-1.609-1.738-2.436-2.586c-1.199-1.228-2.242-2.569-3.028-4.106
		c-0.778-1.522-1.051-3.145-1.033-4.829c0.005-0.499,0.059-1.001,0.251-1.474C23.846,27.017,24.579,26.781,25.328,27.258z"/>
	<path class="st0" d="M44.892,22.229c-1.201-0.65-2.507-0.904-3.85-0.93c-1.911-0.037-3.822-0.011-5.733-0.028
		c-0.273-0.002-0.333,0.082-0.332,0.342c0.009,2.68,0.006,5.36,0.006,8.04c0,2.691,0.005,5.382-0.007,8.072
		c-0.001,0.289,0.08,0.354,0.357,0.35c1.068-0.016,2.136-0.016,3.203,0c0.274,0.004,0.331-0.086,0.331-0.344
		c-0.001-1.719,0.021-3.438,0.019-5.156c0-0.283,0.087-0.31,0.334-0.257c1.264,0.274,2.538,0.332,3.813,0.091
		c1.311-0.248,2.473-0.791,3.367-1.819c0.756-0.87,1.132-1.898,1.229-3.031C47.815,25.403,46.991,23.366,44.892,22.229z
		 M43.044,28.215c-0.275,0.59-0.778,0.891-1.378,1.045c-0.816,0.209-1.646,0.184-2.477,0.109c-0.189-0.017-0.271-0.069-0.26-0.29
		c0.025-0.468,0.008-0.938,0.008-1.407c0.028,0,0.055,0,0.083,0c0-0.895,0.005-1.789-0.003-2.684
		c-0.002-0.248,0.089-0.325,0.339-0.32c0.704,0.014,1.406,0.026,2.094,0.193C42.992,25.237,43.719,26.768,43.044,28.215z"/>
	<path class="st0" d="M82.472,31.861c0-0.331-0.029-0.66-0.075-0.988c-0.23-1.611-1.226-2.749-2.739-3.037
		c-1.415-0.27-2.688,0.09-3.787,1.02c-0.173,0.146-0.257,0.173-0.432,0.001c-0.461-0.455-0.99-0.816-1.635-0.961
		c-1.595-0.36-3.046-0.05-4.342,0.956c-0.098,0.076-0.166,0.195-0.313,0.23c-0.064-0.25-0.135-0.493-0.188-0.739
		c-0.035-0.162-0.109-0.23-0.283-0.228c-0.63,0.009-1.26,0.008-1.89,0.001c-0.19-0.002-0.234,0.04-0.18,0.238
		c0.178,0.661,0.274,1.339,0.277,2.023c0.011,2.424,0.014,4.848,0.005,7.272c-0.001,0.299,0.062,0.406,0.381,0.399
		c0.95-0.021,1.901-0.019,2.851-0.001c0.293,0.006,0.373-0.074,0.371-0.37c-0.013-2.039-0.008-4.079-0.006-6.118
		c0-0.144-0.035-0.296,0.134-0.395c0.519-0.303,1.062-0.497,1.637-0.205c0.531,0.269,0.645,0.785,0.662,1.331
		c0.003,0.096,0,0.192,0,0.288c0,1.719,0.005,3.438-0.005,5.157c-0.001,0.238,0.063,0.314,0.305,0.311
		c1.004-0.012,2.007-0.01,3.011-0.001c0.202,0.002,0.276-0.045,0.275-0.266c-0.009-2.039,0.011-4.079-0.02-6.118
		c-0.006-0.389,0.126-0.567,0.45-0.679c0.04-0.014,0.079-0.031,0.119-0.046c0.976-0.36,1.747,0.136,1.822,1.172
		c0.012,0.16,0.017,0.32,0.017,0.48c0.001,1.698,0.006,3.396-0.005,5.093c-0.002,0.271,0.055,0.372,0.35,0.367
		c0.971-0.019,1.943-0.016,2.915-0.002c0.251,0.004,0.324-0.064,0.323-0.319C82.468,35.77,82.473,33.815,82.472,31.861z"/>
	<path class="st0" d="M111.684,31.302c-0.085-1.644-1.118-2.909-2.696-3.361c-1.114-0.319-2.22-0.223-3.307,0.128
		c-0.289,0.093-0.343,0.026-0.332-0.253c0.043-1.109,0.067-2.218,0.103-3.327c0.038-1.194,0.082-2.389,0.194-3.579
		c0.02-0.213-0.079-0.223-0.238-0.218c-1.077,0.032-2.155,0.072-3.233,0.08c-0.293,0.002-0.373,0.076-0.371,0.371
		c0.011,2.756,0.007,5.511,0.007,8.267c0,2.766,0.004,5.533-0.006,8.299c-0.001,0.268,0.076,0.34,0.34,0.335
		c0.972-0.015,1.944-0.013,2.916-0.001c0.244,0.003,0.334-0.056,0.334-0.318c-0.001-1.986,0.014-3.973,0.023-5.959
		c0.003-0.588,0.019-0.622,0.585-0.81c0.181-0.06,0.371-0.104,0.56-0.124c0.743-0.08,1.362,0.354,1.526,1.069
		c0.045,0.196,0.07,0.397,0.069,0.602c-0.005,1.741-0.001,3.482-0.005,5.223c0,0.187-0.006,0.321,0.257,0.318
		c1.025-0.014,2.051-0.009,3.076-0.003c0.175,0.001,0.249-0.05,0.247-0.236C111.704,35.636,111.795,33.468,111.684,31.302z"/>
	<path class="st0" d="M63.924,28.5c-1.286-0.756-2.685-0.94-4.139-0.695c-4.286,0.723-5.627,5.291-3.708,8.294
		c1.066,1.668,2.717,2.281,4.624,2.324c0.128,0,0.256,0.006,0.384-0.001c0.138-0.008,0.276-0.025,0.414-0.041
		c1.522-0.186,2.831-0.791,3.811-1.998c0.957-1.178,1.245-2.553,1.059-4.031C66.16,30.692,65.392,29.362,63.924,28.5z
		 M62.525,34.329c-0.214,0.744-0.707,1.179-1.384,1.233c-0.897,0.072-1.555-0.251-1.868-0.99c-0.419-0.99-0.418-2.01,0.031-2.983
		c0.548-1.191,2.145-1.283,2.88-0.197c0.319,0.471,0.475,1.082,0.475,1.888C62.673,33.62,62.626,33.979,62.525,34.329z"/>
	<path class="st0" d="M141.421,31.409c-0.046-0.93-0.336-1.789-0.998-2.468c-1.11-1.138-2.5-1.337-3.992-1.099
		c-0.99,0.158-1.865,0.583-2.672,1.301c-0.025-0.326-0.096-0.569-0.159-0.815c-0.041-0.16-0.126-0.217-0.295-0.214
		c-0.619,0.01-1.238,0.009-1.858,0.001c-0.18-0.002-0.257,0.041-0.205,0.236c0.28,1.051,0.304,2.128,0.304,3.206
		c-0.001,2.061,0.004,4.121-0.006,6.182c-0.001,0.241,0.065,0.308,0.305,0.305c0.993-0.013,1.986-0.014,2.979,0
		c0.264,0.004,0.317-0.09,0.316-0.333c-0.009-1.964-0.005-3.929-0.005-5.893c0-0.672,0-0.672,0.651-0.882
		c0.03-0.01,0.06-0.024,0.09-0.032c0.939-0.26,1.71,0.12,1.927,0.962c0.072,0.278,0.089,0.567,0.088,0.857
		c-0.004,1.676,0,3.352-0.005,5.029c-0.001,0.186,0.016,0.294,0.251,0.292c1.025-0.012,2.05-0.009,3.075-0.002
		c0.198,0.001,0.258-0.068,0.255-0.261C141.442,35.656,141.527,33.531,141.421,31.409z"/>
	<path class="st0" d="M130.411,35.122c0.028-1.408,0.089-2.816,0.054-4.225c-0.035-1.395-0.77-2.427-2.046-2.877
		c-0.454-0.16-0.926-0.245-1.407-0.279c-1.372-0.097-2.723,0.051-4.069,0.31c-0.218,0.042-0.278,0.122-0.276,0.331
		c0.009,0.876,0.012,1.751-0.001,2.627c-0.004,0.262,0.045,0.361,0.302,0.206c0.063-0.038,0.138-0.055,0.208-0.082
		c0.965-0.38,1.964-0.564,3.003-0.513c0.52,0.026,0.782,0.224,0.839,0.617c0.034,0.233-0.011,0.337-0.284,0.359
		c-0.907,0.074-1.792,0.262-2.631,0.627c-1.514,0.658-2.587,1.817-2.42,3.87c0.09,1.104,0.739,1.907,1.816,2.161
		c0.749,0.177,1.502,0.19,2.25-0.005c0.821-0.214,1.516-0.623,1.99-1.35c0.07-0.108,0.128-0.224,0.219-0.385
		c0.052,0.472,0.098,0.874,0.139,1.276c0.014,0.138,0.036,0.25,0.217,0.25c0.831-0.004,1.661-0.002,2.533-0.002
		C130.474,37.06,130.391,36.099,130.411,35.122z M125.817,35.639c-0.101,0.03-0.207,0.042-0.244,0.05
		c-0.562-0.001-0.805-0.331-0.682-0.84c0.071-0.297,0.263-0.504,0.51-0.668c0.424-0.282,0.907-0.411,1.393-0.53
		c0.105-0.025,0.197-0.042,0.216,0.131C127.087,34.524,126.515,35.432,125.817,35.639z"/>
	<path class="st0" d="M121.087,35.868c0-0.288-0.015-0.578,0.004-0.865c0.019-0.291-0.071-0.286-0.302-0.179
		c-1.025,0.476-2.09,0.71-3.231,0.549c-1.074-0.151-1.779-0.818-1.849-1.801c-0.029-0.407-0.017-0.419,0.379-0.401
		c1.513,0.07,3.027,0.139,4.54,0.207c0.146,0.006,0.292,0.032,0.413-0.105c1.284-1.455,1.147-4.107-0.768-5.083
		c-0.928-0.473-1.92-0.542-2.931-0.443c-1.108,0.109-2.118,0.485-2.983,1.2c-1.267,1.046-1.898,2.425-2.012,4.036
		c-0.103,1.457,0.212,2.811,1.26,3.9c1.8,1.871,4.91,2.074,7.031,0.492c0.316-0.236,0.519-0.48,0.455-0.899
		C121.062,36.277,121.087,36.071,121.087,35.868z M116.337,30.83c0.479-0.58,1.307-0.821,1.993-0.585
		c0.328,0.113,0.571,0.313,0.684,0.66c0.063,0.196,0.025,0.278-0.189,0.276c-0.67-0.004-1.34-0.002-2.009-0.002
		c0,0.029,0,0.059,0,0.088c-0.096,0-0.192,0.003-0.287-0.001c-0.134-0.006-0.331,0.078-0.387-0.035
		C116.064,31.078,116.24,30.948,116.337,30.83z"/>
	<path class="st0" d="M90.275,27.917c-1.65-0.441-3.259-0.266-4.7,0.674c-1.986,1.295-2.692,3.227-2.494,5.524
		c0.097,1.129,0.535,2.134,1.369,2.92c1.866,1.757,4.911,1.871,6.951,0.298c0.287-0.222,0.45-0.457,0.401-0.831
		c-0.028-0.21-0.005-0.426-0.005-0.64c0-0.278-0.011-0.556,0.003-0.832c0.014-0.26-0.019-0.34-0.305-0.206
		c-1.022,0.479-2.09,0.725-3.229,0.547c-1.029-0.161-1.781-0.742-1.868-1.858c-0.023-0.3,0.04-0.365,0.324-0.35
		c1.373,0.074,2.748,0.129,4.121,0.198c0.886,0.045,0.977-0.002,1.37-0.798c0.014-0.029,0.031-0.056,0.044-0.085
		C93.014,30.801,92.511,28.514,90.275,27.917z M89.516,31.183c-0.33-0.002-0.66,0.014-0.989,0.028
		c-0.329,0.015-0.658,0.038-0.987,0.057c0,0.002,0,0.004,0,0.006c-0.16,0-0.32,0.006-0.479-0.003
		c-0.078-0.004-0.181,0.049-0.23-0.049c-0.039-0.077,0.035-0.139,0.072-0.2c0.424-0.711,1.403-1.056,2.177-0.764
		c0.302,0.114,0.529,0.305,0.635,0.626C89.783,31.088,89.754,31.185,89.516,31.183z"/>
	<path class="st0" d="M98.477,30.79c0.767,0.042,1.536,0.048,2.303,0.085c0.235,0.011,0.321-0.05,0.316-0.297
		c-0.014-0.726-0.013-1.453,0-2.179c0.004-0.227-0.068-0.29-0.29-0.287c-0.758,0.012-1.517-0.015-2.275,0.013
		c-0.331,0.012-0.388-0.105-0.37-0.398c0.051-0.809,0.07-1.62,0.118-2.429c0.012-0.202-0.036-0.268-0.241-0.245
		c-1.091,0.125-2.183,0.248-3.276,0.355c-0.224,0.022-0.246,0.125-0.245,0.308c0.007,0.726-0.003,1.453,0.007,2.179
		c0.002,0.178-0.058,0.301-0.183,0.418c-0.334,0.313-0.721,0.53-1.151,0.673c-0.133,0.044-0.217,0.097-0.212,0.264
		c0.013,0.416,0.009,0.833,0.002,1.25c-0.003,0.156,0.06,0.205,0.209,0.201c0.299-0.007,0.598-0.004,0.897-0.001
		c0.488,0.004,0.426-0.055,0.435,0.419c0.029,1.505-0.072,3.012,0.057,4.515c0.118,1.375,0.883,2.316,2.138,2.643
		c0.257,0.067,0.523,0.114,0.787,0.131c1.245,0.081,2.433-0.061,3.419-0.935c0.071-0.063,0.165-0.11,0.166-0.222
		c0.001-0.807,0.001-1.614,0.001-2.473c-0.597,0.408-1.211,0.59-1.875,0.583c-0.665-0.007-1-0.296-1.134-0.939
		c-0.033-0.159-0.038-0.317-0.042-0.477c-0.021-0.929,0.054-1.856,0.058-2.785C98.097,30.868,98.183,30.774,98.477,30.79z"/>
	<path class="st0" d="M54.86,27.993c-1.307-0.395-2.457-0.064-3.503,0.756c-0.344,0.269-0.617,0.605-0.914,0.979
		c-0.068-0.487-0.168-0.917-0.309-1.339c-0.061-0.183-0.152-0.248-0.346-0.244c-0.576,0.012-1.153,0.014-1.729,0
		c-0.254-0.006-0.31,0.058-0.234,0.31c0.288,0.955,0.407,1.939,0.413,2.934c0.011,2.103,0.016,4.206,0.004,6.308
		c-0.002,0.319,0.092,0.386,0.393,0.38c0.95-0.02,1.9-0.021,2.85,0.001c0.308,0.007,0.363-0.098,0.361-0.377
		c-0.011-1.857-0.003-3.715-0.01-5.572c-0.001-0.192,0.054-0.316,0.215-0.422c0.383-0.251,0.797-0.4,1.252-0.441
		c0.635-0.057,1.223,0.084,1.796,0.465c0-1.215-0.001-2.374,0.001-3.534C55.098,28.029,54.968,28.025,54.86,27.993z"/>
	<path class="st0" d="M22.222,24.017c1.686-0.096,3.399-1.905,3.404-3.593c0.004-1.239-0.914-2.017-2.139-1.752
		c-1.629,0.352-2.672,1.384-3.097,2.975C20.013,23.056,20.855,24.095,22.222,24.017z"/>
	<path class="st0" d="M14.64,12.818c0.15,0.167,0.307,0.327,0.454,0.496c0.077,0.088,0.152,0.063,0.225,0.01
		c0.1-0.073,0.005-0.128-0.028-0.184c-0.027-0.045-0.066-0.084-0.098-0.126c-1.432-1.836-2.046-3.865-1.436-6.175
		c0.104-0.393,0.05-0.752-0.108-1.118c-0.288-0.665-0.596-1.322-0.761-2.034c-0.149-0.642-0.213-1.293-0.226-1.969
		c-0.1,0.069-0.104,0.157-0.131,0.234c-0.452,1.3-0.797,2.629-1.123,3.965c-0.311,1.273-0.084,2.425,0.603,3.517
		C12.775,10.65,13.684,11.753,14.64,12.818z"/>
	<polygon class="st0" points="14.274,3.964 14.274,3.963 14.268,3.969 	"/>
	<path class="st0" d="M14.509,4.26c0.415,0.432,0.887,0.799,1.335,1.193c0.385,0.339,0.761,0.687,1.007,1.148
		c0.274,0.512,0.243,0.686-0.177,1.077c-0.07,0.065-0.143,0.128-0.213,0.193c-0.676,0.636-1.248,1.342-1.255,2.323
		c-0.007,0.97,0.278,1.891,0.598,2.798c0.023,0.065,0.045,0.124,0.129,0.102c0.075-0.02,0.142-0.054,0.14-0.148
		c-0.003-0.117-0.005-0.235-0.01-0.352c-0.044-1.053,0.352-1.91,1.15-2.588c0.401-0.341,0.854-0.602,1.331-0.817
		c0.261-0.118,0.355-0.267,0.312-0.57c-0.13-0.921-0.557-1.688-1.131-2.395c-0.907-1.118-2.222-1.612-3.431-2.271
		c-0.004-0.002-0.013,0.005-0.021,0.01C14.318,4.09,14.422,4.169,14.509,4.26z"/>
	<path class="st0" d="M14.472,5.967c0.196,0.381,0.244,0.751,0.14,1.169c-0.195,0.785-0.402,1.572-0.433,2.387
		c-0.053,1.363,0.57,2.488,1.285,3.578c0.041,0.062,0.085,0.145,0.173,0.088c0.089-0.057,0.019-0.131-0.007-0.196
		c-0.199-0.483-0.42-0.957-0.593-1.449c-0.316-0.899-0.498-1.811-0.109-2.744c0.23-0.551,0.614-0.995,0.988-1.446
		c0.317-0.383,0.332-0.545,0.077-0.975c-0.23-0.388-0.537-0.715-0.843-1.043c-0.782-0.838-1.632-1.624-2.097-2.713
		c0,0.368,0.124,0.701,0.256,1.032C13.63,4.459,14.077,5.2,14.472,5.967z"/>
	<polygon class="st0" points="14.207,3.9 14.197,3.894 14.202,3.906 	"/>
	<path class="st0" d="M14.213,3.906c0.019,0.018,0.037,0.035,0.056,0.053C14.28,3.911,14.25,3.905,14.213,3.906z"/>
	<polygon class="st0" points="14.207,3.9 14.202,3.906 14.213,3.906 	"/>
	<path class="st0" d="M14.274,3.963c-0.002-0.002-0.003-0.003-0.005-0.005c-0.001,0.004,0,0.005-0.001,0.01
		C14.268,3.969,14.274,3.963,14.274,3.963z"/>
</g>
</svg>
