<?xml version="1.0" encoding="utf-8"?>
<!-- Generator: Adobe Illustrator 21.1.0, SVG Export Plug-In . SVG Version: 6.00 Build 0)  -->
<svg version="1.1" id="Layer_1" xmlns="http://www.w3.org/2000/svg" xmlns:xlink="http://www.w3.org/1999/xlink" x="0px" y="0px"
	 viewBox="0 0 40 20" style="enable-background:new 0 0 40 20;" xml:space="preserve">
<style type="text/css">
	.st0{fill:#ECEEEF;}
	.st1{fill:#00B4E4;}
</style>
<rect class="st0" width="40" height="20"/>
<g>
	<path class="st1" d="M20.409,3.37c0.188-0.245,0.282-0.529,0.282-0.85c0-0.466-0.151-0.828-0.452-1.088
		c-0.301-0.259-0.719-0.389-1.254-0.389h-1.629V6.06h0.427V3.968h1.458l1.212,2.091h0.452V6.015l-1.254-2.136
		C19.968,3.785,20.221,3.615,20.409,3.37z M19.082,3.61h-1.299V1.402h1.195c0.406,0,0.723,0.098,0.947,0.293s0.337,0.47,0.337,0.824
		c0,0.322-0.108,0.584-0.324,0.787C19.724,3.509,19.439,3.61,19.082,3.61z"/>
	<path class="st1" d="M22.941,2.263c-0.289,0-0.558,0.082-0.806,0.246s-0.442,0.39-0.58,0.677s-0.208,0.61-0.208,0.968v0.148
		c0,0.347,0.071,0.66,0.213,0.939c0.142,0.279,0.342,0.497,0.598,0.653c0.256,0.156,0.543,0.234,0.86,0.234
		c0.576,0,1.017-0.219,1.319-0.658l-0.258-0.196c-0.138,0.177-0.291,0.306-0.46,0.386S23.255,5.78,23.035,5.78
		c-0.367,0-0.673-0.141-0.915-0.422s-0.363-0.633-0.363-1.056V4.222h2.659v-0.23c0-0.535-0.133-0.957-0.398-1.266
		S23.393,2.263,22.941,2.263z M24.006,3.872h-2.236c0.046-0.383,0.175-0.689,0.387-0.917s0.474-0.341,0.784-0.341
		c0.312,0,0.565,0.112,0.758,0.337c0.193,0.225,0.295,0.517,0.306,0.875L24.006,3.872L24.006,3.872z"/>
	<path class="st1" d="M26.609,2.263c-0.51,0-0.899,0.199-1.168,0.596l-0.021-0.527h-0.382v5.161h0.41V5.592
		c0.271,0.358,0.661,0.537,1.171,0.537c0.432,0,0.776-0.171,1.034-0.512c0.258-0.341,0.386-0.802,0.386-1.383V4.175
		c0-0.6-0.127-1.068-0.38-1.406S27.055,2.263,26.609,2.263z M27.334,5.365C27.14,5.642,26.87,5.78,26.523,5.78
		c-0.25,0-0.467-0.056-0.651-0.169c-0.183-0.112-0.325-0.276-0.424-0.489V3.334c0.096-0.232,0.235-0.409,0.417-0.53
		c0.182-0.122,0.399-0.183,0.651-0.183c0.349,0,0.621,0.138,0.817,0.413c0.195,0.276,0.293,0.651,0.293,1.127
		C27.625,4.687,27.528,5.088,27.334,5.365z"/>
	<rect x="28.823" y="0.768" class="st1" width="0.413" height="5.292"/>
	<path class="st1" d="M32.451,2.332l-1.089,3.135l-1.157-3.135h-0.452l1.406,3.697l-0.183,0.503
		c-0.087,0.243-0.193,0.415-0.319,0.515c-0.125,0.1-0.289,0.15-0.491,0.15l-0.213-0.021l0.004,0.341
		c0.112,0.032,0.218,0.048,0.317,0.048c0.427,0,0.743-0.226,0.947-0.679l0.083-0.193l1.592-4.362
		C32.895,2.332,32.451,2.332,32.451,2.332z"/>
</g>
<polygon class="st1" points="11.774,3.904 5.459,3.904 5.459,0.597 4.603,0.597 4.603,4.76 11.774,4.76 11.774,6.205 14.974,4.332 
	11.774,2.46 "/>
</svg>
