<?xml version="1.0" encoding="utf-8"?>
<!-- Generator: Adobe Illustrator 21.1.0, SVG Export Plug-In . SVG Version: 6.00 Build 0)  -->
<svg version="1.1" id="Layer_1" xmlns="http://www.w3.org/2000/svg" xmlns:xlink="http://www.w3.org/1999/xlink" x="0px" y="0px"
	 viewBox="0 0 50 50" style="enable-background:new 0 0 50 50;" xml:space="preserve">
<style type="text/css">
	.st0{fill:#3C4852;}
</style>
<g>
	<path class="st0" d="M24.492,28.931c-0.486,0.417-0.8,0.408-1.269,0.013c-0.62-0.522-1.308-0.964-1.984-1.453
		c-0.409,0.44-0.744,0.801-1.111,1.195c1.297,1.508,2.545,2.957,3.886,4.515c2.293-2.477,4.51-4.872,6.761-7.304
		c-0.432-0.427-0.798-0.789-1.184-1.17C27.854,26.15,26.148,27.512,24.492,28.931z"/>
	<path class="st0" d="M38.512,15.162c0-0.648,0.005-1.147-0.001-1.646c-0.017-1.387,0.123-0.026-0.087-1.383
		c-0.844-5.434-3.898-9.212-9.099-10.943c-5.223-1.738-9.978-0.577-13.947,3.27c-2.591,2.512-3.885,5.647-3.88,9.285
		c0.002,1.376,0-0.021,0,1.435c-1.058,0-1.99,0-2.966,0c0,9.041,0,17.999,0,27.011c11.004,0,21.961,0,32.937,0
		c0-9.028,0-17.986,0-27.029C40.484,15.162,39.551,15.162,38.512,15.162z M17.927,11.837c0.884-3.586,4.609-5.768,8.291-5.193
		c3.531,0.551,6.193,3.68,6.216,7.311c0.008,1.291,0.001-0.19,0.001,1.166c-5.015,0-9.879,0-14.992,0
		C17.587,13.067,17.452,13.763,17.927,11.837z M24.982,37.169c-4.668-0.009-8.33-3.708-8.307-8.392
		c0.022-4.597,3.743-8.282,8.355-8.275c4.634,0.007,8.327,3.747,8.306,8.411C33.313,33.532,29.624,37.178,24.982,37.169z"/>
</g>
</svg>
