<?xml version="1.0" encoding="utf-8"?>
<!-- Generator: Adobe Illustrator 21.1.0, SVG Export Plug-In . SVG Version: 6.00 Build 0)  -->
<svg version="1.1" id="Layer_1" xmlns="http://www.w3.org/2000/svg" xmlns:xlink="http://www.w3.org/1999/xlink" x="0px" y="0px"
	 viewBox="0 0 50 50" style="enable-background:new 0 0 50 50;" xml:space="preserve">
<style type="text/css">
	.st0{fill:#6D8CBC;}
</style>
<path class="st0" d="M46.486,23.973c0.082-0.122,0.138-0.254,0.207-0.381c0.077-0.141,0.162-0.277,0.225-0.427
	c0.066-0.16,0.105-0.327,0.153-0.493c0.037-0.128,0.087-0.251,0.114-0.383c0.121-0.607,0.121-1.233,0-1.84
	c-0.026-0.133-0.076-0.255-0.114-0.383c-0.048-0.165-0.087-0.333-0.153-0.493c-0.062-0.15-0.148-0.285-0.225-0.427
	c-0.069-0.127-0.125-0.259-0.207-0.381c-0.157-0.235-0.338-0.451-0.534-0.654c-0.019-0.019-0.031-0.042-0.05-0.061L30.353,2.5
	c-1.834-1.832-4.805-1.832-6.639,0c-1.833,1.834-1.833,4.805,0,6.639l7.536,7.536H7.419c-2.592,0-4.694,2.102-4.694,4.694
	s2.102,4.694,4.694,4.694H31.25l-8.049,8.049c-1.833,1.834-1.833,4.805,0,6.639c0.917,0.916,2.118,1.375,3.319,1.375
	s2.403-0.458,3.319-1.375l16.063-16.063c0.019-0.019,0.031-0.042,0.05-0.061C46.148,24.424,46.329,24.208,46.486,23.973z"/>
</svg>
