<?xml version="1.0" encoding="utf-8"?>
<!-- Generator: Adobe Illustrator 21.1.0, SVG Export Plug-In . SVG Version: 6.00 Build 0)  -->
<svg version="1.1" id="Layer_1" xmlns="http://www.w3.org/2000/svg" xmlns:xlink="http://www.w3.org/1999/xlink" x="0px" y="0px"
	 viewBox="0 0 150 50" style="enable-background:new 0 0 150 50;" xml:space="preserve">
<style type="text/css">
	.st0{fill:#FFFFFF;}
</style>
<g id="XMLID_128_">
	<g id="XMLID_241_">
		<path id="XMLID_242_" class="st0" d="M119.689,34.999c0,1.403-1.129,2.516-2.561,2.516c-1.434,0-2.577-1.113-2.577-2.516
			c0-1.402,1.144-2.5,2.592-2.5C118.56,32.499,119.689,33.596,119.689,34.999z M115.191,34.999c0,1.114,0.839,1.998,1.952,1.998
			c1.081,0.015,1.905-0.884,1.905-1.983c0-1.111-0.824-2.012-1.935-2.012C116.03,33.002,115.191,33.902,115.191,34.999z
			 M116.731,36.295h-0.579v-2.5c0.23-0.031,0.549-0.076,0.962-0.076c0.472,0,0.686,0.076,0.853,0.197
			c0.154,0.107,0.258,0.291,0.258,0.534c0,0.305-0.229,0.502-0.518,0.594v0.03c0.245,0.077,0.366,0.275,0.442,0.611
			c0.076,0.381,0.137,0.518,0.185,0.609h-0.612c-0.076-0.091-0.121-0.305-0.197-0.609c-0.045-0.26-0.199-0.382-0.518-0.382h-0.275
			V36.295z M116.746,34.891h0.276c0.32,0,0.578-0.106,0.578-0.365c0-0.229-0.167-0.381-0.533-0.381c-0.152,0-0.258,0.014-0.321,0.03
			V34.891z"/>
	</g>
	<g id="XMLID_129_">
		<g id="XMLID_133_">
			<g>
				<path class="st0" d="M101.073,14.154c-4.736-1.646-10.136-1.144-14.438,0.185l2.35,15.388L78.872,13.245L68.824,33.193
					c-2.714-9.519-4.157-19.758-4.157-19.758L56.05,27.806l-9.557-15.198l-1.609,15.502c-0.061-0.165-0.105-0.255-0.105-0.255
					l-0.004-0.046c-0.093-0.197-0.232-0.457-0.308-0.578c-1.382-2.503-6.037-3.981-9.325-5.105
					c-8.337-2.855-5.792-5.789-1.273-6.488c3.155-0.492,6.733,0.075,8.98,1.478l1.154-3.367c-6.303-3.317-20.307-2.39-18.038,6.323
					c1.311,5.037,11.931,5.757,14.442,8.701c0.208,0.247,0.498,0.598,0.635,0.917c0.187,0.435,0.249,0.933,0.051,1.56
					c-0.029,0.094-0.075,0.398-0.136,0.521c-0.089,0.18-0.19,0.358-0.263,0.452c-1.607,2.033-4.835,2.112-7.793,1.751
					c-3.39-0.413-6.419-2.084-6.595-2.476l-1.424,3.581c5.358,2.893,15.525,4.604,19.32-0.727c0.016-0.021,0.025-0.036,0.039-0.057
					l-0.355,3.425l4.026-0.069l1.244-14.039l7.078,11.181l6.607-11.181c0,0,0.702,2.897,1.979,8.215
					c1.079,4.492,1.756,6.196,1.756,6.196l3.465-0.271l3.428-6.899h12.24l4.577,6.897l3.786-0.006l-2.037-12.034
					c2.517,3.499,9.471,8.12,14.941,10.042l-0.366,2.084l3.958,0.091l3.479-20.546l8.374,0.092l1.304-3.364L101.073,14.154z
					 M75.138,27.49l4.031-8.112l4.309,8.112H75.138z M91.326,21.224l-0.711-4.553c2.404-1.441,10.159-0.572,9.292,1.831
					C99.036,20.904,91.485,21.933,91.326,21.224z M107.593,32.504c-4.781-1.693-12.126-7.206-12.4-8.35
					c2.7-0.205,8.465-1.738,7.847-6.681l6.888,0.045L107.593,32.504z"/>
			</g>
		</g>
		<path id="XMLID_132_" class="st0" d="M53.829,22.755"/>
		<path id="XMLID_131_" class="st0" d="M53.829,22.755"/>
		<path id="XMLID_130_" class="st0" d="M56.863,27.806"/>
	</g>
</g>
</svg>
