<?xml version="1.0" encoding="utf-8"?>
<!-- Generator: Adobe Illustrator 21.1.0, SVG Export Plug-In . SVG Version: 6.00 Build 0)  -->
<svg version="1.1" id="Layer_1" xmlns="http://www.w3.org/2000/svg" xmlns:xlink="http://www.w3.org/1999/xlink" x="0px" y="0px"
	 viewBox="0 0 100 20" style="enable-background:new 0 0 100 20;" xml:space="preserve">
<style type="text/css">
	.st0{fill:#00B4E4;}
	.st1{fill:#3C4852;}
</style>
<g id="m1EeXw_1_">
	<g>
		<path class="st0" d="M10.272,18.5c-0.782-1.061-1.551-2.097-2.31-3.14c-0.095-0.13-0.19-0.173-0.346-0.173
			C6.26,15.192,4.905,15.19,3.549,15.19c-0.377,0-0.492-0.11-0.492-0.485c-0.001-3.961-0.001-7.922,0-11.884
			c0-0.361,0.13-0.487,0.498-0.487c4.481,0,8.963,0,13.443,0c0.361,0,0.499,0.134,0.499,0.494c0.001,3.961,0.001,7.922,0,11.884
			c0,0.359-0.122,0.478-0.479,0.478c-1.356,0.001-2.711,0.002-4.067-0.003c-0.163-0.001-0.264,0.044-0.363,0.18
			c-0.738,1.016-1.486,2.024-2.23,3.035C10.337,18.428,10.313,18.452,10.272,18.5z M10.277,10.317c0,0.001,0,0.003,0,0.006
			c0.162,0,0.323-0.001,0.484,0c0.207,0.001,0.334-0.093,0.351-0.305c0.031-0.384,0.274-0.609,0.57-0.807
			c0.208-0.14,0.42-0.282,0.598-0.458c1.033-1.012,0.7-2.654-0.38-3.201C10.91,5.051,9.886,5.064,8.9,5.592
			C8.373,5.874,8.118,6.353,8.083,6.95C8.071,7.153,8.167,7.228,8.359,7.225c0.295-0.005,0.59-0.001,0.885-0.001
			c0.299,0,0.364-0.042,0.475-0.312c0.138-0.335,0.41-0.48,0.836-0.45c0.318,0.023,0.576,0.246,0.651,0.565
			c0.129,0.543-0.085,1.083-0.547,1.418c-0.249,0.181-0.496,0.368-0.725,0.573C9.646,9.274,9.49,9.603,9.47,9.995
			c-0.011,0.214,0.046,0.303,0.26,0.32C9.911,10.33,10.095,10.317,10.277,10.317z M10.273,12.321c0.147,0,0.295,0.002,0.442-0.001
			c0.229-0.005,0.356-0.112,0.371-0.339c0.014-0.216,0.008-0.434-0.005-0.651c-0.011-0.197-0.135-0.307-0.329-0.312
			c-0.315-0.009-0.632-0.008-0.946,0c-0.19,0.006-0.323,0.108-0.335,0.306c-0.014,0.23-0.014,0.463,0.002,0.692
			c0.014,0.195,0.14,0.298,0.337,0.304C9.965,12.323,10.12,12.321,10.273,12.321z"/>
	</g>
</g>
<g>
	<path class="st1" d="M26.066,8.148h-1.553v4.224h-1.044V8.148h-1.532V7.301h4.13v0.847H26.066z"/>
	<path class="st1" d="M28.015,12.371c-0.047-0.091-0.08-0.203-0.101-0.337c-0.244,0.272-0.561,0.407-0.951,0.407
		c-0.369,0-0.675-0.106-0.918-0.32s-0.364-0.483-0.364-0.808c0-0.399,0.148-0.706,0.444-0.919c0.296-0.214,0.724-0.322,1.283-0.324
		h0.463V9.854c0-0.175-0.044-0.313-0.134-0.418c-0.089-0.105-0.231-0.156-0.423-0.156c-0.17,0-0.303,0.041-0.399,0.121
		c-0.096,0.081-0.144,0.193-0.144,0.334h-1.006c0-0.218,0.067-0.42,0.202-0.605c0.134-0.186,0.325-0.332,0.571-0.437
		c0.246-0.106,0.522-0.159,0.828-0.159c0.464,0,0.833,0.117,1.106,0.35c0.273,0.234,0.409,0.561,0.409,0.984v1.633
		c0.002,0.357,0.052,0.628,0.15,0.811v0.059C29.031,12.371,28.015,12.371,28.015,12.371z M27.182,11.671
		c0.149,0,0.286-0.032,0.411-0.099c0.126-0.067,0.218-0.155,0.278-0.267v-0.648h-0.376c-0.504,0-0.772,0.175-0.804,0.523
		l-0.003,0.059c0,0.126,0.044,0.229,0.132,0.31C26.908,11.631,27.029,11.671,27.182,11.671z"/>
	<path class="st1" d="M30.844,10.86l-0.362,0.362v1.149h-1.006V7.023h1.006v2.963l0.195-0.251l0.965-1.131h1.208l-1.362,1.57
		l1.48,2.197h-1.156L30.844,10.86z"/>
	<path class="st1" d="M34.772,12.441c-0.552,0-1.003-0.17-1.349-0.509c-0.347-0.338-0.521-0.79-0.521-1.354v-0.097
		c0-0.378,0.073-0.717,0.219-1.015s0.353-0.529,0.621-0.69s0.574-0.242,0.918-0.242c0.515,0,0.921,0.163,1.217,0.488
		c0.296,0.325,0.444,0.786,0.444,1.382v0.411h-2.399c0.032,0.246,0.131,0.443,0.294,0.592s0.371,0.223,0.621,0.223
		c0.388,0,0.691-0.14,0.909-0.421l0.494,0.554c-0.151,0.214-0.355,0.381-0.613,0.5C35.371,12.381,35.085,12.441,34.772,12.441z
		 M34.657,9.346c-0.2,0-0.362,0.068-0.485,0.203c-0.124,0.135-0.204,0.329-0.239,0.581h1.4v-0.081
		c-0.005-0.224-0.065-0.397-0.181-0.52C35.035,9.407,34.87,9.346,34.657,9.346z"/>
	<path class="st1" d="M42.357,10.683c-0.039,0.545-0.241,0.975-0.604,1.288s-0.842,0.47-1.436,0.47c-0.65,0-1.161-0.219-1.534-0.657
		c-0.372-0.437-0.559-1.037-0.559-1.801v-0.31c0-0.487,0.086-0.917,0.258-1.288c0.172-0.372,0.417-0.656,0.736-0.855
		s0.69-0.298,1.113-0.298c0.585,0,1.056,0.156,1.414,0.47s0.564,0.753,0.62,1.32H41.32c-0.025-0.328-0.117-0.565-0.273-0.712
		c-0.157-0.147-0.395-0.221-0.715-0.221c-0.348,0-0.609,0.125-0.782,0.374c-0.173,0.25-0.262,0.637-0.266,1.161v0.383
		c0,0.548,0.083,0.948,0.249,1.201c0.166,0.254,0.428,0.38,0.785,0.38c0.323,0,0.564-0.074,0.723-0.221
		c0.159-0.148,0.25-0.376,0.273-0.684C41.314,10.683,42.357,10.683,42.357,10.683z"/>
	<path class="st1" d="M44.533,12.441c-0.552,0-1.002-0.17-1.349-0.509c-0.347-0.338-0.521-0.79-0.521-1.354v-0.097
		c0-0.378,0.073-0.717,0.219-1.015s0.353-0.529,0.621-0.69s0.574-0.242,0.918-0.242c0.515,0,0.921,0.163,1.217,0.488
		c0.296,0.325,0.444,0.786,0.444,1.382v0.411h-2.399c0.032,0.246,0.131,0.443,0.294,0.592s0.371,0.223,0.621,0.223
		c0.388,0,0.691-0.14,0.909-0.421l0.494,0.554c-0.151,0.214-0.355,0.381-0.613,0.5C45.132,12.381,44.846,12.441,44.533,12.441z
		 M44.418,9.346c-0.2,0-0.362,0.068-0.485,0.203c-0.124,0.135-0.204,0.329-0.239,0.581h1.4v-0.081
		c-0.005-0.224-0.065-0.397-0.181-0.52C44.796,9.407,44.631,9.346,44.418,9.346z"/>
	<path class="st1" d="M48.592,9.548C48.455,9.529,48.335,9.52,48.23,9.52c-0.381,0-0.63,0.129-0.749,0.387v2.465h-1.006V8.604h0.951
		l0.028,0.449c0.202-0.346,0.481-0.519,0.839-0.519c0.112,0,0.216,0.015,0.313,0.046L48.592,9.548z"/>
	<path class="st1" d="M50.276,7.678v0.926h0.644v0.738h-0.644v1.88c0,0.14,0.027,0.239,0.081,0.299
		c0.053,0.061,0.155,0.091,0.306,0.091c0.111,0,0.21-0.008,0.296-0.024v0.762c-0.197,0.061-0.4,0.091-0.609,0.091
		c-0.706,0-1.066-0.357-1.079-1.069v-2.03h-0.55V8.604h0.55V7.678H50.276z"/>
	<path class="st1" d="M51.296,7.629c0-0.15,0.05-0.275,0.151-0.372s0.239-0.146,0.412-0.146c0.172,0,0.309,0.049,0.411,0.146
		s0.154,0.222,0.154,0.372c0,0.153-0.052,0.278-0.155,0.377c-0.103,0.097-0.239,0.145-0.409,0.145s-0.306-0.048-0.409-0.145
		C51.348,7.907,51.296,7.782,51.296,7.629z M52.365,12.371h-1.01V8.604h1.01V12.371z"/>
	<path class="st1" d="M53.291,12.371V9.342h-0.562V8.604h0.562v-0.32c0-0.423,0.121-0.751,0.364-0.984
		c0.242-0.233,0.582-0.35,1.018-0.35c0.139,0,0.31,0.023,0.512,0.069l-0.011,0.774c-0.084-0.021-0.185-0.032-0.307-0.032
		c-0.378,0-0.567,0.18-0.567,0.538v0.305h0.748v0.738H54.3v3.029H53.291z"/>
	<path class="st1" d="M55.387,7.629c0-0.15,0.05-0.275,0.151-0.372s0.239-0.146,0.412-0.146c0.172,0,0.309,0.049,0.411,0.146
		s0.154,0.222,0.154,0.372c0,0.153-0.052,0.278-0.155,0.377c-0.103,0.097-0.239,0.145-0.409,0.145c-0.17,0-0.306-0.048-0.409-0.145
		C55.438,7.907,55.387,7.782,55.387,7.629z M56.456,12.371h-1.01V8.604h1.01V12.371z"/>
	<path class="st1" d="M58.673,11.63c0.185,0,0.337-0.051,0.452-0.153c0.116-0.102,0.177-0.238,0.181-0.407h0.943
		c-0.002,0.255-0.071,0.489-0.209,0.702c-0.137,0.212-0.324,0.377-0.562,0.494c-0.239,0.117-0.501,0.176-0.789,0.176
		c-0.539,0-0.963-0.171-1.274-0.514c-0.311-0.342-0.467-0.815-0.467-1.419v-0.066c0-0.58,0.155-1.043,0.464-1.39
		c0.308-0.346,0.732-0.519,1.27-0.519c0.471,0,0.85,0.135,1.134,0.402c0.284,0.268,0.429,0.625,0.433,1.071h-0.943
		c-0.004-0.196-0.065-0.355-0.181-0.478c-0.116-0.122-0.269-0.184-0.459-0.184c-0.235,0-0.411,0.086-0.531,0.257
		c-0.12,0.17-0.18,0.448-0.18,0.831v0.105c0,0.388,0.059,0.668,0.178,0.837C58.251,11.545,58.431,11.63,58.673,11.63z"/>
	<path class="st1" d="M62.829,12.371c-0.047-0.091-0.08-0.203-0.101-0.337c-0.244,0.272-0.561,0.407-0.951,0.407
		c-0.369,0-0.675-0.106-0.917-0.32c-0.243-0.214-0.364-0.483-0.364-0.808c0-0.399,0.148-0.706,0.444-0.919
		c0.296-0.214,0.723-0.322,1.283-0.324h0.464V9.854c0-0.175-0.045-0.313-0.135-0.418c-0.089-0.105-0.23-0.156-0.423-0.156
		c-0.17,0-0.302,0.041-0.398,0.121c-0.096,0.081-0.145,0.193-0.145,0.334h-1.007c0-0.218,0.067-0.42,0.202-0.605
		c0.135-0.186,0.325-0.332,0.571-0.437c0.246-0.106,0.523-0.159,0.829-0.159c0.465,0,0.833,0.117,1.106,0.35
		c0.273,0.234,0.409,0.561,0.409,0.984v1.633c0.002,0.357,0.052,0.628,0.15,0.811v0.059C63.846,12.371,62.829,12.371,62.829,12.371z
		 M61.997,11.671c0.149,0,0.286-0.032,0.411-0.099c0.126-0.067,0.219-0.155,0.279-0.267v-0.648H62.31
		c-0.504,0-0.771,0.175-0.804,0.523l-0.004,0.059c0,0.126,0.044,0.229,0.133,0.31C61.723,11.631,61.844,11.671,61.997,11.671z"/>
	<path class="st1" d="M65.496,7.678v0.926h0.644v0.738h-0.644v1.88c0,0.14,0.027,0.239,0.081,0.299
		c0.053,0.061,0.155,0.091,0.306,0.091c0.111,0,0.21-0.008,0.296-0.024v0.762c-0.197,0.061-0.4,0.091-0.609,0.091
		c-0.706,0-1.066-0.357-1.079-1.069v-2.03h-0.55V8.604h0.55V7.678H65.496z"/>
	<path class="st1" d="M66.516,7.629c0-0.15,0.05-0.275,0.151-0.372s0.239-0.146,0.412-0.146c0.172,0,0.309,0.049,0.411,0.146
		c0.102,0.097,0.154,0.222,0.154,0.372c0,0.153-0.052,0.278-0.155,0.377c-0.103,0.097-0.239,0.145-0.409,0.145
		s-0.306-0.048-0.409-0.145C66.567,7.907,66.516,7.782,66.516,7.629z M67.585,12.371h-1.01V8.604h1.01V12.371z"/>
	<path class="st1" d="M68.077,10.453c0-0.373,0.072-0.707,0.216-0.999c0.144-0.293,0.352-0.519,0.622-0.679
		c0.27-0.16,0.584-0.24,0.942-0.24c0.508,0,0.924,0.155,1.244,0.467c0.322,0.311,0.501,0.733,0.539,1.267l0.007,0.258
		c0,0.579-0.161,1.042-0.484,1.392c-0.323,0.349-0.756,0.524-1.299,0.524c-0.543,0-0.977-0.174-1.3-0.522
		c-0.324-0.348-0.486-0.822-0.486-1.421v-0.047H68.077z M69.084,10.524c0,0.358,0.067,0.632,0.202,0.821s0.328,0.284,0.578,0.284
		c0.244,0,0.434-0.094,0.571-0.281s0.205-0.486,0.205-0.898c0-0.351-0.068-0.623-0.205-0.816s-0.329-0.289-0.578-0.289
		c-0.246,0-0.436,0.096-0.571,0.288C69.151,9.825,69.084,10.122,69.084,10.524z"/>
	<path class="st1" d="M73.015,8.604l0.032,0.436c0.269-0.337,0.63-0.505,1.083-0.505c0.399,0,0.696,0.117,0.891,0.352
		c0.195,0.234,0.294,0.585,0.299,1.052v2.434h-1.006V9.957c0-0.214-0.047-0.369-0.14-0.466c-0.093-0.096-0.247-0.145-0.463-0.145
		c-0.283,0-0.495,0.121-0.638,0.363v2.663h-1.006V8.604H73.015z"/>
	<path class="st1" d="M81.725,9.952c0,0.474-0.076,0.885-0.23,1.234c-0.153,0.349-0.365,0.629-0.637,0.841l0.843,0.661l-0.665,0.589
		l-1.08-0.867c-0.123,0.021-0.251,0.032-0.383,0.032c-0.42,0-0.795-0.101-1.125-0.303c-0.329-0.202-0.584-0.49-0.766-0.865
		c-0.181-0.375-0.273-0.806-0.275-1.293V9.729c0-0.499,0.09-0.938,0.269-1.318c0.18-0.38,0.435-0.671,0.763-0.874
		s0.704-0.304,1.126-0.304s0.798,0.101,1.126,0.304c0.328,0.204,0.583,0.495,0.762,0.874c0.18,0.379,0.27,0.817,0.27,1.314v0.227
		H81.725z M80.667,9.722c0-0.532-0.096-0.936-0.286-1.212s-0.462-0.415-0.815-0.415c-0.351,0-0.621,0.137-0.811,0.41
		c-0.19,0.273-0.287,0.672-0.289,1.2v0.247c0,0.518,0.096,0.919,0.286,1.204c0.19,0.286,0.464,0.429,0.821,0.429
		c0.351,0,0.62-0.138,0.808-0.413c0.188-0.275,0.283-0.676,0.286-1.203V9.722z"/>
	<path class="st1" d="M84.503,11.988c-0.249,0.303-0.592,0.453-1.031,0.453c-0.404,0-0.712-0.116-0.924-0.348
		c-0.212-0.232-0.321-0.572-0.325-1.02V8.604h1.006v2.436c0,0.393,0.179,0.589,0.536,0.589c0.342,0,0.576-0.119,0.703-0.356v-2.67
		h1.01v3.767h-0.947L84.503,11.988z"/>
	<path class="st1" d="M86.053,7.629c0-0.15,0.05-0.275,0.151-0.372s0.239-0.146,0.412-0.146c0.172,0,0.309,0.049,0.411,0.146
		c0.102,0.097,0.154,0.222,0.154,0.372c0,0.153-0.052,0.278-0.155,0.377c-0.103,0.097-0.239,0.145-0.409,0.145
		s-0.306-0.048-0.409-0.145C86.104,7.907,86.053,7.782,86.053,7.629z M87.122,12.371h-1.01V8.604h1.01V12.371z"/>
	<path class="st1" d="M88.928,11.56h1.841v0.811h-3.126v-0.613l1.772-2.343h-1.72V8.604h3.018v0.593L88.928,11.56z"/>
</g>
</svg>
