<?xml version="1.0" encoding="utf-8"?>
<!-- Generator: Adobe Illustrator 22.0.0, SVG Export Plug-In . SVG Version: 6.00 Build 0)  -->
<svg version="1.1" id="Layer_1" xmlns="http://www.w3.org/2000/svg" xmlns:xlink="http://www.w3.org/1999/xlink" x="0px" y="0px"
	 viewBox="0 0 100 20" style="enable-background:new 0 0 100 20;" xml:space="preserve">
<style type="text/css">
	.st0{fill:#3C4852;}
	.st1{fill:#405461;}
	.st2{fill:#333D47;}
	.st3{fill:#242E33;}
	.st4{fill:#EE4649;}
	.st5{fill:#FFFFFF;}
	.st6{fill:#F9BE13;}
	.st7{fill:#F89C1E;}
</style>
<g>
	<path class="st0" d="M26.066,8.148h-1.553v4.224h-1.044V8.148h-1.532V7.301h4.13v0.847H26.066z"/>
	<path class="st0" d="M28.015,12.371c-0.047-0.091-0.08-0.203-0.101-0.337c-0.244,0.272-0.561,0.407-0.951,0.407
		c-0.369,0-0.675-0.106-0.918-0.32s-0.364-0.483-0.364-0.808c0-0.399,0.148-0.706,0.444-0.919c0.296-0.214,0.724-0.322,1.283-0.324
		h0.463V9.854c0-0.175-0.044-0.313-0.134-0.418c-0.089-0.105-0.231-0.156-0.423-0.156c-0.17,0-0.303,0.041-0.399,0.121
		c-0.096,0.081-0.144,0.193-0.144,0.334h-1.006c0-0.218,0.067-0.42,0.202-0.605c0.134-0.186,0.325-0.332,0.571-0.437
		c0.246-0.106,0.522-0.159,0.828-0.159c0.464,0,0.833,0.117,1.106,0.35c0.273,0.234,0.409,0.561,0.409,0.984v1.633
		c0.002,0.357,0.052,0.628,0.15,0.811v0.059C29.031,12.371,28.015,12.371,28.015,12.371z M27.182,11.671
		c0.149,0,0.286-0.032,0.411-0.099c0.126-0.067,0.218-0.155,0.278-0.267v-0.648h-0.376c-0.504,0-0.772,0.175-0.804,0.523
		l-0.003,0.059c0,0.126,0.044,0.229,0.132,0.31C26.908,11.631,27.029,11.671,27.182,11.671z"/>
	<path class="st0" d="M30.844,10.86l-0.362,0.362v1.149h-1.006V7.023h1.006v2.963l0.195-0.251l0.965-1.131h1.208l-1.362,1.57
		l1.48,2.197h-1.156L30.844,10.86z"/>
	<path class="st0" d="M34.772,12.441c-0.552,0-1.003-0.17-1.349-0.509c-0.347-0.338-0.521-0.79-0.521-1.354v-0.097
		c0-0.378,0.073-0.717,0.219-1.015s0.353-0.529,0.621-0.69s0.574-0.242,0.918-0.242c0.515,0,0.921,0.163,1.217,0.488
		c0.296,0.325,0.444,0.786,0.444,1.382v0.411h-2.399c0.032,0.246,0.131,0.443,0.294,0.592s0.371,0.223,0.621,0.223
		c0.388,0,0.691-0.14,0.909-0.421l0.494,0.554c-0.151,0.214-0.355,0.381-0.613,0.5C35.371,12.381,35.085,12.441,34.772,12.441z
		 M34.657,9.346c-0.2,0-0.362,0.068-0.485,0.203c-0.124,0.135-0.204,0.329-0.239,0.581h1.4v-0.081
		c-0.005-0.224-0.065-0.397-0.181-0.52C35.035,9.407,34.87,9.346,34.657,9.346z"/>
	<path class="st0" d="M42.357,10.683c-0.039,0.545-0.241,0.975-0.604,1.288s-0.842,0.47-1.436,0.47c-0.65,0-1.161-0.219-1.534-0.657
		c-0.372-0.437-0.559-1.037-0.559-1.801v-0.31c0-0.487,0.086-0.917,0.258-1.288c0.172-0.372,0.417-0.656,0.736-0.855
		s0.69-0.298,1.113-0.298c0.585,0,1.056,0.156,1.414,0.47s0.564,0.753,0.62,1.32H41.32c-0.025-0.328-0.117-0.565-0.273-0.712
		c-0.157-0.147-0.395-0.221-0.715-0.221c-0.348,0-0.609,0.125-0.782,0.374c-0.173,0.25-0.262,0.637-0.266,1.161v0.383
		c0,0.548,0.083,0.948,0.249,1.201c0.166,0.254,0.428,0.38,0.785,0.38c0.323,0,0.564-0.074,0.723-0.221
		c0.159-0.148,0.25-0.376,0.273-0.684C41.314,10.683,42.357,10.683,42.357,10.683z"/>
	<path class="st0" d="M44.533,12.441c-0.552,0-1.002-0.17-1.349-0.509c-0.347-0.338-0.521-0.79-0.521-1.354v-0.097
		c0-0.378,0.073-0.717,0.219-1.015s0.353-0.529,0.621-0.69s0.574-0.242,0.918-0.242c0.515,0,0.921,0.163,1.217,0.488
		c0.296,0.325,0.444,0.786,0.444,1.382v0.411h-2.399c0.032,0.246,0.131,0.443,0.294,0.592s0.371,0.223,0.621,0.223
		c0.388,0,0.691-0.14,0.909-0.421l0.494,0.554c-0.151,0.214-0.355,0.381-0.613,0.5C45.132,12.381,44.846,12.441,44.533,12.441z
		 M44.418,9.346c-0.2,0-0.362,0.068-0.485,0.203c-0.124,0.135-0.204,0.329-0.239,0.581h1.4v-0.081
		c-0.005-0.224-0.065-0.397-0.181-0.52C44.796,9.407,44.631,9.346,44.418,9.346z"/>
	<path class="st0" d="M48.592,9.548C48.455,9.529,48.335,9.52,48.23,9.52c-0.381,0-0.63,0.129-0.749,0.387v2.465h-1.006V8.604h0.951
		l0.028,0.449c0.202-0.346,0.481-0.519,0.839-0.519c0.112,0,0.216,0.015,0.313,0.046L48.592,9.548z"/>
	<path class="st0" d="M50.276,7.678v0.926h0.644v0.738h-0.644v1.88c0,0.14,0.027,0.239,0.081,0.299
		c0.053,0.061,0.155,0.091,0.306,0.091c0.111,0,0.21-0.008,0.296-0.024v0.762c-0.197,0.061-0.4,0.091-0.609,0.091
		c-0.706,0-1.066-0.357-1.079-1.069v-2.03h-0.55V8.604h0.55V7.678H50.276z"/>
	<path class="st0" d="M51.296,7.629c0-0.15,0.05-0.275,0.151-0.372s0.239-0.146,0.412-0.146c0.172,0,0.309,0.049,0.411,0.146
		s0.154,0.222,0.154,0.372c0,0.153-0.052,0.278-0.155,0.377c-0.103,0.097-0.239,0.145-0.409,0.145s-0.306-0.048-0.409-0.145
		C51.348,7.907,51.296,7.782,51.296,7.629z M52.365,12.371h-1.01V8.604h1.01V12.371z"/>
	<path class="st0" d="M53.291,12.371V9.342h-0.562V8.604h0.562v-0.32c0-0.423,0.121-0.751,0.364-0.984
		c0.242-0.233,0.582-0.35,1.018-0.35c0.139,0,0.31,0.023,0.512,0.069l-0.011,0.774c-0.084-0.021-0.185-0.032-0.307-0.032
		c-0.378,0-0.567,0.18-0.567,0.538v0.305h0.748v0.738H54.3v3.029H53.291z"/>
	<path class="st0" d="M55.387,7.629c0-0.15,0.05-0.275,0.151-0.372s0.239-0.146,0.412-0.146c0.172,0,0.309,0.049,0.411,0.146
		s0.154,0.222,0.154,0.372c0,0.153-0.052,0.278-0.155,0.377c-0.103,0.097-0.239,0.145-0.409,0.145c-0.17,0-0.306-0.048-0.409-0.145
		C55.438,7.907,55.387,7.782,55.387,7.629z M56.456,12.371h-1.01V8.604h1.01V12.371z"/>
	<path class="st0" d="M58.673,11.63c0.185,0,0.337-0.051,0.452-0.153c0.116-0.102,0.177-0.238,0.181-0.407h0.943
		c-0.002,0.255-0.071,0.489-0.209,0.702c-0.137,0.212-0.324,0.377-0.562,0.494c-0.239,0.117-0.501,0.176-0.789,0.176
		c-0.539,0-0.963-0.171-1.274-0.514c-0.311-0.342-0.467-0.815-0.467-1.419v-0.066c0-0.58,0.155-1.043,0.464-1.39
		c0.308-0.346,0.732-0.519,1.27-0.519c0.471,0,0.85,0.135,1.134,0.402c0.284,0.268,0.429,0.625,0.433,1.071h-0.943
		c-0.004-0.196-0.065-0.355-0.181-0.478c-0.116-0.122-0.269-0.184-0.459-0.184c-0.235,0-0.411,0.086-0.531,0.257
		c-0.12,0.17-0.18,0.448-0.18,0.831v0.105c0,0.388,0.059,0.668,0.178,0.837C58.251,11.545,58.431,11.63,58.673,11.63z"/>
	<path class="st0" d="M62.829,12.371c-0.047-0.091-0.08-0.203-0.101-0.337c-0.244,0.272-0.561,0.407-0.951,0.407
		c-0.369,0-0.675-0.106-0.917-0.32c-0.243-0.214-0.364-0.483-0.364-0.808c0-0.399,0.148-0.706,0.444-0.919
		c0.296-0.214,0.723-0.322,1.283-0.324h0.464V9.854c0-0.175-0.045-0.313-0.135-0.418c-0.089-0.105-0.23-0.156-0.423-0.156
		c-0.17,0-0.302,0.041-0.398,0.121c-0.096,0.081-0.145,0.193-0.145,0.334h-1.007c0-0.218,0.067-0.42,0.202-0.605
		c0.135-0.186,0.325-0.332,0.571-0.437c0.246-0.106,0.523-0.159,0.829-0.159c0.465,0,0.833,0.117,1.106,0.35
		c0.273,0.234,0.409,0.561,0.409,0.984v1.633c0.002,0.357,0.052,0.628,0.15,0.811v0.059C63.846,12.371,62.829,12.371,62.829,12.371z
		 M61.997,11.671c0.149,0,0.286-0.032,0.411-0.099c0.126-0.067,0.219-0.155,0.279-0.267v-0.648H62.31
		c-0.504,0-0.771,0.175-0.804,0.523l-0.004,0.059c0,0.126,0.044,0.229,0.133,0.31C61.723,11.631,61.844,11.671,61.997,11.671z"/>
	<path class="st0" d="M65.496,7.678v0.926h0.644v0.738h-0.644v1.88c0,0.14,0.027,0.239,0.081,0.299
		c0.053,0.061,0.155,0.091,0.306,0.091c0.111,0,0.21-0.008,0.296-0.024v0.762c-0.197,0.061-0.4,0.091-0.609,0.091
		c-0.706,0-1.066-0.357-1.079-1.069v-2.03h-0.55V8.604h0.55V7.678H65.496z"/>
	<path class="st0" d="M66.516,7.629c0-0.15,0.05-0.275,0.151-0.372s0.239-0.146,0.412-0.146c0.172,0,0.309,0.049,0.411,0.146
		c0.102,0.097,0.154,0.222,0.154,0.372c0,0.153-0.052,0.278-0.155,0.377c-0.103,0.097-0.239,0.145-0.409,0.145
		s-0.306-0.048-0.409-0.145C66.567,7.907,66.516,7.782,66.516,7.629z M67.585,12.371h-1.01V8.604h1.01V12.371z"/>
	<path class="st0" d="M68.077,10.453c0-0.373,0.072-0.707,0.216-0.999c0.144-0.293,0.352-0.519,0.622-0.679
		c0.27-0.16,0.584-0.24,0.942-0.24c0.508,0,0.924,0.155,1.244,0.467c0.322,0.311,0.501,0.733,0.539,1.267l0.007,0.258
		c0,0.579-0.161,1.042-0.484,1.392c-0.323,0.349-0.756,0.524-1.299,0.524c-0.543,0-0.977-0.174-1.3-0.522
		c-0.324-0.348-0.486-0.822-0.486-1.421v-0.047C68.078,10.453,68.077,10.453,68.077,10.453z M69.084,10.524
		c0,0.358,0.067,0.632,0.202,0.821s0.328,0.284,0.578,0.284c0.244,0,0.434-0.094,0.571-0.281s0.205-0.486,0.205-0.898
		c0-0.351-0.068-0.623-0.205-0.816s-0.329-0.289-0.578-0.289c-0.246,0-0.436,0.096-0.571,0.288
		C69.151,9.825,69.084,10.122,69.084,10.524z"/>
	<path class="st0" d="M73.015,8.604l0.032,0.436c0.269-0.337,0.63-0.505,1.083-0.505c0.399,0,0.696,0.117,0.891,0.352
		c0.195,0.234,0.294,0.585,0.299,1.052v2.434h-1.006V9.957c0-0.214-0.047-0.369-0.14-0.466c-0.093-0.096-0.247-0.145-0.463-0.145
		c-0.283,0-0.495,0.121-0.638,0.363v2.663h-1.006V8.604H73.015z"/>
	<path class="st0" d="M81.725,9.952c0,0.474-0.076,0.885-0.23,1.234c-0.153,0.349-0.365,0.629-0.637,0.841l0.843,0.661l-0.665,0.589
		l-1.08-0.867c-0.123,0.021-0.251,0.032-0.383,0.032c-0.42,0-0.795-0.101-1.125-0.303c-0.329-0.202-0.584-0.49-0.766-0.865
		c-0.181-0.375-0.273-0.806-0.275-1.293V9.729c0-0.499,0.09-0.938,0.269-1.318c0.18-0.38,0.435-0.671,0.763-0.874
		s0.704-0.304,1.126-0.304s0.798,0.101,1.126,0.304c0.328,0.204,0.583,0.495,0.762,0.874c0.18,0.379,0.27,0.817,0.27,1.314v0.227
		C81.723,9.952,81.725,9.952,81.725,9.952z M80.667,9.722c0-0.532-0.096-0.936-0.286-1.212s-0.462-0.415-0.815-0.415
		c-0.351,0-0.621,0.137-0.811,0.41c-0.19,0.273-0.287,0.672-0.289,1.2v0.247c0,0.518,0.096,0.919,0.286,1.204
		c0.19,0.286,0.464,0.429,0.821,0.429c0.351,0,0.62-0.138,0.808-0.413c0.188-0.275,0.283-0.676,0.286-1.203V9.722z"/>
	<path class="st0" d="M84.503,11.988c-0.249,0.303-0.592,0.453-1.031,0.453c-0.404,0-0.712-0.116-0.924-0.348
		c-0.212-0.232-0.321-0.572-0.325-1.02V8.604h1.006v2.436c0,0.393,0.179,0.589,0.536,0.589c0.342,0,0.576-0.119,0.703-0.356v-2.67
		h1.01v3.767h-0.947L84.503,11.988z"/>
	<path class="st0" d="M86.053,7.629c0-0.15,0.05-0.275,0.151-0.372s0.239-0.146,0.412-0.146c0.172,0,0.309,0.049,0.411,0.146
		c0.102,0.097,0.154,0.222,0.154,0.372c0,0.153-0.052,0.278-0.155,0.377c-0.103,0.097-0.239,0.145-0.409,0.145
		s-0.306-0.048-0.409-0.145C86.104,7.907,86.053,7.782,86.053,7.629z M87.122,12.371h-1.01V8.604h1.01V12.371z"/>
	<path class="st0" d="M88.928,11.56h1.841v0.811h-3.126v-0.613l1.772-2.343h-1.72V8.604h3.018v0.593L88.928,11.56z"/>
</g>
<path class="st0" d="M16.998,2.334c-4.48,0-8.962,0-13.443,0c-0.368,0-0.498,0.126-0.498,0.487c-0.001,3.962-0.001,7.923,0,11.884
	c0,0.375,0.115,0.485,0.492,0.485c1.356,0,2.711,0.002,4.067-0.003c0.156,0,0.251,0.043,0.346,0.173
	c0.759,1.043,1.528,2.079,2.31,3.14c0.041-0.048,0.065-0.072,0.086-0.098c0.744-1.011,1.492-2.019,2.23-3.035
	c0.099-0.136,0.2-0.181,0.363-0.18c1.356,0.005,2.711,0.004,4.067,0.003c0.357,0,0.479-0.119,0.479-0.478
	c0.001-3.962,0.001-7.923,0-11.884C17.497,2.468,17.359,2.334,16.998,2.334z M15.563,9.323L14.876,9.74l0.458,0.658l-0.76,0.266
	l0.31,0.738l-0.798,0.103l0.148,0.785l-0.801-0.064l-0.019,0.798l-0.771-0.229l-0.186,0.778l-0.705-0.384l-0.345,0.722l-0.609-0.52
	l-0.487,0.635l-0.487-0.635l-0.609,0.52l-0.345-0.722l-0.706,0.384l-0.186-0.778l-0.771,0.229l-0.019-0.798L6.387,12.29l0.148-0.785
	l-0.798-0.103l0.309-0.738l-0.759-0.266L5.745,9.74L5.058,9.323l0.584-0.549l-0.584-0.55l0.687-0.416L5.288,7.15l0.759-0.266
	L5.737,6.147l0.798-0.103L6.387,5.258l0.801,0.065l0.019-0.799l0.771,0.229l0.186-0.778l0.706,0.383l0.345-0.722l0.609,0.52
	l0.481-0.627l0.494,0.627l0.609-0.52l0.345,0.722l0.705-0.383l0.186,0.778l0.77-0.229l0.02,0.798l0.802-0.065l-0.148,0.786
	l0.798,0.103l-0.31,0.738l0.76,0.266l-0.458,0.658l0.688,0.417l-0.585,0.55L15.563,9.323z"/>
<g>
	<g>
		<polygon class="st1" points="10.31,4.344 10.722,4.88 11.236,4.441 11.527,5.05 12.122,4.727 12.279,5.383 12.929,5.19 
			12.945,5.864 13.621,5.81 13.496,6.472 14.169,6.559 13.907,7.182 14.547,7.405 14.162,7.96 14.741,8.311 14.248,8.774 
			14.741,9.238 14.162,9.589 14.547,10.144 13.907,10.367 14.169,10.99 13.496,11.076 13.621,11.739 12.945,11.684 12.929,12.359 
			12.279,12.166 12.122,12.822 11.527,12.499 11.236,13.108 10.722,12.669 10.31,13.205 9.899,12.669 9.384,13.108 9.093,12.499 
			8.498,12.822 8.342,12.166 7.692,12.359 7.676,11.684 7,11.739 7.125,11.076 6.452,10.99 6.713,10.367 6.073,10.144 6.459,9.589 
			5.88,9.238 6.373,8.774 5.88,8.311 6.459,7.96 6.073,7.405 6.713,7.182 6.452,6.559 7.125,6.472 7,5.81 7.676,5.864 7.692,5.19 
			8.342,5.383 8.498,4.727 9.093,5.05 9.384,4.441 9.899,4.88 		"/>
	</g>
	<g>
		<polygon class="st2" points="14.162,7.96 14.547,7.405 13.907,7.182 14.169,6.559 13.496,6.472 13.621,5.81 12.945,5.864 
			12.929,5.19 12.279,5.383 12.122,4.727 11.527,5.05 11.236,4.441 10.722,4.88 10.31,4.344 10.304,4.352 10.304,13.197 
			10.31,13.205 10.722,12.669 11.236,13.108 11.527,12.499 12.122,12.822 12.279,12.166 12.929,12.359 12.945,11.684 13.621,11.739 
			13.496,11.076 14.169,10.99 13.907,10.367 14.547,10.144 14.162,9.589 14.741,9.238 14.248,8.774 14.741,8.311 		"/>
	</g>
	<g>
		<polygon class="st3" points="13.907,10.367 14.547,10.144 14.162,9.589 14.56,9.347 11.063,6.938 10.161,6.885 9.366,7.259 
			9,8.134 9.322,8.928 8.849,8.645 8.878,10.141 12.256,12.264 12.279,12.166 12.929,12.359 12.945,11.684 13.621,11.739 
			13.496,11.076 14.169,10.99 		"/>
		<g>
			<g>
				<g>
					<path class="st4" d="M9.392,9.341C9.307,9.307,9.233,9.249,9.178,9.177C9.164,9.158,9.152,9.138,9.141,9.12
						c-0.01-0.017-0.018-0.035-0.025-0.054C9.11,9.052,9.094,8.955,9.087,8.952C9.078,8.948,9.07,8.943,9.062,8.937
						C8.981,8.889,8.914,8.81,8.873,8.716c-0.01-0.023-0.018-0.047-0.024-0.071L8.124,9.283C8.086,9.317,8.101,9.379,8.15,9.392
						l0.543,0.144l0.08,0.566c0.007,0.05,0.067,0.072,0.105,0.039l0.737-0.649c-0.041-0.035-0.075-0.076-0.1-0.121
						C9.473,9.367,9.432,9.357,9.392,9.341z"/>
				</g>
				<g>
					<path class="st4" d="M11.8,8.645c-0.006,0.024-0.015,0.047-0.024,0.071c-0.04,0.094-0.106,0.173-0.188,0.223
						c-0.007,0.005-0.016,0.01-0.024,0.014c-0.007,0.004-0.022,0.1-0.028,0.114c-0.012,0.029-0.026,0.054-0.042,0.083
						c-0.007,0.007-0.013,0.019-0.02,0.028c-0.054,0.073-0.128,0.132-0.213,0.166c-0.04,0.016-0.082,0.027-0.123,0.03
						c-0.025,0.045-0.059,0.086-0.099,0.121l0.74,0.645c0.038,0.033,0.098,0.011,0.104-0.039l0.077-0.566l0.543-0.147
						c0.049-0.013,0.063-0.076,0.025-0.109L11.8,8.645z"/>
				</g>
				<g>
					<path class="st4" d="M11.166,8.682c0.033-0.051,0.062-0.104,0.085-0.16c0.052-0.123,0.078-0.254,0.078-0.389
						c0-0.135-0.027-0.266-0.078-0.389c-0.05-0.119-0.122-0.226-0.214-0.318c-0.092-0.092-0.198-0.164-0.318-0.214
						c-0.097-0.041-0.2-0.066-0.305-0.075c-0.031-0.002-0.063-0.003-0.094-0.003c-0.135,0-0.266,0.027-0.389,0.078
						c-0.119,0.05-0.226,0.122-0.318,0.214C9.523,7.519,9.451,7.625,9.4,7.745C9.348,7.868,9.322,7.999,9.322,8.133
						c0,0.135,0.027,0.266,0.078,0.389c0.024,0.055,0.052,0.109,0.085,0.16c0.037,0.057,0.081,0.11,0.129,0.158
						c0.092,0.092,0.198,0.164,0.318,0.214c0.107,0.045,0.219,0.071,0.335,0.077c0.039,0.002,0.078,0.002,0.117,0
						c0.116-0.006,0.229-0.032,0.335-0.077c0.119-0.05,0.226-0.122,0.318-0.214C11.086,8.792,11.129,8.739,11.166,8.682z"/>
				</g>
				<g>
					<path class="st4" d="M10.621,9.49c0.012,0,0.025,0.002,0.038,0.007c0.146,0.052,0.333-0.026,0.399-0.166
						c0.018-0.039,0.055-0.063,0.098-0.065c0.155-0.007,0.298-0.15,0.307-0.305c0.002-0.041,0.027-0.078,0.064-0.095
						c0.14-0.067,0.217-0.254,0.165-0.4c-0.015-0.04-0.005-0.084,0.023-0.115c0.104-0.114,0.104-0.318,0.002-0.432
						c-0.028-0.031-0.036-0.074-0.022-0.113c0.052-0.146-0.026-0.333-0.166-0.399c-0.039-0.018-0.063-0.055-0.065-0.098
						C11.46,7.238,11.426,7.162,11.365,7.1c-0.061-0.061-0.136-0.094-0.206-0.098C11.117,7,11.081,6.976,11.063,6.938
						c-0.03-0.063-0.09-0.12-0.17-0.153c-0.045-0.019-0.091-0.028-0.135-0.028c-0.034,0-0.066,0.005-0.096,0.016
						c-0.013,0.005-0.026,0.007-0.039,0.007c-0.028,0-0.055-0.01-0.077-0.03c-0.052-0.048-0.13-0.077-0.217-0.077
						c-0.003,0-0.006,0-0.009,0c-0.087,0-0.165,0.03-0.217,0.077c-0.022,0.019-0.049,0.03-0.077,0.03
						c-0.013,0-0.026-0.002-0.039-0.007C9.96,6.763,9.927,6.757,9.893,6.757c-0.044,0-0.089,0.009-0.135,0.028
						c-0.08,0.033-0.139,0.09-0.17,0.153C9.571,6.976,9.535,7,9.494,7.002C9.424,7.006,9.349,7.04,9.288,7.1
						C9.226,7.162,9.192,7.238,9.189,7.309c-0.002,0.042-0.027,0.08-0.065,0.098C8.984,7.473,8.906,7.66,8.958,7.806
						c0.014,0.039,0.005,0.082-0.022,0.113C8.832,8.034,8.833,8.237,8.937,8.351C8.966,8.383,8.975,8.427,8.96,8.466
						c-0.052,0.146,0.025,0.333,0.165,0.4C9.163,8.884,9.187,8.92,9.189,8.961c0.008,0.154,0.152,0.298,0.307,0.305
						c0.042,0.002,0.08,0.027,0.098,0.065c0.005,0.01,0.01,0.019,0.015,0.028C9.612,9.363,9.614,9.366,9.617,9.37
						c0.08,0.115,0.245,0.174,0.377,0.127c0.012-0.005,0.025-0.007,0.038-0.007c0.027,0,0.054,0.01,0.075,0.029
						c0.059,0.053,0.14,0.077,0.219,0.076c0.083,0.001,0.161-0.023,0.22-0.076C10.567,9.5,10.594,9.49,10.621,9.49z M10.33,9.278
						c-0.155,0-0.311-0.029-0.454-0.09C9.739,9.13,9.617,9.048,9.512,8.943C9.457,8.887,9.408,8.827,9.365,8.761
						C9.327,8.704,9.294,8.643,9.267,8.579c-0.06-0.141-0.09-0.291-0.09-0.446c0-0.155,0.03-0.304,0.09-0.446
						c0.058-0.136,0.14-0.259,0.245-0.364C9.617,7.219,9.74,7.136,9.876,7.078c0.097-0.041,0.2-0.069,0.305-0.082
						c0.05-0.006,0.099-0.008,0.149-0.008c0.155,0,0.305,0.03,0.446,0.09c0.136,0.058,0.259,0.14,0.364,0.245
						c0.105,0.105,0.187,0.228,0.245,0.364c0.06,0.141,0.09,0.291,0.09,0.446c0,0.155-0.03,0.304-0.09,0.446
						c-0.027,0.064-0.06,0.125-0.098,0.183c-0.043,0.065-0.092,0.126-0.148,0.181c-0.105,0.105-0.228,0.187-0.364,0.245
						c-0.122,0.052-0.252,0.081-0.384,0.088C10.371,9.277,10.351,9.278,10.33,9.278z"/>
				</g>
			</g>
		</g>
	</g>
	<g>
		<g>
			<path class="st5" d="M11.026,12.392c-0.013,0-0.025-0.009-0.028-0.023c-0.003-0.015,0.007-0.03,0.023-0.033
				c0.09-0.018,0.181-0.039,0.27-0.064c0.016-0.004,0.031,0.005,0.035,0.02c0.004,0.015-0.005,0.031-0.02,0.035
				c-0.091,0.025-0.183,0.047-0.274,0.065C11.03,12.392,11.028,12.392,11.026,12.392z M12.145,11.974
				c-0.01,0-0.019-0.005-0.025-0.014c-0.008-0.014-0.003-0.031,0.01-0.039c0.264-0.151,0.509-0.336,0.728-0.549
				c0.011-0.011,0.029-0.011,0.04,0.001c0.011,0.011,0.011,0.029-0.001,0.04c-0.222,0.216-0.471,0.403-0.739,0.557
				C12.155,11.973,12.15,11.974,12.145,11.974z M13.453,10.705c-0.005,0-0.01-0.001-0.015-0.004
				c-0.013-0.008-0.018-0.026-0.009-0.039c0.16-0.26,0.286-0.539,0.374-0.831c0.005-0.015,0.021-0.024,0.035-0.019
				c0.015,0.005,0.023,0.02,0.019,0.035c-0.091,0.296-0.218,0.58-0.38,0.844C13.472,10.7,13.462,10.705,13.453,10.705z"/>
		</g>
		<g>
			<path class="st5" d="M9.245,12.305c-0.003,0-0.005,0-0.008-0.001c-0.296-0.089-0.581-0.216-0.846-0.375
				c-0.013-0.008-0.018-0.026-0.01-0.039c0.008-0.013,0.026-0.018,0.039-0.01c0.261,0.158,0.541,0.282,0.833,0.37
				c0.015,0.004,0.024,0.02,0.019,0.035C9.268,12.297,9.257,12.305,9.245,12.305z M7.684,11.364c-0.007,0-0.015-0.003-0.02-0.009
				c-0.218-0.221-0.407-0.468-0.563-0.735c-0.008-0.014-0.003-0.031,0.01-0.039c0.013-0.008,0.031-0.004,0.039,0.01
				c0.153,0.263,0.34,0.506,0.554,0.724c0.011,0.011,0.011,0.029,0,0.04C7.699,11.361,7.691,11.364,7.684,11.364z M6.767,9.79
				c-0.012,0-0.024-0.008-0.027-0.021C6.715,9.68,6.693,9.588,6.675,9.496C6.671,9.48,6.681,9.465,6.697,9.462
				C6.713,9.46,6.727,9.469,6.73,9.485c0.018,0.09,0.04,0.181,0.065,0.27C6.799,9.769,6.79,9.785,6.775,9.789
				C6.773,9.79,6.77,9.79,6.767,9.79z"/>
		</g>
		<g>
			<path class="st5" d="M6.79,7.738c-0.003,0-0.005,0-0.008-0.001c-0.015-0.005-0.023-0.02-0.019-0.035
				c0.09-0.295,0.218-0.58,0.38-0.844C7.151,6.844,7.169,6.84,7.182,6.848C7.196,6.856,7.2,6.874,7.192,6.887
				c-0.16,0.26-0.286,0.54-0.374,0.831C6.813,7.73,6.802,7.738,6.79,7.738z M7.742,6.184c-0.007,0-0.015-0.003-0.02-0.009
				c-0.011-0.011-0.011-0.029,0.001-0.04C7.944,5.92,8.193,5.732,8.461,5.579C8.475,5.571,8.492,5.575,8.5,5.589
				c0.008,0.014,0.003,0.031-0.01,0.039C8.225,5.779,7.98,5.964,7.762,6.176C7.756,6.181,7.749,6.184,7.742,6.184z M9.323,5.278
				c-0.012,0-0.024-0.008-0.027-0.021C9.291,5.242,9.3,5.226,9.315,5.222c0.089-0.025,0.181-0.046,0.274-0.065
				c0.015-0.003,0.03,0.007,0.033,0.022C9.625,5.195,9.615,5.21,9.6,5.213C9.509,5.231,9.419,5.252,9.33,5.277
				C9.328,5.278,9.325,5.278,9.323,5.278z"/>
		</g>
		<g>
			<path class="st5" d="M13.918,8.087c-0.013,0-0.025-0.009-0.028-0.023c-0.018-0.089-0.04-0.18-0.065-0.269
				c-0.004-0.015,0.004-0.031,0.02-0.035c0.014-0.005,0.03,0.004,0.035,0.019c0.026,0.091,0.048,0.183,0.066,0.273
				c0.003,0.015-0.007,0.03-0.022,0.033C13.922,8.087,13.92,8.087,13.918,8.087z M13.495,6.971c-0.01,0-0.019-0.005-0.025-0.014
				c-0.153-0.263-0.339-0.506-0.554-0.724c-0.011-0.011-0.011-0.029,0-0.04c0.011-0.011,0.029-0.011,0.04,0
				c0.218,0.221,0.407,0.468,0.563,0.735c0.008,0.013,0.003,0.031-0.01,0.039C13.504,6.969,13.499,6.971,13.495,6.971z
				 M12.215,5.673c-0.005,0-0.01-0.001-0.015-0.004c-0.261-0.158-0.541-0.282-0.833-0.37c-0.015-0.004-0.024-0.02-0.019-0.035
				c0.004-0.015,0.02-0.023,0.035-0.019C11.68,5.334,11.965,5.46,12.23,5.62c0.013,0.008,0.018,0.026,0.01,0.039
				C12.234,5.668,12.225,5.673,12.215,5.673z"/>
		</g>
		<g>
			<path class="st5" d="M10.31,12.461c-0.121,0-0.242-0.006-0.362-0.018c-0.016-0.002-0.027-0.015-0.026-0.031
				c0.001-0.015,0.015-0.029,0.031-0.026c0.236,0.023,0.478,0.023,0.714,0c0.018-0.004,0.029,0.01,0.031,0.026
				c0.002,0.016-0.01,0.029-0.026,0.031C10.553,12.455,10.431,12.461,10.31,12.461z M6.649,9.162c-0.015,0-0.027-0.011-0.028-0.026
				c-0.012-0.12-0.018-0.242-0.018-0.362s0.006-0.242,0.018-0.362c0.001-0.016,0.013-0.027,0.031-0.026
				c0.016,0.001,0.027,0.015,0.026,0.031C6.666,8.536,6.66,8.656,6.66,8.774c0,0.118,0.006,0.239,0.017,0.357
				c0.002,0.016-0.01,0.029-0.026,0.031C6.651,9.162,6.65,9.162,6.649,9.162z M13.971,9.162c-0.001,0-0.002,0-0.003,0
				c-0.016-0.002-0.027-0.015-0.026-0.031c0.011-0.118,0.017-0.238,0.017-0.357c0-0.119-0.006-0.239-0.017-0.357
				c-0.002-0.016,0.01-0.029,0.026-0.031c0.016-0.002,0.03,0.01,0.031,0.026c0.012,0.119,0.018,0.241,0.018,0.362
				s-0.006,0.243-0.018,0.362C13.998,9.152,13.986,9.162,13.971,9.162z M10.67,5.162c-0.001,0-0.002,0-0.003,0
				c-0.235-0.023-0.479-0.023-0.714,0c-0.015,0-0.03-0.01-0.031-0.026C9.921,5.12,9.932,5.107,9.948,5.105
				c0.239-0.023,0.486-0.023,0.725,0c0.016,0.001,0.027,0.015,0.026,0.031C10.697,5.151,10.684,5.162,10.67,5.162z"/>
		</g>
		<g>
			<path class="st5" d="M10.31,12.311c-1.961,0-3.556-1.587-3.556-3.537S8.35,5.238,10.31,5.238s3.556,1.587,3.556,3.537
				C13.866,10.724,12.271,12.311,10.31,12.311z M10.31,5.351c-1.898,0-3.443,1.536-3.443,3.423s1.544,3.423,3.443,3.423
				s3.443-1.536,3.443-3.423S12.209,5.351,10.31,5.351z"/>
		</g>
		<g>
			<path class="st5" d="M8.631,6.807L8.505,6.692c0.461-0.506,1.119-0.796,1.805-0.796c0.608,0,1.19,0.224,1.639,0.631l-0.114,0.126
				c-0.418-0.378-0.959-0.587-1.525-0.587C9.672,6.066,9.06,6.336,8.631,6.807z"/>
		</g>
	</g>
	<g>
		<g>
			<path class="st6" d="M8.095,7.314C8.073,7.421,7.989,7.471,7.904,7.463c-0.05-0.005-0.097-0.074-0.075-0.181
				c0.021-0.107,0.215-0.178,0.276-0.25C8.119,7.014,8.116,7.207,8.095,7.314"/>
		</g>
		<g>
			<path class="st6" d="M8.038,7.748c-0.077,0.08-0.17,0.085-0.231,0.041C7.771,7.762,7.774,7.684,7.851,7.604
				c0.077-0.081,0.267-0.055,0.355-0.088C8.227,7.508,8.116,7.667,8.038,7.748"/>
		</g>
		<g>
			<path class="st6" d="M7.463,7.602c-0.03,0.1,0.021,0.165,0.1,0.179C7.61,7.79,7.683,7.74,7.713,7.641
				c0.03-0.1-0.108-0.211-0.129-0.29C7.58,7.331,7.493,7.502,7.463,7.602"/>
		</g>
		<g>
			<path class="st6" d="M7.855,8.206C7.793,8.297,7.7,8.315,7.63,8.281c-0.041-0.02-0.053-0.097,0.008-0.187
				C7.7,8.003,7.895,7.999,7.977,7.953C7.997,7.942,7.916,8.116,7.855,8.206"/>
		</g>
		<g>
			<path class="st6" d="M7.259,8.132C7.248,8.235,7.313,8.29,7.395,8.293c0.048,0.001,0.111-0.059,0.122-0.161
				c0.011-0.102-0.149-0.189-0.185-0.264C7.321,7.847,7.27,8.031,7.259,8.132"/>
		</g>
		<g>
			<path class="st6" d="M7.763,8.719c-0.03,0.101-0.115,0.142-0.195,0.129C7.521,8.84,7.482,8.771,7.512,8.67
				c0.029-0.101,0.219-0.156,0.283-0.222C7.811,8.432,7.793,8.618,7.763,8.719"/>
		</g>
		<g>
			<path class="st6" d="M7.171,8.771C7.195,8.87,7.277,8.905,7.358,8.885c0.047-0.011,0.088-0.085,0.063-0.184
				c-0.024-0.099-0.21-0.139-0.271-0.198C7.131,8.484,7.146,8.674,7.171,8.771"/>
		</g>
		<g>
			<path class="st6" d="M7.864,9.224C7.859,9.329,7.783,9.384,7.7,9.385C7.651,9.387,7.596,9.327,7.601,9.223
				C7.606,9.119,7.782,9.03,7.83,8.956C7.842,8.937,7.869,9.121,7.864,9.224"/>
		</g>
		<g>
			<path class="st6" d="M7.299,9.36c0.048,0.092,0.139,0.111,0.215,0.077c0.044-0.02,0.067-0.1,0.018-0.191
				C7.484,9.154,7.29,9.151,7.214,9.105C7.188,9.088,7.252,9.271,7.299,9.36"/>
		</g>
		<g>
			<path class="st6" d="M8.047,9.763c0.01,0.104-0.06,0.167-0.144,0.178c-0.05,0.007-0.114-0.046-0.124-0.15
				c-0.01-0.104,0.155-0.212,0.192-0.292C7.98,9.479,8.036,9.659,8.047,9.763"/>
		</g>
		<g>
			<path class="st6" d="M7.507,9.954c0.063,0.086,0.157,0.094,0.229,0.051C7.778,9.98,7.787,9.899,7.725,9.813
				C7.662,9.727,7.467,9.747,7.384,9.709C7.35,9.693,7.447,9.871,7.507,9.954"/>
		</g>
		<g>
			<path class="st6" d="M8.289,10.247c0.025,0.102-0.038,0.172-0.12,0.192c-0.049,0.012-0.121-0.033-0.147-0.135
				c-0.025-0.102,0.125-0.227,0.152-0.31C8.18,9.974,8.263,10.146,8.289,10.247"/>
		</g>
		<g>
			<path class="st6" d="M7.784,10.483c0.075,0.078,0.171,0.075,0.237,0.026c0.039-0.03,0.035-0.112-0.04-0.189
				c-0.075-0.078-0.267-0.037-0.356-0.065C7.585,10.243,7.712,10.409,7.784,10.483"/>
		</g>
		<g>
			<path class="st6" d="M8.62,10.626c0.06,0.089,0.021,0.171-0.052,0.212c-0.044,0.025-0.13,0.001-0.19-0.088
				c-0.06-0.089,0.044-0.246,0.041-0.331C8.418,10.399,8.561,10.537,8.62,10.626"/>
		</g>
		<g>
			<path class="st6" d="M8.174,10.962c0.1,0.053,0.194,0.026,0.241-0.039c0.028-0.038-0.005-0.114-0.105-0.167
				c-0.1-0.053-0.274,0.037-0.371,0.034C7.893,10.788,8.078,10.911,8.174,10.962"/>
		</g>
		<g>
			<path class="st6" d="M9,10.882c0.07,0.083,0.04,0.169-0.03,0.216c-0.041,0.028-0.131,0.013-0.201-0.07
				c-0.07-0.083,0.017-0.248,0.004-0.333C8.77,10.674,8.93,10.799,9,10.882"/>
		</g>
		<g>
			<path class="st6" d="M8.626,11.311c0.107,0.044,0.198,0.008,0.238-0.06c0.024-0.04-0.019-0.113-0.126-0.156
				c-0.107-0.043-0.271,0.06-0.369,0.066C8.32,11.164,8.525,11.27,8.626,11.311"/>
		</g>
		<g>
			<path class="st6" d="M9.414,11.102c0.084,0.073,0.066,0.161,0.004,0.217c-0.037,0.033-0.13,0.028-0.214-0.044
				c-0.084-0.073-0.023-0.247-0.049-0.329C9.148,10.925,9.33,11.028,9.414,11.102"/>
		</g>
		<g>
			<path class="st6" d="M9.169,11.589c0.115,0.03,0.2-0.016,0.23-0.089c0.018-0.043-0.037-0.109-0.152-0.139
				c-0.115-0.03-0.262,0.093-0.359,0.111C8.835,11.482,9.062,11.562,9.169,11.589"/>
		</g>
		<g>
			<path class="st6" d="M9.867,11.214c0.092,0.065,0.083,0.156,0.026,0.216c-0.034,0.035-0.128,0.039-0.22-0.027
				c-0.092-0.066-0.049-0.244-0.083-0.323C9.581,11.06,9.775,11.149,9.867,11.214"/>
		</g>
		<g>
			<path class="st6" d="M9.787,11.737c0.118,0.021,0.2-0.032,0.222-0.107c0.013-0.044-0.05-0.105-0.169-0.125
				c-0.119-0.021-0.253,0.113-0.349,0.138C9.436,11.659,9.676,11.718,9.787,11.737"/>
		</g>
		<g>
			<path class="st6" d="M7.915,7.408c0,0-0.022,0.01-0.052,0.043C7.831,7.483,7.792,7.537,7.751,7.61
				C7.668,7.755,7.578,7.982,7.529,8.265C7.482,8.549,7.48,8.89,7.565,9.239c0.04,0.175,0.106,0.348,0.181,0.521
				c0.076,0.173,0.165,0.342,0.27,0.502c0.208,0.32,0.487,0.59,0.786,0.783c0.073,0.051,0.153,0.092,0.225,0.133
				c0.078,0.037,0.155,0.077,0.23,0.105c0.149,0.064,0.3,0.107,0.438,0.144c0.139,0.035,0.268,0.061,0.383,0.084
				c0.39,0.077,0.562,0.231,0.562,0.231l0,0.007l-0.062,0.107c0,0-0.074-0.222-0.507-0.303c-0.116-0.021-0.249-0.037-0.391-0.069
				c-0.142-0.034-0.294-0.074-0.452-0.136c-0.081-0.027-0.156-0.066-0.234-0.104c-0.079-0.044-0.157-0.085-0.233-0.138
				c-0.309-0.197-0.589-0.483-0.796-0.813c-0.104-0.164-0.193-0.339-0.267-0.514C7.625,9.606,7.56,9.427,7.522,9.249
				C7.441,8.893,7.45,8.546,7.504,8.261c0.054-0.286,0.15-0.512,0.236-0.657c0.043-0.073,0.084-0.127,0.116-0.159
				c0.032-0.033,0.055-0.043,0.055-0.043L7.915,7.408z"/>
		</g>
	</g>
	<g>
		<g>
			<path class="st7" d="M12.557,7.314c0.021,0.107,0.105,0.156,0.191,0.148c0.05-0.005,0.097-0.074,0.075-0.181
				c-0.021-0.107-0.215-0.178-0.276-0.25C12.532,7.014,12.535,7.207,12.557,7.314"/>
		</g>
		<g>
			<path class="st7" d="M12.613,7.748c0.078,0.08,0.17,0.085,0.232,0.041c0.036-0.026,0.033-0.104-0.044-0.184
				c-0.077-0.081-0.267-0.055-0.355-0.088C12.424,7.508,12.536,7.667,12.613,7.748"/>
		</g>
		<g>
			<path class="st7" d="M13.188,7.602c0.03,0.1-0.021,0.165-0.1,0.179c-0.046,0.009-0.119-0.041-0.15-0.14
				c-0.03-0.1,0.108-0.211,0.129-0.29C13.072,7.331,13.158,7.502,13.188,7.602"/>
		</g>
		<g>
			<path class="st7" d="M12.797,8.206c0.062,0.091,0.155,0.108,0.225,0.074c0.041-0.02,0.053-0.097-0.009-0.187
				c-0.062-0.091-0.257-0.094-0.338-0.141C12.655,7.942,12.735,8.116,12.797,8.206"/>
		</g>
		<g>
			<path class="st7" d="M13.393,8.132c0.011,0.103-0.054,0.158-0.136,0.161c-0.048,0.001-0.111-0.059-0.122-0.161
				c-0.011-0.102,0.149-0.189,0.185-0.264C13.33,7.847,13.382,8.031,13.393,8.132"/>
		</g>
		<g>
			<path class="st7" d="M12.888,8.719c0.03,0.101,0.115,0.142,0.195,0.129c0.047-0.009,0.086-0.078,0.056-0.179
				c-0.03-0.101-0.219-0.156-0.283-0.222C12.841,8.432,12.858,8.618,12.888,8.719"/>
		</g>
		<g>
			<path class="st7" d="M13.481,8.771c-0.025,0.099-0.107,0.134-0.188,0.114c-0.047-0.011-0.088-0.085-0.063-0.184
				c0.025-0.099,0.21-0.139,0.271-0.198C13.52,8.484,13.505,8.674,13.481,8.771"/>
		</g>
		<g>
			<path class="st7" d="M12.787,9.224c0.005,0.104,0.082,0.159,0.164,0.161c0.049,0.001,0.104-0.058,0.099-0.162
				c-0.005-0.104-0.181-0.193-0.229-0.267C12.81,8.937,12.782,9.121,12.787,9.224"/>
		</g>
		<g>
			<path class="st7" d="M13.353,9.36c-0.048,0.092-0.139,0.111-0.215,0.077c-0.044-0.02-0.067-0.1-0.018-0.191
				c0.048-0.092,0.242-0.095,0.318-0.141C13.463,9.088,13.4,9.271,13.353,9.36"/>
		</g>
		<g>
			<path class="st7" d="M12.605,9.763c-0.01,0.104,0.061,0.167,0.144,0.178c0.049,0.007,0.114-0.046,0.124-0.15
				c0.01-0.104-0.155-0.212-0.192-0.292C12.672,9.479,12.615,9.659,12.605,9.763"/>
		</g>
		<g>
			<path class="st7" d="M13.144,9.954c-0.062,0.086-0.157,0.094-0.229,0.051c-0.042-0.026-0.051-0.107,0.012-0.192
				c0.063-0.086,0.257-0.066,0.34-0.104C13.302,9.693,13.204,9.871,13.144,9.954"/>
		</g>
		<g>
			<path class="st7" d="M12.363,10.247c-0.025,0.102,0.038,0.172,0.121,0.192c0.049,0.012,0.121-0.033,0.147-0.135
				c0.025-0.102-0.125-0.227-0.152-0.31C12.472,9.974,12.388,10.146,12.363,10.247"/>
		</g>
		<g>
			<path class="st7" d="M12.867,10.483c-0.075,0.078-0.171,0.075-0.237,0.026c-0.039-0.03-0.035-0.112,0.04-0.189
				c0.075-0.078,0.268-0.037,0.357-0.065C13.067,10.243,12.939,10.409,12.867,10.483"/>
		</g>
		<g>
			<path class="st7" d="M12.031,10.626c-0.06,0.089-0.021,0.171,0.053,0.212c0.044,0.025,0.13,0.001,0.19-0.088
				c0.06-0.089-0.044-0.246-0.041-0.331C12.233,10.399,12.091,10.537,12.031,10.626"/>
		</g>
		<g>
			<path class="st7" d="M12.478,10.962c-0.1,0.053-0.194,0.026-0.241-0.039c-0.028-0.038,0.005-0.114,0.105-0.167
				c0.101-0.053,0.274,0.037,0.371,0.034C12.759,10.788,12.573,10.911,12.478,10.962"/>
		</g>
		<g>
			<path class="st7" d="M11.651,10.882c-0.07,0.083-0.04,0.169,0.03,0.216c0.041,0.028,0.131,0.013,0.201-0.07
				c0.071-0.083-0.017-0.248-0.004-0.333C11.881,10.674,11.721,10.799,11.651,10.882"/>
		</g>
		<g>
			<path class="st7" d="M12.026,11.311c-0.107,0.044-0.198,0.008-0.238-0.06c-0.024-0.04,0.018-0.113,0.126-0.156
				c0.107-0.043,0.271,0.06,0.369,0.066C12.332,11.164,12.127,11.27,12.026,11.311"/>
		</g>
		<g>
			<path class="st7" d="M11.238,11.102c-0.084,0.073-0.066,0.161-0.004,0.217c0.037,0.033,0.13,0.028,0.214-0.044
				c0.084-0.073,0.024-0.247,0.049-0.329C11.503,10.925,11.322,11.028,11.238,11.102"/>
		</g>
		<g>
			<path class="st7" d="M11.482,11.589c-0.115,0.03-0.2-0.016-0.23-0.089c-0.017-0.043,0.038-0.109,0.152-0.139
				c0.115-0.03,0.262,0.093,0.359,0.111C11.816,11.482,11.59,11.562,11.482,11.589"/>
		</g>
		<g>
			<path class="st7" d="M10.785,11.214c-0.092,0.065-0.083,0.156-0.026,0.216c0.033,0.035,0.127,0.039,0.22-0.027
				c0.092-0.066,0.049-0.244,0.083-0.323C11.071,11.06,10.876,11.149,10.785,11.214"/>
		</g>
		<g>
			<path class="st7" d="M10.865,11.737c-0.119,0.021-0.2-0.032-0.222-0.107c-0.013-0.044,0.05-0.105,0.169-0.125
				c0.119-0.021,0.253,0.113,0.349,0.138C11.215,11.659,10.975,11.718,10.865,11.737"/>
		</g>
		<g>
			<path class="st7" d="M12.737,7.408c0,0,0.022,0.01,0.052,0.043c0.031,0.032,0.07,0.086,0.111,0.159
				c0.083,0.145,0.173,0.371,0.221,0.655c0.048,0.283,0.05,0.625-0.035,0.974c-0.04,0.175-0.106,0.348-0.181,0.521
				c-0.076,0.173-0.165,0.342-0.27,0.502c-0.208,0.32-0.487,0.59-0.786,0.783c-0.073,0.051-0.153,0.092-0.225,0.133
				c-0.078,0.037-0.155,0.077-0.23,0.105c-0.149,0.064-0.3,0.107-0.438,0.144c-0.139,0.035-0.268,0.061-0.383,0.084
				c-0.391,0.077-0.562,0.231-0.562,0.231l0,0.007l0.062,0.107c0,0,0.073-0.222,0.507-0.303c0.116-0.021,0.248-0.037,0.391-0.069
				c0.142-0.034,0.294-0.074,0.452-0.136c0.081-0.027,0.156-0.066,0.234-0.104c0.079-0.044,0.157-0.085,0.233-0.138
				c0.309-0.197,0.589-0.483,0.796-0.813c0.104-0.164,0.193-0.339,0.267-0.514c0.074-0.175,0.138-0.354,0.177-0.532
				c0.082-0.356,0.072-0.703,0.019-0.988c-0.054-0.286-0.15-0.512-0.236-0.657c-0.043-0.073-0.084-0.127-0.116-0.159
				c-0.032-0.033-0.055-0.043-0.055-0.043L12.737,7.408z"/>
		</g>
	</g>
</g>
</svg>
