<?xml version="1.0" encoding="utf-8"?>
<!-- Generator: Adobe Illustrator 22.1.0, SVG Export Plug-In . SVG Version: 6.00 Build 0)  -->
<svg version="1.1" id="Layer_1" xmlns="http://www.w3.org/2000/svg" xmlns:xlink="http://www.w3.org/1999/xlink" x="0px" y="0px"
	 viewBox="0 0 48 24" style="enable-background:new 0 0 48 24;" xml:space="preserve">
<style type="text/css">
	.st0{fill:#323E48;}
</style>
<g>
	<polygon class="st0" points="6.527,6.849 0.534,6.575 0.767,7.788 2.636,7.587 2.465,17.371 3.215,17.543 4.248,7.509 6.28,7.416 	
		"/>
	<path class="st0" d="M9.451,15.641c-0.085,0.012-0.174,0.007-0.26,0.021c-1.063,0.057-2.35-0.254-2.702-2.691l4.382-0.295
		c-0.036-0.413-0.055-0.618-0.111-0.947c-0.282-1.629-1.03-2.996-2.892-2.872c-0.069,0.01-0.157,0.007-0.226,0.017
		C5.806,9.14,5.126,11.1,5.514,13.336c0.311,1.784,1.413,3.775,4.072,3.39c0.635-0.092,1.271-0.281,1.602-0.504l-0.53-1.03
		C10.391,15.378,10,15.562,9.451,15.641z M7.676,9.674c0.893-0.129,1.563,0.689,1.81,2.114l-2.948,0.346
		C6.418,11.042,6.662,9.82,7.676,9.674z"/>
	<path class="st0" d="M17.193,10.302l-0.033-0.006c-0.327-0.849-0.965-1.23-1.618-1.324c-1.356-0.196-2.951,0.889-3.379,3.346
		c-0.334,1.924-0.096,4.302,2.084,4.616c0.927,0.134,1.748-0.341,2.104-0.868l0.052,0.007L15.9,19.982l0.938-0.137l1.473-7.987
		l0.399-2.301l-1.498-0.683L17.193,10.302z M16.842,12.225l-0.22,1.878c-0.162,1.436-1.164,1.837-1.748,1.753
		c-1.511-0.218-1.614-2.255-1.391-3.537c0.255-1.472,0.989-2.553,2.104-2.39C16.497,10.057,16.99,11.075,16.842,12.225z"/>
	<rect x="21.237" y="1.461" class="st0" width="0.237" height="21.713"/>
</g>
<g>
	<path class="st0" d="M31.586,9.112h-2.732v7.432h-1.839V9.112H24.32V7.622h7.266V9.112z"/>
	<path class="st0" d="M35.33,16.543c-0.083-0.16-0.141-0.358-0.177-0.595c-0.429,0.478-0.987,0.716-1.673,0.716
		c-0.649,0-1.187-0.188-1.614-0.563c-0.427-0.375-0.64-0.85-0.64-1.421c0-0.702,0.26-1.241,0.781-1.617
		c0.521-0.375,1.274-0.565,2.259-0.57h0.815v-0.379c0-0.307-0.079-0.552-0.236-0.736c-0.158-0.183-0.406-0.275-0.745-0.275
		c-0.297,0-0.531,0.071-0.701,0.214c-0.17,0.143-0.254,0.339-0.254,0.588h-1.773c0-0.384,0.119-0.74,0.356-1.066
		c0.237-0.326,0.571-0.583,1.004-0.768c0.433-0.186,0.919-0.28,1.459-0.28c0.817,0,1.464,0.206,1.945,0.616
		c0.479,0.411,0.719,0.987,0.719,1.731v2.874c0.004,0.629,0.092,1.105,0.263,1.427v0.104H35.33z M33.865,15.312
		c0.261,0,0.502-0.058,0.722-0.175c0.221-0.116,0.385-0.272,0.491-0.468v-1.14h-0.662c-0.886,0-1.358,0.306-1.415,0.919
		l-0.006,0.103c0,0.22,0.077,0.403,0.232,0.545C33.383,15.241,33.596,15.312,33.865,15.312z"/>
	<path class="st0" d="M40.084,16.543h-1.776v-9.41h1.776V16.543z"/>
	<path class="st0" d="M43.95,13.884l-0.637,0.638v2.022h-1.77V7.133h1.77v5.213l0.343-0.441l1.697-1.991h2.126l-2.395,2.763
		l2.604,3.866h-2.034L43.95,13.884z"/>
</g>
</svg>
