<?xml version="1.0" encoding="utf-8"?>
<!-- Generator: Adobe Illustrator 21.1.0, SVG Export Plug-In . SVG Version: 6.00 Build 0)  -->
<svg version="1.1" id="Layer_1" xmlns="http://www.w3.org/2000/svg" xmlns:xlink="http://www.w3.org/1999/xlink" x="0px" y="0px"
	 viewBox="0 0 23 23" style="enable-background:new 0 0 23 23;" xml:space="preserve">
<style type="text/css">
	.st0{fill:#323E48;}
	.st1{fill:#FFFFFF;}
</style>
<circle class="st0" cx="11.5" cy="11.542" r="11.5"/>
<path class="st1" d="M11.7,16.883c-1.861,0-3.722,0-5.583,0c-0.162,0-0.166-0.001-0.147-0.164c0.044-0.387,0.059-0.78,0.147-1.158
	c0.398-1.715,1.35-3.033,2.879-3.923c0.075-0.043,0.121-0.035,0.186,0.02c0.604,0.511,1.302,0.818,2.087,0.901
	c1.107,0.116,2.094-0.19,2.952-0.901c0.072-0.059,0.121-0.06,0.197-0.016c1.396,0.809,2.311,1.996,2.778,3.534
	c0.129,0.424,0.207,0.859,0.231,1.303c0.004,0.09,0.01,0.18,0.02,0.27c0.012,0.102-0.022,0.135-0.129,0.135
	c-0.568-0.005-1.136-0.002-1.703-0.002C14.309,16.883,13.005,16.883,11.7,16.883z"/>
<path class="st1" d="M11.7,11.835c-1.695,0.026-3.157-1.374-3.175-3.136C8.507,6.951,9.896,5.506,11.66,5.483
	c1.808-0.022,3.219,1.44,3.221,3.176C14.884,10.449,13.403,11.864,11.7,11.835z"/>
</svg>
