<?xml version="1.0" encoding="utf-8"?>
<!-- Generator: Adobe Illustrator 21.1.0, SVG Export Plug-In . SVG Version: 6.00 Build 0)  -->
<svg version="1.1" id="Layer_1" xmlns="http://www.w3.org/2000/svg" xmlns:xlink="http://www.w3.org/1999/xlink" x="0px" y="0px"
	 viewBox="0 0 150 20" style="enable-background:new 0 0 150 20;" xml:space="preserve">
<style type="text/css">
	.st0{opacity:0.46;}
	.st1{opacity:0.33;fill:#5C6A75;enable-background:new    ;}
	.st2{fill:url(#SVGID_1_);}
	.st3{fill:url(#SVGID_2_);}
	.st4{fill:url(#SVGID_3_);}
	.st5{opacity:0.44;fill:#FFFFFF;enable-background:new    ;}
	.st6{fill:#50C5DD;}
	.st7{fill:#2EA8D6;}
	.st8{opacity:0.33;fill:#FFFFFF;enable-background:new    ;}
	.st9{fill:#A2A3A4;}
	.st10{fill:#3C4852;}
</style>
<g class="st0">
	<path class="st1" d="M111.835,3.974v3.482c-0.63-0.337-1.347-0.529-2.111-0.529c-2.488,0-4.505,2.036-4.505,4.546
		s2.017,4.546,4.505,4.546c0.764,0,1.482-0.192,2.111-0.529v0.529h2.395V3.974H111.835z M109.775,13.609
		c-1.138,0-2.06-0.931-2.06-2.08c0.001-1.149,0.923-2.08,2.06-2.08c1.138,0,2.06,0.931,2.06,2.08
		C111.835,12.677,110.911,13.609,109.775,13.609z"/>
	<path class="st1" d="M100.609,7.254c-0.764,0-1.482,0.192-2.111,0.529V7.254h-2.395v12.044h2.395v-3.482
		c0.63,0.337,1.347,0.529,2.111,0.529c2.488,0,4.505-2.036,4.505-4.546C105.115,9.289,103.097,7.254,100.609,7.254z M100.56,13.822
		c-1.138,0-2.06-0.931-2.06-2.079s0.923-2.079,2.06-2.079c1.138,0,2.06,0.931,2.06,2.079S101.697,13.822,100.56,13.822z"/>
	<path class="st1" d="M95.458,8.887c-0.002-0.004-0.004-0.011-0.007-0.017c-0.022-0.054-0.049-0.106-0.072-0.159
		c-0.053-0.119-0.108-0.238-0.168-0.354c-0.034-0.064-0.069-0.128-0.104-0.194c-0.06-0.106-0.122-0.211-0.187-0.313
		c-0.035-0.055-0.069-0.112-0.106-0.167c-0.101-0.148-0.205-0.292-0.316-0.43c-0.03-0.038-0.062-0.072-0.094-0.108
		c-0.088-0.106-0.18-0.21-0.275-0.308c-0.048-0.05-0.095-0.096-0.143-0.144c-0.09-0.088-0.182-0.174-0.278-0.257
		c-0.048-0.041-0.093-0.082-0.14-0.122c-0.139-0.115-0.283-0.226-0.431-0.328c-0.025-0.018-0.055-0.034-0.081-0.052
		c-0.127-0.085-0.259-0.167-0.393-0.242c-0.053-0.03-0.108-0.059-0.161-0.088c-0.117-0.062-0.237-0.122-0.358-0.176
		c-0.053-0.024-0.104-0.05-0.158-0.071c-0.172-0.072-0.346-0.139-0.524-0.195c-0.017-0.004-0.03-0.008-0.046-0.012
		C91.249,5.1,91.08,5.056,90.909,5.017c-0.056-0.012-0.115-0.023-0.172-0.034c-0.138-0.025-0.279-0.049-0.419-0.064
		c-0.058-0.007-0.115-0.014-0.174-0.021c-0.194-0.018-0.39-0.03-0.588-0.03c-0.2,0-0.399,0.012-0.595,0.03
		c-0.062,0.006-0.122,0.017-0.18,0.022c-0.136,0.017-0.273,0.036-0.407,0.062c-0.064,0.012-0.129,0.025-0.194,0.039
		c-0.138,0.032-0.274,0.067-0.407,0.107c-0.051,0.017-0.103,0.029-0.155,0.045c-0.18,0.057-0.358,0.123-0.531,0.197
		c-0.034,0.014-0.067,0.032-0.1,0.046c-0.14,0.062-0.275,0.129-0.41,0.201c-0.058,0.03-0.114,0.064-0.169,0.096
		c-0.108,0.062-0.216,0.128-0.321,0.198c-0.056,0.038-0.114,0.075-0.168,0.114c-0.111,0.08-0.219,0.161-0.324,0.247
		c-0.041,0.034-0.084,0.064-0.124,0.1c-0.138,0.117-0.271,0.24-0.398,0.368c-0.045,0.044-0.085,0.092-0.129,0.138
		c-0.085,0.09-0.168,0.182-0.247,0.275c-0.05,0.06-0.096,0.119-0.145,0.181c-0.069,0.088-0.136,0.181-0.2,0.274
		c-0.044,0.062-0.088,0.126-0.132,0.191c-0.072,0.109-0.138,0.224-0.202,0.339c-0.035,0.062-0.072,0.123-0.105,0.187
		c-0.075,0.145-0.146,0.294-0.21,0.446c-0.03,0.072-0.058,0.146-0.085,0.22c-0.025,0.067-0.055,0.134-0.08,0.201
		c0.002,0.001,0.003,0.002,0.004,0.003c-0.237,0.679-0.372,1.405-0.372,2.166c0,3.588,2.861,6.498,6.388,6.498
		s6.388-2.908,6.388-6.498C95.94,10.49,95.767,9.653,95.458,8.887C95.457,8.889,95.458,8.889,95.458,8.887z"/>
</g>
<g>
	
		<linearGradient id="SVGID_1_" gradientUnits="userSpaceOnUse" x1="89.4514" y1="60.6658" x2="89.4514" y2="73.6625" gradientTransform="matrix(1 0 0 1 0 -56)">
		<stop  offset="0" style="stop-color:#EFEFF0"/>
		<stop  offset="0.3686" style="stop-color:#D4D5D5"/>
		<stop  offset="0.5512" style="stop-color:#CACBCC"/>
		<stop  offset="0.8569" style="stop-color:#B0B1B2"/>
		<stop  offset="1" style="stop-color:#A2A3A4"/>
	</linearGradient>
	<path class="st2" d="M88.059,7.656c0.468,0,5.1,2.677,5.1,3.524c0,0.846-4.508,3.524-5.1,3.524
		C87.468,14.705,87.594,7.656,88.059,7.656z M89.451,4.666c3.528,0,6.388,2.91,6.388,6.498s-2.861,6.498-6.388,6.498
		s-6.388-2.91-6.388-6.499S85.923,4.666,89.451,4.666z"/>
	
		<linearGradient id="SVGID_2_" gradientUnits="userSpaceOnUse" x1="109.6215" y1="42.432" x2="109.6215" y2="19.8875" gradientTransform="matrix(1 0 0 -1 0 46.2)">
		<stop  offset="0" style="stop-color:#EFEFF0"/>
		<stop  offset="0.3643" style="stop-color:#D4D5D5"/>
		<stop  offset="0.4041" style="stop-color:#CECFCF"/>
		<stop  offset="0.5845" style="stop-color:#B6B7B7"/>
		<stop  offset="0.7514" style="stop-color:#A7A8A9"/>
		<stop  offset="0.8908" style="stop-color:#A2A3A4"/>
	</linearGradient>
	<path class="st3" d="M109.671,9.244c1.138,0,2.06,0.931,2.06,2.08s-0.922,2.08-2.06,2.08s-2.06-0.931-2.06-2.08
		C107.612,10.175,108.534,9.244,109.671,9.244z M111.732,3.768V7.25c-0.63-0.337-1.347-0.529-2.111-0.529
		c-2.488,0-4.505,2.036-4.505,4.546s2.017,4.546,4.505,4.546c0.764,0,1.481-0.192,2.111-0.529v0.529h2.395V3.768H111.732z"/>
	
		<linearGradient id="SVGID_3_" gradientUnits="userSpaceOnUse" x1="100.5059" y1="39.1502" x2="100.5059" y2="19.2709" gradientTransform="matrix(1 0 0 -1 0 46.2)">
		<stop  offset="0" style="stop-color:#EFEFF0"/>
		<stop  offset="0.0443" style="stop-color:#E4E5E5"/>
		<stop  offset="0.1217" style="stop-color:#D8D9D9"/>
		<stop  offset="0.1972" style="stop-color:#D4D5D5"/>
		<stop  offset="0.6104" style="stop-color:#B4B5B5"/>
		<stop  offset="0.9006" style="stop-color:#A2A3A4"/>
	</linearGradient>
	<path class="st4" d="M100.457,9.458c1.138,0,2.06,0.931,2.06,2.079s-0.922,2.079-2.06,2.079s-2.06-0.931-2.06-2.079
		S99.32,9.458,100.457,9.458z M100.506,7.05c-0.764,0-1.482,0.192-2.111,0.529V7.05h-2.395v12.044h2.395v-3.482
		c0.63,0.337,1.347,0.529,2.111,0.529c2.488,0,4.505-2.036,4.505-4.546S102.995,7.05,100.506,7.05z"/>
	<path class="st5" d="M89.451,4.666c-2.78,0-5.143,1.808-6.021,4.329c1.102,0.797,2.579,1.363,4.245,1.58
		c0.042-1.539,0.18-2.919,0.386-2.919c0.345,0,2.969,1.466,4.312,2.57c1.176-0.347,2.199-0.88,2.982-1.541
		C94.397,6.326,92.115,4.666,89.451,4.666z"/>
	<path class="st6" d="M88.059,7.656c0.468,0,5.1,2.677,5.1,3.524c0,0.846-4.508,3.524-5.1,3.524
		C87.468,14.705,87.594,7.656,88.059,7.656z"/>
	<g>
		<path class="st7" d="M88.059,7.656c-0.059,0-0.114,0.114-0.16,0.313c0.594,0.087,5.07,2.687,5.07,3.52
			c0,0.032-0.009,0.067-0.021,0.104c0.135-0.161,0.211-0.304,0.211-0.414C93.16,10.333,88.526,7.656,88.059,7.656z"/>
	</g>
	<path class="st8" d="M87.674,10.574c0.492,0.064,1.001,0.098,1.52,0.098c1.133,0,2.208-0.16,3.178-0.447
		c-1.343-1.106-3.966-2.569-4.312-2.569C87.855,7.656,87.715,9.036,87.674,10.574z"/>
</g>
<g>
	<path class="st9" d="M115.077,4.038h-0.189v0.525h-0.077V4.038h-0.188V3.974h0.456L115.077,4.038L115.077,4.038z"/>
	<path class="st9" d="M115.265,3.974l0.192,0.48l0.192-0.48h0.101v0.588h-0.077V4.333l0.007-0.247l-0.192,0.477h-0.06l-0.192-0.475
		l0.007,0.247v0.23h-0.077v-0.59H115.265z"/>
</g>
<g>
	<path class="st10" d="M10.728,6.929c0,2.194-0.42,3.984-1.074,6.053c-0.124,0.404-0.264,0.809-0.42,1.199
		c-0.326,0.825-1.105,2.039-1.774,2.631c-0.312,0.28-0.715,0.483-1.152,0.483c-0.561,0-1.028-0.279-1.37-0.7
		c-0.296-0.358-0.374-0.888-0.374-1.338c-0.436,0.561-1.727,2.1-2.459,2.1c-0.046,0.094-0.124,0.172-0.233,0.172
		c-0.653,0-1.152-0.778-1.152-1.37c0-0.561,0.155-1.572,0.326-2.117c0.514-1.68,1.337-3.19,2.21-4.699l0.018-0.094
		c-0.389,0.17-0.948,0.388-1.369,0.388c-0.295,0-0.87-0.312-0.87-0.653c0-0.031,0-0.062,0.017-0.094
		c0.903-0.062,1.743-0.437,2.506-0.903C3.806,7.83,4.055,7.659,4.336,7.55c0.295,0.125,0.809,0.451,0.809,0.809
		c0,0.171-0.404,0.949-0.498,1.167c-1.152,2.459-2.178,4.606-2.708,7.314l0.046,0.03c0.048-0.046,0.108-0.076,0.171-0.108
		c0.778-0.483,2.164-2.21,2.614-3.033c0.108-0.202,0.171-0.404,0.249-0.621c0.279-0.81,0.529-1.665,1.12-2.319
		c0.108-0.108,0.28-0.265,0.436-0.265c0.094,0,0.202,0.077,0.295,0.108l0.031,0.094h0.062l0.077-0.03v0.077
		c0,0.094-0.374,0.732-0.451,0.887c-0.483,0.995-0.825,2.552-0.995,3.657v0.046c0,0.017,0.017,0.077,0.031,0.094
		c0.264-1.37,0.638-2.957,1.277-4.202l0.233-0.45l0.187,0.094c-0.048,0.404-0.28,0.809-0.404,1.199
		c-0.404,1.245-0.934,3.019-0.934,4.31c0,0.03,0.017,0.048,0.017,0.077c0.295-0.108,0.607-0.389,0.825-0.621
		c0.732-0.778,1.291-1.774,1.681-2.77c0.7-1.821,1.337-4.42,1.337-6.365c0-1.291-0.108-2.053-0.933-3.097
		C8.849,3.555,8.662,3.32,8.662,3.243c0.358,0.094,0.592,0.28,0.857,0.529c0.312,0.295,0.607,0.623,0.793,1.012
		C10.62,5.45,10.728,6.198,10.728,6.929z M2.233,13.916h0.017V13.9L2.233,13.916z M2.373,13.465l0.062-0.077l-0.031-0.017
		C2.389,13.402,2.373,13.434,2.373,13.465z M2.435,13.263l0.017,0.03c0-0.015,0-0.03,0.017-0.046L2.435,13.263z M2.855,12.33
		l0.467-0.995v-0.031C3.104,11.613,2.994,11.987,2.855,12.33z M3.322,11.286c0.233-0.28,0.42-0.793,0.592-1.136
		c0.264-0.529,0.668-1.058,0.84-1.633L4.723,8.5C4.41,8.937,4.24,9.435,3.99,9.901c-0.218,0.42-0.483,0.84-0.653,1.277
		C3.322,11.208,3.322,11.256,3.322,11.286z M5.485,14.212H5.468c0,0.015,0,0.015,0.017,0.015V14.212z M5.563,13.947l-0.017-0.017
		v0.017H5.563z M5.563,13.808l0.017,0.015v-0.015H5.563z M5.593,15.582H5.577v0.062l0.017-0.017
		C5.593,15.628,5.593,15.582,5.593,15.582z M5.764,11.987l0.03,0.017c0.142-0.249,0.265-0.514,0.389-0.763
		C5.998,11.457,5.874,11.723,5.764,11.987z M6.326,11.613c-0.062,0.124-0.124,0.233-0.171,0.358c-0.03,0.03-0.017,0.062-0.017,0.094
		C6.169,11.925,6.248,11.769,6.326,11.613z M6.793,11.831l0.017-0.017v-0.017C6.807,11.815,6.793,11.815,6.793,11.831z
		 M6.932,11.535c0.017,0,0.017,0,0.017-0.017H6.932V11.535z M6.963,11.457c0,0.017,0,0.017,0.017,0.017v-0.017l-0.017-0.017V11.457z
		 M6.978,11.395h0.017v-0.017L6.978,11.395z M7.134,11.085c0,0.017,0,0.017,0.017,0.017v-0.017H7.134z M10.091,10.198
		c-0.031,0.03-0.031,0.077-0.048,0.124c-0.404,1.65-0.87,3.33-1.727,4.809c-0.094,0.155-0.202,0.312-0.28,0.483
		c0.995-0.903,1.758-3.984,2.053-5.322L10.091,10.198L10.091,10.198z M8.068,14.617c0.202-0.295,0.669-1.308,0.732-1.603
		l-0.017,0.017C8.769,13.153,8.177,14.429,8.068,14.617z M8.829,13.621c0,0.03-0.017,0.046-0.03,0.062
		c-0.017,0.03-0.048,0.125-0.062,0.14c0,0.03-0.017,0.062-0.03,0.094l0.062-0.079c0-0.062,0.048-0.094,0.048-0.142
		c0.017-0.015,0.017-0.076,0.03-0.124L8.829,13.621z M8.94,13.356l0.017-0.017v-0.015L8.94,13.339V13.356z M8.954,14.429H8.939
		l0.017,0.015C8.954,14.445,8.954,14.429,8.954,14.429z M8.97,12.438l0.031,0.048c0-0.017,0-0.031-0.017-0.048H8.97z M8.986,14.367
		c0-0.015,0-0.015-0.017-0.015v0.015H8.986z M9.017,14.289l-0.017,0.017h0.017V14.289z M9.126,12.874
		c0.017-0.03,0.017-0.062,0.046-0.094l-0.03-0.015C9.126,12.796,9.126,12.843,9.126,12.874z M9.282,13.652H9.265l0.017,0.015V13.652
		z M9.282,12.376l0.017-0.017H9.282V12.376z M9.297,11.427h0.017l-0.017-0.017V11.427z M9.36,13.465l-0.017-0.017v0.017H9.36z
		 M9.376,13.388H9.359v0.015L9.376,13.388z M9.376,12.018h0.017l-0.017-0.017V12.018z M9.407,11.939h0.015v-0.017H9.407V11.939z
		 M9.484,11.66h0.015v-0.015L9.484,11.66z M10.153,9.963l-0.03-0.015c-0.017,0.048-0.031,0.093-0.031,0.14l0.03,0.017L10.153,9.963z
		 M10.184,9.87L10.153,9.84V9.87H10.184z M10.201,9.715l-0.017-0.015c-0.015,0.015-0.015,0.03-0.015,0.046L10.201,9.715z
		 M10.216,9.559c-0.017,0.015-0.017,0.015-0.017,0.031l0.017,0.017V9.559z M10.247,9.45H10.23v0.031
		C10.23,9.465,10.23,9.465,10.247,9.45z M10.293,9.015h-0.017c0,0.017,0,0.017,0.017,0.03V9.015z"/>
	<path class="st10" d="M10.683,15.177c-0.062,0.125-0.046,0.39-0.046,0.514c0,0.155,0.046,0.746,0.265,0.746
		c0.326,0,0.575-0.218,0.686-0.496l0.017-0.017v0.048c0,0.14-0.125,0.249-0.171,0.374c0.171-0.077,0.202-0.233,0.295-0.374
		c0.017,0.03,0.03,0.062,0.03,0.077c0,0.108-0.094,0.171-0.108,0.265l0.108,0.015l-0.017,0.048l0.03,0.017v-0.017h0.048
		l-0.015-0.031h0.017l0.017-0.062h0.017l0.031-0.062v0.062c0.046-0.046,0.062-0.093,0.062-0.155l0.062-0.077
		c-0.031,0.451-0.451,0.746-0.887,0.746c-0.949,0-1.509-0.653-1.509-1.572c0-0.746,0.312-1.494,0.746-2.1
		c0.343-0.483,0.825-0.746,1.415-0.746c0.142,0,0.28,0.03,0.42,0.062l-0.312-0.575l0.124-0.031c0.621,0.202,1.042,0.715,1.042,1.401
		C13.049,14.367,11.711,15.177,10.683,15.177z M10.185,13.963c-0.017,0-0.017,0-0.017,0.017h0.017V13.963z M10.264,13.729
		l-0.046,0.077l0.03,0.015L10.264,13.729z M10.279,13.697l-0.017,0.015h0.017C10.279,13.713,10.279,13.697,10.279,13.697z
		 M10.528,13.278l0.046-0.017C10.559,13.263,10.544,13.263,10.528,13.278l-0.077,0.124l-0.03,0.048v0.017
		c-0.031,0.048-0.077,0.093-0.108,0.155c0.077-0.031,0.094-0.094,0.108-0.155l0.03-0.062l0.062-0.046
		C10.512,13.325,10.528,13.309,10.528,13.278z M10.481,14.446c-0.017,0.017-0.017,0.048-0.017,0.077h0.017V14.446z M11.056,13.371
		c-0.218,0.218-0.514,0.653-0.514,0.982C10.653,14.009,10.918,13.714,11.056,13.371z M10.544,13.776v0.017c0-0.017,0-0.017,0-0.03
		V13.776z M10.606,13.637c0.017-0.015,0.017-0.03,0.017-0.062C10.606,13.605,10.606,13.621,10.606,13.637z M10.669,13.543h0.017
		c0.017-0.017,0.031-0.048,0.031-0.062C10.7,13.496,10.683,13.543,10.669,13.543z M10.84,14.553c0.561-0.062,1.384-0.981,1.384-1.54
		v-0.062C11.523,13.108,10.965,13.87,10.84,14.553z M11.073,13.356l0.062-0.03v-0.017l-0.017,0.017
		C11.09,13.325,11.09,13.34,11.073,13.356z M12.131,13.808c-0.017,0.015-0.017,0.046-0.017,0.062l-0.048,0.03l0.048-0.017v-0.015
		L12.131,13.808z M12.239,13.637l-0.03,0.062v0.017C12.225,13.683,12.239,13.666,12.239,13.637z M12.286,13.543
		c0.017,0,0.03-0.017,0.03-0.03h-0.03V13.543z M12.349,14.165c0.017-0.017,0.03-0.017,0.03-0.03L12.349,14.165z M12.38,13.808h0.017
		l0.017-0.048L12.38,13.808z M12.443,14.119c-0.017,0-0.03,0-0.046,0.017C12.411,14.134,12.426,14.134,12.443,14.119z
		 M12.443,14.104c0.155-0.155,0.249-0.358,0.312-0.561C12.692,13.652,12.443,14.009,12.443,14.104z"/>
	<path class="st10" d="M16.006,5.84c0.451,0,0.949,0.715,0.949,1.152c0,0.638-0.717,2.802-0.934,3.533
		c-0.124,0.42-0.28,0.84-0.404,1.261l-0.84,3.003c-0.28,0.995-0.498,2.053-0.498,3.081c0,0.295,0.062,0.576,0.14,0.871
		c0.048,0.187,0.124,0.389,0.142,0.575c-0.048,0-0.094,0.017-0.142,0.017c-0.42,0-0.763-0.295-0.995-0.621
		c-0.28-0.39-0.312-0.903-0.312-1.37c0-1.929,1.027-5.586,1.633-7.501c0.187-0.575,1.261-3.283,1.261-3.595
		c0-0.108-0.046-0.218-0.108-0.312C15.913,5.887,15.959,5.84,16.006,5.84z M14.045,16.577c0.077-0.482,0.155-0.949,0.28-1.431
		c0.187-0.745,0.358-1.494,0.561-2.24c0.295-1.042,0.669-2.07,0.918-3.128c-0.202,0.312-0.995,3.236-1.167,3.828
		c-0.312,1.074-0.561,2.178-0.668,3.299C14,16.796,14.03,16.686,14.045,16.577z M15.928,9.435c-0.062,0.048-0.077,0.094-0.077,0.171
		L15.928,9.435z M15.976,9.294l-0.031-0.017c-0.017,0.048-0.017,0.109-0.017,0.156L15.976,9.294z M16.053,9.03l-0.017-0.017V9.03
		H16.053z"/>
	<path class="st10" d="M18.294,16.079l0.124-0.125c0.031,0.048,0.077,0.062,0.125,0.077c-0.048,0.062-0.062,0.14-0.108,0.202
		c-0.233,0.358-1.088,0.778-1.509,0.778c-0.964,0-1.587-0.949-1.587-1.837c0-0.995,0.793-3.144,1.976-3.144
		c0.607,0,1.152,0.483,1.415,0.995c0.048,0.093,0.077,0.187,0.077,0.295c0,0.264-0.124,0.496-0.124,0.762
		c0,0.155,0.077,0.295,0.108,0.451c-0.498-0.062-0.809-0.436-0.809-0.934c0-0.233,0.062-0.451,0.155-0.669h-0.108
		c-0.124,0-0.233,0.017-0.343,0.094c-0.964,0.715-1.183,2.07-1.183,3.19c0,0.062,0.017,0.108,0.03,0.172
		c0.529-0.048,0.887-0.28,1.308-0.561c0.062-0.048,0.14-0.077,0.218-0.108l0.28,0.218L18.294,16.079z M16.722,12.625
		c-0.108,0-0.343,0.358-0.404,0.45C16.442,13.014,16.645,12.749,16.722,12.625z M17.314,12.889l-0.14,0.048
		c-0.265,0.108-0.592,0.794-0.686,1.058h0.017c0.03-0.108,0.077-0.14,0.142-0.233c0.218-0.326,0.389-0.607,0.684-0.871
		L17.314,12.889L17.314,12.889z M16.924,12.858c-0.094,0-0.264,0.172-0.264,0.265C16.754,13.03,16.847,12.951,16.924,12.858z
		 M18.279,13.108c-0.017,0.015-0.017,0.015-0.017,0.03h0.017V13.108z M18.356,15.94H18.34c0-0.017,0.017-0.017,0.017-0.03V15.94z"/>
	<path class="st10" d="M20.846,12.874c0.374-0.483,0.964-1.384,1.65-1.384c0.669,0,1.462,0.825,1.462,1.494
		c0,1.261-0.995,2.723-1.883,3.548c-0.264,0.249-0.514,0.45-0.887,0.514c-0.108,0.015-0.218,0.03-0.326,0.03
		c-0.981,0-1.696-0.809-1.696-1.774v-0.187c0-0.639,0.653-2.365,1.401-2.365L20.846,12.874z M20.286,13.108
		c-0.124,0.062-0.187,0.171-0.249,0.279L20.286,13.108z M20.147,14.258v0.03c0.017,0,0.017-0.015,0.03-0.03H20.147z M23.057,12.796
		c0.017-0.108,0.048-0.202,0.048-0.312c0-0.062-0.017-0.142-0.048-0.202c-0.514,0-1.587,1.291-1.587,1.79
		c0,0.155,0.094,0.28,0.218,0.374c-0.03,0.048-0.094,0.094-0.155,0.094c-0.437,0-0.639-0.343-0.87-0.639
		c-0.233,0.575-0.451,1.167-0.451,1.79c0,0.219,0.017,0.437,0.077,0.653C21.703,15.954,22.808,14.181,23.057,12.796z M20.66,13.309
		c-0.202,0.202-0.326,0.467-0.42,0.732c0.077-0.108,0.389-0.592,0.404-0.7L20.66,13.309z M20.302,13.45
		c0.062-0.048,0.125-0.14,0.142-0.218L20.302,13.45z M21.251,12.765c0.046-0.125,0.561-0.639,0.7-0.763h-0.03
		c-0.28,0.233-0.514,0.498-0.717,0.793L21.251,12.765z M22.309,12.33v-0.017h-0.017c-0.017,0-0.017,0.017-0.03,0.017
		c-0.326,0.233-0.825,0.763-0.903,1.167C21.671,13.091,21.952,12.687,22.309,12.33z M21.718,12.563
		c-0.062,0.062-0.265,0.264-0.265,0.325C21.532,12.765,21.64,12.671,21.718,12.563z M22.184,15.94
		c-0.03,0.046-0.077,0.093-0.094,0.155c0.312-0.358,1.167-1.23,1.152-1.712C22.947,14.944,22.574,15.44,22.184,15.94z
		 M22.465,14.834c-0.077,0.108-0.343,0.419-0.343,0.483C22.263,15.192,22.372,15.021,22.465,14.834z M22.184,15.582
		c0,0.017,0,0.017,0.017,0.017L22.184,15.582z M22.372,15.41c0.108-0.171,0.249-0.326,0.343-0.496l-0.358,0.482v0.017
		C22.356,15.41,22.372,15.41,22.372,15.41z M22.728,14.866c-0.017,0.015-0.017,0.03-0.017,0.048L22.728,14.866z M22.963,15.254
		h0.017v-0.015L22.963,15.254z"/>
	<path class="st10" d="M24.115,15.94c0-0.343,0.077-0.669,0.14-0.995c0.171-0.887,0.437-1.805,0.437-2.708
		c0-0.108,0-0.202-0.077-0.28c-0.046-0.046-0.062-0.108-0.124-0.124l0.017-0.046c-0.062-0.048-0.202-0.108-0.202-0.187
		c0-0.124,0.28-0.187,0.374-0.187c0.171,0,0.42,0.077,0.561,0.171c0.529,0.358,0.715,0.686,0.715,1.324
		c0,0.42-0.436,2.195-0.436,2.21l0.017,0.062c0.87-1.276,1.758-2.613,2.972-3.595c0.14-0.125,0.295-0.218,0.498-0.218
		c0.171,0,0.529,0.14,0.638,0.279c0.077,0.094,0.094,0.249,0.094,0.374c0,0.187-0.046,0.374-0.094,0.545
		c-0.124,0.436-0.295,1.199-0.45,1.587l0.017,0.062c0.077-0.094,0.171-0.172,0.265-0.265c0.668-0.669,1.324-1.37,2.085-1.946
		l0.918-0.686c0.077-0.062,0.171-0.094,0.28-0.094c0.202,0,0.686,0.249,0.809,0.404c0.062,0.077,0.077,0.124,0.077,0.233
		c0,0.389-1.058,3.034-1.261,3.689c-0.14,0.468-0.265,0.949-0.404,1.431c-0.017,0.048-0.017,0.062-0.017,0.109
		c0,0.155,0.155,0.14,0.155,0.279c0,0.201-0.28,0.201-0.42,0.201c-0.343,0-0.84-0.295-0.887-0.668
		c-0.017-0.077-0.017-0.155-0.017-0.233c0-0.857,0.343-2.085,0.621-2.895c0.155-0.467,0.374-0.902,0.575-1.353
		c-1.183,0.762-2.194,2.335-3.144,3.392c-0.279,0.312-0.373,0.094-0.653,0.187l-0.451-0.279c-0.14-0.094-0.155-0.25-0.155-0.404
		c0-0.607,0.264-1.556,0.483-2.132c0.062-0.171,0.155-0.342,0.202-0.513c0.017-0.048,0.017-0.108,0.046-0.155h-0.017
		c-0.155,0.218-0.389,0.389-0.561,0.592c-0.87,1.058-1.494,2.319-2.381,3.376c-0.108,0.125-0.219,0.201-0.389,0.201
		C24.551,16.686,24.115,16.391,24.115,15.94z M24.909,15.877c0.218-0.918,0.42-1.836,0.607-2.754l-0.046-0.015
		c-0.202,0.918-0.404,1.851-0.623,2.769C24.847,15.877,24.909,15.877,24.909,15.877z M26.822,14.072
		c-0.017,0.017-0.03,0.031-0.03,0.062L26.822,14.072z M26.947,13.402c-0.017,0.017-0.03,0.031-0.03,0.062L26.947,13.402z
		 M28.02,14.492l-0.03,0.062h0.017l0.03-0.062H28.02z M28.068,14.321v-0.017h-0.017L28.068,14.321z M28.13,14.041
		c-0.017,0-0.017,0-0.017,0.017c0,0.015,0,0.015,0.017,0.015V14.041z M28.145,13.947h0.017l0.017-0.048L28.145,13.947z
		 M28.223,13.76v-0.017c-0.017,0.017-0.03,0.017-0.03,0.03C28.207,13.776,28.207,13.76,28.223,13.76z M28.223,14.928l-0.017,0.017
		h0.017V14.928z M28.286,14.741v-0.077c-0.017,0.03-0.017,0.048-0.017,0.077H28.286z M28.363,14.508l-0.031-0.017l-0.046,0.14
		L28.363,14.508z M28.363,14.352v0.015l0.017-0.015H28.363z M28.441,13.184c0.125-0.326,0.326-0.7,0.374-1.058
		c-0.155,0.358-0.326,0.717-0.42,1.105L28.441,13.184z M28.411,14.227h-0.017v0.048h0.017V14.227z M28.441,14.119v-0.048
		c-0.017,0.017-0.017,0.031-0.017,0.048C28.425,14.119,28.441,14.119,28.441,14.119z M28.457,14.959l0.062,0.017
		c0.048-0.062,0.077-0.14,0.108-0.218c0.233-0.778,0.483-1.54,0.7-2.319c0.048-0.155,0.062-0.312,0.108-0.45l-0.045-0.017
		L28.457,14.959z M28.488,13.947h-0.017c0,0.015,0,0.015,0.017,0.03V13.947z M28.518,13.822h0.031v-0.155L28.518,13.822z
		 M28.612,13.543c-0.017,0.03-0.046,0.062-0.062,0.108c0.03-0.03,0.062-0.062,0.077-0.094L28.612,13.543z M28.986,12.484
		c-0.124,0.218-0.233,0.545-0.295,0.793C28.845,13.03,28.893,12.749,28.986,12.484z M29.08,12.251h-0.031l0.017,0.048L29.08,12.251z
		 M29.188,13.45l0.017-0.015h-0.017V13.45z M31.226,15.784c0,0.017,0,0.017,0.017,0.017L31.226,15.784z M31.273,15.565h-0.017v0.048
		h0.017V15.565z M31.289,15.458h0.03c0-0.062,0.017-0.14,0.017-0.202L31.289,15.458z M31.335,15.254
		c0.093-0.14,0.124-0.312,0.124-0.483L31.335,15.254z M32.517,12.08c-0.436,0.856-0.825,1.743-1.058,2.677
		c0.108-0.172,0.155-0.358,0.218-0.544c0.155-0.42,0.295-0.857,0.483-1.261c0.124-0.28,0.295-0.561,0.389-0.857L32.517,12.08z
		 M31.476,16.002h0.017v-0.017L31.476,16.002z M31.491,15.954l0.048-0.062h-0.031L31.491,15.954z M31.554,15.8v-0.048
		c-0.017,0.015-0.017,0.015-0.017,0.03L31.554,15.8z M31.631,16.859c0.125-0.343,0.187-0.717,0.28-1.074
		c0.187-0.7,0.437-1.401,0.7-2.085l0.623-1.633c0.03-0.077,0.03-0.155,0.046-0.233h-0.029c-0.404,0.982-0.84,1.945-1.152,2.972
		c-0.202,0.653-0.436,1.353-0.498,2.038L31.631,16.859z M32.939,11.877c-0.374,0.918-0.857,1.82-1.106,2.785
		c-0.062,0.233-0.108,0.514-0.202,0.746c0.094-0.155,0.142-0.389,0.202-0.561c0.202-0.575,0.405-1.152,0.623-1.727
		c0.155-0.42,0.373-0.809,0.514-1.23L32.939,11.877z M32.083,15.753c0,0.015,0,0.03,0.017,0.048h0.017
		c-0.017-0.017-0.017-0.031-0.017-0.048H32.083z M32.114,14.367l0.017,0.017v-0.017H32.114z M32.145,14.289l0.017,0.017v-0.017
		H32.145z M32.16,15.565h-0.017l0.017,0.015V15.565z M32.27,15.239c0.017-0.017,0.017-0.017,0.017-0.03
		C32.284,15.223,32.27,15.223,32.27,15.239z M32.316,15.098L32.3,15.082c0,0.017,0,0.03-0.017,0.048L32.316,15.098z M32.3,13.854
		v0.017l0.017-0.017H32.3z M32.332,13.776v0.017c0.017,0,0.017,0,0.017-0.017H32.332z M32.378,14.928v-0.015
		c-0.017,0.015-0.03,0.015-0.03,0.03C32.363,14.944,32.363,14.928,32.378,14.928z M32.394,13.637c0.017,0,0.017,0,0.017-0.015
		C32.394,13.621,32.394,13.621,32.394,13.637z M32.409,14.819h-0.017v0.03h0.017V14.819z M32.441,14.757V14.74
		c-0.017,0-0.017,0-0.017,0.017H32.441z M32.659,14.134l-0.031-0.017v0.048L32.659,14.134z M32.72,13.916
		c-0.017,0.015-0.017,0.03-0.017,0.046h0.017V13.916z M32.798,13.822l-0.03-0.03c-0.017,0.017-0.017,0.017-0.017,0.03H32.798z
		 M32.922,13.45h-0.015c0,0.017,0,0.03-0.017,0.048L32.922,13.45z M32.954,13.309l-0.017,0.017h0.017V13.309z M32.97,13.232
		l0.017,0.017v-0.017H32.97z M33.015,13.153l-0.017,0.017h0.017V13.153z M33.033,13.091h0.017v-0.017L33.033,13.091z M33.094,12.983
		l-0.017,0.015h0.017V12.983z M33.186,12.702c0,0.017,0,0.017,0.017,0.017v-0.017H33.186z M33.28,12.469V12.5
		c0-0.017,0-0.017,0.017-0.03L33.28,12.469L33.28,12.469z"/>
	<path class="st10" d="M34.355,15.177c-0.062,0.125-0.046,0.39-0.046,0.514c0,0.155,0.046,0.746,0.265,0.746
		c0.326,0,0.575-0.218,0.686-0.496l0.017-0.017v0.048c0,0.14-0.125,0.249-0.171,0.374c0.171-0.077,0.202-0.233,0.295-0.374
		c0.017,0.03,0.03,0.062,0.03,0.077c0,0.108-0.094,0.171-0.108,0.265l0.108,0.015l-0.017,0.048l0.03,0.017v-0.017h0.048
		l-0.015-0.031h0.017l0.017-0.062h0.017l0.03-0.062v0.062c0.048-0.046,0.062-0.093,0.062-0.155l0.062-0.077
		c-0.031,0.451-0.451,0.746-0.887,0.746c-0.949,0-1.509-0.653-1.509-1.572c0-0.746,0.312-1.494,0.746-2.1
		c0.343-0.483,0.825-0.746,1.415-0.746c0.142,0,0.28,0.03,0.42,0.062l-0.312-0.575l0.125-0.031c0.621,0.202,1.042,0.715,1.042,1.401
		C36.72,14.367,35.383,15.177,34.355,15.177z M33.858,13.963c-0.017,0-0.017,0-0.017,0.017h0.017V13.963z M33.935,13.729
		l-0.046,0.077l0.03,0.015L33.935,13.729z M33.952,13.697l-0.017,0.017h0.017V13.697z M34.2,13.278l0.046-0.017
		C34.23,13.263,34.216,13.263,34.2,13.278l-0.077,0.124l-0.03,0.048v0.017c-0.03,0.048-0.077,0.093-0.108,0.155
		c0.077-0.031,0.094-0.094,0.108-0.155l0.03-0.062l0.062-0.046C34.185,13.325,34.2,13.309,34.2,13.278z M34.153,14.446
		c-0.017,0.017-0.017,0.048-0.017,0.077h0.017V14.446z M34.729,13.371c-0.218,0.218-0.514,0.653-0.514,0.982
		C34.324,14.009,34.59,13.714,34.729,13.371z M34.216,13.776v0.017c0-0.017,0-0.017,0-0.03V13.776z M34.278,13.637
		c0.017-0.015,0.017-0.03,0.017-0.062C34.278,13.605,34.278,13.621,34.278,13.637z M34.341,13.543h0.017
		c0.017-0.017,0.031-0.048,0.031-0.062C34.372,13.496,34.355,13.543,34.341,13.543z M34.511,14.553
		c0.561-0.062,1.384-0.981,1.384-1.54v-0.062C35.195,13.108,34.636,13.87,34.511,14.553z M34.744,13.356l0.062-0.03v-0.017
		l-0.017,0.017C34.761,13.325,34.761,13.34,34.744,13.356z M35.803,13.808c-0.017,0.015-0.017,0.046-0.017,0.062l-0.048,0.03
		l0.048-0.017v-0.015L35.803,13.808z M35.912,13.637l-0.03,0.062v0.017C35.897,13.683,35.912,13.666,35.912,13.637z M35.958,13.543
		c0.017,0,0.03-0.017,0.03-0.03h-0.03V13.543z M36.021,14.165c0.017-0.017,0.031-0.017,0.031-0.03L36.021,14.165z M36.052,13.808
		h0.017l0.017-0.048L36.052,13.808z M36.115,14.119c-0.017,0-0.03,0-0.046,0.017C36.082,14.134,36.099,14.134,36.115,14.119z
		 M36.115,14.104c0.155-0.155,0.249-0.358,0.312-0.561C36.364,13.652,36.115,14.009,36.115,14.104z"/>
	<path class="st10" d="M43.795,10.165c-0.262,0.318-1.277,0.41-1.687,0.479c-0.41,1.334-0.649,2.713-0.878,4.092
		c-0.114,0.73-0.206,1.482-0.206,2.224c0,0.296,0.045,0.604,0.114,0.89c0.011,0.035,0.011,0.057,0.011,0.091
		c0,0.103-0.148,0.136-0.228,0.136c-0.035,0-0.045-0.035-0.056-0.057l-0.069,0.103c-0.136-0.069-0.285-0.103-0.422-0.171
		c-0.422-0.217-0.422-0.992-0.422-1.392c0-1.198,0.159-2.417,0.343-3.602c0.045-0.274,0.069-0.559,0.125-0.833
		c0.056-0.318,0.136-0.639,0.182-0.958c0.011-0.081,0.045-0.148,0.045-0.228c0-0.056-0.103-0.056-0.136-0.056
		c-0.114,0-0.24,0.011-0.354,0.011l0.011-0.011c-0.114-0.035-0.262-0.148-0.343-0.251l0.011-0.069l-0.101-0.055
		c0.023-0.114,0.045-0.148,0.159-0.182c0.252-0.069,0.513-0.091,0.765-0.148c0.251-0.331,0.478-0.672,0.639-1.06
		c0.126-0.296,0.307-0.582,0.468-0.855c0.045-0.08,0.091-0.148,0.194-0.148l0.136,0.069l-0.081,0.182
		c0.069-0.069,0.114-0.136,0.171-0.206l0.045,0.069l0.091-0.011l-0.057,0.159l0.091-0.081l0.126,0.045v0.114l0.091-0.023
		c0.069,0.057,0.182,0.114,0.182,0.217c0,0.045-0.41,1.22-0.41,1.22c0.081-0.011,0.171,0,0.251-0.023
		c0.194-0.045,0.388-0.045,0.594-0.045c0.24,0,0.296,0.045,0.444,0.24C43.636,10.13,43.726,10.152,43.795,10.165z M40.273,15.375
		h-0.012v0.148h0.011L40.273,15.375L40.273,15.375z M40.318,14.895h-0.011v0.136h0.011V14.895z M40.476,13.766l-0.035-0.011
		L40.327,14.7h0.023C40.386,14.395,40.431,14.074,40.476,13.766z M41.025,10.826c-0.159,0.251-0.535,2.417-0.535,2.782v0.057
		C40.648,12.718,40.786,11.761,41.025,10.826z M40.512,15.855V15.74h-0.011v0.115C40.501,15.855,40.512,15.855,40.512,15.855z
		 M40.512,15.568h0.011v-0.022h-0.011V15.568z M40.556,15.113h-0.011l-0.011,0.216h0.011L40.556,15.113z M40.591,14.839H40.58
		c0,0.057-0.011,0.103-0.011,0.159h0.023C40.591,14.998,40.591,14.839,40.591,14.839z M40.615,14.645v0.057
		c0.103-0.661,0.194-1.324,0.318-1.973c0.126-0.66,0.273-1.31,0.41-1.973C41.139,11.019,40.615,14.178,40.615,14.645z
		 M41.709,10.712l-0.103,0.011c-0.285,0.935-0.457,1.915-0.616,2.874c-0.148,0.981-0.307,1.985-0.307,2.976
		c0,0.171,0,0.353,0.023,0.524C40.796,14.941,41.161,12.798,41.709,10.712z M40.854,10.119v0.023l0.045-0.069
		C40.877,10.074,40.854,10.096,40.854,10.119z M40.922,15.945h-0.011v0.035h0.011V15.945z M40.956,15.637V15.58
		c-0.011,0.011-0.011,0.035-0.011,0.056H40.956z M41.002,15.261v-0.035H40.99v0.035H41.002z M41.035,14.954h-0.011v0.045h0.011
		V14.954z M41.069,14.714h-0.011v0.045L41.069,14.714z M41.105,14.542c-0.011-0.011-0.011-0.035-0.011-0.045h-0.011
		c0,0.011,0,0.035,0.011,0.045H41.105z M41.128,14.269h-0.011v0.08h0.011V14.269z M41.161,14.074H41.15v0.046h0.011V14.074z
		 M41.173,12.058v0.035h0.011v-0.035H41.173z M41.195,13.937v-0.091h-0.011v0.091H41.195z M41.206,11.909
		c0,0.023,0,0.035-0.011,0.056h0.011l0.011-0.056H41.206z M41.229,13.744v-0.069h-0.023v0.069H41.229z M41.229,11.817h0.011v-0.023
		L41.229,11.817z M41.264,13.561c0-0.023,0-0.035-0.011-0.057h-0.011v0.057H41.264z M41.264,11.646v0.035h0.011v-0.035H41.264z
		 M41.286,13.369v-0.045h-0.011v0.045H41.286z M41.321,13.232v-0.081H41.31l-0.011,0.081H41.321z M41.331,11.396l-0.023,0.035h0.023
		V11.396z M41.321,9.89l0.011-0.011C41.321,9.88,41.321,9.88,41.321,9.89z M41.354,13.06c0-0.023,0-0.046-0.011-0.069h-0.011v0.069
		H41.354z M41.344,11.294l0.011,0.011l0.023-0.045L41.344,11.294z M41.378,12.819h-0.011v0.091h0.011V12.819z M41.412,12.753v-0.081
		h-0.011l-0.011,0.069C41.401,12.753,41.401,12.753,41.412,12.753z M41.401,11.122l0.023-0.056l-0.023-0.011V11.122z M41.435,12.524
		h-0.011v0.081h0.011V12.524z M41.435,10.951v0.023c0.011-0.011,0.011-0.011,0.011-0.023H41.435z M41.469,12.445v-0.069h-0.011
		v0.069H41.469z M41.503,12.24l-0.023,0.056l0.023,0.011V12.24z M41.548,12.104c-0.023,0-0.045,0.023-0.045,0.045
		c0,0.022,0.011,0.035,0.011,0.057L41.548,12.104z M41.537,12.033c0,0.023,0.011,0.035,0.011,0.057l0.035-0.114
		C41.561,11.988,41.537,12,41.537,12.033z M41.572,10.005c0.091-0.091,0.103-0.217,0.126-0.331
		C41.607,9.765,41.594,9.89,41.572,10.005z M41.583,11.966c0-0.035,0.011-0.069,0.011-0.103h-0.023
		C41.572,11.897,41.572,11.933,41.583,11.966z M41.618,11.794v-0.056c-0.011,0.023-0.023,0.035-0.023,0.056H41.618z M41.629,11.669
		c-0.011,0.011-0.011,0.023-0.011,0.035l0.011-0.011V11.669z M41.652,11.591l0.011-0.035C41.652,11.567,41.652,11.578,41.652,11.591
		z M41.686,11.453l-0.011,0.011c0,0.035-0.011,0.056-0.011,0.091l0.023-0.091C41.686,11.464,41.686,11.453,41.686,11.453z
		 M41.743,11.27c-0.057,0.045-0.057,0.114-0.057,0.182C41.709,11.396,41.731,11.328,41.743,11.27z M41.709,9.652
		c-0.011,0.011-0.011,0.011-0.011,0.023C41.697,9.663,41.709,9.663,41.709,9.652z M41.799,11.066
		c-0.035,0.035-0.056,0.081-0.056,0.126c0,0.023,0,0.045,0.011,0.069C41.766,11.191,41.778,11.133,41.799,11.066z M41.743,11.27
		h0.011v-0.011L41.743,11.27z M41.766,8.831c0.011-0.011,0.011-0.011,0.011-0.023C41.778,8.819,41.766,8.819,41.766,8.831z
		 M41.799,8.727l-0.022,0.057C41.789,8.774,41.799,8.75,41.799,8.727z M41.823,8.682L41.8,8.727
		C41.811,8.716,41.823,8.694,41.823,8.682z M41.799,11.019l0.035-0.081v-0.045C41.811,10.94,41.811,10.974,41.799,11.019z
		 M41.891,10.735V10.69l-0.045,0.126C41.88,10.803,41.891,10.768,41.891,10.735z M42.302,8.967c-0.035,0.057-0.08,0.103-0.114,0.148
		c-0.057,0.103-0.32,0.752-0.32,0.844h0.023c0.056,0,0.081-0.045,0.091-0.091C42.096,9.571,42.187,9.276,42.302,8.967z
		 M41.936,8.523c-0.011,0.011-0.023,0.035-0.023,0.045C41.925,8.557,41.936,8.534,41.936,8.523z M41.925,9.07l0.035-0.023h-0.035
		V9.07z M41.994,8.398c-0.023,0.045-0.045,0.081-0.057,0.126l0.057-0.103V8.398z"/>
	<path class="st10" d="M43.662,12.874c0.374-0.483,0.964-1.384,1.65-1.384c0.669,0,1.462,0.825,1.462,1.494
		c0,1.261-0.995,2.723-1.883,3.548c-0.264,0.249-0.514,0.45-0.887,0.514c-0.108,0.015-0.218,0.03-0.326,0.03
		c-0.981,0-1.696-0.809-1.696-1.774v-0.187c0-0.639,0.653-2.365,1.401-2.365L43.662,12.874z M43.101,13.108
		c-0.124,0.062-0.187,0.171-0.249,0.279L43.101,13.108z M42.962,14.258v0.03c0.017,0,0.017-0.015,0.03-0.03H42.962z M45.871,12.796
		c0.017-0.108,0.048-0.202,0.048-0.312c0-0.062-0.017-0.142-0.048-0.202c-0.514,0-1.587,1.291-1.587,1.79
		c0,0.155,0.094,0.28,0.218,0.374c-0.03,0.048-0.094,0.094-0.155,0.094c-0.437,0-0.639-0.343-0.87-0.639
		c-0.233,0.575-0.451,1.167-0.451,1.79c0,0.219,0.017,0.437,0.077,0.653C44.517,15.954,45.623,14.181,45.871,12.796z M43.475,13.309
		c-0.202,0.202-0.326,0.467-0.42,0.732c0.077-0.108,0.389-0.592,0.404-0.7L43.475,13.309z M43.118,13.45
		c0.062-0.048,0.125-0.14,0.142-0.218L43.118,13.45z M44.067,12.765c0.046-0.125,0.561-0.639,0.7-0.763h-0.03
		c-0.28,0.233-0.514,0.498-0.717,0.793L44.067,12.765z M45.125,12.33v-0.017h-0.017c-0.017,0-0.017,0.017-0.03,0.017
		c-0.326,0.233-0.825,0.763-0.903,1.167C44.487,13.091,44.767,12.687,45.125,12.33z M44.533,12.563
		c-0.062,0.062-0.265,0.264-0.265,0.325C44.346,12.765,44.455,12.671,44.533,12.563z M45,15.94c-0.03,0.046-0.077,0.093-0.094,0.155
		c0.312-0.358,1.167-1.23,1.152-1.712C45.763,14.944,45.389,15.44,45,15.94z M45.28,14.834c-0.077,0.108-0.343,0.419-0.343,0.483
		C45.078,15.192,45.187,15.021,45.28,14.834z M45,15.582c0,0.017,0,0.017,0.017,0.017L45,15.582z M45.187,15.41
		c0.108-0.171,0.249-0.326,0.343-0.496l-0.358,0.482v0.017C45.171,15.41,45.187,15.41,45.187,15.41z M45.545,14.866
		c-0.017,0.015-0.017,0.03-0.017,0.048L45.545,14.866z M45.777,15.254h0.017v-0.015L45.777,15.254z"/>
	<path class="st10" d="M53.941,10.165c-0.262,0.318-1.277,0.41-1.687,0.479c-0.41,1.334-0.649,2.713-0.878,4.092
		c-0.114,0.73-0.206,1.482-0.206,2.224c0,0.296,0.045,0.604,0.114,0.89c0.011,0.035,0.011,0.057,0.011,0.091
		c0,0.103-0.148,0.136-0.228,0.136c-0.035,0-0.045-0.035-0.056-0.057l-0.069,0.103c-0.137-0.069-0.285-0.103-0.422-0.171
		c-0.422-0.216-0.422-0.992-0.422-1.391c0-1.198,0.159-2.417,0.342-3.602c0.045-0.274,0.069-0.559,0.126-0.833
		c0.057-0.318,0.136-0.639,0.182-0.958c0.011-0.081,0.045-0.148,0.045-0.228c0-0.056-0.103-0.056-0.136-0.056
		c-0.114,0-0.24,0.011-0.353,0.011l0.011-0.011c-0.114-0.035-0.262-0.148-0.343-0.251l0.011-0.069l-0.102-0.055
		c0.023-0.114,0.045-0.148,0.159-0.182c0.252-0.069,0.513-0.091,0.764-0.148c0.252-0.331,0.479-0.672,0.639-1.06
		c0.126-0.296,0.307-0.582,0.468-0.855c0.045-0.08,0.091-0.148,0.194-0.148l0.136,0.069l-0.081,0.182
		c0.069-0.069,0.114-0.136,0.171-0.206l0.045,0.069l0.091-0.011l-0.056,0.16l0.091-0.081l0.125,0.045v0.114l0.091-0.023
		C52.787,8.489,52.9,8.546,52.9,8.649c0,0.045-0.41,1.22-0.41,1.22c0.081-0.011,0.171,0,0.251-0.023
		C52.935,9.8,53.129,9.8,53.335,9.8c0.24,0,0.296,0.045,0.445,0.24C53.782,10.13,53.872,10.152,53.941,10.165z M50.418,15.375
		h-0.012v0.148h0.011L50.418,15.375L50.418,15.375z M50.464,14.895h-0.011v0.136h0.011V14.895z M50.624,13.766l-0.035-0.011
		L50.474,14.7h0.023C50.533,14.395,50.578,14.074,50.624,13.766z M51.171,10.826c-0.159,0.251-0.535,2.417-0.535,2.782v0.057
		C50.795,12.718,50.932,11.761,51.171,10.826z M50.658,15.855V15.74h-0.011v0.115C50.646,15.855,50.658,15.855,50.658,15.855z
		 M50.658,15.568h0.011v-0.022h-0.011V15.568z M50.703,15.113h-0.011l-0.011,0.216h0.011L50.703,15.113z M50.738,14.839h-0.011
		c0,0.057-0.011,0.103-0.011,0.159h0.023C50.738,14.998,50.738,14.839,50.738,14.839z M50.761,14.645v0.057
		c0.103-0.661,0.194-1.324,0.318-1.973c0.126-0.66,0.274-1.31,0.41-1.973C51.284,11.019,50.761,14.178,50.761,14.645z
		 M51.854,10.712l-0.103,0.011c-0.285,0.935-0.457,1.915-0.616,2.874c-0.148,0.981-0.307,1.985-0.307,2.976
		c0,0.171,0,0.353,0.023,0.524C50.942,14.941,51.308,12.798,51.854,10.712z M51,10.119v0.023l0.045-0.069
		C51.023,10.074,51,10.096,51,10.119z M51.068,15.945h-0.011v0.035h0.011V15.945z M51.102,15.637V15.58
		c-0.011,0.011-0.011,0.035-0.011,0.056H51.102z M51.148,15.261v-0.035h-0.011v0.035H51.148z M51.183,14.954h-0.011v0.045h0.011
		V14.954z M51.216,14.714h-0.011v0.045L51.216,14.714z M51.251,14.542c-0.011-0.011-0.011-0.035-0.011-0.045h-0.011
		c0,0.011,0,0.035,0.011,0.045H51.251z M51.274,14.269h-0.011v0.08h0.011V14.269z M51.308,14.074h-0.011v0.046h0.011V14.074z
		 M51.319,12.058v0.035h0.011v-0.035H51.319z M51.341,13.937v-0.091H51.33v0.091H51.341z M51.354,11.909
		c0,0.023,0,0.035-0.011,0.056h0.011l0.011-0.056H51.354z M51.377,13.744v-0.069h-0.023v0.069H51.377z M51.377,11.817h0.011v-0.023
		L51.377,11.817z M51.41,13.561c0-0.023,0-0.035-0.011-0.057h-0.011v0.057H51.41z M51.41,11.646v0.035h0.011v-0.035H51.41z
		 M51.433,13.369v-0.045h-0.011v0.045H51.433z M51.467,13.232v-0.081h-0.011l-0.011,0.081H51.467z M51.478,11.396l-0.023,0.035
		h0.023V11.396z M51.467,9.89l0.011-0.011C51.467,9.88,51.467,9.88,51.467,9.89z M51.502,13.06c0-0.023,0-0.046-0.011-0.069H51.48
		v0.069H51.502z M51.491,11.294l0.011,0.011l0.023-0.045L51.491,11.294z M51.525,12.819h-0.011v0.091h0.011V12.819z M51.558,12.753
		v-0.081h-0.011l-0.011,0.069C51.547,12.753,51.547,12.753,51.558,12.753z M51.547,11.122l0.023-0.056l-0.023-0.011V11.122z
		 M51.581,12.524H51.57v0.081h0.011V12.524z M51.581,10.951v0.023c0.011-0.011,0.011-0.011,0.011-0.023H51.581z M51.616,12.445
		v-0.069h-0.011v0.069H51.616z M51.65,12.24l-0.023,0.056l0.023,0.011V12.24z M51.696,12.104c-0.023,0-0.045,0.023-0.045,0.045
		c0,0.022,0.011,0.035,0.011,0.057L51.696,12.104z M51.683,12.033c0,0.023,0.011,0.035,0.011,0.057l0.035-0.114
		C51.707,11.988,51.683,12,51.683,12.033z M51.718,10.005c0.091-0.091,0.103-0.217,0.125-0.331
		C51.753,9.765,51.742,9.89,51.718,10.005z M51.728,11.966c0-0.035,0.011-0.069,0.011-0.103h-0.023
		C51.718,11.897,51.718,11.933,51.728,11.966z M51.764,11.794v-0.056c-0.011,0.023-0.023,0.035-0.023,0.056H51.764z M51.775,11.669
		c-0.011,0.011-0.011,0.023-0.011,0.035l0.011-0.011V11.669z M51.797,11.591l0.011-0.035C51.797,11.567,51.797,11.578,51.797,11.591
		z M51.832,11.453l-0.011,0.011c0,0.035-0.011,0.056-0.011,0.091l0.023-0.091C51.832,11.464,51.832,11.453,51.832,11.453z
		 M51.89,11.27c-0.057,0.045-0.057,0.114-0.057,0.182C51.854,11.396,51.878,11.328,51.89,11.27z M51.854,9.652
		c-0.011,0.011-0.011,0.011-0.011,0.023C51.843,9.663,51.854,9.663,51.854,9.652z M51.946,11.066
		c-0.035,0.035-0.056,0.081-0.056,0.126c0,0.023,0,0.045,0.011,0.069C51.913,11.191,51.923,11.133,51.946,11.066z M51.89,11.27
		h0.011v-0.011L51.89,11.27z M51.913,8.831c0.011-0.011,0.011-0.011,0.011-0.023C51.923,8.819,51.913,8.819,51.913,8.831z
		 M51.946,8.727l-0.023,0.057C51.935,8.774,51.946,8.75,51.946,8.727z M51.969,8.682l-0.023,0.045
		C51.958,8.716,51.969,8.694,51.969,8.682z M51.946,11.019l0.035-0.081v-0.045C51.958,10.94,51.958,10.974,51.946,11.019z
		 M52.038,10.735V10.69l-0.045,0.126C52.026,10.803,52.038,10.768,52.038,10.735z M52.448,8.967
		c-0.035,0.057-0.081,0.103-0.114,0.148c-0.057,0.103-0.32,0.752-0.32,0.844h0.023c0.056,0,0.081-0.045,0.091-0.091
		C52.243,9.571,52.333,9.276,52.448,8.967z M52.083,8.523c-0.011,0.011-0.023,0.035-0.023,0.045
		C52.071,8.557,52.083,8.534,52.083,8.523z M52.071,9.07l0.035-0.023h-0.035C52.071,9.048,52.071,9.07,52.071,9.07z M52.14,8.398
		c-0.023,0.045-0.045,0.081-0.056,0.126l0.056-0.103V8.398z"/>
	<path class="st10" d="M56.594,14.104c-0.233,1.276-0.575,2.583-0.575,3.89c0,0.202,0.017,0.404,0.077,0.607
		c0,0.015,0.017,0.03,0.017,0.046c0,0.03-0.017,0.062-0.017,0.094c-0.062,0.015-0.124,0.015-0.187,0.015
		c-0.436,0-0.87-0.358-0.918-0.793c-0.017-0.187-0.017-0.39-0.017-0.576c0-0.358,0-0.715,0.046-1.074
		c0.171-1.401,0.326-2.661,0.732-4.015l-0.03-0.03l-0.483,0.404c-0.28,0.249-0.607,0.715-0.793,1.042
		c-0.575,0.981-0.995,2.022-1.213,3.144c-0.017,0.093-0.03,0.171-0.062,0.265c-1.074-0.108-1.167-0.809-1.167-1.728
		c0-1.633,0.374-3.252,0.732-4.84c0.14-0.638,0.28-1.291,0.483-1.915c0.187-0.592,0.436-1.183,0.669-1.758
		c0.059-0.14,0.105-0.312,0.215-0.436c0.094,0.062,0.14,0.094,0.249,0.094c0.142,0,0.358,0.187,0.467,0.28
		c0.108,0.094,0.124,0.14,0.14,0.28v0.124c0,0.592-0.404,1.758-0.575,2.381c-0.219,0.84-0.437,1.665-0.639,2.506
		c-0.077,0.326-0.343,1.23-0.343,1.509c0,0.015,0.017,0.046,0.017,0.062c0.607-0.934,1.058-1.432,1.993-2.053
		c0.124-0.077,0.218-0.124,0.358-0.124c0.295,0,0.592,0.187,0.809,0.358c0.218,0.171,0.295,0.312,0.295,0.59
		C56.873,12.997,56.686,13.575,56.594,14.104z M52.733,12.002h-0.017v0.03h0.017V12.002z M52.781,11.784l-0.048,0.077l0.03,0.017
		C52.766,11.846,52.781,11.815,52.781,11.784z M52.796,11.692h-0.015v0.077C52.796,11.738,52.796,11.723,52.796,11.692z
		 M52.813,11.551h0.03c-0.017-0.017-0.017-0.046-0.017-0.077C52.813,11.505,52.813,11.519,52.813,11.551z M52.843,14.944
		c0-0.03-0.017-0.048-0.017-0.077c-0.017,0.03-0.017,0.048-0.017,0.077H52.843z M52.874,14.523c-0.017,0.062-0.03,0.125-0.03,0.187
		h0.03V14.523z M52.874,14.508c0.155-0.483,0.249-1.277,0.358-1.805c0.343-1.619,0.809-3.222,1.23-4.824l-0.03,0.017
		c-0.218,0.7-0.45,1.384-0.638,2.085c-0.218,0.825-0.404,1.65-0.575,2.474C53.076,13.138,52.937,13.822,52.874,14.508z M52.92,11.1
		h0.017v-0.062C52.92,11.052,52.92,11.085,52.92,11.1z M52.937,11.022c0.017-0.017,0.03-0.046,0.03-0.062l-0.03-0.017V11.022z
		 M52.983,10.804l0.03,0.017c0-0.077,0.017-0.171,0.017-0.249l0.03-0.017c0.062-0.218,0.108-0.42,0.155-0.638
		c-0.094,0.202-0.14,0.436-0.187,0.653L52.983,10.804z M53.045,11.863v0.062h0.017v-0.062H53.045z M53.155,11.427
		c0,0.03-0.017,0.062-0.017,0.094l-0.03,0.108h0.03l0.048-0.187L53.155,11.427z M54.165,13.666
		c-0.358,0.358-0.903,1.727-1.012,2.241c-0.017,0.046,0,0.108-0.017,0.155c0.048-0.046,0.062-0.093,0.077-0.14
		c0.171-0.496,0.326-0.995,0.561-1.478l0.389-0.746L54.165,13.666L54.165,13.666z M53.186,11.302c0,0.017,0,0.017,0.017,0.03v-0.03
		H53.186z M53.186,15.223h0.017v-0.015L53.186,15.223z M53.217,11.177l0.03,0.017c-0.017-0.031-0.017-0.062-0.017-0.094
		C53.217,11.131,53.217,11.146,53.217,11.177z M53.263,14.446h0.031l0.14-0.295L53.263,14.446z M53.34,10.695
		c0.077-0.094,0.343-1.245,0.374-1.449l0.03-0.094l0.017-0.062c-0.017,0.017-0.017,0.046-0.017,0.062
		c-0.017,0.031-0.03,0.062-0.03,0.094C53.575,9.73,53.434,10.212,53.34,10.695z M53.544,15.317l-0.017-0.017v0.017H53.544z
		 M53.544,8.642c0.017,0,0.017,0,0.031-0.017V8.61L53.544,8.642z M53.621,8.408h0.017V8.392L53.621,8.408z M53.668,14.944h-0.017
		l0.017,0.015V14.944z M53.777,13.963c0-0.015,0-0.015,0.017-0.03h-0.017V13.963z M53.793,8.998l0.017-0.048h-0.017V8.998z
		 M53.807,10.991l-0.017,0.017h0.017V10.991z M53.824,8.859h0.017V8.827h-0.017V8.859z M53.855,8.719h0.017V8.703L53.855,8.719z
		 M53.98,10.353h-0.015v0.031C53.963,10.369,53.963,10.369,53.98,10.353z M54.15,9.746h-0.015v0.017L54.15,9.746z M54.212,9.497
		h-0.017v0.015L54.212,9.497z M54.244,13.543c-0.017,0.03-0.046,0.062-0.046,0.093C54.212,13.605,54.244,13.575,54.244,13.543z
		 M54.244,9.388c-0.017,0-0.017,0-0.017,0.017h0.017V9.388z M54.462,7.862c0.048-0.094,0.094-0.187,0.094-0.295l-0.031-0.015
		C54.493,7.66,54.477,7.754,54.462,7.862z M54.57,7.442h0.017c0-0.017,0-0.046-0.017-0.062l0.046-0.062L54.6,7.302
		c0,0.03-0.017,0.046-0.03,0.077C54.571,7.379,54.571,7.442,54.57,7.442z M55.862,16.096h-0.017v0.062l0.017-0.017V16.096z
		 M55.925,15.628h-0.017c0,0.017,0.017,0.017,0.017,0.03V15.628z M56.002,15.13l-0.03,0.108h0.03V15.13z M56.484,12.796
		c-0.202,0.7-0.326,1.401-0.451,2.117c0.108-0.25,0.142-0.576,0.202-0.825C56.329,13.652,56.422,13.232,56.484,12.796z
		 M56.515,12.671h-0.03v0.077L56.515,12.671z"/>
	<path class="st10" d="M57.964,15.177c-0.062,0.125-0.046,0.39-0.046,0.514c0,0.155,0.046,0.746,0.265,0.746
		c0.326,0,0.575-0.218,0.686-0.496l0.017-0.017v0.048c0,0.14-0.125,0.249-0.171,0.374c0.171-0.077,0.202-0.233,0.295-0.374
		c0.017,0.03,0.03,0.062,0.03,0.077c0,0.108-0.094,0.171-0.108,0.265l0.108,0.015l-0.017,0.048l0.03,0.017v-0.017h0.048
		l-0.017-0.031h0.017l0.017-0.062h0.017l0.03-0.062v0.062c0.048-0.046,0.062-0.093,0.062-0.155l0.062-0.077
		c-0.031,0.451-0.451,0.746-0.887,0.746c-0.949,0-1.509-0.653-1.509-1.572c0-0.746,0.312-1.494,0.746-2.1
		c0.343-0.483,0.825-0.746,1.415-0.746c0.142,0,0.28,0.03,0.42,0.062l-0.312-0.575l0.125-0.031c0.621,0.202,1.042,0.715,1.042,1.401
		C60.329,14.367,58.992,15.177,57.964,15.177z M57.466,13.963c-0.017,0-0.017,0-0.017,0.017h0.017V13.963z M57.543,13.729
		l-0.046,0.077l0.03,0.015L57.543,13.729z M57.559,13.697l-0.017,0.017h0.017V13.697z M57.809,13.278l0.046-0.017
		C57.84,13.263,57.824,13.263,57.809,13.278l-0.077,0.124l-0.03,0.048v0.017c-0.03,0.048-0.077,0.093-0.108,0.155
		c0.077-0.031,0.094-0.094,0.108-0.155l0.03-0.062l0.062-0.046C57.792,13.325,57.809,13.309,57.809,13.278z M57.761,14.446
		c-0.017,0.017-0.017,0.048-0.017,0.077h0.017V14.446z M58.337,13.371c-0.218,0.218-0.514,0.653-0.514,0.982
		C57.933,14.009,58.197,13.714,58.337,13.371z M57.824,13.776v0.017c0-0.017,0-0.017,0-0.03V13.776z M57.886,13.637
		c0.017-0.015,0.017-0.03,0.017-0.062C57.886,13.605,57.886,13.621,57.886,13.637z M57.948,13.543h0.017
		c0.017-0.017,0.031-0.048,0.031-0.062C57.98,13.496,57.964,13.543,57.948,13.543z M58.119,14.553
		c0.561-0.062,1.384-0.981,1.384-1.54v-0.062C58.804,13.108,58.244,13.87,58.119,14.553z M58.353,13.356l0.062-0.03v-0.017
		l-0.017,0.017C58.368,13.325,58.368,13.34,58.353,13.356z M59.412,13.808c-0.017,0.015-0.017,0.046-0.017,0.062l-0.048,0.03
		l0.048-0.017v-0.015L59.412,13.808z M59.519,13.637l-0.03,0.062v0.017C59.505,13.683,59.519,13.666,59.519,13.637z M59.567,13.543
		c0.017,0,0.03-0.017,0.03-0.03h-0.03V13.543z M59.63,14.165c0.017-0.017,0.031-0.017,0.031-0.03L59.63,14.165z M59.661,13.808
		h0.017l0.017-0.048L59.661,13.808z M59.723,14.119c-0.017,0-0.03,0-0.046,0.017C59.691,14.134,59.707,14.134,59.723,14.119z
		 M59.723,14.104c0.155-0.155,0.249-0.358,0.312-0.561C59.972,13.652,59.723,14.009,59.723,14.104z"/>
	<path class="st10" d="M63.629,16.437c0-0.84,0.544-2.691,0.793-3.548c0.125-0.389,0.265-0.856,0.265-1.276
		c0-0.077-0.03-0.155-0.046-0.233c0.03-0.077,0.093-0.077,0.155-0.077c0.031,0,0.187,0.077,0.218,0.094
		c0.374,0.187,0.639,0.592,0.639,1.027c0,0.903-0.607,2.816-0.918,3.719l0.03,0.017c0.871-1.199,1.696-2.413,2.661-3.533
		c0.374-0.436,0.746-0.87,1.136-1.291c0.125-0.124,0.233-0.249,0.404-0.295c0.295,0.048,0.871,0.358,0.871,0.715
		c0,0.202-0.25,0.84-0.326,1.059c-0.42,1.088-1.54,4.247-1.54,5.291c0,0.155,0.048,0.295,0.187,0.374
		c0,0.093-0.062,0.155-0.155,0.155c-0.886,0-1.058-0.746-1.058-1.478c0-0.982,0.483-2.319,0.778-3.269
		c0.14-0.467,0.343-0.902,0.514-1.353c-0.048,0.031-0.093,0.048-0.14,0.094c-0.686,0.7-1.261,1.556-1.774,2.381
		c-0.326,0.529-1.12,1.868-1.526,2.225c-0.093,0.077-0.14,0.093-0.249,0.093C64.096,17.325,63.629,16.904,63.629,16.437z
		 M65.06,16.546c-0.015,0.017-0.03,0.03-0.03,0.062L65.06,16.546z M65.309,15.659c0.094-0.108,0.155-0.218,0.233-0.326
		C65.45,15.426,65.372,15.551,65.309,15.659z M65.481,15.985c0.015-0.046,0.048-0.076,0.062-0.108
		c-0.048,0.048-0.108,0.125-0.125,0.187L65.481,15.985z M65.497,15.784c0.017,0,0.017,0,0.017-0.017L65.497,15.784z M65.683,15.145
		c0.03-0.093,0.094-0.124,0.155-0.201c0.125-0.14,0.202-0.312,0.312-0.468c0.7-1.042,1.602-1.928,2.396-2.909l0.046-0.062
		l-0.03-0.03c-0.793,0.84-1.556,1.712-2.225,2.661c-0.25,0.358-0.529,0.7-0.717,1.088L65.683,15.145z M65.652,15.582v-0.015
		l-0.015,0.015H65.652z M65.948,15.27c-0.108,0.124-0.201,0.249-0.265,0.389C65.777,15.535,65.869,15.41,65.948,15.27z
		 M65.917,15.098h-0.048c0,0.015-0.015,0.046-0.03,0.062h0.077l0.017-0.048L65.917,15.098z M65.948,15.254
		c0.077-0.093,0.155-0.201,0.202-0.326C66.087,15.036,65.994,15.13,65.948,15.254z M65.978,14.959v0.048c0,0.017,0,0.03,0.017,0.048
		c0.015-0.017,0.015-0.048,0.015-0.062h0.062c-0.017-0.015-0.048-0.015-0.062-0.015L65.978,14.959z M65.978,15.363v0.03l0.017-0.015
		L65.978,15.363z M66.042,14.866v0.03c0,0,0.03,0.077,0.03,0.093v-0.093c0.015,0,0.03,0,0.046-0.017
		c-0.015,0-0.046-0.015-0.046-0.015L66.042,14.866L66.042,14.866z M66.118,14.757v0.048c0,0.015,0,0.046,0.017,0.062
		c0-0.048,0.017-0.077,0.062-0.077c-0.015-0.017-0.03-0.017-0.046-0.017L66.118,14.757z M66.181,14.664v0.03
		c0.015,0.031,0.015,0.062,0.015,0.094c0.017-0.03,0.017-0.062,0.017-0.094l0.03-0.015c-0.015,0-0.048-0.017-0.048-0.017
		S66.181,14.663,66.181,14.664z M66.259,14.803l0.015-0.062l-0.046,0.094L66.259,14.803z M66.99,13.822l0.062-0.093h0.03
		l0.077-0.077c0.017-0.048,0.155-0.233,0.202-0.265c0.03-0.094,0.404-0.544,0.496-0.592l-0.03-0.017v-0.062
		c-0.171,0.187-0.312,0.39-0.514,0.529c0.077-0.187,0.84-1.012,1.012-1.23c-0.778,0.778-1.463,1.633-2.085,2.537V14.6l0.017,0.062
		c0.14-0.218,0.249-0.358,0.419-0.559c-0.015,0.062-0.03,0.108-0.062,0.155l0.108-0.062h0.03c0.062-0.077,0.125-0.155,0.155-0.249
		l0.048-0.03c0.015-0.031,0.03-0.062,0.062-0.077L66.99,13.822z M66.384,14.601c0.03-0.03,0.062-0.048,0.094-0.062v-0.017
		c0.015-0.015,0.03-0.077,0.03-0.108L66.384,14.601z M66.492,14.539v0.03c0.017-0.017,0.017-0.03,0.017-0.048L66.492,14.539z
		 M67.737,17.091h0.015v-0.048h-0.015V17.091z M67.753,16.936l0.048,0.015c0.03-0.14,0.048-0.265,0.062-0.404L67.753,16.936z
		 M69.495,11.769c-0.653,1.306-1.276,3.314-1.633,4.746c0.03-0.03,0.048-0.062,0.062-0.093c0.264-0.7,0.419-1.449,0.668-2.147
		c0.295-0.84,0.653-1.65,0.949-2.49L69.495,11.769z M68.173,12.438c0.03-0.077,0.124-0.108,0.124-0.202l0.172-0.233l-0.607,0.669
		c0.048-0.031,0.077-0.062,0.14-0.062C68.064,12.546,68.095,12.484,68.173,12.438z M68.251,13.325l0.015-0.017h-0.015V13.325z
		 M68.361,13.03c0,0.015-0.017,0.015-0.017,0.03h0.017V13.03z M68.422,12.826l-0.048,0.108l0.048,0.017V12.826z M68.468,12.796
		c0.14-0.312,0.312-0.621,0.467-0.933v-0.077c-0.201,0.326-0.358,0.686-0.514,1.042L68.468,12.796z M68.888,12.578
		c0.077-0.171,0.172-0.343,0.233-0.514C69.013,12.22,68.951,12.392,68.888,12.578z M69.231,11.815l-0.015-0.017v0.063L69.231,11.815
		z"/>
	<path class="st10" d="M70.602,15.177c-0.062,0.125-0.048,0.39-0.048,0.514c0,0.155,0.048,0.746,0.265,0.746
		c0.326,0,0.575-0.218,0.684-0.496l0.017-0.017v0.048c0,0.14-0.125,0.249-0.172,0.374c0.172-0.077,0.202-0.233,0.295-0.374
		c0.017,0.03,0.031,0.062,0.031,0.077c0,0.108-0.094,0.171-0.108,0.265l0.108,0.015l-0.017,0.048l0.03,0.017v-0.017h0.048
		l-0.015-0.031h0.017l0.017-0.062h0.015l0.03-0.062v0.062c0.048-0.046,0.062-0.093,0.062-0.155l0.062-0.077
		c-0.03,0.451-0.451,0.746-0.887,0.746c-0.949,0-1.509-0.653-1.509-1.572c0-0.746,0.312-1.494,0.746-2.1
		c0.342-0.483,0.825-0.746,1.415-0.746c0.14,0,0.28,0.03,0.42,0.062l-0.312-0.575l0.125-0.031c0.621,0.202,1.043,0.715,1.043,1.401
		C72.967,14.367,71.629,15.177,70.602,15.177z M70.104,13.963c-0.015,0-0.015,0-0.015,0.017h0.015V13.963z M70.182,13.729
		l-0.048,0.077l0.031,0.015L70.182,13.729z M70.197,13.697l-0.017,0.017h0.017V13.697z M70.446,13.278l0.048-0.017
		C70.477,13.263,70.463,13.263,70.446,13.278l-0.077,0.124l-0.03,0.048v0.017c-0.03,0.048-0.077,0.093-0.108,0.155
		c0.077-0.031,0.093-0.094,0.108-0.155l0.03-0.062l0.062-0.046C70.43,13.325,70.446,13.309,70.446,13.278z M70.4,14.446
		c-0.015,0.017-0.015,0.048-0.015,0.077H70.4V14.446z M70.976,13.371c-0.218,0.218-0.514,0.653-0.514,0.982
		C70.571,14.009,70.834,13.714,70.976,13.371z M70.463,13.776v0.017c0-0.017,0-0.017,0-0.03V13.776z M70.525,13.637
		c0.015-0.015,0.015-0.03,0.015-0.062C70.525,13.605,70.525,13.621,70.525,13.637z M70.587,13.543h0.017
		c0.015-0.017,0.03-0.048,0.03-0.062C70.617,13.496,70.602,13.543,70.587,13.543z M70.758,14.553
		c0.559-0.062,1.384-0.981,1.384-1.54v-0.062C71.441,13.108,70.882,13.87,70.758,14.553z M70.991,13.356l0.062-0.03v-0.017
		l-0.017,0.017C71.007,13.325,71.007,13.34,70.991,13.356z M72.049,13.808c-0.017,0.015-0.017,0.046-0.017,0.062l-0.048,0.03
		l0.048-0.017v-0.015L72.049,13.808z M72.158,13.637l-0.031,0.062v0.017C72.142,13.683,72.158,13.666,72.158,13.637z M72.204,13.543
		c0.017,0,0.03-0.017,0.03-0.03h-0.03V13.543z M72.267,14.165c0.015-0.017,0.03-0.017,0.03-0.03L72.267,14.165z M72.298,13.808
		h0.015l0.017-0.048L72.298,13.808z M72.36,14.119c-0.017,0-0.03,0-0.048,0.017C72.329,14.134,72.345,14.134,72.36,14.119z
		 M72.36,14.104c0.155-0.155,0.249-0.358,0.312-0.561C72.609,13.652,72.36,14.009,72.36,14.104z"/>
	<path class="st10" d="M79.456,12.064c0,1.261-0.746,5.275-2.396,5.275c-0.062,0-0.108,0-0.155-0.017
		c-0.732-0.171-0.809-0.592-0.809-1.261c0-0.544,0.062-1.074,0.062-1.619c-0.419,0.607-0.857,1.23-1.338,1.79
		c-0.187,0.233-0.419,0.374-0.732,0.374c-0.483,0-1.058-0.39-1.058-0.919c0-0.653,0.684-2.257,0.903-2.972
		c0.062-0.187,0.076-0.389,0.076-0.575c0-0.077-0.046-0.202-0.062-0.279c0.048,0,0.108-0.017,0.155-0.017
		c0.187,0,0.467,0.233,0.607,0.358c0.233,0.233,0.327,0.436,0.327,0.762c0,0.746-0.39,1.415-0.592,2.117
		c-0.017,0.062-0.031,0.125-0.062,0.187v0.03c0.233-0.218,0.483-0.514,0.686-0.762c0.124-0.155,1.12-1.509,1.152-1.587l-0.172-0.219
		c0-0.108,0.094-0.108,0.172-0.108c0.482,0,0.918,0.45,0.981,0.903c0.048,0.295,0.048,0.592,0.048,0.887
		c0,0.404-0.03,0.825-0.094,1.23c-0.048,0.326-0.108,0.638-0.108,0.964v0.093c0.995-0.762,1.696-3.874,1.696-5.104
		c0-0.467-0.108-0.949-0.326-1.37c-0.048-0.077-0.077-0.155-0.108-0.233V9.948C79.253,10.166,79.456,11.239,79.456,12.064z
		 M74.399,14.134l-0.048-0.017c-0.155,0.467-0.312,0.934-0.483,1.385C74.041,15.333,74.291,14.414,74.399,14.134z M76.204,13.947
		h-0.017c-0.389,0.514-0.745,1.058-1.12,1.571C75.286,15.285,76.143,14.15,76.204,13.947z M75.333,14.834l0.015,0.015
		C75.349,14.834,75.349,14.834,75.333,14.834z M75.535,14.57c0.017-0.017,0.017-0.048,0.017-0.062
		C75.535,14.523,75.535,14.553,75.535,14.57z M75.612,14.134l0.048-0.062C75.644,14.088,75.612,14.104,75.612,14.134z
		 M75.705,14.352h0.017v-0.017L75.705,14.352z M76.064,14.4l-0.017,0.015h0.017V14.4z M76.22,13.325l-0.031-0.017
		c-0.015,0.048-0.062,0.077-0.062,0.125C76.143,13.388,76.188,13.356,76.22,13.325z M76.888,15.301h-0.03l-0.093,0.7
		c0,0.077,0,0.155-0.017,0.233h0.048l-0.03-0.233l0.046-0.03L76.888,15.301z M77.916,15.846L77.9,15.83v0.046L77.916,15.846z
		 M78.134,15.317c-0.031,0.046-0.048,0.093-0.062,0.14L78.134,15.317z M78.243,14.99c0.077-0.187,0.124-0.389,0.201-0.575
		l0.017-0.125C78.397,14.523,78.289,14.757,78.243,14.99z M79.145,12.997l-0.03,0.031c-0.187,1.011-0.467,2.007-0.857,2.972
		c0.172-0.187,0.436-1.088,0.529-1.37C78.958,14.104,79.098,13.558,79.145,12.997z M78.476,14.913h0.017
		c0-0.017,0-0.017-0.017-0.017V14.913z M78.554,13.963l0.03-0.124C78.569,13.884,78.554,13.916,78.554,13.963z M78.615,14.446h0.015
		v-0.063l0.03-0.017v-0.015l-0.046,0.03L78.615,14.446L78.615,14.446z M78.632,13.621l0.094-0.265l0.03-0.172
		c-0.03,0.017-0.048,0.031-0.048,0.062c0,0.03,0.017,0.077,0.017,0.108C78.632,13.418,78.647,13.527,78.632,13.621z M78.678,14.212
		v0.015c0.015,0,0.015,0,0.015-0.015H78.678z M78.74,13.06c0,0.03,0,0.062,0.017,0.093V13.06H78.74z M78.771,12.843
		c0.017,0.015,0.017,0.03,0.017,0.046h0.015l-0.015-0.046H78.771z M78.834,14.913l-0.017-0.017v0.017H78.834z M78.896,14.664
		l-0.017,0.017h0.017V14.664z M79.176,12.78h-0.03v0.172C79.16,12.889,79.176,12.843,79.176,12.78z M79.207,12.625v-0.077h-0.031
		c0.017,0.017,0.017,0.048,0.017,0.077H79.207z"/>
</g>
</svg>
