<?xml version="1.0" encoding="utf-8"?>
<!-- Generator: Adobe Illustrator 21.1.0, SVG Export Plug-In . SVG Version: 6.00 Build 0)  -->
<svg version="1.1" id="Layer_1" xmlns="http://www.w3.org/2000/svg" xmlns:xlink="http://www.w3.org/1999/xlink" x="0px" y="0px"
	 viewBox="0 0 70 20" style="enable-background:new 0 0 70 20;" xml:space="preserve">
<style type="text/css">
	.st0{fill:#3C4852;}
</style>
<g>
	<path class="st0" d="M15.072,4.4c0,2.389-0.457,4.338-1.169,6.593c-0.135,0.44-0.288,0.881-0.457,1.305
		c-0.356,0.898-1.203,2.22-1.932,2.864c-0.339,0.305-0.78,0.526-1.254,0.526c-0.61,0-1.118-0.305-1.491-0.763
		c-0.322-0.39-0.407-0.966-0.407-1.457c-0.474,0.61-1.881,2.288-2.678,2.288c-0.05,0.101-0.135,0.186-0.254,0.186
		c-0.712,0-1.254-0.847-1.254-1.491c0-0.611,0.17-1.712,0.356-2.305c0.56-1.83,1.457-3.474,2.407-5.118l0.017-0.101
		C6.531,7.112,5.921,7.349,5.463,7.349c-0.322,0-0.949-0.339-0.949-0.712c0-0.034,0-0.068,0.017-0.101
		C5.514,6.468,6.429,6.061,7.26,5.553c0.271-0.169,0.542-0.356,0.847-0.474C8.429,5.214,8.988,5.57,8.988,5.96
		c0,0.186-0.441,1.034-0.542,1.271c-1.254,2.678-2.373,5.016-2.949,7.965l0.051,0.034c0.051-0.05,0.119-0.084,0.186-0.119
		c0.847-0.525,2.356-2.406,2.847-3.304c0.118-0.22,0.186-0.441,0.271-0.678c0.305-0.881,0.576-1.813,1.22-2.525
		c0.119-0.118,0.305-0.288,0.475-0.288c0.101,0,0.22,0.085,0.322,0.119l0.034,0.101h0.068l0.085-0.034v0.085
		c0,0.101-0.407,0.796-0.492,0.966c-0.525,1.085-0.898,2.779-1.085,3.982v0.051c0,0.017,0.017,0.085,0.034,0.101
		c0.288-1.491,0.695-3.22,1.39-4.576l0.254-0.491l0.204,0.101c-0.051,0.441-0.305,0.882-0.441,1.305
		c-0.44,1.356-1.017,3.288-1.017,4.694c0,0.034,0.017,0.05,0.017,0.084c0.322-0.119,0.661-0.424,0.898-0.678
		c0.796-0.847,1.407-1.932,1.83-3.016c0.762-1.983,1.457-4.813,1.457-6.931c0-1.407-0.119-2.238-1.017-3.372
		c-0.068-0.085-0.271-0.339-0.271-0.424c0.39,0.101,0.644,0.305,0.932,0.576c0.339,0.322,0.661,0.678,0.865,1.101
		C14.954,2.791,15.072,3.604,15.072,4.4z M5.819,12.01h0.017v-0.017L5.819,12.01z M5.972,11.518l0.068-0.085l-0.034-0.017
		C5.988,11.45,5.972,11.484,5.972,11.518z M6.039,11.298l0.017,0.034c0-0.017,0-0.034,0.017-0.051L6.039,11.298z M6.497,10.281
		l0.508-1.085V9.162C6.768,9.501,6.649,9.908,6.497,10.281z M7.005,9.145C7.26,8.84,7.463,8.281,7.65,7.908
		c0.288-0.576,0.729-1.152,0.915-1.779L8.531,6.112C8.192,6.587,8.005,7.129,7.734,7.637c-0.237,0.458-0.525,0.916-0.711,1.39
		C7.005,9.061,7.005,9.111,7.005,9.145z M9.361,12.331H9.344c0,0.017,0,0.017,0.017,0.017V12.331z M9.446,12.044l-0.017-0.017v0.017
		H9.446z M9.446,11.891l0.017,0.017v-0.017H9.446z M9.479,13.823H9.463v0.068l0.017-0.017V13.823z M9.666,9.908L9.7,9.925
		c0.152-0.271,0.288-0.559,0.424-0.83C9.92,9.332,9.784,9.62,9.666,9.908z M10.276,9.501c-0.068,0.136-0.136,0.255-0.186,0.39
		c-0.034,0.034-0.017,0.068-0.017,0.102C10.107,9.841,10.192,9.671,10.276,9.501z M10.785,9.739l0.017-0.017V9.705
		C10.801,9.722,10.785,9.722,10.785,9.739z M10.937,9.417c0.017,0,0.017,0,0.017-0.017h-0.017V9.417z M10.971,9.332
		c0,0.017,0,0.017,0.017,0.017V9.332l-0.017-0.017V9.332z M10.988,9.264h0.017V9.247L10.988,9.264z M11.157,8.925
		c0,0.017,0,0.017,0.017,0.017V8.925H11.157z M14.377,7.959c-0.034,0.034-0.034,0.085-0.051,0.136
		c-0.44,1.796-0.949,3.626-1.881,5.236c-0.102,0.17-0.22,0.339-0.305,0.526c1.085-0.983,1.915-4.338,2.237-5.796V7.959z
		 M12.174,12.772c0.22-0.322,0.729-1.423,0.796-1.746l-0.017,0.017C12.937,11.179,12.293,12.569,12.174,12.772z M13.004,11.688
		c0,0.034-0.017,0.051-0.034,0.068c-0.017,0.034-0.05,0.136-0.068,0.152c0,0.034-0.017,0.068-0.034,0.102l0.068-0.085
		c0-0.068,0.051-0.102,0.051-0.152c0.017-0.017,0.017-0.085,0.034-0.136L13.004,11.688z M13.123,11.399l0.017-0.017v-0.017
		l-0.017,0.017V11.399z M13.14,12.569h-0.017l0.017,0.017V12.569z M13.157,10.399l0.034,0.051c0-0.017,0-0.034-0.017-0.051H13.157z
		 M13.174,12.501c0-0.017,0-0.017-0.017-0.017v0.017H13.174z M13.208,12.416l-0.017,0.017h0.017V12.416z M13.327,10.874
		c0.017-0.034,0.017-0.068,0.051-0.102l-0.034-0.017C13.327,10.789,13.327,10.84,13.327,10.874z M13.496,11.721h-0.017l0.017,0.017
		V11.721z M13.496,10.332l0.017-0.017h-0.017V10.332z M13.513,9.298h0.017l-0.017-0.017V9.298z M13.581,11.518l-0.017-0.017v0.017
		H13.581z M13.598,11.433h-0.017v0.017L13.598,11.433z M13.598,9.942h0.017l-0.017-0.017V9.942z M13.632,9.857h0.017V9.841h-0.017
		V9.857z M13.716,9.552h0.017V9.535L13.716,9.552z M14.445,7.705l-0.034-0.017c-0.017,0.051-0.034,0.102-0.034,0.152l0.034,0.017
		L14.445,7.705z M14.479,7.603l-0.034-0.034v0.034H14.479z M14.496,7.434l-0.017-0.017c-0.017,0.017-0.017,0.034-0.017,0.051
		L14.496,7.434z M14.513,7.264c-0.017,0.017-0.017,0.017-0.017,0.034l0.017,0.017V7.264z M14.547,7.146H14.53v0.034
		C14.53,7.163,14.53,7.163,14.547,7.146z M14.598,6.671h-0.017c0,0.017,0,0.017,0.017,0.034V6.671z"/>
	<path class="st0" d="M19.416,12.213c-0.254,1.39-0.626,2.814-0.626,4.237c0,0.22,0.017,0.441,0.084,0.661
		c0,0.017,0.017,0.034,0.017,0.051c0,0.034-0.017,0.068-0.017,0.101c-0.068,0.017-0.135,0.017-0.203,0.017
		c-0.475,0-0.949-0.389-1-0.864c-0.017-0.204-0.017-0.424-0.017-0.627c0-0.39,0-0.78,0.051-1.169
		c0.186-1.525,0.355-2.898,0.796-4.372l-0.034-0.034l-0.525,0.441c-0.306,0.271-0.661,0.779-0.865,1.135
		c-0.627,1.068-1.085,2.203-1.322,3.424c-0.017,0.101-0.034,0.186-0.068,0.288c-1.169-0.118-1.272-0.881-1.272-1.881
		c0-1.779,0.407-3.542,0.797-5.271c0.152-0.695,0.305-1.407,0.525-2.084c0.204-0.644,0.475-1.288,0.729-1.915
		c0.068-0.152,0.118-0.339,0.237-0.474c0.102,0.068,0.153,0.101,0.271,0.101c0.152,0,0.39,0.204,0.508,0.305
		s0.136,0.152,0.152,0.305v0.136c0,0.644-0.44,1.915-0.626,2.593c-0.237,0.915-0.475,1.813-0.695,2.728
		c-0.085,0.356-0.373,1.339-0.373,1.644c0,0.017,0.017,0.051,0.017,0.068c0.661-1.017,1.152-1.559,2.169-2.237
		c0.135-0.085,0.237-0.136,0.39-0.136c0.322,0,0.644,0.204,0.881,0.39c0.237,0.187,0.322,0.339,0.322,0.644
		C19.722,11.009,19.518,11.637,19.416,12.213z M15.214,9.925h-0.017v0.034h0.017V9.925z M15.265,9.687l-0.051,0.085l0.034,0.017
		C15.248,9.756,15.265,9.722,15.265,9.687z M15.281,9.586h-0.017v0.085C15.281,9.637,15.281,9.62,15.281,9.586z M15.299,9.434h0.034
		c-0.017-0.017-0.017-0.051-0.017-0.085C15.299,9.383,15.299,9.4,15.299,9.434z M15.332,13.128c0-0.034-0.017-0.051-0.017-0.085
		c-0.017,0.034-0.017,0.051-0.017,0.085H15.332z M15.366,12.671c-0.017,0.068-0.034,0.135-0.034,0.203h0.034V12.671z M15.366,12.654
		c0.17-0.525,0.271-1.39,0.39-1.966c0.373-1.763,0.881-3.508,1.339-5.254l-0.034,0.017c-0.237,0.762-0.491,1.508-0.695,2.271
		c-0.237,0.898-0.44,1.797-0.627,2.695C15.586,11.162,15.434,11.908,15.366,12.654z M15.417,8.942h0.017V8.875
		C15.417,8.891,15.417,8.925,15.417,8.942z M15.434,8.857c0.017-0.017,0.034-0.051,0.034-0.068l-0.034-0.017V8.857z M15.485,8.62
		l0.034,0.017c0-0.085,0.017-0.187,0.017-0.271l0.034-0.017c0.068-0.237,0.119-0.457,0.169-0.695
		c-0.101,0.22-0.152,0.475-0.203,0.712L15.485,8.62z M15.552,9.772v0.068h0.017V9.772H15.552z M15.671,9.298
		c0,0.034-0.017,0.068-0.017,0.101L15.62,9.518h0.034l0.05-0.204L15.671,9.298z M16.773,11.739c-0.39,0.39-0.983,1.881-1.102,2.44
		c-0.017,0.05,0,0.119-0.017,0.169c0.05-0.05,0.068-0.101,0.084-0.152c0.187-0.542,0.356-1.085,0.611-1.61l0.424-0.813V11.739z
		 M15.705,9.162c0,0.017,0,0.017,0.017,0.034V9.162H15.705z M15.705,13.433h0.017v-0.017L15.705,13.433z M15.739,9.027l0.034,0.017
		c-0.017-0.034-0.017-0.068-0.017-0.101C15.739,8.976,15.739,8.993,15.739,9.027z M15.79,12.586h0.034l0.152-0.322L15.79,12.586z
		 M15.875,8.501c0.085-0.101,0.373-1.356,0.406-1.576l0.034-0.102l0.017-0.068c-0.017,0.017-0.017,0.051-0.017,0.068
		c-0.017,0.034-0.034,0.068-0.034,0.102C16.129,7.451,15.976,7.976,15.875,8.501z M16.095,13.535l-0.017-0.017v0.017H16.095z
		 M16.095,6.265c0.017,0,0.017,0,0.034-0.017V6.231L16.095,6.265z M16.18,6.01h0.017V5.993L16.18,6.01z M16.231,13.128h-0.017
		l0.017,0.017V13.128z M16.349,12.06c0-0.017,0-0.017,0.017-0.034h-0.017V12.06z M16.366,6.654l0.017-0.051h-0.017V6.654z
		 M16.383,8.824L16.366,8.84h0.017V8.824z M16.4,6.502h0.017V6.468H16.4V6.502z M16.434,6.349h0.017V6.332L16.434,6.349z
		 M16.569,8.129h-0.017v0.034C16.552,8.145,16.552,8.145,16.569,8.129z M16.756,7.468h-0.017v0.017L16.756,7.468z M16.823,7.197
		h-0.017v0.017L16.823,7.197z M16.858,11.603c-0.017,0.034-0.051,0.068-0.051,0.101C16.823,11.67,16.858,11.637,16.858,11.603z
		 M16.858,7.078c-0.017,0-0.017,0-0.017,0.017h0.017V7.078z M17.095,5.417c0.051-0.102,0.102-0.204,0.102-0.322l-0.034-0.017
		C17.128,5.197,17.112,5.299,17.095,5.417z M17.213,4.96h0.017c0-0.017,0-0.051-0.017-0.068l0.051-0.068l-0.017-0.017
		c0,0.034-0.017,0.051-0.034,0.085V4.96z M18.62,14.382h-0.017v0.068l0.017-0.017V14.382z M18.688,13.873h-0.017
		c0,0.017,0.017,0.017,0.017,0.034V13.873z M18.772,13.331l-0.034,0.119h0.034V13.331z M19.298,10.789
		c-0.22,0.762-0.355,1.525-0.491,2.305c0.119-0.271,0.152-0.627,0.221-0.898C19.128,11.721,19.23,11.264,19.298,10.789z
		 M19.332,10.654h-0.034v0.084L19.332,10.654z"/>
	<path class="st0" d="M25.046,13.23c-0.373,0.881-1.203,2.389-1.949,2.983c-0.373-0.135-0.644-0.17-0.644-0.644
		c0-0.916,0.204-1.813,0.39-2.712l-0.576,0.593c-0.356,0.373-0.847,1.085-1.441,1.085c-0.424,0-1.051-0.39-1.051-0.864
		c0-1,1.067-2.814,1.881-3.39c0.339-0.237,0.763-0.475,1.187-0.475s0.78,0.237,1.085,0.526c0.034,0.034,0.068,0.085,0.068,0.135
		c0,0.034-0.017,0.068-0.034,0.102l-0.491-0.136c-1.221,0.424-1.83,1.797-2.322,2.898l0.034,0.034l0.271-0.204l1.627-1.458
		c0.305-0.271,0.356-0.626,0.745-0.779l0.017,0.169l-0.051,0.017c-0.034,0.068,0,0.05-0.068,0.119l0.051-0.017l0.017-0.085
		l0.051-0.034c0.017-0.034,0.051-0.068,0.101-0.068c0.034,0,0.068,0.034,0.085,0.051l-0.017,0.119l0.068-0.034v-0.017l0.085,0.034
		c-0.136,0.424-0.288,0.831-0.441,1.237l-0.017,0.017c0.017,0,0.017,0,0.017-0.017c0.017-0.017,0.051-0.034,0.051-0.068
		c0.169-0.373,0.305-0.762,0.491-1.118c0.085,0.017,0.152,0.068,0.152,0.152c0,0.119-0.051,0.237-0.085,0.339
		c-0.22,0.61-0.966,2.712-0.966,3.254c0.221-0.135,0.39-0.373,0.56-0.56h0.034c-0.22,0.322-0.525,0.593-0.678,0.949h-0.017v0.017
		c0.017,0,0.017,0,0.017-0.017c0.306-0.305,0.577-0.678,0.848-1.017c0.068-0.085,0.135-0.22,0.22-0.305l0.085-0.085
		c-0.356,0.61-0.916,1.169-1.221,1.797l0.542-0.627l-0.152,0.288l0.119-0.085l0.017,0.068c0.017-0.085,0.101-0.186,0.152-0.271
		h0.017v-0.017l-0.017,0.017H23.86c0.05-0.135,0.068-0.22,0.186-0.305v0.068l0.034-0.068l0.051-0.034l0.034-0.068
		c0.034-0.136,0.169-0.237,0.22-0.373c0.034-0.085,0.101-0.169,0.152-0.254H24.52l0.034-0.068h-0.017l0.101-0.186l0.017,0.068
		c0.017-0.085,0.068-0.152,0.101-0.221h-0.017l0.05-0.034c0.034-0.051,0.051-0.101,0.068-0.152v0.017
		C24.91,13.416,24.978,13.331,25.046,13.23z M20.335,12.687c0,0.017-0.017,0.034-0.017,0.051h0.017V12.687z M20.436,12.484
		c0.22-0.373,0.424-0.78,0.661-1.135c0.051-0.068,0.204-0.255,0.204-0.339l-0.034,0.068c-0.237,0.237-0.763,1.152-0.882,1.474
		c-0.017,0.017-0.034,0.05-0.034,0.084l0.034-0.084C20.402,12.535,20.436,12.518,20.436,12.484z M20.606,12.823l0.05-0.119
		c-0.034,0.017-0.034,0.084-0.068,0.119H20.606z M20.639,13.62c-0.017,0.017-0.017,0.051-0.017,0.068h0.017V13.62z M22.046,11.044
		c-0.44,0.27-1.085,1.474-1.254,1.966c-0.068,0.186-0.102,0.39-0.152,0.576c0.034-0.034,0.05-0.068,0.068-0.119
		C21.029,12.62,21.47,11.739,22.046,11.044z M20.707,12.552c0.17-0.322,0.373-0.611,0.56-0.916v-0.034
		C21.046,11.908,20.86,12.196,20.707,12.552z M21.351,10.959l0.051-0.034h-0.017L21.351,10.959z M21.436,11.365h0.034v-0.017
		C21.453,11.365,21.453,11.365,21.436,11.365z M21.521,11.247h0.017V11.23C21.521,11.23,21.521,11.23,21.521,11.247z M23.215,14.263
		h0.017v-0.034h-0.017V14.263z M23.283,15.856c-0.017,0-0.034,0.017-0.034,0.034L23.283,15.856z M23.283,13.924l0.017,0.034v-0.05
		L23.283,13.924z M23.419,15.687L23.3,15.84C23.351,15.789,23.419,15.771,23.419,15.687z M23.368,13.637h0.017v-0.085
		C23.368,13.586,23.368,13.602,23.368,13.637z M23.385,13.484l0.034-0.068h-0.017L23.385,13.484z M23.419,13.399
		c0.085-0.102,0.101-0.221,0.119-0.339C23.486,13.179,23.452,13.281,23.419,13.399z M23.452,15.738
		c-0.017,0-0.017,0.017-0.034,0.017C23.436,15.755,23.452,15.755,23.452,15.738z M23.52,15.619c0-0.034,0.017-0.068,0.017-0.101
		l-0.101,0.152L23.52,15.619z M23.52,11.586l0.136-0.255C23.605,11.383,23.537,11.501,23.52,11.586z M23.554,15.585l-0.017,0.017
		C23.554,15.602,23.554,15.602,23.554,15.585z M23.571,12.925c-0.017,0.017-0.017,0.034-0.017,0.051L23.571,12.925z M23.622,15.569
		c-0.017,0-0.017,0.017-0.034,0.017h0.034V15.569z M23.622,12.755c-0.017,0.017-0.017,0.051-0.017,0.085l0.017-0.034V12.755z
		 M23.741,15.416h-0.017l-0.051,0.034h0.017L23.741,15.416z M23.791,11.552c0,0,0.017,0.034,0.017,0.051l0.068-0.135
		C23.825,11.484,23.791,11.501,23.791,11.552z M23.876,11.45c0.017-0.034,0.017-0.051,0.017-0.085
		C23.876,11.399,23.876,11.416,23.876,11.45z M24.046,14.908c-0.017,0.017-0.017,0.05-0.017,0.068
		C24.046,14.958,24.046,14.924,24.046,14.908z"/>
	<path class="st0" d="M30.64,7.671c-0.39,0.474-1.898,0.61-2.508,0.711c-0.61,1.983-0.966,4.033-1.305,6.084
		c-0.17,1.085-0.305,2.203-0.305,3.305c0,0.44,0.068,0.898,0.169,1.322c0.017,0.05,0.017,0.085,0.017,0.135
		c0,0.152-0.221,0.204-0.339,0.204c-0.05,0-0.068-0.051-0.084-0.085L26.183,19.5c-0.203-0.101-0.424-0.152-0.627-0.254
		c-0.626-0.322-0.626-1.474-0.626-2.068c0-1.779,0.237-3.593,0.508-5.355c0.068-0.406,0.101-0.83,0.186-1.237
		c0.084-0.474,0.203-0.949,0.271-1.423c0.017-0.119,0.068-0.22,0.068-0.339c0-0.085-0.152-0.085-0.204-0.085
		c-0.169,0-0.356,0.017-0.525,0.017l0.017-0.017c-0.169-0.051-0.39-0.22-0.508-0.373l0.017-0.102l-0.152-0.085
		c0.034-0.169,0.068-0.22,0.237-0.271c0.373-0.101,0.762-0.135,1.136-0.22c0.373-0.491,0.711-1,0.949-1.576
		c0.186-0.441,0.457-0.865,0.695-1.271c0.068-0.119,0.136-0.221,0.288-0.221l0.203,0.102l-0.119,0.271
		c0.102-0.102,0.17-0.204,0.255-0.305l0.068,0.101l0.136-0.017L28.37,5.01l0.135-0.119l0.187,0.068v0.169l0.135-0.034
		c0.101,0.085,0.271,0.17,0.271,0.322c0,0.068-0.61,1.813-0.61,1.813c0.119-0.017,0.254,0,0.373-0.034
		c0.288-0.068,0.576-0.068,0.881-0.068c0.356,0,0.441,0.068,0.661,0.355C30.403,7.62,30.539,7.654,30.64,7.671z M25.404,15.416
		h-0.017v0.22h0.017V15.416z M25.472,14.704h-0.017v0.204h0.017V14.704z M25.709,13.026l-0.05-0.017l-0.17,1.406h0.034
		C25.573,13.958,25.641,13.484,25.709,13.026z M26.523,8.654c-0.237,0.373-0.797,3.593-0.797,4.135v0.085
		C25.963,11.468,26.167,10.043,26.523,8.654z M25.76,16.128v-0.169h-0.017v0.169H25.76z M25.76,15.704h0.017V15.67H25.76V15.704z
		 M25.827,15.026h-0.017l-0.017,0.322h0.017L25.827,15.026z M25.878,14.619h-0.017c0,0.085-0.017,0.152-0.017,0.237h0.034V14.619z
		 M25.912,14.332v0.084c0.152-0.982,0.288-1.966,0.475-2.932c0.186-0.982,0.406-1.949,0.61-2.932
		C26.692,8.942,25.912,13.637,25.912,14.332z M27.539,8.485l-0.152,0.017c-0.424,1.39-0.678,2.847-0.915,4.271
		c-0.221,1.457-0.457,2.949-0.457,4.423c0,0.254,0,0.525,0.034,0.78C26.183,14.772,26.726,11.586,27.539,8.485z M26.268,7.603v0.034
		l0.068-0.101C26.302,7.535,26.268,7.569,26.268,7.603z M26.37,16.263h-0.017v0.05h0.017V16.263z M26.421,15.806v-0.085
		c-0.017,0.017-0.017,0.05-0.017,0.085H26.421z M26.488,15.246v-0.051h-0.017v0.051H26.488z M26.539,14.789h-0.017v0.068h0.017
		V14.789z M26.59,14.433h-0.017v0.068L26.59,14.433z M26.641,14.179c-0.017-0.017-0.017-0.051-0.017-0.068h-0.017
		c0,0.017,0,0.051,0.017,0.068H26.641z M26.675,13.772h-0.017v0.119h0.017V13.772z M26.726,13.484h-0.017v0.068h0.017V13.484z
		 M26.743,10.484v0.051h0.017v-0.051H26.743z M26.777,13.281v-0.136h-0.017v0.136H26.777z M26.793,10.264
		c0,0.034,0,0.05-0.017,0.084h0.017l0.017-0.084H26.793z M26.828,12.992v-0.101h-0.034v0.101H26.828z M26.828,10.128h0.017v-0.034
		L26.828,10.128z M26.878,12.721c0-0.034,0-0.05-0.017-0.085h-0.017v0.085H26.878z M26.878,9.874v0.05h0.017v-0.05H26.878z
		 M26.912,12.433v-0.068h-0.017v0.068H26.912z M26.963,12.23v-0.119h-0.017l-0.017,0.119H26.963z M26.98,9.501l-0.034,0.051h0.034
		V9.501z M26.963,7.264l0.017-0.017C26.963,7.248,26.963,7.248,26.963,7.264z M27.014,11.975c0-0.034,0-0.068-0.017-0.101H26.98
		v0.101H27.014z M26.997,9.349l0.017,0.017l0.034-0.068L26.997,9.349z M27.048,11.62h-0.017v0.135h0.017V11.62z M27.099,11.518
		v-0.119h-0.017l-0.017,0.102C27.082,11.518,27.082,11.518,27.099,11.518z M27.082,9.095l0.034-0.085l-0.034-0.017V9.095z
		 M27.133,11.179h-0.017v0.119h0.017V11.179z M27.133,8.84v0.034c0.017-0.017,0.017-0.017,0.017-0.034H27.133z M27.183,11.06v-0.101
		h-0.017v0.101H27.183z M27.234,10.756L27.2,10.84l0.034,0.017V10.756z M27.302,10.552c-0.034,0-0.068,0.034-0.068,0.068
		c0,0.034,0.017,0.051,0.017,0.085L27.302,10.552z M27.285,10.451c0,0.034,0.017,0.051,0.017,0.085l0.051-0.17
		C27.319,10.383,27.285,10.399,27.285,10.451z M27.336,7.434c0.136-0.136,0.153-0.322,0.187-0.492
		C27.387,7.078,27.37,7.264,27.336,7.434z M27.353,10.348c0-0.05,0.017-0.101,0.017-0.152h-0.034
		C27.336,10.247,27.336,10.298,27.353,10.348z M27.404,10.095V10.01c-0.017,0.034-0.034,0.051-0.034,0.085H27.404z M27.42,9.908
		c-0.017,0.017-0.017,0.034-0.017,0.051l0.017-0.017V9.908z M27.454,9.79l0.017-0.051C27.454,9.756,27.454,9.772,27.454,9.79z
		 M27.505,9.586l-0.017,0.017c0,0.05-0.017,0.084-0.017,0.135l0.034-0.135V9.586z M27.59,9.315c-0.085,0.068-0.085,0.17-0.085,0.271
		C27.539,9.501,27.573,9.4,27.59,9.315z M27.539,6.908c-0.017,0.017-0.017,0.017-0.017,0.034
		C27.522,6.926,27.539,6.926,27.539,6.908z M27.675,9.01c-0.051,0.051-0.085,0.119-0.085,0.186c0,0.034,0,0.068,0.017,0.102
		C27.624,9.196,27.641,9.111,27.675,9.01z M27.59,9.315h0.017V9.298L27.59,9.315z M27.624,5.688
		c0.017-0.017,0.017-0.017,0.017-0.034C27.641,5.671,27.624,5.671,27.624,5.688z M27.675,5.536l-0.034,0.085
		C27.658,5.604,27.675,5.57,27.675,5.536z M27.709,5.468l-0.034,0.068C27.692,5.519,27.709,5.485,27.709,5.468z M27.675,8.942
		l0.05-0.119V8.756C27.692,8.824,27.692,8.875,27.675,8.942z M27.81,8.519V8.45l-0.068,0.187C27.794,8.62,27.81,8.569,27.81,8.519z
		 M28.42,5.891c-0.05,0.085-0.118,0.153-0.169,0.221c-0.085,0.152-0.475,1.118-0.475,1.254h0.034c0.085,0,0.119-0.068,0.136-0.135
		C28.115,6.79,28.251,6.349,28.42,5.891z M27.878,5.231c-0.017,0.017-0.034,0.05-0.034,0.068
		C27.861,5.281,27.878,5.248,27.878,5.231z M27.861,6.045l0.051-0.034h-0.051V6.045z M27.963,5.044
		c-0.034,0.068-0.068,0.119-0.085,0.187l0.085-0.152V5.044z"/>
	<path class="st0" d="M42.863,4.4c0,2.389-0.457,4.338-1.169,6.593c-0.135,0.44-0.288,0.881-0.457,1.305
		c-0.356,0.898-1.203,2.22-1.932,2.864c-0.339,0.305-0.78,0.526-1.254,0.526c-0.61,0-1.118-0.305-1.491-0.763
		c-0.322-0.39-0.407-0.966-0.407-1.457c-0.475,0.61-1.881,2.288-2.678,2.288c-0.05,0.101-0.135,0.186-0.254,0.186
		c-0.712,0-1.254-0.847-1.254-1.491c0-0.611,0.17-1.712,0.356-2.305c0.56-1.83,1.458-3.474,2.407-5.118l0.017-0.101
		c-0.424,0.186-1.034,0.424-1.492,0.424c-0.322,0-0.949-0.339-0.949-0.712c0-0.034,0-0.068,0.017-0.101
		c0.983-0.068,1.898-0.475,2.729-0.983c0.271-0.169,0.542-0.356,0.847-0.474c0.322,0.135,0.881,0.491,0.881,0.881
		c0,0.186-0.441,1.034-0.542,1.271c-1.254,2.678-2.373,5.016-2.949,7.965l0.051,0.034c0.051-0.05,0.119-0.084,0.186-0.119
		c0.847-0.525,2.356-2.406,2.847-3.304c0.119-0.22,0.186-0.441,0.271-0.678c0.305-0.881,0.576-1.813,1.22-2.525
		c0.119-0.118,0.305-0.288,0.475-0.288c0.101,0,0.22,0.085,0.322,0.119l0.034,0.101h0.068l0.085-0.034v0.085
		c0,0.101-0.407,0.796-0.492,0.966c-0.525,1.085-0.898,2.779-1.085,3.982v0.051c0,0.017,0.017,0.085,0.034,0.101
		c0.288-1.491,0.695-3.22,1.39-4.576l0.254-0.491l0.204,0.101c-0.051,0.441-0.305,0.882-0.441,1.305
		c-0.44,1.356-1.017,3.288-1.017,4.694c0,0.034,0.017,0.05,0.017,0.084c0.322-0.119,0.661-0.424,0.898-0.678
		c0.796-0.847,1.406-1.932,1.83-3.016c0.762-1.983,1.457-4.813,1.457-6.931c0-1.407-0.119-2.238-1.017-3.372
		c-0.068-0.085-0.271-0.339-0.271-0.424c0.39,0.101,0.644,0.305,0.932,0.576c0.339,0.322,0.661,0.678,0.865,1.101
		C42.744,2.791,42.863,3.604,42.863,4.4z M33.61,12.01h0.017v-0.017L33.61,12.01z M33.762,11.518l0.068-0.085l-0.034-0.017
		C33.78,11.45,33.762,11.484,33.762,11.518z M33.83,11.298l0.017,0.034c0-0.017,0-0.034,0.017-0.051L33.83,11.298z M34.287,10.281
		l0.508-1.085V9.162C34.559,9.501,34.44,9.908,34.287,10.281z M34.796,9.145c0.255-0.305,0.457-0.864,0.644-1.237
		c0.288-0.576,0.729-1.152,0.915-1.779l-0.034-0.017c-0.339,0.475-0.526,1.017-0.797,1.525C35.288,8.095,35,8.552,34.813,9.027
		C34.796,9.061,34.796,9.111,34.796,9.145z M37.151,12.331h-0.017c0,0.017,0,0.017,0.017,0.017V12.331z M37.236,12.044l-0.017-0.017
		v0.017H37.236z M37.236,11.891l0.017,0.017v-0.017H37.236z M37.27,13.823h-0.017v0.068l0.017-0.017V13.823z M37.457,9.908
		l0.034,0.017c0.152-0.271,0.288-0.559,0.424-0.83C37.711,9.332,37.576,9.62,37.457,9.908z M38.067,9.501
		c-0.068,0.136-0.136,0.255-0.186,0.39c-0.035,0.034-0.017,0.068-0.017,0.102C37.897,9.841,37.982,9.671,38.067,9.501z
		 M38.576,9.739l0.017-0.017V9.705C38.592,9.722,38.576,9.722,38.576,9.739z M38.728,9.417c0.017,0,0.017,0,0.017-0.017h-0.017
		V9.417z M38.762,9.332c0,0.017,0,0.017,0.017,0.017V9.332l-0.017-0.017V9.332z M38.778,9.264h0.017V9.247L38.778,9.264z
		 M38.948,8.925c0,0.017,0,0.017,0.017,0.017V8.925H38.948z M42.168,7.959c-0.034,0.034-0.034,0.085-0.051,0.136
		c-0.44,1.796-0.949,3.626-1.881,5.236c-0.102,0.17-0.221,0.339-0.305,0.526c1.085-0.983,1.915-4.338,2.237-5.796V7.959z
		 M39.965,12.772c0.22-0.322,0.729-1.423,0.796-1.746l-0.017,0.017C40.728,11.179,40.084,12.569,39.965,12.772z M40.795,11.688
		c0,0.034-0.017,0.051-0.034,0.068c-0.017,0.034-0.05,0.136-0.068,0.152c0,0.034-0.017,0.068-0.034,0.102l0.068-0.085
		c0-0.068,0.051-0.102,0.051-0.152c0.017-0.017,0.017-0.085,0.034-0.136L40.795,11.688z M40.914,11.399l0.017-0.017v-0.017
		l-0.017,0.017V11.399z M40.931,12.569h-0.017l0.017,0.017V12.569z M40.948,10.399l0.034,0.051c0-0.017,0-0.034-0.017-0.051H40.948z
		 M40.965,12.501c0-0.017,0-0.017-0.017-0.017v0.017H40.965z M40.999,12.416l-0.017,0.017h0.017V12.416z M41.117,10.874
		c0.017-0.034,0.017-0.068,0.051-0.102l-0.034-0.017C41.117,10.789,41.117,10.84,41.117,10.874z M41.287,11.721H41.27l0.017,0.017
		V11.721z M41.287,10.332l0.017-0.017h-0.017V10.332z M41.304,9.298h0.017l-0.017-0.017V9.298z M41.372,11.518l-0.017-0.017v0.017
		H41.372z M41.389,11.433h-0.017v0.017L41.389,11.433z M41.389,9.942h0.017l-0.017-0.017V9.942z M41.422,9.857h0.017V9.841h-0.017
		V9.857z M41.507,9.552h0.017V9.535L41.507,9.552z M42.236,7.705l-0.034-0.017c-0.017,0.051-0.034,0.102-0.034,0.152l0.034,0.017
		L42.236,7.705z M42.27,7.603l-0.034-0.034v0.034H42.27z M42.287,7.434L42.27,7.417c-0.017,0.017-0.017,0.034-0.017,0.051
		L42.287,7.434z M42.303,7.264c-0.017,0.017-0.017,0.017-0.017,0.034l0.017,0.017V7.264z M42.338,7.146h-0.017v0.034
		C42.321,7.163,42.321,7.163,42.338,7.146z M42.388,6.671h-0.017c0,0.017,0,0.017,0.017,0.034V6.671z"/>
	<path class="st0" d="M42.818,13.382c-0.068,0.136-0.051,0.424-0.051,0.56c0,0.169,0.051,0.813,0.288,0.813
		c0.355,0,0.626-0.237,0.745-0.542l0.017-0.017v0.051c0,0.152-0.136,0.271-0.186,0.406c0.186-0.085,0.22-0.254,0.322-0.406
		c0.017,0.034,0.034,0.068,0.034,0.085c0,0.119-0.101,0.186-0.118,0.288l0.118,0.017l-0.017,0.05l0.034,0.017v-0.017h0.051
		l-0.017-0.034h0.017l0.017-0.068h0.017l0.034-0.068v0.068c0.051-0.051,0.068-0.101,0.068-0.17l0.068-0.084
		c-0.035,0.491-0.492,0.813-0.967,0.813c-1.034,0-1.643-0.712-1.643-1.712c0-0.813,0.339-1.627,0.813-2.288
		c0.373-0.526,0.898-0.813,1.542-0.813c0.152,0,0.305,0.034,0.457,0.068l-0.339-0.627l0.136-0.034
		c0.678,0.221,1.135,0.78,1.135,1.525C45.394,12.501,43.937,13.382,42.818,13.382z M42.276,12.06c-0.017,0-0.017,0-0.017,0.017
		h0.017V12.06z M42.36,11.806l-0.05,0.085l0.034,0.017L42.36,11.806z M42.377,11.773l-0.017,0.017h0.017V11.773z M42.648,11.314
		l0.051-0.017C42.682,11.298,42.666,11.298,42.648,11.314l-0.085,0.136l-0.034,0.051v0.017c-0.034,0.051-0.085,0.102-0.119,0.17
		c0.085-0.034,0.102-0.101,0.119-0.17l0.034-0.068l0.068-0.051C42.632,11.365,42.648,11.349,42.648,11.314z M42.597,12.586
		c-0.017,0.017-0.017,0.05-0.017,0.085h0.017V12.586z M43.224,11.416c-0.237,0.237-0.559,0.712-0.559,1.067
		C42.784,12.111,43.072,11.789,43.224,11.416z M42.666,11.857v0.017c0-0.017,0-0.017,0-0.034V11.857z M42.733,11.704
		c0.017-0.017,0.017-0.034,0.017-0.068C42.733,11.67,42.733,11.688,42.733,11.704z M42.801,11.603h0.017
		c0.017-0.017,0.034-0.051,0.034-0.068C42.835,11.552,42.818,11.603,42.801,11.603z M42.987,12.705
		c0.611-0.068,1.508-1.068,1.508-1.678v-0.068C43.733,11.128,43.123,11.959,42.987,12.705z M43.242,11.399l0.068-0.034v-0.017
		l-0.017,0.017C43.258,11.365,43.258,11.383,43.242,11.399z M44.394,11.891c-0.017,0.017-0.017,0.05-0.017,0.068l-0.05,0.034
		l0.05-0.017v-0.017L44.394,11.891z M44.513,11.704l-0.034,0.068v0.017C44.495,11.755,44.513,11.739,44.513,11.704z M44.564,11.603
		c0.017,0,0.034-0.017,0.034-0.034h-0.034V11.603z M44.631,12.281c0.017-0.017,0.034-0.017,0.034-0.034L44.631,12.281z
		 M44.665,11.891h0.017l0.017-0.051L44.665,11.891z M44.733,12.23c-0.017,0-0.034,0-0.05,0.017
		C44.699,12.247,44.716,12.247,44.733,12.23z M44.733,12.213c0.17-0.169,0.271-0.39,0.339-0.61
		C45.004,11.721,44.733,12.111,44.733,12.213z"/>
	<path class="st0" d="M54.295,10.399c0.796,0,1.423,0.068,1.966,0.712c0.119,0.135,0.508,0.644,0.508,0.796
		c0,0.068-0.034,0.136-0.068,0.204c-0.254,0.034-0.526-0.288-0.695-0.441c-0.204-0.169-0.441-0.186-0.695-0.186
		c-0.661,0-1.915,0.255-2.458,0.627c-0.034,0-0.068,0.034-0.085,0.051v0.22c0,0.288,0.017,0.678,0.17,0.932
		c0.068,0.119,0.322,0.39,0.322,0.508c0,0.068-0.085,0.135-0.152,0.135c0,0-0.034-0.017-0.051-0.017
		c-0.695-0.204-0.746-0.339-1.152-0.916c-0.186,0.255-0.237,0.593-0.237,0.898c0,0.101,0.017,0.237,0.051,0.322
		c0.152,0.339,1.034,0.44,1.356,0.44c0.61,0,1.254-0.186,1.796-0.44c1.779-0.847,3.101-2.271,3.695-4.152
		c0.152-0.491,0.254-1.017,0.254-1.542c0-0.847-0.169-1.678-0.627-2.407c-0.61-1-1.948-1.728-3.084-1.882
		c-0.271-0.034-0.56-0.084-0.847-0.084c-0.56,0-1.136,0.084-1.678,0.203c-1.237,0.255-2.762,1.39-2.762,2.763
		c0,0.508,0.322,0.729,0.593,1.102c-0.017,0.034-0.05,0.068-0.085,0.068c-0.034,0-0.05,0-0.084-0.017
		c-0.729-0.254-1.254-1.067-1.254-1.83c0-0.17,0.034-0.339,0.085-0.508c0.186-0.611,0.627-1.203,1.101-1.627
		c0.983-0.881,2.509-1.203,3.796-1.203c1.915,0,3.932,1.22,4.915,2.83c0.593,0.966,1.085,2.118,1.085,3.27
		c0,1.169-0.186,1.746-0.576,2.83c-0.169,0.441-0.474,0.865-0.745,1.237c-0.797,1.085-2.542,2.339-3.864,2.559
		c-0.305,0.051-0.626,0.085-0.949,0.085c-0.475,0-0.949-0.135-1.39-0.288c-0.661-0.237-1.153-0.678-1.525-1.271
		c-0.254-0.406-0.457-0.847-0.457-1.322c0-1.034,1.017-1.711,1.017-1.881v-0.186c0-0.813,0.508-1.949,0.78-2.729
		c0.152-0.44,0.44-1.322,0.44-1.746c0-0.61-0.457-0.729-0.457-1.135c0-0.051,0.068-0.119,0.119-0.119c0.119,0,0.17,0,0.271,0.068
		c0.678,0.424,1.136,1.661,1.136,2.423c0,0.983-0.356,1.848-0.593,2.78C53.549,10.467,53.922,10.399,54.295,10.399z M49.872,5.044
		l-0.017,0.017c0.017,0,0.017-0.017,0.034-0.017H49.872z M49.956,4.925c0.017-0.017,0.017-0.034,0.034-0.034
		C49.974,4.892,49.974,4.909,49.956,4.925z M50.753,4.231c-0.22,0.102-0.593,0.373-0.711,0.576c-0.017,0.017,0,0.034-0.017,0.051
		L50.753,4.231z M50.058,5.621c0.237-0.288,0.526-0.577,0.813-0.797c0.085-0.068,0.322-0.186,0.373-0.288
		c-0.542,0.355-0.881,0.457-1.221,1.101L50.058,5.621z M50.194,5.028c0.034-0.017,0.068-0.017,0.085-0.051
		c0.169-0.135,0.339-0.271,0.491-0.424c-0.101,0-0.491,0.373-0.593,0.475H50.194z M51.516,11.721
		c-0.017-0.017-0.017-0.017-0.034-0.017l-0.221,0.255l0.017,0.017L51.516,11.721z M51.516,12.23l0.017,0.017l0.051-0.084
		l-0.051-0.017v0.085H51.516z M51.567,12.772v-0.017c-0.017,0-0.017,0-0.017,0.017H51.567z M51.668,12.535
		c-0.034,0.068-0.068,0.119-0.085,0.186c0.068-0.034,0.101-0.119,0.101-0.186H51.668z M55.939,14.958l0.05-0.034
		c-0.034,0.017-0.068,0.017-0.101,0.017C55.905,14.958,55.922,14.958,55.939,14.958z M57.43,12.823
		c-0.204,0.22-0.424,0.406-0.644,0.593c-0.288,0.237-0.611,0.424-0.847,0.712C56.498,13.789,57.074,13.366,57.43,12.823z
		 M57.99,13.23c-0.508,0.593-1.136,1.068-1.763,1.508c-0.034,0.017-0.051,0.051-0.068,0.085c0.949-0.457,1.779-1.186,2.304-2.102
		C58.345,12.755,58.074,13.128,57.99,13.23z M56.329,14.247l0.034,0.017c0.034,0,0.05-0.034,0.05-0.05L56.329,14.247z
		 M56.532,14.162c0.475-0.339,0.797-0.61,1.153-1.085c-0.373,0.22-0.831,0.78-1.187,1.085H56.532z M57.396,14.247
		c-0.068,0.068-0.136,0.101-0.204,0.169c0.085-0.034,0.136-0.084,0.204-0.152V14.247z M57.566,14.094l-0.085,0.085l0.068-0.034
		l0.034-0.05H57.566z M57.6,14.077c0.135-0.051,0.356-0.271,0.424-0.406L57.6,14.077z M57.82,12.941l-0.017-0.017
		c-0.017,0.017-0.017,0.051-0.017,0.068L57.82,12.941z"/>
	<path class="st0" d="M61.434,10.874c0.407-0.526,1.051-1.508,1.797-1.508c0.729,0,1.594,0.898,1.594,1.627
		c0,1.372-1.085,2.965-2.051,3.864c-0.288,0.271-0.56,0.491-0.966,0.56c-0.119,0.017-0.237,0.034-0.356,0.034
		c-1.068,0-1.848-0.882-1.848-1.932v-0.204c0-0.695,0.712-2.576,1.525-2.576L61.434,10.874z M60.825,11.128
		c-0.135,0.068-0.203,0.186-0.27,0.305L60.825,11.128z M60.673,12.382v0.034c0.017,0,0.017-0.017,0.033-0.034H60.673z
		 M63.841,10.789c0.018-0.119,0.051-0.22,0.051-0.339c0-0.068-0.017-0.152-0.051-0.221c-0.559,0-1.728,1.407-1.728,1.949
		c0,0.17,0.101,0.305,0.237,0.407c-0.034,0.05-0.102,0.101-0.17,0.101c-0.475,0-0.695-0.373-0.949-0.695
		c-0.254,0.627-0.491,1.271-0.491,1.949c0,0.237,0.017,0.474,0.084,0.711C62.367,14.229,63.571,12.298,63.841,10.789z
		 M61.232,11.349c-0.221,0.22-0.356,0.508-0.458,0.796c0.086-0.119,0.424-0.644,0.442-0.762L61.232,11.349z M60.842,11.501
		c0.068-0.051,0.135-0.152,0.152-0.237L60.842,11.501z M61.876,10.756c0.051-0.136,0.61-0.695,0.762-0.831h-0.033
		c-0.305,0.255-0.559,0.542-0.78,0.865L61.876,10.756z M63.028,10.281v-0.017h-0.017c-0.018,0-0.018,0.017-0.034,0.017
		c-0.356,0.255-0.898,0.831-0.982,1.271C62.333,11.112,62.638,10.671,63.028,10.281z M62.384,10.535
		c-0.068,0.068-0.288,0.288-0.288,0.355C62.181,10.756,62.3,10.654,62.384,10.535z M62.893,14.213
		c-0.034,0.05-0.086,0.101-0.102,0.169c0.339-0.39,1.271-1.339,1.254-1.864C63.722,13.128,63.317,13.671,62.893,14.213z
		 M63.198,13.01c-0.086,0.119-0.374,0.457-0.374,0.525C62.977,13.399,63.096,13.213,63.198,13.01z M62.893,13.823
		c0,0.017,0,0.017,0.017,0.017L62.893,13.823z M63.096,13.637c0.119-0.187,0.27-0.356,0.373-0.542l-0.389,0.525v0.017H63.096z
		 M63.485,13.043c-0.017,0.017-0.017,0.034-0.017,0.051L63.485,13.043z M63.74,13.467h0.017V13.45L63.74,13.467z"/>
</g>
</svg>
