<?xml version="1.0" encoding="utf-8"?>
<!-- Generator: Adobe Illustrator 21.1.0, SVG Export Plug-In . SVG Version: 6.00 Build 0)  -->
<svg version="1.1" id="Layer_1" xmlns="http://www.w3.org/2000/svg" xmlns:xlink="http://www.w3.org/1999/xlink" x="0px" y="0px"
	 viewBox="0 0 70 20" style="enable-background:new 0 0 70 20;" xml:space="preserve">
<style type="text/css">
	.st0{fill:#3C4852;}
</style>
<g>
	<path class="st0" d="M12.899,3.96c0,2.108-0.404,3.827-1.032,5.816c-0.119,0.388-0.254,0.777-0.404,1.151
		c-0.314,0.792-1.062,1.959-1.704,2.527c-0.299,0.269-0.688,0.464-1.107,0.464c-0.538,0-0.987-0.269-1.315-0.673
		c-0.284-0.344-0.359-0.852-0.359-1.286c-0.418,0.538-1.659,2.018-2.362,2.018c-0.044,0.089-0.119,0.164-0.224,0.164
		c-0.628,0-1.107-0.747-1.107-1.315c0-0.539,0.15-1.51,0.314-2.034c0.494-1.615,1.286-3.065,2.123-4.515l0.015-0.089
		C5.364,6.352,4.826,6.561,4.422,6.561c-0.284,0-0.837-0.299-0.837-0.628c0-0.03,0-0.06,0.015-0.089
		c0.867-0.06,1.674-0.419,2.407-0.867c0.239-0.149,0.478-0.314,0.747-0.418c0.284,0.119,0.777,0.433,0.777,0.777
		c0,0.164-0.389,0.912-0.478,1.121c-1.107,2.362-2.093,4.425-2.601,7.027l0.045,0.03c0.045-0.044,0.105-0.074,0.164-0.105
		c0.747-0.463,2.078-2.122,2.512-2.915c0.104-0.194,0.164-0.389,0.239-0.598c0.269-0.777,0.508-1.6,1.076-2.228
		c0.105-0.104,0.269-0.254,0.419-0.254c0.089,0,0.194,0.075,0.284,0.105l0.03,0.089h0.06l0.075-0.03v0.075
		c0,0.089-0.359,0.702-0.434,0.852c-0.463,0.957-0.792,2.452-0.957,3.513v0.045c0,0.015,0.015,0.075,0.03,0.089
		c0.254-1.315,0.613-2.841,1.226-4.037l0.224-0.433l0.18,0.089C9.58,8.161,9.356,8.55,9.236,8.924
		c-0.388,1.196-0.897,2.9-0.897,4.141c0,0.03,0.015,0.044,0.015,0.074c0.284-0.105,0.583-0.374,0.792-0.598
		c0.702-0.747,1.241-1.704,1.615-2.661c0.673-1.749,1.286-4.246,1.286-6.115c0-1.241-0.105-1.974-0.897-2.975
		c-0.06-0.075-0.239-0.299-0.239-0.374c0.344,0.089,0.569,0.269,0.822,0.508c0.299,0.284,0.583,0.598,0.763,0.971
		C12.795,2.54,12.899,3.257,12.899,3.96z M4.736,10.673h0.015v-0.015L4.736,10.673z M4.871,10.239l0.06-0.075l-0.03-0.015
		C4.885,10.179,4.871,10.209,4.871,10.239z M4.931,10.045l0.015,0.03c0-0.015,0-0.03,0.015-0.045L4.931,10.045z M5.334,9.148
		l0.449-0.957v-0.03C5.573,8.46,5.469,8.819,5.334,9.148z M5.783,8.146c0.225-0.269,0.404-0.762,0.569-1.091
		c0.254-0.508,0.643-1.016,0.807-1.57L7.128,5.47C6.83,5.889,6.665,6.367,6.425,6.815C6.217,7.219,5.962,7.623,5.798,8.042
		C5.783,8.071,5.783,8.116,5.783,8.146z M7.861,10.957H7.846c0,0.015,0,0.015,0.015,0.015V10.957z M7.936,10.703l-0.015-0.015v0.015
		H7.936z M7.936,10.568l0.015,0.015v-0.015H7.936z M7.965,12.273H7.951v0.06l0.015-0.015V12.273z M8.13,8.819l0.03,0.015
		C8.295,8.594,8.414,8.34,8.534,8.101C8.354,8.311,8.234,8.564,8.13,8.819z M8.668,8.46c-0.06,0.12-0.12,0.225-0.164,0.344
		c-0.03,0.03-0.015,0.06-0.015,0.09C8.519,8.759,8.594,8.609,8.668,8.46z M9.117,8.669l0.015-0.015V8.639
		C9.132,8.655,9.117,8.655,9.117,8.669z M9.252,8.385c0.015,0,0.015,0,0.015-0.015H9.252V8.385z M9.281,8.311
		c0,0.015,0,0.015,0.015,0.015V8.311L9.281,8.295V8.311z M9.296,8.25h0.015V8.236L9.296,8.25z M9.446,7.951
		c0,0.015,0,0.015,0.015,0.015V7.951H9.446z M12.286,7.099c-0.03,0.03-0.03,0.075-0.045,0.12c-0.388,1.584-0.837,3.199-1.659,4.619
		c-0.09,0.15-0.194,0.299-0.269,0.464c0.957-0.867,1.689-3.827,1.973-5.114V7.099z M10.343,11.345
		c0.194-0.284,0.643-1.256,0.702-1.54l-0.015,0.015C11.015,9.94,10.448,11.166,10.343,11.345z M11.075,10.389
		c0,0.03-0.015,0.045-0.03,0.06c-0.015,0.03-0.044,0.12-0.06,0.135c0,0.03-0.015,0.06-0.03,0.09l0.06-0.075
		c0-0.06,0.045-0.09,0.045-0.135c0.015-0.015,0.015-0.075,0.03-0.12L11.075,10.389z M11.18,10.134l0.015-0.015v-0.015L11.18,10.12
		V10.134z M11.195,11.166H11.18l0.015,0.015V11.166z M11.21,9.252l0.03,0.045c0-0.015,0-0.03-0.015-0.045H11.21z M11.225,11.106
		c0-0.015,0-0.015-0.015-0.015v0.015H11.225z M11.255,11.031l-0.015,0.015h0.015V11.031z M11.359,9.671
		c0.015-0.03,0.015-0.06,0.045-0.09l-0.03-0.015C11.359,9.596,11.359,9.641,11.359,9.671z M11.509,10.418h-0.015l0.015,0.015V10.418
		z M11.509,9.193l0.015-0.015h-0.015V9.193z M11.524,8.281h0.015l-0.015-0.015V8.281z M11.583,10.239l-0.015-0.015v0.015H11.583z
		 M11.599,10.164h-0.015v0.015L11.599,10.164z M11.599,8.849h0.015l-0.015-0.015V8.849z M11.628,8.774h0.015V8.759h-0.015V8.774z
		 M11.703,8.505h0.015V8.49L11.703,8.505z M12.346,6.875l-0.03-0.015c-0.015,0.045-0.03,0.09-0.03,0.135l0.03,0.015L12.346,6.875z
		 M12.376,6.785l-0.03-0.03v0.03H12.376z M12.391,6.636l-0.015-0.015c-0.015,0.015-0.015,0.03-0.015,0.045L12.391,6.636z
		 M12.406,6.486c-0.015,0.015-0.015,0.015-0.015,0.03l0.015,0.015V6.486z M12.436,6.382h-0.015v0.03
		C12.421,6.397,12.421,6.397,12.436,6.382z M12.481,5.963h-0.015c0,0.015,0,0.015,0.015,0.03V5.963z"/>
	<path class="st0" d="M16.732,10.852c-0.224,1.226-0.553,2.482-0.553,3.738c0,0.194,0.015,0.389,0.074,0.583
		c0,0.015,0.015,0.03,0.015,0.045c0,0.03-0.015,0.06-0.015,0.089c-0.06,0.015-0.119,0.015-0.179,0.015
		c-0.419,0-0.838-0.343-0.883-0.762c-0.015-0.18-0.015-0.374-0.015-0.553c0-0.344,0-0.688,0.045-1.032
		c0.164-1.345,0.313-2.556,0.702-3.857l-0.03-0.03l-0.463,0.389c-0.27,0.239-0.583,0.687-0.763,1.001
		c-0.553,0.942-0.957,1.944-1.166,3.02c-0.015,0.089-0.03,0.164-0.06,0.254c-1.032-0.104-1.122-0.777-1.122-1.659
		c0-1.57,0.359-3.125,0.703-4.65c0.135-0.613,0.269-1.241,0.463-1.839c0.18-0.568,0.419-1.136,0.643-1.69
		c0.06-0.135,0.104-0.299,0.209-0.418c0.09,0.06,0.135,0.089,0.239,0.089c0.135,0,0.344,0.18,0.449,0.269s0.12,0.135,0.135,0.269
		v0.12c0,0.568-0.388,1.689-0.553,2.287c-0.209,0.807-0.419,1.6-0.613,2.407c-0.075,0.314-0.329,1.181-0.329,1.45
		c0,0.015,0.015,0.045,0.015,0.06c0.583-0.897,1.016-1.376,1.914-1.973c0.119-0.075,0.209-0.12,0.344-0.12
		c0.284,0,0.568,0.18,0.777,0.344c0.209,0.165,0.284,0.299,0.284,0.569C17.001,9.79,16.822,10.344,16.732,10.852z M13.024,8.833
		h-0.015v0.03h0.015V8.833z M13.069,8.624l-0.045,0.075l0.03,0.015C13.054,8.684,13.069,8.655,13.069,8.624z M13.084,8.535h-0.015
		v0.075C13.084,8.58,13.084,8.564,13.084,8.535z M13.099,8.4h0.03c-0.015-0.015-0.015-0.045-0.015-0.075
		C13.099,8.355,13.099,8.37,13.099,8.4z M13.129,11.66c0-0.03-0.015-0.045-0.015-0.075c-0.015,0.03-0.015,0.045-0.015,0.075H13.129z
		 M13.159,11.256c-0.015,0.06-0.03,0.119-0.03,0.179h0.03V11.256z M13.159,11.241c0.15-0.463,0.239-1.226,0.344-1.734
		c0.329-1.555,0.777-3.095,1.181-4.635l-0.03,0.015c-0.209,0.673-0.433,1.331-0.613,2.003c-0.209,0.792-0.388,1.585-0.553,2.377
		C13.353,9.925,13.218,10.583,13.159,11.241z M13.204,7.967h0.015v-0.06C13.204,7.922,13.204,7.951,13.204,7.967z M13.218,7.892
		c0.015-0.015,0.03-0.045,0.03-0.06l-0.03-0.015V7.892z M13.263,7.682l0.03,0.015c0-0.075,0.015-0.165,0.015-0.239l0.03-0.015
		c0.06-0.209,0.105-0.404,0.149-0.613c-0.089,0.194-0.135,0.419-0.179,0.628L13.263,7.682z M13.323,8.699v0.06h0.015v-0.06H13.323z
		 M13.428,8.281c0,0.03-0.015,0.06-0.015,0.089l-0.03,0.105h0.03l0.044-0.18L13.428,8.281z M14.4,10.434
		c-0.344,0.344-0.867,1.659-0.972,2.153c-0.015,0.044,0,0.105-0.015,0.149c0.044-0.044,0.06-0.089,0.074-0.135
		c0.165-0.478,0.314-0.957,0.539-1.42l0.374-0.718V10.434z M13.458,8.161c0,0.015,0,0.015,0.015,0.03v-0.03H13.458z M13.458,11.929
		h0.015v-0.015L13.458,11.929z M13.487,8.042l0.03,0.015c-0.015-0.03-0.015-0.06-0.015-0.089
		C13.487,7.997,13.487,8.011,13.487,8.042z M13.532,11.181h0.03l0.135-0.284L13.532,11.181z M13.607,7.578
		c0.075-0.089,0.329-1.196,0.359-1.39l0.03-0.09l0.015-0.06c-0.015,0.015-0.015,0.045-0.015,0.06c-0.015,0.03-0.03,0.06-0.03,0.09
		C13.831,6.651,13.697,7.115,13.607,7.578z M13.801,12.018l-0.015-0.015v0.015H13.801z M13.801,5.604c0.015,0,0.015,0,0.03-0.015
		V5.575L13.801,5.604z M13.876,5.38h0.015V5.365L13.876,5.38z M13.921,11.66h-0.015l0.015,0.015V11.66z M14.026,10.717
		c0-0.015,0-0.015,0.015-0.03h-0.015V10.717z M14.041,5.948l0.015-0.045h-0.015V5.948z M14.056,7.862l-0.015,0.015h0.015V7.862z
		 M14.07,5.814h0.015v-0.03H14.07V5.814z M14.1,5.679h0.015V5.664L14.1,5.679z M14.22,7.249h-0.015v0.03
		C14.205,7.264,14.205,7.264,14.22,7.249z M14.385,6.666H14.37v0.015L14.385,6.666z M14.444,6.427H14.43v0.015L14.444,6.427z
		 M14.475,10.314c-0.015,0.03-0.045,0.06-0.045,0.089C14.444,10.373,14.475,10.344,14.475,10.314z M14.475,6.322
		c-0.015,0-0.015,0-0.015,0.015h0.015V6.322z M14.683,4.857c0.045-0.09,0.09-0.18,0.09-0.284l-0.03-0.015
		C14.713,4.662,14.699,4.752,14.683,4.857z M14.788,4.453h0.015c0-0.015,0-0.045-0.015-0.06l0.045-0.06l-0.015-0.015
		c0,0.03-0.015,0.045-0.03,0.075V4.453z M16.029,12.766h-0.015v0.06l0.015-0.015V12.766z M16.089,12.317h-0.015
		c0,0.015,0.015,0.015,0.015,0.03V12.317z M16.164,11.839l-0.03,0.105h0.03V11.839z M16.627,9.596
		c-0.194,0.673-0.313,1.346-0.433,2.034c0.105-0.239,0.135-0.553,0.195-0.792C16.478,10.418,16.567,10.015,16.627,9.596z
		 M16.657,9.477h-0.03v0.074L16.657,9.477z"/>
	<path class="st0" d="M21.698,11.749c-0.329,0.777-1.062,2.108-1.72,2.631c-0.329-0.119-0.568-0.15-0.568-0.568
		c0-0.808,0.18-1.6,0.344-2.392l-0.508,0.523c-0.314,0.329-0.747,0.957-1.271,0.957c-0.374,0-0.927-0.344-0.927-0.762
		c0-0.882,0.942-2.482,1.659-2.99c0.299-0.209,0.673-0.419,1.047-0.419c0.374,0,0.688,0.209,0.957,0.464
		c0.03,0.03,0.06,0.075,0.06,0.119c0,0.03-0.015,0.06-0.03,0.09l-0.433-0.12c-1.077,0.374-1.615,1.585-2.048,2.556l0.03,0.03
		l0.239-0.18l1.435-1.286c0.269-0.239,0.314-0.553,0.657-0.687l0.015,0.149L20.591,9.88c-0.03,0.06,0,0.044-0.06,0.105l0.045-0.015
		l0.015-0.075l0.045-0.03c0.015-0.03,0.045-0.06,0.089-0.06c0.03,0,0.06,0.03,0.075,0.045l-0.015,0.105l0.06-0.03V9.91l0.075,0.03
		c-0.12,0.374-0.254,0.733-0.389,1.091l-0.015,0.015c0.015,0,0.015,0,0.015-0.015c0.015-0.015,0.045-0.03,0.045-0.06
		c0.149-0.329,0.269-0.673,0.433-0.987c0.075,0.015,0.135,0.06,0.135,0.135c0,0.105-0.045,0.209-0.075,0.299
		c-0.194,0.538-0.852,2.392-0.852,2.871c0.195-0.119,0.344-0.329,0.494-0.494h0.03c-0.194,0.284-0.463,0.523-0.598,0.838h-0.015
		v0.015c0.015,0,0.015,0,0.015-0.015c0.27-0.269,0.509-0.598,0.748-0.897c0.06-0.075,0.119-0.194,0.194-0.269l0.075-0.075
		c-0.314,0.538-0.808,1.032-1.077,1.585l0.478-0.553l-0.135,0.254l0.105-0.075l0.015,0.06c0.015-0.075,0.089-0.164,0.135-0.239
		h0.015v-0.015l-0.015,0.015h-0.03c0.044-0.119,0.06-0.194,0.164-0.269v0.06l0.03-0.06l0.045-0.03l0.03-0.06
		c0.03-0.12,0.149-0.209,0.194-0.329c0.03-0.075,0.089-0.149,0.135-0.224h-0.015l0.03-0.06h-0.015l0.089-0.164l0.015,0.06
		c0.015-0.075,0.06-0.135,0.089-0.195h-0.015l0.044-0.03c0.03-0.045,0.045-0.089,0.06-0.135v0.015
		C21.578,11.913,21.638,11.839,21.698,11.749z M17.542,11.271c0,0.015-0.015,0.03-0.015,0.045h0.015V11.271z M17.631,11.091
		c0.194-0.329,0.374-0.688,0.583-1.001c0.045-0.06,0.18-0.225,0.18-0.299l-0.03,0.06c-0.209,0.209-0.673,1.016-0.778,1.301
		c-0.015,0.015-0.03,0.044-0.03,0.074l0.03-0.074C17.601,11.136,17.631,11.121,17.631,11.091z M17.781,11.391l0.044-0.105
		c-0.03,0.015-0.03,0.074-0.06,0.105H17.781z M17.811,12.093c-0.015,0.015-0.015,0.045-0.015,0.06h0.015V12.093z M19.051,9.821
		c-0.388,0.239-0.957,1.3-1.106,1.734c-0.06,0.164-0.09,0.344-0.135,0.508c0.03-0.03,0.044-0.06,0.06-0.105
		C18.155,11.211,18.543,10.434,19.051,9.821z M17.87,11.151c0.15-0.284,0.329-0.539,0.494-0.808v-0.03
		C18.169,10.583,18.005,10.837,17.87,11.151z M18.438,9.746l0.045-0.03h-0.015L18.438,9.746z M18.513,10.104h0.03V10.09
		C18.528,10.104,18.528,10.104,18.513,10.104z M18.588,10h0.015V9.985C18.588,9.985,18.588,9.985,18.588,10z M20.083,12.661h0.015
		v-0.03h-0.015V12.661z M20.143,14.066c-0.015,0-0.03,0.015-0.03,0.03L20.143,14.066z M20.143,12.362l0.015,0.03v-0.044
		L20.143,12.362z M20.263,13.917l-0.105,0.135C20.203,14.007,20.263,13.991,20.263,13.917z M20.217,12.108h0.015v-0.075
		C20.217,12.063,20.217,12.078,20.217,12.108z M20.233,11.973l0.03-0.06h-0.015L20.233,11.973z M20.263,11.899
		c0.075-0.09,0.089-0.195,0.105-0.299C20.322,11.704,20.292,11.794,20.263,11.899z M20.292,13.962c-0.015,0-0.015,0.015-0.03,0.015
		C20.278,13.977,20.292,13.977,20.292,13.962z M20.352,13.857c0-0.03,0.015-0.06,0.015-0.089l-0.089,0.135L20.352,13.857z
		 M20.352,10.299l0.12-0.225C20.427,10.12,20.367,10.224,20.352,10.299z M20.382,13.827l-0.015,0.015
		C20.382,13.842,20.382,13.842,20.382,13.827z M20.397,11.48c-0.015,0.015-0.015,0.03-0.015,0.045L20.397,11.48z M20.442,13.812
		c-0.015,0-0.015,0.015-0.03,0.015h0.03V13.812z M20.442,11.33c-0.015,0.015-0.015,0.045-0.015,0.075l0.015-0.03V11.33z
		 M20.547,13.678h-0.015l-0.045,0.03h0.015L20.547,13.678z M20.591,10.269c0,0,0.015,0.03,0.015,0.045l0.06-0.119
		C20.621,10.209,20.591,10.224,20.591,10.269z M20.666,10.179c0.015-0.03,0.015-0.045,0.015-0.075
		C20.666,10.134,20.666,10.149,20.666,10.179z M20.816,13.229c-0.015,0.015-0.015,0.044-0.015,0.06
		C20.816,13.274,20.816,13.244,20.816,13.229z"/>
	<path class="st0" d="M26.634,6.846c-0.344,0.418-1.674,0.538-2.213,0.628c-0.538,1.749-0.852,3.558-1.151,5.367
		c-0.15,0.957-0.269,1.944-0.269,2.916c0,0.388,0.06,0.792,0.149,1.166c0.015,0.044,0.015,0.075,0.015,0.119
		c0,0.135-0.195,0.18-0.299,0.18c-0.044,0-0.06-0.045-0.074-0.075l-0.09,0.135c-0.179-0.089-0.374-0.135-0.553-0.224
		c-0.553-0.284-0.553-1.301-0.553-1.824c0-1.57,0.209-3.169,0.449-4.725c0.06-0.359,0.089-0.732,0.164-1.091
		c0.074-0.418,0.179-0.837,0.239-1.256c0.015-0.105,0.06-0.194,0.06-0.299c0-0.075-0.135-0.075-0.18-0.075
		c-0.149,0-0.314,0.015-0.463,0.015l0.015-0.015c-0.149-0.045-0.344-0.194-0.449-0.329l0.015-0.09l-0.135-0.075
		c0.03-0.149,0.06-0.194,0.209-0.239c0.329-0.089,0.673-0.119,1.002-0.194c0.329-0.433,0.628-0.882,0.837-1.39
		c0.164-0.389,0.404-0.763,0.613-1.121c0.06-0.105,0.12-0.195,0.254-0.195l0.179,0.09l-0.105,0.239c0.09-0.09,0.15-0.18,0.225-0.269
		l0.06,0.089l0.12-0.015L24.63,4.498l0.119-0.105l0.165,0.06v0.149l0.119-0.03c0.089,0.075,0.239,0.15,0.239,0.284
		c0,0.06-0.538,1.6-0.538,1.6c0.105-0.015,0.224,0,0.329-0.03c0.254-0.06,0.508-0.06,0.777-0.06c0.314,0,0.389,0.06,0.583,0.313
		C26.424,6.8,26.544,6.83,26.634,6.846z M22.014,13.678h-0.015v0.194h0.015V13.678z M22.074,13.05h-0.015v0.18h0.015V13.05z
		 M22.283,11.569l-0.044-0.015l-0.15,1.24h0.03C22.163,12.392,22.223,11.973,22.283,11.569z M23.001,7.712
		c-0.209,0.329-0.703,3.169-0.703,3.648v0.075C22.507,10.194,22.687,8.938,23.001,7.712z M22.328,14.305v-0.149h-0.015v0.149H22.328
		z M22.328,13.932h0.015v-0.03h-0.015V13.932z M22.387,13.334h-0.015l-0.015,0.284h0.015L22.387,13.334z M22.432,12.975h-0.015
		c0,0.075-0.015,0.135-0.015,0.209h0.03V12.975z M22.462,12.721v0.074c0.135-0.867,0.254-1.734,0.419-2.586
		c0.164-0.867,0.359-1.72,0.538-2.586C23.15,7.967,22.462,12.108,22.462,12.721z M23.898,7.563l-0.135,0.015
		c-0.374,1.226-0.598,2.512-0.807,3.768c-0.195,1.286-0.404,2.601-0.404,3.902c0,0.224,0,0.463,0.03,0.688
		C22.701,13.109,23.18,10.299,23.898,7.563z M22.776,6.785v0.03l0.06-0.089C22.806,6.726,22.776,6.755,22.776,6.785z M22.866,14.425
		h-0.015v0.044h0.015V14.425z M22.911,14.022v-0.075c-0.015,0.015-0.015,0.044-0.015,0.075H22.911z M22.971,13.528v-0.045h-0.015
		v0.045H22.971z M23.016,13.125h-0.015v0.06h0.015V13.125z M23.061,12.811h-0.015v0.06L23.061,12.811z M23.105,12.587
		c-0.015-0.015-0.015-0.045-0.015-0.06h-0.015c0,0.015,0,0.045,0.015,0.06H23.105z M23.135,12.227H23.12v0.105h0.015V12.227z
		 M23.18,11.973h-0.015v0.06h0.015V11.973z M23.195,9.327v0.045h0.015V9.327H23.195z M23.225,11.794v-0.12H23.21v0.12H23.225z
		 M23.24,9.133c0,0.03,0,0.044-0.015,0.074h0.015l0.015-0.074H23.24z M23.27,11.54V11.45h-0.03v0.089H23.27z M23.27,9.013h0.015
		v-0.03L23.27,9.013z M23.314,11.3c0-0.03,0-0.044-0.015-0.075h-0.015V11.3H23.314z M23.314,8.789v0.044h0.015V8.789H23.314z
		 M23.344,11.047v-0.06H23.33v0.06H23.344z M23.389,10.867v-0.105h-0.015l-0.015,0.105H23.389z M23.405,8.46l-0.03,0.045h0.03V8.46z
		 M23.389,6.486l0.015-0.015C23.389,6.472,23.389,6.472,23.389,6.486z M23.434,10.642c0-0.03,0-0.06-0.015-0.089h-0.015v0.089
		H23.434z M23.419,8.325l0.015,0.015l0.03-0.06L23.419,8.325z M23.464,10.329h-0.015v0.119h0.015V10.329z M23.509,10.239v-0.105
		h-0.015l-0.015,0.09C23.494,10.239,23.494,10.239,23.509,10.239z M23.494,8.101l0.03-0.075l-0.03-0.015V8.101z M23.539,9.94h-0.015
		v0.105h0.015V9.94z M23.539,7.877v0.03c0.015-0.015,0.015-0.015,0.015-0.03H23.539z M23.583,9.835V9.746h-0.015v0.089H23.583z
		 M23.629,9.566l-0.03,0.075l0.03,0.015V9.566z M23.688,9.387c-0.03,0-0.06,0.03-0.06,0.06c0,0.03,0.015,0.045,0.015,0.075
		L23.688,9.387z M23.674,9.297c0,0.03,0.015,0.045,0.015,0.075l0.045-0.15C23.703,9.238,23.674,9.252,23.674,9.297z M23.718,6.636
		c0.12-0.12,0.135-0.284,0.165-0.434C23.763,6.322,23.748,6.486,23.718,6.636z M23.733,9.207c0-0.044,0.015-0.089,0.015-0.135h-0.03
		C23.718,9.118,23.718,9.163,23.733,9.207z M23.778,8.983V8.908c-0.015,0.03-0.03,0.045-0.03,0.075H23.778z M23.793,8.819
		c-0.015,0.015-0.015,0.03-0.015,0.045l0.015-0.015V8.819z M23.823,8.714l0.015-0.045C23.823,8.684,23.823,8.699,23.823,8.714z
		 M23.868,8.535L23.853,8.55c0,0.044-0.015,0.074-0.015,0.119l0.03-0.119V8.535z M23.943,8.295c-0.075,0.06-0.075,0.15-0.075,0.239
		C23.898,8.46,23.927,8.37,23.943,8.295z M23.898,6.172c-0.015,0.015-0.015,0.015-0.015,0.03
		C23.883,6.188,23.898,6.188,23.898,6.172z M24.017,8.026c-0.045,0.045-0.075,0.105-0.075,0.164c0,0.03,0,0.06,0.015,0.09
		C23.972,8.191,23.988,8.116,24.017,8.026z M23.943,8.295h0.015V8.281L23.943,8.295z M23.972,5.096
		c0.015-0.015,0.015-0.015,0.015-0.03C23.988,5.081,23.972,5.081,23.972,5.096z M24.017,4.962l-0.03,0.075
		C24.002,5.021,24.017,4.991,24.017,4.962z M24.047,4.901l-0.03,0.06C24.032,4.946,24.047,4.917,24.047,4.901z M24.017,7.967
		l0.044-0.105v-0.06C24.032,7.862,24.032,7.907,24.017,7.967z M24.137,7.593v-0.06l-0.06,0.165
		C24.122,7.682,24.137,7.637,24.137,7.593z M24.675,5.275C24.63,5.35,24.571,5.41,24.526,5.47c-0.075,0.135-0.419,0.987-0.419,1.106
		h0.03c0.075,0,0.105-0.06,0.12-0.119C24.406,6.068,24.526,5.679,24.675,5.275z M24.196,4.693c-0.015,0.015-0.03,0.044-0.03,0.06
		C24.182,4.737,24.196,4.707,24.196,4.693z M24.182,5.41l0.045-0.03h-0.045V5.41z M24.271,4.528c-0.03,0.06-0.06,0.105-0.075,0.165
		l0.075-0.135V4.528z"/>
	<path class="st0" d="M34.725,5.5c0,0.089-0.209,0.598-0.254,0.732c-0.299,0.808-0.598,1.615-0.822,2.452l-0.688,2.527
		c-0.119,0.433-0.209,0.882-0.329,1.331c-0.12,0.493-0.269,0.971-0.419,1.45c-0.209,0.658-0.433,1.301-0.658,1.959
		c-0.135,0.374-0.254,0.747-0.433,1.107c-0.449,0.897-1.226,2.527-2.392,2.527c-0.374,0-0.718-0.164-0.987-0.419
		c-0.239-0.224-0.254-0.494-0.254-0.807c0-1.211,0.777-2.317,1.629-3.11c0.254-0.239,0.643-0.569,0.957-0.703l-0.075,0.164
		l0.209-0.074l-0.015,0.164l0.135-0.06c-0.015,0.015-0.044,0.06-0.044,0.074v0.045l0.149-0.03c0.15-0.254,0.239-0.553,0.344-0.838
		c0.164-0.463,0.359-0.926,0.494-1.405c0.119-0.389,0.209-0.792,0.314-1.181c0.105-0.404,0.224-0.807,0.313-1.211
		c-0.164,0.105-1.539,1.734-1.764,1.988c-0.224,0.254-1.002,1.136-1.315,1.136c-0.06,0-0.135-0.015-0.195-0.03
		c-0.702-0.164-1.062-0.673-1.062-1.39c0-1.45,1.256-4.814,2.108-5.98c-0.359,0.119-1.241,0.463-1.585,0.463
		c-0.359,0-0.867-0.404-0.867-0.777c0-0.06,0.045-0.135,0.12-0.135c0.105,0,0.18,0.06,0.284,0.06c0.448,0,1.405-0.433,1.839-0.628
		c0.314-0.135,0.867-0.418,1.181-0.448c0.209,0.209,0.673,0.553,0.673,0.867c0,0.344-0.314,0.808-0.464,1.107
		c-0.224,0.449-0.433,0.897-0.628,1.345c-0.359,0.838-1.345,3.275-1.345,4.097c1.196-1.196,2.302-2.452,3.379-3.753
		c0.119-0.135,0.239-0.269,0.329-0.433c0.12-0.224,0.209-0.463,0.299-0.702c0.269-0.718,0.643-1.525,1.166-2.093
		c0.03-0.03,0.045-0.06,0.09-0.06c0.045,0,0.105,0.06,0.135,0.089c-0.03,0.03-0.075,0.089-0.075,0.135l0.135-0.075
		c0.06,0.03,0.15,0.075,0.105,0.15l0.135,0.045L34.561,5.32l0.074-0.015C34.696,5.35,34.725,5.425,34.725,5.5z M27.788,17.774
		c-0.015,0.015-0.045,0.015-0.06,0.015l0.03,0.03L27.788,17.774z M27.833,17.475c0.03-0.105,0.195-0.404,0.195-0.449
		c-0.03,0.03-0.045,0.089-0.075,0.119C27.937,17.251,27.863,17.356,27.833,17.475z M28.042,17.565h-0.044l0.044,0.03V17.565z
		 M28.162,18.163l-0.015-0.089c-0.015,0.015-0.015,0.06-0.015,0.075C28.147,18.148,28.147,18.163,28.162,18.163z M28.147,18.058
		c0.18-0.388,0.284-0.867,0.464-1.27C28.371,17.191,28.147,17.565,28.147,18.058z M30.345,15.128
		c-0.882,0.763-1.6,1.645-1.869,2.811c-0.03,0.135-0.06,0.284-0.06,0.419c0,0.089,0.015,0.194,0.03,0.284
		C29.373,17.64,29.851,16.369,30.345,15.128z M28.655,16.698c0.045-0.044,0.09-0.135,0.105-0.194
		C28.715,16.563,28.685,16.638,28.655,16.698z M28.954,9.88l0.015,0.015V9.88H28.954z M29.119,9.357l0.03,0.015
		c0.015-0.03,0.015-0.045,0.015-0.075L29.119,9.357z M29.313,8.924l0.015-0.03l-0.015-0.015V8.924z M29.373,12.512l-0.015-0.03
		l-0.045,0.044h0.03L29.373,12.512z M29.373,8.714h0.015l-0.015-0.015V8.714z M29.463,8.445c0.015,0,0.015,0,0.015-0.015V8.415
		C29.463,8.43,29.463,8.43,29.463,8.445z M29.746,17.415l-0.015-0.015C29.732,17.415,29.732,17.415,29.746,17.415z M29.807,7.682
		l0.015,0.015V7.682H29.807z M29.836,7.593l0.015-0.015V7.563l-0.015,0.015V7.593z M30.046,11.779
		c-0.015,0.015-0.045,0.03-0.045,0.06c-0.045,0.03-0.06,0.075-0.105,0.09l-0.015,0.044l0.104-0.089l0.015-0.045
		C30.016,11.824,30.046,11.809,30.046,11.779z M30.06,7.115h0.015L30.06,7.099V7.115z M30.105,16.727
		c0.135-0.359,0.329-0.702,0.404-1.076l-0.449,1.032v0.074L30.105,16.727z M32.094,9.432c-0.03,0-0.045,0.015-0.06,0.03
		c-0.299,0.359-0.912,1.016-1.151,1.376c-0.149,0.224-0.583,0.598-0.777,0.882c0.089-0.105,0.209-0.164,0.299-0.269
		C30.958,10.778,31.555,10.134,32.094,9.432z M30.225,17.834c-0.015,0.015-0.015,0.015-0.015,0.03l0.015-0.015V17.834z
		 M31.227,15.666c-0.045,0.045-0.075,0.12-0.105,0.18c-0.269,0.598-0.478,1.211-0.792,1.779l-0.015,0.135
		C30.659,17.087,31.077,16.414,31.227,15.666z M30.524,16.458l0.105-0.089c0.074-0.18,0.119-0.359,0.194-0.538
		C30.673,15.98,30.598,16.249,30.524,16.458z M30.539,15.517l0.015,0.03h0.044L30.539,15.517z M31.137,9.851
		c0.03-0.03,0.06-0.06,0.075-0.105h-0.03L31.137,9.851z M32.229,8.908h-0.015c-0.015,0.015-0.015,0.015-0.03,0.015
		C32.199,8.924,32.213,8.924,32.229,8.908z"/>
	<path class="st0" d="M35.476,9.671c0.359-0.464,0.927-1.331,1.584-1.331c0.643,0,1.405,0.792,1.405,1.435
		c0,1.211-0.957,2.616-1.809,3.409c-0.254,0.239-0.493,0.433-0.852,0.494c-0.105,0.015-0.209,0.03-0.314,0.03
		c-0.942,0-1.629-0.778-1.629-1.704v-0.18c0-0.613,0.628-2.273,1.346-2.273L35.476,9.671z M34.938,9.895
		c-0.12,0.06-0.18,0.164-0.24,0.269L34.938,9.895z M34.803,11.002v0.03c0.015,0,0.015-0.015,0.03-0.03H34.803z M37.6,9.596
		c0.015-0.105,0.044-0.194,0.044-0.299c0-0.06-0.015-0.135-0.044-0.195c-0.494,0-1.525,1.241-1.525,1.72
		c0,0.15,0.09,0.269,0.209,0.359c-0.03,0.044-0.089,0.089-0.15,0.089c-0.418,0-0.613-0.329-0.837-0.613
		c-0.224,0.553-0.433,1.121-0.433,1.72c0,0.209,0.015,0.418,0.075,0.628C36.299,12.631,37.36,10.927,37.6,9.596z M35.297,10.09
		c-0.194,0.194-0.314,0.448-0.404,0.702c0.075-0.105,0.374-0.568,0.388-0.673L35.297,10.09z M34.953,10.224
		c0.06-0.045,0.12-0.135,0.135-0.209L34.953,10.224z M35.865,9.566c0.045-0.12,0.539-0.613,0.673-0.733h-0.03
		c-0.27,0.225-0.494,0.478-0.688,0.763L35.865,9.566z M36.882,9.148V9.133h-0.015c-0.015,0-0.015,0.015-0.03,0.015
		c-0.314,0.225-0.792,0.733-0.867,1.121C36.269,9.88,36.538,9.491,36.882,9.148z M36.313,9.372c-0.06,0.06-0.254,0.254-0.254,0.313
		C36.134,9.566,36.239,9.477,36.313,9.372z M36.762,12.616c-0.03,0.044-0.075,0.089-0.089,0.149
		c0.299-0.344,1.121-1.181,1.106-1.645C37.495,11.66,37.136,12.138,36.762,12.616z M37.031,11.555
		c-0.075,0.105-0.329,0.404-0.329,0.463C36.837,11.899,36.942,11.734,37.031,11.555z M36.762,12.273c0,0.015,0,0.015,0.015,0.015
		L36.762,12.273z M36.942,12.108c0.105-0.165,0.239-0.314,0.329-0.478l-0.344,0.463v0.015H36.942z M37.285,11.585
		c-0.015,0.015-0.015,0.03-0.015,0.045L37.285,11.585z M37.509,11.958h0.015v-0.015L37.509,11.958z"/>
	<path class="st0" d="M43.702,11.644l0.045,0.03c-0.03,0.06-0.105,0.105-0.164,0.135v0.03h0.015v-0.015
		c0.06-0.03,0.165,0,0.209-0.045c-0.075,0.164-0.194,0.299-0.299,0.449c0.089-0.06,0.164-0.135,0.224-0.224l0.015,0.015v-0.015
		h-0.015l0.06-0.105c0-0.075,0.015-0.12,0.074-0.18l0.06,0.045c-0.105,0.209-0.225,0.404-0.344,0.598
		c-0.329,0.538-0.852,1.525-1.57,1.525c-0.523,0-0.838-0.329-0.838-0.852c0-0.313,0.03-0.643,0.03-0.957
		c-0.344,0.494-0.702,0.987-1.136,1.391c-0.12,0.119-0.239,0.164-0.419,0.164c-0.239,0-0.464-0.075-0.658-0.209
		c-0.344-0.239-0.374-0.583-0.374-0.972c0-0.987,0.463-3.02,1.181-3.767c0.045-0.045,0.09-0.09,0.15-0.09
		c0.03,0,0.18,0.075,0.299,0.09v0.135c0.03-0.06,0.135-0.045,0.18-0.06l-0.045,0.164l0.135-0.06l0.12,0.06
		c0.015,0.03,0.03,0.075,0.03,0.105c0,0.105-0.404,1.211-0.478,1.42c-0.239,0.733-0.359,1.51-0.449,2.273
		c0.658-0.628,1.181-1.346,1.72-2.063c0.374-0.494,0.493-1.166,0.897-1.659c0.06-0.075,0.239-0.195,0.329-0.195
		c0.12,0,0.269,0.12,0.404,0.15l-0.045,0.164l0.105-0.105h0.03c0.015,0.03,0.044,0.045,0.074,0.045l0.045-0.06
		c0,0.015,0.015,0.044,0.015,0.044c0,0.239-0.195,0.598-0.284,0.838c-0.329,0.927-0.508,1.914-0.763,2.855
		c0,0.015-0.044,0.15-0.044,0.164c0,0.06,0,0.15,0.089,0.15c0.299,0,1.032-0.942,1.226-1.196v0.015l0.045-0.06l-0.015,0.015
		L43.702,11.644z M39.321,10.224v-0.015h-0.015v0.015H39.321z M39.486,11.943c0-0.06,0-0.105-0.015-0.164
		c0,0.045,0,0.105-0.015,0.15L39.486,11.943z M39.516,11.689c0.179-0.912,0.493-1.734,0.852-2.587
		c0.03-0.06,0.015-0.119,0.015-0.179c-0.404,0.747-0.822,1.973-0.897,2.825C39.5,11.734,39.516,11.719,39.516,11.689z M39.814,9.058
		c-0.135,0.164-0.239,0.374-0.299,0.583L39.814,9.058z M39.74,9.851V9.806c-0.015,0.015-0.015,0.03-0.015,0.045H39.74z
		 M39.889,8.983l-0.03-0.015c-0.045,0-0.03,0.06-0.045,0.09C39.844,9.028,39.86,8.998,39.889,8.983z M40.113,9.073h-0.015
		c-0.06,0-0.06,0.045-0.06,0.09C40.069,9.133,40.099,9.103,40.113,9.073z M40.308,9.566h0.015V9.551L40.308,9.566z M40.472,9.163
		v0.015h0.015L40.472,9.163z M40.816,11.779l0.015,0.015v-0.015H40.816z M41.549,10.792c-0.119,0.015-0.149,0.12-0.179,0.209
		L41.549,10.792z M41.653,11.48c-0.015,0-0.015,0-0.03,0.015l0.015,0.03L41.653,11.48z M41.878,12.915
		c0.089-0.299,0.149-0.598,0.239-0.897c0.209-0.732,0.433-1.45,0.613-2.183C42.401,10.254,41.938,12.317,41.878,12.915z
		 M41.908,11.585h-0.015v0.03h0.015V11.585z M42.072,11.002h-0.015v0.045L42.072,11.002z M42.147,10.792
		c-0.015-0.015-0.015-0.015-0.03-0.015v0.06L42.147,10.792z M42.73,9.806v0.03c0-0.015,0-0.015,0.015-0.03H42.73z M42.82,9.507
		v-0.03c0,0.015-0.015,0.015-0.015,0.03H42.82z M42.835,9.432c0.135-0.089,0.119-0.045,0.179-0.209L42.835,9.432z M43.089,9.342
		l0.015-0.015h-0.015V9.342z M43.373,12.451v-0.015l-0.015,0.015H43.373z"/>
	<path class="st0" d="M50.299,8.266c-0.015-0.03-0.03-0.075-0.03-0.105c0-0.089,0.089-0.105,0.164-0.105
		c0.149,0,0.284,0.06,0.433,0.075c0.105,0.015,0.209,0.015,0.314,0.015c0.493,0,0.972-0.135,1.465-0.135
		c0.195,0,0.762,0.225,0.822,0.419c0.105,0.105,0.299,0.194,0.299,0.374c0,0.195-0.269,0.747-0.359,0.942l-0.732,1.659
		c-0.18,0.389-0.359,0.777-0.494,1.181l-0.538,1.57c-0.224,0.643-0.239,1.256-0.254,1.928c-0.105-0.015-0.225-0.015-0.329-0.044
		c-0.508-0.15-0.702-0.688-0.702-1.166c0-0.852,0.299-1.615,0.493-2.437c-0.433,0.119-0.867,0.239-1.315,0.239
		c-1.062,0-2.003-0.568-2.631-1.405c-0.329-0.433-0.374-1.002-0.374-1.54c0-0.269,0.045-0.538,0.089-0.792
		c0.434-2.317,2.317-4.844,4.889-4.844c1.062,0,1.824,0.374,2.393,1.286c0.029,0.045,0.044,0.075,0.044,0.12
		c0,0.03-0.015,0.06-0.029,0.089l-0.135,0.045c-0.105,0.269-0.164,0.822-0.164,1.121c0,0.164,0.03,0.314,0.03,0.478
		c0,0.075-0.015,0.15-0.06,0.225c-0.569-0.195-0.747-0.703-0.747-1.256c0-0.329,0.134-0.657,0.134-0.987V5.171
		c-0.179-0.045-0.374-0.06-0.553-0.06c-1.959,0-3.469,1.496-4.201,3.2c-0.254,0.598-0.449,1.286-0.449,1.944
		c0,0.747,0.313,1.734,1.211,1.734c0.464,0,0.897-0.15,1.286-0.374c0.209-0.12,1.091-0.613,1.166-0.807l0.733-1.824
		c0-0.015,0.015-0.075,0.015-0.089C51.539,8.908,50.673,8.879,50.299,8.266z M47.817,6.83c0.314-0.508,0.747-0.957,1.152-1.39
		c-0.539,0.269-1.181,1.36-1.466,1.898C47.578,7.279,47.757,6.935,47.817,6.83z M47.593,8.864l0.015-0.03
		c0.598-1.51,0.987-2.108,2.183-3.214c-0.867,0.434-1.854,1.839-2.093,2.766c-0.06,0.224-0.09,0.463-0.195,0.673
		C47.578,9.028,47.593,8.938,47.593,8.864z M47.772,7.548c0.044-0.105,0.119-0.194,0.179-0.299c0.299-0.494,0.643-0.912,1.002-1.36
		c-0.419,0.239-0.957,1.211-1.211,1.644L47.772,7.548z M48.669,6.486c0-0.015,0-0.015-0.015-0.015L48.669,6.486z M48.714,7.04h0.015
		V7.024L48.714,7.04z M49.133,5.709h0.015l-0.015-0.015l-0.03,0.03L49.133,5.709z M49.372,6.262h-0.015v0.015L49.372,6.262z
		 M49.491,6.143c0-0.015,0-0.015-0.015-0.015L49.491,6.143z M51.031,12.9v-0.015c-0.015,0-0.015,0-0.015,0.015H51.031z
		 M51.046,12.84h0.045l-0.045-0.03V12.84z M51.166,14.694c0.209-0.987,0.569-1.929,0.928-2.856c0.06-0.164,0.149-0.329,0.194-0.508
		h-0.015l-0.194,0.314c-0.299,0.569-0.942,2.482-0.942,3.095L51.166,14.694z M51.226,12.362l-0.06,0.06l0.015,0.015L51.226,12.362z
		 M51.181,13.439v-0.045h-0.015L51.181,13.439z M51.226,13.184l0.015,0.015l0.03-0.03L51.226,13.184z M51.435,12.556l0.045,0.015
		c0.015-0.075,0.015-0.164,0.045-0.254L51.435,12.556z M51.689,11.988l-0.045-0.015c0,0.03-0.015,0.075-0.015,0.105
		C51.644,12.048,51.659,12.018,51.689,11.988z M51.958,10.359c0.105-0.135,0.164-0.284,0.179-0.449L51.958,10.359z M52.003,12.512
		v0.015h0.015L52.003,12.512z M52.033,12.451h0.015c0-0.015,0-0.015-0.015-0.015V12.451z M52.093,12.302h0.015
		c0-0.015,0-0.015-0.015-0.03V12.302z M52.137,12.213v-0.015c-0.015,0-0.015,0-0.015,0.015H52.137z M52.272,9.641l-0.03-0.03
		l-0.044,0.119L52.272,9.641z M52.198,10.598c0.134-0.15,0.179-0.329,0.224-0.508L52.198,10.598z M52.511,10.807l0.852-1.944h-0.074
		l-0.852,1.883L52.511,10.807z M52.661,10.897l-0.015,0.045h0.015V10.897z M52.765,9.297h-0.015
		c-0.015,0.015-0.015,0.045-0.015,0.06L52.765,9.297z M52.765,10.642v0.015h0.016L52.765,10.642z M52.796,10.598l0.015-0.015h-0.015
		V10.598z M52.93,10.373v-0.03h-0.015v0.045L52.93,10.373z M53.155,9.79l0.015-0.015h-0.015V9.79z"/>
	<path class="st0" d="M54.459,11.884c-0.06,0.12-0.045,0.374-0.045,0.494c0,0.149,0.045,0.718,0.254,0.718
		c0.314,0,0.553-0.209,0.657-0.478l0.015-0.015v0.045c0,0.135-0.119,0.239-0.164,0.359c0.164-0.075,0.195-0.224,0.285-0.359
		c0.015,0.03,0.029,0.06,0.029,0.075c0,0.105-0.089,0.164-0.105,0.254l0.105,0.015l-0.015,0.044l0.03,0.015v-0.015h0.044
		l-0.015-0.03h0.015l0.016-0.06h0.015l0.03-0.06v0.06c0.044-0.045,0.06-0.089,0.06-0.15l0.06-0.074
		c-0.03,0.433-0.433,0.718-0.852,0.718c-0.912,0-1.451-0.628-1.451-1.51c0-0.718,0.299-1.435,0.718-2.018
		c0.329-0.464,0.792-0.718,1.361-0.718c0.134,0,0.269,0.03,0.403,0.06L55.61,8.699l0.119-0.03c0.598,0.195,1.002,0.688,1.002,1.346
		C56.731,11.106,55.445,11.884,54.459,11.884z M53.98,10.717c-0.015,0-0.015,0-0.015,0.015h0.015V10.717z M54.055,10.493
		l-0.045,0.075l0.03,0.015L54.055,10.493z M54.07,10.464l-0.016,0.015h0.016V10.464z M54.309,10.059l0.045-0.015
		C54.339,10.045,54.324,10.045,54.309,10.059l-0.074,0.12l-0.03,0.045v0.015c-0.03,0.045-0.074,0.09-0.105,0.15
		c0.074-0.03,0.09-0.089,0.105-0.15l0.03-0.06l0.06-0.045C54.294,10.104,54.309,10.09,54.309,10.059z M54.264,11.181
		c-0.015,0.015-0.015,0.044-0.015,0.075h0.015V11.181z M54.818,10.149c-0.209,0.209-0.494,0.628-0.494,0.942
		C54.428,10.762,54.683,10.478,54.818,10.149z M54.324,10.538v0.015c0-0.015,0-0.015,0-0.03V10.538z M54.383,10.403
		c0.016-0.015,0.016-0.03,0.016-0.06C54.383,10.373,54.383,10.389,54.383,10.403z M54.444,10.314h0.015
		c0.015-0.015,0.029-0.045,0.029-0.06C54.473,10.269,54.459,10.314,54.444,10.314z M54.608,11.286
		c0.538-0.06,1.331-0.942,1.331-1.48v-0.06C55.266,9.895,54.728,10.628,54.608,11.286z M54.832,10.134l0.06-0.03V10.09l-0.015,0.015
		C54.847,10.104,54.847,10.12,54.832,10.134z M55.849,10.568c-0.015,0.015-0.015,0.044-0.015,0.06l-0.045,0.03l0.045-0.015v-0.015
		L55.849,10.568z M55.954,10.403l-0.03,0.06v0.015C55.939,10.448,55.954,10.434,55.954,10.403z M55.999,10.314
		c0.015,0,0.029-0.015,0.029-0.03h-0.029V10.314z M56.058,10.912c0.015-0.015,0.029-0.015,0.029-0.03L56.058,10.912z M56.087,10.568
		h0.016l0.015-0.045L56.087,10.568z M56.148,10.867c-0.016,0-0.03,0-0.045,0.015C56.118,10.882,56.133,10.882,56.148,10.867z
		 M56.148,10.852c0.149-0.149,0.239-0.344,0.298-0.538C56.387,10.418,56.148,10.762,56.148,10.852z"/>
	<path class="st0" d="M61.741,6.846c-0.343,0.418-1.674,0.538-2.213,0.628c-0.538,1.749-0.852,3.558-1.15,5.367
		c-0.15,0.957-0.269,1.944-0.269,2.916c0,0.388,0.06,0.792,0.15,1.166c0.015,0.044,0.015,0.075,0.015,0.119
		c0,0.135-0.195,0.18-0.299,0.18c-0.045,0-0.06-0.045-0.074-0.075l-0.09,0.135c-0.179-0.089-0.374-0.135-0.553-0.224
		c-0.554-0.284-0.554-1.301-0.554-1.824c0-1.57,0.209-3.169,0.449-4.725c0.06-0.359,0.089-0.732,0.164-1.091
		c0.074-0.418,0.179-0.837,0.239-1.256c0.016-0.105,0.06-0.194,0.06-0.299c0-0.075-0.134-0.075-0.179-0.075
		c-0.15,0-0.314,0.015-0.464,0.015l0.016-0.015c-0.15-0.045-0.345-0.194-0.449-0.329l0.015-0.09l-0.134-0.075
		c0.03-0.149,0.06-0.194,0.209-0.239c0.329-0.089,0.673-0.119,1.002-0.194c0.329-0.433,0.628-0.882,0.836-1.39
		c0.166-0.389,0.404-0.763,0.614-1.121c0.06-0.105,0.119-0.195,0.254-0.195l0.179,0.09l-0.105,0.239
		c0.09-0.09,0.15-0.18,0.224-0.269l0.061,0.089l0.119-0.015l-0.075,0.209l0.121-0.105l0.164,0.06v0.149l0.119-0.03
		c0.09,0.075,0.239,0.15,0.239,0.284c0,0.06-0.538,1.6-0.538,1.6c0.105-0.015,0.225,0,0.33-0.03c0.253-0.06,0.508-0.06,0.777-0.06
		c0.314,0,0.388,0.06,0.583,0.313C61.532,6.8,61.651,6.83,61.741,6.846z M57.121,13.678h-0.015v0.194h0.015V13.678z M57.181,13.05
		h-0.015v0.18h0.015V13.05z M57.39,11.569l-0.045-0.015l-0.149,1.24h0.029C57.271,12.392,57.33,11.973,57.39,11.569z M58.108,7.712
		c-0.209,0.329-0.702,3.169-0.702,3.648v0.075C57.614,10.194,57.794,8.938,58.108,7.712z M57.435,14.305v-0.149h-0.015v0.149H57.435
		z M57.435,13.932h0.015v-0.03h-0.015V13.932z M57.495,13.334H57.48l-0.015,0.284h0.015L57.495,13.334z M57.54,12.975h-0.015
		c0,0.075-0.016,0.135-0.016,0.209h0.03V12.975z M57.57,12.721v0.074c0.134-0.867,0.253-1.734,0.419-2.586
		c0.164-0.867,0.358-1.72,0.538-2.586C58.258,7.967,57.57,12.108,57.57,12.721z M59.006,7.563L58.87,7.578
		c-0.374,1.226-0.598,2.512-0.807,3.768c-0.195,1.286-0.404,2.601-0.404,3.902c0,0.224,0,0.463,0.03,0.688
		C57.809,13.109,58.287,10.299,59.006,7.563z M57.884,6.785v0.03l0.06-0.089C57.914,6.726,57.884,6.755,57.884,6.785z
		 M57.973,14.425h-0.015v0.044h0.015V14.425z M58.018,14.022v-0.075c-0.015,0.015-0.015,0.044-0.015,0.075H58.018z M58.078,13.528
		v-0.045h-0.015v0.045H58.078z M58.123,13.125h-0.015v0.06h0.015V13.125z M58.168,12.811h-0.015v0.06L58.168,12.811z M58.213,12.587
		c-0.016-0.015-0.016-0.045-0.016-0.06h-0.015c0,0.015,0,0.045,0.015,0.06H58.213z M58.242,12.227h-0.015v0.105h0.015V12.227z
		 M58.287,11.973h-0.015v0.06h0.015V11.973z M58.302,9.327v0.045h0.016V9.327H58.302z M58.332,11.794v-0.12h-0.015v0.12H58.332z
		 M58.347,9.133c0,0.03,0,0.044-0.015,0.074h0.015l0.016-0.074H58.347z M58.377,11.54V11.45h-0.03v0.089H58.377z M58.377,9.013
		h0.015v-0.03L58.377,9.013z M58.422,11.3c0-0.03,0-0.044-0.016-0.075h-0.015V11.3H58.422z M58.422,8.789v0.044h0.015V8.789H58.422z
		 M58.452,11.047v-0.06h-0.015v0.06H58.452z M58.497,10.867v-0.105h-0.015l-0.016,0.105H58.497z M58.511,8.46l-0.029,0.045h0.029
		V8.46z M58.497,6.486l0.015-0.015C58.497,6.472,58.497,6.472,58.497,6.486z M58.542,10.642c0-0.03,0-0.06-0.015-0.089h-0.016v0.089
		H58.542z M58.527,8.325l0.015,0.015l0.029-0.06L58.527,8.325z M58.571,10.329h-0.015v0.119h0.015V10.329z M58.616,10.239v-0.105
		h-0.015l-0.015,0.09C58.601,10.239,58.601,10.239,58.616,10.239z M58.601,8.101l0.03-0.075l-0.03-0.015V8.101z M58.646,9.94h-0.015
		v0.105h0.015V9.94z M58.646,7.877v0.03c0.015-0.015,0.015-0.015,0.015-0.03H58.646z M58.691,9.835V9.746h-0.016v0.089H58.691z
		 M58.736,9.566l-0.03,0.075l0.03,0.015V9.566z M58.796,9.387c-0.03,0-0.06,0.03-0.06,0.06c0,0.03,0.015,0.045,0.015,0.075
		L58.796,9.387z M58.78,9.297c0,0.03,0.016,0.045,0.016,0.075l0.045-0.15C58.811,9.238,58.78,9.252,58.78,9.297z M58.825,6.636
		c0.121-0.12,0.135-0.284,0.164-0.434C58.87,6.322,58.856,6.486,58.825,6.636z M58.841,9.207c0-0.044,0.015-0.089,0.015-0.135h-0.03
		C58.825,9.118,58.825,9.163,58.841,9.207z M58.885,8.983V8.908c-0.015,0.03-0.029,0.045-0.029,0.075H58.885z M58.901,8.819
		c-0.016,0.015-0.016,0.03-0.016,0.045l0.016-0.015V8.819z M58.93,8.714l0.016-0.045C58.93,8.684,58.93,8.699,58.93,8.714z
		 M58.975,8.535L58.96,8.55c0,0.044-0.015,0.074-0.015,0.119l0.029-0.119V8.535z M59.049,8.295c-0.074,0.06-0.074,0.15-0.074,0.239
		C59.006,8.46,59.035,8.37,59.049,8.295z M59.006,6.172c-0.016,0.015-0.016,0.015-0.016,0.03C58.99,6.188,59.006,6.188,59.006,6.172
		z M59.125,8.026c-0.045,0.045-0.075,0.105-0.075,0.164c0,0.03,0,0.06,0.016,0.09C59.08,8.191,59.094,8.116,59.125,8.026z
		 M59.049,8.295h0.016V8.281L59.049,8.295z M59.08,5.096c0.015-0.015,0.015-0.015,0.015-0.03C59.094,5.081,59.08,5.081,59.08,5.096z
		 M59.125,4.962l-0.03,0.075C59.11,5.021,59.125,4.991,59.125,4.962z M59.154,4.901l-0.029,0.06
		C59.139,4.946,59.154,4.917,59.154,4.901z M59.125,7.967l0.045-0.105v-0.06C59.139,7.862,59.139,7.907,59.125,7.967z M59.244,7.593
		v-0.06l-0.06,0.165C59.229,7.682,59.244,7.637,59.244,7.593z M59.782,5.275c-0.045,0.075-0.105,0.135-0.15,0.195
		c-0.074,0.135-0.418,0.987-0.418,1.106h0.029c0.075,0,0.105-0.06,0.119-0.119C59.513,6.068,59.632,5.679,59.782,5.275z
		 M59.304,4.693c-0.015,0.015-0.029,0.044-0.029,0.06C59.289,4.737,59.304,4.707,59.304,4.693z M59.289,5.41l0.045-0.03h-0.045V5.41
		z M59.379,4.528c-0.03,0.06-0.06,0.105-0.075,0.165l0.075-0.135V4.528z"/>
	<path class="st0" d="M60.129,12.316c0.099-0.089,0.217-0.144,0.351-0.164c0.135-0.02,0.262-0.007,0.382,0.037
		c0.119,0.045,0.222,0.122,0.307,0.232c0.084,0.11,0.122,0.25,0.112,0.419c-0.01,0.239-0.088,0.416-0.233,0.531
		c-0.144,0.114-0.304,0.169-0.478,0.164c-0.174-0.005-0.329-0.067-0.464-0.187c-0.134-0.12-0.202-0.284-0.202-0.494V12.84v-0.015
		c0-0.05,0.01-0.105,0.03-0.164c0.019-0.09,0.052-0.184,0.097-0.284s0.122-0.17,0.231-0.209
		C60.203,12.227,60.158,12.277,60.129,12.316z M60.757,13.424c0.119-0.03,0.214-0.087,0.284-0.172
		c0.069-0.085,0.117-0.177,0.142-0.276c0.024-0.1,0.027-0.2,0.007-0.299c-0.019-0.099-0.05-0.174-0.09-0.224
		c0.1,0.209,0.11,0.411,0.03,0.606C61.051,13.251,60.926,13.374,60.757,13.424z M60.907,12.675c0.019,0.04,0.027,0.11,0.022,0.209
		c-0.005,0.1-0.047,0.175-0.127,0.225c0.079-0.02,0.129-0.085,0.15-0.195C60.972,12.805,60.957,12.725,60.907,12.675z"/>
	<path class="st0" d="M63.315,12.316c0.099-0.089,0.217-0.144,0.351-0.164c0.135-0.02,0.262-0.007,0.382,0.037
		c0.119,0.045,0.222,0.122,0.307,0.232c0.084,0.11,0.122,0.25,0.112,0.419c-0.01,0.239-0.088,0.416-0.233,0.531
		c-0.144,0.114-0.304,0.169-0.478,0.164c-0.174-0.005-0.329-0.067-0.464-0.187c-0.134-0.12-0.202-0.284-0.202-0.494V12.84v-0.015
		c0-0.05,0.01-0.105,0.03-0.164c0.019-0.09,0.052-0.184,0.097-0.284s0.122-0.17,0.231-0.209
		C63.389,12.227,63.344,12.277,63.315,12.316z M63.943,13.424c0.119-0.03,0.214-0.087,0.284-0.172
		c0.069-0.085,0.117-0.177,0.142-0.276c0.024-0.1,0.027-0.2,0.007-0.299c-0.019-0.099-0.05-0.174-0.09-0.224
		c0.1,0.209,0.11,0.411,0.03,0.606C64.236,13.251,64.112,13.374,63.943,13.424z M64.093,12.675c0.019,0.04,0.027,0.11,0.022,0.209
		c-0.005,0.1-0.047,0.175-0.127,0.225c0.079-0.02,0.129-0.085,0.15-0.195C64.157,12.805,64.143,12.725,64.093,12.675z"/>
	<path class="st0" d="M66.203,12.316c0.099-0.089,0.217-0.144,0.351-0.164c0.135-0.02,0.262-0.007,0.382,0.037
		c0.119,0.045,0.222,0.122,0.307,0.232c0.084,0.11,0.122,0.25,0.112,0.419c-0.01,0.239-0.088,0.416-0.233,0.531
		c-0.144,0.114-0.304,0.169-0.478,0.164c-0.174-0.005-0.329-0.067-0.464-0.187c-0.134-0.12-0.202-0.284-0.202-0.494V12.84v-0.015
		c0-0.05,0.01-0.105,0.03-0.164c0.019-0.09,0.052-0.184,0.097-0.284c0.045-0.1,0.122-0.17,0.231-0.209
		C66.277,12.227,66.232,12.277,66.203,12.316z M66.831,13.424c0.119-0.03,0.214-0.087,0.284-0.172
		c0.069-0.085,0.117-0.177,0.142-0.276c0.024-0.1,0.027-0.2,0.007-0.299c-0.019-0.099-0.05-0.174-0.09-0.224
		c0.1,0.209,0.11,0.411,0.03,0.606C67.124,13.251,67,13.374,66.831,13.424z M66.98,12.675c0.019,0.04,0.027,0.11,0.022,0.209
		c-0.005,0.1-0.047,0.175-0.127,0.225c0.079-0.02,0.129-0.085,0.15-0.195C67.045,12.805,67.03,12.725,66.98,12.675z"/>
</g>
</svg>
