<?xml version="1.0" encoding="utf-8"?>
<!-- Generator: Adobe Illustrator 21.1.0, SVG Export Plug-In . SVG Version: 6.00 Build 0)  -->
<svg version="1.1" id="Layer_1" xmlns="http://www.w3.org/2000/svg" xmlns:xlink="http://www.w3.org/1999/xlink" x="0px" y="0px"
	 viewBox="0 0 70 30" style="enable-background:new 0 0 70 30;" xml:space="preserve">
<style type="text/css">
	.st0{opacity:0.66;}
	.st1{fill:#FFFFFF;}
</style>
<g id="sQBKPf_1_" class="st0">
	<g>
		<path class="st1" d="M43.146,11.681c0.042,0,0.083,0,0.125-0.001c-0.005-0.005-0.01-0.01-0.015-0.015
			c0.075-0.02,0.148-0.041,0.226-0.058c0.074-0.016,0.161-0.023,0.226-0.043c0.11-0.033,0.193-0.041,0.273-0.001
			c-0.105,0.08-0.32,0.028-0.435,0.092c0.018,0.013,0.048,0.034,0.086,0.062c0.036-0.011,0.071-0.02,0.104-0.03
			c0.153-0.047,0.376-0.019,0.417,0.041c0.036,0.053,0.119,0.098,0.181,0.147c0.024,0.019,0.077,0.041,0.06,0.057
			c-0.024,0.023-0.097,0.052-0.157,0.06c-0.391,0.056-0.782,0.11-1.175,0.158c-0.164,0.02-0.212,0.053-0.209,0.108
			c0.006,0.105-0.027,0.121-0.307,0.138c-0.234,0.014-0.467,0.022-0.701,0.036c-0.066,0.004-0.134,0.019-0.213,0.031
			c0.187,0.095,0.159,0.204,0.095,0.32c-0.29,0.001-0.562-0.002-0.839,0.006c-0.329,0.01-0.663,0.032-0.994,0.043
			c-0.08,0.003-0.153-0.025-0.23-0.019c-0.177,0.014-0.356,0.039-0.534,0.06c0,0.011,0,0.021,0,0.032
			c0.193-0.006,0.385-0.013,0.577-0.018c0.079-0.002,0.156-0.001,0.233,0.002c0.152,0.004,0.229,0.022,0.195,0.098
			c-0.046,0.103-0.03,0.204-0.045,0.306c-0.004,0.03-0.022,0.061-0.037,0.1c-0.27-0.011-0.575,0.006-0.766-0.038
			c-0.211-0.048-0.426-0.012-0.64-0.008c-0.243,0.005-0.491,0.024-0.738,0.038c-0.13,0.008-0.279,0.047-0.353-0.019
			c-0.014-0.012-0.148,0.003-0.28,0.008c0.108-0.016,0.166-0.024,0.212-0.031c-0.037-0.027-0.073-0.053-0.117-0.085
			c-0.665,0.047-1.348,0.096-2.061,0.146c0.029-0.01,0.065-0.032,0.099-0.035c0.359-0.028,0.717-0.053,1.076-0.079
			c0.407-0.029,0.815-0.059,1.225-0.104c-0.173,0.007-0.345,0.011-0.518,0.023c-0.712,0.05-1.424,0.104-2.135,0.155
			c-0.059,0.004-0.116-0.006-0.163-0.026c-0.012,0.001-0.03,0-0.035,0.003c-0.167,0.079-0.365,0.085-0.579,0.095
			c-0.283,0.013-0.572,0.041-0.86,0.05c0.248-0.025,0.496-0.05,0.745-0.075c0-0.007,0-0.015,0-0.022
			c-0.221,0.017-0.442,0.03-0.662,0.05c-0.654,0.061-1.308,0.127-1.962,0.189c-0.296,0.028-0.594,0.046-0.889,0.078
			c-0.252,0.028-0.501,0.071-0.752,0.106c-0.091,0.013-0.184,0.022-0.276,0.032c-0.473,0.049-0.946,0.095-1.419,0.147
			c-0.37,0.041-0.74,0.088-1.109,0.134c-0.253,0.032-0.517,0.089-0.754,0.092c-0.227,0.003-0.382,0.065-0.574,0.086
			c-0.173,0.019-0.347,0.036-0.523,0.042c0.285-0.083,0.585-0.132,0.903-0.158c0.096-0.008,0.193-0.028,0.29-0.043
			c0.035-0.006,0.076-0.022,0.101-0.02c0.2,0.013,0.371-0.049,0.556-0.075c0.25-0.035,0.5-0.075,0.752-0.103
			c0.951-0.104,1.904-0.203,2.855-0.307c0.257-0.028,0.511-0.072,0.768-0.1c0.224-0.025,0.45-0.037,0.675-0.056
			c0.539-0.046,1.078-0.09,1.617-0.14c0.636-0.059,1.272-0.122,1.907-0.184c0.066-0.007,0.132-0.019,0.199-0.028
			c0-0.009,0-0.017,0-0.026c-0.295,0.024-0.59,0.047-0.885,0.071c-0.006,0-0.012,0.003-0.018,0.003
			c-0.27,0.012-0.545,0.064-0.814,0.04c-0.125-0.011-0.292,0.004-0.436,0.022c-0.422,0.051-0.836,0.063-1.253,0.083
			c-0.025,0.001-0.059-0.002-0.072,0.003c-0.261,0.101-0.525,0.05-0.787,0.073c-0.384,0.034-0.769,0.073-1.153,0.111
			c-0.408,0.041-0.819,0.073-1.221,0.127c-0.382,0.052-0.746,0.033-1.127,0.084c-0.374,0.051-0.756,0.075-1.133,0.118
			c-0.463,0.052-0.925,0.111-1.388,0.167c-0.067,0.008-0.138,0.009-0.202,0.02c-0.052,0.009-0.108,0.026-0.141,0.044
			c-0.072,0.039-0.137,0.061-0.25,0.044c-0.062-0.009-0.132-0.028-0.208,0.027c-0.035,0.025-0.179,0.039-0.276,0.052
			c-0.535,0.071-1.071,0.138-1.605,0.212c-0.083,0.011-0.154,0.049-0.236,0.07c-0.121,0.031-0.244,0.066-0.373,0.085
			c-0.37,0.055-0.743,0.103-1.139,0.157c0.02-0.041,0.03-0.061,0.036-0.073c-0.158-0.033-0.302-0.064-0.447-0.094
			c0.164-0.078,0.339-0.106,0.56-0.121c0.294-0.021,0.592-0.068,0.887-0.107c0.565-0.075,1.129-0.153,1.694-0.229
			c0.645-0.087,1.29-0.174,1.935-0.261c0.036-0.005,0.07-0.012,0.102-0.029c-0.572,0.058-1.144,0.112-1.715,0.175
			c-0.262,0.029-0.523,0.076-0.781,0.119c-0.112,0.019-0.215,0.059-0.327,0.072c-0.129,0.016-0.269,0.025-0.341-0.03
			c-0.019-0.015-0.138-0.009-0.213-0.005c-0.251,0.013-0.504,0.033-0.754,0.042c-0.106,0.004-0.203-0.015-0.308-0.035
			c0.211-0.057,0.025-0.175,0.376-0.203c-0.076-0.098-0.147-0.188-0.227-0.292c0.322,0.028,0.352,0.024,0.579-0.073
			c-0.219-0.024-0.442-0.052-0.23-0.165c-0.106-0.032-0.224-0.054-0.294-0.092c-0.083-0.045-0.018-0.085,0.15-0.109
			c1.03-0.145,2.057-0.297,3.09-0.433c0.76-0.1,1.526-0.181,2.29-0.268c0.072-0.008,0.147-0.007,0.218-0.007
			c0.076,0,0.119-0.002,0.201-0.033c0.094-0.035,0.265-0.041,0.403-0.054c0.137-0.013,0.301-0.003,0.406-0.033
			c0.245-0.07,0.497-0.063,0.743-0.099c0.114-0.017,0.231-0.024,0.361-0.024c-0.066,0.021-0.132,0.041-0.24,0.075
			c0.405-0.041,0.759-0.077,1.114-0.113c0.005,0.003,0.009,0.005,0.014,0.008c-0.065,0.015-0.13,0.034-0.197,0.043
			c-1.172,0.146-2.343,0.292-3.515,0.435c-0.287,0.035-0.577,0.059-0.895,0.091c0.055-0.019,0.09-0.03,0.125-0.042
			c-0.002-0.004-0.004-0.008-0.006-0.012c-0.381,0.051-0.762,0.102-1.143,0.153c0,0.004,0,0.007,0,0.011
			c0.158-0.016,0.317-0.032,0.475-0.048c0.003,0.007,0.006,0.014,0.009,0.021c-0.496,0.074-0.992,0.148-1.488,0.221
			c-0.001,0.004-0.002,0.008-0.003,0.012c0.361-0.031,0.723-0.063,1.084-0.091c0.38-0.03,0.749-0.085,1.122-0.143
			c0.368-0.058,0.748-0.091,1.126-0.131c-0.19,0.031-0.381,0.062-0.571,0.093c0.001,0.005,0.002,0.01,0.003,0.014
			c0.062-0.006,0.125-0.014,0.187-0.019c0.346-0.029,0.692-0.056,1.038-0.088c0.167-0.016,0.333-0.047,0.5-0.061
			c0.341-0.029,0.682-0.051,1.022-0.075c0.056-0.004,0.111-0.005,0.167-0.011c0.644-0.064,1.288-0.129,1.932-0.194
			c0.582-0.06,1.163-0.12,1.744-0.183c0.1-0.011,0.198-0.035,0.298-0.051c0.053-0.009,0.114-0.021,0.162-0.02
			c0.422,0.011,0.847-0.064,1.271-0.102c0.203-0.018,0.406-0.048,0.609-0.065c0.113-0.009,0.227,0.007,0.339-0.004
			c0.394-0.037,0.78-0.043,1.169-0.063c0.394-0.02,0.791-0.05,1.184-0.069c0.689-0.033,1.381-0.071,2.065-0.09
			c0.87-0.025,1.733-0.034,2.599-0.048c0.11-0.002,0.214,0.009,0.346,0.015c-0.031-0.022-0.045-0.032-0.06-0.043L43.146,11.681z
			 M36.186,12.939c0.085,0.002,0.172,0.014,0.254,0.004c0.183-0.023,0.362-0.057,0.591-0.094c-0.103,0.002-0.161,0-0.22,0.004
			C36.597,12.866,36.408,12.948,36.186,12.939c0.039-0.017,0.079-0.035,0.131-0.058c-0.534,0.036-0.534,0.036-0.567,0.009
			c0.241-0.024,0.478-0.048,0.714-0.072c-0.364,0.02-0.728,0.046-1.091,0.075c-0.05,0.004-0.101,0.023-0.152,0.035
			c0.005,0.005,0.01,0.01,0.015,0.015c0.096-0.017,0.191-0.033,0.287-0.05c0.004,0.007,0.009,0.015,0.013,0.022
			c-0.167,0.089-0.404,0.068-0.619,0.102c0.003-0.027,0.005-0.045,0.009-0.078c-0.674,0.068-1.335,0.135-1.996,0.202
			c-0.001-0.007-0.002-0.014-0.004-0.021c0.172-0.022,0.344-0.043,0.516-0.065c-0.002-0.006-0.003-0.013-0.005-0.019
			c-1.43,0.16-2.86,0.319-4.29,0.479c0.002,0.009,0.003,0.019,0.005,0.028c0.668-0.075,1.336-0.15,2.015-0.227
			c0.001,0.014,0.003,0.029,0.005,0.047c0.089-0.007,0.169-0.011,0.248-0.018c0.451-0.04,0.903-0.085,1.353-0.118
			c0.482-0.036,0.963-0.053,1.444-0.095c0.214-0.019,0.411-0.039,0.628-0.038c0.252,0.002,0.532-0.039,0.799-0.062
			c0.001-0.006,0.001-0.011,0.002-0.017c-0.105,0.005-0.211,0.01-0.316,0.015c0.162-0.025,0.32-0.032,0.479-0.046
			C35.936,12.974,36.061,12.955,36.186,12.939z M36.663,12.969c0,0.008-0.001,0.015-0.001,0.023
			c0.166-0.006,0.332-0.011,0.499-0.019c0.304-0.016,0.608,0.004,0.915-0.078c0.025-0.007,0.09,0.001,0.115,0.011
			c0.089,0.034,0.301,0.035,0.413,0.005c-0.034-0.022-0.066-0.043-0.102-0.067c-0.032,0.014-0.072,0.032-0.083,0.038
			c-0.124-0.011-0.224-0.02-0.291-0.026c0.054-0.024,0.13-0.058,0.206-0.092c-0.014-0.007-0.028-0.013-0.042-0.02
			c-0.101,0.005-0.202,0.011-0.314,0.017c0.036-0.009,0.065-0.016,0.11-0.027c-0.316-0.043-0.591,0.047-0.873,0.096
			c-0.011,0.002-0.014,0.013-0.027,0.016c-0.087,0.025-0.086,0.085-0.245,0.086C36.855,12.932,36.756,12.956,36.663,12.969z
			 M26.106,12.721c0.002,0.009,0.005,0.017,0.007,0.026c0.15-0.019,0.299-0.04,0.449-0.057c0.238-0.028,0.477-0.049,0.714-0.08
			c0.28-0.036,0.558-0.079,0.837-0.119c0.012-0.002,0.022-0.009,0.072-0.031C27.451,12.517,26.785,12.642,26.106,12.721z
			 M21.963,13.769c-0.004,0.007-0.007,0.013-0.011,0.02c0.382,0.047,0.994,0.025,1.355-0.051c-0.243,0.015-0.476,0.037-0.702,0.042
			C22.387,13.785,22.177,13.773,21.963,13.769z M29.197,12.34c-0.28,0.028-0.581,0.059-0.882,0.089
			C28.468,12.47,29.073,12.392,29.197,12.34z M37.795,13.286c-0.002,0.007-0.005,0.014-0.007,0.022
			c0.147,0.021,0.289,0.09,0.44-0.031C38.088,13.28,37.941,13.283,37.795,13.286z M31.671,13.057
			c-0.001-0.005-0.002-0.011-0.002-0.016c-0.324,0.033-0.648,0.066-0.972,0.098c0.001,0.005,0.001,0.011,0.002,0.016
			C31.023,13.122,31.347,13.089,31.671,13.057z M39.851,12.775c0.002-0.007,0.003-0.014,0.005-0.022
			c-0.177,0.008-0.354,0.016-0.531,0.024c-0.002,0.011-0.005,0.021-0.007,0.032C39.495,12.798,39.673,12.786,39.851,12.775z
			 M30.33,13.145c0-0.003-0.001-0.007-0.001-0.01c-0.299,0.03-0.598,0.061-0.898,0.091c0,0.003,0.001,0.007,0.001,0.01
			C29.732,13.205,30.031,13.175,30.33,13.145z M24.759,13.231c0.002,0.007,0.005,0.013,0.007,0.02
			c0.155-0.016,0.31-0.031,0.465-0.047c-0.001-0.007-0.002-0.014-0.002-0.02C25.072,13.199,24.916,13.215,24.759,13.231z
			 M31.91,12.984c0-0.004-0.001-0.008-0.001-0.012c-0.179,0.018-0.358,0.036-0.537,0.054c0,0.004,0.001,0.008,0.001,0.012
			C31.552,13.02,31.731,13.002,31.91,12.984z M39.531,12.676c-0.193,0.026-0.396-0.035-0.589,0.06
			C39.143,12.716,39.337,12.696,39.531,12.676z"/>
		<path class="st1" d="M25.066,14.364c-0.041,0.014-0.079,0.034-0.123,0.04c-0.219,0.032-0.441,0.058-0.659,0.092
			c-0.095,0.015-0.229,0.02-0.241,0.083c-0.002,0.011-0.108,0.029-0.167,0.043c-0.09,0.021-0.182,0.041-0.272,0.061
			c0.006,0.007,0.011,0.014,0.017,0.021c0.113-0.016,0.226-0.031,0.34-0.047c0.003,0.007,0.007,0.013,0.01,0.02
			c-0.168,0.037-0.334,0.077-0.505,0.111c-0.038,0.008-0.115,0.003-0.134-0.008c-0.089-0.052-0.164-0.107-0.26-0.172
			c0.612-0.133,1.288-0.18,1.948-0.267C25.034,14.348,25.05,14.356,25.066,14.364z"/>
		<path class="st1" d="M43.136,11.686c-0.206-0.006-0.45,0.018-0.58-0.058c0.24-0.028,0.468-0.057,0.697-0.081
			c0.064-0.007,0.13,0.004,0.188,0.021c-0.127,0.013-0.254,0.026-0.416,0.042c0.05,0.029,0.085,0.05,0.121,0.071
			C43.146,11.681,43.136,11.686,43.136,11.686z"/>
		<path class="st1" d="M35.154,13.42c-0.346,0.035-0.693,0.07-1.039,0.105c-0.002-0.005-0.003-0.01-0.005-0.015
			c0.168-0.018,0.336-0.039,0.505-0.054c0.175-0.016,0.349-0.025,0.524-0.038C35.144,13.419,35.149,13.419,35.154,13.42z"/>
		<path class="st1" d="M28.06,13.759c0.206-0.021,0.412-0.042,0.618-0.063c-0.206,0.047-0.411,0.093-0.623,0.09
			C28.057,13.777,28.058,13.768,28.06,13.759z"/>
		<path class="st1" d="M36.653,13.41c-0.17,0.017-0.34,0.034-0.509,0.052c-0.001-0.004-0.002-0.009-0.003-0.013
			c0.169-0.017,0.339-0.034,0.508-0.051C36.65,13.401,36.651,13.406,36.653,13.41z"/>
		<path class="st1" d="M30.795,12.18c0.119-0.012,0.237-0.024,0.356-0.036c-0.117,0.042-0.236,0.075-0.362,0.061
			C30.79,12.197,30.793,12.189,30.795,12.18z"/>
		<path class="st1" d="M37.412,12.937c0.071-0.103,0.223-0.115,0.505-0.098C37.728,12.876,37.576,12.905,37.412,12.937z"/>
	</g>
</g>
<g>
	<path class="st1" d="M2.741,4.223c0.292,0,1.042-0.292,1.347-0.394C3.364,4.821,2.296,7.681,2.296,8.914
		c0,0.61,0.305,1.042,0.902,1.182c0.051,0.013,0.114,0.025,0.165,0.025c0.267,0,0.928-0.75,1.119-0.966
		c0.191-0.216,1.36-1.602,1.5-1.691c-0.076,0.343-0.178,0.686-0.267,1.03C5.627,8.825,5.55,9.168,5.449,9.498
		c-0.114,0.407-0.28,0.801-0.419,1.195c-0.089,0.242-0.165,0.496-0.292,0.712L4.61,11.43v-0.038c0-0.013,0.025-0.051,0.038-0.064
		l-0.114,0.051l0.013-0.14l-0.178,0.064l0.064-0.14c-0.267,0.114-0.597,0.394-0.814,0.597c-0.724,0.674-1.385,1.614-1.385,2.644
		c0,0.267,0.013,0.496,0.216,0.686c0.229,0.216,0.521,0.356,0.839,0.356c0.991,0,1.652-1.385,2.034-2.148
		c0.153-0.305,0.254-0.623,0.369-0.941c0.191-0.559,0.381-1.106,0.559-1.665C6.377,10.286,6.504,9.88,6.605,9.46
		c0.102-0.381,0.178-0.763,0.28-1.131L7.47,6.181C7.66,5.469,7.915,4.782,8.169,4.096c0.038-0.114,0.216-0.547,0.216-0.623
		c0-0.064-0.025-0.127-0.076-0.165L8.245,3.321l0.013-0.127L8.143,3.155c0.038-0.064-0.038-0.102-0.089-0.127L7.94,3.092
		c0-0.038,0.038-0.089,0.064-0.114C7.978,2.952,7.927,2.901,7.889,2.901S7.838,2.927,7.813,2.952
		C7.368,3.435,7.05,4.121,6.821,4.732C6.745,4.935,6.669,5.138,6.567,5.329c-0.076,0.14-0.178,0.254-0.28,0.369
		c-0.915,1.106-1.856,2.174-2.873,3.19c0-0.699,0.839-2.771,1.144-3.483c0.165-0.381,0.343-0.763,0.534-1.144
		C5.22,4.007,5.487,3.613,5.487,3.321c0-0.267-0.394-0.559-0.572-0.737C4.648,2.609,4.178,2.85,3.911,2.965
		C3.542,3.13,2.728,3.499,2.347,3.499c-0.089,0-0.153-0.051-0.242-0.051c-0.064,0-0.102,0.064-0.102,0.114
		C2.004,3.88,2.436,4.223,2.741,4.223z M4.877,12.015H4.839L4.826,11.99L4.877,12.015z M5.067,12.256
		c-0.064,0.153-0.102,0.305-0.165,0.458L4.813,12.79C4.877,12.612,4.94,12.384,5.067,12.256z M3.313,12.828
		c-0.013,0.051-0.051,0.127-0.089,0.165C3.25,12.943,3.275,12.879,3.313,12.828z M3.186,13.07c-0.153,0.343-0.242,0.75-0.394,1.08
		C2.792,13.731,2.983,13.413,3.186,13.07z M2.462,13.947l-0.025-0.025c0.013,0,0.038,0,0.051-0.013L2.462,13.947z M2.627,13.375
		c0.025-0.025,0.038-0.076,0.064-0.102c0,0.038-0.14,0.292-0.165,0.381C2.551,13.553,2.614,13.464,2.627,13.375z M2.703,13.756
		l-0.038-0.025h0.038V13.756z M2.779,14.227c0-0.013,0-0.051,0.013-0.064l0.013,0.076C2.792,14.239,2.792,14.227,2.779,14.227z
		 M3.046,14.646c-0.013-0.076-0.025-0.165-0.025-0.242c0-0.114,0.025-0.242,0.051-0.356c0.229-0.991,0.839-1.741,1.589-2.39
		C4.241,12.714,3.834,13.795,3.046,14.646z M4.419,13.045v-0.064L4.8,12.104c-0.064,0.318-0.229,0.61-0.343,0.915L4.419,13.045z
		 M4.559,13.972l-0.013,0.013c0-0.013,0-0.013,0.013-0.025V13.972z M4.635,13.896l0.013-0.114c0.267-0.483,0.445-1.004,0.674-1.513
		c0.025-0.051,0.051-0.114,0.089-0.153C5.283,12.752,4.927,13.324,4.635,13.896z M6.249,6.371h0.013
		C6.249,6.384,6.237,6.384,6.224,6.384C6.237,6.384,6.237,6.384,6.249,6.371z M5.372,7.083h0.025
		C5.385,7.121,5.36,7.147,5.334,7.172L5.372,7.083z M5.118,8.011c0.203-0.305,0.725-0.864,0.979-1.169
		C6.11,6.829,6.122,6.816,6.148,6.816C5.69,7.414,5.182,7.96,4.711,8.532c-0.076,0.089-0.178,0.14-0.254,0.229
		C4.622,8.519,4.991,8.202,5.118,8.011z M4.279,8.939C4.317,8.926,4.33,8.888,4.368,8.863L4.355,8.901L4.267,8.977L4.279,8.939z
		 M3.822,9.409l0.013,0.025L3.809,9.447H3.784L3.822,9.409z M3.491,7.21L3.478,7.198h0.013V7.21z M3.644,6.765L3.618,6.753
		l0.038-0.051C3.656,6.727,3.656,6.74,3.644,6.765z M3.784,6.384V6.346l0.013,0.013L3.784,6.384z M3.834,6.206V6.193l0.013,0.013
		H3.834z M3.923,5.965c0,0.013,0,0.013-0.013,0.013c0-0.013,0-0.013,0.013-0.025V5.965z M4.419,4.833l0.013,0.013H4.419V4.833z
		 M4.228,5.24l0.013-0.013V5.24L4.228,5.253V5.24z M4.216,5.329v0.013L4.203,5.329H4.216z"/>
	<path class="st1" d="M7.33,8.85v0.153c0,0.788,0.585,1.449,1.385,1.449c0.089,0,0.178-0.013,0.267-0.025
		c0.305-0.051,0.508-0.216,0.725-0.419c0.725-0.674,1.538-1.869,1.538-2.898c0-0.547-0.648-1.22-1.195-1.22
		c-0.559,0-1.042,0.737-1.347,1.131L8.474,6.918C7.863,6.918,7.33,8.329,7.33,8.85z M8.13,8.176V8.151h0.025
		C8.143,8.164,8.143,8.176,8.13,8.176z M10.444,8.964h-0.013l0.013-0.013V8.964z M9.719,9.651C9.732,9.6,9.77,9.562,9.795,9.524
		c0.318-0.407,0.623-0.814,0.864-1.271C10.673,8.647,9.973,9.358,9.719,9.651z M9.745,9.015c0-0.051,0.216-0.305,0.28-0.394
		C9.948,8.774,9.859,8.914,9.745,9.015z M10.228,8.685c-0.076,0.14-0.191,0.267-0.28,0.407H9.935V9.079L10.228,8.685z M9.859,6.575
		c0.013,0,0.013-0.013,0.025-0.013h0.013v0.013C9.605,6.867,9.376,7.198,9.122,7.528C9.185,7.198,9.592,6.765,9.859,6.575z
		 M9.198,7.032c0-0.051,0.165-0.216,0.216-0.267C9.351,6.854,9.262,6.931,9.198,7.032z M9.579,6.308h0.025
		C9.49,6.409,9.071,6.829,9.033,6.931L8.995,6.956C9.16,6.714,9.351,6.498,9.579,6.308z M9.262,8.38
		c0.051,0,0.102-0.038,0.127-0.076C9.287,8.227,9.211,8.125,9.211,7.998c0-0.407,0.877-1.462,1.297-1.462
		c0.025,0.051,0.038,0.114,0.038,0.165c0,0.089-0.025,0.165-0.038,0.254c-0.203,1.131-1.106,2.58-2.263,2.898
		C8.194,9.676,8.181,9.498,8.181,9.32c0-0.508,0.178-0.991,0.369-1.462C8.74,8.1,8.906,8.38,9.262,8.38z M8.55,7.375L8.537,7.401
		C8.524,7.49,8.27,7.884,8.207,7.973C8.283,7.757,8.385,7.541,8.55,7.375z M8.372,7.312C8.359,7.375,8.308,7.452,8.257,7.49
		L8.372,7.312z M8.245,7.21L8.041,7.439C8.092,7.35,8.143,7.261,8.245,7.21z"/>
	<path class="st1" d="M11.371,10.21c0.165,0.114,0.356,0.178,0.559,0.178c0.153,0,0.254-0.038,0.356-0.14
		c0.369-0.343,0.674-0.763,0.966-1.182c0,0.267-0.025,0.547-0.025,0.813c0,0.445,0.267,0.725,0.712,0.725
		c0.61,0,1.055-0.839,1.335-1.297c0.102-0.165,0.203-0.331,0.292-0.508l-0.051-0.038c-0.051,0.051-0.064,0.089-0.064,0.153
		l-0.051,0.089h0.013v0.013l-0.013-0.013c-0.051,0.076-0.114,0.14-0.191,0.191c0.089-0.127,0.191-0.242,0.254-0.381
		c-0.01,0.01-0.029,0.009-0.045,0.013c0.457-0.774,0.797-1.604,0.909-2.517c0.229,0.102,0.585,0.229,0.585,0.534
		c0,0.191-0.14,0.597-0.216,0.788c-0.305,0.813-0.839,2.199-0.839,3.051c0,0.699,0.33,1.589,1.157,1.589
		c0.191,0,0.572-0.076,0.572-0.318c0-0.051-0.013-0.102-0.038-0.153h-0.102l-0.064,0.076l-0.013-0.013l0.013-0.102l-0.356-0.089
		c-0.064-0.153-0.089-0.331-0.089-0.496c0-0.699,0.407-1.754,0.636-2.428c0.127-0.381,0.369-1.017,0.369-1.398
		c0-0.28-0.102-0.496-0.305-0.686c-0.369-0.343-0.839-0.597-1.271-0.852c-0.013-0.28-0.051-0.559-0.076-0.839
		c-0.051-0.445-0.305-0.839-0.725-1.017c-0.102-0.051-0.203-0.076-0.318-0.076c-0.369,0-0.674,0.419-0.674,0.763
		c0,0.674,0.674,1.042,1.157,1.373c-0.216,1.182-0.636,2.263-1.271,3.279c-0.107,0.165-0.22,0.316-0.341,0.463
		c0.003-0.021,0.036-0.121,0.036-0.133c0.216-0.801,0.369-1.64,0.648-2.428c0.076-0.203,0.242-0.508,0.242-0.712
		c0,0-0.013-0.025-0.013-0.038l-0.038,0.051c-0.025,0-0.051-0.013-0.064-0.038h-0.025l-0.089,0.089l0.038-0.14
		c-0.114-0.025-0.242-0.127-0.343-0.127c-0.076,0-0.229,0.102-0.28,0.165c-0.343,0.419-0.445,0.991-0.763,1.411
		c-0.458,0.61-0.902,1.22-1.462,1.754c0.076-0.648,0.178-1.309,0.381-1.932c0.064-0.178,0.407-1.119,0.407-1.208
		c0-0.025-0.013-0.064-0.025-0.089l-0.102-0.051l-0.114,0.051c0,0.051,0.013,0.102-0.013,0.153
		c-0.305,0.725-0.572,1.424-0.724,2.199c0,0.025-0.013,0.038-0.025,0.051c0.064-0.725,0.419-1.767,0.763-2.402l0.038-0.14
		c-0.038,0.013-0.127,0-0.153,0.051V6.181c-0.102-0.013-0.229-0.076-0.254-0.076c-0.051,0-0.089,0.038-0.127,0.076
		c-0.61,0.636-1.004,2.364-1.004,3.203C11.054,9.714,11.079,10.007,11.371,10.21z M17.688,7.858v0.013h-0.013L17.688,7.858z
		 M16.379,10.553c0-0.025,0-0.038,0.013-0.064c0,0.025,0.013,0.038,0.013,0.064H16.379z M16.837,10.617
		c-0.013-0.013-0.013-0.013-0.013-0.025h0.013V10.617z M16.862,10.49H16.85v-0.025h0.013V10.49z M16.951,10.185h-0.013v-0.038h0.013
		V10.185z M16.977,10.07h-0.013v-0.038h0.013V10.07z M17.027,9.892h-0.013c0-0.013,0-0.025,0.013-0.025V9.892z M17.053,9.791H17.04
		l0.013-0.013V9.791z M17.066,9.689l0.013-0.025c0.013,0.013,0.013,0.025,0.013,0.038L17.066,9.689z M17.116,9.613h-0.013V9.574
		h0.013V9.613z M17.193,9.346c-0.013,0-0.013,0-0.013-0.013h0.013V9.346z M17.269,9.104V9.091h0.013L17.269,9.104z M17.294,9.028
		V9.002h0.013C17.307,9.015,17.307,9.028,17.294,9.028z M17.333,8.939H17.32V8.914h0.013V8.939z M17.472,8.558H17.46V8.532h0.013
		V8.558z M17.498,8.469h-0.013V8.456h0.013V8.469z M17.523,8.38L17.51,8.367h0.013V8.38z M17.599,7.464
		c-0.038,0.407-0.203,0.801-0.331,1.182c-0.216,0.623-0.445,1.246-0.572,1.881c-0.038,0.178-0.051,0.356-0.089,0.534
		c-0.013-0.076-0.013-0.153-0.013-0.229c0-0.267,0.051-0.521,0.127-0.775c0.267-0.864,0.547-1.741,0.852-2.593H17.599z M16.659,9.93
		l0.013-0.013V9.93H16.659z M16.799,9.473V9.46h0.013L16.799,9.473z M16.824,9.371h0.013v0.013L16.824,9.371z M16.85,9.295h0.013
		v0.013L16.85,9.295z M17.015,8.799l0.013-0.013v0.013H17.015z M17.205,8.253l0.013-0.013v0.013H17.205z M17.256,7.655h0.025
		l-0.025,0.038V7.655z M17.256,7.719c-0.089,0.534-0.331,1.042-0.496,1.551c-0.127,0.381-0.216,0.775-0.331,1.157l-0.025,0.025
		c0.064-0.28,0.102-0.585,0.191-0.864l0.623-1.83L17.256,7.719z M17.04,7.464h0.013c0,0.013,0,0.038-0.013,0.051V7.464z
		 M16.379,9.562c-0.076,0.254-0.153,0.521-0.267,0.75l0.14-0.508l0.61-1.856c0.038-0.127,0.076-0.305,0.165-0.407
		C16.837,8.227,16.595,8.888,16.379,9.562z M14.841,4.401l-0.025-0.025l0.076-0.114C14.867,4.299,14.854,4.35,14.841,4.401z
		 M15.159,4.604c-0.013-0.025-0.013-0.038-0.013-0.064c0-0.064,0.038-0.114,0.076-0.153C15.197,4.465,15.184,4.541,15.159,4.604z
		 M14.854,6.727h0.013L14.854,6.74V6.727z M15.096,9.384h-0.013l0.013-0.013V9.384z M16.112,6.409h0.013v0.038h-0.013V6.409z
		 M16.087,6.549H16.1V6.6h-0.013V6.549z M15.756,6.625l0.013,0.025l-0.013,0.013V6.625z M15.337,4.808
		c0-0.165,0.076-0.318,0.203-0.432c0.14,0.178,0.203,0.724,0.203,0.966c0,0.051-0.013,0.114-0.013,0.165
		C15.502,5.38,15.337,5.075,15.337,4.808z M15.731,6.753h0.013l-0.038,0.051L15.731,6.753z M15.667,6.956h0.013
		c0,0.013-0.013,0.038-0.025,0.051C15.667,6.994,15.667,6.969,15.667,6.956z M15.553,7.325l0.025-0.013
		c-0.025,0.127-0.076,0.242-0.14,0.369L15.553,7.325z M16.036,6.753c0.013-0.025,0.013-0.051,0.038-0.064
		c-0.051,0.407-0.445,1.589-0.712,1.881C15.629,7.973,15.845,7.375,16.036,6.753z M15.083,8.469
		c-0.013,0.076-0.038,0.165-0.102,0.203L15.083,8.469z M14.791,6.638c-0.051,0.14-0.038,0.102-0.153,0.178L14.791,6.638z
		 M14.625,6.854V6.88h-0.013C14.613,6.867,14.625,6.867,14.625,6.854z M14.028,7.96c0.013,0,0.013,0,0.025,0.013l-0.025,0.038V7.96z
		 M13.977,8.151h0.013l-0.013,0.038V8.151z M13.837,8.647h0.013v0.025h-0.013V8.647z M14.549,7.159V7.134h0.013
		C14.549,7.147,14.549,7.147,14.549,7.159c-0.153,0.623-0.343,1.233-0.521,1.856c-0.076,0.254-0.127,0.508-0.203,0.763
		C13.875,9.269,14.27,7.515,14.549,7.159z M13.634,8.558l-0.013,0.038L13.609,8.57C13.621,8.558,13.621,8.558,13.634,8.558z
		 M13.545,7.973l-0.153,0.178C13.418,8.075,13.443,7.986,13.545,7.973z M12.935,8.812v0.013l-0.013-0.013H12.935z M12.63,6.587
		L12.643,6.6H12.63V6.587z M12.503,6.918v0.013H12.49L12.503,6.918z M12.312,6.511h0.013c-0.013,0.025-0.038,0.051-0.064,0.076
		C12.261,6.549,12.261,6.511,12.312,6.511z M12.007,7.172h-0.013c0-0.013,0-0.025,0.013-0.038V7.172z M12.07,6.498
		c0.013-0.025,0-0.076,0.038-0.076l0.025,0.013C12.109,6.448,12.096,6.473,12.07,6.498l-0.254,0.496
		C11.867,6.816,11.956,6.638,12.07,6.498z M11.778,8.812c0.013,0.051,0.013,0.089,0.013,0.14l-0.025-0.013
		C11.778,8.901,11.778,8.85,11.778,8.812z M11.638,7.477h0.013V7.49h-0.013V7.477z"/>
	<path class="st1" d="M22.435,12.513c0.487,0,1.072-0.097,1.531-0.265c0.251-0.097,0.501-0.237,0.738-0.348
		c0.543-0.265,1.1-0.668,1.225-1.295l-0.028-0.028l-0.111,0.153v-0.153l-0.209,0.153l0.111-0.223h-0.139l-0.056-0.111l-0.237-0.111
		c-0.292,0.042-0.543,0.195-0.794,0.32c-1.058,0.543-1.74,0.961-2.979,0.961c-0.083-0.167-0.083-0.362-0.083-0.543
		c0-0.863,0.237-1.74,0.376-2.589c0.097-0.571,0.237-1.142,0.376-1.712c0.613-0.056,1.239-0.139,1.852-0.209
		c0.223-0.028,0.599-0.084,0.766-0.251l0.07-0.083L24.76,6.164l0.014-0.07c-0.292,0.07-0.585,0.125-0.877,0.125l0.891-0.195
		l-0.014-0.042L24.69,5.997l0.014-0.056l-0.07-0.028L24.76,5.83l-0.181-0.111l0.125-0.07V5.607
		c-0.265-0.056-0.529-0.084-0.794-0.084c-0.501,0-0.988,0.084-1.49,0.125c0.278-1.058,0.654-2.088,0.988-3.132
		c0.905-0.084,1.81-0.139,2.715-0.153c0.181,0,0.348-0.028,0.501-0.139l0.014-0.042l-0.07-0.028l0.028-0.042h-0.585l0.599-0.084
		V2.001L26.5,1.974l0.07-0.139l-0.097-0.097l0.07-0.07c-0.265-0.195-0.835-0.195-1.156-0.195c-0.543,0-1.086,0.07-1.629,0.083
		l-0.71,0.028L22.95,1.458c-0.07,0.014-0.111,0.042-0.167,0.084c-0.125,0.084-0.251,0.111-0.39,0.153c0,0.167,0,0.334-0.07,0.487
		c-0.083,0.195-0.209,0.39-0.306,0.599c-0.223,0.473-0.432,0.947-0.599,1.448c-0.627,1.824-1.128,3.703-1.406,5.611
		c-0.028,0.195-0.042,0.39-0.042,0.585c0,0.223-0.014,0.794,0.084,0.975c0.084,0.139,0.195,0.292,0.306,0.418
		C20.931,12.471,21.613,12.513,22.435,12.513z M24.495,6.276h0.014c0,0.014,0,0.014-0.014,0.014V6.276z M25.832,2.099h0.042v0.014
		h-0.042V2.099z M25.511,2.099h0.195v0.014h-0.195V2.099z M25.372,2.099v0.014c-0.014,0-0.014,0-0.014-0.014H25.372z M25.177,2.099
		h0.07v0.014h-0.07V2.099z M24.37,1.723v0.014h-0.028C24.356,1.737,24.356,1.723,24.37,1.723z M23.507,2.21
		c0.432-0.028,0.877-0.084,1.309-0.084h0.237l-1.545,0.111V2.21z M23.562,6.248h0.195v0.014h-0.195V6.248z M23.256,6.262h0.181
		l0.014,0.028h-0.195V6.262z M22.978,5.83h0.014v0.014h-0.014V5.83z M22.741,5.858v0.028h-0.056l-0.014-0.028H22.741z M22.476,5.9
		h0.042v0.014h-0.042V5.9z M23.145,6.276l0.014,0.028c-0.306,0.042-0.599,0.083-0.905,0.139L22.24,6.401
		C22.532,6.331,22.838,6.303,23.145,6.276z M21.669,6.888v0.014h-0.014L21.669,6.888z M21.641,6.986v0.042
		c-0.014-0.014-0.014-0.014-0.014-0.028L21.641,6.986z M21.544,7.389h0.014l-0.014,0.014V7.389z M21.516,7.501h0.014l-0.014,0.028
		V7.501z M21.488,7.612h0.014V7.64h-0.014V7.612z M21.432,7.849l0.014,0.014v0.056h-0.014V7.849z M21.377,8.155l0.014-0.028
		c0,0.014,0,0.028-0.014,0.042V8.155z M21.349,8.252c0.014,0.014,0.014,0.042,0.014,0.056h-0.014V8.252z M21.293,8.698h0.014
		c-0.014,0.014-0.014,0.014-0.014,0.028V8.698z"/>
	<path class="st1" d="M25.413,8.754c0,0.794,0.278,1.726,1.225,1.726c0.794,0,1.183-0.863,1.573-1.448h0.028
		c0.097,0.738,0.223,2.116,0.682,2.701c0.167,0.209,0.404,0.32,0.668,0.32c0.083,0,0.362-0.014,0.362-0.153
		c0,0-0.014-0.028-0.014-0.042c-0.195-0.028-0.376-0.111-0.459-0.292c-0.251-0.543-0.251-2.033-0.251-2.659
		c0-0.376,0.014-0.766,0.014-1.142c0-0.097,0.014-0.181,0.084-0.251l0.599-0.654c0.64-0.71,1.49-2.158,1.49-3.132
		c0-0.501-0.362-1.114-0.919-1.114c-0.223,0-0.459,0.153-0.626,0.292c-1.142,0.961-1.406,2.701-1.629,4.093
		c-0.39-0.209-0.766-0.432-1.225-0.432C25.97,6.568,25.413,7.863,25.413,8.754z M25.664,8.712c0-0.264,0.028-0.515,0.139-0.766
		C25.748,8.197,25.706,8.447,25.664,8.712z M29.618,7.111V7.083h0.014C29.618,7.097,29.618,7.097,29.618,7.111z M29.841,6.624
		c-0.014,0.056-0.195,0.237-0.251,0.292l0.181-0.278C29.799,6.638,29.813,6.638,29.841,6.624v-0.07l0.042-0.028l0.042,0.014
		c-0.014,0-0.014,0.014-0.028,0.014C29.868,6.568,29.855,6.596,29.841,6.624z M30.022,6.624V6.582l-0.111,0.07l0.111-0.139
		c0,0.028-0.014,0.042,0,0.07h0.014L30.022,6.624z M31.289,3.797c0.028,0.042,0.07,0.097,0.07,0.153c0,0.153-0.139,0.71-0.237,0.807
		L31.08,4.897l-0.042,0.056c0,0.084-0.111,0.195-0.111,0.278l-0.07,0.084l-0.028,0.056c-0.028,0.07-0.07,0.125-0.07,0.195
		l-0.014-0.07l-0.097,0.153h0.028l-0.028,0.056l-0.028,0.07c-0.028,0.028-0.042,0.056-0.056,0.083l-0.028,0.056
		c-0.042,0.042-0.056,0.097-0.097,0.125l-0.014,0.056l-0.014-0.056c-0.153,0.097-0.195,0.306-0.334,0.404
		c0.195-0.306,0.459-0.613,0.585-0.947c-0.181,0.223-0.348,0.445-0.487,0.696L30.133,6.22v0.084c-0.07,0-0.139,0.111-0.167,0.167
		v-0.07c0.042-0.042,0.056-0.083,0.084-0.125l0.028,0.014c0.014,0,0.042,0,0.056,0.014c-0.014-0.014-0.028-0.07-0.028-0.084V6.192
		l0.042-0.028c0-0.042,0.139-0.209,0.167-0.278l0.07-0.084c0.153-0.195,0.404-0.71,0.515-0.947c0.153-0.334,0.237-0.696,0.348-1.044
		L31.289,3.797z M31.149,3.825v0.042c0,0.01-0.005,0.024-0.006,0.035l-0.022-0.077H31.149z M31.139,3.928
		c-0.057,0.778-1.255,2.431-1.772,3.002V6.874c0.543-0.571,0.975-1.225,1.323-1.921c0.153-0.292,0.306-0.599,0.376-0.919
		C31.079,3.983,31.075,3.936,31.139,3.928z M29.98,3.018h0.028l-0.111,0.097L29.98,3.018z M29.632,4.299V4.257
		c0.111-0.292,0.473-1.044,0.766-1.156c-0.32,0.334-0.501,0.71-0.71,1.1C29.674,4.229,29.646,4.257,29.632,4.299
		c-0.028,0.07-0.014,0.139-0.097,0.181C29.562,4.41,29.59,4.354,29.632,4.299z M29.409,4.897v0.028c-0.014,0-0.014,0-0.014-0.014
		L29.409,4.897z M30.453,3.324c0.125-0.167,0.251-0.292,0.459-0.32c0.153,0.181,0.153,0.404,0.153,0.627
		c0,0.78-0.807,1.963-1.281,2.576c-0.056,0.07-0.362,0.515-0.432,0.515C29.562,5.552,29.729,4.299,30.453,3.324z M29.27,4.02v0.028
		h-0.014C29.256,4.034,29.27,4.034,29.27,4.02z M29.047,6.665v0.014h-0.014L29.047,6.665z M29.005,6.818h0.014l-0.014,0.014V6.818z
		 M28.977,7.055h0.014v0.083h-0.014V7.055z M25.929,8.712c0-0.042-0.014-0.07-0.014-0.111c0-0.167,0.056-0.32,0.111-0.473
		l0.028-0.014L25.929,8.712z M26.402,8.433h-0.014V8.406h0.014V8.433z M27.307,7.041c0.056-0.042,0.083-0.056,0.153-0.056
		c0.306,0,0.487,0.334,0.71,0.501h0.028v0.529c0,0.139-1.058,1.629-1.225,1.838c-0.083,0.097-0.167,0.167-0.264,0.251
		c-0.195-0.209-0.223-0.766-0.223-1.044C26.485,8.336,26.736,7.515,27.307,7.041z M26.541,7.556v0.028
		c-0.014-0.014-0.014-0.014-0.014-0.028H26.541z M26.471,7.626l0.07-0.028c-0.306,0.529-0.32,1.114-0.376,1.698
		c-0.028-0.139-0.042-0.278-0.042-0.418C26.123,8.406,26.263,8.044,26.471,7.626z M26.054,8.099c0-0.014-0.014-0.042-0.014-0.042
		c0-0.028,0.028-0.042,0.042-0.042C26.082,8.044,26.068,8.071,26.054,8.099z"/>
	<path class="st1" d="M33,2.558c0.738,0,1.935-0.32,2.687-0.487c-0.014,0.306-0.418,1.323-0.529,1.698
		c-0.627,2.074-1.35,5.012-1.35,7.156c0,0.78,0.084,1.545,0.613,2.158c0.167,0.195,0.251,0.251,0.501,0.32
		c0.07,0.014,0.139,0.042,0.209,0.07l0.014-0.028c-0.195-0.627-0.334-1.169-0.334-1.838c0-0.209,0.014-0.418,0.042-0.627
		c0.07-0.585,0.139-1.169,0.237-1.74c0.153-0.919,0.404-1.81,0.64-2.715c0.111-0.432,0.223-0.877,0.362-1.309l0.682-2.13
		c0.084-0.265,0.362-0.919,0.362-1.156c0-0.07-0.014-0.125-0.056-0.181c0.724-0.139,1.462-0.278,2.2-0.376
		c0.64-0.084,1.295-0.139,1.935-0.209c0.265-0.028,0.543-0.028,0.794-0.083l0.237-0.056L42.23,0.999l-0.125-0.042l-0.181-0.445
		c-0.278-0.153-1.197-0.251-1.545-0.251c-1.852,0-3.648,0.473-5.443,0.863L33.32,1.472c-0.278,0.056-0.557,0.125-0.835,0.125
		c-0.153,0-0.39-0.056-0.39,0.181c0,0.07,0.223,0.459,0.278,0.557C32.624,2.461,32.694,2.558,33,2.558z"/>
	<path class="st1" d="M39.32,7.027c0-0.613-0.376-1.072-0.933-1.253l-0.111,0.028l0.279,0.515c-0.125-0.028-0.251-0.056-0.376-0.056
		c-0.529,0-0.961,0.237-1.267,0.668c-0.39,0.543-0.668,1.211-0.668,1.879c0,0.821,0.501,1.406,1.35,1.406
		c0.39,0,0.766-0.265,0.794-0.668l-0.056,0.07c0,0.056-0.014,0.097-0.056,0.139V9.7l-0.028,0.056h-0.014l-0.014,0.056h-0.014
		l0.014,0.028h-0.042v0.014L38.151,9.84l0.014-0.042l-0.097-0.014c0.014-0.084,0.097-0.139,0.097-0.237
		c0-0.014-0.014-0.042-0.028-0.07c-0.083,0.125-0.111,0.265-0.264,0.334c0.042-0.111,0.153-0.209,0.153-0.334V9.436L38.012,9.45
		c-0.097,0.251-0.32,0.445-0.613,0.445c-0.195,0-0.237-0.529-0.237-0.668c0-0.111-0.014-0.348,0.042-0.459
		C38.123,8.768,39.32,8.044,39.32,7.027z M38.485,7.612l-0.042,0.014l0.042-0.028V7.612z M39.056,7.306
		C39,7.487,38.917,7.668,38.777,7.807C38.777,7.723,39,7.403,39.056,7.306z M38.75,7.501l-0.014,0.042h-0.014L38.75,7.501z
		 M38.638,7.278h0.028c0,0.014-0.014,0.028-0.028,0.028V7.278z M38.569,7.459V7.445l0.028-0.056
		C38.596,7.417,38.583,7.431,38.569,7.459z M38.583,6.777v0.056c0,0.501-0.738,1.323-1.239,1.378
		C37.455,7.598,37.956,6.916,38.583,6.777z M37.594,7.111l0.014-0.014v0.014l-0.056,0.028C37.566,7.125,37.566,7.111,37.594,7.111z
		 M37.232,7.25c0,0.014-0.014,0.042-0.028,0.056H37.19C37.204,7.306,37.218,7.264,37.232,7.25z M36.759,7.696h-0.014
		c0-0.014,0-0.014,0.014-0.014V7.696z M36.814,7.556l-0.028-0.014l0.042-0.07L36.814,7.556z M36.842,7.459h-0.014l0.014-0.014V7.459
		z M37.023,8.183h-0.014c0-0.028,0-0.056,0.014-0.07V8.183z M37.051,7.139L36.995,7.18l-0.028,0.056
		c-0.014,0.056-0.028,0.111-0.097,0.139c0.028-0.056,0.07-0.097,0.097-0.139V7.222l0.028-0.042l0.07-0.111
		C37.065,7.097,37.051,7.111,37.051,7.139z M37.079,8.03c0-0.292,0.265-0.682,0.459-0.877C37.413,7.459,37.176,7.723,37.079,8.03z"
		/>
	<path class="st1" d="M41.965,7.793c0-0.237,0.111-0.445,0.111-0.682c0-0.097-0.028-0.181-0.07-0.265
		c-0.237-0.459-0.724-0.891-1.267-0.891c-1.058,0-1.768,1.921-1.768,2.812c0,0.794,0.557,1.643,1.42,1.643
		c0.376,0,1.142-0.376,1.35-0.696c0.042-0.056,0.056-0.125,0.097-0.181c-0.042-0.014-0.084-0.028-0.111-0.07l-0.111,0.111
		l0.042-0.125l-0.251-0.195c-0.07,0.028-0.139,0.056-0.195,0.097c-0.376,0.251-0.696,0.459-1.169,0.501
		C40.03,9.798,40.016,9.756,40.016,9.7c0-1.002,0.195-2.214,1.058-2.854c0.097-0.07,0.195-0.083,0.306-0.083h0.097
		c-0.083,0.195-0.139,0.39-0.139,0.599c0,0.414,0.248,0.722,0.64,0.81c-0.02,0.263-0.041,0.527-0.041,0.791
		c0,0.821,0.084,1.448,1.044,1.545c0.028-0.083,0.042-0.153,0.056-0.237c0.195-1.002,0.571-1.935,1.086-2.812
		c0.167-0.292,0.459-0.71,0.71-0.933l0.432-0.362l0.028,0.028c-0.362,1.211-0.501,2.339-0.654,3.592
		c-0.042,0.32-0.042,0.64-0.042,0.961c0,0.167,0,0.348,0.014,0.515c0.042,0.39,0.432,0.71,0.821,0.71c0.056,0,0.111,0,0.167-0.014
		c0-0.028,0.014-0.056,0.014-0.083c0-0.014-0.014-0.028-0.014-0.042c-0.056-0.181-0.07-0.362-0.07-0.543
		c0-1.169,0.306-2.339,0.515-3.481c0.084-0.473,0.251-0.988,0.251-1.476c0-0.251-0.07-0.376-0.265-0.529s-0.459-0.32-0.724-0.32
		c-0.125,0-0.209,0.042-0.32,0.111c-0.835,0.557-1.239,1.002-1.782,1.838c0-0.014-0.014-0.042-0.014-0.056
		c0-0.251,0.237-1.058,0.306-1.35c0.181-0.752,0.376-1.49,0.571-2.241c0.153-0.557,0.515-1.601,0.515-2.13V1.542
		c-0.014-0.125-0.028-0.167-0.125-0.251c-0.097-0.083-0.292-0.251-0.418-0.251c-0.097,0-0.139-0.028-0.223-0.083
		c-0.097,0.111-0.139,0.265-0.195,0.39c-0.209,0.515-0.432,1.044-0.599,1.573c-0.181,0.557-0.306,1.142-0.432,1.712
		c-0.245,1.085-0.495,2.186-0.6,3.296C41.98,7.884,41.965,7.84,41.965,7.793z M40.392,6.693c-0.07,0.084-0.153,0.153-0.237,0.237
		C40.155,6.846,40.309,6.693,40.392,6.693z M39.849,6.888c0.056-0.084,0.264-0.404,0.362-0.404
		C40.142,6.596,39.961,6.832,39.849,6.888z M40.142,7.501c-0.056,0.084-0.097,0.111-0.125,0.209h-0.014
		c0.083-0.237,0.376-0.849,0.613-0.947l0.125-0.042h0.014C40.49,6.958,40.336,7.208,40.142,7.501z M41.603,6.944h-0.014
		c0-0.014,0-0.014,0.014-0.028V6.944z M45.947,6.526h0.028l-0.028,0.07V6.526z M45.947,6.638c-0.056,0.39-0.139,0.766-0.223,1.156
		c-0.056,0.223-0.084,0.515-0.181,0.738C45.654,7.891,45.766,7.264,45.947,6.638z M45.515,8.726v0.097h-0.028L45.515,8.726z
		 M45.445,9.171v0.028c0-0.014-0.014-0.014-0.014-0.028H45.445z M45.376,9.589h0.014v0.042l-0.014,0.014V9.589z M43.301,8.893V8.879
		l0.014,0.014H43.301z M43.427,8.573l-0.014-0.014h0.014V8.573z M43.872,7.445l-0.348,0.668c-0.209,0.432-0.348,0.877-0.501,1.323
		c-0.014,0.042-0.028,0.083-0.07,0.125c0.014-0.042,0-0.097,0.014-0.139c0.097-0.459,0.585-1.685,0.905-2.005V7.445z M42.995,8.809
		l0.014-0.014v0.014H42.995z M43.524,7.654h0.014c-0.014,0.014-0.014,0.014-0.014,0.028V7.654z M43.218,7.849l-0.125,0.265h-0.028
		L43.218,7.849z M43.552,5.036h-0.014l0.014-0.014V5.036z M43.691,4.48V4.452h0.014C43.691,4.466,43.691,4.466,43.691,4.48z
		 M43.844,3.923V3.909h0.014L43.844,3.923z M43.9,3.7V3.686h0.014L43.9,3.7z M43.942,3.603h-0.014c0-0.014,0-0.014,0.014-0.014
		V3.603z M44.234,1.793c0.014-0.028,0.028-0.042,0.028-0.07l0.014,0.014L44.234,1.793c0.014,0.014,0.014,0.042,0.014,0.056h-0.014
		V1.793z M44.192,1.946L44.22,1.96c0,0.097-0.042,0.181-0.083,0.265C44.151,2.127,44.165,2.043,44.192,1.946z M43.608,2.976V2.99
		h-0.014L43.608,2.976z M43.566,3.087h0.014v0.028h-0.014V3.087z M43.538,3.199h0.014l-0.014,0.042V3.199z M43.399,2.698v0.014
		h-0.014L43.399,2.698z M43.343,2.892v0.014C43.329,2.92,43.329,2.92,43.315,2.92L43.343,2.892z M43.469,3.463
		c-0.028,0.181-0.265,1.211-0.334,1.295C43.218,4.326,43.343,3.895,43.469,3.463z M43.037,5.12c0,0.028,0,0.056,0.014,0.084
		L43.023,5.19C43.023,5.162,43.023,5.148,43.037,5.12z M42.856,4.647c0.042-0.195,0.083-0.404,0.167-0.585
		c-0.042,0.195-0.084,0.376-0.139,0.571L42.856,4.647c0,0.07-0.014,0.153-0.014,0.223l-0.028-0.014L42.856,4.647z M43.009,5.301
		v0.028c-0.014-0.014-0.014-0.014-0.014-0.028H43.009z M42.995,5.426l-0.042,0.167h-0.028l0.028-0.097
		c0-0.028,0.014-0.056,0.014-0.084L42.995,5.426z M42.884,5.802v0.056H42.87V5.802H42.884z M42.772,4.981L42.8,4.995
		c0,0.014-0.014,0.042-0.028,0.056V4.981z M42.772,5.064V5.12h-0.014C42.758,5.106,42.758,5.078,42.772,5.064z M43.023,6.331
		c0.153-0.738,0.32-1.476,0.515-2.214c0.167-0.626,0.376-1.239,0.571-1.866l0.028-0.014c-0.376,1.434-0.794,2.868-1.1,4.316
		c-0.097,0.473-0.181,1.183-0.32,1.615C42.772,7.556,42.898,6.944,43.023,6.331z M42.717,8.35h-0.028
		c0-0.056,0.014-0.111,0.028-0.167V8.35z M42.675,5.454c0,0.028,0,0.056,0.014,0.07h-0.028C42.661,5.496,42.661,5.482,42.675,5.454z
		 M42.675,8.489c0,0.028,0.014,0.042,0.014,0.07h-0.028C42.661,8.531,42.661,8.517,42.675,8.489z M42.633,5.649h0.014
		c0,0.028,0,0.042-0.014,0.07V5.649z M42.633,5.733c0,0.028-0.014,0.056-0.014,0.084l-0.028-0.014L42.633,5.733z M42.578,5.927
		h0.014v0.028h-0.014V5.927z"/>
	<path class="st1" d="M41.673,9.422c0,0.014-0.014,0.014-0.014,0.028h0.014V9.422z"/>
	<path class="st1" d="M3.288,20.716c-0.009-0.042-0.032-0.057-0.07-0.044c-0.038,0.013-0.07,0.032-0.095,0.057
		c0.017,0.017,0.051,0.03,0.102,0.038C3.275,20.775,3.296,20.758,3.288,20.716z"/>
	
		<ellipse transform="matrix(0.708 -0.7063 0.7063 0.708 -13.7179 8.2443)" class="st1" cx="3.11" cy="20.709" rx="0.018" ry="0.014"/>
	<path class="st1" d="M3.122,20.805c0.017,0,0.025-0.006,0.025-0.019c0-0.013-0.009-0.023-0.025-0.032
		c-0.017,0-0.025,0.006-0.025,0.019C3.097,20.786,3.105,20.796,3.122,20.805z"/>
	<path class="st1" d="M10.05,24.77c-0.89,0-1.945-1.335-2.288-2.072c0.47-0.572,0.953-1.144,1.436-1.716
		c0.216-0.254,0.572-0.661,0.572-1.017c0-0.242-0.343-0.534-0.572-0.534c-0.076,0-0.127,0.025-0.191,0.064
		c-0.852,0.47-1.398,1.004-1.919,1.818c0.178-1.08,0.483-2.148,0.737-3.216c0.178-0.737,0.419-1.462,0.419-2.224
		c0-0.381-0.165-0.852-0.508-1.042c-0.013-0.013-0.114-0.064-0.14-0.064c-0.051,0-0.089,0.013-0.14,0.013
		c0,0.178,0.038,0.343,0.038,0.521c0,0.483-0.356,1.576-0.496,2.085c-0.258,0.971-0.503,1.943-0.738,2.915
		c-0.014,0.004-0.023-0.004-0.037,0.003c-0.068,0.03-0.123,0.083-0.165,0.159c-0.042,0.068-0.131,0.225-0.267,0.47
		c-0.136,0.246-0.301,0.508-0.496,0.788c-0.017-0.271-0.11-0.547-0.28-0.826c-0.17-0.28-0.432-0.547-0.788-0.801
		c-0.017-0.017-0.068-0.053-0.153-0.108c-0.085-0.055-0.136-0.091-0.153-0.108c-0.102-0.068-0.163-0.131-0.184-0.191
		c-0.021-0.059-0.013-0.106,0.025-0.14c0.038-0.034,0.099-0.053,0.184-0.057c0.085-0.004,0.182,0.011,0.292,0.044
		c0.051,0.017,0.108,0.043,0.172,0.076c0.064,0.034,0.121,0.076,0.172,0.127s0.087,0.106,0.108,0.165
		c0.021,0.059,0.015,0.127-0.019,0.203c0.042-0.034,0.068-0.08,0.076-0.14c0.008-0.059-0.009-0.114-0.051-0.165
		c0.085,0.093,0.112,0.176,0.083,0.248c-0.03,0.072-0.112,0.112-0.248,0.121c0.153,0.059,0.297,0.083,0.432,0.07
		c0.135-0.013,0.256-0.049,0.362-0.108c0.106-0.059,0.191-0.138,0.254-0.235c0.064-0.097,0.104-0.205,0.121-0.324
		c0.017,0.093,0.017,0.186,0,0.28c0.076-0.237,0.095-0.436,0.057-0.597c-0.038-0.161-0.117-0.292-0.235-0.394
		c-0.119-0.102-0.269-0.178-0.451-0.229c-0.182-0.051-0.379-0.085-0.591-0.102c-0.441-0.034-0.816-0.004-1.125,0.089
		c-0.309,0.093-0.532,0.222-0.667,0.388c-0.136,0.165-0.178,0.36-0.127,0.585c0.051,0.225,0.216,0.456,0.496,0.693
		c0.034,0.017,0.078,0.049,0.133,0.095c0.055,0.047,0.099,0.078,0.133,0.095c0.297,0.195,0.513,0.411,0.648,0.648
		c0.135,0.237,0.212,0.466,0.229,0.686c0.017,0.263-0.013,0.477-0.089,0.642c-0.076,0.165-0.18,0.292-0.311,0.381
		c-0.131,0.089-0.275,0.14-0.432,0.153c-0.157,0.013-0.307-0.006-0.451-0.057c-0.144-0.051-0.271-0.131-0.381-0.242
		c-0.11-0.11-0.186-0.242-0.229-0.394c-0.043-0.161-0.044-0.318-0.006-0.47c0.038-0.153,0.095-0.292,0.172-0.419
		c0.076-0.127,0.167-0.242,0.273-0.343c0.106-0.102,0.205-0.186,0.299-0.254c-0.042,0.009-0.083,0.017-0.121,0.025
		c-0.038,0.008-0.078,0.03-0.121,0.064c0.042-0.059,0.091-0.108,0.146-0.146c0.055-0.038,0.112-0.066,0.172-0.083
		c-0.034-0.034-0.076-0.049-0.127-0.044c-0.051,0.004-0.089,0.015-0.114,0.032c0.034-0.034,0.08-0.057,0.14-0.07
		c0.059-0.013,0.11-0.002,0.153,0.032c-0.034-0.068-0.102-0.159-0.203-0.273s-0.178-0.188-0.229-0.222
		c-0.042-0.025-0.097-0.036-0.165-0.032c-0.068,0.004-0.136,0.036-0.203,0.095c-0.288,0.271-0.498,0.568-0.629,0.89
		c-0.131,0.322-0.191,0.636-0.178,0.941c0.013,0.305,0.095,0.583,0.248,0.833c0.153,0.25,0.364,0.439,0.636,0.566
		c0.288,0.127,0.587,0.193,0.896,0.197c0.309,0.004,0.578-0.04,0.807-0.133c0.237-0.076,0.477-0.231,0.718-0.464
		c0.242-0.233,0.464-0.491,0.667-0.775c0.165-0.23,0.304-0.46,0.438-0.69c-0.13,0.611-0.234,1.229-0.234,1.853
		c0,0.483,0.076,0.915,0.508,1.208c0.064,0.038,0.127,0.064,0.191,0.076c0.114,0.025,0.229,0.013,0.343,0.025
		c0-0.089,0.013-0.178,0.013-0.267c0-0.28-0.051-0.547-0.051-0.826v-0.242c0.064,0.013,0.076,0.038,0.114,0.089
		c0.648,1.004,1.907,1.83,3.127,1.83c0.407,0,1.055-0.14,1.284-0.508c-0.191-0.025-0.381-0.076-0.572-0.076
		C10.482,24.707,10.266,24.77,10.05,24.77z M9.579,20.08h0.013c0,0.013,0,0.025-0.013,0.038V20.08z M4.527,19.273
		c0.072,0.013,0.144,0.03,0.216,0.051c0.072,0.021,0.133,0.049,0.184,0.083c0.051,0.034,0.08,0.072,0.089,0.114
		c-0.017-0.034-0.072-0.078-0.165-0.133c-0.093-0.055-0.263-0.099-0.508-0.133C4.394,19.254,4.455,19.26,4.527,19.273z M4.94,19.597
		c-0.059-0.068-0.144-0.125-0.254-0.172c-0.11-0.046-0.203-0.078-0.28-0.095c0.161,0.017,0.294,0.053,0.4,0.108
		C4.912,19.493,4.957,19.546,4.94,19.597z M4.66,19.546c0.212,0.127,0.309,0.275,0.292,0.445c-0.025-0.135-0.087-0.243-0.184-0.324
		c-0.098-0.08-0.206-0.142-0.324-0.184c-0.119-0.042-0.233-0.072-0.343-0.089c-0.11-0.017-0.187-0.025-0.229-0.025
		C4.186,19.36,4.449,19.419,4.66,19.546z M4.343,21.065c0.042,0.064,0.078,0.14,0.108,0.229c0.03,0.089,0.053,0.182,0.07,0.28
		c0.017,0.098,0.021,0.189,0.013,0.273c0-0.068-0.009-0.148-0.025-0.241c-0.017-0.093-0.04-0.184-0.07-0.273
		c-0.03-0.089-0.064-0.169-0.102-0.241c-0.038-0.072-0.083-0.125-0.133-0.159C4.254,20.957,4.3,21.002,4.343,21.065z M4.292,21.542
		c-0.068-0.229-0.157-0.424-0.267-0.585c-0.11-0.161-0.22-0.284-0.33-0.369c-0.11-0.085-0.174-0.131-0.191-0.14
		c0.076,0.025,0.174,0.093,0.292,0.203c0.119,0.11,0.229,0.25,0.33,0.419c0.102,0.17,0.176,0.36,0.222,0.572
		c0.046,0.212,0.032,0.437-0.044,0.674C4.364,22.029,4.36,21.771,4.292,21.542z M4.616,22.292c-0.013,0.127-0.04,0.248-0.083,0.362
		c-0.042,0.114-0.11,0.189-0.203,0.222c0.076-0.051,0.135-0.125,0.178-0.222c0.042-0.097,0.072-0.203,0.089-0.318
		c0.017-0.114,0.023-0.227,0.019-0.337c-0.004-0.11-0.011-0.208-0.019-0.292c0.008,0.042,0.017,0.119,0.025,0.229
		C4.631,22.046,4.629,22.165,4.616,22.292z M7.355,21.084c0.394-0.508,0.788-1.055,1.385-1.347c-0.343,0.28-0.712,0.534-0.991,0.877
		c-0.025,0.038-0.051,0.064-0.089,0.089c-0.051,0.089-0.127,0.165-0.191,0.254c-0.165,0.216-0.292,0.458-0.432,0.686l-0.025,0.013
		C7.088,21.44,7.215,21.262,7.355,21.084z M8.499,20.169l-0.064,0.025l0.051-0.038L8.499,20.169z M7.927,20.652
		c-0.013,0.013-0.038,0.013-0.051,0.013l-0.025,0.038v-0.064c0.013,0,0.025,0,0.038,0.013H7.927z M7.825,20.766
		c-0.013,0.013-0.025,0.013-0.038,0.013l-0.025,0.076c-0.013,0-0.025,0-0.038,0.013l-0.025,0.064
		c-0.013,0.013-0.038,0.013-0.051,0.013c0,0.025,0,0.038-0.013,0.064v-0.089H7.66c0.013,0.013,0.025,0.013,0.038,0.013v-0.089
		l0.013-0.013l0.013,0.013c0.013,0,0.025,0,0.038,0.013v-0.102h0.025C7.8,20.766,7.813,20.766,7.825,20.766z M7.635,21.021
		c-0.013,0-0.038,0-0.051,0.013c0,0.013-0.013,0.038-0.025,0.051v-0.076h0.038C7.609,21.008,7.622,21.008,7.635,21.021z
		 M7.546,21.097C7.52,21.122,7.52,21.148,7.482,21.16c0,0.025-0.013,0.051-0.025,0.064l-0.025,0.038v-0.038h0.025v-0.051
		c0.013-0.013,0.013-0.025,0.013-0.038l0.025-0.051h0.038L7.546,21.097z M7.419,21.288c0,0.013-0.013,0.038-0.025,0.051
		l-0.025,0.038v-0.038h0.025c0-0.013,0-0.038,0.013-0.051H7.419z M7.355,21.402c0,0.013-0.013,0.038-0.025,0.051l-0.038,0.038V21.44
		c0.013,0.013,0.025,0.013,0.038,0.013v-0.064L7.355,21.402z M7.202,21.593c0-0.025,0.038-0.038,0.051-0.038
		c0-0.025,0-0.038,0.013-0.064l0.013,0.013c0,0.013-0.013,0.038-0.025,0.051l-0.038,0.076C7.215,21.618,7.202,21.593,7.202,21.593z
		 M7.215,21.643L7.19,21.682v-0.038H7.215z M7.177,21.694l-0.025,0.038v-0.038H7.177z M7.114,21.834L7.088,21.86l-0.013-0.025H7.114
		z M6.923,22.355H6.91l0.013-0.013V22.355z M7.825,20.843l-0.013,0.025c-0.165,0.229-0.318,0.432-0.458,0.686
		c-0.127,0.254-0.229,0.534-0.432,0.737C7.126,21.91,7.469,21.16,7.825,20.843z M7.19,21.961v0.013l-0.013-0.013H7.19z
		 M7.037,22.279l-0.013-0.013h0.013V22.279z M7.228,22.317l-0.076,0.076l-0.064-0.076c0.47-1.055,1.131-1.958,2.161-2.53
		l0.038,0.025c-0.318,0.458-0.686,0.89-1.042,1.309L7.228,22.317z M9.147,20.258c-0.038,0.089-0.14,0.14-0.165,0.229
		c-0.089,0.089-0.14,0.178-0.229,0.267C8.868,20.576,8.995,20.41,9.147,20.258z M8.664,20.868l-0.064,0.064l0.051-0.064H8.664z
		 M8.435,21.135v0.013l-0.051,0.051l0.038-0.064H8.435z M7.584,22.381v-0.013l0.013,0.013H7.584z M7.685,22.457l1.589-1.907
		c0.076-0.102,0.165-0.216,0.229-0.331c-0.038,0.089-0.076,0.203-0.127,0.267l-1.449,1.754c-0.089,0.102-0.191,0.203-0.292,0.292
		L7.685,22.457z"/>
	<path class="st1" d="M11.193,18.504l-0.064,0.013v-0.127l-0.153-0.025l0.025-0.089l-0.127-0.064
		c-0.025,0.025-0.051,0.051-0.089,0.064v-0.089l-0.064-0.013l-0.038-0.051c-0.242,0-0.381,0.661-0.381,0.852
		c0,0.356,0.267,0.928,0.572,1.106c0.089-0.013,0.153,0.064,0.242,0.064c0.038,0,0.076-0.013,0.114-0.038
		c0-0.165-0.051-0.343-0.051-0.508c0-0.305,0.14-0.572,0.14-0.877C11.321,18.631,11.27,18.555,11.193,18.504z"/>
	<path class="st1" d="M13.341,19.355c0.102-0.343,0.229-0.686,0.33-1.03c0.178-0.597,0.763-2.364,0.763-2.885
		c0-0.356-0.407-0.941-0.775-0.941c-0.038,0-0.076,0.038-0.089,0.076c0.051,0.076,0.089,0.165,0.089,0.254
		c0,0.254-0.877,2.466-1.03,2.936c-0.315,0.994-0.768,2.562-1.056,3.979c-0.069,0.088-0.139,0.175-0.202,0.267
		c-0.318,0.47-0.623,0.966-0.979,1.411c0-0.013-0.013-0.038-0.013-0.038c0-0.013,0.013-0.013,0.013-0.025l0.28-0.941
		c0.14-0.458,0.305-0.89,0.305-1.373c0-0.61-0.458-0.902-1.017-0.979c-0.038,0.013-0.114,0.038-0.114,0.089
		c0,0.064,0.038,0.127,0.038,0.191v0.051c-0.038,0.521-0.165,1.03-0.305,1.538c-0.178,0.648-0.343,1.373-0.343,2.059
		c0,0.381,0.267,0.585,0.635,0.585c0.102,0,0.178-0.013,0.254-0.089c0.292-0.318,0.699-0.877,0.953-1.246
		c0.115-0.165,0.217-0.342,0.322-0.516c-0.063,0.43-0.107,0.833-0.107,1.164c0,0.381,0.025,0.801,0.254,1.119
		c0.191,0.267,0.47,0.508,0.814,0.508c0.038,0,0.076-0.013,0.114-0.013c-0.013-0.153-0.076-0.318-0.114-0.47
		c-0.064-0.242-0.114-0.47-0.114-0.712c0-0.839,0.178-1.703,0.407-2.517L13.341,19.355z M13.685,17.093l0.013,0.013h-0.013V17.093z
		 M13.596,17.436c0-0.038,0-0.089,0.013-0.127l0.025,0.013L13.596,17.436l-0.064,0.14C13.532,17.512,13.545,17.474,13.596,17.436z
		 M10.494,21.694h0.025c-0.013,0.025-0.013,0.064-0.025,0.076V21.694z M9.872,24.046H9.846c0.064-0.458,0.229-0.902,0.356-1.347
		c0.089-0.292,0.127-0.597,0.28-0.864C10.278,22.571,10.062,23.309,9.872,24.046z M10.812,23.258
		c0.025-0.051,0.051-0.114,0.114-0.127L10.812,23.258z M10.965,23.054v-0.025c0-0.076,0.051-0.102,0.114-0.114L10.965,23.054z
		 M10.456,23.55c-0.025,0.038-0.089,0.076-0.127,0.114c0.114-0.229,0.292-0.419,0.432-0.636c0.216-0.356,0.458-0.699,0.674-1.055
		c0.035-0.06,0.085-0.116,0.128-0.173c-0.012,0.061-0.022,0.119-0.034,0.18C11.17,22.504,10.811,23.027,10.456,23.55z M12.058,23.27
		c-0.013,0.089-0.038,0.178-0.064,0.267c0.089-0.915,0.292-1.818,0.547-2.695c0.007-0.024,0.02-0.07,0.029-0.103
		c0.011-0.025,0.025-0.05,0.035-0.075l-0.012-0.006c0.202-0.717,0.75-2.711,0.901-2.943c-0.203,0.864-0.508,1.703-0.75,2.555
		c-0.165,0.61-0.305,1.22-0.458,1.83C12.185,22.495,12.121,22.876,12.058,23.27z"/>
	
		<ellipse transform="matrix(0.7071 -0.7071 0.7071 0.7071 -12.1949 17.7881)" class="st1" cx="15.375" cy="23.615" rx="0.018" ry="0.014"/>
	<path class="st1" d="M15.553,23.621c-0.009-0.042-0.032-0.057-0.07-0.044s-0.07,0.032-0.095,0.057
		c0.017,0.017,0.051,0.03,0.102,0.038C15.54,23.68,15.561,23.663,15.553,23.621z"/>
	<path class="st1" d="M18.489,23.208c-0.068,0.03-0.123,0.083-0.165,0.159c-0.042,0.068-0.131,0.225-0.267,0.47
		c-0.136,0.246-0.301,0.508-0.496,0.788c-0.017-0.271-0.11-0.547-0.28-0.826c-0.17-0.28-0.432-0.547-0.788-0.801
		c-0.017-0.017-0.068-0.053-0.153-0.108c-0.085-0.055-0.136-0.091-0.153-0.108c-0.102-0.068-0.163-0.131-0.184-0.191
		c-0.021-0.059-0.013-0.106,0.025-0.14c0.038-0.034,0.099-0.053,0.184-0.057c0.085-0.004,0.182,0.011,0.292,0.044
		c0.051,0.017,0.108,0.042,0.172,0.076c0.064,0.034,0.121,0.076,0.172,0.127s0.087,0.106,0.108,0.165
		c0.021,0.059,0.015,0.127-0.019,0.203c0.042-0.034,0.068-0.08,0.076-0.14c0.008-0.059-0.009-0.114-0.051-0.165
		c0.085,0.093,0.112,0.176,0.083,0.248c-0.03,0.072-0.112,0.112-0.248,0.121c0.153,0.059,0.297,0.083,0.432,0.07
		c0.135-0.013,0.256-0.049,0.362-0.108c0.106-0.059,0.191-0.138,0.254-0.235c0.064-0.097,0.104-0.205,0.121-0.324
		c0.017,0.093,0.017,0.186,0,0.28c0.076-0.237,0.095-0.436,0.057-0.597c-0.038-0.161-0.117-0.292-0.235-0.394
		c-0.119-0.102-0.269-0.178-0.451-0.229c-0.182-0.051-0.379-0.085-0.591-0.102c-0.441-0.034-0.816-0.004-1.125,0.089
		c-0.309,0.093-0.532,0.222-0.667,0.388c-0.136,0.165-0.178,0.36-0.127,0.585c0.051,0.225,0.216,0.456,0.496,0.693
		c0.034,0.017,0.078,0.049,0.133,0.095c0.055,0.047,0.1,0.078,0.133,0.095c0.297,0.195,0.513,0.411,0.648,0.648
		c0.135,0.237,0.212,0.466,0.229,0.686c0.017,0.263-0.013,0.477-0.089,0.642c-0.076,0.165-0.18,0.292-0.311,0.381
		c-0.131,0.089-0.275,0.14-0.432,0.153c-0.157,0.013-0.307-0.006-0.451-0.057c-0.144-0.051-0.271-0.131-0.381-0.242
		c-0.11-0.11-0.187-0.241-0.229-0.394c-0.042-0.161-0.044-0.318-0.006-0.47s0.095-0.292,0.172-0.419
		c0.076-0.127,0.167-0.241,0.273-0.343c0.106-0.102,0.205-0.186,0.299-0.254c-0.043,0.009-0.083,0.017-0.121,0.025
		c-0.038,0.009-0.078,0.03-0.121,0.064c0.042-0.059,0.091-0.108,0.146-0.146c0.055-0.038,0.112-0.066,0.172-0.083
		c-0.034-0.034-0.076-0.049-0.127-0.044c-0.051,0.004-0.089,0.015-0.114,0.032c0.034-0.034,0.08-0.057,0.14-0.07
		c0.059-0.013,0.11-0.002,0.153,0.032c-0.034-0.068-0.102-0.159-0.203-0.273c-0.102-0.114-0.178-0.188-0.229-0.222
		c-0.043-0.025-0.098-0.036-0.165-0.032c-0.068,0.004-0.136,0.036-0.203,0.095c-0.288,0.271-0.498,0.568-0.629,0.89
		c-0.105,0.259-0.152,0.51-0.164,0.757c-0.026-0.135-0.045-0.27-0.045-0.409c0-0.839,0.178-1.703,0.407-2.517l0.686-2.453
		c0.102-0.343,0.229-0.686,0.331-1.03c0.178-0.597,0.763-2.364,0.763-2.885c0-0.356-0.407-0.941-0.775-0.941
		c-0.038,0-0.076,0.038-0.089,0.076c0.051,0.076,0.089,0.165,0.089,0.254c0,0.254-0.877,2.466-1.03,2.936
		c-0.496,1.563-1.335,4.551-1.335,6.127c0,0.381,0.025,0.801,0.254,1.119c0.191,0.267,0.47,0.508,0.813,0.508
		c0.02,0,0.04-0.003,0.06-0.007c0.033,0.08,0.06,0.162,0.105,0.236c0.153,0.25,0.364,0.438,0.636,0.566
		c0.288,0.127,0.587,0.193,0.896,0.197c0.309,0.004,0.578-0.04,0.807-0.133c0.237-0.076,0.477-0.231,0.718-0.464
		c0.242-0.233,0.464-0.491,0.667-0.775c0.203-0.284,0.383-0.568,0.54-0.852c0.157-0.284,0.273-0.51,0.35-0.68
		c0.059-0.119,0.08-0.212,0.064-0.28c-0.017-0.068-0.049-0.112-0.095-0.133C18.614,23.174,18.557,23.178,18.489,23.208z
		 M16.792,22.178c0.072,0.013,0.144,0.03,0.216,0.051c0.072,0.021,0.133,0.049,0.184,0.083c0.051,0.034,0.08,0.072,0.089,0.114
		c-0.017-0.034-0.072-0.078-0.165-0.133c-0.093-0.055-0.263-0.099-0.508-0.133C16.659,22.159,16.72,22.166,16.792,22.178z
		 M17.205,22.502c-0.059-0.068-0.144-0.125-0.254-0.172c-0.11-0.047-0.203-0.078-0.28-0.095c0.161,0.017,0.294,0.053,0.4,0.108
		C17.177,22.399,17.222,22.452,17.205,22.502z M16.925,22.452c0.212,0.127,0.309,0.275,0.292,0.445
		c-0.025-0.135-0.087-0.243-0.184-0.324c-0.098-0.08-0.206-0.142-0.324-0.184c-0.119-0.042-0.233-0.072-0.343-0.089
		c-0.11-0.017-0.186-0.025-0.229-0.025C16.451,22.265,16.714,22.324,16.925,22.452z M15.235,17.093l0.013,0.013h-0.013V17.093z
		 M15.146,17.436c0-0.038,0-0.089,0.013-0.127l0.025,0.013L15.146,17.436l-0.064,0.14C15.083,17.512,15.095,17.474,15.146,17.436z
		 M13.545,23.537c0.089-0.915,0.292-1.818,0.547-2.695c0.14-0.483,0.788-2.873,0.953-3.127c-0.203,0.864-0.508,1.703-0.75,2.555
		c-0.165,0.61-0.305,1.22-0.458,1.83c-0.102,0.394-0.165,0.775-0.229,1.169C13.595,23.359,13.57,23.448,13.545,23.537z
		 M16.608,23.97c0.042,0.064,0.078,0.14,0.108,0.229c0.03,0.089,0.053,0.182,0.07,0.28c0.017,0.097,0.021,0.189,0.013,0.273
		c0-0.068-0.009-0.148-0.025-0.242c-0.017-0.093-0.04-0.184-0.07-0.273c-0.03-0.089-0.064-0.169-0.102-0.242
		c-0.038-0.072-0.083-0.125-0.133-0.159C16.519,23.862,16.565,23.907,16.608,23.97z M16.557,24.447
		c-0.068-0.229-0.157-0.424-0.267-0.585c-0.11-0.161-0.22-0.284-0.331-0.369c-0.11-0.085-0.174-0.131-0.191-0.14
		c0.076,0.025,0.174,0.093,0.292,0.203c0.119,0.11,0.229,0.25,0.331,0.419c0.102,0.17,0.176,0.36,0.222,0.572
		c0.046,0.212,0.032,0.437-0.044,0.674C16.629,24.934,16.625,24.676,16.557,24.447z M16.881,25.197
		c-0.013,0.127-0.04,0.248-0.083,0.362c-0.043,0.114-0.11,0.189-0.203,0.222c0.076-0.051,0.135-0.125,0.178-0.222
		c0.042-0.097,0.072-0.203,0.089-0.318c0.017-0.114,0.023-0.227,0.019-0.337c-0.004-0.11-0.011-0.208-0.019-0.292
		c0.008,0.043,0.017,0.119,0.025,0.229C16.896,24.951,16.894,25.07,16.881,25.197z"/>
	<path class="st1" d="M15.387,23.71c0.017,0,0.025-0.006,0.025-0.019c0-0.013-0.009-0.023-0.025-0.032
		c-0.017,0-0.025,0.006-0.025,0.019S15.37,23.702,15.387,23.71z"/>
	<path class="st1" d="M24.641,17.856v0.038c0.025,0.064,0.051,0.127,0.089,0.191c0.178,0.343,0.267,0.737,0.267,1.119
		c0,1.004-0.572,3.546-1.385,4.169v-0.076c0-0.267,0.051-0.521,0.089-0.788c0.051-0.331,0.076-0.674,0.076-1.004
		c0-0.242,0-0.483-0.038-0.724c-0.051-0.369-0.407-0.737-0.801-0.737c-0.064,0-0.14,0-0.14,0.089l0.14,0.178
		c-0.025,0.064-0.839,1.169-0.941,1.297c-0.165,0.203-0.369,0.445-0.559,0.623v-0.025c0.025-0.051,0.038-0.102,0.051-0.153
		c0.165-0.572,0.483-1.119,0.483-1.729c0-0.267-0.076-0.432-0.267-0.623c-0.114-0.102-0.343-0.292-0.496-0.292
		c-0.038,0-0.089,0.013-0.127,0.013c0.013,0.064,0.051,0.165,0.051,0.229c0,0.153-0.013,0.318-0.064,0.47
		c-0.178,0.585-0.737,1.894-0.737,2.428c0,0.432,0.47,0.75,0.864,0.75c0.254,0,0.445-0.114,0.597-0.305
		c0.394-0.458,0.75-0.966,1.093-1.462c0,0.445-0.051,0.877-0.051,1.322c0,0.547,0.064,0.89,0.661,1.03
		c0.038,0.013,0.076,0.013,0.127,0.013c1.347,0,1.957-3.279,1.957-4.309C25.581,18.911,25.416,18.034,24.641,17.856z M21.018,22.393
		c0.14-0.369,0.267-0.75,0.394-1.131l0.038,0.013C21.361,21.504,21.158,22.254,21.018,22.393z M22.531,21.44v0.013h-0.013
		L22.531,21.44z M22.81,21.504h-0.013l0.013-0.013V21.504z M21.997,22.406c0.305-0.419,0.597-0.864,0.915-1.284h0.013
		C22.874,21.288,22.175,22.215,21.997,22.406z M22.861,20.703c0-0.038,0.038-0.064,0.051-0.102l0.025,0.013
		C22.912,20.639,22.874,20.665,22.861,20.703z M23.42,22.775L23.382,22.8l0.025,0.191H23.37c0.013-0.064,0.013-0.127,0.013-0.191
		l0.076-0.572h0.025L23.42,22.775z M25.035,20.22l0.013,0.038h-0.013c0-0.013,0-0.025-0.013-0.038H25.035z M25.009,20.398v0.076
		c-0.013-0.025-0.013-0.051-0.013-0.076H25.009z M24.971,20.55c0-0.025,0.013-0.038,0.038-0.051l-0.025,0.14l-0.076,0.216
		c0.013-0.076,0-0.165,0.076-0.216C24.984,20.614,24.971,20.576,24.971,20.55z M24.958,21.338c0,0.013,0,0.013-0.013,0.013v-0.013
		H24.958z M24.895,21.478l0.038-0.025v0.013l-0.025,0.013v0.051h-0.013V21.478z M24.78,21.898c0.013,0,0.013,0,0.013,0.013H24.78
		V21.898z M24.31,22.698V22.66l0.013,0.013L24.31,22.698z M24.768,21.402l-0.013,0.102c-0.064,0.153-0.102,0.318-0.165,0.47
		C24.628,21.783,24.717,21.593,24.768,21.402z M25.06,21.91v-0.013l0.013,0.013H25.06z M25.124,21.72h-0.013l0.013-0.013V21.72z
		 M25.035,21.682c-0.076,0.229-0.292,0.966-0.432,1.119c0.318-0.788,0.547-1.602,0.699-2.428l0.025-0.025
		C25.289,20.805,25.174,21.249,25.035,21.682z M25.327,20.309v-0.14h0.025C25.352,20.22,25.34,20.258,25.327,20.309z M25.365,20.042
		c0-0.025,0-0.051-0.013-0.064h0.025v0.064H25.365z"/>
	<path class="st1" d="M27.005,18.504l-0.064,0.013v-0.127l-0.153-0.025l0.025-0.089l-0.127-0.064
		c-0.025,0.025-0.051,0.051-0.089,0.064v-0.089l-0.064-0.013l-0.038-0.051c-0.241,0-0.381,0.661-0.381,0.852
		c0,0.356,0.267,0.928,0.572,1.106c0.089-0.013,0.153,0.064,0.242,0.064c0.038,0,0.076-0.013,0.114-0.038
		c0-0.165-0.051-0.343-0.051-0.508c0-0.305,0.14-0.572,0.14-0.877C27.132,18.631,27.081,18.555,27.005,18.504z"/>
	<path class="st1" d="M29.152,19.355c0.102-0.343,0.229-0.686,0.331-1.03c0.178-0.597,0.763-2.364,0.763-2.885
		c0-0.356-0.407-0.941-0.775-0.941c-0.038,0-0.076,0.038-0.089,0.076c0.051,0.076,0.089,0.165,0.089,0.254
		c0,0.254-0.877,2.466-1.03,2.936c-0.315,0.994-0.768,2.562-1.056,3.979c-0.069,0.088-0.139,0.175-0.202,0.267
		c-0.318,0.47-0.623,0.966-0.979,1.411c0-0.013-0.013-0.038-0.013-0.038c0-0.013,0.013-0.013,0.013-0.025l0.28-0.941
		c0.14-0.458,0.305-0.89,0.305-1.373c0-0.61-0.458-0.902-1.017-0.979c-0.038,0.013-0.114,0.038-0.114,0.089
		c0,0.064,0.038,0.127,0.038,0.191v0.051c-0.038,0.521-0.165,1.03-0.305,1.538c-0.178,0.648-0.343,1.373-0.343,2.059
		c0,0.381,0.267,0.585,0.636,0.585c0.102,0,0.178-0.013,0.254-0.089c0.292-0.318,0.699-0.877,0.953-1.246
		c0.115-0.165,0.217-0.342,0.322-0.516c-0.063,0.43-0.107,0.833-0.107,1.164c0,0.381,0.025,0.801,0.254,1.119
		c0.191,0.267,0.47,0.508,0.813,0.508c0.038,0,0.076-0.013,0.114-0.013c-0.013-0.153-0.076-0.318-0.114-0.47
		c-0.064-0.242-0.114-0.47-0.114-0.712c0-0.839,0.178-1.703,0.407-2.517L29.152,19.355z M29.496,17.093l0.013,0.013h-0.013V17.093z
		 M29.407,17.436c0-0.038,0-0.089,0.013-0.127l0.025,0.013L29.407,17.436l-0.064,0.14C29.343,17.512,29.356,17.474,29.407,17.436z
		 M26.305,21.694h0.025c-0.013,0.025-0.013,0.064-0.025,0.076V21.694z M25.683,24.046h-0.025c0.064-0.458,0.229-0.902,0.356-1.347
		c0.089-0.292,0.127-0.597,0.28-0.864C26.089,22.571,25.873,23.309,25.683,24.046z M26.623,23.258
		c0.025-0.051,0.051-0.114,0.114-0.127L26.623,23.258z M26.776,23.054v-0.025c0-0.076,0.051-0.102,0.114-0.114L26.776,23.054z
		 M26.267,23.55c-0.025,0.038-0.089,0.076-0.127,0.114c0.114-0.229,0.292-0.419,0.432-0.636c0.216-0.356,0.458-0.699,0.674-1.055
		c0.035-0.06,0.085-0.116,0.128-0.173c-0.012,0.061-0.022,0.119-0.034,0.18C26.981,22.504,26.622,23.027,26.267,23.55z
		 M27.869,23.27c-0.013,0.089-0.038,0.178-0.064,0.267c0.089-0.915,0.292-1.818,0.547-2.695c0.007-0.024,0.02-0.071,0.029-0.103
		c0.011-0.025,0.025-0.05,0.035-0.075l-0.012-0.006c0.202-0.717,0.75-2.711,0.901-2.943c-0.203,0.864-0.508,1.703-0.75,2.555
		c-0.165,0.61-0.305,1.22-0.458,1.83C27.996,22.495,27.932,22.876,27.869,23.27z"/>
	<path class="st1" d="M31.021,14.5c-0.038,0-0.076,0.038-0.089,0.076c0.051,0.076,0.089,0.165,0.089,0.254
		c0,0.254-0.877,2.466-1.03,2.936c-0.496,1.563-1.335,4.551-1.335,6.127c0,0.381,0.025,0.801,0.254,1.119
		c0.191,0.267,0.47,0.508,0.813,0.508c0.038,0,0.076-0.013,0.114-0.013c-0.013-0.153-0.076-0.318-0.114-0.47
		c-0.064-0.242-0.114-0.47-0.114-0.712c0-0.839,0.178-1.703,0.407-2.517l0.686-2.453c0.102-0.343,0.229-0.686,0.33-1.03
		c0.178-0.597,0.763-2.364,0.763-2.885C31.796,15.085,31.389,14.5,31.021,14.5z M30.106,20.271c-0.165,0.61-0.305,1.22-0.458,1.83
		c-0.102,0.394-0.165,0.775-0.229,1.169c-0.013,0.089-0.038,0.178-0.064,0.267c0.089-0.915,0.292-1.818,0.547-2.695
		c0.14-0.483,0.788-2.873,0.953-3.127C30.652,18.58,30.347,19.419,30.106,20.271z M30.957,17.436l-0.064,0.14
		C30.894,17.512,30.906,17.474,30.957,17.436c0-0.038,0-0.089,0.013-0.127l0.025,0.013L30.957,17.436z M31.046,17.106v-0.013
		l0.013,0.013H31.046z"/>
	<path class="st1" d="M33.619,20.427c-0.009-0.005-0.019-0.002-0.028,0.007c-0.009,0.009-0.009,0.016,0,0.021
		c0.009,0.005,0.018,0.002,0.028-0.007C33.628,20.439,33.628,20.432,33.619,20.427z"/>
	<path class="st1" d="M33.619,20.546c0.018,0,0.028-0.007,0.028-0.021s-0.009-0.025-0.028-0.035c-0.019,0-0.028,0.007-0.028,0.021
		S33.6,20.536,33.619,20.546z"/>
	<path class="st1" d="M33.8,20.448c-0.009-0.046-0.035-0.063-0.077-0.049s-0.077,0.035-0.104,0.063
		c0.018,0.019,0.056,0.033,0.111,0.042C33.786,20.513,33.809,20.495,33.8,20.448z"/>
	<path class="st1" d="M47.929,25.167l-0.07,0.083l-0.014-0.014l0.014-0.111l-0.39-0.097c-0.07-0.167-0.097-0.362-0.097-0.543
		c0-0.766,0.445-1.921,0.696-2.659c0.139-0.418,0.404-1.114,0.404-1.531c0-0.306-0.111-0.543-0.334-0.752
		c-0.404-0.376-0.919-0.654-1.392-0.933c-0.014-0.306-0.056-0.613-0.084-0.919c-0.056-0.487-0.334-0.919-0.794-1.114
		c-0.111-0.056-0.223-0.083-0.348-0.083c-0.404,0-0.738,0.459-0.738,0.835c0,0.738,0.738,1.142,1.267,1.504
		c-0.237,1.295-0.696,2.478-1.392,3.592c-0.1,0.153-0.202,0.297-0.311,0.435c0.028-0.32,0.059-0.641,0.088-0.964
		c0.042-0.501,0.083-1.016,0.181-1.518c0.028-0.181,0.07-0.362,0.111-0.543l0.111-0.585c-0.111-0.153-0.237-0.278-0.348-0.418
		c-0.028,0.042-0.084,0.056-0.125,0.07c-0.014,0.014-0.028,0.014-0.042,0.056c0-0.028,0-0.042,0.042-0.056l-0.028-0.223
		l-0.167,0.153c-0.181,0.209-0.348,0.487-0.459,0.738c-0.529,1.142-1.142,2.186-2.019,3.119v-0.153
		c0.181-0.78,0.445-1.531,0.445-2.339c0-0.585-0.265-1.309-0.905-1.434c0,0.167,0.042,0.348,0.042,0.515
		c0,0.487-0.209,1.002-0.348,1.462c-0.167,0.557-0.432,1.267-0.432,1.838c0,0.613,0.32,0.78,0.766,1.002l0.139,0.07
		c0.084,0.042,0.111,0.07,0.209,0.07c0.529,0,1.42-1.35,1.685-1.782c0,0.292-0.028,0.585-0.084,0.877
		c-0.278,1.587-0.459,3.174-1.1,4.678c-0.195,0.459-0.543,1.156-0.933,1.49l-0.306,0.251c-0.07-0.278-0.195-0.487-0.195-0.794
		c0-0.181,0.028-0.348,0.07-0.529c0-0.014,0.014-0.028,0.014-0.042c0.139-0.668,0.362-1.183,0.64-1.81
		c0.107-0.247,0.22-0.484,0.372-0.692c0.317-0.084,0.623-0.227,0.77-0.463c-0.209-0.028-0.418-0.084-0.627-0.084
		c-0.01,0-0.021,0.003-0.031,0.003c-0.089-0.041-0.178-0.073-0.234-0.073c-0.077,0-0.16,0.047-0.246,0.12
		c-0.066,0.008-0.133,0.02-0.199,0.02c-0.975,0-2.13-1.462-2.506-2.269c0.515-0.627,1.044-1.253,1.573-1.879
		c0.237-0.278,0.626-0.724,0.626-1.114c0-0.265-0.376-0.585-0.626-0.585c-0.084,0-0.139,0.028-0.209,0.07
		c-0.933,0.515-1.531,1.1-2.102,1.991c0.195-1.183,0.529-2.353,0.807-3.522c0.195-0.807,0.459-1.601,0.459-2.436
		c0-0.418-0.181-0.933-0.557-1.142c-0.014-0.014-0.125-0.07-0.153-0.07c-0.056,0-0.097,0.014-0.153,0.014
		c0,0.195,0.042,0.376,0.042,0.571c0,0.529-0.39,1.726-0.543,2.283c-0.283,1.064-0.551,2.128-0.808,3.192
		c-0.015,0.004-0.025-0.004-0.041,0.003c-0.074,0.033-0.135,0.09-0.181,0.174c-0.047,0.074-0.144,0.246-0.292,0.515
		c-0.149,0.269-0.33,0.557-0.543,0.863c-0.019-0.297-0.121-0.599-0.306-0.905c-0.186-0.306-0.473-0.599-0.863-0.877
		c-0.019-0.018-0.074-0.058-0.167-0.118c-0.093-0.06-0.149-0.1-0.167-0.118c-0.111-0.074-0.179-0.144-0.202-0.209
		c-0.023-0.065-0.014-0.116,0.028-0.153c0.042-0.037,0.109-0.058,0.202-0.063c0.093-0.005,0.199,0.012,0.32,0.049
		c0.056,0.019,0.118,0.047,0.188,0.083c0.07,0.037,0.132,0.084,0.188,0.139c0.056,0.056,0.095,0.116,0.118,0.181
		c0.023,0.065,0.016,0.139-0.021,0.223c0.046-0.037,0.074-0.088,0.084-0.153c0.009-0.065-0.009-0.125-0.056-0.181
		c0.093,0.102,0.123,0.193,0.091,0.271c-0.033,0.079-0.123,0.123-0.271,0.132c0.167,0.065,0.325,0.09,0.473,0.077
		c0.148-0.014,0.281-0.053,0.397-0.118c0.116-0.065,0.209-0.151,0.278-0.258c0.07-0.107,0.114-0.225,0.132-0.355
		c0.018,0.102,0.018,0.204,0,0.306c0.083-0.26,0.104-0.478,0.063-0.654c-0.042-0.176-0.128-0.32-0.258-0.432
		c-0.13-0.111-0.295-0.195-0.494-0.251c-0.2-0.056-0.415-0.093-0.647-0.111c-0.483-0.037-0.893-0.005-1.232,0.097
		c-0.339,0.102-0.583,0.244-0.731,0.425c-0.149,0.181-0.195,0.395-0.139,0.64c0.056,0.246,0.237,0.499,0.543,0.759
		c0.037,0.019,0.086,0.054,0.146,0.104c0.06,0.051,0.109,0.086,0.146,0.104c0.325,0.214,0.561,0.45,0.71,0.71
		c0.148,0.26,0.232,0.51,0.251,0.752c0.018,0.288-0.014,0.522-0.097,0.703c-0.084,0.181-0.197,0.32-0.341,0.418
		c-0.144,0.097-0.302,0.153-0.473,0.167c-0.172,0.014-0.336-0.007-0.494-0.063c-0.158-0.056-0.297-0.144-0.418-0.264
		c-0.121-0.121-0.204-0.265-0.251-0.432c-0.047-0.176-0.049-0.348-0.007-0.515s0.104-0.32,0.188-0.459
		c0.084-0.139,0.183-0.265,0.299-0.376c0.116-0.111,0.225-0.204,0.327-0.278c-0.047,0.009-0.091,0.019-0.132,0.028
		c-0.042,0.009-0.086,0.033-0.132,0.07c0.046-0.065,0.1-0.118,0.16-0.16c0.06-0.042,0.123-0.072,0.188-0.09
		c-0.037-0.037-0.083-0.053-0.139-0.049c-0.056,0.005-0.097,0.016-0.125,0.035c0.037-0.037,0.088-0.063,0.153-0.077
		c0.065-0.014,0.12-0.002,0.167,0.035c-0.037-0.074-0.111-0.174-0.223-0.299c-0.111-0.125-0.195-0.206-0.251-0.244
		c-0.047-0.028-0.107-0.039-0.181-0.035c-0.074,0.005-0.149,0.04-0.223,0.104c-0.315,0.297-0.545,0.622-0.689,0.974
		c-0.144,0.353-0.209,0.696-0.195,1.03c0.014,0.334,0.104,0.638,0.271,0.912c0.167,0.274,0.399,0.48,0.696,0.62
		c0.315,0.139,0.643,0.211,0.981,0.216c0.339,0.005,0.633-0.044,0.884-0.146c0.26-0.084,0.522-0.253,0.787-0.508
		c0.264-0.255,0.508-0.538,0.731-0.849c0.18-0.252,0.332-0.504,0.479-0.756c-0.143,0.669-0.257,1.346-0.257,2.03
		c0,0.529,0.083,1.002,0.557,1.323c0.07,0.042,0.139,0.07,0.209,0.083c0.125,0.028,0.251,0.014,0.376,0.028
		c0-0.097,0.014-0.195,0.014-0.292c0-0.306-0.056-0.599-0.056-0.905v-0.265c0.07,0.014,0.083,0.042,0.125,0.097
		c0.68,1.053,1.972,1.919,3.254,1.991c-0.42,0.711-0.813,1.753-0.902,2.074c-0.084,0.292-0.111,0.64-0.111,0.947
		c0,0.404,0.084,0.794,0.445,1.03c0.237,0.153,0.543,0.278,0.835,0.278c0.362,0,0.682-0.195,0.947-0.432
		c1.016-0.905,1.601-2.576,1.852-3.87c0.111-0.571,0.181-1.169,0.237-1.754c0.015-0.132,0.023-0.262,0.036-0.394l0.214,0.073
		c0.251-0.139,0.432-0.362,0.599-0.585c0.794-1.1,1.42-2.297,1.587-3.661c0.251,0.111,0.64,0.251,0.64,0.585
		c0,0.209-0.153,0.654-0.237,0.863c-0.334,0.891-0.919,2.409-0.919,3.341c0,0.766,0.362,1.74,1.267,1.74
		c0.209,0,0.626-0.083,0.626-0.348c0-0.056-0.014-0.111-0.042-0.167H47.929z M48.194,20.852v0.014H48.18L48.194,20.852z
		 M45.075,17.065l-0.028-0.028l0.083-0.125C45.103,16.953,45.089,17.009,45.075,17.065z M45.423,17.288
		c-0.014-0.028-0.014-0.042-0.014-0.07c0-0.07,0.042-0.125,0.084-0.167C45.465,17.134,45.451,17.218,45.423,17.288z M40.691,19.752
		h0.014c0,0.014,0,0.028-0.014,0.042V19.752z M35.157,18.868c0.079,0.014,0.158,0.033,0.237,0.056
		c0.079,0.023,0.146,0.054,0.202,0.091c0.056,0.037,0.088,0.079,0.097,0.125c-0.019-0.037-0.079-0.086-0.181-0.146
		c-0.102-0.06-0.288-0.109-0.557-0.146C35.011,18.847,35.078,18.854,35.157,18.868z M35.609,19.223
		c-0.065-0.074-0.158-0.137-0.278-0.188c-0.121-0.051-0.223-0.086-0.306-0.104c0.176,0.019,0.322,0.058,0.438,0.118
		C35.579,19.11,35.628,19.167,35.609,19.223z M35.303,19.167c0.232,0.139,0.339,0.302,0.32,0.487
		c-0.028-0.148-0.095-0.267-0.202-0.355c-0.107-0.088-0.225-0.155-0.355-0.202c-0.13-0.046-0.255-0.079-0.376-0.097
		c-0.121-0.018-0.204-0.028-0.251-0.028C34.783,18.963,35.071,19.028,35.303,19.167z M34.955,20.831
		c0.046,0.07,0.086,0.153,0.118,0.251c0.032,0.097,0.058,0.2,0.077,0.306c0.018,0.107,0.023,0.207,0.014,0.299
		c0-0.074-0.009-0.162-0.028-0.264c-0.019-0.102-0.044-0.202-0.077-0.299c-0.033-0.097-0.07-0.186-0.111-0.264
		c-0.042-0.079-0.09-0.137-0.146-0.174C34.858,20.713,34.909,20.761,34.955,20.831z M34.9,21.353
		c-0.074-0.251-0.172-0.464-0.292-0.64c-0.121-0.176-0.241-0.311-0.362-0.404c-0.121-0.093-0.19-0.144-0.209-0.153
		c0.083,0.028,0.19,0.102,0.32,0.223c0.13,0.121,0.251,0.274,0.362,0.459c0.111,0.186,0.193,0.395,0.244,0.626
		c0.051,0.232,0.035,0.478-0.049,0.738C34.978,21.887,34.974,21.604,34.9,21.353z M35.255,22.174
		c-0.014,0.139-0.044,0.271-0.091,0.397c-0.047,0.125-0.121,0.207-0.223,0.244c0.084-0.056,0.148-0.137,0.195-0.244
		c0.046-0.107,0.079-0.223,0.097-0.348c0.018-0.125,0.025-0.248,0.021-0.369c-0.005-0.12-0.012-0.227-0.021-0.32
		c0.009,0.047,0.018,0.13,0.028,0.251C35.271,21.905,35.268,22.035,35.255,22.174z M38.254,20.852
		c0.432-0.557,0.863-1.156,1.518-1.476c-0.376,0.306-0.78,0.585-1.086,0.961c-0.028,0.042-0.056,0.07-0.097,0.097
		c-0.056,0.097-0.139,0.181-0.209,0.278c-0.181,0.237-0.32,0.501-0.473,0.752l-0.028,0.014
		C37.962,21.241,38.101,21.047,38.254,20.852z M39.507,19.849l-0.07,0.028l0.056-0.042L39.507,19.849z M38.881,20.378
		c-0.014,0.014-0.042,0.014-0.056,0.014l-0.028,0.042v-0.07c0.014,0,0.028,0,0.042,0.014H38.881z M38.77,20.504
		c-0.014,0.014-0.028,0.014-0.042,0.014L38.7,20.601c-0.014,0-0.028,0-0.042,0.014l-0.028,0.07
		c-0.014,0.014-0.042,0.014-0.056,0.014c0,0.028,0,0.042-0.014,0.07v-0.097h0.028c0.014,0.014,0.028,0.014,0.042,0.014v-0.097
		l0.014-0.014l0.014,0.014c0.014,0,0.028,0,0.042,0.014V20.49h0.028C38.742,20.504,38.756,20.504,38.77,20.504z M38.561,20.782
		c-0.014,0-0.042,0-0.056,0.014c0,0.014-0.014,0.042-0.028,0.056v-0.083h0.042C38.533,20.768,38.547,20.768,38.561,20.782z
		 M38.463,20.866c-0.028,0.028-0.028,0.056-0.07,0.07c0,0.028-0.014,0.056-0.028,0.07l-0.028,0.042v-0.042h0.028v-0.056
		c0.014-0.014,0.014-0.028,0.014-0.042l0.028-0.056h0.042L38.463,20.866z M38.324,21.074c0,0.014-0.014,0.042-0.028,0.056
		l-0.028,0.042V21.13h0.028c0-0.014,0-0.042,0.014-0.056H38.324z M38.254,21.2c0,0.014-0.014,0.042-0.028,0.056l-0.042,0.042v-0.056
		c0.014,0.014,0.028,0.014,0.042,0.014v-0.07L38.254,21.2z M38.087,21.409c0-0.028,0.042-0.042,0.056-0.042
		c0-0.028,0-0.042,0.014-0.07l0.014,0.014c0,0.014-0.014,0.042-0.028,0.056l-0.042,0.084C38.101,21.436,38.087,21.409,38.087,21.409
		z M38.101,21.464l-0.028,0.042v-0.042H38.101z M38.06,21.52l-0.028,0.042V21.52H38.06z M37.99,21.673l-0.028,0.028l-0.014-0.028
		H37.99z M37.781,22.244h-0.014l0.014-0.014V22.244z M38.77,20.587l-0.014,0.028c-0.181,0.251-0.348,0.473-0.501,0.752
		c-0.139,0.278-0.251,0.585-0.473,0.807C38.004,21.757,38.38,20.935,38.77,20.587z M38.073,21.812v0.014l-0.014-0.014H38.073z
		 M37.906,22.16l-0.014-0.014h0.014V22.16z M38.115,22.202l-0.083,0.084l-0.07-0.084c0.515-1.156,1.239-2.144,2.367-2.771
		l0.042,0.028c-0.348,0.501-0.752,0.975-1.142,1.434L38.115,22.202z M40.217,19.947c-0.042,0.097-0.153,0.153-0.181,0.251
		c-0.097,0.097-0.153,0.195-0.251,0.292C39.911,20.295,40.05,20.114,40.217,19.947z M39.688,20.615l-0.07,0.07l0.056-0.07H39.688z
		 M39.438,20.907v0.014l-0.056,0.056l0.042-0.07H39.438z M38.505,22.272v-0.014l0.014,0.014H38.505z M38.616,22.355l1.74-2.088
		c0.084-0.111,0.181-0.237,0.251-0.362c-0.042,0.097-0.084,0.223-0.139,0.292l-1.587,1.921c-0.097,0.111-0.209,0.223-0.32,0.32
		L38.616,22.355z M40.857,26.824l-0.042,0.042c0.042-0.084,0.056-0.139,0.056-0.181l0.028-0.07L40.857,26.824z M41.066,26.323
		v-0.056c0,0.014,0.014,0.028,0.014,0.042C41.08,26.309,41.08,26.309,41.066,26.323z M41.122,25.571
		c-0.028,0-0.042,0.014-0.07,0.014c0.056-0.042,0.056-0.07,0.097-0.111L41.122,25.571z M41.456,25.599
		c-0.028,0-0.028,0.028-0.07,0.028c0.014-0.028,0.042-0.028,0.056-0.042l0.042-0.097C41.484,25.529,41.456,25.557,41.456,25.599z
		 M40.983,25.78l-0.083,0.153c-0.014-0.014-0.014-0.042-0.014-0.056C40.885,25.808,40.927,25.78,40.983,25.78z M40.788,26.226
		c-0.056,0.084-0.125,0.153-0.167,0.237C40.621,26.323,40.635,26.253,40.788,26.226z M40.189,27.799v-0.097
		c0.014,0.014,0.014,0.042,0.014,0.056S40.203,27.785,40.189,27.799z M40.217,27.59v-0.084c0,0.028,0.014,0.028,0.014,0.042
		C40.231,27.562,40.217,27.576,40.217,27.59z M40.356,27.228h-0.014c0.014-0.042,0.042-0.07,0.042-0.083
		C40.384,27.172,40.37,27.2,40.356,27.228z M40.384,27.005c0.014,0.014,0.014,0.028,0.014,0.083
		C40.384,27.061,40.384,27.033,40.384,27.005z M40.565,27.659v-0.056c0,0.014,0.014,0.028,0.014,0.042
		C40.579,27.646,40.579,27.646,40.565,27.659z M40.551,26.615c0.028-0.042,0.056-0.097,0.07-0.125c0,0.028,0,0.042-0.014,0.07
		L40.551,26.615z M40.621,27.367c0-0.042,0.014-0.083,0.028-0.111c0,0.028,0.014,0.056,0.014,0.07
		C40.663,27.353,40.649,27.367,40.621,27.367z M43.614,20.169c0,0.042-0.014,0.083-0.014,0.125c-0.042,0.028-0.07,0.097-0.084,0.153
		C43.517,20.337,43.614,20.267,43.614,20.169z M43.35,20.657l0.028-0.056v0.056c-0.028,0.042-0.028,0.07-0.042,0.111
		C43.336,20.726,43.35,20.698,43.35,20.657z M42.57,22.62l-0.042,0.042c-0.014,0.014-0.042,0.014-0.056,0.014
		c-0.014,0.014-0.056,0.042-0.056,0.056c0.014-0.042,0.042-0.056,0.042-0.056c0.111-0.097,0.125-0.125,0.139-0.167
		C42.598,22.536,42.584,22.592,42.57,22.62z M42.751,21.729c-0.056,0-0.125,0.111-0.139,0.167c0.014-0.056,0.028-0.111,0.07-0.153
		l0.056-0.028l0.028-0.097c0.014-0.014,0.042-0.014,0.056-0.014l-0.056,0.028C42.765,21.659,42.751,21.701,42.751,21.729z
		 M42.862,22.16c0,0.042-0.028,0.07-0.028,0.083c0-0.028,0.014-0.07,0.028-0.097l0.07-0.028
		C42.918,22.146,42.876,22.146,42.862,22.16z M42.918,21.464c-0.014,0.014-0.056,0.014-0.084,0.028c0,0.028-0.014,0.056-0.014,0.07
		c0-0.028,0-0.056,0.014-0.083C42.862,21.478,42.89,21.464,42.918,21.464c0-0.028,0.014-0.07,0.014-0.097
		c0.028-0.014,0.056-0.014,0.07-0.028l-0.042,0.028C42.932,21.395,42.932,21.436,42.918,21.464z M42.988,21.993v-0.014
		c0-0.014,0-0.028,0.056-0.028C43.029,21.965,43.001,21.965,42.988,21.993z M43.127,21.798c0.014-0.028,0.014-0.056,0.056-0.084
		C43.182,21.743,43.182,21.771,43.127,21.798z M43.113,21.116c0,0.028-0.014,0.056-0.014,0.084c-0.014,0-0.028,0-0.042,0
		C43.099,21.158,43.099,21.144,43.113,21.116c0.014-0.014,0.028-0.042,0.084-0.042C43.182,21.102,43.141,21.102,43.113,21.116z
		 M43.21,20.977c0-0.028,0.014-0.07,0.014-0.097l0.084-0.07c-0.042,0.042-0.042,0.056-0.056,0.084L43.21,20.977z M43.28,21.52
		v-0.042l0.07-0.014l-0.014,0.014C43.308,21.492,43.294,21.506,43.28,21.52z M43.099,26.42v0.07l-0.042,0.056
		C43.085,26.462,43.085,26.434,43.099,26.42z M42.946,25.947v0.056c-0.014,0-0.014,0-0.014-0.014
		C42.932,25.989,42.946,25.961,42.946,25.947z M42.904,26.1c0,0.028,0,0.056-0.014,0.084c-0.014-0.014-0.014-0.028-0.014-0.042
		S42.876,26.128,42.904,26.1z M42.333,27.701l-0.014,0.014c0-0.042,0.014-0.042,0.028-0.056
		C42.333,27.673,42.333,27.687,42.333,27.701z M42.528,27.214c0.014-0.083,0.07-0.167,0.097-0.209
		C42.598,27.075,42.57,27.144,42.528,27.214z M42.695,26.838l-0.042,0.014c-0.014,0.014-0.028,0.028-0.028,0.056
		c0-0.028,0.014-0.056,0.028-0.07l0.139-0.459C42.765,26.532,42.737,26.685,42.695,26.838z M42.807,27.882
		c0.07-0.125,0.111-0.265,0.167-0.39c0.111-0.292,0.543-1.712,0.627-1.838C43.531,25.961,43.141,27.701,42.807,27.882z M43.6,25.627
		c0-0.028-0.014-0.056-0.014-0.084c0-0.042,0.028-0.056,0.07-0.056C43.628,25.529,43.614,25.571,43.6,25.627z M46.078,19.501
		l0.014,0.028l-0.014,0.014V19.501z M45.618,17.51c0-0.181,0.083-0.348,0.223-0.473c0.153,0.195,0.223,0.794,0.223,1.058
		c0,0.056-0.014,0.125-0.014,0.181C45.799,18.137,45.618,17.803,45.618,17.51z M46.05,19.64h0.014l-0.042,0.056L46.05,19.64z
		 M45.98,19.863h0.014c0,0.014-0.014,0.042-0.028,0.056C45.98,19.905,45.98,19.877,45.98,19.863z M45.855,20.267l0.028-0.014
		c-0.028,0.139-0.084,0.265-0.153,0.404L45.855,20.267z M45.131,22.481h-0.014l0.014-0.014V22.481z M45.229,21.743l0.111-0.223
		C45.326,21.603,45.298,21.701,45.229,21.743z M45.646,21.631c0.292-0.654,0.529-1.309,0.738-1.991
		c0.014-0.028,0.014-0.056,0.042-0.07C46.37,20.016,45.939,21.311,45.646,21.631z M46.454,19.473H46.44v-0.056h0.014V19.473z
		 M46.482,19.306h-0.014v-0.042h0.014V19.306z M47.386,23.399h-0.014v-0.042h0.014V23.399z M47.414,23.274H47.4v-0.042h0.014V23.274
		z M47.47,23.079h-0.014c0-0.014,0-0.028,0.014-0.028V23.079z M47.498,22.968h-0.014l0.014-0.014V22.968z M47.512,22.856
		l0.014-0.028c0.014,0.014,0.014,0.028,0.014,0.042L47.512,22.856z M47.567,22.773h-0.014v-0.042h0.014V22.773z M47.651,22.481
		c-0.014,0-0.014,0-0.014-0.014h0.014V22.481z M47.735,22.216v-0.014h0.014L47.735,22.216z M47.762,22.133v-0.028h0.014
		C47.776,22.119,47.776,22.133,47.762,22.133z M47.804,22.035H47.79v-0.028h0.014V22.035z M47.957,21.617h-0.014V21.59h0.014V21.617
		z M47.985,21.52h-0.014v-0.014h0.014V21.52z M48.013,21.422l-0.014-0.014h0.014V21.422z M47.721,20.629h0.028l-0.028,0.042V20.629z
		 M47.484,20.42h0.014c0,0.014,0,0.042-0.014,0.056V20.42z M46.468,23.539l0.153-0.557l0.668-2.033
		c0.042-0.139,0.084-0.334,0.181-0.445c-0.209,0.752-0.473,1.476-0.71,2.214C46.676,22.996,46.593,23.288,46.468,23.539z
		 M46.76,23.803c0-0.028,0-0.042,0.014-0.07c0,0.028,0.014,0.042,0.014,0.07H46.76z M46.788,23.692
		c0.07-0.306,0.111-0.64,0.209-0.947l0.682-2.005l0.042-0.042c-0.097,0.585-0.362,1.142-0.543,1.698
		c-0.139,0.418-0.237,0.849-0.362,1.267L46.788,23.692z M47.679,21.269v0.014h-0.014L47.679,21.269z M47.47,21.868v0.014h-0.014
		L47.47,21.868z M47.289,22.425v0.014l-0.014-0.014H47.289z M47.261,22.508v0.014l-0.014-0.014H47.261z M47.233,22.606l-0.014,0.014
		v-0.014H47.233z M47.08,23.107v0.014h-0.014L47.08,23.107z M47.011,24.36c-0.014-0.083-0.014-0.167-0.014-0.251
		c0-0.292,0.056-0.571,0.139-0.849c0.292-0.947,0.599-1.907,0.933-2.84h0.028c-0.042,0.445-0.223,0.877-0.362,1.295
		c-0.237,0.682-0.487,1.364-0.627,2.06C47.066,23.97,47.052,24.165,47.011,24.36z M47.261,23.873
		c-0.014-0.014-0.014-0.014-0.014-0.028h0.014V23.873z M47.289,23.734h-0.014v-0.028h0.014V23.734z"/>
	<path class="st1" d="M51.354,18.694c-0.613,0-1.142,0.807-1.476,1.239l-0.251-0.111c-0.668,0-1.253,1.545-1.253,2.116v0.167
		c0,0.863,0.64,1.587,1.517,1.587c0.097,0,0.195-0.014,0.292-0.028c0.334-0.056,0.557-0.237,0.794-0.459
		c0.794-0.738,1.685-2.047,1.685-3.174C52.662,19.432,51.952,18.694,51.354,18.694z M51.145,19.445c0.014,0,0.014-0.014,0.028-0.014
		h0.014v0.014c-0.32,0.32-0.571,0.682-0.849,1.044C50.407,20.128,50.853,19.654,51.145,19.445z M50.421,19.947
		c0-0.056,0.181-0.237,0.237-0.292C50.588,19.752,50.491,19.835,50.421,19.947z M50.839,19.153h0.028
		c-0.125,0.111-0.585,0.571-0.626,0.682l-0.042,0.028C50.379,19.599,50.588,19.362,50.839,19.153z M49.711,20.323l-0.014,0.028
		c-0.014,0.097-0.292,0.529-0.362,0.626C49.419,20.74,49.53,20.504,49.711,20.323z M49.516,20.253
		c-0.014,0.07-0.07,0.153-0.125,0.195L49.516,20.253z M49.377,20.142l-0.223,0.251C49.21,20.295,49.266,20.197,49.377,20.142z
		 M49.252,21.2v-0.028h0.028C49.266,21.186,49.266,21.2,49.252,21.2z M49.377,23.037c-0.056-0.195-0.07-0.39-0.07-0.585
		c0-0.557,0.195-1.086,0.404-1.601c0.209,0.265,0.39,0.571,0.78,0.571c0.056,0,0.111-0.042,0.139-0.083
		c-0.111-0.084-0.195-0.195-0.195-0.334c0-0.446,0.961-1.601,1.42-1.601c0.028,0.056,0.042,0.125,0.042,0.181
		c0,0.097-0.028,0.181-0.042,0.278C51.632,21.102,50.644,22.689,49.377,23.037z M51.02,22.119c0-0.056,0.237-0.334,0.306-0.432
		C51.242,21.854,51.145,22.007,51.02,22.119z M51.229,22.188l0.32-0.432c-0.084,0.153-0.209,0.292-0.306,0.445h-0.014V22.188z
		 M51.785,22.063h-0.014l0.014-0.014V22.063z M50.992,22.815c0.014-0.056,0.056-0.097,0.084-0.139
		c0.348-0.445,0.682-0.891,0.947-1.392C52.036,21.715,51.27,22.494,50.992,22.815z"/>
	<path class="st1" d="M55.098,22.648c0,0.014-0.014,0.014-0.014,0.028h0.014V22.648z"/>
	<path class="st1" d="M55.043,22.801l0.042-0.125l-0.251-0.195c-0.07,0.028-0.139,0.056-0.195,0.097
		c-0.376,0.251-0.696,0.459-1.169,0.501c-0.014-0.056-0.028-0.097-0.028-0.153c0-1.002,0.195-2.214,1.058-2.854
		c0.097-0.07,0.195-0.084,0.306-0.084h0.097c-0.083,0.195-0.139,0.39-0.139,0.599c0,0.446,0.278,0.78,0.724,0.835
		c-0.028-0.139-0.097-0.264-0.097-0.404c0-0.237,0.111-0.446,0.111-0.682c0-0.097-0.028-0.181-0.07-0.265
		c-0.237-0.459-0.724-0.891-1.267-0.891c-1.058,0-1.768,1.921-1.768,2.812c0,0.794,0.557,1.643,1.42,1.643
		c0.376,0,1.142-0.376,1.35-0.696c0.042-0.056,0.056-0.125,0.097-0.181c-0.042-0.014-0.084-0.028-0.111-0.07L55.043,22.801z
		 M55.029,20.142v0.028h-0.014C55.015,20.156,55.015,20.156,55.029,20.142z M53.818,19.919c-0.07,0.083-0.153,0.153-0.237,0.237
		C53.581,20.072,53.734,19.919,53.818,19.919z M53.275,20.114c0.056-0.083,0.265-0.404,0.362-0.404
		C53.567,19.821,53.386,20.058,53.275,20.114z M54.04,19.988l0.125-0.042h0.014c-0.265,0.237-0.418,0.487-0.613,0.78
		c-0.056,0.084-0.097,0.111-0.125,0.209h-0.014C53.511,20.698,53.804,20.086,54.04,19.988z"/>
	<path class="st1" d="M60.194,24.889c-0.975,0-2.13-1.462-2.506-2.269c0.515-0.627,1.044-1.253,1.573-1.879
		c0.237-0.278,0.626-0.724,0.626-1.114c0-0.265-0.376-0.585-0.626-0.585c-0.084,0-0.139,0.028-0.209,0.07
		c-0.933,0.515-1.531,1.1-2.102,1.991c0.195-1.183,0.529-2.353,0.807-3.522c0.195-0.807,0.459-1.601,0.459-2.436
		c0-0.418-0.181-0.933-0.557-1.142c-0.014-0.014-0.125-0.07-0.153-0.07c-0.056,0-0.097,0.014-0.153,0.014
		c0,0.195,0.042,0.376,0.042,0.571c0,0.529-0.39,1.726-0.543,2.283c-0.292,1.1-0.571,2.2-0.835,3.299
		c-0.251,1.072-0.543,2.172-0.543,3.286c0,0.529,0.084,1.002,0.557,1.323c0.07,0.042,0.139,0.07,0.209,0.083
		c0.125,0.028,0.251,0.014,0.376,0.028c0-0.097,0.014-0.195,0.014-0.292c0-0.306-0.056-0.599-0.056-0.905v-0.265
		c0.07,0.014,0.084,0.042,0.125,0.097c0.71,1.1,2.088,2.005,3.425,2.005c0.445,0,1.156-0.153,1.406-0.557
		c-0.209-0.028-0.418-0.084-0.626-0.084C60.667,24.819,60.43,24.889,60.194,24.889z M59.678,19.752h0.014
		c0,0.014,0,0.028-0.014,0.042V19.752z M57.242,20.852c0.432-0.557,0.863-1.156,1.517-1.476c-0.376,0.306-0.78,0.585-1.086,0.961
		c-0.028,0.042-0.056,0.07-0.097,0.097c-0.056,0.097-0.139,0.181-0.209,0.278c-0.181,0.237-0.32,0.501-0.473,0.752l-0.028,0.014
		C56.95,21.241,57.089,21.047,57.242,20.852z M58.495,19.849l-0.07,0.028l0.056-0.042L58.495,19.849z M57.869,20.378
		c-0.014,0.014-0.042,0.014-0.056,0.014l-0.028,0.042v-0.07c0.014,0,0.028,0,0.042,0.014H57.869z M57.757,20.504
		c-0.014,0.014-0.028,0.014-0.042,0.014l-0.028,0.084c-0.014,0-0.028,0-0.042,0.014l-0.028,0.07
		c-0.014,0.014-0.042,0.014-0.056,0.014c0,0.028,0,0.042-0.014,0.07v-0.097h0.028c0.014,0.014,0.028,0.014,0.042,0.014v-0.097
		l0.014-0.014l0.014,0.014c0.014,0,0.028,0,0.042,0.014V20.49h0.028C57.729,20.504,57.743,20.504,57.757,20.504z M57.548,20.782
		c-0.014,0-0.042,0-0.056,0.014c0,0.014-0.014,0.042-0.028,0.056v-0.083h0.042C57.521,20.768,57.534,20.768,57.548,20.782z
		 M57.451,20.866c-0.028,0.028-0.028,0.056-0.07,0.07c0,0.028-0.014,0.056-0.028,0.07l-0.028,0.042v-0.042h0.028v-0.056
		c0.014-0.014,0.014-0.028,0.014-0.042l0.028-0.056h0.042L57.451,20.866z M57.312,21.074c0,0.014-0.014,0.042-0.028,0.056
		l-0.028,0.042V21.13h0.028c0-0.014,0-0.042,0.014-0.056H57.312z M57.242,21.2c0,0.014-0.014,0.042-0.028,0.056l-0.042,0.042v-0.056
		c0.014,0.014,0.028,0.014,0.042,0.014v-0.07L57.242,21.2z M57.075,21.409c0-0.028,0.042-0.042,0.056-0.042
		c0-0.028,0-0.042,0.014-0.07l0.014,0.014c0,0.014-0.014,0.042-0.028,0.056l-0.042,0.084C57.089,21.436,57.075,21.409,57.075,21.409
		z M57.089,21.464l-0.028,0.042v-0.042H57.089z M57.047,21.52l-0.028,0.042V21.52H57.047z M56.978,21.673l-0.028,0.028l-0.014-0.028
		H56.978z M56.769,22.244h-0.014l0.014-0.014V22.244z M57.757,20.587l-0.014,0.028c-0.181,0.251-0.348,0.473-0.501,0.752
		c-0.139,0.278-0.251,0.585-0.473,0.807C56.991,21.757,57.367,20.935,57.757,20.587z M57.061,21.812v0.014l-0.014-0.014H57.061z
		 M56.894,22.16l-0.014-0.014h0.014V22.16z M57.103,22.202l-0.084,0.084l-0.07-0.084c0.515-1.156,1.239-2.144,2.367-2.771
		l0.042,0.028c-0.348,0.501-0.752,0.975-1.142,1.434L57.103,22.202z M59.205,19.947c-0.042,0.097-0.153,0.153-0.181,0.251
		c-0.097,0.097-0.153,0.195-0.251,0.292C58.899,20.295,59.038,20.114,59.205,19.947z M58.676,20.615l-0.07,0.07l0.056-0.07H58.676z
		 M58.425,20.907v0.014l-0.056,0.056l0.042-0.07H58.425z M57.493,22.272v-0.014l0.014,0.014H57.493z M57.604,22.355l1.74-2.088
		c0.083-0.111,0.181-0.237,0.251-0.362c-0.042,0.097-0.083,0.223-0.139,0.292l-1.587,1.921c-0.097,0.111-0.209,0.223-0.32,0.32
		L57.604,22.355z"/>
	<path class="st1" d="M61.488,19l-0.111,0.028l0.278,0.515c-0.125-0.028-0.251-0.056-0.376-0.056c-0.529,0-0.961,0.237-1.267,0.668
		c-0.39,0.543-0.668,1.211-0.668,1.879c0,0.821,0.501,1.406,1.35,1.406c0.39,0,0.766-0.265,0.794-0.668l-0.056,0.07
		c0,0.056-0.014,0.097-0.056,0.139v-0.056l-0.028,0.056h-0.014l-0.014,0.056h-0.014l0.014,0.028h-0.042v0.014l-0.028-0.014
		l0.014-0.042l-0.097-0.014c0.014-0.084,0.097-0.139,0.097-0.237c0-0.014-0.014-0.042-0.028-0.07
		c-0.084,0.125-0.111,0.265-0.265,0.334c0.042-0.111,0.153-0.209,0.153-0.334v-0.042l-0.014,0.014
		c-0.097,0.251-0.32,0.445-0.613,0.445c-0.195,0-0.237-0.529-0.237-0.668c0-0.111-0.014-0.348,0.042-0.459
		c0.919,0,2.116-0.724,2.116-1.74C62.421,19.64,62.045,19.181,61.488,19z M60.694,20.337l0.014-0.014v0.014l-0.056,0.028
		C60.667,20.35,60.667,20.337,60.694,20.337z M60.332,20.476c0,0.014-0.014,0.042-0.028,0.056h-0.014
		C60.305,20.531,60.318,20.49,60.332,20.476z M59.859,20.921h-0.014c0-0.014,0-0.014,0.014-0.014V20.921z M59.915,20.782
		l-0.028-0.014l0.042-0.07L59.915,20.782z M59.943,20.685h-0.014l0.014-0.014V20.685z M60.124,21.409H60.11
		c0-0.028,0-0.056,0.014-0.07V21.409z M60.151,20.364l-0.056,0.042l-0.028,0.056c-0.014,0.056-0.028,0.111-0.097,0.139
		c0.028-0.056,0.07-0.097,0.097-0.139v-0.014l0.028-0.042l0.07-0.111C60.165,20.323,60.151,20.337,60.151,20.364z M60.179,21.255
		c0-0.292,0.265-0.682,0.459-0.877C60.513,20.685,60.277,20.949,60.179,21.255z M60.444,21.436c0.111-0.613,0.613-1.295,1.239-1.434
		v0.056C61.683,20.559,60.945,21.381,60.444,21.436z M61.585,20.838l-0.042,0.014l0.042-0.028V20.838z M61.669,20.685v-0.014
		l0.028-0.056C61.697,20.643,61.683,20.657,61.669,20.685z M61.738,20.531v-0.028h0.028C61.766,20.518,61.752,20.531,61.738,20.531z
		 M61.85,20.726l-0.014,0.042h-0.014L61.85,20.726z M61.878,21.033c0-0.084,0.223-0.404,0.278-0.501
		C62.1,20.712,62.017,20.893,61.878,21.033z"/>
	<path class="st1" d="M65.504,22.481c-0.153-0.046-0.299-0.086-0.439-0.118c-0.139-0.032-0.223-0.044-0.251-0.035
		c-0.047,0.13-0.084,0.239-0.111,0.327c-0.028,0.088-0.051,0.156-0.07,0.202c-0.047,0.139-0.026,0.267,0.063,0.383
		c0.088,0.116,0.206,0.197,0.355,0.244c0.148,0.046,0.306,0.049,0.473,0.007s0.301-0.146,0.404-0.313
		c0.028-0.037,0.06-0.095,0.097-0.174c0.037-0.079,0.079-0.174,0.125-0.285c-0.019-0.018-0.093-0.051-0.223-0.097
		C65.798,22.573,65.657,22.527,65.504,22.481z M65.17,23.434c-0.07-0.023-0.132-0.056-0.188-0.097s-0.095-0.09-0.118-0.146
		c-0.023-0.056-0.026-0.116-0.007-0.181c0.009,0.102,0.067,0.197,0.174,0.285c0.107,0.088,0.225,0.146,0.355,0.174
		C65.311,23.469,65.239,23.457,65.17,23.434z"/>
	<path class="st1" d="M69.235,14.935c-0.06-0.093-0.142-0.169-0.244-0.23c-0.102-0.06-0.209-0.107-0.32-0.139
		c-0.111-0.032-0.19-0.049-0.237-0.049c0.018,0.019,0.021,0.056,0.007,0.111s-0.03,0.107-0.049,0.153
		c-0.019-0.111-0.067-0.19-0.146-0.237c-0.079-0.046-0.146-0.07-0.202-0.07c0.018,0.056,0.021,0.139,0.007,0.251
		c-0.014,0.111-0.072,0.204-0.174,0.278c0.037-0.074,0.039-0.169,0.007-0.285c-0.033-0.116-0.067-0.197-0.104-0.244
		c-0.028,0.065-0.1,0.244-0.216,0.536c-0.116,0.292-0.255,0.652-0.418,1.079c-0.138,0.363-0.291,0.767-0.452,1.198
		c-0.074-0.017-0.153-0.047-0.153-0.14c-0.181-0.237-0.251-0.292-0.543-0.292c-0.251,0-0.487,0-0.724,0.056
		c-0.097,0.028-0.209,0.014-0.306,0.028c0,0,0.501-1.434,0.501-1.49c0-0.125-0.139-0.195-0.223-0.265l-0.111,0.028v-0.139
		l-0.153-0.056l-0.111,0.097l0.07-0.195l-0.111,0.014l-0.056-0.084c-0.07,0.084-0.125,0.167-0.209,0.251l0.097-0.223l-0.167-0.083
		c-0.125,0-0.181,0.083-0.237,0.181c-0.195,0.334-0.418,0.682-0.571,1.044c-0.195,0.473-0.473,0.891-0.78,1.295
		c-0.306,0.07-0.626,0.097-0.933,0.181c-0.139,0.042-0.167,0.083-0.195,0.223l0.125,0.07l-0.014,0.083
		c0.097,0.125,0.278,0.265,0.418,0.306l-0.014,0.014c0.139,0,0.292-0.014,0.432-0.014c0.042,0,0.167,0,0.167,0.07
		c0,0.097-0.042,0.181-0.056,0.278c-0.056,0.39-0.153,0.78-0.223,1.169c-0.07,0.334-0.097,0.682-0.153,1.016
		c-0.223,1.448-0.418,2.938-0.418,4.399c0,0.487,0,1.434,0.515,1.698c0.167,0.084,0.348,0.125,0.515,0.209l0.084-0.125
		c0.014,0.028,0.028,0.07,0.07,0.07c0.097,0,0.278-0.042,0.278-0.167c0-0.042,0-0.07-0.014-0.111
		c-0.083-0.348-0.139-0.724-0.139-1.086c0-0.905,0.111-1.824,0.251-2.715c0.278-1.685,0.571-3.369,1.072-4.998
		c0.474-0.079,1.6-0.186,1.992-0.528c-0.02,0.052-0.037,0.099-0.057,0.152c-0.195,0.52-0.39,1.039-0.585,1.559
		c-0.195,0.52-0.381,1.021-0.557,1.503c-0.176,0.483-0.33,0.896-0.459,1.239c0,0.019,0.063,0.054,0.188,0.104
		c0.125,0.051,0.267,0.1,0.425,0.146c0.158,0.047,0.311,0.088,0.459,0.125c0.148,0.037,0.241,0.056,0.278,0.056
		c0.12-0.278,0.269-0.624,0.445-1.037c0.176-0.413,0.359-0.856,0.55-1.329c0.19-0.473,0.385-0.956,0.585-1.448
		c0.199-0.492,0.385-0.949,0.557-1.371c0.172-0.422,0.322-0.796,0.452-1.121c0.13-0.325,0.227-0.552,0.292-0.682
		C69.297,15.135,69.295,15.028,69.235,14.935z M62.434,23.845H62.42v-0.181h0.014V23.845z M64.174,16.703
		c-0.028,0.139-0.042,0.292-0.153,0.404C64.049,16.967,64.063,16.814,64.174,16.703z M63.854,18.262h0.014
		c0,0.014,0,0.014-0.014,0.028V18.262z M63.813,18.387l0.028,0.014l-0.028,0.07V18.387z M63.144,17.246
		c0-0.028,0.028-0.056,0.056-0.056l-0.056,0.083V17.246z M62.49,23.246h-0.014v-0.167h0.014V23.246z M62.532,22.842h-0.028
		l0.139-1.156l0.042,0.014C62.629,22.077,62.573,22.467,62.532,22.842z M62.699,21.506c0-0.445,0.459-3.091,0.654-3.397
		c-0.292,1.142-0.459,2.311-0.654,3.467V21.506z M62.727,24.249h-0.014v-0.139h0.014V24.249z M62.741,23.901h-0.014v-0.028h0.014
		V23.901z M62.768,23.608h-0.014l0.014-0.265h0.014L62.768,23.608z M62.824,23.204h-0.028c0-0.07,0.014-0.125,0.014-0.195h0.014
		V23.204z M62.852,22.773c0-0.571,0.64-4.427,0.891-4.747c-0.167,0.807-0.348,1.601-0.501,2.409
		c-0.153,0.794-0.265,1.601-0.39,2.409V22.773z M63.785,18.638l-0.028,0.056l-0.014-0.014L63.785,18.638z M63.729,18.805v0.042
		h-0.028L63.729,18.805z M63.659,19.111v0.042h-0.014v-0.042H63.659z M63.618,19.292v0.028h-0.014L63.618,19.292z M63.59,19.432
		l-0.014,0.07h-0.014c0.014-0.028,0.014-0.042,0.014-0.07H63.59z M63.548,19.613v0.042h-0.014v-0.042H63.548z M63.228,24.402h-0.014
		V24.36h0.014V24.402z M63.27,23.984h-0.014c0-0.028,0-0.056,0.014-0.07V23.984z M63.325,23.525h-0.014v-0.042h0.014V23.525z
		 M62.963,25.766c-0.028-0.209-0.028-0.432-0.028-0.64c0-1.211,0.195-2.436,0.376-3.634c0.195-1.169,0.404-2.367,0.752-3.508
		l0.125-0.014C63.52,20.518,63.075,23.135,62.963,25.766z M63.367,23.204h-0.014v-0.056h0.014V23.204z M63.395,22.912v-0.056h0.014
		L63.395,22.912z M63.437,22.648c-0.014-0.014-0.014-0.042-0.014-0.056h0.014c0,0.014,0,0.042,0.014,0.056H63.437z M63.478,22.411
		h-0.014v-0.097h0.014V22.411z M63.52,22.133h-0.014v-0.056h0.014V22.133z M63.562,21.91h-0.014v-0.111h0.014V21.91z M63.604,21.673
		h-0.028V21.59h0.028V21.673z M63.618,21.45v-0.07h0.014c0.014,0.028,0.014,0.042,0.014,0.07H63.618z M63.673,21.214h-0.014v-0.056
		h0.014V21.214z M63.715,21.047h-0.028l0.014-0.097h0.014V21.047z M63.729,20.838v-0.083h0.014c0.014,0.028,0.014,0.056,0.014,0.083
		H63.729z M63.785,20.657h-0.014v-0.111h0.014V20.657z M63.826,20.462c-0.014,0-0.014,0-0.028-0.014l0.014-0.083h0.014V20.462z
		 M63.854,20.281H63.84v-0.097h0.014V20.281z M63.896,20.086h-0.014v-0.084h0.014V20.086z M63.938,19.919l-0.028-0.014l0.028-0.07
		V19.919z M63.952,19.794c0-0.028-0.014-0.042-0.014-0.07c0-0.028,0.028-0.056,0.056-0.056L63.952,19.794z M63.994,19.654
		c0-0.028-0.014-0.042-0.014-0.07c0-0.042,0.028-0.056,0.056-0.07L63.994,19.654z M64.035,19.501
		c-0.014-0.042-0.014-0.084-0.014-0.125h0.028C64.049,19.418,64.035,19.459,64.035,19.501z M64.077,19.292h-0.028
		c0-0.028,0.014-0.042,0.028-0.07V19.292z M64.091,19.167l-0.014,0.014c0-0.014,0-0.028,0.014-0.042V19.167z M64.244,18.638v0.014
		H64.23c-0.014,0.07-0.042,0.153-0.07,0.223v0.014L64.133,19c0-0.042,0.014-0.07,0.014-0.111l0.014-0.014
		c0-0.083,0-0.167,0.07-0.223L64.244,18.638c-0.014-0.028-0.014-0.056-0.014-0.084c0-0.056,0.028-0.111,0.07-0.153
		C64.272,18.485,64.258,18.555,64.244,18.638z M64.342,18.248L64.3,18.346c0.014-0.056,0.014-0.097,0.042-0.153V18.248z
		 M64.536,15.144v0.028l-0.07,0.125C64.481,15.241,64.509,15.199,64.536,15.144z M64.453,15.937h0.042l-0.042,0.028V15.937z
		 M64.411,17.998c0,0.042-0.014,0.084-0.056,0.097l0.056-0.153V17.998z M64.523,16.94c-0.014,0.056-0.042,0.111-0.111,0.111h-0.028
		c0-0.111,0.32-0.905,0.39-1.03c0.042-0.056,0.097-0.111,0.139-0.181C64.773,16.216,64.662,16.578,64.523,16.94z M66.318,19.759
		c0.065-0.181,0.146-0.404,0.244-0.668c0.097-0.264,0.202-0.547,0.313-0.849c0.111-0.301,0.218-0.585,0.32-0.849
		c0.102-0.264,0.19-0.489,0.264-0.675c0.074-0.185,0.121-0.292,0.139-0.32c-0.009,0.047-0.047,0.162-0.111,0.348
		c-0.065,0.186-0.144,0.406-0.237,0.661c-0.093,0.255-0.193,0.531-0.299,0.828c-0.107,0.297-0.211,0.573-0.313,0.828
		c-0.102,0.255-0.19,0.476-0.265,0.661c-0.074,0.186-0.125,0.302-0.153,0.348C66.221,20.044,66.253,19.94,66.318,19.759z
		 M66.04,21.012c0.037-0.097,0.079-0.193,0.125-0.285c0,0.056-0.016,0.13-0.049,0.223c-0.033,0.093-0.072,0.186-0.118,0.278
		C65.989,21.181,66.003,21.109,66.04,21.012z M66.673,19.794c-0.116,0.306-0.223,0.592-0.32,0.856
		c-0.097,0.265-0.188,0.494-0.271,0.689c-0.083,0.195-0.149,0.33-0.195,0.404c0.028-0.056,0.084-0.193,0.167-0.411
		c0.084-0.218,0.179-0.475,0.285-0.773c0.107-0.297,0.223-0.615,0.348-0.954c0.125-0.339,0.241-0.652,0.348-0.94
		c0.107-0.288,0.199-0.534,0.278-0.738c0.079-0.204,0.127-0.32,0.146-0.348c-0.047,0.13-0.111,0.313-0.195,0.55
		c-0.083,0.237-0.174,0.497-0.271,0.78C66.896,19.193,66.789,19.488,66.673,19.794z M67.947,17.239
		c-0.047,0.135-0.1,0.288-0.16,0.459c-0.06,0.172-0.128,0.355-0.202,0.55c-0.074,0.195-0.144,0.378-0.209,0.55
		c-0.065,0.172-0.125,0.32-0.181,0.445s-0.093,0.207-0.111,0.244c0.009-0.084,0.06-0.248,0.153-0.494
		c0.093-0.246,0.193-0.508,0.299-0.787c0.107-0.278,0.209-0.538,0.306-0.78c0.097-0.241,0.16-0.394,0.188-0.459
		C68.021,17.014,67.993,17.105,67.947,17.239z"/>
</g>
</svg>
