<?xml version="1.0" encoding="utf-8"?>
<!-- Generator: Adobe Illustrator 21.1.0, SVG Export Plug-In . SVG Version: 6.00 Build 0)  -->
<svg version="1.1" id="Layer_1" xmlns="http://www.w3.org/2000/svg" xmlns:xlink="http://www.w3.org/1999/xlink" x="0px" y="0px"
	 viewBox="0 0 50 50" style="enable-background:new 0 0 50 50;" xml:space="preserve">
<style type="text/css">
	.st0{fill:#E74C3B;}
	.st1{fill:#FFFFFF;}
	.st2{fill:#B63B2C;}
	.st3{fill:#882719;}
</style>
<g>
	<g>
		<rect class="st0" width="44.004" height="44.004"/>
		<path class="st1" d="M17.946,24.463c-0.237-0.426-0.477-0.831-0.691-1.248c-0.216-0.421-0.28-0.883-0.271-1.351
			c0.002-0.131,0.055-0.263,0.095-0.392c0.073-0.234,0.154-0.466,0.247-0.749c-0.185,0.019-0.317,0.037-0.448,0.045
			c-1.942,0.124-3.667-0.365-5.036-1.816c-1.159-1.229-1.568-2.7-1.421-4.37c0.22-2.489,2.662-5.235,5.588-5.691
			c0.983-0.153,1.965-0.248,2.961-0.244c2.138,0.01,4.277,0.003,6.415,0.003c0.085,0,0.171,0,0.329,0
			c-0.114,0.082-0.166,0.125-0.223,0.158c-0.599,0.354-1.197,0.71-1.802,1.055c-0.105,0.06-0.238,0.094-0.359,0.096
			c-0.607,0.01-1.214,0.004-1.876,0.004c0.081,0.073,0.121,0.116,0.167,0.15c1.214,0.878,1.851,2.091,2.044,3.553
			c0.12,0.91,0.119,1.822-0.119,2.716c-0.268,1.008-0.864,1.803-1.634,2.491c-0.464,0.415-0.911,0.856-1.319,1.325
			c-0.53,0.609-0.601,1.414-0.184,1.972c0.237,0.317,0.53,0.599,0.826,0.865c0.72,0.646,1.492,1.239,2.181,1.916
			c2.008,1.974,1.952,4.953,0.483,6.957c-1.097,1.497-2.559,2.467-4.338,2.953c-1.965,0.537-3.964,0.68-5.959,0.229
			c-1.201-0.272-2.368-0.695-3.352-1.483c-1.54-1.233-1.993-3.164-1.241-4.994c0.579-1.409,1.651-2.297,2.967-2.931
			c1.265-0.609,2.63-0.89,4.013-1.067C16.638,24.531,17.295,24.511,17.946,24.463z M17.835,25.463
			c-1.339,0.017-1.831,0.08-3.076,0.525c-0.575,0.205-1.182,0.413-1.666,0.768c-2.029,1.49-1.995,4.467,0.254,5.892
			c1.808,1.146,3.832,1.407,5.931,1.016c0.809-0.151,1.585-0.427,2.226-0.956c1.487-1.228,1.67-3.644,0.085-5.159
			c-0.536-0.512-1.156-0.935-1.702-1.437c-0.586-0.539-1.237-0.789-2.028-0.649C17.851,25.464,17.843,25.462,17.835,25.463z
			 M13.36,13.855c0.061,1.398,0.586,2.92,1.536,4.277c0.846,1.208,2.001,1.839,3.524,1.621c0.723-0.103,1.319-0.412,1.726-1.044
			c0.503-0.78,0.63-1.653,0.618-2.549c-0.02-1.439-0.394-2.8-1.049-4.075c-0.646-1.257-1.584-2.151-3.08-2.243
			c-0.908-0.056-1.715,0.197-2.317,0.919C13.638,11.577,13.359,12.536,13.36,13.855z"/>
		<path class="st1" d="M31.235,20.96c0,1.38,0,2.729,0,4.095c-0.694,0-1.362,0-2.066,0c0-1.357,0-2.711,0-4.087
			c-1.384,0-2.734,0-4.097,0c-0.009-0.082-0.021-0.143-0.021-0.204c-0.002-0.544,0.007-1.089-0.005-1.633
			c-0.004-0.195,0.064-0.243,0.249-0.242c1.193,0.007,2.386-0.002,3.579,0.008c0.219,0.002,0.287-0.058,0.285-0.28
			c-0.011-1.161-0.007-2.322-0.007-3.482c0-0.102,0.009-0.204,0.014-0.32c0.695,0,1.371,0,2.065,0
			c0.005,0.116,0.014,0.218,0.014,0.32c0,1.161,0.004,2.322-0.007,3.483c-0.002,0.222,0.066,0.281,0.285,0.279
			c1.185-0.01,2.37,0,3.555-0.009c0.208-0.002,0.279,0.051,0.273,0.267c-0.014,0.591-0.005,1.183-0.005,1.805
			C33.971,20.96,32.616,20.96,31.235,20.96z"/>
	</g>
	<g>
		<polygon class="st2" points="46.864,46.424 2.86,46.424 0,44.004 44.004,44.004 		"/>
	</g>
	<g>
		<polygon class="st3" points="46.864,2.42 46.864,46.424 44.004,44.004 44.004,0 		"/>
	</g>
</g>
</svg>
