<?xml version="1.0" encoding="utf-8"?>
<!-- Generator: Adobe Illustrator 22.1.0, SVG Export Plug-In . SVG Version: 6.00 Build 0)  -->
<svg version="1.1" id="Layer_1" xmlns="http://www.w3.org/2000/svg" xmlns:xlink="http://www.w3.org/1999/xlink" x="0px" y="0px"
	 viewBox="0 0 378 54" style="enable-background:new 0 0 378 54;" xml:space="preserve">
<style type="text/css">
	.st0{fill:#758492;enable-background:new    ;}
	.st1{fill:url(#SVGID_1_);}
	.st2{fill:url(#SVGID_2_);}
	.st3{fill:url(#SVGID_3_);}
	.st4{fill:#F5F5F5;}
	.st5{fill:#00B1E1;}
	.st6{opacity:0.51;}
	.st7{fill:#217CC0;}
	.st8{opacity:0.33;fill:#FFFFFF;enable-background:new    ;}
	.st9{fill:#FFFFFF;}
</style>
<g>
	<g>
		<path class="st0" d="M93.639,3.129v10.886c-1.97-1.053-4.212-1.654-6.599-1.654c-7.781,0-14.087,6.363-14.087,14.214
			c0,7.851,6.306,14.214,14.087,14.214c2.387,0,4.632-0.6,6.599-1.654v1.654h7.489V3.129H93.639z M87.197,33.259
			c-3.557,0-6.442-2.912-6.442-6.505c0.003-3.593,2.888-6.505,6.442-6.505c3.557,0,6.442,2.911,6.442,6.505
			C93.639,30.345,90.754,33.259,87.197,33.259z"/>
		<path class="st0" d="M57.861,13.213c-2.448,0-4.752,0.616-6.769,1.696v-1.696h-7.682v38.633h7.682V40.677
			c2.021,1.08,4.321,1.696,6.769,1.696c7.983,0,14.452-6.528,14.452-14.582C72.312,19.741,65.844,13.213,57.861,13.213z
			 M57.702,34.279c-3.649,0-6.608-2.987-6.608-6.67c0-3.68,2.962-6.67,6.608-6.67c3.65,0,6.608,2.987,6.608,6.67
			C64.311,31.293,61.352,34.279,57.702,34.279z"/>
		<path class="st0" d="M40.441,19.748c-0.068-0.167-0.148-0.327-0.22-0.49c-0.163-0.369-0.333-0.731-0.517-1.09
			c-0.104-0.199-0.211-0.395-0.321-0.594c-0.184-0.327-0.377-0.65-0.576-0.965c-0.11-0.172-0.214-0.345-0.327-0.514
			c-0.309-0.455-0.63-0.897-0.974-1.325c-0.092-0.116-0.193-0.223-0.288-0.333c-0.273-0.327-0.556-0.645-0.849-0.95
			c-0.146-0.152-0.291-0.297-0.44-0.443c-0.276-0.27-0.561-0.535-0.853-0.787c-0.145-0.125-0.285-0.253-0.431-0.374
			c-0.428-0.354-0.871-0.695-1.328-1.01c-0.08-0.056-0.169-0.104-0.249-0.16c-0.392-0.261-0.796-0.514-1.209-0.746
			c-0.163-0.092-0.333-0.181-0.499-0.27c-0.362-0.193-0.728-0.371-1.105-0.541c-0.163-0.074-0.321-0.152-0.487-0.217
			c-0.529-0.223-1.067-0.428-1.616-0.6c-0.047-0.015-0.095-0.024-0.143-0.039c-0.511-0.157-1.034-0.291-1.56-0.41
			c-0.175-0.039-0.354-0.071-0.529-0.104c-0.425-0.08-0.856-0.148-1.292-0.199c-0.178-0.021-0.354-0.045-0.535-0.062
			c-0.597-0.056-1.2-0.095-1.812-0.095c-0.618,0-1.23,0.039-1.833,0.095c-0.19,0.018-0.374,0.047-0.556,0.068
			c-0.422,0.051-0.841,0.113-1.254,0.19c-0.199,0.039-0.398,0.077-0.594,0.122c-0.425,0.098-0.844,0.208-1.254,0.33
			c-0.157,0.047-0.318,0.086-0.475,0.14c-0.556,0.178-1.102,0.38-1.634,0.606c-0.104,0.045-0.205,0.098-0.306,0.143
			c-0.431,0.193-0.85,0.398-1.263,0.621c-0.178,0.095-0.35,0.199-0.523,0.297c-0.335,0.193-0.666,0.395-0.989,0.609
			c-0.175,0.116-0.347,0.232-0.52,0.351c-0.342,0.244-0.671,0.496-0.995,0.758c-0.125,0.104-0.258,0.199-0.383,0.306
			c-0.425,0.359-0.835,0.74-1.227,1.135c-0.14,0.137-0.264,0.282-0.398,0.425c-0.261,0.276-0.517,0.561-0.76,0.85
			C7.163,14.656,7.018,14.84,6.87,15.03c-0.214,0.273-0.419,0.559-0.618,0.844c-0.137,0.193-0.273,0.386-0.404,0.588
			c-0.22,0.339-0.425,0.692-0.624,1.046c-0.11,0.19-0.22,0.38-0.324,0.576c-0.232,0.446-0.448,0.906-0.648,1.373
			c-0.095,0.22-0.178,0.448-0.264,0.674c-0.08,0.208-0.169,0.41-0.244,0.621c0.006,0.003,0.009,0.006,0.015,0.009
			c-0.728,2.089-1.144,4.325-1.144,6.67c0,11.049,8.806,20.006,19.664,20.006s19.664-8.954,19.664-20.006
			c0.002-2.704-0.529-5.282-1.483-7.635C40.456,19.78,40.447,19.763,40.441,19.748z"/>
	</g>
	<linearGradient id="SVGID_1_" gradientUnits="userSpaceOnUse" x1="22.4912" y1="5.3639" x2="22.4912" y2="47.0134">
		<stop  offset="0" style="stop-color:#FFFFFF"/>
		<stop  offset="0.5207" style="stop-color:#DDDDDC"/>
		<stop  offset="0.5365" style="stop-color:#DEDEDD"/>
		<stop  offset="1" style="stop-color:#C7C7C7"/>
	</linearGradient>
	<path class="st1" d="M18.037,14.947c1.497,0,16.344,8.579,16.344,11.294c0,2.712-14.445,11.294-16.344,11.294
		C16.141,37.538,16.543,14.947,18.037,14.947z M22.493,5.364c11.306,0,20.469,9.327,20.469,20.825
		c0,11.501-9.166,20.825-20.469,20.825S2.021,37.687,2.021,26.186S11.187,5.364,22.493,5.364z"/>
	<linearGradient id="SVGID_2_" gradientUnits="userSpaceOnUse" x1="87.138" y1="2.4879" x2="87.138" y2="41.0881">
		<stop  offset="0" style="stop-color:#FFFFFF"/>
		<stop  offset="0.0732" style="stop-color:#F4F4F4"/>
		<stop  offset="0.1803" style="stop-color:#EDEDED"/>
		<stop  offset="0.4549" style="stop-color:#EBEBEB"/>
		<stop  offset="0.6207" style="stop-color:#E7E7E7"/>
		<stop  offset="0.7931" style="stop-color:#DADADA"/>
		<stop  offset="0.9681" style="stop-color:#C6C6C6"/>
		<stop  offset="1" style="stop-color:#C1C1C1"/>
	</linearGradient>
	<path class="st2" d="M87.296,20.035c3.646,0,6.602,2.984,6.602,6.668s-2.956,6.668-6.602,6.668c-3.646,0-6.602-2.984-6.602-6.668
		C80.697,23.019,83.653,20.035,87.296,20.035z M93.901,2.488v11.158c-2.02-1.079-4.317-1.695-6.763-1.695
		c-7.975,0-14.439,6.522-14.439,14.569s6.463,14.569,14.439,14.569c2.446,0,4.744-0.615,6.763-1.695v1.695h7.675v-38.6H93.901z"/>
	<linearGradient id="SVGID_3_" gradientUnits="userSpaceOnUse" x1="57.9265" y1="13.0054" x2="57.9265" y2="51.6061">
		<stop  offset="0" style="stop-color:#FFFFFF"/>
		<stop  offset="0.0264" style="stop-color:#F4F4F4"/>
		<stop  offset="0.0652" style="stop-color:#EDEDED"/>
		<stop  offset="0.1644" style="stop-color:#EBEBEB"/>
		<stop  offset="0.8561" style="stop-color:#C3C3C3"/>
	</linearGradient>
	<path class="st3" d="M57.766,20.724c3.646,0,6.602,2.984,6.602,6.664s-2.956,6.664-6.602,6.664s-6.602-2.984-6.602-6.664
		S54.123,20.724,57.766,20.724z M57.926,13.005c-2.446,0-4.747,0.615-6.763,1.695v-1.695h-7.675v38.601h7.675V40.448
		c2.02,1.079,4.317,1.695,6.763,1.695c7.975,0,14.439-6.522,14.439-14.569S65.902,13.005,57.926,13.005z"/>
	<path class="st4" d="M22.493,5.364c-8.909,0-16.483,5.792-19.297,13.873c3.535,2.554,8.263,4.367,13.604,5.065
		c0.133-4.932,0.578-9.355,1.237-9.355c1.107,0,9.516,4.697,13.82,8.235c3.77-1.113,7.048-2.82,9.556-4.942
		C38.345,10.683,31.031,5.364,22.493,5.364z"/>
	<path class="st5" d="M18.037,14.947c1.497,0,16.344,8.579,16.344,11.294c0,2.712-14.445,11.294-16.344,11.294
		C16.141,37.538,16.543,14.947,18.037,14.947z"/>
	<g class="st6">
		<path class="st7" d="M18.037,14.947c-0.189,0-0.362,0.365-0.513,1.005c1.902,0.278,16.248,8.61,16.248,11.282
			c0,0.102-0.028,0.213-0.065,0.334c0.43-0.52,0.677-0.974,0.677-1.324C34.38,23.526,19.53,14.947,18.037,14.947z"/>
	</g>
	<path class="st8" d="M16.8,24.302c1.577,0.207,3.204,0.315,4.871,0.315c3.631,0,7.076-0.513,10.187-1.432
		c-4.305-3.541-12.713-8.232-13.82-8.232C17.378,14.947,16.933,19.373,16.8,24.302z"/>
	<path class="st9" d="M33.74,27.03c-2.896,3.54-14.319,10.199-16.009,10.199c-0.019,0-0.038-0.006-0.057-0.01
		c0.11,0.204,0.231,0.317,0.363,0.317c1.653,0,12.809-6.501,15.672-9.974c0.036-0.118,0.063-0.227,0.063-0.326
		C33.771,27.17,33.755,27.1,33.74,27.03z"/>
	<g>
		<g>
			<g>
				<g>
					<path class="st9" d="M103.759,5.453c0-0.555,0.128-1.07,0.385-1.545s0.612-0.849,1.067-1.123s0.946-0.41,1.473-0.41
						c0.527,0,1.018,0.137,1.473,0.41s0.81,0.648,1.067,1.123s0.385,0.99,0.385,1.545c0,0.547-0.125,1.056-0.375,1.528
						c-0.25,0.472-0.602,0.851-1.057,1.135c-0.455,0.284-0.952,0.426-1.493,0.426c-0.541,0-1.039-0.142-1.493-0.426
						c-0.455-0.284-0.807-0.663-1.057-1.135C103.884,6.509,103.759,5.999,103.759,5.453z M104.109,5.451
						c0,0.492,0.115,0.95,0.344,1.373c0.229,0.424,0.544,0.757,0.943,1c0.4,0.243,0.829,0.365,1.287,0.365
						c0.459,0,0.889-0.122,1.29-0.365c0.401-0.244,0.715-0.577,0.941-1.002c0.227-0.425,0.34-0.882,0.34-1.371
						c0-0.484-0.111-0.935-0.334-1.352c-0.222-0.418-0.534-0.751-0.933-0.998c-0.4-0.247-0.834-0.371-1.304-0.371
						c-0.461,0-0.892,0.122-1.292,0.365c-0.4,0.244-0.713,0.575-0.941,0.994C104.223,4.507,104.109,4.961,104.109,5.451z
						 M106.017,5.708v1.425h-0.404V3.677h1.063c0.404,0,0.714,0.084,0.931,0.253c0.217,0.168,0.325,0.424,0.325,0.767
						c0,0.365-0.194,0.635-0.581,0.811c0.198,0.071,0.335,0.182,0.412,0.332c0.077,0.15,0.115,0.329,0.115,0.538
						c0,0.209,0.005,0.36,0.016,0.454c0.011,0.093,0.029,0.172,0.054,0.235v0.066h-0.42c-0.038-0.099-0.058-0.35-0.058-0.752
						c0-0.245-0.051-0.419-0.154-0.52c-0.103-0.102-0.278-0.153-0.525-0.153H106.017z M106.017,5.337h0.746
						c0.222,0,0.406-0.058,0.55-0.173s0.216-0.268,0.216-0.457c0-0.233-0.06-0.4-0.179-0.501c-0.119-0.1-0.325-0.153-0.616-0.159
						h-0.717V5.337z"/>
				</g>
			</g>
		</g>
		<g>
			<path class="st9" d="M119.181,15.631c0,0.923-0.163,1.73-0.488,2.425c-0.325,0.695-0.792,1.23-1.399,1.608
				c-0.607,0.375-1.302,0.566-2.087,0.566c-0.776,0-1.467-0.185-2.074-0.557c-0.607-0.372-1.079-0.904-1.414-1.599
				c-0.335-0.691-0.504-1.489-0.507-2.387v-0.469c0-0.92,0.166-1.73,0.501-2.434c0.332-0.701,0.801-1.239,1.408-1.615
				c0.607-0.375,1.302-0.563,2.081-0.563s1.474,0.188,2.081,0.563c0.607,0.375,1.076,0.914,1.408,1.615s0.497,1.508,0.497,2.428
				L119.181,15.631L119.181,15.631z M117.226,15.206c0-0.982-0.175-1.727-0.526-2.237c-0.35-0.51-0.854-0.763-1.505-0.763
				c-0.648,0-1.145,0.25-1.496,0.754c-0.35,0.504-0.529,1.242-0.532,2.215v0.457c0,0.954,0.175,1.699,0.526,2.225
				s0.857,0.792,1.518,0.792c0.648,0,1.145-0.253,1.489-0.76c0.347-0.507,0.523-1.248,0.526-2.222L117.226,15.206z"/>
			<path class="st9" d="M121.841,13.144l0.059,0.804c0.498-0.623,1.164-0.932,1.999-0.932c0.738,0,1.286,0.216,1.646,0.651
				c0.36,0.432,0.544,1.079,0.551,1.943v4.493h-1.855V15.64c0-0.394-0.084-0.682-0.257-0.86c-0.172-0.178-0.457-0.269-0.854-0.269
				c-0.523,0-0.917,0.222-1.176,0.67v4.916h-1.855v-6.952H121.841z"/>
			<path class="st9" d="M129.138,20.099h-1.865v-9.875h1.865V20.099z"/>
			<path class="st9" d="M130.323,11.341c0-0.278,0.094-0.507,0.278-0.688c0.185-0.178,0.438-0.269,0.76-0.269
				c0.319,0,0.569,0.091,0.757,0.269c0.191,0.181,0.282,0.41,0.282,0.688c0,0.282-0.097,0.513-0.285,0.695
				c-0.188,0.181-0.438,0.269-0.751,0.269s-0.563-0.091-0.754-0.269C130.42,11.858,130.323,11.626,130.323,11.341z M132.301,20.099
				h-1.865v-6.956h1.865V20.099z"/>
			<path class="st9" d="M135.211,13.144l0.059,0.804c0.498-0.623,1.164-0.932,1.999-0.932c0.735,0,1.286,0.216,1.646,0.651
				c0.36,0.432,0.544,1.079,0.551,1.943v4.493h-1.855V15.64c0-0.394-0.084-0.682-0.257-0.86s-0.457-0.269-0.854-0.269
				c-0.523,0-0.917,0.222-1.176,0.67v4.916h-1.862v-6.952H135.211z"/>
			<path class="st9" d="M143.743,20.227c-1.02,0-1.849-0.313-2.491-0.939s-0.961-1.458-0.961-2.503v-0.178
				c0-0.701,0.135-1.324,0.407-1.874c0.269-0.551,0.651-0.973,1.148-1.273c0.494-0.297,1.061-0.447,1.696-0.447
				c0.951,0,1.702,0.3,2.247,0.901c0.548,0.601,0.82,1.452,0.82,2.553v0.757h-4.431c0.059,0.454,0.241,0.817,0.544,1.092
				c0.3,0.275,0.685,0.413,1.148,0.413c0.717,0,1.273-0.257,1.677-0.779l0.914,1.023c-0.278,0.394-0.657,0.701-1.133,0.923
				C144.851,20.118,144.322,20.227,143.743,20.227z M143.531,14.511c-0.369,0-0.666,0.125-0.898,0.375
				c-0.228,0.25-0.375,0.607-0.441,1.073h2.584v-0.15c-0.009-0.413-0.119-0.732-0.335-0.961
				C144.232,14.627,143.928,14.511,143.531,14.511z"/>
			<path class="st9" d="M152.329,16.801v3.298h-1.931v-9.359h3.651c0.701,0,1.32,0.128,1.855,0.385
				c0.532,0.257,0.945,0.623,1.233,1.098s0.432,1.011,0.432,1.618c0,0.917-0.313,1.64-0.942,2.168
				c-0.629,0.529-1.496,0.792-2.606,0.792L152.329,16.801z M152.329,15.24h1.724c0.51,0,0.898-0.122,1.167-0.36
				c0.269-0.241,0.4-0.582,0.4-1.029c0-0.457-0.135-0.829-0.407-1.111c-0.269-0.282-0.645-0.429-1.117-0.438h-1.768V15.24z"/>
			<path class="st9" d="M162.351,14.883c-0.253-0.034-0.479-0.053-0.67-0.053c-0.704,0-1.164,0.238-1.383,0.713v4.549h-1.855v-6.949
				h1.755l0.053,0.829c0.372-0.638,0.889-0.957,1.549-0.957c0.207,0,0.4,0.028,0.579,0.084L162.351,14.883z"/>
			<path class="st9" d="M162.395,16.554c0-0.688,0.135-1.305,0.397-1.843c0.266-0.541,0.648-0.957,1.148-1.252
				c0.501-0.294,1.079-0.444,1.737-0.444c0.939,0,1.705,0.288,2.297,0.86c0.594,0.576,0.923,1.355,0.992,2.34l0.013,0.476
				c0,1.067-0.297,1.924-0.892,2.569c-0.594,0.645-1.395,0.967-2.397,0.967c-1.001,0-1.802-0.319-2.403-0.964
				c-0.598-0.645-0.898-1.518-0.898-2.622v-0.088H162.395z M164.254,16.689c0,0.66,0.122,1.167,0.372,1.514
				c0.25,0.35,0.604,0.526,1.067,0.526c0.451,0,0.801-0.172,1.054-0.519c0.253-0.347,0.379-0.898,0.379-1.658
				c0-0.648-0.128-1.151-0.379-1.508c-0.25-0.357-0.607-0.535-1.067-0.535c-0.454,0-0.804,0.178-1.054,0.532
				C164.376,15.396,164.254,15.944,164.254,16.689z"/>
			<path class="st9" d="M170.305,20.099v-5.595h-1.036v-1.361h1.036v-0.594c0-0.779,0.225-1.386,0.673-1.818
				c0.447-0.432,1.073-0.645,1.88-0.645c0.257,0,0.573,0.041,0.945,0.128l-0.019,1.427c-0.153-0.038-0.344-0.056-0.566-0.056
				c-0.701,0-1.048,0.332-1.048,0.992v0.563h1.383v1.361h-1.383v5.595L170.305,20.099L170.305,20.099z"/>
			<path class="st9" d="M177.236,20.227c-1.02,0-1.849-0.313-2.491-0.939s-0.961-1.458-0.961-2.503v-0.178
				c0-0.701,0.135-1.324,0.407-1.874c0.269-0.551,0.651-0.973,1.148-1.273c0.494-0.297,1.061-0.447,1.696-0.447
				c0.951,0,1.702,0.3,2.247,0.901c0.548,0.601,0.82,1.452,0.82,2.553v0.757h-4.431c0.059,0.454,0.241,0.817,0.544,1.092
				c0.3,0.275,0.685,0.413,1.148,0.413c0.717,0,1.273-0.257,1.677-0.779l0.914,1.023c-0.278,0.394-0.657,0.701-1.133,0.923
				C178.34,20.118,177.811,20.227,177.236,20.227z M177.023,14.511c-0.369,0-0.666,0.125-0.898,0.375
				c-0.228,0.25-0.375,0.607-0.441,1.073h2.585v-0.15c-0.009-0.413-0.119-0.732-0.335-0.961
				C177.721,14.627,177.417,14.511,177.023,14.511z"/>
			<path class="st9" d="M184.589,18.178c0-0.228-0.113-0.407-0.338-0.538c-0.225-0.131-0.588-0.247-1.086-0.35
				c-1.655-0.344-2.481-1.048-2.481-2.109c0-0.62,0.257-1.133,0.767-1.546c0.513-0.413,1.183-0.62,2.009-0.62
				c0.882,0,1.589,0.21,2.118,0.626c0.529,0.416,0.795,0.954,0.795,1.621h-1.855c0-0.266-0.084-0.485-0.257-0.66
				c-0.175-0.181-0.441-0.266-0.804-0.266c-0.313,0-0.557,0.072-0.726,0.213c-0.169,0.141-0.257,0.322-0.257,0.541
				c0,0.207,0.097,0.369,0.294,0.498c0.197,0.128,0.526,0.235,0.986,0.329c0.463,0.091,0.851,0.197,1.17,0.313
				c0.982,0.36,1.471,0.982,1.471,1.871c0,0.635-0.272,1.148-0.817,1.539c-0.544,0.391-1.245,0.588-2.109,0.588
				c-0.582,0-1.101-0.103-1.552-0.313c-0.451-0.207-0.804-0.494-1.064-0.854c-0.257-0.363-0.385-0.754-0.385-1.173h1.762
				c0.016,0.332,0.141,0.582,0.366,0.757c0.225,0.175,0.532,0.263,0.914,0.263c0.357,0,0.626-0.066,0.807-0.203
				C184.495,18.572,184.589,18.394,184.589,18.178z"/>
			<path class="st9" d="M191.028,18.178c0-0.228-0.113-0.407-0.338-0.538s-0.588-0.247-1.086-0.35
				c-1.655-0.344-2.481-1.048-2.481-2.109c0-0.62,0.257-1.133,0.767-1.546c0.513-0.413,1.183-0.62,2.009-0.62
				c0.882,0,1.589,0.21,2.118,0.626c0.532,0.416,0.792,0.954,0.792,1.621h-1.855c0-0.266-0.084-0.485-0.257-0.66
				c-0.172-0.181-0.438-0.266-0.804-0.266c-0.313,0-0.557,0.072-0.726,0.213c-0.172,0.141-0.257,0.322-0.257,0.541
				c0,0.207,0.097,0.369,0.294,0.498s0.526,0.235,0.986,0.329c0.463,0.091,0.851,0.197,1.17,0.313
				c0.979,0.36,1.474,0.982,1.474,1.871c0,0.635-0.272,1.148-0.817,1.539c-0.544,0.391-1.245,0.588-2.109,0.588
				c-0.582,0-1.101-0.103-1.552-0.313c-0.451-0.207-0.804-0.494-1.064-0.854c-0.26-0.363-0.388-0.754-0.388-1.173h1.762
				c0.016,0.332,0.141,0.582,0.366,0.757c0.225,0.175,0.532,0.263,0.914,0.263c0.357,0,0.626-0.066,0.807-0.203
				C190.937,18.572,191.028,18.394,191.028,18.178z"/>
			<path class="st9" d="M193.687,11.341c0-0.278,0.091-0.507,0.278-0.688c0.188-0.178,0.438-0.269,0.76-0.269
				c0.316,0,0.569,0.091,0.757,0.269c0.191,0.181,0.282,0.41,0.282,0.688c0,0.282-0.097,0.513-0.285,0.695
				c-0.191,0.181-0.444,0.269-0.754,0.269c-0.313,0-0.563-0.091-0.754-0.269C193.784,11.858,193.687,11.626,193.687,11.341z
				 M195.662,20.099H193.8v-6.956h1.862V20.099z"/>
			<path class="st9" d="M196.572,16.554c0-0.688,0.135-1.305,0.397-1.843c0.263-0.541,0.648-0.957,1.148-1.252
				c0.501-0.294,1.079-0.444,1.737-0.444c0.939,0,1.705,0.288,2.297,0.86c0.594,0.576,0.923,1.355,0.995,2.34l0.013,0.476
				c0,1.067-0.297,1.924-0.892,2.569c-0.594,0.645-1.395,0.967-2.397,0.967c-1.004,0-1.802-0.319-2.4-0.964
				s-0.898-1.518-0.898-2.622C196.572,16.642,196.572,16.554,196.572,16.554z M198.431,16.689c0,0.66,0.125,1.167,0.375,1.514
				c0.247,0.35,0.604,0.526,1.067,0.526c0.451,0,0.798-0.172,1.054-0.519c0.25-0.344,0.379-0.898,0.379-1.658
				c0-0.648-0.128-1.151-0.379-1.508c-0.25-0.357-0.607-0.535-1.067-0.535c-0.454,0-0.804,0.178-1.054,0.532
				C198.556,15.396,198.431,15.944,198.431,16.689z"/>
			<path class="st9" d="M205.687,13.144l0.059,0.804c0.497-0.623,1.161-0.932,1.999-0.932c0.735,0,1.283,0.216,1.646,0.651
				c0.36,0.432,0.544,1.079,0.551,1.943v4.493h-1.859V15.64c0-0.394-0.084-0.682-0.257-0.86c-0.172-0.178-0.457-0.269-0.854-0.269
				c-0.523,0-0.914,0.222-1.176,0.67v4.916h-1.855v-6.952H205.687z"/>
			<path class="st9" d="M215.052,20.099c-0.088-0.166-0.147-0.375-0.188-0.626c-0.451,0.501-1.036,0.751-1.755,0.751
				c-0.682,0-1.245-0.197-1.696-0.591c-0.447-0.394-0.673-0.892-0.673-1.489c0-0.735,0.272-1.302,0.82-1.699
				c0.544-0.394,1.336-0.594,2.369-0.598h0.854V15.45c0-0.322-0.084-0.579-0.247-0.773c-0.166-0.194-0.426-0.288-0.779-0.288
				c-0.313,0-0.557,0.075-0.735,0.225c-0.178,0.15-0.266,0.357-0.266,0.616h-1.859c0-0.401,0.125-0.773,0.375-1.117
				c0.247-0.344,0.601-0.613,1.054-0.807c0.457-0.197,0.967-0.294,1.533-0.294c0.854,0,1.536,0.216,2.04,0.645
				c0.504,0.432,0.754,1.036,0.754,1.818v3.013c0.003,0.66,0.097,1.161,0.275,1.499v0.106h-1.877
				C215.052,20.093,215.052,20.099,215.052,20.099z M213.516,18.804c0.272,0,0.526-0.059,0.757-0.185
				c0.232-0.122,0.4-0.288,0.513-0.491v-1.195h-0.695c-0.929,0-1.427,0.319-1.483,0.967l-0.006,0.11
				c0,0.232,0.081,0.422,0.244,0.573C213.009,18.732,213.234,18.804,213.516,18.804z"/>
			<path class="st9" d="M219.711,20.099h-1.862v-9.875h1.862V20.099z"/>
			<path class="st9" d="M223.982,20.099v-9.359h2.882c0.823,0,1.558,0.185,2.209,0.557s1.155,0.898,1.521,1.583
				c0.363,0.682,0.544,1.461,0.544,2.331v0.432c0,0.87-0.178,1.646-0.538,2.322c-0.357,0.676-0.86,1.205-1.514,1.577
				c-0.651,0.372-1.386,0.563-2.203,0.566h-2.901V20.099z M225.912,12.302v6.248h0.932c0.754,0,1.33-0.244,1.727-0.738
				s0.604-1.198,0.613-2.115v-0.498c0-0.951-0.197-1.671-0.594-2.162c-0.394-0.488-0.97-0.735-1.727-0.735L225.912,12.302
				L225.912,12.302z"/>
			<path class="st9" d="M235.29,20.227c-1.02,0-1.849-0.313-2.491-0.939s-0.961-1.458-0.961-2.503v-0.178
				c0-0.701,0.135-1.324,0.407-1.874c0.269-0.551,0.654-0.973,1.148-1.273c0.494-0.297,1.061-0.447,1.696-0.447
				c0.954,0,1.702,0.3,2.247,0.901c0.548,0.601,0.82,1.452,0.82,2.553v0.757h-4.431c0.059,0.454,0.241,0.817,0.541,1.092
				c0.304,0.275,0.685,0.413,1.148,0.413c0.717,0,1.273-0.257,1.677-0.779l0.914,1.023c-0.278,0.394-0.657,0.701-1.13,0.923
				C236.394,20.118,235.869,20.227,235.29,20.227z M235.08,14.511c-0.369,0-0.67,0.125-0.898,0.375
				c-0.228,0.25-0.375,0.607-0.438,1.073h2.584v-0.15c-0.009-0.413-0.122-0.732-0.335-0.961
				C235.778,14.627,235.471,14.511,235.08,14.511z"/>
			<path class="st9" d="M241.397,17.828l1.292-4.684h1.943l-2.347,6.956h-1.774l-2.347-6.956h1.943L241.397,17.828z"/>
			<path class="st9" d="M248.234,20.227c-1.02,0-1.849-0.313-2.491-0.939c-0.641-0.626-0.961-1.458-0.961-2.503v-0.178
				c0-0.701,0.135-1.324,0.407-1.874c0.269-0.551,0.654-0.973,1.148-1.273c0.494-0.297,1.061-0.447,1.696-0.447
				c0.954,0,1.702,0.3,2.247,0.901c0.548,0.601,0.82,1.452,0.82,2.553v0.757h-4.434c0.059,0.454,0.241,0.817,0.541,1.092
				c0.304,0.275,0.685,0.413,1.148,0.413c0.717,0,1.273-0.257,1.677-0.779l0.914,1.023c-0.278,0.394-0.657,0.701-1.13,0.923
				C249.339,20.118,248.813,20.227,248.234,20.227z M248.021,14.511c-0.369,0-0.67,0.125-0.898,0.375
				c-0.228,0.25-0.375,0.607-0.438,1.073h2.584v-0.15c-0.009-0.413-0.122-0.732-0.335-0.961
				C248.722,14.627,248.416,14.511,248.021,14.511z"/>
			<path class="st9" d="M253.779,20.099h-1.862v-9.875h1.862V20.099z"/>
			<path class="st9" d="M254.692,16.554c0-0.688,0.135-1.305,0.397-1.843c0.263-0.541,0.648-0.957,1.148-1.252
				c0.501-0.294,1.079-0.444,1.737-0.444c0.939,0,1.705,0.288,2.297,0.86c0.595,0.576,0.923,1.355,0.995,2.34l0.013,0.476
				c0,1.067-0.297,1.924-0.892,2.569c-0.594,0.645-1.395,0.967-2.397,0.967c-1.004,0-1.802-0.319-2.4-0.964
				c-0.598-0.645-0.898-1.518-0.898-2.622V16.554z M256.548,16.689c0,0.66,0.125,1.167,0.375,1.514
				c0.247,0.35,0.604,0.526,1.067,0.526c0.451,0,0.798-0.172,1.054-0.519c0.25-0.344,0.379-0.898,0.379-1.658
				c0-0.648-0.128-1.151-0.379-1.508c-0.25-0.357-0.607-0.535-1.067-0.535c-0.454,0-0.804,0.178-1.054,0.532
				C256.673,15.396,256.548,15.944,256.548,16.689z"/>
			<path class="st9" d="M268.359,16.685c0,1.073-0.244,1.931-0.732,2.575c-0.485,0.645-1.142,0.967-1.968,0.967
				c-0.704,0-1.27-0.244-1.705-0.732v3.279h-1.855v-9.631h1.724l0.066,0.682c0.451-0.541,1.036-0.81,1.762-0.81
				c0.854,0,1.521,0.319,1.999,0.951c0.476,0.635,0.713,1.508,0.713,2.622C268.359,16.589,268.359,16.685,268.359,16.685z
				 M266.501,16.542c0-0.651-0.116-1.151-0.344-1.502c-0.232-0.35-0.563-0.529-1.001-0.529c-0.582,0-0.982,0.222-1.205,0.67v2.857
				c0.228,0.46,0.632,0.691,1.217,0.691C266.057,18.729,266.501,18,266.501,16.542z"/>
			<path class="st9" d="M270.922,13.144l0.056,0.779c0.494-0.604,1.161-0.907,1.999-0.907c0.895,0,1.511,0.354,1.843,1.061
				c0.488-0.707,1.186-1.061,2.09-1.061c0.754,0,1.314,0.222,1.683,0.66s0.551,1.098,0.551,1.984v4.443h-1.862v-4.449
				c0-0.394-0.078-0.685-0.235-0.867c-0.156-0.181-0.426-0.272-0.817-0.272c-0.557,0-0.942,0.266-1.158,0.798l0.006,4.787h-1.859
				v-4.443c0-0.404-0.078-0.695-0.238-0.876c-0.16-0.181-0.429-0.269-0.81-0.269c-0.526,0-0.907,0.219-1.145,0.657v4.928h-1.855
				v-6.952H270.922z"/>
			<path class="st9" d="M283.447,20.227c-1.02,0-1.849-0.313-2.491-0.939c-0.641-0.626-0.961-1.458-0.961-2.503v-0.178
				c0-0.701,0.135-1.324,0.407-1.874c0.269-0.551,0.654-0.973,1.148-1.273c0.494-0.297,1.061-0.447,1.696-0.447
				c0.954,0,1.702,0.3,2.247,0.901c0.548,0.601,0.82,1.452,0.82,2.553v0.757h-4.431c0.059,0.454,0.241,0.817,0.541,1.092
				c0.303,0.275,0.685,0.413,1.148,0.413c0.717,0,1.273-0.257,1.677-0.779l0.914,1.023c-0.278,0.394-0.657,0.701-1.13,0.923
				C284.552,20.118,284.026,20.227,283.447,20.227z M283.238,14.511c-0.369,0-0.67,0.125-0.898,0.375
				c-0.228,0.25-0.375,0.607-0.438,1.073h2.584v-0.15c-0.009-0.413-0.122-0.732-0.335-0.961
				C283.935,14.627,283.632,14.511,283.238,14.511z"/>
			<path class="st9" d="M288.744,13.144l0.059,0.804c0.497-0.623,1.161-0.932,1.999-0.932c0.738,0,1.283,0.216,1.646,0.651
				c0.36,0.432,0.544,1.079,0.551,1.943v4.493h-1.859V15.64c0-0.394-0.084-0.682-0.257-0.86c-0.172-0.178-0.457-0.269-0.854-0.269
				c-0.523,0-0.914,0.222-1.176,0.67v4.916h-1.855v-6.952H288.744z"/>
			<path class="st9" d="M296.304,11.432v1.708h1.192v1.361h-1.192v3.473c0,0.257,0.047,0.441,0.147,0.551
				c0.097,0.113,0.288,0.166,0.566,0.166c0.207,0,0.388-0.016,0.544-0.047v1.408c-0.363,0.113-0.735,0.166-1.123,0.166
				c-1.302,0-1.968-0.657-1.993-1.974v-3.739h-1.017v-1.361h1.017v-1.712H296.304z"/>
		</g>
		<g>
			<path class="st9" d="M120.114,28.488h-3.964v10.738h-0.976V28.488h-3.955v-0.823h8.896V28.488z"/>
			<path class="st9" d="M122.295,32.086c0.313-0.513,0.713-0.911,1.198-1.192c0.488-0.282,1.02-0.419,1.596-0.419
				c0.923,0,1.608,0.26,2.056,0.779c0.451,0.519,0.679,1.295,0.682,2.334v5.638h-0.945v-5.648c-0.006-0.767-0.169-1.339-0.488-1.718
				c-0.319-0.375-0.832-0.563-1.539-0.563c-0.588,0-1.108,0.185-1.561,0.551s-0.785,0.864-1.004,1.489v5.886h-0.945v-12.2h0.945
				v5.059h0.006V32.086z"/>
			<path class="st9" d="M133.199,39.386c-0.732,0-1.389-0.181-1.981-0.541s-1.048-0.86-1.377-1.505s-0.494-1.364-0.494-2.162v-0.344
				c0-0.826,0.16-1.571,0.482-2.231c0.319-0.663,0.767-1.183,1.339-1.561c0.573-0.379,1.192-0.569,1.859-0.569
				c1.042,0,1.871,0.357,2.481,1.067c0.61,0.713,0.917,1.686,0.917,2.919v0.532h-6.13v0.185c0,0.973,0.278,1.783,0.835,2.434
				c0.557,0.648,1.261,0.973,2.109,0.973c0.507,0,0.957-0.094,1.345-0.278c0.388-0.185,0.742-0.482,1.061-0.889l0.594,0.451
				C135.542,38.882,134.529,39.386,133.199,39.386z M133.024,31.285c-0.713,0-1.317,0.263-1.805,0.785
				c-0.488,0.523-0.785,1.227-0.892,2.112h5.153v-0.103c-0.028-0.826-0.263-1.499-0.707-2.018
				C134.328,31.545,133.743,31.285,133.024,31.285z"/>
			<path class="st9" d="M148.008,33.82h-5.394v5.41h-0.976V27.665h7.165v0.826h-6.186v4.506h5.394L148.008,33.82L148.008,33.82z"/>
			<path class="st9" d="M155.511,38.141c-0.573,0.829-1.486,1.245-2.738,1.245c-0.917,0-1.611-0.266-2.087-0.798
				c-0.476-0.532-0.72-1.32-0.732-2.362v-5.591h0.945v5.473c0,1.636,0.663,2.453,1.987,2.453c1.377,0,2.247-0.569,2.613-1.708
				v-6.214h0.954v8.592h-0.92L155.511,38.141z"/>
			<path class="st9" d="M163.659,37.042c0-0.469-0.191-0.851-0.569-1.136c-0.379-0.285-0.948-0.51-1.712-0.67
				c-0.76-0.16-1.352-0.344-1.774-0.557c-0.419-0.21-0.732-0.463-0.939-0.767c-0.203-0.3-0.307-0.666-0.307-1.095
				c0-0.679,0.282-1.239,0.851-1.68c0.566-0.441,1.289-0.663,2.175-0.663c0.961,0,1.727,0.238,2.306,0.71
				c0.582,0.476,0.87,1.092,0.87,1.855h-0.951c0-0.501-0.21-0.923-0.632-1.252c-0.419-0.335-0.951-0.501-1.593-0.501
				c-0.626,0-1.126,0.141-1.505,0.416c-0.379,0.278-0.569,0.641-0.569,1.086c0,0.429,0.16,0.76,0.472,0.998
				c0.313,0.238,0.892,0.451,1.724,0.645c0.832,0.197,1.458,0.407,1.874,0.629c0.416,0.222,0.726,0.488,0.923,0.801
				c0.203,0.313,0.3,0.691,0.3,1.136c0,0.726-0.294,1.305-0.879,1.737s-1.349,0.651-2.29,0.651c-1.001,0-1.812-0.244-2.434-0.729
				c-0.623-0.485-0.936-1.098-0.936-1.837h0.954c0.034,0.557,0.269,0.989,0.701,1.295c0.432,0.31,1.001,0.466,1.715,0.466
				c0.663,0,1.198-0.147,1.605-0.438C163.456,37.856,163.659,37.49,163.659,37.042z"/>
			<path class="st9" d="M166.287,28.153c0-0.178,0.059-0.332,0.175-0.454c0.116-0.122,0.275-0.185,0.476-0.185
				c0.203,0,0.363,0.063,0.482,0.185s0.178,0.275,0.178,0.454c0,0.178-0.059,0.329-0.178,0.451
				c-0.119,0.122-0.278,0.181-0.482,0.181c-0.203,0-0.36-0.059-0.476-0.181C166.347,28.482,166.287,28.331,166.287,28.153z
				 M167.408,39.226h-0.954v-8.592h0.954V39.226z"/>
			<path class="st9" d="M169.057,34.805c0-0.826,0.16-1.571,0.482-2.231c0.319-0.663,0.773-1.18,1.358-1.546
				c0.585-0.369,1.248-0.551,1.99-0.551c1.142,0,2.068,0.401,2.779,1.205c0.71,0.801,1.064,1.865,1.064,3.188v0.197
				c0,0.829-0.16,1.58-0.482,2.243c-0.319,0.663-0.773,1.176-1.352,1.536c-0.582,0.36-1.245,0.541-1.993,0.541
				c-1.139,0-2.065-0.401-2.775-1.205c-0.713-0.801-1.067-1.865-1.067-3.188L169.057,34.805L169.057,34.805z M170.011,35.065
				c0,1.026,0.266,1.871,0.798,2.531c0.532,0.657,1.23,0.989,2.093,0.989c0.857,0,1.552-0.332,2.084-0.989
				c0.532-0.66,0.798-1.53,0.798-2.61v-0.185c0-0.657-0.122-1.258-0.366-1.802c-0.244-0.544-0.585-0.967-1.023-1.264
				c-0.438-0.3-0.942-0.451-1.508-0.451c-0.848,0-1.539,0.332-2.074,0.995c-0.535,0.666-0.801,1.533-0.801,2.61L170.011,35.065z"/>
			<path class="st9" d="M179.191,30.634l0.031,1.471c0.322-0.532,0.726-0.936,1.208-1.211c0.482-0.278,1.014-0.419,1.596-0.419
				c0.923,0,1.608,0.26,2.056,0.779c0.451,0.519,0.679,1.295,0.682,2.334v5.638h-0.945v-5.648c-0.006-0.767-0.169-1.339-0.488-1.718
				c-0.319-0.375-0.832-0.563-1.539-0.563c-0.588,0-1.108,0.185-1.561,0.551c-0.454,0.366-0.785,0.864-1.004,1.489v5.886h-0.945
				v-8.592C178.281,30.634,179.191,30.634,179.191,30.634z"/>
			<path class="st9" d="M189.836,34.805c0-0.826,0.16-1.571,0.482-2.231c0.319-0.663,0.773-1.18,1.358-1.546
				c0.585-0.369,1.248-0.551,1.99-0.551c1.142,0,2.068,0.401,2.782,1.205c0.707,0.801,1.064,1.865,1.064,3.188v0.197
				c0,0.829-0.16,1.58-0.479,2.243c-0.319,0.663-0.773,1.176-1.355,1.536c-0.582,0.36-1.245,0.541-1.993,0.541
				c-1.139,0-2.065-0.401-2.775-1.205c-0.713-0.801-1.067-1.865-1.067-3.188v-0.191H189.836z M190.79,35.065
				c0,1.026,0.266,1.871,0.798,2.531c0.532,0.657,1.23,0.989,2.093,0.989c0.857,0,1.552-0.332,2.087-0.989
				c0.532-0.66,0.798-1.53,0.798-2.61v-0.185c0-0.657-0.122-1.258-0.366-1.802c-0.244-0.544-0.582-0.967-1.023-1.264
				c-0.441-0.3-0.942-0.451-1.508-0.451c-0.848,0-1.539,0.332-2.074,0.995c-0.535,0.666-0.801,1.533-0.801,2.61v0.175L190.79,35.065
				z"/>
			<path class="st9" d="M199.748,39.226V31.41h-1.421v-0.779h1.421v-1.042c0-0.879,0.222-1.552,0.67-2.024
				c0.447-0.472,1.07-0.707,1.871-0.707c0.36,0,0.698,0.047,1.008,0.135l-0.072,0.785c-0.263-0.063-0.551-0.097-0.867-0.097
				c-0.523,0-0.932,0.166-1.22,0.488c-0.288,0.325-0.438,0.788-0.438,1.389v1.067h2.049v0.779h-2.046v7.816h-0.954V39.226z"/>
			<path class="st9" d="M215.343,28.488h-3.964v10.738h-0.976V28.488h-3.958v-0.823h8.896L215.343,28.488L215.343,28.488z"/>
			<path class="st9" d="M219.126,39.386c-0.732,0-1.392-0.181-1.981-0.541c-0.591-0.36-1.051-0.86-1.377-1.505
				c-0.329-0.645-0.491-1.364-0.491-2.162v-0.344c0-0.826,0.16-1.571,0.482-2.231c0.322-0.66,0.767-1.183,1.339-1.561
				c0.573-0.379,1.192-0.569,1.859-0.569c1.042,0,1.871,0.357,2.481,1.067c0.61,0.713,0.917,1.686,0.917,2.919v0.532h-6.133v0.185
				c0,0.973,0.282,1.783,0.839,2.434c0.56,0.648,1.261,0.973,2.109,0.973c0.51,0,0.957-0.094,1.345-0.278
				c0.388-0.185,0.742-0.482,1.061-0.889l0.594,0.451C221.466,38.882,220.452,39.386,219.126,39.386z M218.95,31.285
				c-0.717,0-1.317,0.263-1.805,0.785c-0.488,0.523-0.788,1.227-0.892,2.112h5.153v-0.103c-0.028-0.826-0.263-1.499-0.707-2.018
				S219.667,31.285,218.95,31.285z"/>
			<path class="st9" d="M226.97,38.585c0.663,0,1.217-0.188,1.665-0.563c0.447-0.372,0.688-0.854,0.729-1.449h0.914
				c-0.025,0.523-0.191,1.001-0.491,1.433c-0.303,0.432-0.704,0.767-1.205,1.014c-0.501,0.244-1.036,0.366-1.608,0.366
				c-1.13,0-2.021-0.391-2.678-1.176c-0.66-0.782-0.989-1.837-0.989-3.163v-0.285c0-0.848,0.15-1.596,0.444-2.247
				c0.294-0.651,0.72-1.155,1.273-1.508c0.551-0.357,1.202-0.532,1.943-0.532c0.942,0,1.718,0.282,2.331,0.842
				c0.613,0.563,0.936,1.302,0.979,2.215h-0.914c-0.044-0.673-0.285-1.214-0.729-1.627c-0.441-0.413-0.998-0.62-1.671-0.62
				c-0.857,0-1.524,0.31-1.996,0.929c-0.476,0.62-0.713,1.489-0.713,2.606v0.278c0,1.095,0.238,1.949,0.713,2.566
				C225.437,38.278,226.106,38.585,226.97,38.585z"/>
			<path class="st9" d="M232.708,32.086c0.313-0.513,0.713-0.911,1.198-1.192c0.488-0.282,1.02-0.419,1.596-0.419
				c0.923,0,1.608,0.26,2.059,0.779c0.451,0.519,0.676,1.295,0.682,2.334v5.638h-0.948v-5.648c-0.003-0.767-0.169-1.339-0.488-1.718
				c-0.319-0.375-0.829-0.563-1.536-0.563c-0.588,0-1.111,0.185-1.561,0.551s-0.788,0.864-1.004,1.489v5.886h-0.945v-12.2h0.945
				L232.708,32.086L232.708,32.086z"/>
			<path class="st9" d="M241.188,30.634l0.031,1.471c0.325-0.532,0.726-0.936,1.208-1.211c0.482-0.278,1.017-0.419,1.596-0.419
				c0.923,0,1.608,0.26,2.059,0.779c0.451,0.519,0.676,1.295,0.682,2.334v5.638h-0.945v-5.648c-0.006-0.767-0.169-1.339-0.488-1.718
				c-0.319-0.375-0.829-0.563-1.536-0.563c-0.588,0-1.111,0.185-1.561,0.551s-0.788,0.864-1.004,1.489v5.886h-0.945v-8.592
				C240.284,30.634,241.188,30.634,241.188,30.634z"/>
			<path class="st9" d="M248.287,34.805c0-0.826,0.16-1.571,0.482-2.231c0.319-0.663,0.773-1.18,1.358-1.546
				c0.585-0.369,1.248-0.551,1.99-0.551c1.142,0,2.068,0.401,2.782,1.205c0.707,0.801,1.064,1.865,1.064,3.188v0.197
				c0,0.829-0.16,1.58-0.482,2.243c-0.319,0.663-0.773,1.176-1.355,1.536s-1.245,0.541-1.993,0.541
				c-1.139,0-2.065-0.401-2.775-1.205c-0.71-0.804-1.067-1.865-1.067-3.188L248.287,34.805L248.287,34.805z M249.242,35.065
				c0,1.026,0.266,1.871,0.798,2.531c0.532,0.657,1.23,0.989,2.093,0.989c0.857,0,1.552-0.332,2.087-0.989
				c0.532-0.66,0.798-1.53,0.798-2.61v-0.185c0-0.657-0.122-1.258-0.366-1.802c-0.244-0.544-0.582-0.967-1.023-1.264
				c-0.441-0.3-0.942-0.451-1.508-0.451c-0.848,0-1.539,0.332-2.074,0.995c-0.535,0.666-0.801,1.533-0.801,2.61L249.242,35.065
				L249.242,35.065z"/>
			<path class="st9" d="M258.582,39.226h-0.954v-12.2h0.954V39.226z"/>
			<path class="st9" d="M260.234,34.805c0-0.826,0.16-1.571,0.482-2.231c0.319-0.663,0.773-1.18,1.358-1.546
				c0.585-0.369,1.248-0.551,1.99-0.551c1.142,0,2.068,0.401,2.782,1.205c0.707,0.801,1.064,1.865,1.064,3.188v0.197
				c0,0.829-0.16,1.58-0.482,2.243c-0.319,0.663-0.773,1.176-1.355,1.536s-1.245,0.541-1.993,0.541
				c-1.139,0-2.065-0.401-2.775-1.205c-0.713-0.801-1.067-1.865-1.067-3.188L260.234,34.805L260.234,34.805z M261.185,35.065
				c0,1.026,0.266,1.871,0.798,2.531c0.532,0.657,1.23,0.989,2.093,0.989c0.857,0,1.552-0.332,2.087-0.989
				c0.532-0.66,0.798-1.53,0.798-2.61v-0.185c0-0.657-0.122-1.258-0.366-1.802c-0.244-0.544-0.582-0.967-1.023-1.264
				c-0.441-0.3-0.942-0.451-1.508-0.451c-0.848,0-1.539,0.332-2.074,0.995c-0.535,0.666-0.801,1.533-0.801,2.61L261.185,35.065
				L261.185,35.065z"/>
			<path class="st9" d="M269.076,34.852c0-1.345,0.297-2.409,0.892-3.198c0.595-0.785,1.405-1.18,2.428-1.18
				c1.17,0,2.059,0.466,2.669,1.399l0.047-1.239h0.892v8.417c0,1.108-0.31,1.984-0.929,2.628c-0.62,0.645-1.458,0.967-2.516,0.967
				c-0.601,0-1.17-0.135-1.715-0.401c-0.541-0.269-0.97-0.626-1.283-1.067l0.532-0.573c0.673,0.826,1.471,1.239,2.4,1.239
				c0.792,0,1.414-0.235,1.859-0.704c0.444-0.469,0.676-1.117,0.691-1.949v-1.076c-0.61,0.848-1.496,1.27-2.66,1.27
				c-0.995,0-1.796-0.397-2.4-1.192c-0.604-0.795-0.904-1.868-0.904-3.217L269.076,34.852L269.076,34.852z M270.04,35.018
				c0,1.098,0.222,1.962,0.66,2.594s1.058,0.948,1.859,0.948c1.17,0,1.996-0.526,2.484-1.574V32.99
				c-0.222-0.551-0.544-0.973-0.961-1.258c-0.419-0.288-0.923-0.432-1.508-0.432c-0.798,0-1.421,0.313-1.868,0.942
				C270.259,32.871,270.04,33.798,270.04,35.018z"/>
			<path class="st9" d="M280.797,37.862l2.509-7.228h1.026l-3.67,10.056l-0.191,0.444c-0.469,1.045-1.198,1.564-2.184,1.564
				c-0.228,0-0.469-0.038-0.732-0.11l-0.006-0.785l0.491,0.047c0.466,0,0.842-0.116,1.13-0.344c0.288-0.232,0.532-0.626,0.738-1.189
				l0.419-1.161l-3.242-8.523h1.039L280.797,37.862z"/>
			<path class="st9" d="M294.37,39.226c-0.097-0.269-0.156-0.67-0.181-1.198c-0.335,0.432-0.757,0.767-1.273,1.004
				c-0.516,0.235-1.064,0.354-1.64,0.354c-0.826,0-1.496-0.232-2.006-0.691c-0.51-0.46-0.767-1.042-0.767-1.749
				c0-0.835,0.344-1.499,1.042-1.987s1.668-0.732,2.913-0.732h1.724V33.25c0-0.613-0.191-1.098-0.569-1.452
				c-0.375-0.35-0.929-0.529-1.658-0.529c-0.663,0-1.211,0.172-1.646,0.51c-0.435,0.338-0.651,0.748-0.651,1.223l-0.954-0.009
				c0-0.682,0.316-1.273,0.954-1.774c0.635-0.501,1.417-0.748,2.344-0.748c0.957,0,1.715,0.241,2.265,0.72
				c0.551,0.482,0.835,1.148,0.854,2.006v4.064c0,0.829,0.088,1.455,0.263,1.868v0.097L294.37,39.226z M291.382,38.547
				c0.635,0,1.205-0.153,1.705-0.46c0.501-0.307,0.864-0.72,1.092-1.233v-1.89h-1.699c-0.948,0.009-1.69,0.185-2.222,0.519
				c-0.535,0.335-0.801,0.798-0.801,1.386c0,0.482,0.178,0.882,0.535,1.202C290.35,38.385,290.813,38.547,291.382,38.547z"/>
			<path class="st9" d="M298.156,30.634l0.031,1.471c0.325-0.532,0.726-0.936,1.208-1.211c0.482-0.278,1.017-0.419,1.596-0.419
				c0.923,0,1.608,0.26,2.059,0.779c0.451,0.519,0.676,1.295,0.682,2.334v5.638h-0.945v-5.648c-0.003-0.767-0.169-1.339-0.488-1.718
				c-0.319-0.375-0.829-0.563-1.536-0.563c-0.588,0-1.111,0.185-1.561,0.551s-0.788,0.864-1.004,1.489v5.886h-0.945v-8.592
				C297.252,30.634,298.156,30.634,298.156,30.634z"/>
			<path class="st9" d="M305.397,34.852c0-1.336,0.297-2.397,0.892-3.188c0.594-0.792,1.405-1.189,2.428-1.189
				c1.161,0,2.043,0.457,2.653,1.374v-4.822h0.945v12.2h-0.892l-0.038-1.142c-0.61,0.867-1.505,1.302-2.685,1.302
				c-0.992,0-1.79-0.397-2.397-1.195c-0.607-0.798-0.911-1.874-0.911-3.229L305.397,34.852L305.397,34.852z M306.36,35.018
				c0,1.098,0.222,1.962,0.66,2.594s1.058,0.948,1.859,0.948c1.17,0,1.999-0.516,2.491-1.549v-4.036
				c-0.491-1.117-1.317-1.677-2.478-1.677c-0.798,0-1.421,0.313-1.868,0.942C306.583,32.871,306.36,33.798,306.36,35.018z"/>
			<path class="st9" d="M319.167,38.4h5.71v0.826h-6.693V27.665h0.986L319.167,38.4L319.167,38.4z"/>
			<path class="st9" d="M329.452,39.386c-0.729,0-1.392-0.181-1.981-0.541c-0.591-0.36-1.051-0.86-1.377-1.505
				c-0.329-0.645-0.491-1.364-0.491-2.162v-0.344c0-0.826,0.16-1.571,0.479-2.231c0.319-0.66,0.767-1.183,1.339-1.561
				c0.573-0.379,1.192-0.569,1.859-0.569c1.042,0,1.871,0.357,2.481,1.067s0.917,1.686,0.917,2.919v0.532h-6.133v0.185
				c0,0.973,0.282,1.783,0.839,2.434c0.56,0.648,1.261,0.973,2.109,0.973c0.51,0,0.957-0.094,1.345-0.278
				c0.388-0.185,0.742-0.482,1.061-0.889l0.595,0.451C331.792,38.882,330.779,39.386,329.452,39.386z M329.277,31.285
				c-0.716,0-1.317,0.263-1.805,0.785c-0.491,0.523-0.788,1.227-0.892,2.112h5.153v-0.103c-0.028-0.826-0.263-1.499-0.707-2.018
				C330.578,31.545,329.996,31.285,329.277,31.285z"/>
			<path class="st9" d="M339.543,39.226c-0.097-0.269-0.156-0.67-0.181-1.198c-0.335,0.432-0.757,0.767-1.273,1.004
				c-0.516,0.235-1.064,0.354-1.64,0.354c-0.826,0-1.496-0.232-2.006-0.691c-0.51-0.46-0.767-1.042-0.767-1.749
				c0-0.835,0.344-1.499,1.042-1.987s1.668-0.732,2.913-0.732h1.724V33.25c0-0.613-0.191-1.098-0.569-1.452
				c-0.375-0.35-0.929-0.529-1.658-0.529c-0.663,0-1.211,0.172-1.646,0.51c-0.435,0.338-0.651,0.748-0.651,1.223l-0.954-0.009
				c0-0.682,0.316-1.273,0.954-1.774c0.635-0.501,1.417-0.748,2.344-0.748c0.957,0,1.715,0.241,2.265,0.72
				c0.551,0.482,0.835,1.148,0.854,2.006v4.064c0,0.829,0.088,1.455,0.263,1.868v0.097C340.56,39.226,339.543,39.226,339.543,39.226
				z M336.558,38.547c0.635,0,1.205-0.153,1.705-0.46c0.501-0.307,0.864-0.72,1.092-1.233v-1.89h-1.699
				c-0.948,0.009-1.69,0.185-2.222,0.519c-0.535,0.335-0.801,0.798-0.801,1.386c0,0.482,0.178,0.882,0.535,1.202
				C335.522,38.385,335.985,38.547,336.558,38.547z"/>
			<path class="st9" d="M346.395,31.445c-0.203-0.034-0.416-0.056-0.645-0.056c-0.595,0-1.098,0.166-1.505,0.498
				c-0.41,0.332-0.704,0.81-0.879,1.439v5.901h-0.945v-8.592h0.929l0.016,1.364c0.501-1.017,1.311-1.524,2.422-1.524
				c0.263,0,0.476,0.034,0.629,0.103L346.395,31.445z"/>
			<path class="st9" d="M348.398,30.634l0.031,1.471c0.325-0.532,0.726-0.936,1.208-1.211c0.482-0.278,1.017-0.419,1.596-0.419
				c0.923,0,1.608,0.26,2.059,0.779c0.451,0.519,0.676,1.295,0.682,2.334v5.638h-0.945v-5.648c-0.003-0.767-0.169-1.339-0.488-1.718
				c-0.319-0.375-0.829-0.563-1.536-0.563c-0.588,0-1.111,0.185-1.561,0.551s-0.788,0.864-1.004,1.489v5.886h-0.945v-8.592
				C347.493,30.634,348.398,30.634,348.398,30.634z"/>
			<path class="st9" d="M355.963,28.153c0-0.178,0.059-0.332,0.175-0.454c0.116-0.122,0.275-0.185,0.476-0.185
				s0.363,0.063,0.482,0.185c0.119,0.122,0.178,0.275,0.178,0.454c0,0.178-0.059,0.329-0.178,0.451
				c-0.119,0.122-0.282,0.181-0.482,0.181c-0.203,0-0.36-0.059-0.476-0.181C356.02,28.482,355.963,28.331,355.963,28.153z
				 M357.083,39.226h-0.954v-8.592h0.954V39.226z"/>
			<path class="st9" d="M360.162,30.634l0.031,1.471c0.325-0.532,0.726-0.936,1.208-1.211c0.482-0.278,1.017-0.419,1.596-0.419
				c0.923,0,1.608,0.26,2.059,0.779c0.451,0.519,0.676,1.295,0.682,2.334v5.638h-0.945v-5.648c-0.006-0.767-0.169-1.339-0.488-1.718
				c-0.319-0.375-0.829-0.563-1.536-0.563c-0.588,0-1.111,0.185-1.561,0.551s-0.788,0.864-1.004,1.489v5.886h-0.945v-8.592
				C359.258,30.634,360.162,30.634,360.162,30.634z"/>
			<path class="st9" d="M367.406,34.852c0-1.345,0.297-2.409,0.892-3.198c0.595-0.785,1.405-1.18,2.428-1.18
				c1.17,0,2.059,0.466,2.669,1.399l0.047-1.239h0.892v8.417c0,1.108-0.31,1.984-0.929,2.628c-0.62,0.645-1.458,0.967-2.516,0.967
				c-0.601,0-1.17-0.135-1.715-0.401c-0.541-0.269-0.97-0.626-1.283-1.067l0.532-0.573c0.673,0.826,1.471,1.239,2.4,1.239
				c0.792,0,1.414-0.235,1.859-0.704c0.444-0.469,0.676-1.117,0.691-1.949v-1.076c-0.61,0.848-1.496,1.27-2.66,1.27
				c-0.995,0-1.796-0.397-2.4-1.192c-0.604-0.795-0.904-1.868-0.904-3.217L367.406,34.852L367.406,34.852z M368.366,35.018
				c0,1.098,0.222,1.962,0.66,2.594s1.058,0.948,1.859,0.948c1.17,0,1.996-0.526,2.484-1.574V32.99
				c-0.222-0.551-0.544-0.973-0.961-1.258c-0.419-0.288-0.923-0.432-1.508-0.432c-0.798,0-1.421,0.313-1.868,0.942
				C368.589,32.871,368.366,33.798,368.366,35.018z"/>
		</g>
	</g>
</g>
</svg>
