<?xml version="1.0" encoding="utf-8"?>
<!-- Generator: Adobe Illustrator 21.1.0, SVG Export Plug-In . SVG Version: 6.00 Build 0)  -->
<svg version="1.1" id="Layer_1" xmlns="http://www.w3.org/2000/svg" xmlns:xlink="http://www.w3.org/1999/xlink" x="0px" y="0px"
	 viewBox="0 0 170 49.667" style="enable-background:new 0 0 170 49.667;" xml:space="preserve">
<style type="text/css">
	.st0{fill:#FFFFFF;}
</style>
<polygon class="st0" points="91.719,51.667 91.721,51.662 91.719,51.665 "/>
<path class="st0" d="M147.477,1.71l-0.003,0.009C147.477,1.713,147.473,1.719,147.477,1.71L147.477,1.71z"/>
<polygon class="st0" points="147.464,1.737 147.464,1.737 147.464,1.734 "/>
<path class="st0" d="M15.922,42.366c0,2.562,0.545,5.049,1.565,7.424h1.44h66.356c1.174-2.365,1.499-5.159,0.705-7.893
	c-1.361-4.683-5.584-7.754-10.213-7.867c-1.149-3.551-4.479-6.123-8.414-6.123c-0.678,0-1.333,0.083-1.967,0.227
	c-2.125-3.083-5.678-5.105-9.705-5.105c-2.291,0-4.427,0.657-6.237,1.788c-2.485-3.638-7.11-5.445-11.572-4.149
	c-3.421,0.994-5.944,3.58-7.005,6.717c-1.279,0.078-2.553,0.346-3.85,0.665C17.691,30.346,15.923,39.791,15.922,42.366z
	 M41.898,31.364c0.143-0.092,0.278-0.193,0.428-0.27c0.152-0.074,0.306-0.165,0.468-0.214l0.242-0.085l0.249-0.063
	c0.167-0.048,0.339-0.064,0.511-0.085c0.172-0.017,0.347-0.012,0.522-0.013c0.172,0.021,0.352,0.021,0.524,0.061l0.261,0.052
	c0.087,0.022,0.17,0.054,0.255,0.079c0.174,0.048,0.337,0.124,0.501,0.198c0.166,0.074,0.319,0.173,0.479,0.262
	c0.147,0.109,0.307,0.202,0.446,0.328c0.142,0.122,0.281,0.247,0.405,0.391c0.063,0.07,0.13,0.138,0.189,0.213l0.172,0.23
	c0.121,0.149,0.209,0.322,0.311,0.485l0.037,0.063l0.039,0.08l0.057,0.117c0.037,0.084,0.076,0.143,0.113,0.247
	c0.034,0.086,0.067,0.174,0.098,0.26l0.155-0.1l0.143-0.092l0.037-0.022l0.059-0.033l0.068-0.036l0.275-0.143l0.137-0.072
	l0.165-0.065c0.222-0.085,0.448-0.18,0.663-0.229l0.328-0.089c0.109-0.026,0.222-0.039,0.333-0.059
	c0.11-0.017,0.222-0.039,0.335-0.048l0.337-0.017c0.225-0.019,0.45,0.006,0.676,0.014c0.225,0.008,0.446,0.058,0.669,0.091
	c0.221,0.052,0.441,0.109,0.657,0.174c0.211,0.083,0.43,0.145,0.633,0.249c0.202,0.101,0.409,0.196,0.601,0.324l0.292,0.182
	c0.094,0.067,0.183,0.139,0.276,0.209c0.189,0.134,0.355,0.295,0.522,0.455c0.172,0.152,0.315,0.339,0.47,0.511
	c0.152,0.172,0.275,0.375,0.412,0.563c0.039,0.061,0.072,0.126,0.109,0.189c0.005-0.003,0.009-0.005,0.014-0.006
	c0.162-0.062,0.328-0.101,0.493-0.145c0.167-0.031,0.334-0.068,0.502-0.081c0.169-0.026,0.337-0.023,0.506-0.028
	c0.167,0.009,0.336,0.01,0.502,0.037c0.167,0.017,0.331,0.061,0.494,0.098c0.162,0.05,0.324,0.094,0.477,0.162
	c0.158,0.057,0.308,0.135,0.457,0.209c0.143,0.087,0.294,0.163,0.428,0.263c0.136,0.094,0.269,0.2,0.395,0.309
	c0.063,0.055,0.134,0.103,0.193,0.16l0.113,0.059l0.01,0.012l-0.012,0.046l-0.025,0.033l0.005,0.006l0.018,0.024l0.037,0.047
	l0.294,0.375c0.096,0.132,0.174,0.295,0.259,0.439c0.039,0.074,0.086,0.146,0.119,0.222l0.09,0.233
	c0.057,0.156,0.13,0.304,0.156,0.47c0.037,0.161,0.072,0.32,0.103,0.479l-0.208-0.433c-0.057-0.149-0.165-0.271-0.24-0.405
	l-0.124-0.196c-0.043-0.063-0.096-0.118-0.143-0.175c-0.1-0.111-0.18-0.229-0.293-0.335l-0.343-0.32l-0.037-0.047l-0.009-0.033
	l0.008-0.014l-0.017,0.008l-0.113-0.037c-0.059-0.041-0.117-0.087-0.178-0.125c-0.124-0.074-0.245-0.151-0.376-0.211
	c-0.123-0.071-0.257-0.12-0.385-0.175c-0.134-0.042-0.264-0.094-0.401-0.121c-0.132-0.039-0.271-0.056-0.406-0.079
	c-0.136-0.01-0.273-0.027-0.41-0.025c-0.136-0.008-0.272,0.005-0.407,0.01c-0.135,0.019-0.268,0.03-0.4,0.063
	c-0.133,0.023-0.262,0.068-0.39,0.103c-0.127,0.05-0.254,0.091-0.374,0.154c-0.124,0.054-0.238,0.126-0.357,0.187l-0.41,0.211
	l-0.295-0.433c-0.11-0.16-0.209-0.325-0.322-0.479c-0.122-0.145-0.231-0.304-0.362-0.439c-0.132-0.133-0.253-0.282-0.401-0.396
	c-0.14-0.123-0.282-0.244-0.436-0.348c-0.076-0.054-0.151-0.111-0.226-0.163l-0.24-0.14c-0.156-0.101-0.328-0.167-0.492-0.246
	c-0.165-0.083-0.342-0.129-0.511-0.196c-0.176-0.049-0.353-0.094-0.529-0.134c-0.18-0.02-0.357-0.066-0.538-0.074
	c-0.182-0.007-0.361-0.032-0.542-0.015l-0.27,0.01c-0.09,0.005-0.178,0.025-0.269,0.035c-0.089,0.014-0.178,0.019-0.269,0.037
	l-0.264,0.063c-0.183,0.034-0.337,0.101-0.502,0.154l-0.124,0.04l-0.141,0.065l-0.279,0.128l-0.07,0.033l-0.016,0.007l-0.023,0.012
	l-0.119,0.07l-0.24,0.14c-0.157,0.102-0.306,0.216-0.461,0.322l-0.751,0.517l-0.142-0.898c-0.024-0.15-0.033-0.303-0.07-0.451
	c-0.028-0.154-0.07-0.287-0.107-0.424c-0.013-0.063-0.057-0.157-0.083-0.235l-0.047-0.121l-0.012-0.031l-0.007-0.015l-0.001-0.002
	l-0.021-0.041c-0.07-0.135-0.125-0.281-0.211-0.407l-0.119-0.196c-0.041-0.063-0.09-0.122-0.135-0.183
	c-0.087-0.127-0.193-0.236-0.297-0.35c-0.098-0.118-0.22-0.211-0.329-0.32c-0.123-0.09-0.24-0.192-0.37-0.271
	c-0.131-0.079-0.26-0.165-0.401-0.225c-0.136-0.07-0.28-0.125-0.424-0.18c-0.144-0.063-0.296-0.087-0.446-0.134
	c-0.153-0.024-0.306-0.058-0.463-0.07c-0.156-0.006-0.315-0.03-0.472-0.018l-0.24,0.008l-0.238,0.032
	c-0.162,0.015-0.313,0.061-0.475,0.094C42.212,31.251,42.058,31.316,41.898,31.364z"/>
</svg>
