<?xml version="1.0" encoding="utf-8"?>
<!-- Generator: Adobe Illustrator 22.1.0, SVG Export Plug-In . SVG Version: 6.00 Build 0)  -->
<svg version="1.1" id="Layer_1" xmlns="http://www.w3.org/2000/svg" xmlns:xlink="http://www.w3.org/1999/xlink" x="0px" y="0px"
	 viewBox="0 0 10 10" style="enable-background:new 0 0 10 10;" xml:space="preserve">
<style type="text/css">
	.st0{fill:#00ABC9;}
</style>
<g>
	<polygon class="st0" points="6.562,3.122 4.425,5.258 3.299,4.131 2.061,5.37 4.426,7.735 5.663,6.496 5.663,6.496 7.799,4.36 	"/>
	<path class="st0" d="M4.956,0.48c-2.481,0-4.5,2.019-4.5,4.501c0,2.481,2.02,4.501,4.501,4.501s4.5-2.02,4.499-4.501
		C9.456,2.499,7.438,0.48,4.956,0.48z M4.957,8.86c-2.138,0-3.877-1.74-3.877-3.878s1.74-3.878,3.877-3.878s3.877,1.74,3.877,3.878
		S7.094,8.86,4.957,8.86z"/>
</g>
</svg>
