<?xml version="1.0" encoding="utf-8"?>
<!-- Generator: Adobe Illustrator 22.1.0, SVG Export Plug-In . SVG Version: 6.00 Build 0)  -->
<svg version="1.1" id="Layer_1" xmlns="http://www.w3.org/2000/svg" xmlns:xlink="http://www.w3.org/1999/xlink" x="0px" y="0px"
	 viewBox="0 0 10 10" style="enable-background:new 0 0 10 10;" xml:space="preserve">
<style type="text/css">
	.st0{fill:#707172;}
</style>
<polygon class="st0" points="7.285,4.069 6.047,2.83 4.98,3.899 3.911,2.83 2.673,4.069 3.741,5.136 2.673,6.204 3.911,7.442 
	4.98,6.375 6.047,7.442 7.285,6.204 6.217,5.136 "/>
<g>
	<path class="st0" d="M4.997,9.478c-2.481,0-4.501-2.02-4.501-4.501c0-2.482,2.019-4.501,4.5-4.501c2.482,0,4.5,2.019,4.5,4.501
		C9.497,7.458,7.478,9.478,4.997,9.478z M4.997,1.1c-2.138,0-3.877,1.74-3.877,3.878s1.74,3.878,3.877,3.878s3.877-1.74,3.877-3.878
		C8.874,2.838,7.134,1.1,4.997,1.1z"/>
</g>
</svg>
