<?xml version="1.0" encoding="utf-8"?>
<!-- Generator: Adobe Illustrator 21.1.0, SVG Export Plug-In . SVG Version: 6.00 Build 0)  -->
<svg version="1.1" id="Layer_1" xmlns="http://www.w3.org/2000/svg" xmlns:xlink="http://www.w3.org/1999/xlink" x="0px" y="0px"
	 viewBox="0 0 100 10" style="enable-background:new 0 0 100 10;" xml:space="preserve">
<style type="text/css">
	.st0{fill:#00B3E3;}
	.st1{fill:#2374BA;}
	.st2{fill:#FFFFFF;}
</style>
<g>
	<rect y="0.128" class="st0" width="8.999" height="6.869"/>
	<polygon class="st1" points="8.999,0.128 8.999,6.997 0,6.997 1.637,8.054 10.641,8.054 10.641,1.713 	"/>
	<polygon class="st2" points="1.495,5.497 1.568,1.484 0.776,1.567 0.678,1.069 3.216,1.181 3.112,1.414 2.251,1.452 1.813,5.568 	
		"/>
	<g>
		<path class="st2" d="M5.192,5.027c-0.14,0.092-0.41,0.169-0.679,0.207C3.386,5.392,2.919,4.575,2.787,3.843
			c-0.165-0.918,0.124-1.722,0.901-1.83c0.03-0.004,0.067-0.003,0.095-0.007c0.789-0.051,1.105,0.51,1.225,1.178
			c0.025,0.134,0.033,0.219,0.048,0.388L3.201,3.693C3.35,4.692,3.895,4.82,4.345,4.797c0.036-0.005,0.073-0.003,0.111-0.009
			C4.688,4.755,4.854,4.68,4.967,4.604L5.192,5.027z M4.469,3.207C4.365,2.622,4.082,2.287,3.703,2.34
			C3.274,2.4,3.17,2.901,3.221,3.348L4.469,3.207z"/>
		<path class="st2" d="M7.187,6.568L7.4,4.966L7.378,4.963c-0.15,0.216-0.498,0.411-0.891,0.356
			c-0.923-0.13-1.024-1.105-0.882-1.894c0.181-1.008,0.857-1.453,1.431-1.373c0.277,0.039,0.546,0.195,0.685,0.543l0.014,0.002
			l0.008-0.584l0.636,0.28L8.21,3.237L7.585,6.512L7.187,6.568z M7.586,3.386C7.649,2.915,7.44,2.497,7.055,2.443
			c-0.473-0.066-0.783,0.378-0.892,0.98c-0.094,0.526-0.05,1.362,0.59,1.451C7,4.91,7.424,4.745,7.493,4.156L7.586,3.386z"/>
	</g>
</g>
</svg>
