<?xml version="1.0" encoding="utf-8"?>
<!-- Generator: Adobe Illustrator 21.1.0, SVG Export Plug-In . SVG Version: 6.00 Build 0)  -->
<svg version="1.1" id="Layer_1" xmlns="http://www.w3.org/2000/svg" xmlns:xlink="http://www.w3.org/1999/xlink" x="0px" y="0px"
	 viewBox="0 0 50 50" style="enable-background:new 0 0 50 50;" xml:space="preserve">
<style type="text/css">
	.st0{fill:#66CEF6;}
	.st1{fill:#FFFFFF;}
	.st2{fill:#52A4C4;}
	.st3{fill:#2E697F;}
</style>
<g>
	<g>
		<rect class="st0" width="44.004" height="44.004"/>
		<g>
			<path class="st1" d="M37.261,10.444c-0.526,1.375-1.417,2.443-2.658,3.228c0.595-0.049,1.177-0.156,1.742-0.336
				c0.561-0.178,1.114-0.382,1.671-0.575c-0.152,0.198-0.306,0.406-0.467,0.609c-0.623,0.786-1.315,1.505-2.111,2.119
				c-0.144,0.111-0.29,0.22-0.44,0.322c-0.064,0.043-0.087,0.088-0.088,0.165c-0.005,0.493-0.006,0.985-0.025,1.478
				c-0.032,0.807-0.147,1.604-0.311,2.394c-0.434,2.087-1.228,4.029-2.37,5.828c-0.939,1.478-2.079,2.782-3.423,3.906
				c-1.399,1.17-2.952,2.08-4.653,2.736c-1.083,0.418-2.198,0.719-3.342,0.918c-1.451,0.253-2.914,0.323-4.383,0.263
				c-0.638-0.026-1.276-0.062-1.912-0.119c-0.749-0.067-1.492-0.186-2.227-0.348c-1.28-0.282-2.508-0.707-3.662-1.333
				c-0.178-0.096-0.351-0.2-0.522-0.324c0.037,0,0.074,0.001,0.111,0c0.664-0.013,1.329-0.007,1.991-0.044
				c1.542-0.087,3.007-0.468,4.38-1.187c0.91-0.477,1.743-1.07,2.584-1.692c-0.156-0.012-0.291-0.02-0.425-0.032
				c-0.605-0.057-1.182-0.226-1.738-0.464c-1.485-0.636-2.732-1.59-3.753-2.838c-0.438-0.536-0.799-1.119-1.025-1.779
				c-0.008-0.023-0.014-0.047-0.027-0.093c0.453,0.137,0.906,0.13,1.357,0.113c0.448-0.017,0.886-0.109,1.32-0.233
				c-1.402-0.297-2.567-0.984-3.473-2.092c-0.906-1.107-1.337-2.384-1.333-3.833c0.871,0.4,1.778,0.598,2.723,0.718
				c-0.171-0.132-0.333-0.25-0.487-0.379c-1.172-0.979-1.931-2.205-2.166-3.724c-0.167-1.086-0.058-2.15,0.397-3.161
				c0.11-0.245,0.258-0.473,0.393-0.716c0.331,0.376,0.637,0.734,0.955,1.081c1.328,1.454,2.798,2.741,4.479,3.777
				c1.479,0.912,3.059,1.583,4.751,1.981c1.174,0.276,2.365,0.417,3.572,0.419c0.035,0,0.071,0,0.112,0
				c-0.134-0.545-0.129-1.09-0.103-1.635c0.049-1.009,0.347-1.942,0.897-2.786c0.965-1.481,2.325-2.395,4.06-2.716
				c1.921-0.355,3.645,0.132,5.188,1.306c0.187,0.142,0.36,0.304,0.537,0.459c0.044,0.039,0.081,0.05,0.142,0.038
				c1.297-0.235,2.504-0.708,3.647-1.355C37.183,10.486,37.222,10.465,37.261,10.444z"/>
		</g>
	</g>
	<g>
		<polygon class="st2" points="46.864,46.424 2.86,46.424 0,44.004 44.004,44.004 		"/>
	</g>
	<g>
		<polygon class="st3" points="46.864,2.42 46.864,46.424 44.004,44.004 44.004,0 		"/>
	</g>
</g>
</svg>
