<?xml version="1.0" encoding="utf-8"?>
<!-- Generator: Adobe Illustrator 22.1.0, SVG Export Plug-In . SVG Version: 6.00 Build 0)  -->
<svg version="1.1" id="Layer_1" xmlns="http://www.w3.org/2000/svg" xmlns:xlink="http://www.w3.org/1999/xlink" x="0px" y="0px"
	 viewBox="0 0 15 10" style="enable-background:new 0 0 15 10;" xml:space="preserve">
<style type="text/css">
	.st0{fill:#FFFFFF;}
</style>
<g id="fhsER0_1_">
	<g>
		<path class="st0" d="M13.3,0.6c0,2.9,0,5.8,0,8.8c-0.2,0.3-0.5,0.4-0.9,0.4c-3.1,0-6.1,0-9.2,0c-0.4,0-0.7-0.1-0.9-0.4
			c0-2.9,0-5.8,0-8.8c0.2-0.3,0.5-0.4,0.9-0.4c3.1,0,6.1,0,9.2,0C12.8,0.1,13.1,0.3,13.3,0.6z M12.6,1.9c-3.2,0-6.4,0-9.6,0
			c0,2.4,0,4.8,0,7.2c3.2,0,6.4,0,9.6,0C12.6,6.7,12.6,4.3,12.6,1.9z M9.8,1.5c0.2,0,0.4-0.2,0.4-0.4c0-0.2-0.2-0.4-0.4-0.4
			C9.6,0.6,9.4,0.8,9.4,1C9.4,1.2,9.6,1.5,9.8,1.5z M11,0.6c-0.2,0-0.4,0.2-0.4,0.4c0,0.2,0.2,0.4,0.4,0.4c0.2,0,0.4-0.2,0.4-0.4
			C11.4,0.8,11.2,0.6,11,0.6z M12.6,1c0-0.2-0.2-0.4-0.4-0.4c-0.2,0-0.4,0.2-0.4,0.4c0,0.2,0.2,0.4,0.4,0.4
			C12.4,1.5,12.6,1.2,12.6,1z"/>
		<path class="st0" d="M5.7,2.9c1.5,0.9,2.9,1.7,4.4,2.6C8.6,6.3,7.2,7.1,5.7,8C5.7,6.2,5.7,4.6,5.7,2.9z"/>
	</g>
</g>
</svg>
